<svg width="20" height="20" viewBox="0 0 20 20" fill="none" xmlns="http://www.w3.org/2000/svg">
<path d="M15.7083 10.125H13.4583C12.4182 10.125 11.7599 9.88199 11.3556 9.47772C10.9514 9.07344 10.7083 8.41511 10.7083 7.37502V4.29169C10.7083 3.2516 10.9514 2.59327 11.3556 2.18899C11.7599 1.78471 12.4182 1.54169 13.4583 1.54169H15.7083C16.7484 1.54169 17.4067 1.78471 17.811 2.18899C18.2153 2.59327 18.4583 3.2516 18.4583 4.29169V7.37502C18.4583 8.41511 18.2153 9.07344 17.811 9.47772C17.4067 9.88199 16.7484 10.125 15.7083 10.125ZM13.4583 1.79169C12.6743 1.79169 11.9901 1.90277 11.5298 2.36313C11.0694 2.8235 10.9583 3.50762 10.9583 4.29169V7.37502C10.9583 8.15909 11.0694 8.84321 11.5298 9.30357C11.9901 9.76394 12.6743 9.87502 13.4583 9.87502H15.7083C16.4924 9.87502 17.1765 9.76394 17.6369 9.30357C18.0972 8.84321 18.2083 8.15909 18.2083 7.37502V4.29169C18.2083 3.50762 18.0972 2.8235 17.6369 2.36313C17.1765 1.90277 16.4924 1.79169 15.7083 1.79169H13.4583Z" fill="#101218" stroke="#B8C1CC"/>
<path d="M6.54167 18.4583H4.29167C3.25158 18.4583 2.59325 18.2153 2.18898 17.811C1.7847 17.4068 1.54167 16.7484 1.54167 15.7083V12.625C1.54167 11.5849 1.7847 10.9266 2.18898 10.5223C2.59325 10.118 3.25158 9.875 4.29167 9.875H6.54167C7.58176 9.875 8.24009 10.118 8.64437 10.5223C9.04865 10.9266 9.29167 11.5849 9.29167 12.625V15.7083C9.29167 16.7484 9.04865 17.4068 8.64437 17.811C8.24009 18.2153 7.58176 18.4583 6.54167 18.4583ZM4.29167 10.125C3.50761 10.125 2.82348 10.2361 2.36312 10.6964C1.90275 11.1568 1.79167 11.8409 1.79167 12.625V15.7083C1.79167 16.4924 1.90275 17.1765 2.36312 17.6369C2.82348 18.0973 3.50761 18.2083 4.29167 18.2083H6.54167C7.32574 18.2083 8.00986 18.0973 8.47023 17.6369C8.93059 17.1765 9.04167 16.4924 9.04167 15.7083V12.625C9.04167 11.8409 8.93059 11.1568 8.47023 10.6964C8.00986 10.2361 7.32574 10.125 6.54167 10.125H4.29167Z" fill="#101218" stroke="#B8C1CC"/>
<path d="M18.9667 12.5L18.4667 12.4988C18.459 15.7822 15.782 18.4583 12.5 18.4583C12.4584 18.4583 12.4148 18.4331 12.3936 18.3956C12.3719 18.3572 12.3739 18.3093 12.3938 18.2766L12.3938 18.2766L12.3954 18.2739L13.2704 16.8156L13.2704 16.8156L13.2736 16.8103C13.3028 16.7601 13.3752 16.731 13.4481 16.7736C13.4979 16.8026 13.5268 16.874 13.4858 16.9463L13.2629 17.3178L12.6537 18.3331L13.8063 18.0617C16.3253 17.4684 18.2167 15.2055 18.2167 12.5C18.2167 12.4699 18.229 12.4386 18.2546 12.4129C18.2802 12.3873 18.3115 12.375 18.3417 12.375C18.3718 12.375 18.4031 12.3873 18.4287 12.4129C18.4544 12.4386 18.4667 12.4699 18.4667 12.5H18.9667ZM18.9667 12.5C18.9667 12.1583 18.6833 11.875 18.3417 11.875C18 11.875 17.7167 12.1583 17.7167 12.5C17.7167 14.7062 16.3367 16.5924 14.3997 17.3537L11.9667 18.0167C11.85 18.2083 11.85 18.45 11.9583 18.6417C12.0667 18.8333 12.275 18.9583 12.5 18.9583C16.0583 18.9583 18.9583 16.0583 18.9667 12.5Z" fill="#101218" stroke="#B8C1CC"/>
<path d="M7.60624 1.72338L7.60622 1.72337L7.60395 1.72718L6.72959 3.19277C6.72952 3.19289 6.72945 3.19301 6.72938 3.19313C6.69595 3.24839 6.62161 3.26892 6.56073 3.23171L6.55725 3.22961C6.50172 3.19629 6.48103 3.12176 6.51831 3.06075L6.52042 3.05727L6.74542 2.68227L7.35396 1.66803L6.20245 1.93824C3.67394 2.53158 1.79167 4.79529 1.79167 7.50002C1.79167 7.53017 1.77939 7.56145 1.75374 7.58709C1.7281 7.61274 1.69682 7.62502 1.66667 7.62502C1.63652 7.62502 1.60524 7.61274 1.5796 7.58709C1.55396 7.56145 1.54167 7.53017 1.54167 7.50002C1.54167 4.21783 4.21781 1.54169 7.5 1.54169C7.54163 1.54169 7.58522 1.56693 7.60639 1.60438C7.6281 1.64279 7.6261 1.69075 7.60624 1.72338Z" fill="#101218" stroke="#B8C1CC"/>
</svg>
