<svg width="20" height="20" viewBox="0 0 20 20" fill="none" xmlns="http://www.w3.org/2000/svg">
<path d="M1.72342 3.8334C2.39009 0.950065 6.73175 0.950065 7.39009 3.8334C7.78175 5.52506 6.70675 6.9584 5.77342 7.85006C5.09009 8.50006 4.01509 8.49173 3.33175 7.85006C2.40675 6.9584 1.33175 5.52506 1.72342 3.8334Z" stroke="#B8C1CC" stroke-width="1.5"/>
<path d="M12.56 13.8334C13.2266 10.9501 17.5933 10.9501 18.26 13.8334C18.6516 15.5251 17.5766 16.9584 16.635 17.8501C15.9516 18.5001 14.8683 18.4917 14.185 17.8501C13.2433 16.9584 12.1683 15.5251 12.56 13.8334Z" stroke="#B8C1CC" stroke-width="1.5"/>
<path d="M10.0014 4.16663H12.2347C13.7764 4.16663 14.493 6.07496 13.3347 7.09163L6.67638 12.9166C5.51805 13.925 6.23471 15.8333 7.76804 15.8333H10.0014" stroke="#B8C1CC" stroke-width="1.5" stroke-linecap="round" stroke-linejoin="round"/>
<path d="M4.57307 4.58329H4.5827" stroke="#B8C1CC" stroke-width="2" stroke-linecap="round" stroke-linejoin="round"/>
<path d="M15.4064 14.5833H15.416" stroke="#B8C1CC" stroke-width="2" stroke-linecap="round" stroke-linejoin="round"/>
</svg>
