<svg width="20" height="20" viewBox="0 0 20 20" fill="none" xmlns="http://www.w3.org/2000/svg">
<path d="M7.08334 15.8333H6.66667C3.33334 15.8333 1.66667 15 1.66667 10.8333V6.66666C1.66667 3.33332 3.33334 1.66666 6.66667 1.66666H13.3333C16.6667 1.66666 18.3333 3.33332 18.3333 6.66666V10.8333C18.3333 14.1667 16.6667 15.8333 13.3333 15.8333H12.9167C12.6583 15.8333 12.4083 15.9583 12.25 16.1667L11 17.8333C10.45 18.5667 9.55001 18.5667 9.00001 17.8333L7.75001 16.1667C7.61667 15.9833 7.30834 15.8333 7.08334 15.8333Z" stroke="#B8C1CC" stroke-width="1.5" stroke-miterlimit="10" stroke-linecap="round" stroke-linejoin="round"/>
<path d="M13.3288 9.16667H13.3362" stroke="#B8C1CC" stroke-width="2" stroke-linecap="round" stroke-linejoin="round"/>
<path d="M9.99542 9.16667H10.0029" stroke="#B8C1CC" stroke-width="2" stroke-linecap="round" stroke-linejoin="round"/>
<path d="M6.66209 9.16667H6.66957" stroke="#B8C1CC" stroke-width="2" stroke-linecap="round" stroke-linejoin="round"/>
</svg>
