<svg width="20" height="20" viewBox="0 0 20 20" fill="none" xmlns="http://www.w3.org/2000/svg">
<g id="Icon/chevron-down" clip-path="url(#clip0_3550_13622)">
<path id="Vector" d="M9.99994 13.1665C9.41661 13.1665 8.83327 12.9415 8.39161 12.4999L2.95827 7.06654C2.84204 6.94892 2.77686 6.79023 2.77686 6.62487C2.77686 6.45951 2.84204 6.30082 2.95827 6.1832C3.19994 5.94154 3.59994 5.94154 3.84161 6.1832L9.27494 11.6165C9.67494 12.0165 10.3249 12.0165 10.7249 11.6165L16.1583 6.1832C16.3999 5.94154 16.7999 5.94154 17.0416 6.1832C17.2833 6.42487 17.2833 6.82487 17.0416 7.06654L11.6083 12.4999C11.1666 12.9415 10.5833 13.1665 9.99994 13.1665Z" fill="#64748B"/>
</g>
<defs>
<clipPath id="clip0_3550_13622">
<rect width="20" height="20" fill="white"/>
</clipPath>
</defs>
</svg>
