<svg width="20" height="20" viewBox="0 0 20 20" fill="none" xmlns="http://www.w3.org/2000/svg">
<path d="M13.3317 18.7516H6.66507C2.81507 18.7516 2.0984 16.96 1.91507 15.2183L1.29007 8.5433C1.1984 7.6683 1.1734 6.37664 2.04007 5.40997C2.79007 4.57664 4.03173 4.17664 5.83173 4.17664H14.1651C15.9734 4.17664 17.2151 4.58497 17.9567 5.40997C18.8234 6.37664 18.7984 7.6683 18.7067 8.55164L18.0817 15.21C17.8984 16.96 17.1817 18.7516 13.3317 18.7516ZM5.83173 5.4183C4.4234 5.4183 3.45673 5.6933 2.96507 6.2433C2.55673 6.6933 2.4234 7.38497 2.53173 8.4183L3.15673 15.0933C3.2984 16.41 3.65673 17.5016 6.66507 17.5016H13.3317C16.3317 17.5016 16.6984 16.41 16.8401 15.085L17.4651 8.42664C17.5734 7.38497 17.4401 6.6933 17.0317 6.2433C16.5401 5.6933 15.5734 5.4183 14.1651 5.4183H5.83173Z" fill="#B8C1CC"/>
<path d="M13.3334 5.41671C12.9917 5.41671 12.7084 5.13337 12.7084 4.79171V4.12504C12.7084 2.64171 12.7084 2.08337 10.6667 2.08337H9.33337C7.2917 2.08337 7.2917 2.64171 7.2917 4.12504V4.79171C7.2917 5.13337 7.00837 5.41671 6.6667 5.41671C6.32504 5.41671 6.0417 5.13337 6.0417 4.79171V4.12504C6.0417 2.65837 6.0417 0.833374 9.33337 0.833374H10.6667C13.9584 0.833374 13.9584 2.65837 13.9584 4.12504V4.79171C13.9584 5.13337 13.675 5.41671 13.3334 5.41671ZM10 13.75C7.70837 13.75 7.70837 12.3334 7.70837 11.4834V10.625C7.70837 9.45004 7.9917 9.16671 9.1667 9.16671H10.8334C12.0084 9.16671 12.2917 9.45004 12.2917 10.625V11.4584C12.2917 12.325 12.2917 13.75 10 13.75ZM8.95837 10.4167V11.4834C8.95837 12.3417 8.95837 12.5 10 12.5C11.0417 12.5 11.0417 12.3667 11.0417 11.475V10.4167H8.95837Z" fill="#B8C1CC"/>
<path d="M11.6667 12.0984C11.3584 12.0984 11.0834 11.8651 11.0501 11.5484C11.0084 11.2067 11.2501 10.8901 11.5917 10.8484C13.7917 10.5734 15.9001 9.74008 17.6751 8.44841C17.9501 8.24008 18.3417 8.30674 18.5501 8.59008C18.7501 8.86508 18.6917 9.25674 18.4084 9.46508C16.4584 10.8817 14.1584 11.7901 11.7417 12.0984H11.6667ZM8.3334 12.1084H8.2584C5.97507 11.8501 3.75007 11.0167 1.82507 9.70008C1.68878 9.60666 1.59483 9.46325 1.56363 9.30099C1.53243 9.13873 1.56648 8.97072 1.6584 8.83341C1.85007 8.55008 2.24174 8.47508 2.52507 8.66674C4.2834 9.86674 6.3084 10.6251 8.39174 10.8667C8.7334 10.9084 8.9834 11.2167 8.94174 11.5584C8.91674 11.8751 8.65007 12.1084 8.3334 12.1084Z" fill="#B8C1CC"/>
</svg>
