<svg width="18" height="18" viewBox="0 0 18 18" fill="none" xmlns="http://www.w3.org/2000/svg">
<path d="M4.83334 7.95829H3.16667C1.15001 7.95829 0.0416718 6.84996 0.0416718 4.83329V3.16663C0.0416718 1.14996 1.15001 0.041626 3.16667 0.041626H4.83334C6.85001 0.041626 7.95834 1.14996 7.95834 3.16663V4.83329C7.95834 6.84996 6.85001 7.95829 4.83334 7.95829ZM3.16667 1.29163C1.85001 1.29163 1.29167 1.84996 1.29167 3.16663V4.83329C1.29167 6.14996 1.85001 6.70829 3.16667 6.70829H4.83334C6.15001 6.70829 6.70834 6.14996 6.70834 4.83329V3.16663C6.70834 1.84996 6.15001 1.29163 4.83334 1.29163H3.16667ZM14.8333 7.95829H13.1667C11.15 7.95829 10.0417 6.84996 10.0417 4.83329V3.16663C10.0417 1.14996 11.15 0.041626 13.1667 0.041626H14.8333C16.85 0.041626 17.9583 1.14996 17.9583 3.16663V4.83329C17.9583 6.84996 16.85 7.95829 14.8333 7.95829ZM13.1667 1.29163C11.85 1.29163 11.2917 1.84996 11.2917 3.16663V4.83329C11.2917 6.14996 11.85 6.70829 13.1667 6.70829H14.8333C16.15 6.70829 16.7083 6.14996 16.7083 4.83329V3.16663C16.7083 1.84996 16.15 1.29163 14.8333 1.29163H13.1667ZM14.8333 17.9583H13.1667C11.15 17.9583 10.0417 16.85 10.0417 14.8333V13.1666C10.0417 11.15 11.15 10.0416 13.1667 10.0416H14.8333C16.85 10.0416 17.9583 11.15 17.9583 13.1666V14.8333C17.9583 16.85 16.85 17.9583 14.8333 17.9583ZM13.1667 11.2916C11.85 11.2916 11.2917 11.85 11.2917 13.1666V14.8333C11.2917 16.15 11.85 16.7083 13.1667 16.7083H14.8333C16.15 16.7083 16.7083 16.15 16.7083 14.8333V13.1666C16.7083 11.85 16.15 11.2916 14.8333 11.2916H13.1667ZM4.83334 17.9583H3.16667C1.15001 17.9583 0.0416718 16.85 0.0416718 14.8333V13.1666C0.0416718 11.15 1.15001 10.0416 3.16667 10.0416H4.83334C6.85001 10.0416 7.95834 11.15 7.95834 13.1666V14.8333C7.95834 16.85 6.85001 17.9583 4.83334 17.9583ZM3.16667 11.2916C1.85001 11.2916 1.29167 11.85 1.29167 13.1666V14.8333C1.29167 16.15 1.85001 16.7083 3.16667 16.7083H4.83334C6.15001 16.7083 6.70834 16.15 6.70834 14.8333V13.1666C6.70834 11.85 6.15001 11.2916 4.83334 11.2916H3.16667Z" fill="#B8C1CC"/>
</svg>
