<svg width="17" height="17" viewBox="0 0 17 17" fill="none" xmlns="http://www.w3.org/2000/svg">
<g id="Group 39809">
<path id="Vector" d="M2.50008 16.6886C1.89008 16.6886 1.33008 16.4686 0.92008 16.0686C0.43008 15.5786 0.220079 14.8686 0.330079 14.1186L0.76008 11.1086C0.84008 10.5286 1.22008 9.77859 1.63008 9.36859L9.51008 1.48859C11.5001 -0.501406 13.5201 -0.501406 15.5101 1.48859C16.6001 2.57859 17.0901 3.68859 16.9901 4.79859C16.9001 5.69859 16.4201 6.57859 15.5101 7.47859L7.63008 15.3586C7.22008 15.7686 6.47008 16.1486 5.89008 16.2286L2.88008 16.6586C2.75008 16.6886 2.62008 16.6886 2.50008 16.6886ZM10.5701 2.54859L2.69008 10.4286C2.50008 10.6186 2.28008 11.0586 2.24008 11.3186L1.81008 14.3286C1.77008 14.6186 1.83008 14.8586 1.98008 15.0086C2.13008 15.1586 2.37008 15.2186 2.66008 15.1786L5.67008 14.7486C5.93008 14.7086 6.38008 14.4886 6.56008 14.2986L14.4401 6.41859C15.0901 5.76859 15.4301 5.18859 15.4801 4.64859C15.5401 3.99859 15.2001 3.30859 14.4401 2.53859C12.8401 0.938594 11.7401 1.38859 10.5701 2.54859Z" fill="#101218"/>
<path id="Vector_2" d="M13.85 8.82929C13.78 8.82929 13.71 8.81929 13.65 8.79929C12.3504 8.42924 11.1668 7.73352 10.2113 6.77802C9.25578 5.82253 8.56006 4.63891 8.19001 3.33929C8.13743 3.14706 8.16248 2.94186 8.25974 2.76791C8.357 2.59396 8.5187 2.46517 8.71001 2.40929C9.11001 2.29929 9.52001 2.52929 9.63001 2.92929C10.23 5.05929 11.92 6.74929 14.05 7.34929C14.45 7.45929 14.68 7.87929 14.57 8.27929C14.48 8.61929 14.18 8.82929 13.85 8.82929Z" fill="#101218"/>
</g>
</svg>
