<svg width="16" height="16" viewBox="0 0 16 16" fill="none" xmlns="http://www.w3.org/2000/svg">
<g id="Icon/edit" clip-path="url(#clip0_3583_29718)">
<path id="Vector" d="M3.96249 12.0752C3.58124 12.0752 3.22499 11.944 2.96874 11.7002C2.64374 11.394 2.48749 10.9315 2.54374 10.4315L2.77499 8.40646C2.81874 8.02521 3.04999 7.51896 3.31874 7.24396L8.44999 1.81271C9.73124 0.456464 11.0687 0.418964 12.425 1.70021C13.7812 2.98146 13.8187 4.31896 12.5375 5.67521L7.40624 11.1065C7.14374 11.3877 6.65624 11.6502 6.27499 11.7127L4.26249 12.0565C4.15624 12.0627 4.06249 12.0752 3.96249 12.0752ZM10.4562 1.69396C9.97499 1.69396 9.55624 1.99396 9.13124 2.44396L3.99999 7.88146C3.87499 8.01271 3.73124 8.32521 3.70624 8.50646L3.47499 10.5315C3.44999 10.7377 3.49999 10.9065 3.61249 11.0127C3.72499 11.119 3.89374 11.1565 4.09999 11.1252L6.11249 10.7815C6.29374 10.7502 6.59374 10.5877 6.71874 10.4565L11.85 5.02521C12.625 4.20021 12.9062 3.43771 11.775 2.37521C11.275 1.89396 10.8437 1.69396 10.4562 1.69396Z" fill="#0ACBA7"/>
<g id="Vector_2">
<mask id="path-2-inside-1_3583_29718" fill="white">
<path d="M11.3375 6.71853H11.2938C10.3466 6.62564 9.4572 6.22022 8.7658 5.56617C8.07441 4.91212 7.62029 4.04662 7.475 3.10603C7.4375 2.84978 7.6125 2.61228 7.86875 2.56853C8.125 2.53103 8.3625 2.70603 8.40625 2.96228C8.52068 3.69769 8.87622 4.37423 9.41699 4.88558C9.95776 5.39693 10.6531 5.71412 11.3938 5.78728C11.65 5.81228 11.8375 6.04353 11.8125 6.29978C11.7813 6.53728 11.575 6.71853 11.3375 6.71853ZM13.625 14.0942H2.375C2.11875 14.0942 1.90625 13.8817 1.90625 13.6254C1.90625 13.3692 2.11875 13.1567 2.375 13.1567H13.625C13.8812 13.1567 14.0938 13.3692 14.0938 13.6254C14.0938 13.8817 13.8812 14.0942 13.625 14.0942Z"/>
</mask>
<path d="M11.3375 6.71853H11.2938C10.3466 6.62564 9.4572 6.22022 8.7658 5.56617C8.07441 4.91212 7.62029 4.04662 7.475 3.10603C7.4375 2.84978 7.6125 2.61228 7.86875 2.56853C8.125 2.53103 8.3625 2.70603 8.40625 2.96228C8.52068 3.69769 8.87622 4.37423 9.41699 4.88558C9.95776 5.39693 10.6531 5.71412 11.3938 5.78728C11.65 5.81228 11.8375 6.04353 11.8125 6.29978C11.7813 6.53728 11.575 6.71853 11.3375 6.71853ZM13.625 14.0942H2.375C2.11875 14.0942 1.90625 13.8817 1.90625 13.6254C1.90625 13.3692 2.11875 13.1567 2.375 13.1567H13.625C13.8812 13.1567 14.0938 13.3692 14.0938 13.6254C14.0938 13.8817 13.8812 14.0942 13.625 14.0942Z" fill="#0ACBA7"/>
<path d="M11.2938 6.71853L11.1839 7.83816L11.2387 7.84353H11.2938V6.71853ZM7.475 3.10603L6.36182 3.26894L6.36319 3.27778L7.475 3.10603ZM7.86875 2.56853L7.70585 1.45539L7.69261 1.45733L7.67942 1.45958L7.86875 2.56853ZM8.40625 2.96228L9.51787 2.78931L9.5166 2.78112L9.5152 2.77295L8.40625 2.96228ZM11.3938 5.78728L11.2832 6.90683L11.2845 6.90697L11.3938 5.78728ZM11.8125 6.29978L12.9279 6.44655L12.9304 6.42782L12.9322 6.40902L11.8125 6.29978ZM11.3375 5.59353H11.2938V7.84353H11.3375V5.59353ZM11.4036 5.59891C10.7049 5.53038 10.0489 5.23135 9.53892 4.74891L7.99268 6.38343C8.86549 7.2091 9.98821 7.72089 11.1839 7.83816L11.4036 5.59891ZM9.53892 4.74891C9.02894 4.26648 8.69398 3.62808 8.58681 2.93429L6.36319 3.27778C6.5466 4.46516 7.11988 5.55776 7.99268 6.38343L9.53892 4.74891ZM8.58814 2.94313C8.64059 3.30149 8.39385 3.62016 8.05808 3.67749L7.67942 1.45958C6.83115 1.60441 6.23441 2.39808 6.36186 3.26893L8.58814 2.94313ZM8.03165 3.68168C7.67329 3.73412 7.35462 3.48738 7.2973 3.15162L9.5152 2.77295C9.37038 1.92469 8.57671 1.32795 7.70585 1.45539L8.03165 3.68168ZM7.29463 3.13526C7.4474 4.11708 7.92207 5.0203 8.64404 5.70299L10.1899 4.06816C9.83037 3.72815 9.59396 3.2783 9.51787 2.78931L7.29463 3.13526ZM8.64404 5.70299C9.366 6.38569 10.2943 6.80915 11.2832 6.90683L11.5043 4.66773C11.0119 4.61908 10.5495 4.40818 10.1899 4.06816L8.64404 5.70299ZM11.2845 6.90697C10.9134 6.87076 10.6584 6.54369 10.6928 6.19055L12.9322 6.40902C13.0166 5.54338 12.3866 4.7538 11.503 4.6676L11.2845 6.90697ZM10.6971 6.15302C10.739 5.83488 11.0063 5.59353 11.3375 5.59353V7.84353C12.1437 7.84353 12.8235 7.23968 12.9279 6.44655L10.6971 6.15302ZM13.625 12.9692H2.375V15.2192H13.625V12.9692ZM2.375 12.9692C2.74007 12.9692 3.03125 13.2603 3.03125 13.6254H0.78125C0.78125 14.503 1.49743 15.2192 2.375 15.2192V12.9692ZM3.03125 13.6254C3.03125 13.9905 2.74007 14.2817 2.375 14.2817V12.0317C1.49743 12.0317 0.78125 12.7478 0.78125 13.6254H3.03125ZM2.375 14.2817H13.625V12.0317H2.375V14.2817ZM13.625 14.2817C13.2599 14.2817 12.9688 13.9905 12.9688 13.6254H15.2188C15.2188 12.7478 14.5026 12.0317 13.625 12.0317V14.2817ZM12.9688 13.6254C12.9688 13.2603 13.2599 12.9692 13.625 12.9692V15.2192C14.5026 15.2192 15.2188 14.503 15.2188 13.6254H12.9688Z" fill="#0ACBA7" mask="url(#path-2-inside-1_3583_29718)"/>
</g>
</g>
<defs>
<clipPath id="clip0_3583_29718">
<rect width="15" height="15" fill="white" transform="translate(0.5 0.5)"/>
</clipPath>
</defs>
</svg>
