<svg width="20" height="20" viewBox="0 0 20 20" fill="none" xmlns="http://www.w3.org/2000/svg">
<path d="M4.61666 15.4336C4.10832 15.4336 3.63332 15.2586 3.29166 14.9336C2.85832 14.5253 2.64999 13.9086 2.72499 13.242L3.03332 10.542C3.09166 10.0336 3.39999 9.35862 3.75832 8.99195L10.6 1.75028C12.3083 -0.0580484 14.0917 -0.108048 15.9 1.60029C17.7083 3.30862 17.7583 5.09195 16.05 6.90028L9.20832 14.142C8.85832 14.517 8.20832 14.867 7.69999 14.9503L5.01666 15.4086C4.87499 15.417 4.74999 15.4336 4.61666 15.4336ZM13.275 1.59195C12.6333 1.59195 12.075 1.99195 11.5083 2.59195L4.66666 9.84195C4.49999 10.017 4.30832 10.4336 4.27499 10.6753L3.96666 13.3753C3.93332 13.6503 3.99999 13.8753 4.14999 14.017C4.29999 14.1586 4.52499 14.2086 4.79999 14.167L7.48332 13.7086C7.72499 13.667 8.12499 13.4503 8.29166 13.2753L15.1333 6.03362C16.1667 4.93362 16.5417 3.91695 15.0333 2.50029C14.3667 1.85862 13.7917 1.59195 13.275 1.59195Z" fill="#0ACBA7"/>
<mask id="path-2-inside-1_3649_32100" fill="white">
<path d="M14.45 8.29105H14.3917C13.1287 8.16719 11.9429 7.62664 11.0211 6.75457C10.0992 5.8825 9.49372 4.7285 9.3 3.47439C9.25 3.13272 9.48333 2.81605 9.825 2.75772C10.1667 2.70772 10.4833 2.94105 10.5417 3.28272C10.6942 4.26326 11.1683 5.16531 11.8893 5.84711C12.6103 6.52892 13.5375 6.95183 14.525 7.04939C14.8667 7.08272 15.1167 7.39105 15.0833 7.73272C15.0417 8.04939 14.7667 8.29105 14.45 8.29105ZM17.5 18.1252H2.5C2.15833 18.1252 1.875 17.8419 1.875 17.5002C1.875 17.1586 2.15833 16.8752 2.5 16.8752H17.5C17.8417 16.8752 18.125 17.1586 18.125 17.5002C18.125 17.8419 17.8417 18.1252 17.5 18.1252Z"/>
</mask>
<path d="M14.45 8.29105H14.3917C13.1287 8.16719 11.9429 7.62664 11.0211 6.75457C10.0992 5.8825 9.49372 4.7285 9.3 3.47439C9.25 3.13272 9.48333 2.81605 9.825 2.75772C10.1667 2.70772 10.4833 2.94105 10.5417 3.28272C10.6942 4.26326 11.1683 5.16531 11.8893 5.84711C12.6103 6.52892 13.5375 6.95183 14.525 7.04939C14.8667 7.08272 15.1167 7.39105 15.0833 7.73272C15.0417 8.04939 14.7667 8.29105 14.45 8.29105ZM17.5 18.1252H2.5C2.15833 18.1252 1.875 17.8419 1.875 17.5002C1.875 17.1586 2.15833 16.8752 2.5 16.8752H17.5C17.8417 16.8752 18.125 17.1586 18.125 17.5002C18.125 17.8419 17.8417 18.1252 17.5 18.1252Z" fill="#0ACBA7"/>
<path d="M14.3917 8.29105L14.2453 9.78389L14.3183 9.79105H14.3917V8.29105ZM9.3 3.47439L7.81576 3.69159L7.81758 3.70338L9.3 3.47439ZM9.825 2.75772L9.6078 1.27353L9.59014 1.27611L9.57256 1.27911L9.825 2.75772ZM10.5417 3.28272L12.0238 3.05209L12.0221 3.04117L12.0203 3.03028L10.5417 3.28272ZM14.525 7.04939L14.3775 8.54212L14.3793 8.5423L14.525 7.04939ZM15.0833 7.73272L16.5705 7.9284L16.5738 7.90343L16.5762 7.87837L15.0833 7.73272ZM14.45 6.79105H14.3917V9.79105H14.45V6.79105ZM14.5381 6.79822C13.6065 6.70685 12.7319 6.30814 12.0519 5.66489L9.99025 7.84425C11.154 8.94514 12.651 9.62753 14.2453 9.78389L14.5381 6.79822ZM12.0519 5.66489C11.3719 5.02165 10.9253 4.17044 10.7824 3.2454L7.81758 3.70338C8.06213 5.28655 8.8265 6.74336 9.99025 7.84425L12.0519 5.66489ZM10.7842 3.25719C10.8541 3.735 10.5251 4.15989 10.0774 4.23632L9.57256 1.27911C8.44153 1.47222 7.64588 2.53044 7.81581 3.69159L10.7842 3.25719ZM10.0422 4.24191C9.56439 4.31183 9.1395 3.98285 9.06306 3.53516L12.0203 3.03028C11.8272 1.89925 10.7689 1.1036 9.6078 1.27353L10.0422 4.24191ZM9.0595 3.51335C9.26321 4.82244 9.8961 6.02674 10.8587 6.937L12.9199 4.75723C12.4405 4.30387 12.1253 3.70407 12.0238 3.05209L9.0595 3.51335ZM10.8587 6.937C11.8213 7.84726 13.0591 8.41187 14.3775 8.54212L14.6725 5.55665C14.0158 5.49178 13.3994 5.21058 12.9199 4.75723L10.8587 6.937ZM14.3793 8.5423C13.8846 8.49403 13.5445 8.05793 13.5904 7.58707L16.5762 7.87837C16.6888 6.72418 15.8488 5.67141 14.6706 5.55647L14.3793 8.5423ZM13.5962 7.53704C13.652 7.11285 14.0083 6.79105 14.45 6.79105V9.79105C15.525 9.79105 16.4314 8.98592 16.5705 7.9284L13.5962 7.53704ZM17.5 16.6252H2.5V19.6252H17.5V16.6252ZM2.5 16.6252C2.98676 16.6252 3.375 17.0135 3.375 17.5002H0.375C0.375 18.6703 1.32991 19.6252 2.5 19.6252V16.6252ZM3.375 17.5002C3.375 17.987 2.98676 18.3752 2.5 18.3752V15.3752C1.32991 15.3752 0.375 16.3301 0.375 17.5002H3.375ZM2.5 18.3752H17.5V15.3752H2.5V18.3752ZM17.5 18.3752C17.0132 18.3752 16.625 17.987 16.625 17.5002H19.625C19.625 16.3301 18.6701 15.3752 17.5 15.3752V18.3752ZM16.625 17.5002C16.625 17.0135 17.0132 16.6252 17.5 16.6252V19.6252C18.6701 19.6252 19.625 18.6703 19.625 17.5002H16.625Z" fill="#0ACBA7" mask="url(#path-2-inside-1_3649_32100)"/>
</svg>
