<svg width="20" height="20" viewBox="0 0 20 20" fill="none" xmlns="http://www.w3.org/2000/svg">
<path d="M10.2833 10.625C7.64167 10.625 5.49167 8.47496 5.49167 5.83329C5.49167 3.19163 7.64167 1.04163 10.2833 1.04163C12.925 1.04163 15.075 3.19163 15.075 5.83329C15.075 8.47496 12.925 10.625 10.2833 10.625ZM10.2833 2.29163C9.3447 2.29383 8.44514 2.66767 7.78143 3.33139C7.11771 3.9951 6.74387 4.89466 6.74167 5.83329C6.74387 6.77192 7.11771 7.67148 7.78143 8.3352C8.44514 8.99891 9.3447 9.37276 10.2833 9.37496C11.222 9.37276 12.1215 8.99891 12.7852 8.3352C13.449 7.67148 13.8228 6.77192 13.825 5.83329C13.8228 4.89466 13.449 3.9951 12.7852 3.33139C12.1215 2.66767 11.222 2.29383 10.2833 2.29163ZM17.4417 18.9583C17.1 18.9583 16.8167 18.675 16.8167 18.3333C16.8167 15.4583 13.8833 13.125 10.2833 13.125C6.68333 13.125 3.75 15.4583 3.75 18.3333C3.75 18.675 3.46667 18.9583 3.125 18.9583C2.78333 18.9583 2.5 18.675 2.5 18.3333C2.5 14.775 5.99167 11.875 10.2833 11.875C14.575 11.875 18.0667 14.775 18.0667 18.3333C18.0667 18.675 17.7833 18.9583 17.4417 18.9583Z" fill="#B8C1CC"/>
<path fill-rule="evenodd" clip-rule="evenodd" d="M15.8333 8.54167C15.8333 8.88685 16.1157 9.17279 16.4549 9.10881C17.9988 8.81761 19.1667 7.46185 19.1667 5.83333C19.1667 4.20482 17.9988 2.84906 16.4549 2.55786C16.1157 2.49388 15.8333 2.77982 15.8333 3.125C15.8333 3.47018 16.1194 3.74062 16.4492 3.84252C17.2991 4.10514 17.9167 4.89712 17.9167 5.83333C17.9167 6.76955 17.2991 7.56153 16.4492 7.82415C16.1194 7.92605 15.8333 8.19649 15.8333 8.54167Z" fill="#B8C1CC"/>
<path fill-rule="evenodd" clip-rule="evenodd" d="M5 8.54167C5 8.88685 4.71758 9.17279 4.37839 9.10881C2.8345 8.81761 1.66667 7.46185 1.66667 5.83333C1.66667 4.20482 2.8345 2.84906 4.37839 2.55786C4.71758 2.49388 5 2.77982 5 3.125C5 3.47018 4.71397 3.74062 4.38418 3.84252C3.53421 4.10514 2.91667 4.89712 2.91667 5.83333C2.91667 6.76955 3.53421 7.56153 4.38418 7.82415C4.71397 7.92605 5 8.19649 5 8.54167Z" fill="#B8C1CC"/>
<path d="M19.1667 14.9999C18.75 13.2638 17.0833 11.1805 15 10.8333" stroke="#B8C1CC" stroke-width="1.5" stroke-linecap="round"/>
<path d="M0.833328 14.9999C1.24999 13.2638 2.91666 11.1805 4.99999 10.8333" stroke="#B8C1CC" stroke-width="1.5" stroke-linecap="round"/>
</svg>
