<svg width="20" height="20" viewBox="0 0 20 20" fill="none" xmlns="http://www.w3.org/2000/svg">
<path d="M5.83317 8.95866H4.1665C2.14984 8.95866 1.0415 7.85033 1.0415 5.83366V4.16699C1.0415 2.15033 2.14984 1.04199 4.1665 1.04199H5.83317C7.84984 1.04199 8.95817 2.15033 8.95817 4.16699V5.83366C8.95817 7.85033 7.84984 8.95866 5.83317 8.95866ZM4.1665 2.29199C2.84984 2.29199 2.2915 2.85033 2.2915 4.16699V5.83366C2.2915 7.15033 2.84984 7.70866 4.1665 7.70866H5.83317C7.14984 7.70866 7.70817 7.15033 7.70817 5.83366V4.16699C7.70817 2.85033 7.14984 2.29199 5.83317 2.29199H4.1665ZM15.8332 8.95866H14.1665C12.1498 8.95866 11.0415 7.85033 11.0415 5.83366V4.16699C11.0415 2.15033 12.1498 1.04199 14.1665 1.04199H15.8332C17.8498 1.04199 18.9582 2.15033 18.9582 4.16699V5.83366C18.9582 7.85033 17.8498 8.95866 15.8332 8.95866ZM14.1665 2.29199C12.8498 2.29199 12.2915 2.85033 12.2915 4.16699V5.83366C12.2915 7.15033 12.8498 7.70866 14.1665 7.70866H15.8332C17.1498 7.70866 17.7082 7.15033 17.7082 5.83366V4.16699C17.7082 2.85033 17.1498 2.29199 15.8332 2.29199H14.1665ZM15.8332 18.9587H14.1665C12.1498 18.9587 11.0415 17.8503 11.0415 15.8337V14.167C11.0415 12.1503 12.1498 11.042 14.1665 11.042H15.8332C17.8498 11.042 18.9582 12.1503 18.9582 14.167V15.8337C18.9582 17.8503 17.8498 18.9587 15.8332 18.9587ZM14.1665 12.292C12.8498 12.292 12.2915 12.8503 12.2915 14.167V15.8337C12.2915 17.1503 12.8498 17.7087 14.1665 17.7087H15.8332C17.1498 17.7087 17.7082 17.1503 17.7082 15.8337V14.167C17.7082 12.8503 17.1498 12.292 15.8332 12.292H14.1665ZM5.83317 18.9587H4.1665C2.14984 18.9587 1.0415 17.8503 1.0415 15.8337V14.167C1.0415 12.1503 2.14984 11.042 4.1665 11.042H5.83317C7.84984 11.042 8.95817 12.1503 8.95817 14.167V15.8337C8.95817 17.8503 7.84984 18.9587 5.83317 18.9587ZM4.1665 12.292C2.84984 12.292 2.2915 12.8503 2.2915 14.167V15.8337C2.2915 17.1503 2.84984 17.7087 4.1665 17.7087H5.83317C7.14984 17.7087 7.70817 17.1503 7.70817 15.8337V14.167C7.70817 12.8503 7.14984 12.292 5.83317 12.292H4.1665Z" fill="#B8C1CC"/>
</svg>
