<svg width="44" height="44" viewBox="0 0 44 44" fill="none" xmlns="http://www.w3.org/2000/svg">
<g id="Group 39799">
<path id="Vector" d="M24.8003 32.8363H19.7803C16.5003 32.8363 13.8403 30.0763 13.8403 26.6763C13.8403 25.8563 14.5203 25.1763 15.3403 25.1763C16.1603 25.1763 16.8403 25.8563 16.8403 26.6763C16.8403 28.4163 18.1603 29.8363 19.7803 29.8363H24.8003C26.1003 29.8363 27.1803 28.6763 27.1803 27.2763C27.1803 25.5363 26.5603 25.1963 25.5403 24.8363L17.4803 21.9963C15.9203 21.4563 13.8203 20.2963 13.8203 16.7163C13.8203 13.6362 16.2403 11.1562 19.2003 11.1562H24.2203C27.5003 11.1562 30.1603 13.9163 30.1603 17.3163C30.1603 18.1363 29.4803 18.8163 28.6603 18.8163C27.8403 18.8163 27.1603 18.1363 27.1603 17.3163C27.1603 15.5763 25.8403 14.1563 24.2203 14.1563H19.2003C17.9003 14.1563 16.8203 15.3162 16.8203 16.7163C16.8203 18.4563 17.4403 18.7963 18.4603 19.1563L26.5203 21.9963C28.0803 22.5363 30.1803 23.6963 30.1803 27.2763C30.1603 30.3363 27.7603 32.8363 24.8003 32.8363Z" fill="#101218"/>
<path id="Vector_2" d="M22 35.5C21.18 35.5 20.5 34.82 20.5 34V10C20.5 9.18 21.18 8.5 22 8.5C22.82 8.5 23.5 9.18 23.5 10V34C23.5 34.82 22.82 35.5 22 35.5Z" fill="#101218"/>
<path id="Vector_3" d="M22 43.5C10.14 43.5 0.5 33.86 0.5 22C0.5 10.14 10.14 0.5 22 0.5C33.86 0.5 43.5 10.14 43.5 22C43.5 33.86 33.86 43.5 22 43.5ZM22 3.5C11.8 3.5 3.5 11.8 3.5 22C3.5 32.2 11.8 40.5 22 40.5C32.2 40.5 40.5 32.2 40.5 22C40.5 11.8 32.2 3.5 22 3.5Z" fill="#101218"/>
</g>
</svg>
