<svg width="20" height="20" viewBox="0 0 20 20" fill="none" xmlns="http://www.w3.org/2000/svg">
<path d="M10 17.5C14.1421 17.5 17.5 14.1421 17.5 10C17.5 5.85786 14.1421 2.5 10 2.5C5.85786 2.5 2.5 5.85786 2.5 10C2.5 14.1421 5.85786 17.5 10 17.5Z" stroke="#B8C1CC" stroke-width="1.5" stroke-linecap="round" stroke-linejoin="round"/>
<path d="M10 14.1667V14.175" stroke="#B8C1CC" stroke-width="1.5" stroke-linecap="round" stroke-linejoin="round"/>
<path d="M9.99999 11.25C9.98465 10.9795 10.0576 10.7113 10.2079 10.4858C10.3582 10.2604 10.5777 10.0899 10.8333 10C11.1466 9.88022 11.4277 9.68937 11.6546 9.44247C11.8816 9.19557 12.0481 8.89936 12.1411 8.57716C12.2341 8.25497 12.251 7.91558 12.1906 7.58573C12.1302 7.25587 11.994 6.94455 11.7928 6.67627C11.5915 6.40799 11.3308 6.19008 11.0311 6.03969C10.7313 5.8893 10.4008 5.81054 10.0654 5.80961C9.73008 5.80868 9.3991 5.8856 9.09853 6.03433C8.79797 6.18305 8.53602 6.39951 8.33333 6.66667" stroke="#B8C1CC" stroke-width="1.5" stroke-linecap="round" stroke-linejoin="round"/>
</svg>
