<svg width="20" height="20" viewBox="0 0 20 20" fill="none" xmlns="http://www.w3.org/2000/svg">
<g id="Icon/instagram" clip-path="url(#clip0_3629_17238)">
<path id="Vector" fill-rule="evenodd" clip-rule="evenodd" d="M6.221 0.888008C7.1985 0.843008 7.51016 0.833008 10.0002 0.833008C12.4902 0.833008 12.8018 0.843841 13.7785 0.888008C14.7552 0.932174 15.4218 1.08801 16.0052 1.31384C16.616 1.54467 17.1702 1.90551 17.6285 2.37217C18.0952 2.82967 18.4552 3.38301 18.6852 3.99467C18.9118 4.57801 19.0668 5.24467 19.1118 6.21967C19.1568 7.19884 19.1668 7.51051 19.1668 9.99967C19.1668 12.4897 19.156 12.8013 19.1118 13.7788C19.0677 14.7538 18.9118 15.4205 18.6852 16.0038C18.4552 16.6156 18.0946 17.1698 17.6285 17.628C17.1702 18.0947 16.616 18.4547 16.0052 18.6847C15.4218 18.9113 14.7552 19.0663 13.7802 19.1113C12.8018 19.1563 12.4902 19.1663 10.0002 19.1663C7.51016 19.1663 7.1985 19.1555 6.221 19.1113C5.246 19.0672 4.57933 18.9113 3.996 18.6847C3.38426 18.4546 2.83001 18.0941 2.37183 17.628C1.90548 17.1702 1.54459 16.6162 1.31433 16.0047C1.0885 15.4213 0.933496 14.7547 0.888496 13.7797C0.843496 12.8005 0.833496 12.4888 0.833496 9.99967C0.833496 7.50967 0.844329 7.19801 0.888496 6.22134C0.932663 5.24467 1.0885 4.57801 1.31433 3.99467C1.54493 3.38308 1.90609 2.8291 2.37266 2.37134C2.8302 1.90509 3.38389 1.54421 3.99516 1.31384C4.5785 1.08801 5.24516 0.933008 6.22016 0.888008H6.221ZM13.7043 2.53801C12.7377 2.49384 12.4477 2.48467 10.0002 2.48467C7.55266 2.48467 7.26266 2.49384 6.296 2.53801C5.40183 2.57884 4.91683 2.72801 4.5935 2.85384C4.166 3.02051 3.86016 3.21801 3.53933 3.53884C3.2352 3.83472 3.00115 4.19491 2.85433 4.59301C2.7285 4.91634 2.57933 5.40134 2.5385 6.29551C2.49433 7.26217 2.48516 7.55217 2.48516 9.99967C2.48516 12.4472 2.49433 12.7372 2.5385 13.7038C2.57933 14.598 2.7285 15.083 2.85433 15.4063C3.001 15.8038 3.23516 16.1647 3.53933 16.4605C3.83516 16.7647 4.196 16.9988 4.5935 17.1455C4.91683 17.2713 5.40183 17.4205 6.296 17.4613C7.26266 17.5055 7.55183 17.5147 10.0002 17.5147C12.4485 17.5147 12.7377 17.5055 13.7043 17.4613C14.5985 17.4205 15.0835 17.2713 15.4068 17.1455C15.8343 16.9788 16.1402 16.7813 16.461 16.4605C16.7652 16.1647 16.9993 15.8038 17.146 15.4063C17.2718 15.083 17.421 14.598 17.4618 13.7038C17.506 12.7372 17.5152 12.4472 17.5152 9.99967C17.5152 7.55217 17.506 7.26217 17.4618 6.29551C17.421 5.40134 17.2718 4.91634 17.146 4.59301C16.9793 4.16551 16.7818 3.85967 16.461 3.53884C16.1651 3.23473 15.8049 3.00068 15.4068 2.85384C15.0835 2.72801 14.5985 2.57884 13.7043 2.53801V2.53801ZM8.82933 12.8255C9.48321 13.0977 10.2113 13.1344 10.8893 12.9294C11.5672 12.7244 12.153 12.2904 12.5465 11.7015C12.94 11.1126 13.1169 10.4054 13.0469 9.70059C12.9769 8.99579 12.6643 8.33715 12.1627 7.83717C11.8429 7.51757 11.4562 7.27285 11.0304 7.12063C10.6047 6.96841 10.1505 6.91247 9.70057 6.95685C9.25063 7.00123 8.81612 7.14482 8.42833 7.37728C8.04054 7.60974 7.70912 7.92529 7.45791 8.30122C7.20671 8.67714 7.04199 9.10408 6.97559 9.55131C6.9092 9.99853 6.94279 10.4549 7.07395 10.8876C7.2051 11.3203 7.43056 11.7185 7.7341 12.0536C8.03763 12.3887 8.41168 12.6523 8.82933 12.8255ZM6.6685 6.66801C7.10602 6.23049 7.62543 5.88343 8.19708 5.64664C8.76873 5.40986 9.38141 5.28799 10.0002 5.28799C10.6189 5.28799 11.2316 5.40986 11.8032 5.64664C12.3749 5.88343 12.8943 6.23049 13.3318 6.66801C13.7693 7.10553 14.1164 7.62494 14.3532 8.19659C14.59 8.76824 14.7118 9.38093 14.7118 9.99967C14.7118 10.6184 14.59 11.2311 14.3532 11.8028C14.1164 12.3744 13.7693 12.8938 13.3318 13.3313C12.4482 14.215 11.2498 14.7114 10.0002 14.7114C8.75054 14.7114 7.55211 14.215 6.6685 13.3313C5.78488 12.4477 5.28847 11.2493 5.28847 9.99967C5.28847 8.75006 5.78488 7.55162 6.6685 6.66801V6.66801ZM15.7568 5.98967C15.8652 5.8874 15.952 5.76441 16.0121 5.62799C16.0721 5.49156 16.1042 5.34448 16.1063 5.19545C16.1085 5.04642 16.0808 4.89846 16.0247 4.76035C15.9687 4.62223 15.8855 4.49677 15.7801 4.39137C15.6747 4.28598 15.5493 4.20281 15.4112 4.14677C15.273 4.09074 15.1251 4.06299 14.9761 4.06516C14.827 4.06733 14.6799 4.09939 14.5435 4.15942C14.4071 4.21946 14.2841 4.30625 14.1818 4.41467C13.9829 4.62553 13.874 4.90561 13.8782 5.19545C13.8825 5.48529 13.9995 5.76207 14.2045 5.96704C14.4094 6.17201 14.6862 6.28903 14.9761 6.29326C15.2659 6.29748 15.546 6.18858 15.7568 5.98967V5.98967Z" fill="#64748B"/>
</g>
<defs>
<clipPath id="clip0_3629_17238">
<rect width="20" height="20" fill="white"/>
</clipPath>
</defs>
</svg>
