<svg width="20" height="20" viewBox="0 0 20 20" fill="none" xmlns="http://www.w3.org/2000/svg">
<g id="Icon/linkedin">
<path id="Vector" fill-rule="evenodd" clip-rule="evenodd" d="M7.85783 7.47449H10.9528V9.01616C11.3987 8.12949 12.542 7.33283 14.2595 7.33283C17.552 7.33283 18.3337 9.09783 18.3337 12.3362V18.3337H15.0003V13.0737C15.0003 11.2295 14.5545 10.1895 13.4195 10.1895C11.8453 10.1895 11.1912 11.3103 11.1912 13.0728V18.3337H7.85783V7.47449V7.47449ZM2.14199 18.192H5.47533V7.33283H2.14199V18.192V18.192ZM5.95283 3.79199C5.95295 4.07139 5.89754 4.34802 5.78982 4.60582C5.68209 4.86361 5.5242 5.09742 5.32533 5.29366C4.92233 5.69418 4.37683 5.91837 3.80866 5.91699C3.24148 5.91661 2.69725 5.69299 2.29366 5.29449C2.0955 5.09759 1.93815 4.86351 1.83061 4.60569C1.72308 4.34786 1.66747 4.07135 1.66699 3.79199C1.66699 3.22783 1.89199 2.68783 2.29449 2.28949C2.69773 1.89046 3.24219 1.66674 3.80949 1.66699C4.37783 1.66699 4.92283 1.89116 5.32533 2.28949C5.72699 2.68783 5.95283 3.22783 5.95283 3.79199Z" fill="#64748B"/>
</g>
</svg>
