<svg width="20" height="20" viewBox="0 0 20 20" fill="none" xmlns="http://www.w3.org/2000/svg">
<path d="M11.6667 7.50002H9.58334C8.89298 7.50002 8.33334 8.05966 8.33334 8.75002C8.33334 9.44038 8.89298 10 9.58334 10H10.4167C11.107 10 11.6667 10.5597 11.6667 11.25C11.6667 11.9404 11.107 12.5 10.4167 12.5H8.33334M10 6.66669V7.50002M10 12.5V13.3334M15 10H15.0083M5.00001 10H5.00834M1.66667 6.83335L1.66667 13.1667C1.66667 14.1001 1.66667 14.5668 1.84833 14.9233C2.00812 15.2369 2.26308 15.4919 2.57669 15.6517C2.93321 15.8334 3.39992 15.8334 4.33334 15.8334L15.6667 15.8334C16.6001 15.8334 17.0668 15.8334 17.4233 15.6517C17.7369 15.4919 17.9919 15.2369 18.1517 14.9233C18.3333 14.5668 18.3333 14.1001 18.3333 13.1667V6.83335C18.3333 5.89993 18.3333 5.43322 18.1517 5.0767C17.9919 4.7631 17.7369 4.50813 17.4233 4.34834C17.0668 4.16669 16.6001 4.16669 15.6667 4.16669L4.33334 4.16669C3.39992 4.16669 2.93321 4.16669 2.57669 4.34834C2.26308 4.50813 2.00812 4.7631 1.84833 5.0767C1.66667 5.43322 1.66667 5.89993 1.66667 6.83335ZM15.4167 10C15.4167 10.2301 15.2301 10.4167 15 10.4167C14.7699 10.4167 14.5833 10.2301 14.5833 10C14.5833 9.7699 14.7699 9.58335 15 9.58335C15.2301 9.58335 15.4167 9.7699 15.4167 10ZM5.41667 10C5.41667 10.2301 5.23012 10.4167 5.00001 10.4167C4.76989 10.4167 4.58334 10.2301 4.58334 10C4.58334 9.7699 4.76989 9.58335 5.00001 9.58335C5.23012 9.58335 5.41667 9.7699 5.41667 10Z" stroke="#B8C1CC" stroke-width="1.5" stroke-linecap="round" stroke-linejoin="round"/>
</svg>
