<svg width="20" height="20" viewBox="0 0 20 20" fill="none" xmlns="http://www.w3.org/2000/svg">
<path d="M16.1833 9.79169H13.3333C12.9917 9.79169 12.7083 9.50835 12.7083 9.16669V3.34169C12.7083 2.72502 12.95 2.15002 13.3833 1.71669C13.8167 1.28335 14.3917 1.04169 15.0083 1.04169H15.0167C16.0583 1.05002 17.0417 1.45835 17.7917 2.20002C18.5417 2.95835 18.95 3.95835 18.95 5.00002V7.01669C18.9583 8.67502 17.8417 9.79169 16.1833 9.79169ZM13.9583 8.54169H16.1833C17.15 8.54169 17.7083 7.98335 17.7083 7.01669V5.00002C17.7083 4.28335 17.425 3.60002 16.9167 3.08335C16.4083 2.58335 15.725 2.30002 15.0167 2.29169H15.0083C14.7333 2.29169 14.4667 2.40002 14.2667 2.60002C14.0667 2.80002 13.9583 3.05835 13.9583 3.34169V8.54169Z" fill="#B8C1CC"/>
<path d="M7.5 19.4417C7.10834 19.4417 6.74167 19.2917 6.46667 19.0084L5.08334 17.6167C5.04776 17.5802 4.99989 17.5584 4.94906 17.5553C4.89822 17.5522 4.84806 17.5681 4.80834 17.6L3.37501 18.6667C2.93334 19 2.35001 19.0584 1.85001 18.8084C1.35001 18.5584 1.04167 18.0584 1.04167 17.5V5.00002C1.04167 2.48335 2.48334 1.04169 5.00001 1.04169H15C15.3417 1.04169 15.625 1.32502 15.625 1.66669C15.625 2.00835 15.3417 2.29169 15 2.29169C14.425 2.29169 13.9583 2.75835 13.9583 3.33335V17.5C13.9583 18.0584 13.65 18.5584 13.15 18.8084C12.65 19.0584 12.0667 19.0084 11.625 18.675L10.2 17.6084C10.1611 17.5783 10.1126 17.5634 10.0635 17.5665C10.0145 17.5695 9.96819 17.5903 9.93334 17.625L8.53334 19.025C8.25834 19.2917 7.89167 19.4417 7.5 19.4417ZM4.925 16.3084C5.30834 16.3084 5.68334 16.45 5.96667 16.7417L7.35 18.1334C7.4 18.1834 7.46667 18.1917 7.5 18.1917C7.53334 18.1917 7.60001 18.1834 7.65001 18.1334L9.05 16.7334C9.56667 16.2167 10.3833 16.1667 10.9583 16.6084L12.375 17.6667C12.4667 17.7334 12.55 17.7084 12.5917 17.6834C12.6333 17.6584 12.7083 17.6084 12.7083 17.5V3.33335C12.7083 2.95835 12.8 2.60002 12.9583 2.29169H5.00001C3.15001 2.29169 2.29167 3.15002 2.29167 5.00002V17.5C2.29167 17.6167 2.36667 17.6667 2.40834 17.6917C2.45834 17.7167 2.54167 17.7334 2.62501 17.6667L4.05001 16.6C4.30834 16.4084 4.61667 16.3084 4.925 16.3084Z" fill="#B8C1CC"/>
<path d="M9.99999 11.4684H7.49999C7.15832 11.4684 6.87499 11.185 6.87499 10.8434C6.87499 10.5017 7.15832 10.2184 7.49999 10.2184H9.99999C10.3417 10.2184 10.625 10.5017 10.625 10.8434C10.625 11.185 10.3417 11.4684 9.99999 11.4684ZM9.99999 8.13503H7.49999C7.15832 8.13503 6.87499 7.8517 6.87499 7.51003C6.87499 7.16836 7.15832 6.88503 7.49999 6.88503H9.99999C10.3417 6.88503 10.625 7.16836 10.625 7.51003C10.625 7.8517 10.3417 8.13503 9.99999 8.13503ZM4.97416 8.34336C4.51582 8.34336 4.14082 7.96836 4.14082 7.51003C4.14082 7.0517 4.51582 6.6767 4.97416 6.6767C5.43249 6.6767 5.80749 7.0517 5.80749 7.51003C5.80749 7.96836 5.43249 8.34336 4.97416 8.34336ZM4.97416 11.6767C4.51582 11.6767 4.14082 11.3017 4.14082 10.8434C4.14082 10.385 4.51582 10.01 4.97416 10.01C5.43249 10.01 5.80749 10.385 5.80749 10.8434C5.80749 11.3017 5.43249 11.6767 4.97416 11.6767Z" fill="#B8C1CC"/>
</svg>
