<svg width="20" height="20" viewBox="0 0 20 20" fill="none" xmlns="http://www.w3.org/2000/svg">
<path d="M12.7 18.9577H7.30002C5.72502 18.9577 4.57502 18.2994 4.13335 17.166C3.67502 15.9827 4.10001 14.516 5.20001 13.5243L9.06668 9.99935L5.20001 6.47435C4.10001 5.48268 3.67502 4.01602 4.13335 2.83268C4.57502 1.69102 5.72502 1.04102 7.30002 1.04102H12.7C14.275 1.04102 15.425 1.69935 15.8667 2.83268C16.325 4.01602 15.9 5.48268 14.8 6.47435L10.9333 9.99935L14.8083 13.5243C15.9 14.516 16.3333 15.9827 15.875 17.166C15.425 18.2994 14.275 18.9577 12.7 18.9577ZM10 10.841L6.04168 14.441C5.34168 15.0827 5.03335 16.016 5.30002 16.7077C5.55002 17.3493 6.25835 17.7077 7.30002 17.7077H12.7C13.7417 17.7077 14.45 17.3577 14.7 16.7077C14.9667 16.016 14.6667 15.0827 13.9583 14.441L10 10.841ZM7.30002 2.29102C6.25835 2.29102 5.55002 2.64102 5.30002 3.29102C5.03335 3.98268 5.33335 4.91602 6.04168 5.55768L10 9.15768L13.9583 5.55768C14.6583 4.91602 14.9667 3.98268 14.7 3.29102C14.45 2.64935 13.7417 2.29102 12.7 2.29102H7.30002Z" fill="#B8C1CC"/>
</svg>
