<svg width="14" height="14" viewBox="0 0 14 14" fill="none" xmlns="http://www.w3.org/2000/svg">
<g id="vuesax/outline/send">
<g id="send">
<path id="Vector" d="M1.16452 13.0415C1.32285 13.0415 1.48118 12.9832 1.60618 12.8582L13.2729 1.19154C13.5145 0.94987 13.5145 0.54987 13.2729 0.308203C13.0312 0.0665365 12.6312 0.0665365 12.3895 0.308203L0.722853 11.9749C0.481187 12.2165 0.481187 12.6165 0.722853 12.8582C0.847853 12.9832 1.00619 13.0415 1.16452 13.0415Z" fill="#0ACBA7"/>
<g id="Vector_2">
<mask id="path-2-inside-1_3374_18658" fill="white">
<path d="M12.8311 9.93333C13.1727 9.93333 13.4561 9.65 13.4561 9.30833V0.75C13.4561 0.408333 13.1727 0.125 12.8311 0.125H4.27272C3.93105 0.125 3.64772 0.408333 3.64772 0.75C3.64772 1.09167 3.93105 1.375 4.27272 1.375H12.2061V9.30833C12.2061 9.65 12.4894 9.93333 12.8311 9.93333Z"/>
</mask>
<path d="M12.8311 9.93333C13.1727 9.93333 13.4561 9.65 13.4561 9.30833V0.75C13.4561 0.408333 13.1727 0.125 12.8311 0.125H4.27272C3.93105 0.125 3.64772 0.408333 3.64772 0.75C3.64772 1.09167 3.93105 1.375 4.27272 1.375H12.2061V9.30833C12.2061 9.65 12.4894 9.93333 12.8311 9.93333Z" fill="#0ACBA7"/>
<path d="M12.2061 1.375V-0.125H13.7061V1.375H12.2061ZM12.8311 8.43333C12.3443 8.43333 11.9561 8.82157 11.9561 9.30833H14.9561C14.9561 10.4784 14.0011 11.4333 12.8311 11.4333V8.43333ZM11.9561 9.30833V0.75H14.9561V9.30833H11.9561ZM11.9561 0.75C11.9561 1.23676 12.3443 1.625 12.8311 1.625V-1.375C14.0011 -1.375 14.9561 -0.420094 14.9561 0.75H11.9561ZM12.8311 1.625H4.27272V-1.375H12.8311V1.625ZM4.27272 1.625C4.75948 1.625 5.14772 1.23676 5.14772 0.75H2.14772C2.14772 -0.420094 3.10263 -1.375 4.27272 -1.375V1.625ZM5.14772 0.75C5.14772 0.263239 4.75948 -0.125 4.27272 -0.125V2.875C3.10263 2.875 2.14772 1.92009 2.14772 0.75H5.14772ZM4.27272 -0.125H12.2061V2.875H4.27272V-0.125ZM13.7061 1.375V9.30833H10.7061V1.375H13.7061ZM13.7061 9.30833C13.7061 8.82157 13.3178 8.43333 12.8311 8.43333V11.4333C11.661 11.4333 10.7061 10.4784 10.7061 9.30833H13.7061Z" fill="#0ACBA7" mask="url(#path-2-inside-1_3374_18658)"/>
</g>
</g>
</g>
</svg>
