<svg width="20" height="20" viewBox="0 0 20 20" fill="none" xmlns="http://www.w3.org/2000/svg">
<path d="M9.99999 12.2917C11.2656 12.2917 12.2917 11.2657 12.2917 10C12.2917 8.73436 11.2656 7.70834 9.99999 7.70834C8.73434 7.70834 7.70833 8.73436 7.70833 10C7.70833 11.2657 8.73434 12.2917 9.99999 12.2917Z" stroke="#B8C1CC" stroke-width="1.5" stroke-miterlimit="10" stroke-linecap="round" stroke-linejoin="round"/>
<path d="M2.36002 10.6723V9.32781C2.36002 8.53337 3.00932 7.87643 3.8114 7.87643C5.19404 7.87643 5.75932 6.89865 5.06418 5.69934C4.66696 5.01184 4.90377 4.11809 5.5989 3.72087L6.92043 2.96462C7.5239 2.60559 8.30307 2.81948 8.6621 3.42295L8.74613 3.56809C9.43363 4.7674 10.5642 4.7674 11.2593 3.56809L11.3433 3.42295C11.7024 2.81948 12.4815 2.60559 13.085 2.96462L14.4065 3.72087C15.1017 4.11809 15.3385 5.01184 14.9413 5.69934C14.2461 6.89865 14.8114 7.87643 16.194 7.87643C16.9885 7.87643 17.6454 8.52573 17.6454 9.32781V10.6723C17.6454 11.4667 16.9961 12.1236 16.194 12.1236C14.8114 12.1236 14.2461 13.1014 14.9413 14.3007C15.3385 14.9959 15.1017 15.882 14.4065 16.2792L13.085 17.0355C12.4815 17.3945 11.7024 17.1806 11.3433 16.5771L11.2593 16.432C10.5718 15.2327 9.44126 15.2327 8.74613 16.432L8.6621 16.5771C8.30307 17.1806 7.5239 17.3945 6.92043 17.0355L5.5989 16.2792C4.90377 15.882 4.66696 14.9882 5.06418 14.3007C5.75932 13.1014 5.19404 12.1236 3.8114 12.1236C3.00932 12.1236 2.36002 11.4667 2.36002 10.6723Z" stroke="#B8C1CC" stroke-width="1.5" stroke-miterlimit="10" stroke-linecap="round" stroke-linejoin="round"/>
</svg>
