<svg width="24" height="24" viewBox="0 0 24 24" fill="none" xmlns="http://www.w3.org/2000/svg">
<g id="Icon/trash">
<path id="Vector" d="M20.9999 6.73046H20.9199C15.6299 6.20046 10.3499 6.00046 5.11992 6.53046L3.07992 6.73046C2.98068 6.74082 2.88037 6.7314 2.7848 6.70275C2.68923 6.6741 2.60028 6.6268 2.5231 6.56356C2.44592 6.50033 2.38204 6.42243 2.33515 6.33436C2.28826 6.24629 2.25929 6.1498 2.24992 6.05046C2.20992 5.63046 2.50992 5.27046 2.91992 5.23046L4.95992 5.03046C10.2799 4.49046 15.6699 4.70046 21.0699 5.23046C21.4799 5.27046 21.7799 5.64046 21.7399 6.05046C21.7248 6.23615 21.6402 6.4093 21.5031 6.53535C21.3659 6.6614 21.1862 6.73108 20.9999 6.73046Z" fill="#E85656"/>
<path id="Vector_2" d="M8.50002 5.72C8.46002 5.72 8.42002 5.72 8.37002 5.71C8.176 5.67504 8.00344 5.56538 7.88938 5.40458C7.77533 5.24378 7.72888 5.04467 7.76002 4.85L7.98002 3.54C8.14002 2.58 8.36002 1.25 10.69 1.25H13.31C15.65 1.25 15.87 2.63 16.02 3.55L16.24 4.85C16.31 5.26 16.03 5.65 15.63 5.71C15.22 5.78 14.83 5.5 14.77 5.1L14.55 3.8C14.41 2.93 14.38 2.76 13.32 2.76H10.7C9.64002 2.76 9.62002 2.9 9.47002 3.79L9.24002 5.09C9.21153 5.26576 9.12144 5.42565 8.98587 5.54107C8.85029 5.6565 8.67807 5.71992 8.50002 5.72ZM15.21 22.752H8.79002C5.30002 22.752 5.16002 20.822 5.05002 19.262L4.40002 9.192C4.37002 8.782 4.69002 8.422 5.10002 8.392C5.52002 8.372 5.87002 8.682 5.90002 9.092L6.55002 19.162C6.66002 20.682 6.70002 21.252 8.79002 21.252H15.21C17.31 21.252 17.35 20.682 17.45 19.162L18.1 9.092C18.13 8.682 18.49 8.372 18.9 8.392C19.31 8.422 19.63 8.772 19.6 9.192L18.95 19.262C18.84 20.822 18.7 22.752 15.21 22.752Z" fill="#E85656"/>
<path id="Vector_3" d="M13.66 17.25H10.33C9.92 17.25 9.58 16.91 9.58 16.5C9.58 16.09 9.92 15.75 10.33 15.75H13.66C14.07 15.75 14.41 16.09 14.41 16.5C14.41 16.91 14.07 17.25 13.66 17.25ZM14.5 13.25H9.5C9.09 13.25 8.75 12.91 8.75 12.5C8.75 12.09 9.09 11.75 9.5 11.75H14.5C14.91 11.75 15.25 12.09 15.25 12.5C15.25 12.91 14.91 13.25 14.5 13.25Z" fill="#E85656"/>
</g>
</svg>
