<svg width="20" height="20" viewBox="0 0 20 20" fill="none" xmlns="http://www.w3.org/2000/svg">
<g id="Icon/twitter">
<path id="Vector" d="M19.7024 4.11464C19.0066 4.42297 18.2591 4.6313 17.4733 4.72547C18.2841 4.2403 18.8907 3.47669 19.1799 2.57714C18.4181 3.02963 17.5844 3.34813 16.7149 3.5188C16.1302 2.89453 15.3558 2.48074 14.5119 2.3417C13.6679 2.20266 12.8017 2.34613 12.0476 2.74985C11.2936 3.15357 10.6939 3.79494 10.3417 4.57439C9.98954 5.35384 9.90454 6.22776 10.0999 7.06047C8.55633 6.98297 7.04628 6.58176 5.66778 5.88289C4.28928 5.18402 3.07313 4.20311 2.09826 3.0038C1.76493 3.5788 1.57326 4.24547 1.57326 4.95547C1.57289 5.59463 1.73029 6.22401 2.03149 6.78775C2.3327 7.35149 2.7684 7.83217 3.29993 8.18714C2.68349 8.16752 2.08066 8.00096 1.5416 7.7013V7.7513C1.54153 8.64775 1.85162 9.51662 2.41925 10.2105C2.98687 10.9043 3.77707 11.3804 4.65576 11.558C4.08391 11.7127 3.48438 11.7355 2.90243 11.6246C3.15034 12.396 3.63326 13.0705 4.28357 13.5537C4.93388 14.037 5.71903 14.3048 6.5291 14.3196C5.15396 15.3991 3.45567 15.9847 1.70743 15.9821C1.39775 15.9822 1.08833 15.9641 0.780762 15.928C2.55533 17.0689 4.62105 17.6745 6.73076 17.6721C13.8724 17.6721 17.7766 11.7571 17.7766 6.62714C17.7766 6.46047 17.7724 6.29214 17.7649 6.12547C18.5243 5.57628 19.1799 4.89622 19.7008 4.11714L19.7024 4.11464V4.11464Z" fill="#64748B"/>
</g>
</svg>
