<svg width="20" height="20" viewBox="0 0 20 20" fill="none" xmlns="http://www.w3.org/2000/svg">
<path d="M6.66699 1.66602V4.16602" stroke="#B8C1CC" stroke-width="1.5" stroke-miterlimit="10" stroke-linecap="round" stroke-linejoin="round"/>
<path d="M13.333 1.66602V4.16602" stroke="#B8C1CC" stroke-width="1.5" stroke-miterlimit="10" stroke-linecap="round" stroke-linejoin="round"/>
<path d="M2.91699 7.57422H17.0837" stroke="#B8C1CC" stroke-width="1.5" stroke-miterlimit="10" stroke-linecap="round" stroke-linejoin="round"/>
<path d="M17.5 7.08268V13.6327C16.8917 12.941 16 12.4993 15 12.4993C13.1583 12.4993 11.6667 13.991 11.6667 15.8327C11.6667 16.4577 11.8417 17.0493 12.15 17.5493C12.325 17.8493 12.55 18.116 12.8083 18.3327H6.66667C3.75 18.3327 2.5 16.666 2.5 14.166V7.08268C2.5 4.58268 3.75 2.91602 6.66667 2.91602H13.3333C16.25 2.91602 17.5 4.58268 17.5 7.08268Z" stroke="#B8C1CC" stroke-width="1.5" stroke-miterlimit="10" stroke-linecap="round" stroke-linejoin="round"/>
<path d="M9.9951 11.4167H10.0026" stroke="#B8C1CC" stroke-width="1.5" stroke-linecap="round" stroke-linejoin="round"/>
<path d="M6.91307 11.4167H6.92055" stroke="#B8C1CC" stroke-width="1.5" stroke-linecap="round" stroke-linejoin="round"/>
<path d="M6.91307 13.9167H6.92055" stroke="#B8C1CC" stroke-width="1.5" stroke-linecap="round" stroke-linejoin="round"/>
<path d="M15.0003 19.1667C16.8413 19.1667 18.3337 17.6743 18.3337 15.8333C18.3337 13.9924 16.8413 12.5 15.0003 12.5C13.1594 12.5 11.667 13.9924 11.667 15.8333C11.667 17.6743 13.1594 19.1667 15.0003 19.1667Z" stroke="#B8C1CC" stroke-width="1.5" stroke-miterlimit="10" stroke-linecap="round" stroke-linejoin="round"/>
<path d="M15.2087 14.791V15.566C15.2087 15.8577 15.0587 16.1327 14.8003 16.2827L14.167 16.666" stroke="#B8C1CC" stroke-width="1.5" stroke-miterlimit="10" stroke-linecap="round" stroke-linejoin="round"/>
</svg>
