<svg width="20" height="20" fill="none" xmlns="http://www.w3.org/2000/svg"><path d="M7.893 12.735a.618.618 0 0 1-.441-.183 3.587 3.587 0 0 1-1.059-2.55 3.61 3.61 0 0 1 3.609-3.608c.958 0 1.866.375 2.55 1.058a.625.625 0 0 1 0 .883l-4.217 4.217a.618.618 0 0 1-.442.183Zm2.109-5.091a2.362 2.362 0 0 0-2.05 3.525l3.216-3.217c-.35-.2-.75-.308-1.166-.308Z" fill="#101218"/><path d="M4.667 15.425a.634.634 0 0 1-.409-.15A12.097 12.097 0 0 1 1.883 12.5c-.883-1.375-.883-3.617 0-5C3.917 4.317 6.875 2.483 10 2.483c1.833 0 3.642.634 5.225 1.825a.625.625 0 1 1-.75 1C13.108 4.275 11.558 3.733 10 3.733c-2.692 0-5.267 1.617-7.067 4.442-.625.975-.625 2.675 0 3.65a11.443 11.443 0 0 0 2.134 2.5.63.63 0 0 1 .066.883.605.605 0 0 1-.466.217Zm5.332 2.092a8.23 8.23 0 0 1-3.233-.667.625.625 0 0 1-.333-.817.625.625 0 0 1 .816-.333 6.994 6.994 0 0 0 2.742.567c2.692 0 5.267-1.617 7.067-4.442.625-.975.625-2.675 0-3.65-.259-.408-.542-.8-.842-1.167a.634.634 0 0 1 .308-.998.625.625 0 0 1 .667.207c.325.4.642.833.925 1.283.883 1.375.883 3.617 0 5-2.033 3.183-4.992 5.017-8.117 5.017Z" fill="#101218"/><path d="M10.576 13.557a.632.632 0 0 1-.617-.508.613.613 0 0 1 .5-.725 2.35 2.35 0 0 0 1.85-1.85.632.632 0 0 1 .733-.5.626.626 0 0 1 .5.733 3.58 3.58 0 0 1-2.85 2.85c-.041-.008-.075 0-.116 0Zm-8.909 5.4a.618.618 0 0 1-.622-.624c0-.165.065-.324.18-.442l6.226-6.225a.629.629 0 0 1 .883 0 .629.629 0 0 1 0 .883L2.11 18.776a.618.618 0 0 1-.442.183Zm10.44-10.44a.618.618 0 0 1-.441-.182.628.628 0 0 1 0-.884l6.225-6.225a.629.629 0 0 1 .883 0 .629.629 0 0 1 0 .884L12.55 8.335a.618.618 0 0 1-.442.183Z" fill="#101218"/></svg>