<svg width="20" height="20" fill="none" xmlns="http://www.w3.org/2000/svg"><path d="M10.002 13.61a3.61 3.61 0 0 1-3.609-3.608 3.61 3.61 0 0 1 3.609-3.608 3.61 3.61 0 0 1 3.608 3.608 3.61 3.61 0 0 1-3.608 3.608Zm0-5.966a2.362 2.362 0 0 0-2.359 2.358c0 1.3 1.059 2.358 2.359 2.358s2.358-1.058 2.358-2.358-1.058-2.358-2.358-2.358Z" fill="#101218"/><path d="M9.998 17.517c-3.133 0-6.091-1.834-8.125-5.017-.883-1.375-.883-3.617 0-5 2.042-3.183 5-5.017 8.125-5.017s6.084 1.834 8.117 5.017c.883 1.375.883 3.617 0 5-2.033 3.183-4.992 5.017-8.117 5.017Zm0-13.784c-2.691 0-5.266 1.617-7.066 4.442-.625.975-.625 2.675 0 3.65 1.8 2.825 4.375 4.442 7.066 4.442 2.692 0 5.267-1.617 7.067-4.442.625-.975.625-2.675 0-3.65-1.8-2.825-4.375-4.442-7.067-4.442Z" fill="#101218"/></svg>