<svg width="26" height="26" fill="none" xmlns="http://www.w3.org/2000/svg"><path d="M16.042 25.084h-7C2.707 25.084 0 22.377 0 16.042v-7C0 2.707 2.707 0 9.042 0h5.833c.478 0 .875.397.875.875a.881.881 0 0 1-.875.875H9.042c-5.379 0-7.292 1.914-7.292 7.292v7c0 5.378 1.913 7.292 7.292 7.292h7c5.378 0 7.291-1.913 7.291-7.292V10.21c0-.479.397-.875.875-.875.479 0 .875.396.875.875v5.833c0 6.335-2.706 9.042-9.041 9.042Z" fill="#0ACBA7"/><path d="M24.208 11.082h-4.666C15.552 11.082 14 9.53 14 5.54V.873c0-.35.21-.676.537-.805.326-.14.7-.058.956.187l9.334 9.333a.877.877 0 0 1-.619 1.494ZM15.75 2.985V5.54c0 3.01.782 3.792 3.792 3.792h2.555L15.75 2.985Z" fill="#0ACBA7"/></svg>