<svg width="400" height="400" fill="none" xmlns="http://www.w3.org/2000/svg"><path d="M400 305.919H0v.2h400v-.2ZM359.921 318.796h-26.498v.2h26.498v-.2ZM264.976 320.967h-6.955v.2h6.955v-.2ZM332.623 311.367h-15.354v.2h15.354v-.2ZM76.522 312.711H41.967v.2h34.555v-.2ZM88.71 312.711h-5.066v.2h5.067v-.2ZM180.118 316.089h-74.941v.2h74.941v-.2ZM189.611 270.24H35.132a4.571 4.571 0 0 1-4.566-4.566V48.529a4.571 4.571 0 0 1 4.566-4.567h154.479a4.572 4.572 0 0 1 4.566 4.566v217.146a4.571 4.571 0 0 1-4.566 4.566ZM35.132 44.162a4.371 4.371 0 0 0-4.366 4.367v217.145a4.37 4.37 0 0 0 4.366 4.366h154.479a4.37 4.37 0 0 0 4.366-4.366V48.529a4.371 4.371 0 0 0-4.366-4.367H35.132ZM362.648 270.24H208.17a4.57 4.57 0 0 1-4.566-4.566V48.529a4.571 4.571 0 0 1 4.566-4.567h154.478a4.572 4.572 0 0 1 4.567 4.566v217.146a4.572 4.572 0 0 1-4.567 4.566ZM208.17 44.162a4.371 4.371 0 0 0-4.366 4.367v217.145a4.37 4.37 0 0 0 4.366 4.366h154.478a4.371 4.371 0 0 0 4.367-4.366V48.529a4.371 4.371 0 0 0-4.367-4.367H208.17Z" fill="#EBEBEB"/><path d="M222.329 184.858h131.86V66.782h-131.86v118.076Z" fill="#E6E6E6"/><path d="M216.777 184.858h134.817V66.782H216.777v118.076Z" fill="#F0F0F0"/><path d="M222.329 188.855h131.86v-3.996h-131.86v3.996Z" fill="#E6E6E6"/><path d="M207.527 188.855h134.818v-3.996H207.527v3.996Z" fill="#F0F0F0"/><path d="M343.822 177.086V74.556H224.55v102.53h119.272Z" fill="#FAFAFA"/><path d="m319.853 177.086-45.622-102.53h-46.687l45.621 102.53h46.688Z" fill="#fff"/><path d="M340.223 159.952a.555.555 0 0 0 .555-.555V79.612a.555.555 0 1 0-1.11 0v79.785c0 .306.248.555.555.555Z" fill="#F0F0F0"/><path d="m255.614 177.086-45.622-102.53H193.84l45.621 102.53h16.153Z" fill="#fff"/><path d="M225.537 177.086V74.556h-.987v102.53h.987Z" fill="#E6E6E6"/><g opacity=".5" fill="#E6E6E6"><path d="M214.938 85.231h131.859l.715-7.656H215.653l-.715 7.656ZM214.938 97.873h131.859l.715-7.656H215.653l-.715 7.656ZM214.938 110.514h131.859l.715-7.656H215.653l-.715 7.656ZM214.938 123.155h131.859l.715-7.656H215.653l-.715 7.656ZM214.938 135.797h131.859l.715-7.656H215.653l-.715 7.656ZM214.938 148.438h131.859l.715-7.656H215.653l-.715 7.656Z"/></g><path d="M62.292 305.919h105.07V66.782H62.292V305.92Z" fill="#F0F0F0"/><path d="M62.292 305.919h103.002V66.782H62.292V305.92Z" fill="#F5F5F5"/><path d="M159.868 305.919V72.209h-92.15v233.71h92.15Z" fill="#EBEBEB"/><path d="M92.731 179.221c-5.224-1.439-10.448 3.202-15.671 1.762-1.106-.294-2.011-1.788-2.012-2.892.001-1.108.906-1.424 2.011-1.131 5.224 1.44 10.448-3.201 15.672-1.761 1.105.293 2.012 1.788 2.012 2.892 0 1.107-.908 1.424-2.012 1.13Z" fill="#fff"/><path d="M69.126 305.919V72.209h-1.408v233.71h1.407Z" fill="#E0E0E0"/><path d="M332.397 300.643h18.844v-81.728h-18.844v81.728ZM254.69 305.821h92.933v-5.178H254.69v5.178Z" fill="#F0F0F0"/><path d="M332.397 218.915h-81.326v81.728h81.326v-81.728Z" fill="#F5F5F5"/><path d="M324.988 228.975H258.48v26.803h66.508v-26.803ZM324.988 263.779H258.48v26.803h66.508v-26.803Z" fill="#F0F0F0"/><path d="M284.268 231.234H299.2a1.837 1.837 0 1 0 0-3.675h-14.932a1.837 1.837 0 1 0 0 3.675ZM284.268 266.039H299.2a1.843 1.843 0 0 0 1.838-1.838 1.843 1.843 0 0 0-1.838-1.838h-14.932a1.843 1.843 0 0 0-1.838 1.838c0 1.011.827 1.838 1.838 1.838Z" fill="#F5F5F5"/><path d="M314.868 217.307a1.4 1.4 0 0 1-1.395-1.395v-42.468a1.4 1.4 0 0 1 1.395-1.395 1.4 1.4 0 0 1 1.395 1.395v42.468a1.4 1.4 0 0 1-1.395 1.395Z" fill="#EBEBEB"/><path d="M327.943 215.66h-26.149v3.294h26.149v-3.294Z" fill="#F0F0F0"/><path d="M322.113 197.48a.7.7 0 0 1-.697-.698v-21.233a.7.7 0 0 1 .697-.698.7.7 0 0 1 .697.698v21.233a.7.7 0 0 1-.697.698Z" fill="#E0E0E0"/><path d="M294.537 182.894s.517-15.612 20.332-15.612c19.814 0 20.331 15.612 20.331 15.612h-40.663Z" fill="#E6E6E6"/><path d="M200 342.049c85.666 0 155.112-4.056 155.112-9.059 0-5.003-69.446-9.058-155.112-9.058-85.665 0-155.111 4.055-155.111 9.058s69.446 9.059 155.111 9.059Z" fill="#F5F5F5"/><path d="M183.073 96.567c.051-2.099 1.994-4.86 9.804-5.357 7.81-.497 10.712-.135 13.94 5.965 3.479 6.575 7.455 13.917 4.86 20.654-2.596 6.738-10.771 10.689-16.624 14.249-5.853 3.56-14.58 15.519-14.58 15.519s-16.284-45.121 2.6-51.03Z" fill="#263238"/><path d="M186.64 186.602s11.843 60.785 16.042 85.49c4.368 25.698 8.047 80.99 8.047 80.99h6.577s8.379-47.658-.01-83.152c.564-28.29-4.935-87.133-4.935-87.133l-25.721 3.805Z" fill="#FFDED4"/><path d="M195.266 185.326s25.971 63.56 35.015 86.931c12.678 16.997 44.564 53.058 46.309 53.778l2.312-5.196s-19.485-38.102-35.194-56.933c-4.177-27.987-24.061-82.187-24.061-82.187l-24.381 3.607Z" fill="#FFDED4"/><path d="M183.042 147.068c-1.872 2.188-3.792 4.282-5.708 6.404-1.927 2.108-3.897 4.176-5.872 6.246a201.43 201.43 0 0 1-6.045 6.118c-2.062 2.009-4.145 4.002-6.326 5.959l.329-.35a7.156 7.156 0 0 1-1.611 1.382 8.526 8.526 0 0 1-1.55.746c-.986.361-1.861.517-2.687.611-1.647.181-3.112.126-4.535.015-2.835-.233-5.474-.776-8.072-1.386a120.163 120.163 0 0 1-7.616-2.189c-2.495-.84-4.938-1.708-7.39-2.738a2.088 2.088 0 0 1 1.236-3.97l.039.009c2.456.514 4.968 1.041 7.454 1.484 2.484.476 4.973.889 7.441 1.195 2.458.328 4.92.554 7.227.568 1.144.004 2.264-.064 3.166-.246.446-.089.836-.207 1.051-.312.124-.049.157-.097.176-.106-.007-.011-.073.02-.16.12l.329-.35c1.952-1.935 3.876-3.965 5.782-6.016l5.702-6.21 11.341-12.541a4.2 4.2 0 0 1 6.311 5.544l-.012.013Z" fill="#FF8B7B"/><path d="m128.867 164.473-4.151-7.184-2.837 7.858s3.483 3.962 6.809 3.186l.179-3.86Z" fill="#FF8B7B"/><path d="m119.55 157.502-1.009 3.352c-.23.766.024 1.595.644 2.1l2.694 2.194 2.837-7.859-2.52-1.042a1.975 1.975 0 0 0-2.646 1.255Z" fill="#FFDED4"/><path d="M183.125 137.037c-5.845-.954-8.438 3.087-11.225 6.158.662 5.426 10.238 16.564 10.238 16.564s11.607-20.988.987-22.722Z" fill="#1E9075"/><path d="M175.35 143.705c.742 5.912 3.565 22.51 11.474 47.362l34.504-5.105c-2.382-12.511-5.675-24.328-4.153-49.231a5.032 5.032 0 0 0-5.04-5.339 88.116 88.116 0 0 0-8.218.401c-5.594.554-10.171 1.05-14.988 2.218-3.184.772-6.552 1.804-9.118 2.642a6.55 6.55 0 0 0-4.461 7.052Z" fill="#209A7E"/><path d="m188.929 134.011 14.988-2.218s-.682 5.753-10.126 13.319c-7.179-6.66-4.862-11.101-4.862-11.101Z" fill="#fff"/><path d="M199.936 115.136c-.232 4.963.131 13.938 3.981 16.657 0 0-2.998 5.489-9.673 9.617-5.237-2.282-5.315-7.399-5.315-7.399 5.188-2.08 4.459-6.049 2.968-9.658l8.039-9.217Z" fill="#FFDED4"/><path opacity=".2" d="m196.658 118.896-4.758 5.452c.356.853.664 1.727.856 2.592 2.01-.601 4.499-3.274 4.399-5.457-.05-1.089-.248-2.113-.497-2.587Z" fill="#000"/><path d="M203.713 105.537c-.731 8.121-.867 11.574-5.094 15.633-6.359 6.105-16.174 3.431-17.884-4.744-1.54-7.359-.086-19.403 7.969-22.414 7.936-2.967 15.74 3.404 15.009 11.525Z" fill="#FFDED4"/><path d="M197.483 99.218c-.718 4.86 2.154 10.809 4.639 10.872 2.486.063 4.363-9.326 4.363-9.326l-9.002-1.546Z" fill="#263238"/><path d="M183.677 96.733c5.301 3.755 21.041 9.389 21.372 4.529.332-4.86-6.24-8.781-11.1-8.781-4.86 0-8.781 1.933-10.272 4.252Z" fill="#263238"/><path opacity=".2" d="m201.397 264.764 15.857-6.255a518.996 518.996 0 0 0-.393-11.96l-17.602 6.413c.784 4.215 1.506 8.208 2.138 11.802ZM238.066 238.819l-18.393 6.7a2479 2479 0 0 1 4.161 10.399l16.921-6.674a361.01 361.01 0 0 0-2.689-10.425Z" fill="#000"/><path d="M191.813 107.676c-.019.662-.385 1.189-.818 1.177-.433-.012-.769-.559-.75-1.222.019-.662.385-1.189.818-1.177.433.013.769.56.75 1.222ZM184.326 107.463c-.018.662-.385 1.189-.818 1.177-.433-.013-.769-.56-.75-1.222.019-.662.385-1.189.818-1.177.433.012.769.559.75 1.222Z" fill="#263238"/><path d="m183.766 106.283-1.578-.504s.781 1.266 1.578.504Z" fill="#263238"/><path d="M186.272 108.657s-1.205 2.82-2.481 4.161c.851.841 2.348.51 2.348.51l.133-4.671Z" fill="#E4BCB0"/><path d="M188.487 115.8a6.296 6.296 0 0 1-1.114.065.196.196 0 0 1-.189-.201.194.194 0 0 1 .201-.189c2.905.085 4.322-1.909 4.336-1.929a.194.194 0 1 1 .32.221c-.054.078-1.194 1.684-3.554 2.033Z" fill="#263238"/><path d="M205.471 109.846c-.401 1.642-1.524 2.946-2.723 3.647-1.803 1.055-3.234-.43-3.175-2.409.052-1.781 1.054-4.477 3.077-4.725 1.993-.244 3.281 1.61 2.821 3.487Z" fill="#F2CEC3"/><path d="M194.59 104.26a.388.388 0 0 1-.289-.105c-1.267-1.186-2.661-.862-2.677-.858a.39.39 0 1 1-.185-.756c.073-.018 1.822-.427 3.394 1.046a.39.39 0 0 1-.243.673ZM182.365 103.631a.389.389 0 0 1-.142-.701c1.772-1.222 3.442-.56 3.513-.53a.389.389 0 0 1-.294.721c-.065-.027-1.368-.522-2.777.45a.39.39 0 0 1-.3.06ZM191.253 106.496l-1.578-.504s.781 1.266 1.578.504Z" fill="#263238"/><path d="m186.824 191.067 11.548 68.261 43.213-12.819c-3.532-36.071-12.5-53.942-20.257-60.547l-34.504 5.105Z" fill="#7BDAC3"/><path opacity=".2" d="m204.334 229.423 8.64-14.202-1.477-9.987-7.163 24.189Z" fill="#000"/><path d="M216.741 134.822c.733.655 1.638 1.411 2.478 2.113.859.71 1.737 1.405 2.626 2.08 1.782 1.347 3.576 2.672 5.435 3.862 3.705 2.372 7.593 4.445 11.479 5.517.243.077.483.119.725.181l.361.087c.109.026-.007-.001-.038.002h-.139c-.405.024-.551.178-.441.132.234-.082.906-.703 1.441-1.451 1.123-1.538 2.184-3.509 3.125-5.521a87.347 87.347 0 0 0 2.695-6.271c.85-2.131 1.662-4.329 2.442-6.472l.02-.055a2.088 2.088 0 0 1 4.032 1.003 83.589 83.589 0 0 1-3.239 14.167c-.812 2.343-1.685 4.687-3.136 7.089-.766 1.196-1.571 2.47-3.289 3.718-.865.595-2.149 1.217-3.738 1.218a4.66 4.66 0 0 1-.578-.027 6.966 6.966 0 0 1-.475-.059l-.502-.084c-.333-.061-.676-.106-1.001-.183-2.646-.533-5.113-1.404-7.462-2.423-2.347-1.02-4.564-2.223-6.693-3.52-2.126-1.303-4.187-2.676-6.149-4.172a87.525 87.525 0 0 1-2.897-2.303 52.599 52.599 0 0 1-2.841-2.514 4.197 4.197 0 0 1-.156-5.936 4.198 4.198 0 0 1 5.84-.245l.075.067Z" fill="#FAC5B5"/><path d="M211.759 131.392c5.912-.349 8.229 2.757 10.687 6.099-1.215 5.329-7.677 14.441-7.677 14.441s-13.751-19.905-3.01-20.54Z" fill="#26AD8D"/><path d="m248.661 129.56 1.494-8.749 5.391 6.383s-1.889 4.925-5.278 5.353l-1.607-2.987Z" fill="#FFDED4"/><path d="m255.083 118.432 3.242 2.84a1.54 1.54 0 0 1 .243 2.048l-3.594 5.085-4.819-7.594 2.935-2.411a1.54 1.54 0 0 1 1.993.032Z" fill="#FFDED4"/><path d="M198.239 365.524c.826-.691 2.15-1.263 3.321-1.676h-.003s5.888-3.323 8.953-13.319l6.805-1.702a1.23 1.23 0 0 1 1.522 1.043c.064.539.104 1.153.173 1.653.127.926.015 2.332-.001 3.249-.058 3.378-.435 10.972-.435 10.972h-.791s-.024-4.669-.418-6.894c-.393-2.225-1.964.41-2.845 2.927-.882 2.517-4.42 5.202-9.565 5.327-6.023.147-8.465-.117-6.716-1.58ZM274.152 342.064c.094-1.073.624-2.414 1.159-3.535l-.003.002s1.805-6.516-3.109-15.745l3.601-6.019a1.229 1.229 0 0 1 1.813-.341c.427.335.89.74 1.292 1.044.746.564 1.662 1.636 2.3 2.295 2.351 2.426 7.462 8.056 7.462 8.056l-.558.559s-3.324-3.279-5.177-4.571c-1.853-1.293-1.097 1.68.063 4.081 1.16 2.402.563 6.804-2.982 10.535-4.149 4.368-6.06 5.911-5.861 3.639Z" fill="#263238"/><path opacity=".9" d="M247.941 56.188 143.132 46.146c-5.354-.513-10.155 3.448-10.668 8.801L117.437 211.78c-.513 5.354 3.448 10.154 8.802 10.667l104.809 10.043c5.354.513 10.154-3.448 10.667-8.802l15.028-156.832c.513-5.354-3.448-10.154-8.802-10.667Zm-22.432 60.069c-1.898 19.81-19.5 34.341-39.318 32.442-13.418-1.285-24.402-9.771-29.514-21.264a35.87 35.87 0 0 1-2.928-18.054c1.899-19.817 19.5-34.34 39.318-32.442 3.228.31 6.311 1.03 9.203 2.119a35.362 35.362 0 0 1 7.966 4.185c7.835 5.466 13.319 13.933 14.941 23.576a35.9 35.9 0 0 1 .332 9.438Z" fill="#fff"/><path d="m194.966 17.789 11.357 2.143c2.827.534 4.889 3.33 4.571 6.22l-2.197 20a4.13 4.13 0 0 1-.149.771c-.649 2.449-3.009 3.99-5.575 3.506l-11.357-2.144c-2.566-.484-4.499-2.835-4.594-5.424-.02-.26-.007-.53.022-.795l2.197-20c.318-2.891 2.897-4.81 5.725-4.277Zm4.747 9.55c-2.257-.427-4.299 1.092-4.552 3.393-.254 2.31 1.378 4.521 3.636 4.947 2.257.426 4.299-1.092 4.553-3.402.253-2.3-1.38-4.513-3.637-4.939Z" fill="#263238"/><path d="M229.951 60.156c-.454 0-.891-.253-1.102-.69l-4.381-9.063a4.011 4.011 0 0 0-3.207-2.232l-50.413-4.83a4.014 4.014 0 0 0-3.572 1.582l-6.023 8.066a1.223 1.223 0 0 1-1.959-1.462l6.023-8.066a6.463 6.463 0 0 1 5.763-2.553l50.415 4.83a6.465 6.465 0 0 1 5.174 3.6l4.381 9.064a1.222 1.222 0 0 1-1.099 1.754Z" fill="#2BC5A0"/><path d="m126.7 88.104-.811-.077.56-5.84.811.077-.56 5.84Zm1.083-11.293-.812-.078 1.267-13.224.812.078-1.267 13.224Z" fill="#93DFCD"/><path d="M231.99 232.942c-.326 0-.653-.015-.981-.046L126.2 222.853a10.117 10.117 0 0 1-6.877-3.665 10.118 10.118 0 0 1-2.292-7.447l15.028-156.832a10.115 10.115 0 0 1 3.664-6.877 10.13 10.13 0 0 1 7.448-2.292l104.808 10.043a10.113 10.113 0 0 1 6.877 3.665 10.114 10.114 0 0 1 2.293 7.447l-15.028 156.831a10.119 10.119 0 0 1-3.665 6.878 10.116 10.116 0 0 1-6.466 2.338ZM142.191 46.508a9.304 9.304 0 0 0-5.949 2.153 9.308 9.308 0 0 0-3.372 6.326l-15.027 156.832a9.304 9.304 0 0 0 2.109 6.851 9.308 9.308 0 0 0 6.326 3.371l104.809 10.043c2.484.244 4.914-.511 6.851-2.11a9.302 9.302 0 0 0 3.371-6.325l15.028-156.832a9.303 9.303 0 0 0-2.109-6.85 9.302 9.302 0 0 0-6.326-3.373L143.093 46.552a9.357 9.357 0 0 0-.902-.044Zm47.504 102.767c-1.175 0-2.358-.057-3.543-.17-13.067-1.252-24.504-9.492-29.847-21.504a36.457 36.457 0 0 1-2.962-18.259c1.918-20.008 19.761-34.728 39.763-32.808a36.309 36.309 0 0 1 9.308 2.142 35.722 35.722 0 0 1 8.055 4.233c7.992 5.576 13.499 14.266 15.11 23.842.531 3.118.644 6.331.335 9.545-.928 9.69-5.575 18.44-13.085 24.638-6.592 5.44-14.697 8.341-23.134 8.341Zm-.093-72.094c-18.132 0-33.683 13.828-35.447 32.239a35.62 35.62 0 0 0 2.894 17.849c5.224 11.745 16.406 19.801 29.181 21.024 9.477.912 18.738-1.928 26.08-7.988 7.342-6.059 11.886-14.613 12.793-24.087a35.468 35.468 0 0 0-.328-9.331c-1.574-9.362-6.959-17.858-14.772-23.31a34.937 34.937 0 0 0-7.874-4.137 35.442 35.442 0 0 0-9.101-2.095 35.763 35.763 0 0 0-3.426-.164Z" fill="#17A785"/><path opacity=".8" d="M202.271 79.058a35.824 35.824 0 0 0-9.204-2.119c-19.818-1.899-37.419 12.625-39.318 32.442a35.881 35.881 0 0 0 2.928 18.054l-33.833 27.917 9.621-100.405c.512-5.353 5.313-9.314 10.667-8.801l34.728 3.327 11.12 13.477 13.291 16.108Z" fill="#28C19D"/><path opacity=".5" d="m256.743 66.856-6.716 70.081-24.85-30.118c-1.622-9.643-7.106-18.11-14.941-23.576l33.3-27.476 4.405.422c5.354.513 9.315 5.313 8.802 10.667Z" fill="#28C19D"/><path d="m243.536 55.767-33.3 27.476a35.333 35.333 0 0 0-7.965-4.185L188.98 62.95l-11.12-13.476 65.676 6.293Z" fill="#28C19D"/><path opacity=".5" d="m216.105 164.092-62.207-5.961a1.896 1.896 0 0 0-2.067 1.706l-.312 3.258a1.895 1.895 0 0 0 1.705 2.067l62.207 5.96a1.894 1.894 0 0 0 2.067-1.705l.312-3.258a1.895 1.895 0 0 0-1.705-2.067ZM210.026 176.273l-52.472-5.028a1.894 1.894 0 0 0-2.067 1.705l-.312 3.258a1.895 1.895 0 0 0 1.705 2.067l52.472 5.028a1.895 1.895 0 0 0 2.067-1.705l.312-3.259a1.893 1.893 0 0 0-1.705-2.066Z" fill="#93DFCD"/><path opacity=".5" d="m149.079 202.809-15.594-1.495-.244 2.554 15.593 1.494.245-2.553ZM165.168 204.35l-12.574-1.204-.245 2.553 12.574 1.205.245-2.554ZM169.083 210.521l-36.149-3.463-.244 2.553 36.149 3.464.244-2.554Z" fill="#BEEADF"/><path opacity=".5" d="m176.441 199.635-42.405-4.064-.245 2.554 42.406 4.063.244-2.553Z" fill="#93DFCD"/><path d="m205.244 19.499-11.499-2.097c-2.863-.522-5.636 1.41-6.155 4.305l-3.592 20.03a4.265 4.265 0 0 0-.076.796c-.076 2.591 1.748 4.936 4.346 5.41l11.5 2.096c2.598.474 5.121-1.078 5.95-3.532a4.28 4.28 0 0 0 .205-.773l3.591-20.029c.52-2.895-1.406-5.684-4.27-6.206Zm-7.272 7.442c2.286.416 3.811 2.623 3.398 4.928-.415 2.313-2.61 3.841-4.896 3.425-2.285-.417-3.811-2.624-3.396-4.937.413-2.304 2.609-3.833 4.894-3.416Z" fill="#016850"/><path opacity=".2" d="m205.244 19.499-11.499-2.097c-2.863-.522-5.636 1.41-6.155 4.305l-3.592 20.03a4.265 4.265 0 0 0-.076.796c-.076 2.591 1.748 4.936 4.346 5.41l11.5 2.096c2.598.474 5.121-1.078 5.95-3.532a4.28 4.28 0 0 0 .205-.773l3.591-20.029c.52-2.895-1.406-5.684-4.27-6.206Zm-7.272 7.442c2.286.416 3.811 2.623 3.398 4.928-.415 2.313-2.61 3.841-4.896 3.425-2.285-.417-3.811-2.624-3.396-4.937.413-2.304 2.609-3.833 4.894-3.416Z" fill="#fff"/><path opacity=".2" d="M226.713 216.545a7.051 7.051 0 0 0 .951-9.927 7.051 7.051 0 0 0-9.927-.951 7.051 7.051 0 1 0 8.976 10.878Z" fill="#8FE3CD"/><path opacity=".8" d="M208.055 214.758a7.052 7.052 0 1 0-8.977-10.879 7.052 7.052 0 0 0 8.977 10.879Z" fill="#53CDB0"/></svg>