<svg width="754" height="564" fill="none" xmlns="http://www.w3.org/2000/svg"><path d="M754 494.121H0v.377h754v-.377ZM671.944 503.825h-35.066v.377h35.066v-.377ZM544.388 512.014H377.853v.377h166.535v-.377ZM306.627 512.202H290.29v.377h16.337v-.377ZM174.258 507.679h-56.635v.377h56.635v-.377ZM622.278 503.825h-33.153v.377h33.153v-.377ZM105.309 507.679H77.883v.377h27.426v-.377ZM357.417 426.867H66.224c-4.746 0-8.608-3.862-8.608-8.608V8.94c0-4.746 3.862-8.607 8.608-8.607h291.193c4.745 0 8.606 3.861 8.606 8.607V418.26c0 4.746-3.861 8.608-8.606 8.608ZM66.224.71c-4.539 0-8.23 3.692-8.23 8.23V418.26c0 4.539 3.691 8.231 8.23 8.231h291.193c4.537 0 8.229-3.692 8.229-8.231V8.94c0-4.538-3.692-8.23-8.229-8.23H66.224ZM683.593 426.867H392.4c-4.745 0-8.606-3.862-8.606-8.608V8.94c0-4.746 3.861-8.607 8.606-8.607h291.193c4.746 0 8.608 3.861 8.608 8.607V418.26c0 4.746-3.862 8.608-8.608 8.608ZM392.4.71c-4.537 0-8.229 3.692-8.229 8.23V418.26c0 4.539 3.692 8.231 8.229 8.231h291.193c4.539 0 8.231-3.692 8.231-8.231V8.94c0-4.538-3.692-8.23-8.231-8.23H392.4Z" fill="#D1FFE9"/><path d="M487.936 226.78h113.965V28.378H487.936V226.78Z" fill="#DCDCDC" fill-opacity=".62"/><path d="M481.779 226.78h113.965V28.378H481.779V226.78Z" fill="#EBEBEB"/><path d="M584.69 217.468V37.688h-91.859v179.78h91.859Z" fill="#fff"/><path d="M497.487 217.468V37.688h-4.655v179.78h4.655Z" fill="#DCDCDC" fill-opacity=".62"/><path d="M486.35 174.09h104.822v-12.5H486.35v12.5Z" fill="#EBEBEB"/><path d="M294.272 226.78h113.965V28.378H294.272V226.78Z" fill="#DCDCDC" fill-opacity=".62"/><path d="M288.114 226.78H402.08V28.378H288.114V226.78Z" fill="#EBEBEB"/><path d="M391.026 217.468V37.688h-91.859v179.78h91.859Z" fill="#fff"/><path d="M303.822 217.468V37.688h-4.655v179.78h4.655Z" fill="#DCDCDC" fill-opacity=".62"/><path d="M292.686 174.09h104.822v-12.5H292.686v12.5Z" fill="#EBEBEB"/><path d="M100.608 226.78h113.965V28.378H100.608V226.78Z" fill="#DCDCDC" fill-opacity=".62"/><path d="M94.45 226.78h113.965V28.378H94.45V226.78Z" fill="#EBEBEB"/><path d="M197.361 217.468V37.688h-91.859v179.78h91.859Z" fill="#fff"/><path d="M110.158 217.468V37.688h-4.655v179.78h4.655Z" fill="#DCDCDC" fill-opacity=".62"/><path d="M99.022 174.09h104.822v-12.5H99.022v12.5Z" fill="#EBEBEB"/><path d="M211.152 349.533c-20.547 2.834-33.263-41.825 12.124-79.642-2.453 43.777 23.7 74.702-12.124 79.642Z" fill="#DCDCDC" fill-opacity=".62"/><path d="M196.064 408.031c-29.793-20.88-9.401-93.857 82.81-88.568-39.898 53.714-30.867 124.971-82.81 88.568Z" fill="#60D3B8"/><path d="M206.578 407.538c19.805-21.329-8.383-74.997-79.631-55.398 40.218 35.328 45.101 92.585 79.631 55.398Z" fill="#9CF1DD"/><path d="M181.18 376.435c-6.848-8.339-14.944-17.721-12.977-27.633 2.031-10.006 6.865-17.304 2.966-27.864-4.672-12.659-3.766-27.774 4.132-26.511 7.884 1.271 16.756 10.526 16.519 22.797-.143 11.879 7.618 15.674 14.921 21.998 7.279 6.27 10.127 15.542 11.433 24.663 2.304 14.385 20.922 11.657 25.873 24.157 5.099 12.047-5.087 28.116-21.388 31.809-16.362 3.706-27.912 5.995-39.024-6.717-11.305-13.518 7.671-24.748-2.455-36.699Z" fill="#BAECEC"/><path d="M237.25 494.122h-61.231l-4.622-83.419h70.474l-4.621 83.419Z" fill="#C9F0E6"/><path d="M246.435 408.994h-79.6v8.986h79.6v-8.986Z" fill="#E3FFF5"/><path d="M598.285 482.801h41.194v-178.66h-41.194v178.66ZM275.448 494.121H631.57v-11.32H275.448v11.32Z" fill="#E6E6E6"/><path d="M598.284 304.141H267.538v178.66h330.746v-178.66Z" fill="#F5F5F5"/><path d="M582.088 326.131H283.733v58.594h298.355v-58.594ZM582.088 402.215H283.733v58.594h298.355v-58.594Z" fill="#FAFAFA"/><path d="M340.106 359.445h185.61a4.029 4.029 0 0 0 4.018-4.017 4.03 4.03 0 0 0-4.018-4.018h-185.61a4.03 4.03 0 0 0-4.017 4.018 4.029 4.029 0 0 0 4.017 4.017ZM340.106 435.529h185.61a4.03 4.03 0 0 0 4.018-4.017 4.03 4.03 0 0 0-4.018-4.018h-185.61a4.03 4.03 0 0 0-4.017 4.018 4.03 4.03 0 0 0 4.017 4.017ZM506.969 278.072s47.212 44.725 75.227-.187c0 0-7.45-14.427-15.308-15.667-7.859-1.24-8.179 12.489-15.117 8.255-6.938-4.235-14.974-18.724-19.375-10.987-4.4 7.737-10.446-3.292-17.039-3.922-6.593-.63-8.388 22.508-8.388 22.508Z" fill="#EBEBEB"/><path d="M585.2 274.986s-1.038 29.155-40.812 29.155c-39.773 0-40.811-29.155-40.811-29.155H585.2Z" fill="#E3FFF5"/><path d="M383.956 259.78h22.907v44.361h-67.267c0-24.5 19.861-44.361 44.36-44.361Z" fill="#EBEBEB"/><path d="M427.992 259.78h-21.129v44.361h21.129V259.78Z" fill="#DCDCDC" fill-opacity=".62"/><path opacity=".4" d="M314.707 105.824c-55.729.699-101.534-27.87-148.443 16.17-36.092 33.883-42.776 85.193-24.421 129.141 44.014 105.381 202.746 141.464 303.656 103.992 115.98-43.069 199.861-170.056 131.77-261.382-21.297-28.565-80.128-55.14-114.751-54.33-62.223 1.454-86.244 65.637-147.811 66.409Z" fill="#77FFE7" fill-opacity=".6"/><path d="M376.384 563.285c161.48 0 292.385-7.645 292.385-17.076 0-9.43-130.905-17.075-292.385-17.075C214.905 529.134 84 536.779 84 546.209c0 9.431 130.905 17.076 292.384 17.076Z" fill="#F5F5F5"/><path d="M330.134 216.746c-.408.62-.664.982-.987 1.428-.307.433-.615.838-.924 1.241-.621.814-1.266 1.57-1.914 2.334-1.308 1.502-2.641 2.967-4.049 4.345-2.817 2.76-5.847 5.27-9.007 7.601-3.179 2.308-6.55 4.341-10.029 6.157-1.764.861-3.521 1.739-5.344 2.463l-2.731 1.087-.76.293c-.425.139-.823.29-1.281.388-.887.212-1.836.347-2.789.325-1.92-.006-3.74-.553-5.149-1.294-1.431-.741-2.543-1.629-3.481-2.517-1.856-1.793-3.12-3.624-4.211-5.429-2.126-3.632-3.579-7.227-4.814-10.85-2.412-7.259-4.042-14.436-5.056-21.892l6.304-1.385c1.137 3.303 2.311 6.718 3.619 9.996 1.247 3.309 2.596 6.564 4.095 9.669 1.491 3.09 3.083 6.117 4.891 8.586.878 1.234 1.84 2.307 2.671 2.956.409.322.775.514.975.569.212.064.191 0 .089-.035a.25.25 0 0 1-.102-.032c-.011.011.006-.031.012-.026l.493-.238 2.253-1.09c1.501-.724 2.935-1.584 4.395-2.377 2.864-1.702 5.604-3.595 8.259-5.598a77.758 77.758 0 0 0 7.428-6.63c1.188-1.154 2.297-2.375 3.375-3.603a61.336 61.336 0 0 0 1.543-1.864l.729-.918.591-.787 10.906 7.127Z" fill="#FFDED5"/><path d="m311.833 216.101 7.645 18.328-5.527 3.463-8.596-16.644 6.478-5.147Z" fill="#145B41"/><path d="M333.472 200.655c-12.47-.173-25.133 15.624-25.455 16.013l9.872 23.189s21.938-17.811 23.038-24.772c1.145-7.249.453-14.321-7.455-14.43Z" fill="#28C19D"/><path d="m272.838 198.665-8.633-6.71-1.739 13.202s8.382 3.29 12.848.442l-.12-2.41a6.115 6.115 0 0 0-2.356-4.524Z" fill="#FFDED5"/><path d="m252.681 191.282.537 10.043 9.249 3.832 1.738-13.202-11.524-.673ZM441.616 197.598l13.33-3.335-9.317-9.514s-8.648 3.519-6.541 11.063l2.528 1.786Z" fill="#FFDED5"/><path d="m461.64 191.889-1.103-10.464-14.909 3.324 9.317 9.514 6.695-2.374ZM398.206 532.983l-12.41 1.203-10.347-29.297 12.409-1.202 10.348 29.296ZM531.073 471.416l-9.149 8.87-23.482-18.334 9.149-8.87 23.482 18.334Z" fill="#FFDED5"/><path d="m519.291 478.569 7.026-12.472a1.008 1.008 0 0 1 1.257-.459l10.669 4.138c1.107.429 1.579 1.855.972 2.892-2.525 4.306-3.961 6.258-7.05 11.743-1.901 3.374-5.61 11.118-8.235 15.778-2.568 4.558-7.373 2.312-6.697.137 3.03-9.755 2.506-15.199 1.695-19.517a3.329 3.329 0 0 1 .363-2.24ZM383.333 530.383h15.117c.55 0 1.046.382 1.194.919l3.287 11.96a1.87 1.87 0 0 1-1.844 2.392c-5.283-.09-7.863-.4-14.51-.4-4.09 0-17.411.425-23.058.425-5.524 0-6.679-5.584-4.394-6.09 10.248-2.268 18.906-5.395 22.068-8.379a3.103 3.103 0 0 1 2.14-.827Z" fill="#145B41"/><path d="m375.454 504.897 5.331 15.101h12.84l-5.757-16.305-12.414 1.204ZM507.599 453.085l-9.152 8.873 12.109 9.446 9.152-8.873-12.109-9.446Z" fill="#EDC5BC"/><path d="M321.331 204.686s-5.12 3.9 29.42 71.318L400 260.107c-7.297-19.778-11.309-32.13-15.007-76.358 0 0-11.044 1.086-21.803 3.995-14.565 3.938-21.523 6.861-22.363 7.22-9.323 3.977-19.496 9.722-19.496 9.722Z" fill="#28C19D"/><path d="M352.846 163.278c.912 7.651 3.759 21.29 10.343 24.466 0 0 .39 7.934-12.981 12.25-14.701 4.745-9.382-5.03-9.382-5.03 7.406-4.507 5.277-10.393 2.075-15.533l9.945-16.153Z" fill="#FFDED5"/><path d="M328.138 201.027c3.635-1.885 8.263-4.173 12.69-6.068 7.074-3.022 13.956-4.942 22.367-7.219 4.304-1.17 8.646-2.052 12.311-2.66.341 1.022-.703 3.675-3.25 7.335-8.064 6.708-25.267 15.403-37.954 15.084-5.477-2.06-6.856-4.244-6.164-6.472Z" fill="#FFDED5"/><path d="M372.256 192.415c-3.491 5.016-9.82 11.936-19.423 19.239-8.748-1.303-14.656-2.699-18.53-4.155 12.687.319 29.89-8.376 37.953-15.084Z" fill="#145B41"/><path d="m348.793 169.867-5.888 9.556c.763 1.214 1.457 2.472 1.971 3.747 2.922-1.433 6.656-5.67 5.945-8.985-.354-1.653-1.527-3.657-2.028-4.318Z" fill="#EDC5BC"/><path d="M355.837 149.12c.76 12.624 1.352 17.951-4.191 25.154-8.338 10.836-24.009 9.01-28.526-3.132-4.065-10.929-4.626-29.737 7.03-36.22 11.483-6.388 24.926 1.575 25.687 14.198Z" fill="#FFDED5"/><path d="M380.749 126.492c2.851-12.543-5.006-25.022-17.549-27.873-12.542-2.851-25.022 5.005-27.873 17.548-2.851 12.543 5.006 25.022 17.548 27.873 12.543 2.852 25.022-5.005 27.874-17.548Z" fill="#0F4C3D"/><path d="M352.244 131.455c4.801 3.163 7.187 8.015 5.329 10.836-1.859 2.822-7.259 2.545-12.06-.618-4.802-3.163-7.188-8.015-5.329-10.837 1.859-2.821 7.258-2.544 12.06.619Z" fill="#90EAD4"/><path d="M349.731 157.733c1.257-2.891-3.114-11.49-2.168-14.707-2.513-2.325-27.882 5.94-25.837-.104 1.955-5.781 8.142-13.468 22.256-10.254 15.136 3.447 16.399 16.487 14.703 20.648-1.697 4.162-4.084 8.495-4.084 8.495l-4.87-4.078Z" fill="#0F4C3D"/><path d="M359.163 160.188c.061 2.621-1.095 5.025-2.608 6.559-2.276 2.307-5.017.66-5.727-2.328-.639-2.689-.226-7.13 2.704-8.317 2.887-1.169 5.563 1.089 5.631 4.086Z" fill="#FFDED5"/><path d="M350.751 276.003s-22.83 111.353-10.098 148.076c13.242 38.198 34.796 91.525 34.796 91.525l20.125-1.154s-16.629-67.381-20.676-97.808c-5.578-41.948 18.364-154.361 18.364-154.361l-42.511 13.722Z" fill="#90EAD4"/><path d="m397.164 514.936-23.306 1.337-3.737-9.159 25.699-2.671 1.344 10.493Z" fill="#00CC83"/><path d="M374.899 284.579c-3.498 12.939-.573 32.331 6.032 45.934a1241.99 1241.99 0 0 1 4.961-29.934c-3.393-6.5-7.133-12.381-10.993-16Z" fill="#77FCDC"/><path d="M363.756 271.805s33.902 80.958 56.345 125.507c18.127 35.983 85.258 73.637 85.258 73.637l12.023-12.786s-50.182-44.565-62.696-68.965c-40.051-78.098-31.815-112.204-54.687-129.092l-36.243 11.699Z" fill="#90EAD4"/><path d="m519.661 456.337-16.578 17.629-10.499-5.527 19.101-19.478 7.976 7.376Z" fill="#00CC83"/><path d="m399.804 256.978 3.644 3.692c.282.286-.01.766-.579.949l-51.649 16.672c-.444.143-.882.045-1.001-.226l-1.867-4.265c-.129-.295.172-.678.658-.835l49.872-16.098c.367-.118.74-.073.922.111Z" fill="#145B41"/><path d="m394.907 264.717 1.336-.431c.266-.086.424-.289.351-.45l-2.475-5.526c-.072-.161-.349-.223-.615-.138l-1.336.432c-.266.085-.424.288-.352.45l2.475 5.525c.073.162.35.224.616.138ZM355.128 277.557l1.336-.431c.266-.086.424-.289.352-.451l-2.476-5.525c-.072-.162-.349-.224-.615-.138l-1.336.431c-.266.086-.424.289-.351.451l2.475 5.525c.072.161.349.224.615.138ZM375.017 271.137l1.336-.431c.266-.086.424-.289.352-.45l-2.475-5.526c-.073-.161-.35-.223-.616-.138l-1.335.431c-.266.086-.425.289-.352.451l2.475 5.525c.072.162.349.224.615.138Z" fill="#90EAD4"/><path d="M337.259 154.943c.124 1.02-.315 1.913-.982 1.995-.667.081-1.309-.68-1.433-1.7-.125-1.02.315-1.913.982-1.995.667-.081 1.308.68 1.433 1.7ZM325.728 156.351c.125 1.02-.315 1.913-.982 1.995-.667.081-1.308-.68-1.433-1.7-.124-1.02.315-1.913.982-1.995.667-.081 1.309.68 1.433 1.7Z" fill="#0F4C3D"/><path d="m324.597 154.672-2.537-.407s1.491 1.76 2.537.407Z" fill="#0F4C3D"/><path d="M328.99 157.732s-1.195 4.604-2.842 6.956c1.5 1.092 3.72.238 3.72.238l-.878-7.194Z" fill="#EAB5AC"/><path d="M333.912 168.507a.301.301 0 0 1-.037-.601c4.466-.545 6.188-3.93 6.205-3.964a.299.299 0 0 1 .404-.137c.15.074.211.254.138.404-.075.151-1.873 3.71-6.673 4.296a.23.23 0 0 1-.037.002ZM338.688 151.322a.606.606 0 0 1-.395-.147c-2.017-1.741-4.119-1.186-4.206-1.159a.605.605 0 0 1-.744-.417.602.602 0 0 1 .412-.744c.115-.032 2.799-.774 5.328 1.406a.605.605 0 0 1-.395 1.061ZM319.77 151.681a.603.603 0 0 1-.538-.874c1.5-2.984 4.266-3.326 4.383-3.34a.61.61 0 0 1 .667.533c.037.33-.2.629-.529.667-.092.011-2.246.301-3.443 2.681a.602.602 0 0 1-.54.333Z" fill="#0F4C3D"/><path d="m394.902 195.526.566.722.709.857a60.421 60.421 0 0 0 4.79 5.13 82.533 82.533 0 0 0 7.196 6.278c2.564 1.91 5.193 3.748 7.942 5.415 1.38.818 2.785 1.605 4.195 2.383l2.155 1.096 1.052.533c.255.113.512.243.752.327.991.398 1.772.505 2.429.495.653-.023 1.308-.224 2.11-.78 1.625-1.087 3.335-3.51 4.658-6.22 1.37-2.726 2.461-5.801 3.356-8.96.952-3.131 1.691-6.482 2.314-9.651l6.44.408c.068 7.372-.687 14.479-3.136 21.893a31.505 31.505 0 0 1-2.493 5.543c-1.061 1.834-2.393 3.71-4.289 5.362-1.863 1.65-4.425 3.051-7.213 3.537-2.775.512-5.533.174-7.817-.543-.591-.169-1.133-.376-1.684-.582l-1.314-.544-2.569-1.079a89.507 89.507 0 0 1-5.017-2.437 83.458 83.458 0 0 1-9.515-5.874c-3.018-2.202-5.941-4.552-8.67-7.148a73.056 73.056 0 0 1-3.946-4.088 55.207 55.207 0 0 1-1.879-2.202l-.911-1.177c-.32-.424-.57-.763-.983-1.365l10.772-7.329Z" fill="#FFDED5"/><path d="m405.625 203.474-9.427 15.85-4.612-4.351 8.716-15.865 5.323 4.366Z" fill="#145B41"/><path d="M384.993 183.748c5.418-.092 18.597 15.475 18.597 15.475l-11.451 19.952s-14.596-12.868-14.581-19.915c.015-7.339 1.251-15.406 7.435-15.512Z" fill="#28C19D"/><path d="M516.819 485.333c-.383 0-.766-.144-1.144-.433-.408-.312-.467-.683-.443-.939.144-1.622 4.219-3.769 4.682-4.008a.305.305 0 0 1 .33.036.3.3 0 0 1 .099.316c-.47 1.629-1.487 4.439-3.025 4.946a1.553 1.553 0 0 1-.499.082Zm2.729-4.494c-1.605.905-3.639 2.32-3.716 3.175-.009.107.006.25.211.406.377.29.73.374 1.087.258.829-.274 1.714-1.689 2.418-3.839Z" fill="#40FFBA"/><path d="M516.253 481.389c-.792 0-1.492-.135-1.885-.474-.212-.182-.526-.595-.234-1.297.184-.446.512-.754.976-.916 1.75-.598 4.956 1.179 5.09 1.256a.302.302 0 0 1 .008.523c-.773.464-2.516.908-3.955.908Zm-.305-2.21a1.98 1.98 0 0 0-.641.094.98.98 0 0 0-.616.574c-.148.36-.04.516.07.61.676.583 3.184.336 4.623-.244-.901-.442-2.364-1.034-3.436-1.034ZM376.629 532.877c-1.168 0-2.256-.179-2.951-.705a1.88 1.88 0 0 1-.768-1.452c-.025-.451.192-.695.38-.822 1.373-.931 6.518 1.411 7.536 1.888a.305.305 0 0 1 .172.307.302.302 0 0 1-.236.26c-1.095.243-2.676.524-4.133.524Zm-2.408-2.608c-.259 0-.462.04-.594.128-.062.043-.125.111-.114.288.024.425.197.755.528 1.005 1.188.897 4.026.557 5.677.258-1.857-.808-4.285-1.679-5.497-1.679Z" fill="#40FFBA"/><path d="M380.698 532.361a.33.33 0 0 1-.115-.022c-1.706-.698-5.146-3.458-4.952-4.884.042-.312.255-.703 1.033-.796 2.998-.392 4.276 5.101 4.329 5.332a.301.301 0 0 1-.295.37Zm-3.759-5.116c-.067 0-.134.004-.203.012-.316.038-.487.132-.507.279-.112.828 2.265 3.008 4.002 3.962-.396-1.318-1.482-4.253-3.292-4.253Z" fill="#40FFBA"/><path d="m336.127 153.263-2.536-.407s1.491 1.761 2.536.407Z" fill="#0F4C3D"/><path d="M241.794 47.875c-2.681 3.351-17.384 7.287-29.071 6.199-4.021 26.415 10.053 56.844 10.053 56.844s30.537-3.645 31.291-16.211c.754-12.567-12.273-46.832-12.273-46.832ZM472.947 27.782c2.733 3.839 16.608 7.659 27.311 5.663 5.749 31.28-4.895 68.428-4.895 68.428s-28.468-2.527-30.133-17.477c-1.665-14.95 7.717-56.614 7.717-56.614Z" fill="#32B193"/><path d="M272.808 298.643a1.676 1.676 0 0 1-1.894-1.425L235.018 43.173a1.675 1.675 0 1 1 3.318-.469l35.896 254.046a1.674 1.674 0 0 1-1.424 1.893ZM443.458 279.759a1.674 1.674 0 0 0 1.893-1.424l35.897-254.046a1.676 1.676 0 0 0-3.318-.469l-35.897 254.046a1.674 1.674 0 0 0 1.425 1.893Z" fill="#00CC83"/><path d="m233.666 48.546 6.774 49.875a2.22 2.22 0 0 0 2.814 1.835c15.168-4.342 99.479-26.003 229.102-12.216a2.215 2.215 0 0 0 2.419-1.773c2.443-12.637 6.654-48.629 7.715-57.839a2.218 2.218 0 0 0-1.927-2.456c-17.407-2.204-136.192-15.373-245.378 20.15a2.237 2.237 0 0 0-1.519 2.424Z" fill="#39D1AD"/><path d="m255.416 57.19 7.151-1.45 5.061 13.137 1.281-14.423 7.125-1.445 6.26 12.876.096-14.164 7.112-1.442-.93 25.489-7.382 1.495-7.07-14.495-1.461 16.226-7.382 1.496-9.861-23.3ZM293.004 49.895l20.345-2.986.665 5.259-12.738 1.87.495 3.915 11.815-1.734.634 5.024-11.815 1.733.614 4.856 13.105-1.923.704 5.578-20.715 3.04-3.109-24.632ZM318.522 46.29l7.622-.823 1.634 18.657 11.898-1.283.533 6.094-19.521 2.105-2.166-24.75ZM358.843 57.353l6.802 1.554c-.352 1.917-.98 3.543-1.882 4.878a9.53 9.53 0 0 1-3.455 3.12c-1.401.745-3.209 1.198-5.425 1.356-2.688.193-4.904-.043-6.648-.706-1.745-.662-3.286-1.936-4.624-3.823-1.341-1.886-2.088-4.37-2.247-7.45-.211-4.107.714-7.342 2.777-9.705 2.063-2.36 5.085-3.685 9.068-3.968 3.115-.224 5.595.234 7.445 1.371 1.846 1.138 3.271 2.985 4.272 5.543l-6.671 1.989c-.275-.739-.551-1.274-.827-1.607a4.301 4.301 0 0 0-1.64-1.243c-.634-.27-1.334-.38-2.099-.325-1.732.124-3.024.918-3.873 2.383-.645 1.088-.91 2.742-.795 4.964.141 2.751.654 4.608 1.54 5.57.885.961 2.079 1.387 3.588 1.279 1.461-.104 2.544-.595 3.251-1.473.706-.878 1.186-2.114 1.443-3.707ZM368.431 54.476c-.054-4.063 1.031-7.262 3.255-9.598 2.223-2.336 5.345-3.57 9.365-3.702 4.122-.133 7.312.874 9.57 3.024s3.414 5.229 3.466 9.234c.037 2.91-.42 5.31-1.37 7.202a10.747 10.747 0 0 1-4.166 4.483c-1.828 1.094-4.117 1.688-6.864 1.777-2.792.092-5.109-.28-6.951-1.115-1.842-.833-3.344-2.199-4.507-4.097-1.162-1.898-1.761-4.3-1.798-7.208Zm7.651-.216c.033 2.512.52 4.3 1.464 5.369.944 1.066 2.214 1.574 3.814 1.522 1.644-.054 2.909-.632 3.797-1.736.886-1.105 1.312-3.048 1.277-5.832-.031-2.342-.524-4.038-1.478-5.088-.954-1.05-2.236-1.55-3.846-1.496-1.544.049-2.775.639-3.695 1.767-.922 1.128-1.365 2.96-1.333 5.494ZM398.726 41.105l10.062.081 3.466 15.178 4.264-15.116 10.056.081-.68 24.893-6.265-.05.517-18.984-5.345 18.945-5.671-.045-4.3-19.022-.517 18.983-6.265-.049.678-24.895ZM432.096 41.55l20.466.91-.336 5.31-12.813-.57-.25 3.952 11.886.53-.322 5.071-11.885-.528-.312 4.902 13.184.588-.356 5.632-20.838-.928 1.576-24.87Z" fill="#fff"/></svg>