<svg width="26" height="26" fill="none" xmlns="http://www.w3.org/2000/svg"><g fill="#0ACBA7"><path d="M16.5 25.542h-7c-6.335 0-9.042-2.706-9.042-9.041v-7C.458 3.166 3.165.459 9.5.459h5.833c.478 0 .875.397.875.875a.881.881 0 0 1-.875.875H9.5c-5.379 0-7.292 1.913-7.292 7.292v7c0 5.378 1.913 7.291 7.292 7.291h7c5.378 0 7.291-1.913 7.291-7.291v-5.834c0-.478.397-.875.875-.875.479 0 .875.397.875.875v5.834c0 6.335-2.706 9.041-9.041 9.041Z"/><path d="M24.666 11.54H20c-3.99 0-5.542-1.552-5.542-5.542V1.331c0-.35.21-.676.537-.805.326-.14.7-.058.956.187l9.334 9.333a.877.877 0 0 1-.619 1.494Zm-8.458-8.097v2.555c0 3.01.782 3.792 3.792 3.792h2.555l-6.347-6.347ZM6 21.312h1.375v-1.439h.623c.991 0 1.823-.72 1.823-1.695 0-.975-.8-1.678-1.823-1.678H6v4.812Zm1.375-2.542v-1.151h.48c.319 0 .59.208.59.56 0 .351-.255.575-.59.575h-.48v.016Zm2.558 2.542h1.902c1.599 0 2.59-.944 2.59-2.43 0-1.39-.991-2.366-2.59-2.366H9.933v4.796Zm1.374-1.135v-2.542h.464c.528 0 1.247.256 1.247 1.247 0 1.039-.72 1.295-1.247 1.295h-.464Zm3.55 1.135h1.374v-1.71h1.695v-1.104H16.23v-.863h1.935v-1.103h-3.293v4.796l-.016-.016Z"/></g></svg>