<svg width="16" height="16" fill="none" xmlns="http://www.w3.org/2000/svg"><g fill="#0ACBA7"><path d="M6 11.832a.504.504 0 0 1-.5-.5V8.539l-.48.48a.503.503 0 0 1-.707 0 .503.503 0 0 1 0-.707l1.333-1.333a.502.502 0 0 1 .854.353v4c0 .273-.227.5-.5.5Z"/><path d="M7.333 9.168a.494.494 0 0 1-.354-.147L5.646 7.688a.503.503 0 0 1 0-.707.503.503 0 0 1 .707 0l1.333 1.333a.503.503 0 0 1 0 .707c-.1.1-.227.147-.353.147Z"/><path d="M10 15.166H6C2.38 15.166.833 13.62.833 10V6C.833 2.38 2.38.833 6 .833h3.333c.273 0 .5.227.5.5s-.227.5-.5.5H6C2.926 1.833 1.833 2.926 1.833 6v4c0 3.073 1.093 4.166 4.167 4.166h4c3.073 0 4.166-1.093 4.166-4.166V6.666c0-.273.227-.5.5-.5.274 0 .5.227.5.5V10c0 3.62-1.546 5.166-5.166 5.166Z"/><path d="M14.666 7.165H12C9.72 7.165 8.833 6.28 8.833 4V1.332c0-.2.12-.387.307-.46.186-.08.4-.033.546.107l5.334 5.333a.5.5 0 0 1-.354.853ZM9.833 2.54v1.46c0 1.72.447 2.166 2.167 2.166h1.46L9.833 2.54Z"/></g></svg>