<svg width="400" height="400" fill="none" xmlns="http://www.w3.org/2000/svg"><path d="M359.921 326.033h-26.498v.2h26.498v-.2ZM264.976 328.204h-6.955v.2h6.955v-.2ZM332.622 318.604h-15.353v.2h15.353v-.2ZM76.522 319.949H41.967v.2h34.555v-.2ZM88.71 319.949h-5.066v.2h5.067v-.2ZM180.118 323.327h-74.941v.2h74.941v-.2ZM190.721 277.478H36.241a4.571 4.571 0 0 1-4.566-4.566V55.766a4.572 4.572 0 0 1 4.567-4.566H190.72a4.57 4.57 0 0 1 4.565 4.566v217.146a4.57 4.57 0 0 1-4.565 4.566ZM36.241 51.4a4.371 4.371 0 0 0-4.366 4.366v217.146a4.371 4.371 0 0 0 4.367 4.366H190.72a4.37 4.37 0 0 0 4.365-4.366V55.766a4.37 4.37 0 0 0-4.365-4.366H36.241ZM363.758 277.478H209.279a4.57 4.57 0 0 1-4.565-4.566V55.766a4.57 4.57 0 0 1 4.565-4.566h154.479a4.572 4.572 0 0 1 4.567 4.566v217.146a4.572 4.572 0 0 1-4.567 4.566ZM209.279 51.4a4.37 4.37 0 0 0-4.365 4.366v217.146a4.37 4.37 0 0 0 4.365 4.366h154.479a4.372 4.372 0 0 0 4.367-4.366V55.766a4.371 4.371 0 0 0-4.367-4.366H209.279ZM400 313.157H0v.2h400v-.2Z" fill="#EBEBEB"/><path d="M280.058 308.513H356.2V207.197h-76.142v101.316Z" fill="#F5F5F5"/><path d="M265.533 308.513h14.525V207.197h-14.525v101.316Z" fill="#E6E6E6"/><path d="M285 239.318h65.867v-24.604H285v24.604Z" fill="#FAFAFA"/><path d="m326.522 214.714-.288 3.28a2.095 2.095 0 0 1-2.087 1.911h-12.428a2.095 2.095 0 0 1-2.087-1.911l-.288-3.28h17.178Z" fill="#EBEBEB"/><path d="M285 266.61h65.867v-24.604H285v24.604Z" fill="#FAFAFA"/><path d="m326.522 242.006-.288 3.28a2.095 2.095 0 0 1-2.087 1.912h-12.428a2.095 2.095 0 0 1-2.087-1.912l-.288-3.28h17.178Z" fill="#EBEBEB"/><path d="M285 293.901h65.867v-24.604H285v24.604Z" fill="#FAFAFA"/><path d="m326.522 269.297-.288 3.28a2.095 2.095 0 0 1-2.087 1.912h-12.428a2.095 2.095 0 0 1-2.087-1.912l-.288-3.28h17.178Z" fill="#EBEBEB"/><path d="M285 313.571h65.067l.8-5.067H285v5.067Z" fill="#E6E6E6"/><path d="M271.4 313.571H285v-5.067h-14.4l.8 5.067Z" fill="#E0E0E0"/><path d="M315.585 207.306h26l-2.885-32.973h-26l2.885 32.973Z" fill="#FAFAFA"/><path d="M315.585 207.306h-1.241l-2.885-32.973h1.241l2.885 32.973Z" fill="#EBEBEB"/><path d="M317.942 203.944h20.698l-2.296-26.25h-20.698l2.296 26.25Z" fill="#F0F0F0"/><path d="M319.456 201.783h17.291l-1.918-21.928h-17.291l1.918 21.928Z" fill="#E6E6E6"/><path d="m308.279 207.305 1.786-20.409h-25.882l-1.786 20.409h25.882Z" fill="#F0F0F0"/><path d="m308.279 207.305 1.786-20.409h1.394l-1.786 20.409h-1.394Z" fill="#E0E0E0"/><path d="m305.822 205.225 1.422-16.247h-20.605l-1.421 16.247h20.604Z" fill="#EBEBEB"/><path d="m304.243 203.887 1.188-13.573h-17.212l-1.188 13.573h17.212Z" fill="#F5F5F5"/><path d="M248.515 299.854c0 5.409-.848 8.906-2.278 11.151-1.075 1.688-3.005 2.638-5.007 2.638h-7.83c-2.002 0-3.931-.95-5.007-2.638-1.429-2.245-2.278-5.742-2.278-11.151 0-7.844 3.42-14.124 4.537-19.138.402-1.806-.937-7.34-.937-7.34h15.2s-1.339 5.534-.937 7.34c1.117 5.014 4.537 11.294 4.537 19.138Z" fill="#EBEBEB"/><path d="M274.4 268.108c0-6.811-10.677-3.984-13.368-14.549-1.02-4.004 7.664-13.066 7.664-13.066H241.62s8.684 9.062 7.664 13.066c-2.691 10.565-13.368 7.738-13.368 14.549 0 7.5 15.061 23.122 15.787 40.705.065 1.572-2.833 4.829-2.833 4.829h12.575s-2.898-3.257-2.833-4.829c.726-17.583 15.788-33.205 15.788-40.705Z" fill="#F5F5F5"/><path d="M266.217 285.806c1.574-3.31-1.68-14.564-1.68-14.564h11.733s-3.254 11.254-1.681 14.564c1.111 2.337 3.639 3.829 3.639 6.594v16.618c0 4.303-3.521 4.624-7.825 4.624-4.303 0-7.824-.321-7.824-4.624V292.4c0-2.765 2.527-4.257 3.638-6.594Z" fill="#F0F0F0"/><path d="M132.122 187.66c-6.742-2.919-10.588-9.079-8.573-13.732 2.015-4.653 9.139-6.064 15.88-3.145 6.743 2.92 10.588 9.08 8.574 13.733-2.015 4.653-9.139 6.063-15.881 3.144Zm5.366-12.392c-3.159-1.368-6.497-.707-7.441 1.473s.857 5.067 4.016 6.435c3.159 1.368 6.498.707 7.442-1.473.944-2.181-.858-5.068-4.017-6.435Z" fill="#E6E6E6"/><path d="m140.053 175.526-3.203-1.387 19.357-44.748a1.745 1.745 0 1 1 3.203 1.385l-19.357 44.75Z" fill="#E6E6E6"/><path d="m160.894 135.102-6.147-2.685 1.387-3.203 6.147 2.685-1.387 3.203ZM157.864 138.684l-4.402-1.912 1.387-3.203 4.402 1.912-1.387 3.203ZM153.063 139.69l-1.387 3.204 4.936 2.137 1.387-3.203-4.936-2.138ZM141.298 170.749l-1.76-.762a1.73 1.73 0 0 1-.9-2.276l.012-.027a1.73 1.73 0 0 1 2.275-.9l1.76.762a1.73 1.73 0 0 1 .9 2.275l-.012.027a1.73 1.73 0 0 1-2.275.901ZM278.775 155.366c5.341 3.559 6.719 10.908 3.071 16.384-3.648 5.476-10.962 7.035-16.303 3.477-5.342-3.56-6.72-10.91-3.071-16.385 3.648-5.476 10.961-7.035 16.303-3.476Zm-9.716 14.583c2.503 1.668 5.93.937 7.639-1.629 1.709-2.565 1.064-6.009-1.439-7.677-2.503-1.667-5.93-.937-7.639 1.628-1.71 2.566-1.064 6.011 1.439 7.678Z" fill="#E6E6E6"/><path d="m267.765 168.529 3.311 2.206-23.691 36.256a1.989 1.989 0 1 1-3.312-2.205l23.692-36.257Z" fill="#E6E6E6"/><path d="m244.222 196.881 6.969 4.68-3.479 5.22-6.981-4.688a2.19 2.19 0 0 1-.602-3.035l1.047-1.572a2.193 2.193 0 0 1 3.046-.605Z" fill="#E6E6E6"/><path d="m182.029 86.083-3.678 9.526a1.666 1.666 0 1 1-3.109-1.2l3.678-9.527a5.988 5.988 0 0 0-3.425-7.735l-3.408-1.315a5.988 5.988 0 0 0-7.733 3.427l-1.502 3.89-3.109-1.2 1.501-3.89c1.85-4.792 7.254-7.185 12.044-5.336l3.408 1.315c4.79 1.85 7.183 7.253 5.333 12.045Z" fill="#F0F0F0"/><path d="M181.448 87.584a2.267 2.267 0 0 0-.977-.728l-18.56-7.166a2.281 2.281 0 0 0-2.944 1.304l-7.165 18.56a2.274 2.274 0 0 0 1.303 2.944l18.561 7.165a2.273 2.273 0 0 0 2.943-1.303l7.166-18.56c.297-.771.15-1.606-.327-2.216Zm-14.093 14.342-5.886-2.272 3.112-5.433a3.266 3.266 0 0 1 4.1-4.495 3.27 3.27 0 0 1 1.871 4.226 3.228 3.228 0 0 1-1.856 1.858l-1.341 6.116ZM55.326 302.803h148.103v-79.706H55.326v79.706ZM191.556 313.146h9.308v-7.033h-9.308v7.033ZM44.02 313.146h9.308v-95.978H44.02v95.978Z" fill="#E6E6E6"/><path d="M53.217 217.168v95.977h4.964v-5.378h142.683v5.378h4.964v-95.977H53.217Zm4.964 8.688h68.859v33.335H58.181v-33.335Zm142.683 73.224h-68.859v-73.224h68.859v73.224Zm-142.683 0v-34.925h68.859v34.925H58.181Z" fill="#F0F0F0"/><path d="M132.005 299.079h64.205V229.44h-64.205v69.639Z" fill="#F5F5F5"/><path d="M134.912 262.173a2.983 2.983 0 1 0 5.966 0 2.983 2.983 0 0 0-5.966 0Z" fill="#FAFAFA"/><path d="M137.895 265.157a2.978 2.978 0 0 0 2.705-1.742c.174.379.278.797.278 1.241a2.983 2.983 0 1 1-5.966 0c0-.444.104-.862.278-1.241a2.978 2.978 0 0 0 2.705 1.742Z" fill="#E0E0E0"/><path d="M171.309 299.079h-15.317l-7.319-69.639h15.317l7.319 69.639ZM152.069 299.079h-3.049l-7.319-69.639h3.049l7.319 69.639ZM111.522 259.158h6.067v-29.786h-6.067v29.786Z" fill="#FAFAFA"/><path d="M86.365 259.158h6.067v-29.786h-6.067v29.786ZM105.454 259.158h6.068v-27.693h-6.068v27.693Z" fill="#F5F5F5"/><path d="M92.432 259.158h6.067v-27.693h-6.067v27.693Z" fill="#FAFAFA"/><path d="M98.5 259.158h3.92v-29.786H98.5v29.786Z" fill="#EBEBEB"/><path d="M102.42 259.158h3.034v-27.693h-3.034v27.693Z" fill="#FAFAFA"/><path d="M80.297 259.158h6.068v-29.786h-6.068v29.786Z" fill="#EBEBEB"/><path d="M74.23 259.158h6.067v-27.693h-6.068v27.693ZM61.207 259.158h6.068v-27.693h-6.068v27.693Z" fill="#E6E6E6"/><path d="M67.275 259.158h3.92v-29.786h-3.92v29.786Z" fill="#FAFAFA"/><path d="M71.196 259.158h3.034v-27.693h-3.034v27.693ZM58.174 259.158h3.034v-29.08h-3.034v29.08ZM64.24 269.294h-6.067v29.786h6.068v-29.786Z" fill="#EBEBEB"/><path d="M89.399 269.294H83.33v29.786H89.4v-29.786ZM70.309 271.387H64.24v27.692h6.068v-27.692Z" fill="#FAFAFA"/><path d="M83.33 271.387h-6.067v27.692h6.068v-27.692Z" fill="#EBEBEB"/><path d="M77.263 269.294h-3.92v29.786h3.92v-29.786Z" fill="#FAFAFA"/><path d="M73.342 271.387H70.31v27.692h3.033v-27.692Z" fill="#F5F5F5"/><path d="M95.466 269.294h-6.068v29.786h6.068v-29.786Z" fill="#EBEBEB"/><path d="M101.533 271.387h-6.067v27.692h6.067v-27.692Z" fill="#F5F5F5"/><path d="M114.556 271.387h-6.068v27.692h6.068v-27.692Z" fill="#E6E6E6"/><path d="M108.488 269.294h-3.921v29.786h3.921v-29.786ZM121.51 269.294h-3.921v29.786h3.921v-29.786Z" fill="#FAFAFA"/><path d="M104.567 271.387h-3.033v27.692h3.033v-27.692ZM117.589 269.999h-3.033v29.08h3.033v-29.08Z" fill="#EBEBEB"/><path d="M64.944 165.868s-1.019.469-1.484 1.416c-.466.947.978 2.697.978 2.697s1.213.844 2.417.297l1.205-.548S66 166.155 65 166.12l-.056-.252Z" fill="#E6E6E6"/><path d="M70.102 165.84c.147 1.696-.904 3.834-2.418 3.966-1.514.131-2.917-1.795-3.064-3.49-.147-1.696 1.075-1.861 2.589-1.992 1.514-.132 2.746-.179 2.893 1.516Z" fill="#E6E6E6"/><path d="M65.668 165.341s1.157.921 3.54.383c0 0-3.759 2.508-3.54-.383ZM66.688 165.004s1.334-.233 1.354.324c0 0 1.132-.063.975-.536-.157-.474-2.329.212-2.329.212Z" fill="#E6E6E6"/><path d="M65.668 165.341s1.157.921 3.54.383c0 0-3.759 2.508-3.54-.383ZM66.688 165.004s1.334-.233 1.354.324c0 0 1.132-.063.975-.536-.157-.474-2.329.212-2.329.212Z" fill="#FAFAFA" opacity=".2"/><path d="M65.144 170.342c.481.781 1.463 1.183 2.374 1.074.911-.109 1.731-.678 2.257-1.43.525-.752.776-1.671.834-2.587.015-.236.033-.829-.279-.921-.287-.084-.463.317-.596.503-.382.538-.786 1.041-1.272 1.49a8.356 8.356 0 0 1-1.55 1.13c-.156.089-1.684.879-1.768.741Z" fill="#E6E6E6"/><path d="M71.638 166.956a2.195 2.195 0 0 1-.265 2.119c-.294.391-.71.67-1.129.923-.291.176-.667.342-.952.158-.308-.2-.28-.652-.21-1.012.109-.555.233-1.107.372-1.655.114-.449.183-1.202.446-1.583.248-.359.6-.146.974.114.334.233.607.559.764.936Z" fill="#E6E6E6"/><path d="M65.53 169.402a1.556 1.556 0 0 1-1.35-.966c-.157-.403-.154-1.426.368-1.556.232.909.431 1.734.982 2.522ZM69.475 169.362a1.764 1.764 0 0 0 1.18-1.158c.093-.303-.026-1.853-.486-1.202-.15.213-.122.893-.2 1.168a5.522 5.522 0 0 1-.494 1.192ZM67.362 170.318c.427.363 1.109.381 1.554.04-.058.3-1.002.551-1.295.637-.763.224-1.161-.111-1.902-.421 0 0 1.172.179 1.643-.256Z" fill="#FAFAFA" opacity=".2"/><path d="m66.037 201.479.073-23.081 1.183-7.02.45.076-1.178 6.988-.083 23.475-.445-.438Z" fill="#E0E0E0"/><path d="m66.518 178.28-.362.278c-.362-.472-.689-1.088-1.066-1.802-.585-1.102-1.247-2.352-2.253-3.458l.338-.307c1.044 1.149 1.72 2.426 2.317 3.552.369.695.687 1.295 1.026 1.737Z" fill="#E0E0E0"/><path d="M66.796 175.185a2.67 2.67 0 0 0 1.52-1.08c.403-.599.543-1.33.673-2.04-.797.238-1.652-.149-2.478-.054a2.173 2.173 0 0 0-1.605 1.051c-.431.742-.606 1.585-.226 1.924.314.281 1.295.415 2.116.199ZM63.73 173.59a3.017 3.017 0 0 1-2.512.315c-.828-.27-1.07-1.515-1.39-2.325.751-.154 2.66-.046 3.091-.003.432.043.87.239 1.103.605.232.367.19.917-.163 1.171-.022-.016-.13.237-.13.237Z" fill="#E6E6E6"/><path d="M59.943 174.94c.506-.613 1.754-1.058 2.536-.915.781.142 1.448.68 1.728 1.32-.207.496-.76.777-1.296.815-.536.039-1.065-.12-1.579-.277-.514-.157-1.042-.316-1.579-.278l.19-.665ZM75.341 170.97s.836.747 1.002 1.789c.167 1.043-1.728 2.29-1.728 2.29s-1.407.451-2.397-.427l-.99-.877s3.02-2.811 3.985-2.551l.128-.224Z" fill="#E6E6E6"/><path d="M70.42 169.427c-.64 1.577-.264 3.93 1.144 4.501 1.409.57 3.316-.858 3.955-2.435.64-1.578-.48-2.095-1.889-2.665-1.408-.571-2.572-.978-3.21.599Z" fill="#E6E6E6"/><path d="M74.804 170.253s-1.376.541-3.496-.674c0 0 2.855 3.502 3.496.674ZM73.928 169.632s-1.207-.615-1.39-.088c0 0-1.063-.393-.774-.8.29-.406 2.164.888 2.164.888Z" fill="#E6E6E6"/><path d="M74.804 170.253s-1.376.541-3.496-.674c0 0 2.855 3.502 3.496.674ZM73.928 169.632s-1.207-.615-1.39-.088c0 0-1.063-.393-.774-.8.29-.406 2.164.888 2.164.888Z" fill="#FAFAFA" opacity=".2"/><path d="M73.835 175.187c-.69.605-1.746.7-2.585.328-.839-.372-1.455-1.157-1.737-2.03-.28-.873-.25-1.826-.036-2.718.055-.231.212-.803.537-.798.299.004.35.438.422.656.207.626.445 1.226.778 1.798.323.553.709 1.07 1.149 1.536.123.13 1.35 1.335 1.472 1.228Z" fill="#E6E6E6"/><path d="M68.624 170.042a2.195 2.195 0 0 0-.37 2.103c.165.46.481.849.807 1.214.227.253.537.523.864.43.353-.1.46-.54.498-.906.06-.562.103-1.125.131-1.69.023-.463.179-1.202.039-1.644-.132-.416-.53-.316-.964-.177a2.162 2.162 0 0 0-1.005.67Z" fill="#E6E6E6"/><path d="M73.742 174.175a1.555 1.555 0 0 0 1.575-.526c.268-.339.566-1.317.105-1.595-.488.801-.922 1.53-1.68 2.121ZM69.983 172.977a1.762 1.762 0 0 1-.787-1.453c0-.317.57-1.764.817-1.006.081.247-.145.889-.151 1.175-.01.431.03.863.121 1.284ZM71.722 174.513a1.277 1.277 0 0 1-1.497-.418c-.033.303.796.82 1.05.989.664.438 1.143.235 1.942.157 0 0-1.173-.174-1.495-.728Z" fill="#FAFAFA" opacity=".2"/><path d="m65.382 198.032.286-.945.389-1.274.449-1.487 3.589-11.816.448-3.392.398-3.009.083-.624.223.029.003.003.227.029-.007.054-.08.589-.423 3.216-.347 2.621-.077.576-.028.092-4.012 13.199-.452 1.48-.207.688-.287.94-.175-.969Z" fill="#E0E0E0"/><path d="m70.188 182.371.264.372c.485-.345.978-.838 1.549-1.408.882-.882 1.883-1.882 3.17-2.644l-.233-.392c-1.336.79-2.358 1.812-3.26 2.713-.556.556-1.037 1.037-1.49 1.359Z" fill="#E0E0E0"/><path d="M70.831 179.329a2.67 2.67 0 0 1-1.135-1.478c-.208-.691-.127-1.431-.043-2.148.691.462 1.623.344 2.384.677.608.266 1.076.83 1.225 1.476.194.836.114 1.693-.35 1.906-.382.176-1.359.016-2.08-.433ZM74.232 178.708a3.019 3.019 0 0 0 2.307 1.039c.871-.014 1.468-1.133 2.013-1.813-.673-.369-2.529-.826-2.954-.912-.426-.086-.902-.028-1.232.254-.33.282-.45.82-.189 1.167.026-.009.055.265.055.265Z" fill="#E6E6E6"/><path d="M77.454 181.11c-.303-.734-1.365-1.526-2.154-1.62-.79-.094-1.585.225-2.04.754.051.535.498.965.999 1.16.5.194 1.053.198 1.59.199.538.001 1.09.005 1.59.199l.016-.692ZM59.138 170.049s-.917.644-1.205 1.66c-.288 1.015 1.447 2.476 1.447 2.476s1.344.613 2.43-.142l1.087-.755s-2.668-3.146-3.658-3.002l-.101-.237Z" fill="#E6E6E6"/><path d="M64.207 169.094c.45 1.642-.2 3.934-1.666 4.336-1.465.401-3.192-1.242-3.641-2.883-.45-1.642.723-2.024 2.189-2.425 1.465-.401 2.669-.669 3.118.972Z" fill="#E6E6E6"/><path d="M59.755 169.4s1.304.698 3.552-.259c0 0-3.248 3.142-3.552.259ZM60.699 168.885s1.27-.468 1.39.076c0 0 1.102-.265.863-.703-.24-.438-2.253.627-2.253.627Z" fill="#E6E6E6"/><path d="M59.755 169.4s1.304.698 3.552-.259c0 0-3.248 3.142-3.552.259ZM60.699 168.885s1.27-.468 1.39.076c0 0 1.102-.265.863-.703-.24-.438-2.253.627-2.253.627Z" fill="#FAFAFA" opacity=".2"/><path d="M60.138 174.413c.614.682 1.653.901 2.53.63.876-.271 1.58-.978 1.962-1.812.382-.834.463-1.783.356-2.694-.028-.236-.116-.823-.44-.857-.297-.031-.399.395-.496.602-.279.598-.586 1.166-.984 1.694-.385.512-.83.98-1.321 1.391-.138.115-1.499 1.167-1.607 1.046Z" fill="#E6E6E6"/><path d="M65.919 169.916c.405.625.452 1.465.12 2.132-.219.437-.578.786-.945 1.11-.255.225-.594.457-.908.326-.34-.14-.393-.591-.388-.958a31.2 31.2 0 0 1 .068-1.694c.032-.462-.036-1.215.155-1.637.18-.398.563-.252.978-.063.371.169.697.441.92.784Z" fill="#E6E6E6"/><path d="M60.35 173.42c-.58.08-1.195-.21-1.502-.708-.227-.369-.408-1.375.083-1.597.39.853.735 1.629 1.419 2.305ZM64.223 172.671c.515-.255.886-.78.953-1.351.036-.315-.358-1.818-.694-1.095-.11.236.04.9.013 1.185a5.532 5.532 0 0 1-.272 1.261ZM62.316 173.993c.485.28 1.16.175 1.537-.24-.004.305-.888.721-1.16.858-.71.358-1.163.1-1.946-.071 0 0 1.184-.035 1.57-.547Z" fill="#FAFAFA" opacity=".2"/><path d="m66.612 204.883-4.076-22.719-.096-7.118.455-.006.097 7.086 4.136 23.109-.516-.352Z" fill="#E0E0E0"/><path d="m62.917 181.976-.306.339c-.442-.4-.873-.947-1.373-1.581-.773-.98-1.649-2.09-2.837-2.998l.277-.362c1.233.942 2.128 2.077 2.918 3.078.487.617.908 1.151 1.32 1.524Z" fill="#E0E0E0"/><path d="M62.635 178.881a2.672 2.672 0 0 0 1.3-1.336c.289-.661.295-1.406.296-2.127-.74.377-1.652.15-2.448.392a2.174 2.174 0 0 0-1.39 1.322c-.29.808-.311 1.668.124 1.934.359.219 1.348.175 2.117-.185ZM59.331 177.864c-.64.59-1.55.877-2.414.76-.863-.116-1.324-1.298-1.785-2.037.711-.287 2.608-.523 3.04-.558.433-.036.9.078 1.194.397.295.319.351.867.05 1.18-.025-.011-.085.258-.085.258Z" fill="#E6E6E6"/><path d="M55.848 179.87c.388-.693 1.536-1.355 2.33-1.355.795-.001 1.548.409 1.938.988-.114.525-.608.9-1.129 1.035-.52.134-1.069.073-1.602.011-.534-.062-1.083-.124-1.603.01l.066-.689Z" fill="#E6E6E6"/><path d="M68.284 190.945H63.5a.804.804 0 0 0-.786.565c-.392 1.241-1.229 4.504-1.229 9.644 0 5.647 1.473 13.144 1.936 15.358a.809.809 0 0 0 .785.644h3.33a.809.809 0 0 0 .786-.644c.463-2.214 1.936-9.711 1.936-15.358 0-5.14-.837-8.403-1.23-9.644a.807.807 0 0 0-.745-.565Z" fill="#F0F0F0"/><path d="M200 348.851c85.666 0 155.111-4.056 155.111-9.059 0-5.003-69.445-9.059-155.111-9.059s-155.111 4.056-155.111 9.059c0 5.003 69.445 9.059 155.111 9.059Z" fill="#F5F5F5"/><path d="M96.626 308.655a.51.51 0 0 1-.477-.523c.592-23.512 1.805-62.081 1.868-62.293a.517.517 0 0 1 .635-.344c.27.081.424.365.345.636-.015.051-1.24 38.755-1.826 62.027a.513.513 0 0 1-.524.499l-.021-.002Z" fill="#263238"/><path d="M93.466 230.142c.197 1.811 2.365 8.09 4.176 7.893 1.81-.197 2.579-6.795 2.382-8.606a3.299 3.299 0 0 0-6.558.713ZM102.255 249.946c-.197-1.811-2.364-8.089-4.175-7.892-1.811.197-2.58 6.795-2.382 8.606a3.298 3.298 0 0 0 6.557-.714ZM87.959 244.438c1.811-.196 8.089-2.364 7.892-4.176-.197-1.81-6.794-2.578-8.605-2.381a3.298 3.298 0 1 0 .713 6.557ZM107.762 235.649c-1.811.197-8.088 2.365-7.892 4.176.198 1.811 6.795 2.579 8.606 2.382a3.298 3.298 0 1 0-.714-6.558Z" fill="#72BFAC"/><path d="M87.751 236.15c1.42 1.142 7.393 4.048 8.534 2.628 1.142-1.42-2.98-6.628-4.4-7.769a3.299 3.299 0 0 0-4.134 5.141ZM107.97 243.939c-1.42-1.142-7.392-4.048-8.534-2.628-1.14 1.42 2.981 6.628 4.401 7.769a3.298 3.298 0 1 0 4.133-5.141ZM93.967 250.153c1.14-1.42 4.047-7.392 2.627-8.533-1.42-1.141-6.627 2.981-7.77 4.401a3.298 3.298 0 1 0 5.143 4.132ZM101.755 229.935c-1.141 1.42-4.048 7.392-2.628 8.534 1.42 1.141 6.628-2.981 7.769-4.401a3.297 3.297 0 0 0-.504-4.637 3.297 3.297 0 0 0-4.637.504Z" fill="#72BFAC"/><g opacity=".6" fill="#fff"><path d="M93.466 230.142c.197 1.811 2.365 8.09 4.176 7.893 1.81-.197 2.579-6.795 2.382-8.606a3.299 3.299 0 0 0-6.558.713ZM102.255 249.946c-.197-1.811-2.364-8.089-4.175-7.892-1.811.197-2.58 6.795-2.382 8.606a3.298 3.298 0 0 0 6.557-.714ZM87.959 244.438c1.811-.196 8.089-2.364 7.892-4.176-.197-1.81-6.794-2.578-8.605-2.381a3.298 3.298 0 1 0 .713 6.557ZM107.762 235.649c-1.811.197-8.088 2.365-7.892 4.176.198 1.811 6.795 2.579 8.606 2.382a3.298 3.298 0 1 0-.714-6.558Z"/><path d="M87.751 236.15c1.42 1.142 7.393 4.048 8.534 2.628 1.142-1.42-2.98-6.628-4.4-7.769a3.299 3.299 0 0 0-4.134 5.141ZM107.97 243.939c-1.42-1.142-7.392-4.048-8.534-2.628-1.14 1.42 2.981 6.628 4.401 7.769a3.298 3.298 0 1 0 4.133-5.141ZM93.967 250.153c1.14-1.42 4.047-7.392 2.627-8.533-1.42-1.141-6.627 2.981-7.77 4.401a3.298 3.298 0 1 0 5.143 4.132ZM101.755 229.935c-1.141 1.42-4.048 7.392-2.628 8.534 1.42 1.141 6.628-2.981 7.769-4.401a3.297 3.297 0 0 0-.504-4.637 3.297 3.297 0 0 0-4.637.504Z"/></g><path d="M93.977 240.466a3.906 3.906 0 1 0 7.767-.844 3.906 3.906 0 0 0-7.767.844Z" fill="#72BFAC"/><path d="M94.362 291.428c-4.507.099-12.22-4.065-15.254-8.129-3.08-4.123 5.556-1.585 4.66-4.827-.895-3.243-11.526-.813-13.502-5.456-1.977-4.642 5.7-3.596 5.39-5.971-.312-2.375-8.262-1.869-10.83-6.802-2.566-4.933 4.436-2.186 3.332-4.231-1.104-2.044-9.895-10.637-6.232-12.445 3.663-1.807 11.908 7.145 14.664 8.139 2.756.994 3.382-5.208 6.973-2.253 3.592 2.956.948 15.925 5.17 17.623 3.146 1.264 1.792-4.666 5.413-3.179 6.338 2.603 2.046 27.49.216 27.531Z" fill="#ADD9CE"/><path d="M94.362 291.428c-4.507.099-12.22-4.065-15.254-8.129-3.08-4.123 5.556-1.585 4.66-4.827-.895-3.243-11.526-.813-13.502-5.456-1.977-4.642 5.7-3.596 5.39-5.971-.312-2.375-8.262-1.869-10.83-6.802-2.566-4.933 4.436-2.186 3.332-4.231-1.104-2.044-9.895-10.637-6.232-12.445 3.663-1.807 11.908 7.145 14.664 8.139 2.756.994 3.382-5.208 6.973-2.253 3.592 2.956.948 15.925 5.17 17.623 3.146 1.264 1.792-4.666 5.413-3.179 6.338 2.603 2.046 27.49.216 27.531Z" fill="#fff" opacity=".2"/><path d="M100.839 285.709c.075.126-.599.765 1.626.857 5.48.226 15.172-.144 18.811-5.127 5.195-7.115-6.788-6.461-5.623-10.385 1.165-3.923 14.039-.719 16.552-6.32s-6.85-4.508-6.416-7.389c.434-2.882 10.258.852 13.496-5.089 3.238-5.94-5.344-2.762-3.953-5.223 1.39-2.461 12.285-12.708 7.871-14.993-4.414-2.283-14.651 8.413-18.027 9.558-3.376 1.144-4.157-9.347-8.595-5.836-4.437 3.511-1.525 19.348-6.701 21.315-3.855 1.464-1.752-4.212-6.509-3.994-6.462.297-8.587 22.503-2.532 32.626Z" fill="#6FDAC0"/><path d="M100.839 285.709c.075.126-.599.765 1.626.857 5.48.226 15.172-.144 18.811-5.127 5.195-7.115-6.788-6.461-5.623-10.385 1.165-3.923 14.039-.719 16.552-6.32s-6.85-4.508-6.416-7.389c.434-2.882 10.258.852 13.496-5.089 3.238-5.94-5.344-2.762-3.953-5.223 1.39-2.461 12.285-12.708 7.871-14.993-4.414-2.283-14.651 8.413-18.027 9.558-3.376 1.144-4.157-9.347-8.595-5.836-4.437 3.511-1.525 19.348-6.701 21.315-3.855 1.464-1.752-4.212-6.509-3.994-6.462.297-8.587 22.503-2.532 32.626Z" fill="#fff" opacity=".3"/><path d="m96.732 305.103-.03-.003a.355.355 0 0 1-.31-.396c4.499-36.813 25.704-51.776 25.917-51.923a.356.356 0 1 1 .404.587c-.211.146-21.156 14.947-25.613 51.422a.357.357 0 0 1-.368.313Z" fill="#263238"/><path d="M117.484 257.896a.356.356 0 0 1-.096-.695c.132-.043 3.289-1.042 8.463.057a.356.356 0 1 1-.148.697c-4.972-1.054-8.065-.085-8.095-.076a.332.332 0 0 1-.124.017ZM113.564 262.367a.354.354 0 0 1-.341-.352c-.11-11.134 6.335-19.832 6.4-19.919a.356.356 0 1 1 .57.429c-.064.084-6.365 8.599-6.258 19.483a.355.355 0 0 1-.352.359h-.019ZM107.249 271.79a.356.356 0 0 1-.23-.615c.048-.045 4.819-4.456 11.067-2.217a.357.357 0 0 1-.241.671c-5.841-2.095-10.293 2.023-10.337 2.065a.354.354 0 0 1-.259.096ZM103.948 278.364a.357.357 0 0 1-.313-.216c-.1-.234-2.437-5.832-1.149-13.807a.35.35 0 0 1 .409-.295.355.355 0 0 1 .294.409c-1.252 7.76 1.078 13.358 1.101 13.413a.356.356 0 0 1-.342.496ZM96.875 318.252a.356.356 0 0 1-.34-.344l-.463-9.751c-1.365-32.42-23.603-54.47-23.827-54.689a.356.356 0 0 1 .497-.511c.227.221 22.665 22.46 24.042 55.174l.462 9.754a.357.357 0 0 1-.345.368l-.026-.001Z" fill="#263238"/><path d="M81.416 265.648a.41.41 0 0 1-.162-.047l-.115-.047c-2.911-1.209-6.164-1.837-9.158-1.771a.35.35 0 0 1-.364-.349.357.357 0 0 1 .348-.364c3.092-.066 6.447.579 9.448 1.826l.118.049a.346.346 0 0 1 .061.029.356.356 0 0 1-.175.674ZM84.561 269.823l-.017-.002a.356.356 0 0 1-.323-.386c.86-9.569-4.095-17.442-4.145-17.521a.356.356 0 0 1 .6-.384c.051.08 5.138 8.15 4.254 17.968a.357.357 0 0 1-.369.325ZM87.806 275.366a.36.36 0 0 1-.238-.105c-.036-.037-3.647-3.601-8.932-2.193a.356.356 0 1 1-.184-.689c5.697-1.52 9.466 2.221 9.623 2.381a.356.356 0 0 1-.269.606ZM91.926 284.501a.357.357 0 0 1-.301-.521c.024-.047 2.472-4.831 1.913-11.732a.355.355 0 0 1 .327-.383.35.35 0 0 1 .384.326c.576 7.117-1.888 11.919-1.993 12.12a.355.355 0 0 1-.33.19Z" fill="#263238"/><path d="M116.925 319.788c0 11.371-5.114 20.594-20.603 20.594-14.783 0-20.603-9.223-20.603-20.594 0-4.289 1.317-8.279 3.56-11.577h34.086a20.531 20.531 0 0 1 3.56 11.577Z" fill="#4ACDAD"/><path opacity=".7" d="M116.925 319.788c0 11.371-5.114 20.594-20.603 20.594-14.783 0-20.603-9.223-20.603-20.594 0-4.289 1.317-8.279 3.56-11.577h34.086a20.531 20.531 0 0 1 3.56 11.577Z" fill="#fff"/><path d="m239.756 357.742 9.779-1.428-2.47-22.876-9.779 1.427 2.47 22.877Z" fill="#FFDED4"/><path d="M257.053 356.657a3.755 3.755 0 0 0 2.278-.99c.266-.337.351-.783.225-1.194a.755.755 0 0 0-.49-.554c-1.307-.466-4.883 2.17-5.283 2.466a.257.257 0 0 0-.087.261.233.233 0 0 0 .219.154 17.06 17.06 0 0 0 3.138-.143Zm1.376-2.294a.844.844 0 0 1 .446.013c.102.032.18.118.202.223a.89.89 0 0 1-.145.79c-.503.626-2.1.979-4.326.979a12.842 12.842 0 0 1 3.853-2.019l-.03.014Z" fill="#21B07D"/><path d="m253.97 356.812.08-.038c1.086-.714 3.042-3.205 2.674-4.281-.112-.241-.317-.549-.973-.512a1.674 1.674 0 0 0-1.235.576c-1.059 1.216-.849 3.894-.847 4.004a.253.253 0 0 0 .099.21.232.232 0 0 0 .202.041Zm1.644-4.339.13-.061c.432-.018.483.142.496.196.23.651-1.066 2.565-2.146 3.448a5.317 5.317 0 0 1 .747-3.222c.209-.219.492-.351.793-.371l-.02.01Z" fill="#21B07D"/><path d="m248.535 352.265-8.672 2.067a.776.776 0 0 0-.615.84l.28 12.548a1.607 1.607 0 0 0 1.992 1.338c3.756-.936 5.529-1.574 10.306-2.675 2.927-.674 12.202-1.373 16-3.065 3.799-1.691 2.32-5.543.586-5.179-5.573 1.199-12.732-1.187-16.8-4.818-.551-.27-2.482-1.21-3.077-1.056Z" fill="#263238"/><path opacity=".2" d="m247.065 333.438 1.273 11.792-9.777 1.438-1.284-11.79 9.788-1.44Z" fill="#000"/><path d="m252.289 340.377-18.093 3.378s-8.786-12.544-10.444-21.451c-1.726-9.274.118-40.85 0-41.269-5.118-17.277-19.022-62.049-25.737-78.523a1240.487 1240.487 0 0 0-6.327-15.277l1.88-.422 14.768-6.05 10.762 2.029s32.707 66.134 36.135 91.013c2.559 18.574-2.944 66.572-2.944 66.572Z" fill="#6BD8BD"/><path opacity=".3" d="m252.289 340.377-18.093 3.378s-8.786-12.544-10.444-21.451c-1.726-9.274.118-40.85 0-41.269-5.118-17.277-19.022-62.049-25.737-78.523a1240.487 1240.487 0 0 0-6.327-15.277l1.88-.422 14.768-6.05 10.762 2.029s32.707 66.134 36.135 91.013c2.559 18.574-2.944 66.572-2.944 66.572Z" fill="#fff"/><path opacity=".2" d="M219.489 266.071c-5.117-17.276-15.44-43.485-22.155-59.959l-4.448-15.699-.856-3.02 1.558 2.852 17.528 38.825c7.734 14.868 8.492 37.42 8.373 37.001Z" fill="#000" fill-opacity=".28"/><path d="m140.078 352.355 8.715 3.671 9.301-19.957-8.715-3.672-9.301 19.958Z" fill="#FFDED4"/><path d="M154.471 360.204a3.597 3.597 0 0 0 2.318.523c.397-.109.714-.406.849-.794a.72.72 0 0 0-.066-.705c-.745-1.099-4.996-1.085-5.472-1.082a.243.243 0 0 0-.214.152.221.221 0 0 0 .081.243c.782.63 1.621 1.186 2.504 1.663Zm2.359-.993a.8.8 0 0 1 .337.261.287.287 0 0 1 .03.287.851.851 0 0 1-.559.528c-.741.199-2.174-.43-3.893-1.689 1.397-.03 2.789.18 4.116.619l-.031-.006Z" fill="#21B07D"/><path d="m152.002 358.581.083.016c1.242.062 4.161-.756 4.485-1.794.049-.25.065-.604-.462-.946a1.598 1.598 0 0 0-1.28-.252c-1.505.34-2.856 2.527-2.916 2.612a.243.243 0 0 0-.043.219c.019.066.068.12.133.145Zm3.722-2.421.135.027c.344.23.292.382.272.432-.19.632-2.273 1.377-3.606 1.449a5.097 5.097 0 0 1 2.398-2.067c.285-.05.578.008.822.163l-.021-.004Z" fill="#21B07D"/><path d="m150.377 351.998-7.864-3.306a.744.744 0 0 0-.95.301l-6.876 9.847a1.538 1.538 0 0 0 .782 2.159c3.429 1.4 5.158 1.91 9.469 3.76 2.641 1.134 10.198 5.836 14.087 6.677 3.889.841 4.923-2.969 3.38-3.668-4.981-2.224-9.161-8.113-10.249-13.215-.273-.521-1.232-2.337-1.779-2.555Z" fill="#263238"/><path opacity=".2" d="m158.476 336.305-5.043 10.167-8.627-3.872 5.033-10.171 8.637 3.876Z" fill="#000"/><path d="m160.29 347.385-17.358-9.253s-3.328-12.358 0-20.241c6.405-15.17 23.069-37.475 23.182-37.895 4.446-17.462 12.246-65.281 14.91-82.871 1.479-9.747 2.348-11.85 2.348-11.85l1.831.6 26.56.053s5.011 40.221-14.192 102.494c-4.778 15.494-12.783 28.377-25.954 45.805-5 6.617-11.327 13.158-11.327 13.158Z" fill="#90EAD4"/><path opacity=".3" d="m160.29 347.385-17.358-9.253s-3.328-12.358 0-20.241c6.405-15.17 23.069-37.475 23.182-37.895 4.446-17.462 12.246-65.281 14.91-82.871 1.479-9.747 2.348-11.85 2.348-11.85l1.831.6 26.56.053s5.011 40.221-14.192 102.494c-4.778 15.494-12.783 28.377-25.954 45.805-5 6.617-11.327 13.158-11.327 13.158Z" fill="#fff"/><path d="M235.293 153.064c.194-2.983 2.172-6.825 3.879-8.6.547-.568 2.618-1.431 3.791-2.195 5.768-3.784 17.31-8.503 17.31-8.503l3.561 3.105s-7.03 6.796-11.213 10.055c-.822.64-1.774 1.417-2.777 2.239-1.818 1.518-10.382 7.166-12.017 8.582l-2.534-4.683Z" fill="#FEDDD4"/><path d="m270.427 132.009-6.587 4.868-3.696-2.722s1.508-1.921 3.058-3.41a3.489 3.489 0 0 0 1.056-2.497c.013-1.451.231-3.135 1.02-4.37.019-.029.029-.058.048-.077 1.428-2.152 4.767-1.506 5.443.984l.951 3.512a3.483 3.483 0 0 1-1.293 3.712Z" fill="#FEDDD4"/><path d="m237.401 154.38-1.737 1.592c-.54-.434-1.399-1.129-2.48-2.026-8.463-7.026-29.679-24.068-21.221-28.932 7.249-4.169 14.948 8.589 18.789 12.42.782.791 2.924 3.262 4.652 6.36 1.804 3.252 3.146 7.189 1.997 10.586Z" fill="#263238"/><path d="M235.399 142.27a28.394 28.394 0 0 0-7.497 8.169c1.391 4.611 4.895 8.623 9.314 10.54 2.421-5.619 3.549-11.66 3.069-17.759-1.532-.33-3.354-.62-4.886-.95Z" fill="#1AAB89"/><path d="M188.809 124.022c-3.028.973-6.494.194-8.437 2.711-1.943 2.517-2.527 5.839-2.524 9.019.004 4.423 1.016 8.775 2.021 13.082l3.658 15.665c.834 3.57-.043 20.168.846 20.446 0 0 27.754-.544 34.712-1.519 0 0 .605-17.062 1.163-22.873.124-1.29 2.081-6.764 2.311-8.139 1.084-6.482-1.04-11.053-3.285-17.23 0 0-4.915-9.895-7.314-10.166-4.269-.482-14.715-3.707-23.151-.996Z" fill="#22AA8A"/><path d="M187.64 132.21c-.098-.576-5.023-10.527-9.744-3.571-6.571 9.68-7.014 21.835-7.014 21.835s-4.039 11.818-1.225 14.399c2.814 2.581 5.849 4.242 7.815 2.779 1.965-1.464 3.241-4.388 3.241-4.388s8.653-20.927 6.927-31.054Z" fill="#189F7F"/><path d="M187.323 120.333c-2.072 1.616-1.8 5.364.486 6.663-.574 2.007.097 4.316 1.658 5.702 1.561 1.386 3.933 1.779 5.858.972-.832 1.491.105 3.46 1.542 4.382 1.437.923 3.211 1.091 4.903 1.318 1.692.228 3.481.591 4.708 1.777l5.248-7.55c.681-.98 1.388-2.031 1.441-3.224.053-1.192-.854-2.507-2.044-2.42 1.21-1.261 1.235-3.473.053-4.761-1.182-1.288-3.388-1.453-4.749-.355.244-1.009-.347-2.08-1.198-2.673-.852-.593-1.913-.795-2.946-.896l-14.96 1.065Z" fill="#263238"/><path d="M190.472 107.519c1.365 5.01 3.022 14.247-.291 17.898 0 0 9.374 3.754 16.036 11.286 3.1-3.013 2.779-6.397 1.829-8.871-.736-1.918-2.318-3.341-4.209-4.145-3.648-1.55-3.68-5.142-3.072-8.585l-10.293-7.583Z" fill="#E8BFBF"/><path opacity=".2" d="m192.514 116.05 3.448.935c1.476.401 3.019.493 4.533.27-.014.742-.147 2.319.32 3.151-1.979.955-5.328.299-6.808-1.445-.613-.681-1.158-2.058-1.493-2.911Z" fill="#000"/><path d="M183.781 103.253c3.649 7.701 5.029 11.036 10.647 13.488 8.464 3.705 17.099-2.48 15.82-11.116-1.15-7.767-6.928-19.058-15.91-19.098-6.419-.063-11.674 5.089-11.737 11.508a11.616 11.616 0 0 0 1.18 5.218Z" fill="#FFDED4"/><path d="M187.791 88.546c-2.659-1.241-5.964-.229-8.177 1.719-2.253 1.982-3.625 4.755-4.94 7.452-.715 1.466-1.436 2.951-1.767 4.548-.331 1.597-.235 3.344.608 4.74.827 1.369 2.367 2.268 3.958 2.36.916.053 1.987.715 2.283 1.582.275.806.144 1.679.015 2.517-.124.811-.243 1.657.012 2.436.423 1.297 1.81 2.083 3.167 2.215 1.357.132 2.705-.262 4.012-.65.829-.247 1.662-.104 2.306.473.161.144.293.317.393.507.406.773 1.583.651 1.922-.154 1.188-2.823-.541-7.336-3.117-10.78-1.366-1.828-1.292-1.362-1.829-3.58-.447-1.846.229-3.772 1.057-5.482 1.103-2.28 2.521-4.506 2.083-7.228-.185-1.151-.929-2.181-1.986-2.675Z" fill="#263238"/><path d="M184.012 111.132a6.678 6.678 0 0 0 4.65 2.1c2.344.05 2.939-2.186 1.807-4.093-1.022-1.721-3.472-3.812-5.595-2.981-2.123.831-2.338 3.368-.862 4.974Z" fill="#FFDED4"/><path d="M198.456 101.883c.271.674.807 1.031 1.231.857.424-.173.529-.814.294-1.468-.236-.654-.806-1.024-1.232-.857-.425.166-.547.827-.293 1.468ZM205.641 98.79c.264.677.807 1.031 1.224.86.417-.172.529-.814.294-1.469-.236-.653-.806-1.023-1.224-.859-.419.165-.555.829-.294 1.468Z" fill="#263238"/><path d="m205.75 97.438 1.364-1.068s-.294 1.52-1.364 1.068Z" fill="#263238"/><path d="M203.775 100.232c1.669 1.647 2.924 1.949 4.731 3.079-.053 1.604-1.562 1.973-1.562 1.973l-3.169-5.052Z" fill="#ED847E"/><path d="M206.182 108.428c.311-.117.613-.26.901-.426a.193.193 0 0 0 .079-.262l-.005-.009a.213.213 0 0 0-.273-.084 5.47 5.47 0 0 1-4.985.263.206.206 0 1 0-.193.364 5.798 5.798 0 0 0 4.476.154ZM198.188 96.538a.429.429 0 0 1-.314.39c-1.884.558-2.719 2.948-2.723 2.967a.424.424 0 0 1-.804-.27c.073-.09.984-2.83 3.28-3.516a.428.428 0 0 1 .526.286.335.335 0 0 1 .035.143ZM206.875 95.382a.429.429 0 0 1-.499-.036c-1.533-1.23-3.972-.554-3.991-.547a.423.423 0 1 1-.237-.813c.116.008 2.888-.805 4.759.69.18.148.209.413.065.596a.33.33 0 0 1-.097.11ZM198.578 100.528l1.366-1.061s-.31 1.517-1.366 1.061Z" fill="#263238"/><path d="M188.376 87.26c-2.144.172-4.179 1.392-5.342 3.202-.78 1.214-1.055 3.06.099 3.927.54.406 1.252.479 1.925.538 2.988.262 6.672-2.046 6.672-2.046-1.152-4.88 9.085-8.655 14.131-1.097 1.483 2.22 1.082 3.834 3.547 4.86 1.16.483 2.69.35 3.433 1.363 1.233 1.682-1.137 4.531.368 5.974 1.031.988 3.365.611 3.509 2.031.067.667-.37 1.633.272 1.828.356.108.683-.217.912-.509.555-.704 1.126-1.442 1.317-2.318.191-.876-.122-1.932-.938-2.303-.627-.286-2.285.033-2.173.713.135.817-.567-3.196-.252-4.713.274-1.32 1.535-2.465 1.153-3.759-.408-1.38-2.048-1.93-3.471-2.142-1.424-.211-3.039-.384-3.914-1.526-.977-1.277-.532-3.1-.846-4.677-.399-2.005-2.072-3.566-3.947-4.38-5.691-2.467-14.495-2.117-16.455 5.034Z" fill="#263238"/><path d="m204.545 113.457-19.63 9.861a13.972 13.972 0 0 0-6.737 17.591l9.467 24.145c2.637 6.724 9.963 10.338 16.903 8.336l21.11-6.087c7.911-2.281 12.146-10.866 9.14-18.531l-10.947-27.919c-3.005-7.664-11.95-11.092-19.306-7.396Zm-3.245 41.466a8.518 8.518 0 0 1-11.033-4.822 8.504 8.504 0 0 1 4.819-11.025 8.516 8.516 0 0 1 11.032 4.82 8.506 8.506 0 0 1-4.818 11.027Z" fill="#16D3A7"/><path d="m204.545 113.457-19.63 9.861a13.972 13.972 0 0 0-6.737 17.591l9.467 24.145c2.637 6.724 9.963 10.338 16.903 8.336l21.11-6.087c7.911-2.281 12.146-10.866 9.14-18.531l-10.947-27.919c-3.005-7.664-11.95-11.092-19.306-7.396Zm-3.245 41.466a8.518 8.518 0 0 1-11.033-4.822 8.504 8.504 0 0 1 4.819-11.025 8.516 8.516 0 0 1 11.032 4.82 8.506 8.506 0 0 1-4.818 11.027Z" fill="#16D3A7"/><path opacity=".1" d="m234.801 148.775-10.953-27.918c-3.001-7.672-11.947-11.098-19.3-7.402l-5.704 2.866-3.831 1.921-10.094 5.076c-6.456 3.242-9.38 10.866-6.746 17.592l9.467 24.145c2.644 6.726 9.969 10.336 16.908 8.338l21.115-6.089a13.914 13.914 0 0 0 4.622-2.336 13.56 13.56 0 0 0 2.712-2.75c2.769-3.725 3.638-8.753 1.804-13.443Zm-33.505 6.147c-4.372 1.718-9.313-.444-11.031-4.825-1.718-4.371.444-9.312 4.826-11.02 4.371-1.718 9.312.444 11.03 4.815a8.515 8.515 0 0 1-4.825 11.03Z" fill="#fff"/><path d="m204.748 115.294-18.411 9.249a13.105 13.105 0 0 0-6.318 16.498l8.879 22.644c2.473 6.307 9.344 9.696 15.853 7.82l19.799-5.711c7.419-2.139 11.391-10.191 8.572-17.379l-10.267-26.185c-2.818-7.187-11.208-10.403-18.107-6.936Zm-14.481 34.807a8.504 8.504 0 0 1 4.819-11.025 8.516 8.516 0 0 1 11.032 4.821 8.505 8.505 0 0 1-4.818 11.026 8.518 8.518 0 0 1-11.033-4.822Z" fill="#16D3A7"/><path opacity=".1" d="m204.748 115.294-18.411 9.249a13.105 13.105 0 0 0-6.318 16.498l8.879 22.644c2.473 6.307 9.344 9.696 15.853 7.82l19.799-5.711c7.419-2.139 11.391-10.191 8.572-17.379l-10.267-26.185c-2.818-7.187-11.208-10.403-18.107-6.936Zm-14.481 34.807a8.504 8.504 0 0 1 4.819-11.025 8.516 8.516 0 0 1 11.032 4.821 8.505 8.505 0 0 1-4.818 11.026 8.518 8.518 0 0 1-11.033-4.822Z" fill="#32B193"/><path d="m296.226 106.562-.563 1.028-.312.57-.888 1.623.372 4.154c.016.178-.005.353-.057.515-.119.36-.392.659-.76.803l-7.76 3.038a1.288 1.288 0 0 1-1.1-.075 1.266 1.266 0 0 1-.295-.223l-4.386-4.46-.012-.013-6.238 2.442.904 2.306-6.238 2.441 1.489 3.797-4.594 1.798a1.382 1.382 0 0 1-1.457-.283l-2.646-2.49-6.239 2.442 1.489 3.797-6.559 2.567 1.495 3.812a1.21 1.21 0 0 1-.686 1.569l-17.963 7.032-7.795-19.879 64.979-25.437 1.016.522 3.295 1.691a3.587 3.587 0 0 1 1.509 4.913Z" fill="#16D3A7"/><path d="m296.226 106.562-.563 1.028-.312.57-.888 1.623.372 4.154c.016.178-.005.353-.057.515-.119.36-.392.659-.76.803l-7.76 3.038a1.288 1.288 0 0 1-1.1-.075 1.266 1.266 0 0 1-.295-.223l-4.386-4.46-.012-.013-6.238 2.442.904 2.306-6.238 2.441 1.489 3.797-4.594 1.798a1.382 1.382 0 0 1-1.457-.283l-2.646-2.49-6.239 2.442 1.489 3.797-6.559 2.567 1.495 3.812a1.21 1.21 0 0 1-.686 1.569l-17.963 7.032-7.795-19.879 64.979-25.437 1.016.522 3.295 1.691a3.587 3.587 0 0 1 1.509 4.913Z" fill="#fff" opacity=".1"/><path d="m295.971 104.299-69.472 27.195-2.024-5.102 66.237-25.929 3.295 1.691c1.254.644 1.975 1.242 1.964 2.145Z" fill="#16D3A7"/><path opacity=".1" d="m295.971 104.299-69.472 27.195-2.024-5.102 66.237-25.929 3.295 1.691c1.254.644 1.975 1.242 1.964 2.145Z" fill="#000"/><path d="m294.598 108.129-.672 1.51a.165.165 0 0 0-.013.079l.376 4.112c.014.151.002.299-.034.44a.154.154 0 0 1-.095.104l-8.436 3.321a.157.157 0 0 1-.14-.011 1.271 1.271 0 0 1-.228-.183l-4.825-4.849a.156.156 0 0 0-.17-.035l-6.849 2.695a.159.159 0 0 0-.089.206l.815 2.066a.158.158 0 0 1-.09.205l-5.84 2.299a.158.158 0 0 0-.09.205l1.407 3.569a.158.158 0 0 1-.089.205l-4.285 1.687a.157.157 0 0 1-.134-.008 1.384 1.384 0 0 1-.253-.188l-3.132-2.887a.157.157 0 0 0-.165-.03l-6.804 2.678a.157.157 0 0 0-.089.205l1.441 3.656a.158.158 0 0 1-.089.205l-26.123 10.28a.16.16 0 0 1-.206-.089l-2.607-6.543a.159.159 0 0 1 .089-.206l68.073-26.792a.158.158 0 0 1 .202.213l-.856 1.881Z" fill="#16D3A7"/><path opacity=".1" d="m294.598 108.129-.672 1.51a.165.165 0 0 0-.013.079l.376 4.112c.014.151.002.299-.034.44a.154.154 0 0 1-.095.104l-8.436 3.321a.157.157 0 0 1-.14-.011 1.271 1.271 0 0 1-.228-.183l-4.825-4.849a.156.156 0 0 0-.17-.035l-6.849 2.695a.159.159 0 0 0-.089.206l.815 2.066a.158.158 0 0 1-.09.205l-5.84 2.299a.158.158 0 0 0-.09.205l1.407 3.569a.158.158 0 0 1-.089.205l-4.285 1.687a.157.157 0 0 1-.134-.008 1.384 1.384 0 0 1-.253-.188l-3.132-2.887a.157.157 0 0 0-.165-.03l-6.804 2.678a.157.157 0 0 0-.089.205l1.441 3.656a.158.158 0 0 1-.089.205l-26.123 10.28a.16.16 0 0 1-.206-.089l-2.607-6.543a.159.159 0 0 1 .089-.206l68.073-26.792a.158.158 0 0 1 .202.213l-.856 1.881Z" fill="#000"/><path opacity=".3" d="M194.567 136.953c-5.49 2.149-8.197 8.341-6.045 13.831 2.153 5.49 8.35 8.197 13.84 6.048 5.491-2.15 8.197-8.342 6.044-13.832-2.153-5.489-8.348-8.197-13.839-6.047Zm6.733 17.97a8.518 8.518 0 0 1-11.033-4.822 8.506 8.506 0 0 1 4.819-11.026 8.515 8.515 0 0 1 11.031 4.821 8.506 8.506 0 0 1-4.817 11.027Z" fill="#fff"/><path opacity=".1" d="M232.994 162.208a13.59 13.59 0 0 1-2.712 2.751l-35.272-46.727-.029-.039s3.108-1.563 3.812-2.026c0 .039.02.087.048.145 1.544 3.31 29.27 39.305 34.153 45.896ZM227.898 166.436c-.222.106-10.499 3.233-10.499 3.233l-11.455-15.171c2.962-2.904 4.072-7.401 2.461-11.503-2.152-5.491-8.348-8.203-13.839-6.051a9.495 9.495 0 0 0-1.37.657l-10.133-13.424s8.907-4.246 9.892-4.864c.26 1.882 34.943 46.727 34.943 47.123Z" fill="#fff"/><path d="M185.844 92.739a5.922 5.922 0 0 0-1.229 5.015 5.926 5.926 0 0 0 3.235 4.026c.839.389 1.761.576 2.591.984.829.408 1.598 1.128 1.686 2.048.097 1.016-.652 1.965-.581 2.984.064.932.794 1.673 1.53 2.249.736.576 1.559 1.119 1.965 1.962.405.842.142 2.09-.76 2.335-.191.291-.264.987-.021 1.237a.798.798 0 0 0 .96.119c1.385-.852 2.336-2.459 2.347-4.086.011-1.626-1.01-3.214-2.494-3.88-.268-.541-.061-1.227.164-1.788l1.347-3.372c.177-.441.02-1.246-.281-1.613-.302-.368-.756-.568-1.193-.755l-2.894-1.24c-1.093-.47-4.335-4.814-.486-6.083-.503-1.116-1.372-1.466-2.576-1.686-1.205-.22-2.522.607-3.31 1.544ZM191.097 88.065l-.288 3.427c.958-1.575 2.736-4.627 2.675-4.508-.755.41-1.632.671-2.387 1.08Z" fill="#263238"/><path d="m192.396 89.942 4.022-3.719c-1.034-.387-2.288-.098-3.048.703.022-.085-.598 1.82-.974 3.016Z" fill="#263238"/><path d="M184.219 182.825c-5.236 6.498-3.494 11.482-10.721 22.985 9.115 6.756 19.108 7.875 31.532 6.91 1.468-2.601 2.21-5.316 3.678-7.917 2.106 2.613 3.797 4.809 5.902 7.422 6.51-1.02 14.243-2.849 19.391-6.166-4.546-5.213-7.369-11.726-10.279-17.474-1.365-2.695-.794-3.83-4.414-7.364-11.535.532-22.973.814-34.507 1.346.304.015-.886.243-.582.258Z" fill="#28C19D"/><path d="m185.654 181.739-.723 3.033c-.105.239.177.465.565.443l31.793-1.407c.304.005.547-.175.559-.36l.17-3.014c.003-.203-.262-.373-.595-.351l-31.238 1.379a.6.6 0 0 0-.531.277Z" fill="#138D70"/><path d="m185.654 181.739-.723 3.033c-.105.239.177.465.565.443l31.793-1.407c.304.005.547-.175.559-.36l.17-3.014c.003-.203-.262-.373-.595-.351l-31.238 1.379a.6.6 0 0 0-.531.277Z" fill="#138D70"/><path d="m192.657 185.22-.923.04c-.176-.003-.322-.079-.311-.19l.248-3.917c.002-.111.16-.209.345-.216l.924-.049c.175.003.321.079.31.199l-.248 3.908c-.011.11-.17.218-.345.225ZM215.612 184.23l-.924.04c-.175-.002-.321-.079-.31-.189l.248-3.908c.002-.12.16-.219.336-.226l.923-.04c.175.003.322.079.311.19l-.249 3.908c-.002.12-.151.219-.335.225Z" fill="#22AA8A"/><path d="M196.761 166.154c.06.289 2.529 4.217 4.464 3.945l.049-.007a1.578 1.578 0 0 1 1.474.601c.778 1.013 1.247 1.592 1.772 2.257a2.964 2.964 0 0 0 3.578.846c.369-.171.735-.36 1.098-.553a2.962 2.962 0 0 0 1.484-3.327 16.126 16.126 0 0 0-1.652-4.131c-.252-.441-.542-.887-.981-1.143-.439-.256-4.699-1.543-6.353-1.491-1.721.054-3.356 2.309-4.933 3.003Z" fill="#FFDED4"/><path d="M201.738 163.022s-26.098-7.902-31.727-2.641c-3.31 3.094-1.747 6.015.103 7.898 1.376 1.4 4.375 1.056 6.337.965l20.557-2.017 4.73-4.205Z" fill="#FFDED4"/><path d="M186.742 159.412c-.141-1.412-1.234-2.586-2.505-3.219-1.27-.633-2.709-.82-4.118-.999l-9.837-1.247c-1.665 2.106-2.863 4.999-2.811 7.683a11.81 11.81 0 0 0 2.807 7.379c1.569-3.033 3.638-6.156 6.703-7.663 3.064-1.507 6.401-2.543 9.761-1.934Z" fill="#22AA8A"/><path opacity=".1" d="M180.014 111.745c-.029-.059-.029-.088 0-.098.206-.059.177-.019 0 .098Z" fill="#fff"/><path d="m244.85 69.493 7.271 13.482 29.668-25.193c.26-.221-.042-.624-.327-.435L253.65 75.704l-4.287-8.362-4.513 2.151Z" fill="#1EB38F"/><path d="M291.657 69.556c0 12.015-12.613 21.752-28.169 21.752-5.974 0-11.503-1.428-16.058-3.889l-16.539 7.19 10.44-11.63c-3.764-3.686-6.012-8.347-6.012-13.423 0-12.014 12.613-21.751 28.169-21.751 15.556 0 28.169 9.737 28.169 21.751Z" stroke="#39D1AD" stroke-width="1.3" stroke-miterlimit="10"/></svg>