<svg width="350" height="259" viewBox="0 0 350 259" fill="none" xmlns="http://www.w3.org/2000/svg">
<g clip-path="url(#clip0_2653_261355)">
<path d="M23.8509 176.474C23.8509 176.474 29.4572 225.355 70.9979 246.237C112.539 267.118 153.224 246.807 190.568 241.913C210.127 239.348 228.268 248.969 247.455 250.98C308.784 257.418 356.921 185.145 348.282 131.98C340.807 85.9494 311.397 53.4675 257.804 30.282C204.212 7.09645 167.351 -11.3379 105.103 10.4856C42.8554 32.3091 19.4165 113.189 23.8509 176.474Z" fill="#EBEBEB"/>
<path opacity="0.8" d="M23.4876 176.531C23.4876 176.531 29.0939 225.412 70.6347 246.293C112.175 267.175 152.861 246.863 190.205 241.97C209.764 239.404 227.905 249.025 247.092 251.037C308.421 257.474 356.558 185.202 347.919 132.037C340.444 86.006 311.034 53.5241 257.441 30.3386C203.848 7.15309 166.988 -11.2813 104.74 10.5422C42.4921 32.3658 19.0532 113.246 23.4876 176.531Z" fill="white"/>
<path d="M193.188 115.025C212.465 113.097 226.53 95.9066 224.602 76.6291C222.674 57.3516 205.484 43.2868 186.207 45.2146C166.929 47.1423 152.865 64.3326 154.792 83.6101C156.72 102.888 173.91 116.952 193.188 115.025Z" stroke="#263238" stroke-width="0.937048" stroke-linecap="round" stroke-linejoin="round"/>
<path d="M192.985 108.464C208.758 105.929 219.49 91.087 216.955 75.3138C214.42 59.5405 199.578 48.8087 183.805 51.3437C168.032 53.8786 157.3 68.7203 159.835 84.4936C162.37 100.267 177.212 110.999 192.985 108.464Z" stroke="#263238" stroke-width="0.932398" stroke-linecap="round" stroke-linejoin="round"/>
<path d="M169.939 79.9062H188.39V106.528" stroke="#263238" stroke-width="0.932398" stroke-linecap="round" stroke-linejoin="round"/>
<path d="M56.7364 61.345C56.7364 61.345 56.7364 56.6651 50.1798 50.1086C43.6232 43.552 39.4185 39.8145 39.4185 39.8145C39.4185 39.8145 36.1402 50.5758 42.2217 57.1323C46.6971 61.754 51.5523 65.9921 56.7364 69.802V61.345Z" fill="#0ACBA7"/>
<path d="M47.2266 90.5794C47.2266 90.5794 47.2266 85.8995 40.67 79.3429C34.1135 72.7864 29.9087 69.0488 29.9087 69.0488C29.9087 69.0488 26.6304 79.8101 32.7119 86.3667C37.1897 90.9859 42.0448 95.2238 47.2266 99.0364V90.5794Z" fill="#0ACBA7"/>
<path d="M56.3245 69.3189C56.3245 69.3189 56.8154 64.6628 64.0292 58.8347C71.243 53.0067 75.82 49.7363 75.82 49.7363C75.82 49.7363 77.9421 60.8223 71.1955 66.6583C66.2584 70.7725 60.9846 74.465 55.4297 77.6967L56.3245 69.3189Z" fill="#0ACBA7"/>
<path d="M44.8349 103.843C44.8349 103.843 45.8168 99.2659 53.5928 94.2297C61.3688 89.1935 66.2625 86.4141 66.2625 86.4141C66.2625 86.4141 67.2127 97.6267 59.9276 102.766C54.5856 106.334 48.9544 109.449 43.0928 112.078L44.8349 103.843Z" fill="#0ACBA7"/>
<path d="M46.9971 141.482C46.9971 141.482 46.9971 136.802 53.5457 130.253C60.0944 123.704 64.3149 119.959 64.3149 119.959C64.3149 119.959 67.5932 130.728 61.5039 137.277C57.0323 141.9 52.1795 146.138 46.9971 149.947V141.482Z" fill="#0ACBA7"/>
<path d="M46.886 150.674C46.886 150.674 47.5511 146.042 41.9923 138.622C36.4335 131.202 32.7989 126.895 32.7989 126.895C32.7989 126.895 28.0478 137.086 33.1235 144.442C36.8991 149.64 41.1026 154.514 45.6903 159.012L46.886 150.674Z" fill="#0ACBA7"/>
<path d="M40.4248 177.898C40.4248 177.898 40.4248 173.218 46.9734 166.669C53.5221 160.12 57.7427 156.375 57.7427 156.375C57.7427 156.375 61.021 167.144 54.9316 173.693C50.46 178.316 45.6073 182.554 40.4248 186.363V177.898Z" fill="#0ACBA7"/>
<path d="M44.7954 202.59C44.7954 202.59 43.6155 198.06 48.3033 190.047C52.9911 182.033 56.111 177.377 56.111 177.377C56.111 177.377 62.0024 186.966 57.7818 194.845C54.618 200.438 50.9918 205.757 46.9413 210.746L44.7954 202.59Z" fill="#0ACBA7"/>
<path d="M57.3308 60.1816C56.9976 65.0544 56.3975 69.9052 55.5333 74.7122C52.944 88.0945 46.4666 96.7337 43.8772 108.817C41.2879 120.901 48.7234 136.485 46.7358 152.013C44.7483 167.541 38.6985 176.173 40.401 186.538C42.1035 196.903 51.194 224.959 51.194 224.959" stroke="#263238" stroke-width="0.932398" stroke-linecap="round" stroke-linejoin="round"/>
<path d="M56.2617 72.4301L63.3251 67.0059" stroke="#263238" stroke-width="0.932398" stroke-linecap="round" stroke-linejoin="round"/>
<path d="M56.5864 66.1915L53.6328 60.9336" stroke="#263238" stroke-width="0.932398" stroke-linecap="round" stroke-linejoin="round"/>
<path d="M44.2725 108.23C44.2725 108.23 50.1797 103.796 56.2611 99.3613" stroke="#263238" stroke-width="0.932398" stroke-linecap="round" stroke-linejoin="round"/>
<path d="M47.2267 98.9808C47.2267 98.9808 42.3013 89.3202 36.7188 82.9141" stroke="#263238" stroke-width="0.932398" stroke-linecap="round" stroke-linejoin="round"/>
<path d="M47.2266 148.141C50.6109 141.92 54.8785 136.223 59.8962 131.227" stroke="#263238" stroke-width="0.932398" stroke-linecap="round" stroke-linejoin="round"/>
<path d="M46.0783 154.713C44.2828 150.483 42.1401 146.41 39.6722 142.534C36.2197 137.442 35.7129 136.785 35.7129 136.785" stroke="#263238" stroke-width="0.932398" stroke-linecap="round" stroke-linejoin="round"/>
<path d="M40.4248 186.505C41.9207 182.785 43.6996 179.185 45.7461 175.736C47.7936 172.541 50.1004 169.519 52.6431 166.701" stroke="#263238" stroke-width="0.932398" stroke-linecap="round" stroke-linejoin="round"/>
<path d="M46.9334 210.737C46.9334 210.737 46.2445 205.131 48.7072 200.372C51.1698 195.613 53.9572 189.365 55.1133 186.91" stroke="#263238" stroke-width="0.932398" stroke-linecap="round" stroke-linejoin="round"/>
<path d="M13.8266 123.878C13.8266 123.878 13.3119 120.948 16.7168 116.126C20.1218 111.303 22.3469 108.484 22.3469 108.484C22.3469 108.484 25.5698 114.875 22.4657 119.65C20.1597 123.027 17.5745 126.206 14.7372 129.152L13.8266 123.878Z" fill="#0ACBA7"/>
<path d="M22.9634 141.181C22.9634 141.181 22.4487 138.243 25.8457 133.42C29.2428 128.598 31.4837 125.795 31.4837 125.795C31.4837 125.795 34.7066 132.193 31.6025 136.96C29.2975 140.339 26.7122 143.517 23.874 146.462L22.9634 141.181Z" fill="#0ACBA7"/>
<path d="M14.9504 128.835C14.9504 128.835 14.1585 125.969 8.97981 123.102C3.80107 120.236 0.594059 118.668 0.594059 118.668C0.594059 118.668 0.467362 125.795 5.34519 128.788C8.88984 130.826 12.598 132.567 16.4312 133.99L14.9504 128.835Z" fill="#0ACBA7"/>
<path d="M25.9018 149.232C25.9018 149.232 24.7853 146.469 19.3611 144.156C13.9369 141.844 10.5557 140.641 10.5557 140.641C10.5557 140.641 11.1812 147.767 16.3283 150.198C20.0663 151.856 23.936 153.199 27.8973 154.213L25.9018 149.232Z" fill="#0ACBA7"/>
<path d="M28.6337 173.076C28.6337 173.076 28.127 170.138 23.3046 166.741C18.4822 163.344 15.4335 161.451 15.4335 161.451C15.4335 161.451 14.5466 168.578 19.076 172.007C22.3823 174.407 25.884 176.526 29.5444 178.341L28.6337 173.076Z" fill="#0ACBA7"/>
<path d="M29.6951 178.824C29.6951 178.824 28.7766 175.989 31.4531 170.739C34.1295 165.489 35.9508 162.385 35.9508 162.385C35.9508 162.385 40.0447 168.26 37.6533 173.423C35.8381 177.094 33.7191 180.606 31.3184 183.923L29.6951 178.824Z" fill="#0ACBA7"/>
<path d="M37.9222 202.501C37.9222 202.501 38.2627 199.54 42.8792 195.874C47.4958 192.207 50.4335 190.148 50.4335 190.148C50.4335 190.148 51.7243 197.188 47.4007 200.894C44.2361 203.482 40.8618 205.802 37.3125 207.831L37.9222 202.501Z" fill="#0ACBA7"/>
<path d="M36.7031 195.201C36.7031 195.201 36.1964 192.263 31.374 188.866C26.5516 185.469 23.5108 183.576 23.5108 183.576C23.5108 183.576 22.624 190.703 27.1455 194.132C30.4539 196.533 33.9583 198.652 37.6217 200.466L36.7031 195.201Z" fill="#0ACBA7"/>
<path d="M36.6399 211.156C36.6399 211.156 36.8933 208.187 33.0924 203.681C29.2915 199.176 26.8209 196.555 26.8209 196.555C26.8209 196.555 24.1603 203.206 27.6682 207.688C30.2585 210.858 33.1085 213.806 36.1886 216.502L36.6399 211.156Z" fill="#0ACBA7"/>
<path d="M13.3193 123.188C14.057 126.21 14.9611 129.189 16.0275 132.112C19.0999 140.22 24.0965 144.932 27.0343 152.233C29.9721 159.534 27.0343 170.105 29.9325 179.623C32.8307 189.141 37.5976 193.876 37.6372 200.591C37.6768 207.306 35.0399 225.859 35.0399 225.859" stroke="#263238" stroke-width="0.932398" stroke-linecap="round" stroke-linejoin="round"/>
<path d="M15.323 130.775L10.3105 128.146" stroke="#263238" stroke-width="0.932398" stroke-linecap="round" stroke-linejoin="round"/>
<path d="M14.4434 126.902L15.7262 123.283" stroke="#263238" stroke-width="0.932398" stroke-linecap="round" stroke-linejoin="round"/>
<path d="M26.7337 151.924C26.7337 151.924 22.5448 149.786 18.2529 147.664" stroke="#263238" stroke-width="0.932398" stroke-linecap="round" stroke-linejoin="round"/>
<path d="M23.875 146.494C25.1063 142.602 26.73 138.845 28.7212 135.281" stroke="#263238" stroke-width="0.932398" stroke-linecap="round" stroke-linejoin="round"/>
<path d="M29.2119 177.272C26.4188 173.738 23.1273 170.628 19.4404 168.039" stroke="#263238" stroke-width="0.932398" stroke-linecap="round" stroke-linejoin="round"/>
<path d="M30.6445 181.271C31.3095 178.429 32.2101 175.648 33.3368 172.956C34.9206 169.385 35.1898 168.918 35.1898 168.918" stroke="#263238" stroke-width="0.932398" stroke-linecap="round" stroke-linejoin="round"/>
<path d="M37.415 205.661C37.415 205.661 40.7329 201.591 42.8076 200.062C44.0536 199.141 45.224 198.122 46.3076 197.014" stroke="#263238" stroke-width="0.932398" stroke-linecap="round" stroke-linejoin="round"/>
<path d="M37.6373 200.592C36.2939 198.422 34.7876 196.357 33.1316 194.415C31.5004 192.634 29.726 190.99 27.8262 189.498" stroke="#263238" stroke-width="0.932398" stroke-linecap="round" stroke-linejoin="round"/>
<path d="M36.1873 216.501C36.0214 214.228 35.2504 212.041 33.9542 210.166C31.8875 207.442 29.4565 203.831 28.4746 202.414" stroke="#263238" stroke-width="0.932398" stroke-linecap="round" stroke-linejoin="round"/>
<path d="M58.0113 257.874H28.1663C27.5761 257.874 27.0102 257.64 26.5929 257.223C26.1756 256.805 25.9412 256.24 25.9412 255.649L21.6572 222.621H64.5204L60.2364 255.649C60.2364 256.24 60.002 256.805 59.5847 257.223C59.1674 257.64 58.6014 257.874 58.0113 257.874Z" fill="#263238"/>
<path d="M64.1403 228.212H21.6573C20.7723 228.213 19.9231 227.863 19.2943 227.24C18.6656 226.618 18.3082 225.772 18.2998 224.887C18.2998 224.446 18.3867 224.01 18.5555 223.603C18.7244 223.196 18.9718 222.827 19.2837 222.515C19.5955 222.204 19.9657 221.958 20.373 221.79C20.7803 221.622 21.2167 221.536 21.6573 221.537H64.1403C64.5808 221.536 65.0172 221.622 65.4245 221.79C65.8318 221.958 66.202 222.204 66.5139 222.515C66.8258 222.827 67.0732 223.196 67.242 223.603C67.4109 224.01 67.4978 224.446 67.4978 224.887C67.4894 225.772 67.132 226.618 66.5033 227.24C65.8745 227.863 65.0253 228.213 64.1403 228.212Z" fill="#263238"/>
<path d="M281.109 230.43L294.253 251.604C294.635 252.218 294.845 252.923 294.862 253.645C294.879 254.367 294.703 255.081 294.352 255.713C294 256.344 293.487 256.87 292.864 257.237C292.241 257.603 291.532 257.796 290.809 257.796H263.965C264.685 257.794 265.392 257.601 266.013 257.235C266.633 256.87 267.145 256.346 267.496 255.717C267.847 255.088 268.024 254.377 268.008 253.656C267.993 252.936 267.787 252.233 267.41 251.62L254.692 230.905L281.109 230.43Z" fill="white" stroke="#263238" stroke-width="0.932398" stroke-linecap="round" stroke-linejoin="round"/>
<path d="M281.117 230.414L254.701 230.889L259.595 238.855H286.352L281.117 230.414Z" fill="#263238" stroke="#263238" stroke-width="0.932398" stroke-linecap="round" stroke-linejoin="round"/>
<path d="M210.776 235.133H318.437C319.71 235.133 320.741 234.101 320.741 232.829V142.62C320.741 141.348 319.71 140.316 318.437 140.316H210.776C209.504 140.316 208.472 141.348 208.472 142.62V232.829C208.472 234.101 209.504 235.133 210.776 235.133Z" fill="white" stroke="#263238" stroke-width="0.932398" stroke-linecap="round" stroke-linejoin="round"/>
<path d="M206.532 235.133H314.193C315.465 235.133 316.497 234.101 316.497 232.829V142.62C316.497 141.348 315.465 140.316 314.193 140.316H206.532C205.26 140.316 204.228 141.348 204.228 142.62V232.829C204.228 234.101 205.26 235.133 206.532 235.133Z" fill="white" stroke="#263238" stroke-width="0.932398" stroke-linecap="round" stroke-linejoin="round"/>
<path d="M207.997 140.316H312.72C313.215 140.315 313.706 140.412 314.165 140.601C314.623 140.79 315.039 141.067 315.39 141.418C315.741 141.768 316.019 142.184 316.209 142.641C316.399 143.099 316.497 143.59 316.497 144.086V218.148H204.228V144.117C204.223 143.62 204.318 143.126 204.505 142.665C204.693 142.204 204.97 141.785 205.32 141.432C205.671 141.078 206.088 140.798 206.547 140.606C207.007 140.415 207.499 140.316 207.997 140.316Z" fill="#263238" stroke="#263238" stroke-width="0.932398" stroke-linecap="round" stroke-linejoin="round"/>
<path d="M208.947 212.969H311.785V144.093H208.947V212.969Z" fill="white" stroke="#263238" stroke-width="0.932398" stroke-linecap="round" stroke-linejoin="round"/>
<path d="M178.595 253.037H175.333V254.122H178.595V253.037Z" fill="white" stroke="#263238" stroke-width="0.932398" stroke-linecap="round" stroke-linejoin="round"/>
<path d="M182.951 253.037H179.688V254.122H182.951V253.037Z" fill="white" stroke="#263238" stroke-width="0.932398" stroke-linecap="round" stroke-linejoin="round"/>
<path d="M187.305 253.037H184.043V254.122H187.305V253.037Z" fill="white" stroke="#263238" stroke-width="0.932398" stroke-linecap="round" stroke-linejoin="round"/>
<path d="M191.661 253.037H188.398V254.122H191.661V253.037Z" fill="white" stroke="#263238" stroke-width="0.932398" stroke-linecap="round" stroke-linejoin="round"/>
<path d="M196.016 253.037H192.754V254.122H196.016V253.037Z" fill="white" stroke="#263238" stroke-width="0.932398" stroke-linecap="round" stroke-linejoin="round"/>
<path d="M200.372 253.037H197.109V254.122H200.372V253.037Z" fill="white" stroke="#263238" stroke-width="0.932398" stroke-linecap="round" stroke-linejoin="round"/>
<path d="M204.726 253.037H201.464V254.122H204.726V253.037Z" fill="white" stroke="#263238" stroke-width="0.932398" stroke-linecap="round" stroke-linejoin="round"/>
<path d="M209.082 253.037H205.819V254.122H209.082V253.037Z" fill="white" stroke="#263238" stroke-width="0.932398" stroke-linecap="round" stroke-linejoin="round"/>
<path d="M213.437 253.037H210.175V254.122H213.437V253.037Z" fill="white" stroke="#263238" stroke-width="0.932398" stroke-linecap="round" stroke-linejoin="round"/>
<path d="M217.793 253.037H214.53V254.122H217.793V253.037Z" fill="white" stroke="#263238" stroke-width="0.932398" stroke-linecap="round" stroke-linejoin="round"/>
<path d="M222.147 253.037H218.885V254.122H222.147V253.037Z" fill="white" stroke="#263238" stroke-width="0.932398" stroke-linecap="round" stroke-linejoin="round"/>
<path d="M226.503 253.037H223.24V254.122H226.503V253.037Z" fill="white" stroke="#263238" stroke-width="0.932398" stroke-linecap="round" stroke-linejoin="round"/>
<path d="M230.858 253.037H227.596V254.122H230.858V253.037Z" fill="white" stroke="#263238" stroke-width="0.932398" stroke-linecap="round" stroke-linejoin="round"/>
<path d="M235.206 253.037H231.943V254.122H235.206V253.037Z" fill="white" stroke="#263238" stroke-width="0.932398" stroke-linecap="round" stroke-linejoin="round"/>
<path d="M239.56 253.037H236.298V254.122H239.56V253.037Z" fill="white" stroke="#263238" stroke-width="0.932398" stroke-linecap="round" stroke-linejoin="round"/>
<path d="M243.916 253.037H240.653V254.122H243.916V253.037Z" fill="white" stroke="#263238" stroke-width="0.932398" stroke-linecap="round" stroke-linejoin="round"/>
<path d="M248.271 253.037H245.009V254.122H248.271V253.037Z" fill="white" stroke="#263238" stroke-width="0.932398" stroke-linecap="round" stroke-linejoin="round"/>
<path d="M252.626 253.037H249.363V254.122H252.626V253.037Z" fill="white" stroke="#263238" stroke-width="0.932398" stroke-linecap="round" stroke-linejoin="round"/>
<path d="M256.981 253.037H253.719V254.122H256.981V253.037Z" fill="white" stroke="#263238" stroke-width="0.932398" stroke-linecap="round" stroke-linejoin="round"/>
<path d="M261.337 253.037H258.074V254.122H261.337V253.037Z" fill="white" stroke="#263238" stroke-width="0.932398" stroke-linecap="round" stroke-linejoin="round"/>
<path d="M265.692 253.037H262.43V254.122H265.692V253.037Z" fill="white" stroke="#263238" stroke-width="0.932398" stroke-linecap="round" stroke-linejoin="round"/>
<path d="M268.075 254.279H173.646V257.803H268.075V254.279Z" fill="white" stroke="#263238" stroke-width="0.932398" stroke-linecap="round" stroke-linejoin="round"/>
<path d="M268.075 254.279H245.04V257.803H268.075V254.279Z" fill="#263238" stroke="#263238" stroke-width="0.932398" stroke-linecap="round" stroke-linejoin="round"/>
<path d="M131.091 136.712C131.091 136.712 135.138 129.72 136.634 132.666C138.131 135.611 137.743 141.859 135.534 144.805C133.324 147.75 132.588 149.215 131.487 147.006C130.387 144.797 131.091 136.712 131.091 136.712Z" fill="white" stroke="#263238" stroke-width="0.932398" stroke-linecap="round" stroke-linejoin="round"/>
<path d="M82.9077 142.225C82.9077 142.225 78.1566 136.341 77.0163 140.387C75.876 144.434 81.4348 149.581 82.9077 150.317C84.0784 150.762 85.3457 150.89 86.5819 150.689L82.9077 142.225Z" fill="white" stroke="#263238" stroke-width="0.932398" stroke-linecap="round" stroke-linejoin="round"/>
<path d="M100.518 167.484C100.518 167.484 48.8178 183.147 48.8178 186.084C48.8178 189.022 47.337 246.946 48.5169 250.225C49.6967 253.503 59.4524 256.718 64.7737 256.718V257.906H178.223L172.624 226.58C172.624 226.58 204.536 225.392 205.09 223.032C205.645 220.673 177.098 173.415 174.438 171.926C171.777 170.437 131.25 166.011 126.523 166.011C121.795 166.011 111.747 163.913 100.518 167.484Z" fill="#0ACBA7"/>
<mask id="mask0_2653_261355" style="mask-type:luminance" maskUnits="userSpaceOnUse" x="48" y="165" width="158" height="93">
<path d="M100.518 167.486C100.518 167.486 48.8178 183.149 48.8178 186.086C48.8178 189.024 47.337 246.948 48.5169 250.227C49.6967 253.505 59.4524 256.72 64.7737 256.72V257.908H178.223L172.624 226.582C172.624 226.582 204.536 225.394 205.09 223.034C205.645 220.675 177.098 173.417 174.438 171.928C171.777 170.439 131.25 166.013 126.523 166.013C121.795 166.013 111.747 163.914 100.518 167.486Z" fill="white"/>
</mask>
<g mask="url(#mask0_2653_261355)">
<path opacity="0.3" d="M146.754 257.898C75.1152 231.568 78.3143 218.154 78.3143 218.154L54.5586 254.461C57.8159 255.788 61.2759 256.548 64.7894 256.71V257.898H146.754Z" fill="black"/>
<path opacity="0.3" d="M128.225 181.682C128.225 181.682 152.543 180.399 168.538 168.886L123.751 163.121L128.225 181.682Z" fill="black"/>
</g>
<path d="M100.518 167.484C100.518 167.484 48.8178 183.147 48.8178 186.084C48.8178 189.022 47.337 246.946 48.5169 250.225C49.6967 253.503 59.4524 256.718 64.7737 256.718V257.906H178.223L172.624 226.58C172.624 226.58 204.536 225.392 205.09 223.032C205.645 220.673 177.098 173.415 174.438 171.926C171.777 170.437 131.25 166.011 126.523 166.011C121.795 166.011 111.747 163.913 100.518 167.484Z" stroke="#263238" stroke-width="0.932398" stroke-linecap="round" stroke-linejoin="round"/>
<path d="M171.612 212.026L163.139 186.615" stroke="#263238" stroke-width="0.932398" stroke-linecap="round" stroke-linejoin="round"/>
<path d="M58.6602 187.178C58.6602 187.178 72.7789 195.096 77.3004 213.721" stroke="#263238" stroke-width="0.932398" stroke-linecap="round" stroke-linejoin="round"/>
<path d="M58.5973 222.439C58.5973 222.439 49.1426 228.648 47.0758 230.12C45.0091 231.593 44.4152 247.264 46.4819 251.691C48.5487 256.117 57.4175 258.192 63.3247 255.238C69.232 252.284 71.8926 238.395 69.8258 231.308C67.7591 224.221 58.5973 222.439 58.5973 222.439Z" fill="#263238" stroke="#263238" stroke-width="0.932398" stroke-linecap="round" stroke-linejoin="round"/>
<path d="M93.1377 170.438C93.1377 170.438 94.0246 184.62 96.6773 194.075C99.33 203.53 104.358 215.938 104.358 215.938L121.201 202.643L143.951 208.257C143.951 208.257 139.525 184.921 136.27 177.24C133.016 169.559 126.522 163.351 126.522 163.351C126.522 163.351 101.706 160.096 93.1377 170.438Z" fill="#263238" stroke="#263238" stroke-width="0.932398" stroke-linecap="round" stroke-linejoin="round"/>
<path d="M96.3848 168.079C96.3848 168.079 100.518 178.421 104.953 187.281C109.387 196.142 119.998 208.559 122.682 205.898C125.367 203.237 127.996 182.554 127.996 177.827V163.645C127.996 163.645 119.729 170.439 113.228 170.439C106.726 170.439 96.3848 168.079 96.3848 168.079Z" fill="white"/>
<mask id="mask1_2653_261355" style="mask-type:luminance" maskUnits="userSpaceOnUse" x="96" y="163" width="32" height="44">
<path d="M96.3857 168.081C96.3857 168.081 100.519 178.423 104.954 187.283C109.388 196.144 119.999 208.561 122.683 205.9C125.368 203.239 127.997 182.556 127.997 177.829V163.646C127.997 163.646 119.73 170.441 113.229 170.441C106.727 170.441 96.3857 168.081 96.3857 168.081Z" fill="white"/>
</mask>
<g mask="url(#mask1_2653_261355)">
<path d="M127.997 163.646C127.997 163.646 119.73 170.441 113.229 170.441C106.727 170.441 96.3857 168.065 96.3857 168.065C96.3857 168.065 98.4842 173.315 101.295 179.539C106.379 182.926 112.538 184.308 118.581 183.419C122.287 182.833 125.391 180.814 127.997 178.027V163.646Z" fill="#0ACBA7"/>
<path opacity="0.7" d="M127.997 163.646C127.997 163.646 119.73 170.441 113.229 170.441C106.727 170.441 96.3857 168.065 96.3857 168.065C96.3857 168.065 98.4842 173.315 101.295 179.539C106.379 182.926 112.538 184.308 118.581 183.419C122.287 182.833 125.391 180.814 127.997 178.027V163.646Z" fill="white"/>
</g>
<path d="M96.3848 168.079C96.3848 168.079 100.518 178.421 104.953 187.281C109.387 196.142 119.998 208.559 122.682 205.898C125.367 203.237 127.996 182.554 127.996 177.827V163.645C127.996 163.645 119.729 170.439 113.228 170.439C106.726 170.439 96.3848 168.079 96.3848 168.079Z" stroke="#263238" stroke-width="0.932398" stroke-linecap="round" stroke-linejoin="round"/>
<path d="M81.7984 139.286C81.7984 139.286 88.0541 159.874 92.0925 165.417C96.131 170.96 107.177 176.455 115.27 176.083C123.363 175.711 129.983 167.626 131.456 159.533C132.928 151.441 131.82 133.046 131.82 133.046C131.82 133.046 130.355 124.953 124.099 114.287C117.844 103.62 86.209 112.442 82.9228 120.534C79.6366 128.627 81.7984 139.286 81.7984 139.286Z" fill="white" stroke="#263238" stroke-width="0.932398" stroke-linecap="round" stroke-linejoin="round"/>
<path d="M106.813 155.472C106.813 155.472 110.496 160.619 114.906 155.1" stroke="#263238" stroke-width="0.932398" stroke-linecap="round" stroke-linejoin="round"/>
<path d="M95.4111 147.38C95.4111 147.38 98.7211 144.434 103.14 147.38" stroke="#263238" stroke-width="0.932398" stroke-linecap="round" stroke-linejoin="round"/>
<path d="M116.016 145.17C116.016 145.17 117.488 142.225 123 142.225" stroke="#263238" stroke-width="0.932398" stroke-linecap="round" stroke-linejoin="round"/>
<path d="M93.5732 141.487C93.5732 141.487 95.7825 137.813 103.139 137.076" stroke="#263238" stroke-width="1.8648" stroke-linecap="round" stroke-linejoin="round"/>
<path d="M114.139 140.364C114.139 140.364 117.718 132.928 124.108 135.241" stroke="#263238" stroke-width="1.8648" stroke-linecap="round" stroke-linejoin="round"/>
<path d="M115.278 163.912C115.321 164.321 115.239 164.733 115.044 165.094C114.848 165.455 114.548 165.749 114.183 165.937C113.817 166.124 113.403 166.196 112.996 166.144C112.588 166.092 112.206 165.918 111.9 165.645C111.593 165.371 111.376 165.012 111.278 164.613C111.18 164.214 111.204 163.795 111.349 163.41C111.493 163.026 111.751 162.694 112.087 162.458C112.424 162.223 112.824 162.095 113.235 162.091C113.747 162.063 114.249 162.238 114.632 162.58C115.015 162.921 115.247 163.4 115.278 163.912Z" fill="#263238"/>
<path d="M103.361 148.48C103.362 148.701 103.298 148.917 103.177 149.102C103.055 149.287 102.881 149.431 102.677 149.517C102.473 149.603 102.249 149.626 102.031 149.584C101.814 149.541 101.615 149.436 101.458 149.28C101.301 149.124 101.194 148.925 101.15 148.708C101.106 148.492 101.128 148.267 101.212 148.062C101.296 147.858 101.44 147.683 101.623 147.56C101.807 147.437 102.023 147.371 102.244 147.371C102.539 147.371 102.822 147.488 103.031 147.695C103.24 147.903 103.359 148.185 103.361 148.48Z" fill="#263238"/>
<path d="M122.738 144.322C122.738 144.543 122.672 144.759 122.549 144.943C122.426 145.127 122.251 145.27 122.047 145.354C121.842 145.438 121.617 145.46 121.401 145.416C121.184 145.372 120.985 145.265 120.829 145.108C120.673 144.951 120.568 144.752 120.525 144.535C120.483 144.317 120.506 144.093 120.592 143.889C120.678 143.685 120.822 143.511 121.007 143.389C121.192 143.268 121.408 143.204 121.629 143.205C121.776 143.205 121.92 143.234 122.055 143.29C122.19 143.346 122.313 143.429 122.416 143.533C122.519 143.636 122.601 143.76 122.656 143.895C122.711 144.03 122.739 144.175 122.738 144.322Z" fill="#263238"/>
<path d="M99.0937 94.776H86.2182C78.8618 94.776 69.2962 114.271 69.6605 123.465C70.0247 132.658 78.1254 138.55 80.3347 139.65C82.544 140.751 86.5824 142.596 86.5824 141.488C86.5824 140.379 91.001 131.558 91.001 131.558C91.001 131.558 89.8924 136.713 92.8381 136.713C95.7838 136.713 104.977 127.147 104.977 127.147C104.977 127.147 105.349 134.868 108.287 134.868C111.225 134.868 117.489 123.465 117.489 123.465L124.108 130.821L126.318 126.411C126.318 126.411 128.891 136.705 131.069 136.705C133.246 136.705 135.115 131.55 136.224 126.411C137.332 121.271 139.534 112.799 135.852 105.07C132.17 97.3416 121.511 90.3574 112.682 90.3574C103.853 90.3574 99.0937 94.776 99.0937 94.776Z" fill="#263238" stroke="#263238" stroke-width="0.932398" stroke-linecap="round" stroke-linejoin="round"/>
<path d="M94.5396 97.7138C94.5396 97.7138 85.4808 98.759 81.2998 101.546C78.9051 103.081 76.9856 105.253 75.7568 107.818L84.8157 103.637C84.8157 103.637 78.8926 108.166 78.1958 110.257C77.6037 112.434 77.141 114.645 76.81 116.877L82.353 115.135C82.353 115.135 80.0487 117.067 80.2625 118.967C80.4763 120.868 81.3077 125.239 81.3077 125.239L87.9276 118.967L89.6697 123.497L95.2127 118.967L95.5611 122.451L99.3937 117.225L102.561 120.392L104.652 116.56C104.652 116.56 106.394 118.302 107.091 114.121C107.787 109.94 108.136 108.198 108.136 108.198L111.968 112.727L113.362 118.65L114.407 112.379L117.575 115.166L118.62 109.94L122.453 112.031L123.846 107.153L132.208 109.94C132.208 109.94 129.769 101.23 127.679 98.7907C125.588 96.3518 115.484 95.3065 115.484 95.3065L114.439 93.5645C114.439 93.5645 102.561 96.0034 101.199 96.7319C100.045 97.4078 98.9803 98.2273 98.0317 99.1708" stroke="#6B6B6B" stroke-width="0.932398" stroke-linecap="round" stroke-linejoin="round"/>
<path d="M72.7484 160.69C71.4328 159.228 70.6977 157.335 70.6816 155.368C70.6816 152.122 74.2292 145.074 75.116 145.074C76.0029 145.074 77.7687 146.84 77.7687 146.84C77.7687 146.84 76.2959 153.967 75.702 156.596C75.2433 158.272 74.1944 159.726 72.7484 160.69Z" fill="white" stroke="#263238" stroke-width="0.932398" stroke-linecap="round" stroke-linejoin="round"/>
<path d="M74.814 163.644C74.814 163.644 71.8604 160.096 71.8604 158.623C71.8604 157.15 76.6115 146.801 77.7676 146.801C78.9237 146.801 82.5187 148.282 83.3818 148.875C84.245 149.469 83.9757 152.415 83.9757 154.49C83.9757 156.564 78.6545 165.71 78.6545 165.71L74.814 163.644Z" fill="white" stroke="#263238" stroke-width="0.932398" stroke-linecap="round" stroke-linejoin="round"/>
<path d="M81.0234 148.281C81.0234 148.281 73.6354 161.576 74.8153 163.643C75.9951 165.71 87.8175 178.419 87.8175 178.419C87.8175 178.419 54.132 228.647 50.8854 233.667C47.6388 238.687 47.0449 246.075 48.5098 250.217C49.9748 254.358 58.8515 258.191 65.0596 257.898C71.2677 257.605 75.9872 249.916 77.7293 242.853C79.4714 235.789 95.4985 183.709 96.9793 179.599C98.46 175.489 100.519 172.211 98.4521 170.144C96.3854 168.078 88.4114 160.397 88.4114 160.397C88.4114 160.397 90.787 158.33 90.4781 155.962C90.1693 153.595 85.1569 148.867 81.0234 148.281Z" fill="white"/>
<mask id="mask2_2653_261355" style="mask-type:luminance" maskUnits="userSpaceOnUse" x="47" y="148" width="53" height="110">
<path d="M81.0224 148.281C81.0224 148.281 73.6344 161.576 74.8143 163.643C75.9941 165.71 87.8165 178.419 87.8165 178.419C87.8165 178.419 54.131 228.647 50.8844 233.667C47.6378 238.687 47.0439 246.075 48.5088 250.217C49.9738 254.358 58.8505 258.191 65.0586 257.898C71.2668 257.605 75.9862 249.916 77.7283 242.853C79.4704 235.789 95.4975 183.709 96.9783 179.599C98.4591 175.489 100.518 172.211 98.4512 170.144C96.3844 168.078 88.4104 160.397 88.4104 160.397C88.4104 160.397 90.786 158.33 90.4772 155.962C90.1683 153.595 85.1559 148.867 81.0224 148.281Z" fill="white"/>
</mask>
<g mask="url(#mask2_2653_261355)">
<path d="M77.7688 242.829C79.5425 235.703 95.4984 183.733 96.9792 179.6C98.46 175.466 100.519 172.212 98.452 170.145C96.5912 168.284 89.9475 161.878 88.6489 160.643H88.6014C89.7575 162.155 95.8706 170.343 95.2371 175.078C94.5403 180.304 67.7122 243.376 64.2281 247.557C61.5595 250.724 54.4249 252.72 51.21 253.472C55.2453 256.376 60.096 257.928 65.0674 257.906C71.2677 257.597 76.0188 249.916 77.7688 242.829Z" fill="#0ACBA7"/>
<path opacity="0.7" d="M77.7688 242.829C79.5425 235.703 95.4984 183.733 96.9792 179.6C98.46 175.466 100.519 172.212 98.452 170.145C96.5912 168.284 89.9475 161.878 88.6489 160.643H88.6014C89.7575 162.155 95.8706 170.343 95.2371 175.078C94.5403 180.304 67.7122 243.376 64.2281 247.557C61.5595 250.724 54.4249 252.72 51.21 253.472C55.2453 256.376 60.096 257.928 65.0674 257.906C71.2677 257.597 76.0188 249.916 77.7688 242.829Z" fill="white"/>
</g>
<path d="M81.0234 148.281C81.0234 148.281 73.6354 161.576 74.8153 163.643C75.9951 165.71 87.8175 178.419 87.8175 178.419C87.8175 178.419 54.132 228.647 50.8854 233.667C47.6388 238.687 47.0449 246.075 48.5098 250.217C49.9748 254.358 58.8515 258.191 65.0596 257.898C71.2677 257.605 75.9872 249.916 77.7293 242.853C79.4714 235.789 95.4985 183.709 96.9793 179.599C98.46 175.489 100.519 172.211 98.4521 170.144C96.3854 168.078 88.4114 160.397 88.4114 160.397C88.4114 160.397 90.787 158.33 90.4781 155.962C90.1693 153.595 85.1569 148.867 81.0234 148.281Z" stroke="#263238" stroke-width="0.932398" stroke-linecap="round" stroke-linejoin="round"/>
<path d="M85.4494 154.783L83.9766 158.37L88.4109 160.437L88.601 160.675" stroke="#263238" stroke-width="0.932398" stroke-linecap="round" stroke-linejoin="round"/>
<path d="M173.496 209.445C173.496 209.445 176.157 205.01 179.411 203.83C182.666 202.651 195.367 201.455 200.387 203.237C205.408 205.018 208.361 211.511 209.248 215.051C210.135 218.591 209.842 223.627 206.873 226.28C203.903 228.932 200.079 228.354 195.937 227.166C191.796 225.979 183.529 221.259 179.095 218.599C174.66 215.938 173.797 211.211 173.496 209.445Z" fill="#263238" stroke="#263238" stroke-width="0.932398" stroke-linecap="round" stroke-linejoin="round"/>
<path d="M132.136 204.416C132.136 204.416 108.793 223.626 105.546 225.392C102.299 227.158 103.772 230.42 104.952 231.6C106.132 232.78 113.813 239.875 117.36 242.235C120.908 244.595 125.928 240.461 127.108 239.859C128.288 239.257 126.815 236.605 126.815 236.605C126.815 236.605 135.977 231.584 137.45 226.857C138.439 223.188 139.034 219.424 139.224 215.628C139.224 215.628 176.441 230.674 185.317 233.944C194.194 237.214 199.793 237.492 203.934 233.358C208.075 229.225 208.36 220.649 206.309 216.222C204.259 211.796 191.264 207.654 185.333 207.654C179.402 207.654 137.466 202.626 134.813 203.513L132.136 204.416Z" fill="white"/>
<mask id="mask3_2653_261355" style="mask-type:luminance" maskUnits="userSpaceOnUse" x="103" y="203" width="105" height="40">
<path d="M132.135 204.416C132.135 204.416 108.792 223.626 105.545 225.392C102.298 227.158 103.771 230.42 104.951 231.6C106.131 232.78 113.812 239.875 117.359 242.235C120.907 244.595 125.927 240.461 127.107 239.859C128.287 239.257 126.814 236.605 126.814 236.605C126.814 236.605 135.976 231.584 137.449 226.857C138.438 223.188 139.033 219.424 139.223 215.628C139.223 215.628 176.44 230.674 185.316 233.944C194.193 237.214 199.792 237.492 203.933 233.358C208.074 229.225 208.359 220.649 206.309 216.222C204.258 211.796 191.263 207.654 185.332 207.654C179.401 207.654 137.465 202.626 134.812 203.513L132.135 204.416Z" fill="white"/>
</mask>
<g mask="url(#mask3_2653_261355)">
<path d="M203.933 233.374C205.409 231.787 206.442 229.84 206.927 227.728C191.382 226.77 145.787 209.515 141.203 209.214C135.976 208.866 135.28 216.879 130.045 223.467C124.811 230.056 121.715 231.861 117.194 232.558C114.105 233.033 113.614 236.913 113.606 239.336C115.032 240.516 116.37 241.569 117.368 242.234C120.915 244.61 125.936 240.461 127.115 239.859C128.295 239.257 126.823 236.604 126.823 236.604C126.823 236.604 135.984 231.584 137.457 226.857C138.446 223.188 139.041 219.423 139.231 215.628C139.231 215.628 176.448 230.673 185.325 233.944C194.201 237.214 199.792 237.507 203.933 233.374Z" fill="#0ACBA7"/>
<path opacity="0.7" d="M203.933 233.374C205.409 231.787 206.442 229.84 206.927 227.728C191.382 226.77 145.787 209.515 141.203 209.214C135.976 208.866 135.28 216.879 130.045 223.467C124.811 230.056 121.715 231.861 117.194 232.558C114.105 233.033 113.614 236.913 113.606 239.336C115.032 240.516 116.37 241.569 117.368 242.234C120.915 244.61 125.936 240.461 127.115 239.859C128.295 239.257 126.823 236.604 126.823 236.604C126.823 236.604 135.984 231.584 137.457 226.857C138.446 223.188 139.041 219.423 139.231 215.628C139.231 215.628 176.448 230.673 185.325 233.944C194.201 237.214 199.792 237.507 203.933 233.374Z" fill="white"/>
</g>
<path d="M132.136 204.416C132.136 204.416 108.793 223.626 105.546 225.392C102.299 227.158 103.772 230.42 104.952 231.6C106.132 232.78 113.813 239.875 117.36 242.235C120.908 244.595 125.928 240.461 127.108 239.859C128.288 239.257 126.815 236.605 126.815 236.605C126.815 236.605 135.977 231.584 137.45 226.857C138.439 223.188 139.034 219.424 139.224 215.628C139.224 215.628 176.441 230.674 185.317 233.944C194.194 237.214 199.793 237.492 203.934 233.358C208.075 229.225 208.36 220.649 206.309 216.222C204.259 211.796 191.264 207.654 185.333 207.654C179.402 207.654 137.466 202.626 134.813 203.513L132.136 204.416Z" stroke="#263238" stroke-width="0.932398" stroke-linecap="round" stroke-linejoin="round"/>
<path d="M126.816 236.621L122.976 238.395" stroke="#263238" stroke-width="0.932398" stroke-linecap="round" stroke-linejoin="round"/>
<path d="M137.751 210.624L139.224 215.644L143.365 217.711L140.998 207.963L137.751 210.624Z" fill="#263238" stroke="#263238" stroke-width="0.932398" stroke-linecap="round" stroke-linejoin="round"/>
<path d="M137.308 211.805C141.143 211.805 144.252 209.358 144.252 206.341C144.252 203.323 141.143 200.877 137.308 200.877C133.472 200.877 130.363 203.323 130.363 206.341C130.363 209.358 133.472 211.805 137.308 211.805Z" fill="white" stroke="#263238" stroke-width="0.932398" stroke-linecap="round" stroke-linejoin="round"/>
<path d="M10.7773 257.875H329.673" stroke="#263238" stroke-width="0.932398" stroke-linecap="round" stroke-linejoin="round"/>
</g>
<defs>
<clipPath id="clip0_2653_261355">
<rect width="350" height="258.937" fill="white"/>
</clipPath>
</defs>
</svg>
