<svg width="48" height="49" viewBox="0 0 48 49" fill="none" xmlns="http://www.w3.org/2000/svg">
<path fill-rule="evenodd" clip-rule="evenodd" d="M11.2272 8.1766L14.3395 8.75782C15.1176 8.90782 15.6332 9.65778 15.4926 10.4359C15.3426 11.214 14.5926 11.7296 13.8146 11.5889L7.82423 10.464C7.52424 10.4077 7.25238 10.2765 7.03677 10.0609C6.68991 9.71403 6.55866 9.21718 6.64304 8.73907L7.76798 2.74874C7.91797 1.97066 8.66794 1.45506 9.44602 1.59567C10.2241 1.74567 10.7397 2.49563 10.5991 3.27372L10.2147 5.33612C14.2364 2.505 19.0362 0.986328 24.0047 0.986328C30.3888 0.986328 36.4635 3.49871 40.9726 8.01723C45.4911 12.5358 48.0035 18.6011 48.0035 24.9852C48.0035 31.3692 45.4911 37.4439 40.9726 41.9531C36.4541 46.4716 30.3888 48.984 24.0047 48.984C17.6206 48.984 11.5459 46.4716 7.03677 41.9531C4.80562 39.7219 3.04321 37.0783 1.8339 34.1628C0.624579 31.2567 0.00585938 28.135 0.00585938 24.9852C0.00585938 24.1883 0.652703 23.5415 1.44954 23.5415C2.24637 23.5415 2.89322 24.1883 2.89322 24.9852C2.89322 27.76 3.43694 30.5068 4.49626 33.066C5.55559 35.6253 7.11176 37.9595 9.07104 39.9188C13.0458 43.8936 18.38 46.106 24.0047 46.106C29.62 46.106 34.9635 43.8936 38.9383 39.9188C42.9131 35.944 45.1255 30.6099 45.1255 24.9852C45.1255 19.3698 42.9131 14.0263 38.9383 10.0515C34.9635 6.0767 29.6294 3.86431 24.0047 3.86431C19.3643 3.86431 14.8926 5.37361 11.2366 8.15785L11.2272 8.1766ZM22.561 23.1009V10.539C22.561 9.74215 23.2079 9.09531 24.0047 9.09531C24.8015 9.09531 25.4484 9.74215 25.4484 10.539V23.1009C25.5327 23.1665 25.6171 23.2321 25.6921 23.3165C26.1421 23.7665 26.3858 24.3664 26.3858 25.0039C26.3858 25.6414 26.1327 26.2413 25.6921 26.6913C25.2421 27.1413 24.6422 27.385 24.0047 27.385C23.3672 27.385 22.7672 27.1319 22.3173 26.6913C22.2423 26.6163 22.1767 26.5413 22.111 26.457L9.58664 26.6351C8.78981 26.6444 8.13359 26.007 8.12421 25.2101C8.11484 24.4133 8.75231 23.7665 9.54914 23.7571L22.0923 23.579C22.1579 23.4852 22.2329 23.4009 22.3173 23.3259C22.3923 23.2509 22.4766 23.1759 22.561 23.1102V23.1009Z" fill="#0ACBA7"/>
</svg>
