<svg width="350" height="350" fill="none" xmlns="http://www.w3.org/2000/svg"><g clip-path="url(#a)"><path d="M350 267.68H0v.175h350v-.175ZM314.93 278.942h-23.184v.175h23.184v-.175ZM231.854 280.848h-6.083v.175h6.083v-.175ZM291.046 272.446h-13.433v.175h13.433v-.175ZM66.955 273.622H36.722v.175h30.233v-.175ZM77.623 273.622h-4.43v.175h4.43v-.175ZM157.605 276.577H92.029v.175h65.576v-.175ZM165.9 236.46H30.737a4 4 0 0 1-3.99-3.997V42.462a3.997 3.997 0 0 1 3.99-3.962H165.9a3.995 3.995 0 0 1 3.997 3.997v189.966a3.994 3.994 0 0 1-3.997 3.997ZM30.737 38.64a3.822 3.822 0 0 0-3.815 3.822v190.001a3.822 3.822 0 0 0 3.815 3.822H165.9a3.833 3.833 0 0 0 2.701-1.121 3.833 3.833 0 0 0 1.121-2.701V42.462a3.83 3.83 0 0 0-3.822-3.822H30.737ZM317.317 236.46h-135.17a4.006 4.006 0 0 1-3.997-3.997V42.462a4.005 4.005 0 0 1 3.997-3.962h135.17a3.995 3.995 0 0 1 3.983 3.962v190.001a3.997 3.997 0 0 1-3.983 3.997ZM182.147 38.64a3.827 3.827 0 0 0-3.822 3.822v190.001a3.829 3.829 0 0 0 3.822 3.822h135.17a3.831 3.831 0 0 0 3.822-3.822V42.462a3.826 3.826 0 0 0-3.822-3.822h-135.17Z" fill="#EBEBEB"/><path d="M187.446 267.68h24.57v-91.511h-24.57v91.511Z" fill="#E6E6E6"/><path d="M191.534 267.681h-4.088v-8.239h8.379l-4.291 8.239Z" fill="#F0F0F0"/><path d="M287.449 267.68h24.57v-91.511h-24.57v91.511Z" fill="#E6E6E6"/><path d="M187.447 264.517h103.572V176.17H187.447v88.347Z" fill="#F0F0F0"/><path d="M190.624 204.308h97.223v-24.227h-97.223v24.227Z" fill="#E6E6E6"/><path d="M234.64 187.601h9.184c3.99 0 7.805-2.989 10.549-8.267h-30.282c2.744 5.292 6.559 8.267 10.549 8.267ZM286.93 267.681h4.088v-8.239h-8.379l4.291 8.239Z" fill="#F0F0F0"/><path d="M190.624 232.456h97.223v-24.227h-97.223v24.227Z" fill="#E6E6E6"/><path d="M234.64 215.753h9.184c3.99 0 7.805-2.989 10.549-8.267h-30.282c2.744 5.313 6.559 8.267 10.549 8.267Z" fill="#F0F0F0"/><path d="M190.624 260.602h97.223v-24.227h-97.223v24.227Z" fill="#E6E6E6"/><path d="M234.64 243.902h9.184c3.99 0 7.805-2.989 10.549-8.267h-30.282c2.744 5.278 6.559 8.267 10.549 8.267Z" fill="#F0F0F0"/><path d="M54.593 155.415h93.828V60.474H54.593v94.941Z" fill="#E6E6E6"/><path d="M48.076 155.415h98.616V60.474H48.076v94.941Z" fill="#F0F0F0"/><path d="M138.439 147.154v-78.42H56.35v78.42h82.089Z" fill="#fff"/><path d="M96.825 79.101 81.76 94.193a19.468 19.468 0 0 0 0 27.496l15.064 15.071a.788.788 0 0 0 1.12 0l15.071-15.071a19.466 19.466 0 0 0 0-27.496L97.952 79.101a.805.805 0 0 0-1.127 0Zm-13.944 41.44a17.876 17.876 0 0 1 0-25.249v25.249Zm29.015 0v-25.22a17.88 17.88 0 0 1 0 25.248v-.028Z" fill="#F0F0F0"/><path d="M284.796 143.5h-52.423l-2.989 30.954h52.423l2.989-30.954Z" fill="#E6E6E6"/><path d="m281.806 174.453-.21 1.715h-52.43l.217-1.715h52.423Z" fill="#E6E6E6"/><path d="M283.185 143.5h-52.423l-2.996 30.954h52.423l2.996-30.954Z" fill="#F0F0F0"/><path d="m279.132 172.437 2.191-26.838a.656.656 0 0 0-.651-.7h-48.195a.66.66 0 0 0-.658.602l-2.219 26.831a.663.663 0 0 0 .177.493.66.66 0 0 0 .481.207h48.195a.648.648 0 0 0 .679-.595Z" fill="#fff"/><path d="m266.532 174.453-.21 1.715h-57.729l.21-1.715h57.729Z" fill="#F0F0F0"/><path d="M196.063 126.952h98.441V61.509h-98.441v65.443Z" fill="#E6E6E6"/><path d="M193.878 126.952h98.441V61.509h-98.441v65.443Z" fill="#F5F5F5"/><path d="M288.394 122.542V65.926h-90.587v56.616h90.587Z" fill="#fff"/><path d="M199.451 122.535V65.919h-1.652v56.616h1.652Z" fill="#E6E6E6"/><path d="M195.503 115.03h95.193v-5.922h-95.193v5.922Z" fill="#F5F5F5"/><path d="M189.595 54.216h109.2a.61.61 0 0 1 .602.602.601.601 0 0 1-.602.602h-109.2a.602.602 0 1 1 0-1.204Z" fill="#E6E6E6"/><path d="M187.481 54.817a1.511 1.511 0 1 0 3.023-.002 1.511 1.511 0 0 0-3.023.002ZM293.685 58.205a.818.818 0 0 0 .819-.805v-1.75a.817.817 0 0 0-1.571-.313.8.8 0 0 0-.06.313v1.75a.82.82 0 0 0 .812.805ZM198.708 58.205a.827.827 0 0 0 .791-.805v-1.75a.817.817 0 0 0-1.571-.313.818.818 0 0 0-.06.313v1.75a.813.813 0 0 0 .84.805Z" fill="#E6E6E6"/><path opacity=".4" d="M189.791 118.398h100.905v-63.58H189.791v63.58Z" fill="#E0E0E0"/><path d="M282.458 54.817a1.513 1.513 0 0 0 2.995.295 1.519 1.519 0 0 0-.643-1.553 1.513 1.513 0 0 0-2.352 1.258Z" fill="#E6E6E6"/><path d="M139.65 263.145h8.092v-70.189h-8.092v70.189Z" fill="#F0F0F0"/><path d="M51.87 267.588h92.764v-4.445H51.87v4.445Z" fill="#F0F0F0"/><path d="M139.65 192.956H48.762v70.189h90.888v-70.189Z" fill="#F5F5F5"/><path d="M128.303 201.594H60.109a4.984 4.984 0 0 0-4.984 4.984v13.048a4.984 4.984 0 0 0 4.984 4.984h68.194a4.984 4.984 0 0 0 4.984-4.984v-13.048a4.983 4.983 0 0 0-4.984-4.984ZM128.303 231.483H60.109a4.984 4.984 0 0 0-4.984 4.984v13.048a4.984 4.984 0 0 0 4.984 4.984h68.194a4.983 4.983 0 0 0 4.984-4.984v-13.048a4.984 4.984 0 0 0-4.984-4.984Z" fill="#F0F0F0"/><path d="M77.273 214.683h33.866a1.58 1.58 0 0 0 1.582-1.575 1.588 1.588 0 0 0-1.582-1.582H77.273a1.587 1.587 0 0 0-1.582 1.582 1.58 1.58 0 0 0 1.582 1.575ZM77.273 244.573h33.866a1.585 1.585 0 0 0 1.582-1.575 1.588 1.588 0 0 0-1.582-1.582H77.273a1.59 1.59 0 0 0-1.582 1.582 1.583 1.583 0 0 0 1.582 1.575ZM174.999 299.29c74.958 0 135.723-3.547 135.723-7.924 0-4.376-60.765-7.924-135.723-7.924-74.957 0-135.723 3.548-135.723 7.924 0 4.377 60.766 7.924 135.723 7.924Z" fill="#F5F5F5"/><path d="M204.996 71.013H75.636l10.052 176.169H215.04l-10.045-176.17Z" fill="#263238"/><path d="M207.509 71.013H78.149l10.052 176.169h129.36l-10.052-176.17Z" fill="#0ACBA7"/><path opacity=".5" d="M198.597 76.936H84.063l8.212 159.467h117.508L198.597 76.935Z" fill="#000"/><path d="M84.064 76.936c8.512 53.158 2.674 106.316 11.2 159.467h117.494c-8.512-53.151-2.674-106.309-11.2-159.468H84.064Z" fill="#fff"/><path d="M108.088 124.718a10.132 10.132 0 0 1 10.038 9.681 9.206 9.206 0 0 1-2.583 6.784 9.205 9.205 0 0 1-6.699 2.799 10.043 10.043 0 0 1-9.947-9.639 9.263 9.263 0 0 1 2.541-6.783 9.134 9.134 0 0 1 6.65-2.8m-.07-2.023a11.098 11.098 0 0 0-10.464 7.214 11.095 11.095 0 0 0-.687 4.427 12.116 12.116 0 0 0 12.005 11.641 11.209 11.209 0 0 0 8.135-3.405 11.187 11.187 0 0 0 3.149-8.236 12.229 12.229 0 0 0-12.138-11.641Z" fill="#0ACBA7" opacity=".3"/><path d="M173.055 212.043h-37.1a1.944 1.944 0 0 0-1.891 1.351 1.943 1.943 0 0 0-.083.819 2.453 2.453 0 0 0 2.387 2.177h37.1a1.935 1.935 0 0 0 1.885-1.356c.084-.265.109-.545.075-.821a2.445 2.445 0 0 0-2.373-2.17ZM192.9 202.909h-57.694a1.972 1.972 0 0 0-1.914 1.347c-.09.264-.122.545-.095.823a2.38 2.38 0 0 0 2.338 2.177h57.666a1.989 1.989 0 0 0 1.499-.623 1.984 1.984 0 0 0 .531-1.533 2.371 2.371 0 0 0-2.331-2.191Z" fill="#E0E0E0"/><path d="M109.27 162.397a9.985 9.985 0 0 1 9.905 9.639 9.284 9.284 0 0 1-2.583 6.783 9.162 9.162 0 0 1-6.678 2.8 10.04 10.04 0 0 1-9.968-9.639 9.27 9.27 0 0 1 9.324-9.583Zm0-2.03a11.264 11.264 0 0 0-11.326 11.641 12.128 12.128 0 0 0 12.054 11.648 11.192 11.192 0 0 0 8.105-3.424 11.2 11.2 0 0 0 3.13-8.224 12.05 12.05 0 0 0-11.963-11.641Z" fill="#0ACBA7" opacity=".3"/><path d="M152.462 131.941h-19.846a2.275 2.275 0 0 1-2.254-2.177 2.1 2.1 0 0 1 2.1-2.17h19.839a2.284 2.284 0 0 1 2.267 2.17 2.096 2.096 0 0 1-2.106 2.177ZM175.365 131.941h-13.44a2.283 2.283 0 0 1-2.261-2.177 2.1 2.1 0 0 1 2.1-2.17h13.447a2.28 2.28 0 0 1 2.261 2.17 2.102 2.102 0 0 1-2.107 2.177ZM186.201 141.076h-53.27a2.26 2.26 0 0 1-2.247-2.177 2.096 2.096 0 0 1 1.28-2.003c.259-.11.538-.167.82-.167h53.263a2.257 2.257 0 0 1 2.24 2.17 2.098 2.098 0 0 1-1.269 2.007 2.087 2.087 0 0 1-.817.17Z" fill="#E0E0E0"/><path d="M110.789 200.031a10.608 10.608 0 0 1 10.36 9.646 8.84 8.84 0 0 1-.378 3.616 8.842 8.842 0 0 1-1.799 3.16 8.549 8.549 0 0 1-6.482 2.8 10.812 10.812 0 0 1-10.57-9.639 8.726 8.726 0 0 1 .415-3.636 8.723 8.723 0 0 1 1.867-3.147 8.864 8.864 0 0 1 6.587-2.8Zm-.098-2.023a10.645 10.645 0 0 0-8.008 3.401 10.63 10.63 0 0 0-2.793 8.24c.539 6.426 6.37 11.641 12.796 11.641 6.426 0 11.032-5.215 10.5-11.641a12.771 12.771 0 0 0-12.488-11.641h-.007Z" fill="#0ACBA7" opacity=".3"/><path d="M195.301 174.391h-61.467a2.106 2.106 0 0 0-1.511.639 2.1 2.1 0 0 0-.589 1.531 2.268 2.268 0 0 0 2.247 2.17h61.495a2.106 2.106 0 0 0 1.96-1.345c.102-.263.149-.544.14-.825a2.253 2.253 0 0 0-2.275-2.17ZM180.733 165.249h-47.166a2.112 2.112 0 0 0-1.513.642 2.1 2.1 0 0 0-.587 1.535 2.247 2.247 0 0 0 2.233 2.17h47.173a2.097 2.097 0 0 0 2.1-2.17 2.237 2.237 0 0 0-2.24-2.177Z" fill="#E0E0E0"/><path d="m109.151 141.203-.826-1.358c-1.813-2.961-5.6-5.6-6.902-6.377l.98-1.736a26.766 26.766 0 0 1 6.776 5.852c2.975-3.997 7.322-8.106 13.209-12.544l1.267 1.638c-6.3 4.739-10.766 9.1-13.629 13.251-.287.427-.581.854-.875 1.274ZM110.201 178.862c-.273-.455-.553-.91-.833-1.358-1.82-2.961-5.6-5.6-6.888-6.384l.994-1.736a26.84 26.84 0 0 1 6.741 5.852c2.982-3.99 7.364-8.106 13.342-12.544l1.239 1.638c-6.384 4.739-10.878 9.1-13.727 13.251l-.868 1.281ZM112.603 216.607l-.924-1.358c-2.016-2.961-5.922-5.6-7.266-6.377l.91-1.736a29.464 29.464 0 0 1 7.063 5.845c2.744-3.99 6.916-8.106 12.712-12.537l1.309 1.638c-6.188 4.739-10.437 9.1-13.02 13.251l-.784 1.274ZM156.871 90.3a461.836 461.836 0 0 1-3.787 8.057 17.33 17.33 0 0 1 9.548 14.056h9.303c-.616-9.513-6.734-17.794-15.064-22.113Z" fill="#0ACBA7"/><path d="M121.431 112.426h9.303a14.82 14.82 0 0 1 6.468-13.56 700.91 700.91 0 0 0-5.516-8.063c-6.79 4.396-10.85 12.453-10.255 21.623Z" fill="#263238"/><path d="M144.285 87.177a22.916 22.916 0 0 0-12.6 3.626 700.91 700.91 0 0 1 5.516 8.064 14.697 14.697 0 0 1 8.162-2.394c2.68.015 5.319.665 7.7 1.897a598.307 598.307 0 0 0 3.787-8.057 27.445 27.445 0 0 0-12.565-3.136Z" fill="#0ACBA7"/><path opacity=".5" d="M144.285 87.177a22.916 22.916 0 0 0-12.6 3.626 700.91 700.91 0 0 1 5.516 8.064 14.697 14.697 0 0 1 8.162-2.394c2.68.015 5.319.665 7.7 1.897a598.307 598.307 0 0 0 3.787-8.057 27.445 27.445 0 0 0-12.565-3.136Z" fill="#263238"/><path d="M155.653 106.057s-9.394 3.843-10.388 4.543a2.215 2.215 0 0 0-.868 1.501 2.226 2.226 0 0 0 .469 1.67 2.346 2.346 0 0 0 3.206.609c1.029-.742 7.595-8.323 7.581-8.323Zm-9.87 7a1.118 1.118 0 0 1-.199-.388 1.115 1.115 0 0 1 .107-.847c.073-.127.171-.238.288-.326a1.166 1.166 0 0 1 1.582.301 1.097 1.097 0 0 1-.196 1.561 1.173 1.173 0 0 1-1.582-.273v-.028Z" fill="#263238"/><path d="M166.789 101.611a2.975 2.975 0 0 1-.764 2.336 2.986 2.986 0 0 1-2.26.968 3.678 3.678 0 0 1-3.584-3.304 2.966 2.966 0 0 1 1.769-3.055 2.96 2.96 0 0 1 1.227-.242 3.698 3.698 0 0 1 3.612 3.297Z" fill="#fff"/><path d="M162.694 100.855a.468.468 0 0 1-.121.369.488.488 0 0 1-.355.156.58.58 0 0 1-.574-.525.468.468 0 0 1 .476-.525.58.58 0 0 1 .574.525ZM165.201 100.855a.472.472 0 0 1-.483.525.598.598 0 0 1-.574-.525.468.468 0 0 1 .483-.525.581.581 0 0 1 .574.525ZM163.639 103.599a2.808 2.808 0 0 1-1.869-.735.26.26 0 0 1 .182-.442c.034 0 .068.007.099.02a.24.24 0 0 1 .083.058c.414.381.956.596 1.519.602.262.005.521-.044.763-.145.241-.102.458-.253.637-.443a.257.257 0 0 1 .282-.065.266.266 0 0 1 .086.054.26.26 0 0 1 .01.368 2.37 2.37 0 0 1-1.792.728Z" fill="#263238"/><path d="M148.134 91.77a2.904 2.904 0 0 1-2.94 3.304 3.787 3.787 0 0 1-3.668-3.304 2.87 2.87 0 0 1 2.912-3.297 3.82 3.82 0 0 1 3.696 3.297Z" fill="#fff"/><path d="M144.018 91a.465.465 0 0 1-.269.485.464.464 0 0 1-.193.04.61.61 0 0 1-.588-.525.454.454 0 0 1 .462-.525.602.602 0 0 1 .588.525ZM146.518 91a.457.457 0 0 1-.274.487.46.46 0 0 1-.195.038.617.617 0 0 1-.588-.525.473.473 0 0 1 .113-.371.47.47 0 0 1 .356-.154.61.61 0 0 1 .588.525ZM146.587 93.098h-3.276a.265.265 0 0 1-.16-.435.268.268 0 0 1 .16-.09h3.276a.268.268 0 0 1 .223.263.27.27 0 0 1-.063.172.268.268 0 0 1-.16.09Z" fill="#263238"/><path d="M131.51 101.611a2.975 2.975 0 0 1-.765 2.336 2.973 2.973 0 0 1-2.259.968 3.674 3.674 0 0 1-3.584-3.304 2.962 2.962 0 0 1 2.996-3.297 3.704 3.704 0 0 1 3.612 3.297Z" fill="#fff"/><path d="M127.4 100.855a.468.468 0 0 1-.121.369.488.488 0 0 1-.355.156.58.58 0 0 1-.574-.525.468.468 0 0 1 .476-.525.58.58 0 0 1 .574.525ZM129.907 100.855a.462.462 0 0 1-.118.371.464.464 0 0 1-.358.154.593.593 0 0 1-.574-.525.468.468 0 0 1 .476-.525.572.572 0 0 1 .574.525ZM126.701 103.598a.239.239 0 0 1-.175-.07.258.258 0 0 1 0-.364 2.4 2.4 0 0 1 1.771-.756 2.806 2.806 0 0 1 1.869.742.262.262 0 0 1 .078.182.241.241 0 0 1-.021.099.241.241 0 0 1-.057.083.274.274 0 0 1-.371 0 2.245 2.245 0 0 0-1.526-.602 1.873 1.873 0 0 0-1.4.581.27.27 0 0 1-.168.105ZM179.719 77.391c-2.184-4.599-7.28-7.644-12.775-7.644h-11.2a4.366 4.366 0 0 1-3.885-2.03c-1.561-2.926-5.285-5.012-9.513-5.012s-7.7 2.1-8.932 5.012c-.511 1.232-1.974 2.03-3.654 2.03h-11.2c-5.495 0-10.248 3.045-11.9 7.644-.061.16-.085.333-.07.504a1.403 1.403 0 0 0 1.4 1.33h70.616a1.258 1.258 0 0 0 1.074-.603 1.255 1.255 0 0 0 .039-1.23Zm-36.918-6.377a3.347 3.347 0 0 1-3.269-3.115 2.922 2.922 0 0 1 .788-2.202 2.913 2.913 0 0 1 2.152-.913 3.34 3.34 0 0 1 3.297 3.115 2.903 2.903 0 0 1-.796 2.213 2.92 2.92 0 0 1-2.172.902Z" fill="#263238"/><path d="M252.295 286.378a2.243 2.243 0 0 1-1.554-.385.482.482 0 0 1-.049-.532.516.516 0 0 1 .357-.287c.826-.231 2.737.791 2.8.84a.12.12 0 0 1 .056.051.13.13 0 0 1 .014.075.107.107 0 0 1-.026.063.106.106 0 0 1-.058.035 9.149 9.149 0 0 1-1.54.14Zm-.924-.994a.746.746 0 0 0-.231 0 .306.306 0 0 0-.224.168c-.07.154 0 .231 0 .273.28.329 1.582.336 2.52.203a6.062 6.062 0 0 0-2.065-.644Z" fill="#0ACBA7"/><path d="M253.834 286.237h-.049c-.651-.28-2.009-1.4-1.981-1.974 0-.14.084-.308.42-.343a.987.987 0 0 1 .7.21 3.95 3.95 0 0 1 1.022 1.981.118.118 0 0 1 .013.056.124.124 0 0 1-.013.056.133.133 0 0 1-.054.021.127.127 0 0 1-.058-.007Zm-1.491-2.1h-.07c-.217 0-.224.105-.224.133 0 .35.917 1.225 1.596 1.603a3.26 3.26 0 0 0-.861-1.582.693.693 0 0 0-.441-.14v-.014Z" fill="#0ACBA7"/><path d="M259.476 286.118h-5.145l-1.841-11.914h5.145l1.841 11.914Z" fill="#FFC3BD"/><path d="M254.297 285.522h5.6a.516.516 0 0 1 .476.35l1.526 4.571a.696.696 0 0 1-.094.613.709.709 0 0 1-.543.297c-2.03 0-4.97-.147-7.518-.147-2.975 0-2.709.161-6.202.161-2.1 0-2.933-2.135-2.1-2.331 3.927-.875 4.382-.973 7.616-3.115a2.166 2.166 0 0 1 1.239-.399Z" fill="#263238"/><path opacity=".2" d="m252.49 274.211.952 6.139h5.145l-.952-6.139h-5.145Z" fill="#000"/><path d="m258.889 157.815-3.5 3.535 5.362 1.897s2.1-2.884.623-4.858l-2.485-.574Z" fill="#FFC3BD"/><path d="m254.213 166.292 5.355.784 1.197-3.829-5.362-1.897-1.19 4.942Z" fill="#FFC3BD"/><path d="M261.227 114.289c.455.98.819 1.813 1.183 2.723.364.91.7 1.785 1.05 2.681a89.884 89.884 0 0 1 1.813 5.488 58.227 58.227 0 0 1 1.4 5.705l.266 1.47.217 1.498c.077.497.126 1.015.168 1.526.042.511.112.973.112 1.617v1.715l-.042.791-.077.749c-.091 1.008-.224 1.953-.35 2.912-.28 1.89-.602 3.738-.959 5.6-.742 3.661-1.554 7.238-2.534 10.843l-6.377-1.26c.406-3.556.826-7.168 1.162-10.724.161-1.778.336-3.549.434-5.285.042-.854.091-1.722.091-2.541V138.047l-.049-.462a10.68 10.68 0 0 0-.154-1.099c-.063-.392-.119-.784-.21-1.183l-.259-1.197-.301-1.204a72.265 72.265 0 0 0-1.484-4.844 89.71 89.71 0 0 0-1.841-4.823 65.898 65.898 0 0 0-1.008-2.387c-.35-.784-.7-1.603-1.043-2.282l8.792-4.277Z" fill="#263238"/><path d="M237.056 155.31s.854 39.368 3.164 55.048c2.408 16.31 11.2 68.803 11.2 68.803h8.708s-3.122-49.959-4.116-66.01c-1.085-17.5-.847-57.841-.847-57.841h-18.109Z" fill="#0ACBA7"/><path d="M249.327 275.688c-.042 0 .896 3.619.896 3.619h10.598l-.077-3.228-11.417-.391ZM235.092 91.49c.027-.436-.183-.804-.468-.821-.286-.018-.539.321-.566.757-.026.436.183.804.469.822.285.017.539-.322.565-.758Z" fill="#263238"/><path d="M234.879 92.245a16.259 16.259 0 0 1-2.212 3.724 2.464 2.464 0 0 0 2.065.392l.147-4.116Z" fill="#ED847E"/><path d="M236.727 89.04a.296.296 0 0 1-.154-.042 1.977 1.977 0 0 0-1.799-.336.255.255 0 0 1-.277-.062.24.24 0 0 1-.066-.185.256.256 0 0 1 .087-.178.258.258 0 0 1 .088-.05 2.483 2.483 0 0 1 2.282.391.257.257 0 0 1 .096.169.258.258 0 0 1-.047.188.273.273 0 0 1-.21.105Z" fill="#263238"/><path d="M248.71 96.263c-.868 3.766-1.848 10.661.7 13.167 0 0-1.162 3.815-8.155 3.815-7.7 0-3.535-3.815-3.535-3.815 4.2-1.001 4.235-4.109 3.605-7.035l7.385-6.132Z" fill="#FFC3BD"/><path d="M252.12 111.195c.756-1.533 1.589-3.297 0-3.843-1.736-.609-11.333-1.225-14.7-.091a3.503 3.503 0 0 0-2.527 4.256l17.227-.322Z" fill="#0ACBA7"/><path d="M259.483 110.907c4.431 2.044 6.685 17.542 6.685 17.542l-8.925 2.8a90.757 90.757 0 0 1-3.871-12.6c-1.372-6.468 1.575-9.828 6.111-7.742Z" fill="#263238"/><path d="m204.631 135.023-4.115-3.542-3.704 5.39s3.326 2.667 7.001 1.575l.818-3.423ZM195.09 129.766l-.567 5.327 2.289 1.778 3.703-5.39-5.425-1.715ZM249.656 90.53c-.518 5.348-.553 8.498-3.353 11.242a6.996 6.996 0 0 1-11.802-3.66c-.98-4.803 0-12.74 5.341-14.869a7.06 7.06 0 0 1 9.276 3.676 7.064 7.064 0 0 1 .538 3.611Z" fill="#FFC3BD"/><path d="M238.701 92.246c-.469-3.696-.392-5.096 1.582-5.915-2.051-.406-3.829-.462-4.676-1.66-.847-1.196-1.05-4.255 3.066-5.655-.378.7.819 2.156 4.606.84 3.787-1.316 9.303-1.456 9.8 2.394 2.002-.7 5.355 5.48 1.4 9.996-3.297 3.78-5.495 6.39-6.146 8.4a.72.72 0 0 1-.147.254.697.697 0 0 1-.812.166c-1.365-.637-3.808-.091-4.9.203a.7.7 0 0 1-.798-.357c-.707-1.456-2.618-5.614-2.975-8.666Z" fill="#263238"/><path d="M252.336 82.719s1.624-2.29 4.739-.588a14.115 14.115 0 0 0-4.739.588Z" fill="#263238"/><path d="M252.603 83.21s2.261-1.4.497-4.04a10.174 10.174 0 0 1-.497 4.04Z" fill="#263238"/><path d="M241.318 92.398a6.406 6.406 0 0 1-1.876 3.465c-1.295 1.225-2.415.357-2.45-1.218-.035-1.4.595-3.766 2.1-4.396 1.505-.63 2.492.567 2.226 2.15Z" fill="#FFC3BD"/><path opacity=".3" d="M237.776 177.185c.504 11.746 1.295 25.382 2.443 33.173.441 2.968 1.085 7.126 1.855 11.949 3.094-16.884 4.942-38.64-4.298-45.122Z" fill="#000"/><path d="M233.919 286.378c-.658 0-1.295-.091-1.498-.385a.478.478 0 0 1 0-.532.699.699 0 0 1 .399-.287c.861-.231 2.625.791 2.702.84a.102.102 0 0 1 .048.054.105.105 0 0 1 .001.072.126.126 0 0 1-.098.098 9.521 9.521 0 0 1-1.554.14Zm-.777-.994a.791.791 0 0 0-.238 0 .36.36 0 0 0-.245.168c-.091.154-.063.231-.035.273.231.329 1.526.336 2.492.203a5.305 5.305 0 0 0-1.974-.644Z" fill="#0ACBA7"/><path d="M235.481 286.235h-.049c-.609-.28-1.806-1.4-1.687-1.974 0-.14.126-.308.462-.343a.902.902 0 0 1 .7.21c.637.539.7 1.925.7 1.981a.146.146 0 0 1-.016.062.14.14 0 0 1-.04.05.132.132 0 0 1-.07.014Zm-1.183-2.1h-.07c-.224 0-.238.105-.245.133-.07.35.735 1.225 1.358 1.603a2.807 2.807 0 0 0-.623-1.582.646.646 0 0 0-.42-.14v-.014Z" fill="#0ACBA7"/><path d="M241.136 286.118h-5.138l-.098-11.914h5.145l.091 11.914Z" fill="#FFC3BD"/><path d="M236.048 285.523h5.6a.418.418 0 0 1 .42.35l.861 4.571a.787.787 0 0 1-.016.338.793.793 0 0 1-.43.503.77.77 0 0 1-.331.068c-2.023 0-4.949-.147-7.49-.147-2.982 0-5.558.161-9.051.161-2.1 0-2.618-2.135-1.729-2.331 4.053-.875 7.343-.973 10.892-3.115.38-.246.821-.383 1.274-.398Z" fill="#263238"/><path opacity=".2" d="m235.907 274.211.042 6.139h5.145l-.042-6.139h-5.145Z" fill="#000"/><path d="M227.878 155.31s-2.1 38.451-2.058 54.131c0 16.31 8.26 69.72 8.26 69.72h8.708s-2.268-52.458-1.288-68.46c1.043-17.5 6.097-55.377 6.097-55.377l-19.719-.014Z" fill="#0ACBA7"/><path d="M232.527 275.688c-.042 0 .357 3.619.357 3.619h10.598l.406-3.228-11.361-.391ZM229.755 110.859s-8.764 22.141-4.949 60.41h32.004c.336-4.2-3.01-40.782 1.764-60.676a70.9 70.9 0 0 0-9.17-1.162 101.763 101.763 0 0 0-11.69 0c-2.686.27-5.347.747-7.959 1.428Z" fill="#263238"/><path opacity=".2" d="M225.226 130.899c-.476 3.5-.868 7.497-1.12 11.9 6.216-5.712 8.344-19.943 8.344-19.943l-7.224 8.043Z" fill="#000"/><path d="M233.051 121.4c-1.26 3.276-2.534 6.433-3.934 9.604-1.4 3.171-2.849 6.3-4.48 9.436l-.637 1.169-.322.588c-.133.238-.119.252-.483.861a6.835 6.835 0 0 1-2.527 2.352 7.519 7.519 0 0 1-2.737.826 11.504 11.504 0 0 1-3.92-.315 21.646 21.646 0 0 1-2.968-.966 38.59 38.59 0 0 1-5.019-2.52c-.791-.455-1.547-.945-2.296-1.4-.749-.455-1.428-1.036-2.233-1.596l3.78-5.796a49.16 49.16 0 0 0 8.505 3.689c.625.194 1.264.339 1.911.434.369.079.751.079 1.12 0 .042 0-.091-.042-.322.077a1.897 1.897 0 0 0-.7.616c-.147.245.042-.119.105-.259l.252-.553.504-1.099c1.33-2.968 2.562-6.041 3.759-9.1a257.886 257.886 0 0 0 3.43-9.338l9.212 3.29Z" fill="#263238"/><path d="M236.53 113.183c1.638 4.578-9.954 23.009-9.954 23.009l-6.874-6.811s1.757-5.789 4.074-12.761c2.282-6.853 11.193-7.812 12.754-3.437Z" fill="#263238"/></g><defs><clipPath id="a"><path fill="#fff" d="M0 0h350v350H0z"/></clipPath></defs></svg>