<svg width="350" height="350" fill="none" xmlns="http://www.w3.org/2000/svg"><g clip-path="url(#a)"><g clip-path="url(#b)"><path d="M386.694 287.113H-36.693v.212h423.387v-.212ZM57.858 294.219H29.813v.211h28.045v-.211ZM101.755 300.323H76.208v.212h25.547v-.212ZM43.835 302.075h-32.39v.212h32.39v-.212ZM344.27 301.619h-13.464v.212h13.464v-.212ZM328.089 301.619h-33.296v.212h33.296v-.212ZM200.683 294.109H175v.212h25.683v-.212ZM265.411 294.109h-61.053v.212h61.053v-.212ZM163.992 249.348H.488a4.837 4.837 0 0 1-4.826-4.835V14.673A4.835 4.835 0 0 1 .488 9.88h163.504a4.836 4.836 0 0 1 4.835 4.835v229.798a4.836 4.836 0 0 1-4.835 4.835ZM.488 10.049a4.624 4.624 0 0 0-4.615 4.624v229.84a4.624 4.624 0 0 0 4.615 4.623h163.504a4.632 4.632 0 0 0 4.623-4.623V14.673a4.632 4.632 0 0 0-4.623-4.624H.488ZM347.157 249.348H183.645a4.846 4.846 0 0 1-4.835-4.835V14.673a4.842 4.842 0 0 1 4.835-4.793h163.512a4.835 4.835 0 0 1 4.818 4.793v229.84a4.833 4.833 0 0 1-4.818 4.835ZM183.645 10.049a4.634 4.634 0 0 0-4.623 4.624v229.84a4.63 4.63 0 0 0 4.623 4.623h163.512a4.63 4.63 0 0 0 4.624-4.623V14.673a4.633 4.633 0 0 0-4.624-4.624H183.645Z" fill="#EBEBEB"/><path d="M211.742 188.727H187.38v98.386h24.362v-98.386Z" fill="#E6E6E6"/><path d="M201.614 287.114h10.127v-16.969h-20.746l10.619 16.969Z" fill="#F5F5F5"/><path d="M35.807 188.727H11.446v98.386h24.361v-98.386Z" fill="#E6E6E6"/><path d="M211.733 188.727H26.967v92.544h184.766v-92.544Z" fill="#F5F5F5"/><path d="M204.307 217.135H34.436v-20.238h169.871v20.238Zm-169.025-.846H203.46v-18.545H35.282v18.545Z" fill="#EBEBEB"/><path d="M37.094 287.114H26.967v-16.969h20.746l-10.619 16.969Z" fill="#F5F5F5"/><path d="M204.307 273.1H34.436v-48.266h169.871V273.1Zm-169.025-.847H203.46v-46.572H35.282v46.572Z" fill="#EBEBEB"/><path d="M308.68 29.795H116.141v133.333H308.68V29.795Z" fill="#E6E6E6"/><path d="M312.22 29.795H119.681v133.333H312.22V29.795Z" fill="#F5F5F5"/><path d="M305.861 156.405V36.535h-179.83v119.87h179.83Z" fill="#fff"/><path d="M305.869 156.398V36.528h-2.676v119.87h2.676Z" fill="#E6E6E6"/><path d="M309.587 47.266H122.306v4.521h187.281v-4.521Z" fill="#F5F5F5"/><g opacity=".5" fill="#F0F0F0"><path d="M309.07 25.342h-7.604v148.092h7.604V25.342ZM299.409 25.342h-7.604v148.092h7.604V25.342ZM289.748 25.342h-7.604v148.092h7.604V25.342ZM280.094 25.342h-7.604v148.092h7.604V25.342ZM270.433 25.342h-7.604v148.092h7.604V25.342ZM260.771 25.342h-7.604v148.092h7.604V25.342ZM251.118 25.342h-7.604v148.092h7.604V25.342ZM241.456 25.342h-7.604v148.092h7.604V25.342ZM231.793 25.342h-7.604v148.092h7.604V25.342ZM222.132 25.342h-7.604v148.092h7.604V25.342ZM212.48 25.342h-7.604v148.092h7.604V25.342ZM202.817 25.342h-7.604v148.092h7.604V25.342ZM193.156 25.342h-7.604v148.092h7.604V25.342ZM183.494 25.342h-7.604v148.092h7.604V25.342ZM173.841 25.342h-7.604v148.092h7.604V25.342Z"/></g><path d="M71.906 45.723H16.103V147.2h55.803V45.723Z" fill="#F0F0F0"/><path d="M83.887 45.723H19.702V147.2h64.185V45.723Z" fill="#F5F5F5"/><path d="M22.318 48.128v96.668h58.953V48.128H22.318Z" fill="#fff"/><path d="M38.034 67.368v58.19a2.338 2.338 0 0 0 2.337 2.338h22.855a2.338 2.338 0 0 0 2.337-2.338v-58.19a2.337 2.337 0 0 0-2.337-2.337H40.37a2.337 2.337 0 0 0-2.337 2.337Z" fill="#F5F5F5"/><path d="m288.391 130.368 11.415 28.13c-.33 81.367 3.345 86.058 3.387 100.055h-28.79c-1.067-68.106 9.035-52.797 13.988-128.185Z" fill="#EBEBEB"/><path d="M304.481 213.461c-23.193-63.855-76.591-44.083-74.194-20.805 2.396 23.278 87.531 57.53 74.194 20.805Z" fill="#EBEBEB"/><path d="M295.708 250.279c-12.651-41.145-46.302-34.43-46.302-15.522 0 18.909 53.584 39.189 46.302 15.522ZM294.81 176c-19.865-55.04-69.342-47.419-65.354-24.226 3.988 23.193 76.794 55.862 65.354 24.226Z" fill="#EBEBEB"/><path d="M294.946 151.335c1.837-37.478-35.277-52.907-32.703-30.484 2.574 22.423 31.644 52.034 32.703 30.484ZM292.176 189.702c7.833-46.183 55.396-63.745 50.079-37.606-5.318 26.14-54.592 64.169-50.079 37.606Z" fill="#EBEBEB"/><path d="M288.172 163.595c-9.239-48.427 33.489-69.943 34.717-46.572 1.228 23.371-29.408 74.423-34.717 46.572ZM284.463 218.296c18.874-46.666 59.274-35.091 55.218-13.853-4.056 21.237-66.074 40.696-55.218 13.853Z" fill="#EBEBEB"/><path d="M293.777 250.879c-.423-30.103 26.911-37.884 27.233-20.441.321 17.444-26.987 37.758-27.233 20.441Z" fill="#EBEBEB"/><path d="M285.428 287.324a31.446 31.446 0 0 1-30.781-24.557 64.207 64.207 0 0 0-3.209-11.008l-.229-.575h68.445l-.237.575a64.182 64.182 0 0 0-3.201 11.008 31.45 31.45 0 0 1-30.788 24.557Z" fill="#E0E0E0"/><path d="M175 325.353c90.675 0 164.181-4.292 164.181-9.586 0-5.294-73.506-9.585-164.181-9.585-90.675 0-164.181 4.291-164.181 9.585 0 5.294 73.506 9.586 164.181 9.586Z" fill="#F5F5F5"/><path d="m72.854 144.466-.534-.652a56.424 56.424 0 0 1 6.944-4.843l.432.736a55.779 55.779 0 0 0-6.842 4.759ZM55.46 168.667l-.787-.296a58.174 58.174 0 0 1 13.27-20.619l.6.601a57.433 57.433 0 0 0-13.082 20.314Z" fill="#0ACBA7"/><path d="M219.515 205.985a45.122 45.122 0 0 0-20.038-37.114 45.12 45.12 0 0 0-41.955-4.336 54.512 54.512 0 0 0-55.384-30.229 54.511 54.511 0 0 0-46.821 42.296 46.91 46.91 0 0 0-43.934 48.347 46.912 46.912 0 0 0 46.99 45.382h149.304a33.264 33.264 0 0 0 29.027-49.58 33.266 33.266 0 0 0-17.172-14.775l-.017.009Z" fill="#0ACBA7"/><path d="M185.932 190.828H66.452a3.684 3.684 0 0 1-3.667-3.675 3.674 3.674 0 0 1 3.667-3.667h119.48a3.673 3.673 0 0 1 3.666 3.667 3.682 3.682 0 0 1-3.666 3.675Z" fill="#263238"/><path d="M167.913 240.448H84.472a12.33 12.33 0 0 1 0-24.658h83.441a12.33 12.33 0 1 1 0 24.658Zm-83.441-23.811a11.484 11.484 0 0 0-8.12 19.601 11.48 11.48 0 0 0 8.12 3.363h83.441a11.479 11.479 0 0 0 11.482-11.482 11.483 11.483 0 0 0-11.482-11.482H84.472Z" fill="#fff"/><path d="M103.964 237.485H84.488a9.399 9.399 0 0 1-9.408-9.365 9.398 9.398 0 0 1 9.365-9.374h19.476a9.402 9.402 0 0 1 9.366 9.374 9.4 9.4 0 0 1-9.323 9.365Z" fill="#fff"/><path d="m189.344 119.648-15.843 67.505H78.984L105.42 74.489l65.447 15.352 18.477 29.807Z" fill="#0ACBA7"/><path opacity=".8" d="m189.344 119.648-15.843 67.505H78.984L105.42 74.489l65.447 15.352 18.477 29.807Z" fill="#FAFAFA"/><path d="m177.015 132.196-71.789-16.851a1.904 1.904 0 0 1-1.457-1.555 1.924 1.924 0 0 1 2.329-2.187l71.798 16.825a1.93 1.93 0 0 1 .575 3.516 1.936 1.936 0 0 1-1.456.252ZM174.272 143.881l-71.79-16.85a1.922 1.922 0 0 1 .881-3.743l71.789 16.851a1.92 1.92 0 0 1 .573 3.5 1.932 1.932 0 0 1-1.453.242ZM171.528 155.525l-71.79-16.843a1.931 1.931 0 0 1-1.43-2.312 1.939 1.939 0 0 1 2.311-1.431l71.79 16.843a1.92 1.92 0 0 1 1.457 1.562 1.934 1.934 0 0 1-.886 1.944 1.928 1.928 0 0 1-1.452.237ZM168.793 167.244l-71.798-16.8a1.942 1.942 0 0 1-1.431-2.312 1.932 1.932 0 0 1 2.312-1.431l71.789 16.842a1.937 1.937 0 0 1 1.44 2.312 1.924 1.924 0 0 1-2.312 1.389ZM137.505 172.232 94.26 162.071a1.92 1.92 0 0 1-1.397-2.312 1.918 1.918 0 0 1 1.555-1.457c.248-.04.503-.031.748.026l43.253 10.162a1.9 1.9 0 0 1 .683.311 1.909 1.909 0 0 1 .748 2 1.91 1.91 0 0 1-.872 1.209 1.92 1.92 0 0 1-1.473.222ZM189.345 119.647l-24.142-5.665 5.665-24.141 18.477 29.806Z" fill="#0ACBA7"/><path d="m205.56 183.748-20.069 132.021h3.963l2.651-17.469h51.128l-2.651 17.469h3.963l20.069-132.021H205.56Zm38.206 111.055h-51.128l2.854-18.731h51.128l-2.854 18.731Zm3.387-22.228h-51.136l2.853-18.731h51.128l-2.845 18.731Zm3.387-22.228h-51.145l2.854-18.731h51.128l-2.837 18.731Zm3.387-22.228h-51.145l2.846-18.739h51.128l-2.829 18.739Zm-47.766-22.236 2.845-18.731h51.128l-2.845 18.731h-51.128Z" fill="#263238"/><path d="M272.87 183.748h-59.054l20.068 132.021h3.963l-2.659-17.469h51.129l2.659 17.469h3.963L272.87 183.748Zm-54.575 3.387h51.129l2.845 18.731h-51.128l-2.846-18.731Zm3.387 22.228h51.12l2.845 18.739h-51.128l-2.837-18.739Zm3.388 22.236h51.128l2.828 18.765h-51.128l-2.828-18.765Zm3.387 22.228h51.128l2.845 18.731h-51.154l-2.819-18.731Zm6.223 40.959-2.845-18.731h51.129l2.845 18.731H234.68Z" fill="#263238"/><path opacity=".4" d="M272.87 183.748h-59.054l20.068 132.021h3.963l-2.659-17.469h51.129l2.659 17.469h3.963L272.87 183.748Zm-54.575 3.387h51.129l2.845 18.731h-51.128l-2.846-18.731Zm3.387 22.228h51.12l2.845 18.739h-51.128l-2.837-18.739Zm3.388 22.236h51.128l2.828 18.765h-51.128l-2.828-18.765Zm3.387 22.228h51.128l2.845 18.731h-51.154l-2.819-18.731Zm6.223 40.959-2.845-18.731h51.129l2.845 18.731H234.68Z" fill="#fff"/><path d="M247.568 55.248c1.693 1.304 3.184 2.608 4.725 3.963a110.371 110.371 0 0 1 4.471 4.175 94.014 94.014 0 0 1 8.264 9.246l.949 1.279.474.635c.268.374.508.768.72 1.177a11.343 11.343 0 0 1 1.168 4.386 22.755 22.755 0 0 1-.72 6.986 47.193 47.193 0 0 1-4.691 11.686l-4.327-1.762a82.224 82.224 0 0 0 1.838-11.1c.16-1.612.109-3.238-.153-4.836a3.34 3.34 0 0 0-.499-1.278c-.043-.043-.06-.043-.085-.068l-.457-.517-.915-1.041a132.706 132.706 0 0 0-8.044-7.994 316.45 316.45 0 0 0-8.603-7.57l5.885-7.367Z" fill="#7F3E3B"/><path d="m260.32 95.277-4.869 3.387 5.928 3.591s3.056-2.922 1.744-5.631l-2.803-1.347Z" fill="#7F3E3B"/><path d="m253.03 104.226 4.488 2.515 3.895-4.53-5.961-3.582-2.422 5.597Z" fill="#7F3E3B"/><path d="M214.417 37.552c.135.55-.042 1.067-.398 1.16-.356.093-.762-.28-.906-.847-.144-.567.042-1.067.398-1.16.355-.093.762.27.906.847Z" fill="#263238"/><path d="M214.425 38.61a20.127 20.127 0 0 1-1.414 5.351 3.28 3.28 0 0 0 2.744-.178l-1.33-5.174Z" fill="#630F0F"/><path d="M215.577 34.021a.33.33 0 0 1-.203 0 2.658 2.658 0 0 0-2.396.161.33.33 0 0 1-.381-.533 3.284 3.284 0 0 1 3.023-.246.332.332 0 0 1 .13.518.33.33 0 0 1-.173.109v-.009Z" fill="#263238"/><path d="M231.775 39.093c.788 5.165 1.897 13.082 6.436 15.08 0 0 .44 5.37-8.527 8.596-9.857 3.548-6.47-3.193-6.47-3.193 4.92-3.226 3.345-7.163 1.059-10.576l7.502-9.907Z" fill="#7F3E3B"/><path d="M239.058 53.065c0-1.617-1.651-4.42-3.32-4.234-1.837.212-8.848 2.794-11.406 5.157-2.557 2.362-.745 6.503-.745 6.503l15.471-7.426Z" fill="#263238"/><path d="M293.124 248.839c-.44.458-.939.847-1.329.788-.169 0-.389-.119-.5-.491a.687.687 0 0 1 .077-.568c.474-.804 2.54-1.219 2.599-1.236a.154.154 0 0 1 .153.059.163.163 0 0 1 0 .161 7.884 7.884 0 0 1-1 1.287Zm-1.388-.262a.61.61 0 0 0-.119.144.437.437 0 0 0-.056.16.424.424 0 0 0 .014.17c.085.262.212.279.254.288.432.051 1.321-.847 1.854-1.634a4.76 4.76 0 0 0-1.947.872Z" fill="#0ACBA7"/><path d="M294.107 247.576a.151.151 0 0 1-.06.043c-.702.22-2.54.161-2.955-.415a.498.498 0 0 1-.078-.309.497.497 0 0 1 .129-.292.8.8 0 0 1 .576-.322c.923-.11 2.32 1.033 2.379 1.084a.141.141 0 0 1 .051.135.159.159 0 0 1-.042.076Zm-2.685-.846-.042.05c-.118.153-.068.221-.042.255.237.338 1.532.491 2.328.364a3.5 3.5 0 0 0-1.913-.847.456.456 0 0 0-.331.178ZM241.894 266.536c-.796 0-1.566-.11-1.829-.466a.57.57 0 0 1 0-.644.747.747 0 0 1 .466-.347c1.033-.279 3.209.957 3.303 1.016a.135.135 0 0 1 .067.144.141.141 0 0 1-.118.127c-.624.11-1.255.167-1.889.17Zm-.982-1.203a.993.993 0 0 0-.288 0 .434.434 0 0 0-.288.203c-.101.187-.067.271 0 .331.288.398 1.855.406 3.015.245a6.693 6.693 0 0 0-2.43-.779h-.009Z" fill="#0ACBA7"/><path d="M243.783 266.367a.086.086 0 0 1-.059 0c-.754-.33-2.236-1.694-2.126-2.379 0-.17.144-.373.55-.415a1.09 1.09 0 0 1 .847.254c.57.675.908 1.515.966 2.396a.14.14 0 0 1-.06.135.15.15 0 0 1-.058.018.154.154 0 0 1-.06-.009Zm-1.516-2.54h-.093c-.263 0-.28.127-.288.161-.068.423.948 1.481 1.694 1.939a3.391 3.391 0 0 0-.847-1.914.775.775 0 0 0-.466-.169v-.017Z" fill="#0ACBA7"/><path d="M250.625 266.223h-6.224l-.618-14.412h6.224l.618 14.412ZM300.474 245.122l-5.758 2.091-7.316-12.905 5.758-2.091 7.316 12.905Z" fill="#7F3E3B"/><path d="m293.81 246.645 4.861-5.03a.547.547 0 0 1 .669-.084l4.826 2.963a.914.914 0 0 1 .161 1.423c-1.693 1.693-2.65 2.481-4.784 4.691-1.321 1.355-5.233 5.927-7.045 7.841-1.812 1.914-3.912.322-3.337-.61 2.583-4.174 4.141-8.146 4.234-10.203a1.5 1.5 0 0 1 .415-.991ZM244.434 265.503h6.775a.54.54 0 0 1 .533.423l1.228 5.53a.898.898 0 0 1-.898 1.101c-2.447 0-5.986-.178-9.069-.178-3.598 0-5.173.195-9.399.195-2.54 0-3.26-2.583-2.193-2.82 4.869-1.067 7.299-1.177 11.508-3.768.45-.299.975-.466 1.515-.483Z" fill="#263238"/><path d="M227.542 67.602c-.957 2.414-1.973 4.658-3.023 6.96-1.05 2.304-2.168 4.54-3.32 6.775a103.322 103.322 0 0 1-8.002 13.218 53.273 53.273 0 0 1-2.54 3.176 28.31 28.31 0 0 1-1.499 1.575 13.343 13.343 0 0 1-2.108 1.625 24.68 24.68 0 0 1-3.912 1.94 42.27 42.27 0 0 1-3.785 1.312 77.714 77.714 0 0 1-15.031 2.794l-.948-4.572c4.53-1.634 9.137-3.337 13.379-5.233 1.05-.491 2.083-.991 3.048-1.508a17.139 17.139 0 0 0 2.541-1.617c.275-.207.528-.443.753-.703.297-.347.652-.753.974-1.168a39.954 39.954 0 0 0 1.914-2.701c1.262-1.88 2.43-3.921 3.556-5.996a193.856 193.856 0 0 0 3.277-6.35 300.581 300.581 0 0 0 6.029-13.083l8.697 3.556Z" fill="#7F3E3B"/><path d="M241.742 51.53c8.925-.694 16.935 12.541 16.935 12.541l-6.41 10.415a46.24 46.24 0 0 1-12.701-7.561c-6.072-5.276-3.921-14.912 2.176-15.395Z" fill="#0ACBA7"/><path opacity=".3" d="m241.184 62.684 9.39 12.642-.423.517s-3.235-2.54-6.977-6.216l-1.99-6.943Z" fill="#000"/><path d="M216.99 61.397c-.499 4.36 6.775 23.65 8.468 46.53l33.117-3.26c-.237-4.386-2.658-22.863-7.045-43.719-1.211-5.758-5.673-10.161-11.44-9.035h-.161a121.374 121.374 0 0 0-13.7 3.514 60.74 60.74 0 0 0-7.418 3.277 3.447 3.447 0 0 0-1.821 2.693Z" fill="#0ACBA7"/><path opacity=".3" d="M220.344 77.418a231.581 231.581 0 0 1 1.694 7.536c5.038-1.194 4.064-12.363 4.166-12.507l-5.86 4.97Z" fill="#000"/><path d="M227.779 63.555c2.54 8.713-6.859 20.323-6.859 20.323l-9.467-6.097s-.068-7.985 2.955-14.217c3.836-7.892 11.558-6.224 13.371-.009Z" fill="#0ACBA7"/><path d="m183.468 101.577-3.802-.516.059 7.942s5.123.525 7.968-3.006l-.559-1.49a4.581 4.581 0 0 0-3.666-2.93Z" fill="#7F3E3B"/><path d="m173.17 102.898 2.431 6.469 4.157-.364-.059-7.942-6.529 1.837Z" fill="#7F3E3B"/><path opacity=".2" d="m243.783 251.82.347 8.095h6.224l-.347-8.095h-6.224ZM293.158 232.217l-5.758 2.091 4.047 7.147 5.488-2.591-3.777-6.647Z" fill="#000"/><path d="M232.377 31.709c1.313 6.833 2.43 10.762-.085 15.09-3.776 6.502-12.871 5.546-16.19-.754-2.998-5.682-4.64-15.894 1.236-20.255a9.488 9.488 0 0 1 9.175-1.246 9.488 9.488 0 0 1 5.864 7.165Z" fill="#7F3E3B"/><path d="M220.869 36.274c-4.166 2.083-4.234-4.572-3.904-5.986-1.566 1.507-3.683 3.022-7.528 1.363-4.725-2.04-3.387-7.376 0-7.308 0 0-2.54-4.826 3.015-5.334a18.413 18.413 0 0 1 6.723 1.032s2.058-5.393 7.071-2.777c2.65 1.38 4.767 5.462 4.767 5.462s10.797 1.6 4.937 7.24c1.329 2.896.627 12.32-2.803 16.35-1.499 1.762-14.327 1.246-12.278-10.042Z" fill="#263238"/><path d="M229.142 25.476s1.956-2.7 2.117-8.933c4.564 4.962-2.117 8.933-2.117 8.933Z" fill="#263238"/><path d="M222.893 35.892a7.838 7.838 0 0 1-1.321 4.877c-1.27 1.888-2.997 1.075-3.556-.914-.508-1.787-.458-4.929 1.261-6.114 1.719-1.186 3.438.068 3.616 2.15Z" fill="#7F3E3B"/><path d="M237.221 106.775s11.685 46.572 17.291 63.957c6.13 19.001 32.736 68.817 32.736 68.817l10.441-4.547s-20.136-45.353-24.438-64.355c-4.666-20.594-14.658-65.998-14.658-65.998l-21.372 2.126Z" fill="#263238"/><path d="M284.157 236.111c-.043 0 3.387 4.903 3.387 4.903l11.728-5.182-2.371-4.853-12.744 5.132Z" fill="#0ACBA7"/><path opacity=".3" d="M243.326 123.195c8.281.787 10.398 31.17 10.957 46.852-3.429-10.788-8.942-31.644-12.769-46.454a2.812 2.812 0 0 1 1.812-.398Z" fill="#000"/><path d="M225.476 107.927s1.346 47.86 3.878 66.675c2.633 19.569 12.371 82.137 12.371 82.137h10.543s-2.439-63.186-3.87-82.518c-1.558-21.076-1.152-68.453-1.152-68.453l-21.77 2.159Z" fill="#263238"/><path d="M239.625 251.82c-.042 0 .847 6.377.847 6.377l12.811-.441.119-5.927-13.777-.009Z" fill="#0ACBA7"/></g></g><defs><clipPath id="a"><path fill="#fff" d="M0 0h350v350H0z"/></clipPath><clipPath id="b"><path fill="#fff" transform="translate(-36.694 -36.693)" d="M0 0h423.387v423.387H0z"/></clipPath></defs></svg>