<svg width="50" height="40" fill="none" xmlns="http://www.w3.org/2000/svg"><path d="M26.21 9.802c-.28-.078-.438-.351-.355-.611.969-3.035 3.986-5.263 7.577-5.263.29 0 .527.22.527.49 0 .272-.236.492-.527.492-3.01 0-5.71 1.875-6.567 4.56-.082.26-.375.41-.655.332Z" fill="#0ACBA7"/><path d="M40.809 28.488h-3.162c-.29 0-.527-.22-.527-.49 0-.272.236-.492.527-.492h3.162c4.358 0 7.904-3.305 7.904-7.368 0-4.063-3.546-7.368-7.904-7.368h-.076a.544.544 0 0 1-.399-.17.469.469 0 0 1-.123-.391c.047-.306.07-.613.07-.913 0-3.52-3.072-6.385-6.85-6.385a7.13 7.13 0 0 0-4.052 1.238.548.548 0 0 1-.779-.168C25.253.041 16.51-.758 11.978 4.411c-1.91 2.177-2.66 5.01-2.058 7.77.066.305-.184.59-.517.59h-.21c-4.359 0-7.905 3.305-7.905 7.367 0 4.063 3.546 7.368 7.904 7.368h3.162c.29 0 .527.22.527.492 0 .27-.236.49-.527.49H9.192c-4.939 0-8.958-3.745-8.958-8.35 0-4.475 3.797-8.14 8.545-8.341-.446-2.864.407-5.753 2.383-8.008 4.853-5.534 14.153-4.914 18.084 1.257A8.262 8.262 0 0 1 33.43 3.93c4.576 0 8.202 3.63 7.885 7.872 4.704.246 8.45 3.891 8.45 8.337 0 4.605-4.018 8.35-8.958 8.35Z" fill="#0ACBA7"/><path d="M24.93 40c-7.264 0-13.173-5.509-13.173-12.28 0-6.772 5.91-12.28 13.173-12.28 7.264 0 13.174 5.508 13.174 12.28 0 6.77-5.91 12.28-13.174 12.28Zm0-23.578c-6.682 0-12.12 5.068-12.12 11.298s5.438 11.297 12.12 11.297c6.683 0 12.12-5.068 12.12-11.297 0-6.23-5.437-11.298-12.12-11.298Z" fill="#0ACBA7"/><path d="M24.662 32.664c0 .275.237.484.51.484s.51-.209.51-.484v-9.35c0-.276-.237-.484-.51-.484s-.51.208-.51.484v9.35Z" fill="#0ACBA7" stroke="#0ACBA7" stroke-width=".249"/><path d="M28.615 26.537a.467.467 0 0 0 0-.69l-3.086-2.878a.53.53 0 0 0-.715 0l3.801 3.568Zm0 0a.523.523 0 0 1-.358.139l.358-.14Zm-.715 0c.1.093.23.139.357.139l-5.9-.23.086.09 2.728-2.543 2.729 2.544Z" fill="#0ACBA7" stroke="#0ACBA7" stroke-width=".249"/></svg>