<svg width="400" height="400" fill="none" xmlns="http://www.w3.org/2000/svg"><g clip-path="url(#a)"><g clip-path="url(#b)"><path d="M200 370.666c95.375 0 172.691-4.507 172.691-10.066 0-5.559-77.316-10.066-172.691-10.066S27.309 355.041 27.309 360.6c0 5.559 77.316 10.066 172.691 10.066Z" fill="#F5F5F5"/><path d="M189.664 280.805H17.685a5.082 5.082 0 0 1-5.077-5.077V34.366a5.082 5.082 0 0 1 5.077-5.033h171.979a5.082 5.082 0 0 1 5.086 5.078v241.317a5.081 5.081 0 0 1-5.086 5.077ZM17.685 29.511a4.859 4.859 0 0 0-4.854 4.855v241.362a4.859 4.859 0 0 0 4.854 4.855h171.979a4.868 4.868 0 0 0 4.863-4.855V34.366a4.868 4.868 0 0 0-4.863-4.855H17.685ZM382.324 280.805H210.336a5.09 5.09 0 0 1-5.085-5.077V34.366a5.09 5.09 0 0 1 5.085-5.033h171.988a5.082 5.082 0 0 1 5.068 5.033v241.362a5.081 5.081 0 0 1-5.068 5.077ZM210.336 29.511a4.868 4.868 0 0 0-4.863 4.855v241.362a4.869 4.869 0 0 0 4.863 4.855h171.988a4.868 4.868 0 0 0 4.863-4.855V34.366a4.868 4.868 0 0 0-4.863-4.855H210.336Z" fill="#E6E6E6"/><path d="M53.877 325.87H17.173v.222h36.704v-.222ZM128.693 324.092H91.882v.222h36.811v-.222ZM176.593 324.092h-8.906v.222h8.906v-.222ZM87.571 331.686H46.378v.222H87.57v-.222ZM230.051 325.755h-19.238v.222h19.238v-.222ZM262.854 325.755h-24.876v.222h24.876v-.222ZM382.827 329.516h-55.613v.222h55.613v-.222Z" fill="#E0E0E0"/><path d="M422.667 317.146H-22.667v.222h445.334v-.222Z" fill="#EBEBEB"/><path opacity=".8" d="m275.559 47.785-2.22 30.477a4.369 4.369 0 0 1-1.24 2.748 4.43 4.43 0 0 1-3.213 1.408H244.4a3.84 3.84 0 0 1-2.366-.783c-1.003-.745-1.603-1.98-1.505-3.373l2.22-30.477c.16-2.296 2.153-4.156 4.453-4.156h24.486c2.3 0 4.032 1.86 3.871 4.156Z" fill="#E0E0E0"/><path d="M264.939 61.582c-.315 4.496-3.57 8.14-7.271 8.14-3.702 0-6.446-3.644-6.132-8.14.315-4.495 3.571-8.14 7.272-8.14s6.446 3.645 6.131 8.14ZM268.026 80.317h-22.408c-1.421 0-2.405-.68-2.44-1.635-.052-1.382 7.215-7.384 14.109-6.864.025.002.05 0 .075 0h.082c4.224.018 8.201 1.8 11.542 4.438 3.326 2.624.179 4.061-.96 4.061Z" fill="#fff"/><path d="M149.251 81.308c-4.766.06-8.965-3.767-9.358-8.53-.393-4.764 3.166-8.688 7.932-8.747 4.768-.06 8.966 3.768 9.359 8.531.393 4.763-3.166 8.687-7.933 8.746Zm-1.047-12.686c-2.234.028-3.901 1.866-3.717 4.098.185 2.232 2.152 4.025 4.385 3.997 2.234-.027 3.902-1.866 3.718-4.098-.185-2.232-2.152-4.025-4.386-3.997Z" fill="#E0E0E0"/><path d="m149.68 67.956-3.282.04-1.741-21.089 3.282-.04 1.741 21.089Z" fill="#E0E0E0"/><path d="m151.048 47.812-6.161.077-.271-3.28 6.161-.076.271 3.28ZM151.401 52.026l-5.793.072-.271-3.279 5.793-.072.271 3.28ZM151.901 57.97l-5.056.063-.271-3.28 5.056-.063.271 3.28Z" fill="#E0E0E0"/><path d="M47.971 260.565c.019.267.055.533.1.791.298 1.717 1.19 3.264 2.43 4.42 1.429 1.334 3.33 2.161 5.37 2.161h75.252c3.812 0 6.746-2.882 6.879-6.581a8.067 8.067 0 0 0-.011-.791c-.142-2.028-1.1-3.877-2.529-5.202-1.429-1.334-3.331-2.161-5.371-2.161H54.839c-4.08 0-7.152 3.299-6.868 7.363Z" fill="#F0F0F0"/><path d="M137.999 261.355c-.004.24-.026.48-.066.712-.198-1.921-1.138-3.664-2.505-4.927-1.429-1.333-3.329-2.16-5.369-2.16l-80.028.124c1.223-1.183 2.91-1.903 4.807-1.903h75.253c2.039 0 3.94.827 5.368 2.161 1.428 1.325 2.393 3.174 2.536 5.202.013.267.017.533.004.791Z" fill="#E0E0E0"/><path d="m125.122 256.756.252 3.594 3.373-1.248.765 1.774-3.445 1.135 2.406 3.015-1.555 1.136-2.342-3.134-1.872 3.134-1.665-1.136 1.951-3.015-3.572-1.135.515-1.763 3.58 1.202-.25-3.559h1.859ZM104.541 256.756l.252 3.594 3.373-1.248.766 1.774-3.446 1.135 2.406 3.015-1.554 1.136-2.343-3.134-1.871 3.134-1.666-1.136 1.952-3.015-3.573-1.135.515-1.763 3.58 1.202-.25-3.559h1.859ZM83.96 256.756l.252 3.594 3.374-1.248.765 1.774-3.446 1.135 2.407 3.015-1.555 1.136-2.343-3.134-1.871 3.134-1.666-1.136 1.952-3.015-3.572-1.135.514-1.763 3.58 1.202-.25-3.559h1.86ZM63.38 256.756l.251 3.594 3.374-1.248.765 1.774-3.445 1.135 2.406 3.015-1.555 1.136-2.343-3.134-1.87 3.134-1.667-1.136 1.952-3.015-3.572-1.135.514-1.763 3.58 1.202-.249-3.559h1.859Z" fill="#fff"/><path d="M113.369 250.606h-3.507l.016-.889h3.507l-.016.889ZM128.456 250.606h-11.449l.016-.889h11.448l-.015.889Z" fill="#E0E0E0"/><path d="m217.265 246.123 14.192 21.814 46.812-46.736c.411-.411-.156-1.05-.614-.691l-44.611 34.91-8.425-13.562-7.354 4.265Z" fill="#28C19D" opacity=".8"/><path opacity=".1" d="m208.779 90.89-33.613 125.514h11.307L219.715 90.89h-10.936ZM226.229 90.89l-33.613 125.514h22.429L248.287 90.89h-22.058Z" fill="#fff"/><path d="m347.236 204.141 7.091-100.752c.235-3.329-2.291-6.025-5.642-6.022l-176.116.153c-3.35.003-6.256 2.704-6.491 6.032l-7.09 100.752c-.235 3.329 2.292 6.025 5.642 6.022l176.116-.152c3.35-.003 6.256-2.704 6.49-6.033Z" fill="#263238"/><path d="m344.976 201.944 7.091-100.752c.235-3.329-2.292-6.025-5.642-6.022l-176.116.153c-3.35.002-6.256 2.703-6.491 6.032l-7.091 100.752c-.234 3.329 2.292 6.025 5.643 6.022l176.115-.152c3.351-.003 6.257-2.704 6.491-6.033Z" fill="#35AF94"/><path opacity=".6" d="M340.307 203.431a1.916 1.916 0 0 1-1.33.515l-176.115.153c-1.184.001-2.151-1.029-2.068-2.203l7.091-100.752a1.89 1.89 0 0 1 .602-1.276 1.921 1.921 0 0 1 1.33-.515l176.116-.152c1.184 0 2.15 1.028 2.068 2.202l-7.091 100.752a1.89 1.89 0 0 1-.603 1.276Z" fill="#fff"/><path d="M281.727 148.044h-61.818c-1.103 0-2.091.889-2.206 1.986l-.946 9.025c-.115 1.097.686 1.986 1.79 1.986h61.817c1.104 0 2.092-.889 2.207-1.986l.946-9.025c.115-1.097-.687-1.986-1.79-1.986ZM227.262 184.908h-9.647c-1.104 0-2.092.889-2.207 1.986l-.946 9.025c-.115 1.097.687 1.986 1.791 1.986h9.647c1.104 0 2.092-.889 2.207-1.986l.945-9.025c.115-1.097-.686-1.986-1.79-1.986ZM243.918 184.908h-9.647c-1.103 0-2.091.889-2.206 1.986l-.946 9.025c-.115 1.097.686 1.986 1.79 1.986h9.647c1.104 0 2.092-.889 2.207-1.986l.946-9.025c.115-1.097-.687-1.986-1.791-1.986ZM260.575 184.908h-9.647c-1.104 0-2.092.889-2.207 1.986l-.946 9.025c-.115 1.097.687 1.986 1.791 1.986h9.646c1.104 0 2.092-.889 2.207-1.986l.946-9.025c.115-1.097-.687-1.986-1.79-1.986ZM277.231 184.908h-9.647c-1.104 0-2.092.889-2.207 1.986l-.946 9.025c-.115 1.097.687 1.986 1.791 1.986h9.647c1.104 0 2.092-.889 2.207-1.986l.945-9.025c.115-1.097-.686-1.986-1.79-1.986Z" fill="#fff"/><path d="M227.663 178.759h38.669c1.88 0 3.563-1.514 3.759-3.381l.464-4.432c.196-1.867-1.169-3.382-3.049-3.382h-38.67c-1.88 0-3.562 1.515-3.758 3.382l-.464 4.432c-.196 1.867 1.169 3.381 3.049 3.381Z" stroke="#35AF94" stroke-linecap="round" stroke-linejoin="round"/><path d="M283.954 129.251h-61.817c-1.104 0-2.092.889-2.207 1.986l-.946 9.025c-.115 1.097.687 1.986 1.791 1.986h61.817c1.104 0 2.092-.889 2.207-1.986l.946-9.025c.115-1.097-.687-1.986-1.791-1.986Z" fill="#fff"/><path d="M227.426 154.543c.128-1.214-.76-2.198-1.982-2.198s-2.316.984-2.443 2.198c-.127 1.214.76 2.199 1.982 2.199s2.316-.985 2.443-2.199ZM234.225 154.543c.128-1.214-.76-2.198-1.982-2.198s-2.316.984-2.443 2.198c-.127 1.214.76 2.199 1.982 2.199s2.316-.985 2.443-2.199ZM241.024 154.543c.127-1.214-.76-2.198-1.982-2.198s-2.316.984-2.443 2.198c-.127 1.214.76 2.199 1.982 2.199s2.316-.985 2.443-2.199ZM247.823 154.543c.127-1.214-.76-2.198-1.982-2.198s-2.316.984-2.443 2.198c-.127 1.214.76 2.199 1.982 2.199s2.316-.985 2.443-2.199ZM254.755 154.543c.128-1.214-.76-2.198-1.982-2.198s-2.316.984-2.443 2.198c-.127 1.214.76 2.199 1.982 2.199s2.316-.985 2.443-2.199ZM229.654 135.749c.127-1.214-.76-2.198-1.982-2.198s-2.316.984-2.443 2.198c-.127 1.214.76 2.198 1.982 2.198s2.316-.984 2.443-2.198ZM236.453 135.749c.127-1.214-.76-2.198-1.982-2.198s-2.316.984-2.443 2.198c-.127 1.214.76 2.198 1.982 2.198s2.316-.984 2.443-2.198ZM243.252 135.749c.127-1.214-.76-2.198-1.982-2.198s-2.316.984-2.443 2.198c-.128 1.214.76 2.198 1.982 2.198s2.316-.984 2.443-2.198ZM250.051 135.749c.127-1.214-.76-2.198-1.982-2.198s-2.316.984-2.443 2.198c-.128 1.214.76 2.198 1.982 2.198s2.316-.984 2.443-2.198ZM256.85 135.749c.127-1.214-.76-2.198-1.982-2.198s-2.316.984-2.443 2.198c-.128 1.214.76 2.198 1.982 2.198s2.316-.984 2.443-2.198ZM263.649 135.749c.127-1.214-.76-2.198-1.982-2.198s-2.316.984-2.443 2.198c-.128 1.214.76 2.198 1.982 2.198s2.316-.984 2.443-2.198Z" fill="#263238"/><path d="m257.873 109.347-.481 4.558a.85.85 0 0 1-.828.744.66.66 0 0 1-.67-.744l.482-4.558c.156-1.471-.923-2.67-2.404-2.67h-1.642c-1.481 0-2.813 1.199-2.969 2.67l-.417 4.234h-1.498l.418-4.234c.242-2.292 2.317-4.158 4.624-4.158h1.641c2.306 0 3.987 1.866 3.744 4.158Z" fill="#35AF94"/><path d="m257.904 113.738-.938 8.881a1.16 1.16 0 0 1-1.131 1.016h-8.938a.899.899 0 0 1-.915-1.016l.938-8.881c.038-.363.264-.682.571-.861.168-.098.36-.155.56-.155h8.938a.902.902 0 0 1 .915 1.016Z" fill="#35AF94"/><path d="m327.64 94.582-21.764.13M339.504 94.523l-7.692.035" stroke="#263238" stroke-linecap="round" stroke-linejoin="round"/><g opacity=".3" fill="#fff"><path d="M186.728 99.326h24.918l-25.331 104.772H166.206c-2.481-.013-4.232-2.383-3.651-4.79l24.173-99.982ZM222.708 99.326h10.579l-25.331 104.772h-10.579l25.331-104.772Z"/></g><path d="M54.513 66.62h5.056c-5.09 0-8.926 4.118-8.57 9.199L61.73 229.03c.356 5.08 4.77 9.198 9.858 9.198h-5.056c-5.088 0-9.502-4.118-9.857-9.198L45.944 75.819c-.356-5.08 3.48-9.199 8.569-9.199Z" fill="#35AF94"/><path d="M54.513 66.62h5.056c-5.09 0-8.926 4.118-8.57 9.199L61.73 229.03c.356 5.08 4.77 9.198 9.858 9.198h-5.056c-5.088 0-10.214-4.118-10.57-9.198L45.232 75.819c-.357-5.08 4.192-9.199 9.28-9.199Z" fill="#263238"/><path d="M68.04 238.228h61.899c5.089 0 8.925-4.118 8.57-9.198L127.778 75.819c-.356-5.08-4.77-9.199-9.858-9.199h-61.9c-5.088 0-8.925 4.118-8.569 9.199L58.182 229.03c.356 5.08 4.77 9.198 9.858 9.198Z" fill="#35AF94"/><path d="M117.752 69.571c3.534 0 6.609 2.872 6.856 6.402l10.732 153.211c.114 1.643-.41 3.178-1.478 4.322-1.065 1.142-2.554 1.77-4.194 1.77H67.769c-3.533 0-6.609-2.872-6.856-6.401L50.182 75.664c-.115-1.643.41-3.178 1.477-4.323 1.065-1.141 2.555-1.77 4.194-1.77h61.899Z" fill="#fff" opacity=".6"/><g opacity=".3" fill="#fff"><path d="M100.275 235.276H75.587l20.36-165.705h19.868c1.811 0 3.432.758 4.577 1.968l-20.117 163.737ZM71.156 235.276h-5.554l20.36-165.705h5.553L71.156 235.276Z"/></g><path d="M69.23 141.974h44.836M75.013 148.594h35.12" stroke="#fff" stroke-linecap="round" stroke-linejoin="round"/><path d="m70.566 111.451.062 1.759H69.48l-.062-1.774-2.034-3.191h1.22l1.404 2.206 1.25-2.206h1.127l-1.818 3.206ZM72.432 110.728c-.052-1.476 1.058-2.568 2.627-2.568 1.56 0 2.755 1.086 2.808 2.568.052 1.482-1.067 2.567-2.627 2.567-1.569 0-2.756-1.093-2.808-2.567Zm4.27 0c-.032-.944-.722-1.589-1.608-1.589-.888 0-1.531.645-1.498 1.589.033.943.722 1.588 1.609 1.588.886 0 1.53-.645 1.498-1.588ZM78.704 111.025l-.097-2.78h1.149l.095 2.738c.034.943.459 1.333 1.155 1.333.702 0 1.092-.39 1.06-1.333l-.097-2.738h1.136l.097 2.78c.051 1.461-.757 2.27-2.168 2.27-1.413 0-2.278-.809-2.33-2.27ZM87.582 113.21l-1.006-1.383h-1.058l.049 1.383h-1.15l-.173-4.965h2.15c1.326 0 2.18.688 2.219 1.802.027.744-.33 1.29-.966 1.567l1.17 1.596h-1.235Zm-1.22-4.028h-.937l.06 1.73h.938c.702 0 1.045-.326 1.026-.865-.02-.547-.385-.865-1.086-.865ZM91.246 110.728c-.052-1.497 1.058-2.568 2.605-2.568.858 0 1.586.312 2.074.88l-.714.681c-.346-.384-.772-.582-1.268-.582-.93 0-1.567.652-1.534 1.589.033.936.715 1.588 1.645 1.588.497 0 .908-.199 1.227-.588l.762.68c-.448.575-1.153.887-2.018.887-1.54 0-2.727-1.071-2.78-2.567ZM96.343 110.728c-.052-1.476 1.059-2.568 2.627-2.568 1.561 0 2.756 1.086 2.808 2.568.052 1.482-1.066 2.567-2.627 2.567-1.568 0-2.755-1.093-2.808-2.567Zm4.271 0c-.033-.944-.723-1.589-1.609-1.589-.887 0-1.53.645-1.498 1.589.033.943.722 1.588 1.61 1.588.886 0 1.53-.645 1.497-1.588ZM102.561 108.245h2.256c1.624 0 2.772.979 2.825 2.482.053 1.504-1.027 2.483-2.651 2.483h-2.256l-.174-4.965Zm2.34 4.021c.986 0 1.61-.588 1.577-1.539-.033-.95-.699-1.538-1.685-1.538h-1.05l.108 3.077h1.05ZM112.412 112.287l.032.923h-3.845l-.174-4.965h3.753l.032.922h-2.611l.038 1.078h2.305l.033.894h-2.306l.04 1.148h2.703Z" fill="#35AF94"/><path d="m79.206 131.661.036 1.995h-9.377l-.027-1.577 4.967-4.789c1.215-1.179 1.42-1.923 1.407-2.63-.02-1.161-.831-1.832-2.394-1.832-1.236 0-2.264.417-2.957 1.324l-1.676-1.27c.959-1.323 2.708-2.104 4.797-2.104 2.762 0 4.567 1.397 4.606 3.646.022 1.233-.303 2.358-2.037 4.009l-3.341 3.228h5.996ZM89.568 129.848c.037 2.14-1.547 3.99-4.964 3.99-1.799 0-3.607-.544-4.804-1.469l.986-1.832c.92.761 2.31 1.252 3.746 1.252 1.69 0 2.676-.745 2.655-1.923-.02-1.143-.869-1.887-2.794-1.887H83.23l-.028-1.614 2.828-3.428H80.25l-.033-1.977h8.667l.027 1.578-3.024 3.664c2.404.308 3.646 1.741 3.68 3.646ZM101.435 130.011c.042 2.358-1.986 3.827-5.148 3.827s-5.203-1.469-5.245-3.827c-.024-1.397.684-2.431 1.981-3.029-1.027-.563-1.606-1.47-1.627-2.666-.038-2.177 1.846-3.538 4.662-3.538 2.835 0 4.785 1.361 4.823 3.538.021 1.196-.544 2.103-1.57 2.666 1.337.598 2.1 1.632 2.124 3.029Zm-2.381-.073c-.023-1.251-1.126-2.032-2.87-2.032-1.745 0-2.786.781-2.763 2.032.023 1.288 1.09 2.05 2.834 2.05 1.745 0 2.821-.762 2.799-2.05Zm-5.33-5.514c.019 1.088.939 1.778 2.429 1.778 1.508 0 2.423-.69 2.404-1.778-.02-1.143-1.012-1.796-2.467-1.796-1.453 0-2.386.653-2.366 1.796ZM113.282 130.011c.042 2.358-1.987 3.827-5.149 3.827-3.161 0-5.203-1.469-5.244-3.827-.025-1.397.683-2.431 1.981-3.029-1.027-.563-1.606-1.47-1.627-2.666-.039-2.177 1.845-3.538 4.662-3.538 2.834 0 4.784 1.361 4.823 3.538.021 1.196-.545 2.103-1.57 2.666 1.337.598 2.099 1.632 2.124 3.029Zm-2.382-.073c-.022-1.251-1.125-2.032-2.87-2.032-1.744 0-2.785.781-2.762 2.032.022 1.288 1.089 2.05 2.833 2.05 1.745 0 2.822-.762 2.799-2.05Zm-5.33-5.514c.019 1.088.94 1.778 2.43 1.778 1.508 0 2.423-.69 2.404-1.778-.02-1.143-1.013-1.796-2.467-1.796-1.454 0-2.387.653-2.367 1.796Z" fill="#263238"/><path d="m45.664 88.827 1.58 21.494M44.945 79.036l.417 5.672M87.215 57.666V44.58M76.84 60.434 70.288 49.11M104.141 49.11l-6.55 11.33" stroke="#35AF94" stroke-linecap="round" stroke-linejoin="round"/><path d="M256.906 289.901a189.22 189.22 0 0 0-5.404 55.211" stroke="#60D3B8" stroke-miterlimit="10"/><path d="M252.746 289.135c.04 1.66 1.531 7.53 3.194 7.49 1.663-.041 2.868-5.975 2.828-7.636a3.01 3.01 0 0 0-3.084-2.933 3.01 3.01 0 0 0-2.938 3.079ZM259.224 307.8c-.04-1.661-1.531-7.531-3.194-7.49-1.663.04-2.869 5.975-2.828 7.635a3.01 3.01 0 0 0 3.083 2.934 3.01 3.01 0 0 0 2.939-3.079ZM246.637 301.701c1.663-.04 7.542-1.529 7.502-3.189-.04-1.66-5.984-2.864-7.648-2.824a3.01 3.01 0 0 0-2.938 3.079 3.01 3.01 0 0 0 3.084 2.934ZM265.333 295.233c-1.664.041-7.543 1.529-7.503 3.189.041 1.661 5.985 2.864 7.648 2.824a3.009 3.009 0 0 0 2.938-3.079 3.01 3.01 0 0 0-3.083-2.934Z" fill="#60D3B8"/><path d="M247.085 294.155c1.204 1.146 6.416 4.244 7.563 3.041 1.148-1.202-2.203-6.25-3.408-7.395a3.014 3.014 0 0 0-4.258.103 3.002 3.002 0 0 0 .103 4.251ZM264.885 302.779c-1.204-1.145-6.416-4.243-7.564-3.041-1.147 1.203 2.204 6.25 3.408 7.396a3.017 3.017 0 0 0 4.259-.103 3.005 3.005 0 0 0-.103-4.252ZM251.666 307.353c1.147-1.203 4.25-6.406 3.045-7.551-1.204-1.146-6.259 2.2-7.407 3.402a3.004 3.004 0 0 0 .103 4.252 3.017 3.017 0 0 0 4.259-.103ZM260.304 289.581c-1.147 1.203-4.25 6.406-3.046 7.552 1.205 1.145 6.26-2.201 7.408-3.403a3.005 3.005 0 0 0-.103-4.252 3.017 3.017 0 0 0-4.259.103Z" fill="#60D3B8"/><path d="M252.419 298.553a3.564 3.564 0 0 0 3.652 3.474 3.564 3.564 0 0 0 3.48-3.646 3.565 3.565 0 0 0-3.652-3.475 3.564 3.564 0 0 0-3.48 3.647Z" fill="#fff"/><path d="M251.908 325.021s.616-9.082 5.608-10.518c4.992-1.437 6.825-3.384 6.825-3.384s-.506 14.076-12.433 13.902Z" fill="#60D3B8"/><path opacity=".5" d="M251.908 325.021s.616-9.082 5.608-10.518c4.992-1.437 6.825-3.384 6.825-3.384s-.506 14.076-12.433 13.902Z" fill="#fff"/><path d="M251.249 331.973s-.616-9.082-5.608-10.518-6.825-3.384-6.825-3.384.506 14.077 12.433 13.902Z" fill="#60D3B8"/><path opacity=".5" d="M251.249 331.973s-.616-9.082-5.608-10.518-6.825-3.384-6.825-3.384.506 14.077 12.433 13.902Z" fill="#fff"/><path d="M270.095 350.886c0 7.087-8.453 12.823-18.873 12.823-10.43 0-18.874-5.736-18.874-12.823 0-3.583 2.165-6.829 5.665-9.15 2.022-1.351 4.489-2.392 7.232-3.006h11.953c2.823.641 5.353 1.717 7.401 3.122 3.403 2.321 5.496 5.504 5.496 9.034Z" fill="#60D3B8"/><path opacity=".8" d="M257.198 338.73c2.823.641 5.353 1.717 7.401 3.122 3.403 2.321 5.496 5.504 5.496 9.034 0 7.087-8.453 12.823-18.873 12.823-10.43 0-18.874-5.736-18.874-12.823 0-3.583 2.165-6.829 5.665-9.15 2.022-1.352 4.489-2.392 7.232-3.006h11.953Z" fill="#fff"/><path d="M251.275 339.885v6.339" stroke="#60D3B8" stroke-miterlimit="10"/><path d="m265.43 338.533-1.002 3.117-.016.031h-26.39l-.056-.166-.953-2.982h28.417Z" fill="#60D3B8"/><path d="M267.865 353.461c-1.819 2.625-4.409 4.719-7.248 6.223-4.534 2.402-23.604 3.022-25.78-7.781-.031-.15-.081-.296-.109-.447-.52-2.827 1.999-5.34 4.863-5.054 1.779.178 3.637-.033 5.406-.302a50.874 50.874 0 0 1 20.529 1.099c2.726.717 3.943 3.948 2.339 6.262Z" fill="#C9F0E6"/><path d="M130.982 349.87c.334-.119.556-.382.66-.782.078-.301-.035-.499-.144-.612-.686-.716-3.472-.208-3.788-.147a.186.186 0 0 0-.146.14.181.181 0 0 0 .074.187c.462.326 1.137.757 1.808 1.028.557.225 1.111.338 1.536.186Zm.246-1.143c.046.047.093.121.054.271-.073.279-.212.453-.427.529-.505.181-1.472-.159-2.631-.916 1.121-.171 2.643-.265 3.004.116Z" fill="#97E4D1"/><path d="M127.769 348.688c.853-.106 2.814-1.111 2.986-1.98.033-.166.028-.479-.381-.703a.979.979 0 0 0-.821-.068c-1.075.367-1.942 2.414-1.979 2.501a.18.18 0 0 0 .101.238.187.187 0 0 0 .094.012Zm2.423-2.365c.209.114.216.229.199.315-.105.53-1.41 1.353-2.326 1.615.325-.666.968-1.752 1.61-1.972a.614.614 0 0 1 .517.042Z" fill="#97E4D1"/><path d="m119.314 345.105 7.251 2.926 6.328-16.726-7.251-2.926-6.328 16.726Z" fill="#FFDED4"/><path d="m127.484 347.438-8.146-3.287a.625.625 0 0 0-.782.253l-3.575 5.957c-.371.618-.056 1.472.632 1.736 2.861 1.098 4.298 1.486 7.88 2.932 2.204.889 5.329 2.414 8.373 3.642 2.976 1.201 4.441-1.663 3.286-2.443-5.18-3.493-5.385-5.511-6.639-7.863a2.033 2.033 0 0 0-1.029-.927Z" fill="#263238"/><path d="m132.8 339.511-12.593-5.082 1.153-4.608 13.512 4.935-2.072 4.755Z" fill="#51BFA5"/><path d="M145.409 145.914c-2.555 7.383-10.12 24.776-15.947 17.531-1.04-1.293-1.927-2.693-2.546-4.233-2.474-6.094-3.082-15.965-3.396-18.122l-1.985-6.766a1.329 1.329 0 0 1-.053-.36l-.032-3.863c0-1.566 1.263-2.497 2.975-2.354 0 0 2.761-.322 2.761 1.325l.538 5.799h-.018c.278 2.022-.529 4.832-.054 6.685 1.775 6.962 4.23 7.275 5.772 14.461 2.142-5.181 5.988-14.157 5.988-14.157 2.59.322 6.839 1.62 5.997 4.054Z" fill="#FFDED4"/><path d="M136.274 166.1c-1.74 2.679-5.656 2.835-7.543.256-1.154-1.576-2.067-3.311-2.465-4.619-2.313-7.58-3.747-12.279-3.944-20.199 1.614-1.673 4.24-2.3 6.436-1.521l3.792 12.833s7.726-19.162 10.846-19.851c3.684-.806 5.217 2.472 6.767 6.508 1.118 2.904-8.856 18.841-13.889 26.593Z" fill="#08AA84"/><path d="M167.474 113.822c-.874 4.448-2.836 14.152.282 17.12 0 0-1.218 4.512-9.497 4.512-9.103 0-4.35-4.512-4.35-4.512 4.968-1.184 4.84-4.864 3.974-8.321l9.591-8.799Z" fill="#FFDED4"/><path d="M153.55 103.332a.355.355 0 0 0 .318-.514c-.881-1.756-2.51-1.96-2.58-1.968a.355.355 0 0 0-.082.706c.054.006 1.323.179 2.026 1.58a.356.356 0 0 0 .318.196Z" fill="#263238"/><path d="M150.836 107.22s-1.34 2.457-2.617 3.565c.702.837 2.093.666 2.093.666l.524-4.231Z" fill="#ED893E"/><path d="M151.551 105.918c.128.591-.081 1.138-.468 1.222-.387.084-.805-.328-.933-.918-.128-.591.081-1.138.468-1.222.387-.084.805.327.933.918Z" fill="#263238"/><path d="m150.796 104.996-1.51-.101s.97.95 1.51.101Z" fill="#263238"/><path d="M119.821 127.434v.016c0-.008-.009-.008-.009-.016h.009Z" fill="#FFDED4"/><path opacity=".2" d="M145.088 142.118c1.577-1.441 2.644-1.011 3.37.134.717 3.33-3.532 10.301-5.244 12.941l1.874-13.075Z" fill="#000"/><path d="M181.567 146.503c-.205 3.664-.552 8.279-1.113 14.085-.588 6.127-1.425 13.57-2.574 22.613-12.104 0-24.779-.186-30.666-.186.492-12.012.675-24.182-4.723-48.09a2.263 2.263 0 0 1 1.81-2.726c2.445-.435 6.496-1.056 10.617-1.257 5.131-.249 9.335-.409 13.85 0 5.941.542 12.692 1.92 12.692 1.92s.748 2.206.107 13.641Z" fill="#28C19D"/><path opacity=".2" d="M181.567 146.502c-.205 3.664-.552 8.279-1.113 14.086-3.26-3.771-6.342-16.753-5.362-21.191 2.405 1.637 4.631 4.153 6.333 6.403.053.213.106.444.142.702Z" fill="#000"/><path d="m212.998 162.778 6.203-3.482 1.159 6.34s-5.257 2.011-8.041.602l.679-3.46Z" fill="#FFDED4"/><path d="m223.356 160.017.43 2.069a1.638 1.638 0 0 1-.686 1.692l-2.74 1.859-1.159-6.341 2.144-.537a1.645 1.645 0 0 1 2.011 1.258ZM175.593 140.211c1.988 4.038 9.279 19.285 12.484 22.81l.627.657.314.327c.107.11.192.208.363.358a11.102 11.102 0 0 0 1.891 1.426c1.3.778 2.617 1.234 3.884 1.565 2.536.633 4.947.737 7.285.691 4.686-.184 9.07-.968 13.449-2.281l-.795-3.712c-2.053.174-4.211.3-6.298.335-2.096.058-4.18 0-6.19-.195-2.004-.174-3.957-.524-5.608-1.09-.815-.289-1.533-.657-2.07-1.044a4.06 4.06 0 0 1-.663-.59c-.036-.027-.125-.138-.201-.229l-.232-.277-.465-.553c-2.461-3.077-8.954-17.906-10.903-21.614l-6.872 3.416Z" fill="#FFDED4"/><path d="M212.9 169.088c-5.055 2.721-11.214 3.32-16.699 1.62-5.217-1.62-9.861-5.397-12.55-10.149-3.218-4.725-11.777-18.08-10.702-21.535 1.273-4.125 3.98-6.685 8.507-5.575 3.182.77 9.25 16.183 12.181 22.349 1.156 1.719 3.361 4.439 5.826 5.28 4.357 1.504 7.566.851 12.128.206.834.501.771 1.271 1.193 2.139.86 1.754 1.003 3.929.116 5.665Z" fill="#08AA84"/><path d="M171.965 106.691c-1.367 7.314-1.789 10.438-5.985 13.76-6.313 4.997-15.012 1.722-15.862-5.852-.764-6.817 1.599-17.631 9.188-19.672 7.476-2.01 14.025 4.45 12.659 11.764Z" fill="#FFDED4"/><path d="M197.951 147.164c-1.398 1.592-1.839 2.513-3.78 3.375-1.942.863-6.181.112-7.526-1.533.437 1.28 2.988 3.582 4.324 3.76-2.957 1.725-7.117.996-9.317-1.636.214 1.556 1.684 2.952 3.171 3.477-17.068.44-9.881-7.579-20.562-18.981-11.833-12.632-9.266-23.071-9.266-23.071-.009-1.805-.41-4.801-2.325-7.238-1.71-2.187-1.211-5.14-.668-6.794.793-2.427 3.206-3.28 5.522-3.423.408-2.396 5.31-1.954 5.938-1.555.538.343.675.315 1.212-.03 1.206-.77 4.233-1.575 7.475 1.043 1.979 1.597 4.093 4.463 4.164 10.564.074 6.343-2.958 13.869 7.544 23.506 6.19 5.679 3.231 17.87 14.094 18.536Z" fill="#263238"/><path d="M153.587 107.244c-.9 1.244-1.158 2.792-.96 4.04.299 1.877 2.131 2.002 3.458.798 1.195-1.083 2.478-3.364 1.501-4.92-.964-1.533-2.969-1.341-3.999.082Z" fill="#FFDED4"/><path d="M170.116 183.198s-3.636 51.048-7.741 84.718a82.853 82.853 0 0 1-9.098 28.875l-20.118 37.844-10.297-4.043s7.094-35.973 21.005-55.586c0 0-10.384-58.627 3.207-91.987l23.042.179Z" fill="#97E4D1"/><path opacity=".2" d="M156.116 195.56s3.061 23.156 4.743 36.877c-6.316-8.271-11.153-19.808-4.743-36.877Z" fill="#000"/><path d="M196.118 354.663c.238-.259.309-.594.21-.994a.626.626 0 0 0-.419-.475c-.947-.317-3.167 1.414-3.417 1.612a.182.182 0 0 0 .092.323c.564.075 1.366.146 2.087.076.6-.058 1.144-.212 1.447-.542Zm-.328-1.123c.063.02.14.064.177.215.069.28.028.497-.125.664-.36.392-1.376.536-2.761.4.908-.666 2.209-1.45 2.709-1.279Z" fill="#B1F0E1"/><path d="M192.716 355.097c.703-.486 1.956-2.276 1.694-3.123-.05-.162-.204-.436-.672-.446a.968.968 0 0 0-.758.318c-.775.819-.565 3.026-.556 3.12a.182.182 0 0 0 .203.163.185.185 0 0 0 .089-.032Zm1.013-3.205c.239.005.3.103.326.188.159.516-.602 1.844-1.285 2.497-.031-.739.02-1.994.482-2.483a.604.604 0 0 1 .477-.202Z" fill="#B1F0E1"/><path d="m183.537 355.822 7.801-.751-2.381-17.69-7.801.75 2.381 17.691Z" fill="#FFDED4"/><path d="m191.868 354.123-8.765.844a.613.613 0 0 0-.57.583l-.32 6.909c-.033.716.652 1.326 1.387 1.242 3.05-.345 4.505-.663 8.359-1.034 2.372-.228 5.86-.319 9.134-.634 3.203-.308 3.132-3.513 1.74-3.67-6.242-.704-7.386-2.392-9.615-3.894a2.081 2.081 0 0 0-1.35-.346Z" fill="#263238"/><path d="M177.832 183.186s9.98 60.921 11.903 97.009l.359 64.642-8.075 1.572s-11.7-41.24-13.046-65.076c-3.571-63.249-24.205-63.353-11.791-98.26l20.65.113Z" fill="#B1F0E1"/><path d="m192.776 345.103-13.372 1.828-1.355-5.127 14.292-1.856.435 5.155Z" fill="#51BFA5"/><path d="M119.838 127.496h-.026l.009-.044c0 .018.009.026.017.044Z" fill="#FFDED4"/><path d="M120.696 117.831h.511a.874.874 0 0 0-.882.93l.812 15.485c.027.513.466.93.98.93h-.511a.993.993 0 0 1-.98-.93l-.812-15.485a.874.874 0 0 1 .882-.93Z" fill="#28C19D"/><path opacity=".1" d="M120.696 117.831h.511a.874.874 0 0 0-.882.93l.812 15.485c.027.513.466.93.98.93h-.511a.993.993 0 0 1-.98-.93l-.812-15.485a.874.874 0 0 1 .882-.93Z" fill="#fff"/><path d="M121.759 135.176h6.256a.874.874 0 0 0 .882-.93l-.812-15.485a.992.992 0 0 0-.98-.93h-6.257a.874.874 0 0 0-.882.93l.813 15.485c.027.513.465.93.98.93Z" fill="#28C19D"/><path opacity=".4" d="M121.759 135.176h6.256a.874.874 0 0 0 .882-.93l-.812-15.485a.992.992 0 0 0-.98-.93h-6.257a.874.874 0 0 0-.882.93l.813 15.485c.027.513.465.93.98.93Z" fill="#fff"/><path d="M128.506 133.923a.575.575 0 0 1-.151.427.598.598 0 0 1-.419.169h-6.065a.67.67 0 0 1-.659-.632l-.793-15.019a.542.542 0 0 1 .151-.418.57.57 0 0 1 .419-.178h6.065a.67.67 0 0 1 .659.632l.054 1.076.739 13.943Z" fill="#263238"/><g opacity=".1" fill="#fff"><path d="m127.767 119.98-2.013 14.539h-2.414l2.28-16.247h1.434c.348 0 .642.285.66.632l.053 1.076ZM122.468 134.52h-.545l2.282-16.247h.544l-2.281 16.247Z"/></g><path d="M145.242 184.922a65.679 65.679 0 0 0-7.153 28.764c15.161 11.727 29.241-2.008 46.572.313-.604-7.815-3.264-22.275-6.421-29.451-11.453.483-22.178-.658-32.998.374Z" fill="#28C19D"/><path d="M146.82 181.749s-1.223 3.132-.873 3.132h31.776c.273 0 .499-.134.517-.305l.273-2.708c.019-.188-.218-.347-.517-.347h-30.683c-.225 0-.425.092-.493.228Z" fill="#fff"/><path d="M151.297 185.147h-.822c-.164 0-.288-.084-.277-.187l.385-3.518c.012-.103.155-.187.319-.187h.821c.164 0 .289.084.277.187l-.385 3.518c-.011.103-.154.187-.318.187ZM171.216 185.147h-.822c-.164 0-.289-.084-.277-.187l.385-3.518c.011-.103.155-.187.318-.187h.822c.164 0 .288.084.277.187l-.385 3.518c-.012.103-.155.187-.318.187Z" fill="#407BFF"/></g></g><defs><clipPath id="a"><path fill="#fff" d="M0 0h400v400H0z"/></clipPath><clipPath id="b"><path fill="#fff" transform="translate(-22.667 29.333)" d="M0 0h445.333v341.333H0z"/></clipPath></defs></svg>