<svg width="400" height="400" fill="none" xmlns="http://www.w3.org/2000/svg"><path d="M400 305.919H0v.2h400v-.2ZM348.533 318.795h-15.11v.2h15.11v-.2ZM258.022 317.399h-23.579v.2h23.579v-.2ZM332.623 311.366h-37.689v.2h37.689v-.2ZM50.744 312.711h-8.777v.2h8.777v-.2ZM88.71 312.711H57.866v.2H88.71v-.2ZM180.117 316.088H136.8v.2h43.317v-.2ZM189.611 270.24H35.131a4.572 4.572 0 0 1-4.566-4.567V48.528a4.572 4.572 0 0 1 4.567-4.566H189.61a4.57 4.57 0 0 1 4.565 4.566v217.145a4.571 4.571 0 0 1-4.565 4.567ZM35.131 44.162a4.371 4.371 0 0 0-4.366 4.366v217.145a4.372 4.372 0 0 0 4.367 4.367H189.61a4.37 4.37 0 0 0 4.365-4.367V48.528a4.37 4.37 0 0 0-4.365-4.366H35.131ZM362.648 270.24H208.169a4.571 4.571 0 0 1-4.565-4.567V48.528a4.57 4.57 0 0 1 4.565-4.566h154.479a4.571 4.571 0 0 1 4.566 4.566v217.145a4.572 4.572 0 0 1-4.566 4.567ZM208.169 44.162a4.37 4.37 0 0 0-4.365 4.366v217.145a4.37 4.37 0 0 0 4.365 4.367h154.479a4.371 4.371 0 0 0 4.366-4.367V48.528a4.37 4.37 0 0 0-4.366-4.366H208.169Z" fill="#EBEBEB"/><path d="M348.533 318.795h-15.11v.2h15.11v-.2ZM258.021 317.399h-23.579v.2h23.579v-.2ZM332.622 311.366h-37.689v.2h37.689v-.2ZM50.744 312.71h-8.777v.2h8.777v-.2ZM88.71 312.71H57.866v.2H88.71v-.2ZM180.117 316.088H136.8v.2h43.317v-.2Z" fill="#EBEBEB"/><path d="M305.492 133.597h18.427v-3.825h-18.427v3.825Z" fill="#E6E6E6"/><path d="M105.714 133.597h199.778v-3.825H105.714v3.825Z" fill="#F0F0F0"/><path d="M219.031 66.165h48.835l-7.694 63.607h-48.835l7.694-63.607Z" fill="#F5F5F5"/><path d="M227.917 74.503h29.047l-5.678 46.931H222.24l5.677-46.931Z" fill="#FAFAFA"/><path d="M148.251 69.07h59.234l-7.343 60.702h-59.234l7.343-60.703Z" fill="#F5F5F5"/><path d="M156.731 77.026h40.349l-5.417 44.788h-40.35l5.418-44.788Z" fill="#FAFAFA"/><path d="M250.901 87.941h40.819l-5.06 41.831h-40.819l5.06-41.83Z" fill="#F0F0F0"/><path d="M256.744 93.425h27.805l-3.733 30.864h-27.805l3.733-30.864Z" fill="#FAFAFA"/><path d="M348.276 184.579h-25.231c-8.984 0-17.088 6.46-19.207 15.31l-6.665 27.836-13.695-.045h-.043a13.606 13.606 0 0 0-13.363 11.054l-1.825 9.53c-2.756.398-5.119 2.502-5.786 5.289h9.678l-11.376 52.365h2.891l11.376-52.365h7.957l-11.376 52.365h2.891l11.376-52.365h31.723l11.377 52.365h2.891l-11.377-52.365h7.957l11.377 52.365h2.891l-11.377-52.366h-1.189c8.973-.001 17.068-6.455 19.185-15.296l9.57-39.97c1.714-7.157-3.366-13.707-10.63-13.707Zm-53.579 53.488c-1.401 5.852-6.761 10.124-12.701 10.124h-10.124l1.699-8.787c.905-4.725 5.053-8.16 9.864-8.16h.035l12.85.042-1.623 6.781Z" fill="#E6E6E6"/><path d="M155.03 299.426h27.542V177.689H155.03v121.737ZM56.033 305.919h121.251v-6.493H56.033v6.493Z" fill="#F0F0F0"/><path d="M155.03 177.688H50.744v121.737H155.03V177.688Z" fill="#F5F5F5"/><path d="M144.202 190.302h-82.63v52.868h82.63v-52.868ZM144.202 253.202h-82.63v33.609h82.63v-33.609Z" fill="#F0F0F0"/><path d="M81.44 192.405h42.893a2.066 2.066 0 0 0 2.066-2.066v-.476a2.067 2.067 0 0 0-2.066-2.067H81.44a2.067 2.067 0 0 0-2.066 2.067v.476c0 1.141.925 2.066 2.066 2.066ZM81.44 255.507h42.893a2.066 2.066 0 0 0 2.066-2.067v-.476a2.066 2.066 0 0 0-2.066-2.066H81.44a2.066 2.066 0 0 0-2.066 2.066v.476c0 1.142.925 2.067 2.066 2.067Z" fill="#F5F5F5"/><path d="M263.408 184.579h-25.231c-8.984 0-17.088 6.46-19.207 15.31l-6.665 27.836-13.695-.045h-.043a13.608 13.608 0 0 0-13.364 11.054l-1.824 9.53c-2.756.398-5.119 2.502-5.786 5.289h9.678l-11.376 52.365h2.89l11.377-52.365h7.957l-11.376 52.365h2.891l11.376-52.365h31.723l11.377 52.365h2.891l-11.377-52.365h7.957l11.377 52.365h2.891l-11.377-52.366h-1.19c8.974-.001 17.068-6.455 19.186-15.296l9.57-39.97c1.714-7.157-3.367-13.707-10.63-13.707Zm-53.579 53.488c-1.402 5.852-6.761 10.124-12.701 10.124h-10.124l1.699-8.787c.905-4.725 5.053-8.16 9.864-8.16h.035l12.85.042-1.623 6.781Z" fill="#E6E6E6"/><path d="M200 342.049c85.666 0 155.111-4.056 155.111-9.059 0-5.003-69.445-9.058-155.111-9.058s-155.111 4.055-155.111 9.058 69.445 9.059 155.111 9.059Z" fill="#F5F5F5"/><path d="M116.817 54.52c.699-12.241 26.598-11.03 31.683.4 5.085 11.431.906 21.922 15.018 28.827 24.944 12.205 27.66 28.303 18.219 44.195-9.441 15.893-46.262 27.017-66.294.981-19.76-25.682 10.278-31.382-5.263-43.483-13.584-10.578-12.39-29.453 6.637-30.92Z" fill="#263238"/><path d="M105.748 113.475c-.333.409-.512.606-.752.875-.23.262-.449.483-.674.726-.452.46-.908.906-1.369 1.326a51.49 51.49 0 0 1-2.818 2.42 56.711 56.711 0 0 1-6.001 4.121c-2.055 1.264-4.203 2.332-6.358 3.358-1.088.484-2.175.976-3.28 1.411l-1.662.639-.83.318c-.397.15-.946.329-1.49.437-1.1.239-2.56.223-3.875-.265-1.337-.476-2.323-1.339-3.003-2.131-1.34-1.632-1.807-3.09-2.222-4.439-.74-2.699-.897-5.129-.976-7.538-.103-4.804.37-9.365 1.185-13.986l4.538.381c.178 4.363.492 8.841 1.115 13.02.322 2.071.758 4.142 1.4 5.739.294.777.727 1.444.888 1.508.073.036-.004-.095-.263-.221-.25-.123-.54-.102-.544-.12.005-.017-.01-.018.118-.077l.723-.347 1.444-.69 2.837-1.459c1.851-1.032 3.687-2.082 5.432-3.243 1.744-1.159 3.445-2.366 5.041-3.658a42.266 42.266 0 0 0 2.314-1.976c.374-.335.718-.683 1.064-1.018l.494-.495.369-.389 7.155 5.773Z" fill="#FFDED4"/><path d="M105.949 99.293c-3.714-.912-13.177 11.326-13.177 11.326l5.743 10.933s15.879-8.968 15.281-13.905c-.623-5.141-2.427-7.025-7.847-8.354Z" fill="#25B492"/><path opacity=".2" d="M105.949 99.293c-3.714-.912-13.177 11.326-13.177 11.326l5.743 10.933s15.879-8.968 15.281-13.905c-.623-5.141-2.427-7.025-7.847-8.354Z" fill="#000"/><path opacity=".2" d="m103.495 103.523.91 14.317a93.601 93.601 0 0 1-5.885 3.708l-1.202-2.286 6.177-15.739Z" fill="#000"/><path d="m75.44 104.152 4.187-9.317-8.895 2.12s-1.535 5.567 1.172 8.144l3.536-.947ZM79.114 88.166l-7.64.634-.742 8.155 8.895-2.12-.513-6.669ZM114.19 352.908l-8.965.351-1.593-20.825 8.964-.351 1.594 20.825Z" fill="#FFDED4"/><path d="m194.016 276.33-5.841 6.836-17.709-11.33 5.841-6.836 17.709 11.33Z" fill="#FFC3BD"/><path d="m186.21 282.775 5.354-8.567a.71.71 0 0 1 .901-.283l7.388 3.259c.766.338 1.053 1.359.592 2.07-1.918 2.955-2.993 4.285-5.348 8.052-1.448 2.318-3.798 7.056-5.798 10.257-1.956 3.13-5.272 1.393-4.725-.119 2.449-6.779 1.741-10.032 1.308-13.102a2.346 2.346 0 0 1 .328-1.567ZM104.926 352.727l9.728-2.725a.71.71 0 0 1 .856.398l3.264 7.386c.339.766-.136 1.714-.957 1.929-3.408.891-5.098 1.15-9.376 2.348-2.631.737-10.322 4.204-14.085 4.5-3.68.29-4.256-3.408-2.716-3.868 6.906-2.065 10.24-6.471 11.988-9.031.315-.462.78-.793 1.298-.937Z" fill="#263238"/><g opacity=".2" fill="#000"><path d="m103.634 332.439.819 10.734 8.969-.351-.82-10.734-8.968.351ZM176.313 265.001l-5.843 6.839 9.131 5.836 5.844-6.839-9.132-5.836Z"/></g><path d="M101.257 103.035c-.868 5.083-1.697 17.927 2.036 47.824l36.45 2.251c.286-13.975.987-25.239 8.582-52.258.799-2.844-1.222-5.72-4.172-5.896-2.776-.166-6.276-.273-9.833-.119-6.196.269-11.275.535-16.768 1.52-4.733.85-9.905 2.163-12.92 2.97a4.638 4.638 0 0 0-3.375 3.708Z" fill="#28C19D"/><path opacity=".2" d="M101.257 103.035c-.868 5.083-1.697 17.927 2.036 47.824l36.45 2.251c.286-13.975.987-25.239 8.582-52.258.799-2.844-1.222-5.72-4.172-5.896-2.776-.166-6.276-.273-9.833-.119-6.196.269-11.275.535-16.768 1.52-4.733.85-9.905 2.163-12.92 2.97a4.638 4.638 0 0 0-3.375 3.708Z" fill="#000"/><path d="M103.293 150.858s-11.349 68.697-12.45 96.103c-1.147 28.505 11.671 93.334 11.671 93.334h12.159s-4.433-61.891-1.634-89.782c3.052-30.407 16.945-98.006 16.945-98.006l-26.691-1.649Z" fill="#7BDAC3"/><path d="M115.727 340.731h-14.266l-1.047-4.55 15.976-.557-.663 5.107Z" fill="#51BFA5"/><path opacity=".2" d="M117.954 169.031c-10.065 17.457-4.939 50.753-2.528 63.171 2.757-18.257 6.88-40.528 10.032-56.875-.781-9.408-2.863-14.344-7.504-6.296Z" fill="#000" fill-opacity=".4"/><path d="M112.919 151.453s5.04 82.292 11.345 93.675c9.995 18.041 52.346 32.849 52.346 32.849l7.966-9.322s-26.522-22.054-40.546-34.584c-3.334-22.76 8.449-58.681-4.287-80.961l-26.824-1.657Z" fill="#7FE1C9"/><path d="m140.42 151.005.731 3.32c.112.261-.204.501-.625.475l-37.515-2.317c-.328-.02-.59-.198-.598-.406l-.128-3.283c-.008-.227.288-.401.648-.379l36.911 2.28c.271.016.504.142.576.31Z" fill="#407BFF"/><path d="m135.209 154.826.989.061c.197.012.353-.08.347-.205l-.202-4.267c-.006-.125-.171-.237-.368-.249l-.989-.061c-.197-.013-.353.08-.347.205l.202 4.267c.006.125.172.237.368.249ZM105.769 153.008l.988.061c.197.012.354-.08.348-.205l-.202-4.268c-.006-.125-.172-.237-.369-.249l-.988-.061c-.197-.012-.354.08-.348.205l.202 4.268c.006.125.172.237.369.249ZM120.489 153.917l.988.061c.197.012.353-.08.347-.205l-.201-4.267c-.006-.125-.172-.237-.369-.25l-.989-.061c-.196-.012-.353.08-.347.205l.202 4.268c.006.125.172.237.369.249Z" fill="#263238"/><path d="m185.58 267.607-9.882 11.565-4.688-1.875 11.011-14.128 3.559 4.438Z" fill="#407BFF"/><path d="M105.798 130.532c-2.368.516-3.986 2.585-4.053 4.905a4.553 4.553 0 0 0-.391-.664 4.834 4.834 0 0 0-.644-.771 5.279 5.279 0 0 0-.804-.629 4.688 4.688 0 0 0-.905-.459 4.901 4.901 0 0 0-.971-.275 4.631 4.631 0 0 0-1.004-.089c-.347.013-.689.045-1.012.116a5.492 5.492 0 0 0-.969.317c-.31.13-.601.3-.886.5a4.81 4.81 0 0 0-.77.645c-.232.251-.448.52-.629.804-.183.282-.34.582-.46.904-.122.314-.21.64-.275.971-.055.33-.086.676-.076 1.012 0 .678.148 1.355.43 1.971.131.311.3.601.49.889.198.274.413.535.655.767.241.234.51.45.795.632.282.182.591.337.904.459.312.123.639.21.971.275.254.04.506.053.76.064-2.074 1.031-3.275 3.356-2.76 5.72a5.164 5.164 0 0 0 4.825 4.062c-2.037 1.048-3.204 3.367-2.695 5.702a5.19 5.19 0 0 0 4.817 4.075 5.185 5.185 0 0 0-2.685 5.7c.518 2.375 2.582 3.985 4.899 4.053a5.164 5.164 0 0 0-2.072 1.821 5.13 5.13 0 0 0-.732 1.886 5.072 5.072 0 0 0-.079 1.001c.003.689.148 1.356.43 1.972.131.31.303.611.491.887a5.478 5.478 0 0 0 1.451 1.411 5.214 5.214 0 0 0 3.9.695c.323-.07.65-.174.958-.315a5.25 5.25 0 0 0 .888-.49c.275-.198.535-.413.768-.655a5.24 5.24 0 0 0 .629-.805c.183-.282.34-.581.46-.904.123-.313.22-.641.275-.971.049-.253.068-.511.077-.77 1.026 2.083 3.359 3.293 5.729 2.776 2.355-.514 3.984-2.564 4.073-4.871a5.174 5.174 0 0 0 5.721 2.735 5.175 5.175 0 0 0 4.064-4.869c1.042 2.06 3.376 3.246 5.731 2.732 2.346-.511 3.974-2.561 4.063-4.868a5.173 5.173 0 0 0 5.722 2.734c2.355-.513 3.983-2.563 4.073-4.87a5.173 5.173 0 0 0 5.722 2.734c2.369-.517 3.987-2.588 4.053-4.909.115.232.239.459.39.667.187.278.413.536.655.768.243.244.511.45.796.642.283.182.592.337.905.459.312.123.638.21.97.276.331.054.675.086 1.012.075.34.001.68-.041 1.003-.112a4.76 4.76 0 0 0 .969-.318c.309-.13.601-.3.888-.489a5.67 5.67 0 0 0 .768-.656c.23-.251.448-.52.629-.804a4.69 4.69 0 0 0 .459-.905c.122-.312.22-.64.275-.971.066-.331.086-.674.086-1.013a5.362 5.362 0 0 0-.123-1 5.376 5.376 0 0 0-.307-.971 5.076 5.076 0 0 0-.498-.876 4.611 4.611 0 0 0-.656-.778 5.644 5.644 0 0 0-.795-.632 5.155 5.155 0 0 0-.904-.459 5.603 5.603 0 0 0-.971-.275 5.944 5.944 0 0 0-.747-.069 5.15 5.15 0 0 0 2.747-5.715 5.174 5.174 0 0 0-4.815-4.064 5.176 5.176 0 0 0 2.682-5.711 5.171 5.171 0 0 0-4.814-4.063 5.166 5.166 0 0 0 2.685-5.7 5.157 5.157 0 0 0-4.889-4.053 6.67 6.67 0 0 0 .662-.374 5.25 5.25 0 0 0 1.4-1.447c.182-.284.337-.593.459-.906.122-.312.22-.641.275-.97.063-.343.086-.675.086-1.015a5.411 5.411 0 0 0-.115-1.012 5.209 5.209 0 0 0-2.264-3.244 5.22 5.22 0 0 0-3.902-.705c-.323.07-.648.183-.958.314a4.563 4.563 0 0 0-.887.501 4.733 4.733 0 0 0-.769.644 5.896 5.896 0 0 0-.63.804 4.69 4.69 0 0 0-.459.905 4.812 4.812 0 0 0-.275.971c-.05.253-.069.511-.077.77-1.027-2.083-3.36-3.292-5.729-2.775a5.194 5.194 0 0 0-4.076 4.859 5.174 5.174 0 0 0-5.719-2.723 5.175 5.175 0 0 0-4.066 4.858 5.174 5.174 0 0 0-5.719-2.724 5.196 5.196 0 0 0-4.075 4.86 5.176 5.176 0 0 0-5.72-2.723 5.175 5.175 0 0 0-4.065 4.857 5.194 5.194 0 0 0-5.729-2.721Z" fill="#016D55"/><path opacity=".7" d="M105.798 130.532c-2.368.516-3.986 2.585-4.053 4.905a4.553 4.553 0 0 0-.391-.664 4.834 4.834 0 0 0-.644-.771 5.279 5.279 0 0 0-.804-.629 4.688 4.688 0 0 0-.905-.459 4.901 4.901 0 0 0-.971-.275 4.631 4.631 0 0 0-1.004-.089c-.347.013-.689.045-1.012.116a5.492 5.492 0 0 0-.969.317c-.31.13-.601.3-.886.5a4.81 4.81 0 0 0-.77.645c-.232.251-.448.52-.629.804-.183.282-.34.582-.46.904-.122.314-.21.64-.275.971-.055.33-.086.676-.076 1.012 0 .678.148 1.355.43 1.971.131.311.3.601.49.889.198.274.413.535.655.767.241.234.51.45.795.632.282.182.591.337.904.459.312.123.639.21.971.275.254.04.506.053.76.064-2.074 1.031-3.275 3.356-2.76 5.72a5.164 5.164 0 0 0 4.825 4.062c-2.037 1.048-3.204 3.367-2.695 5.702a5.19 5.19 0 0 0 4.817 4.075 5.185 5.185 0 0 0-2.685 5.7c.518 2.375 2.582 3.985 4.899 4.053a5.164 5.164 0 0 0-2.072 1.821 5.13 5.13 0 0 0-.732 1.886 5.072 5.072 0 0 0-.079 1.001c.003.689.148 1.356.43 1.972.131.31.303.611.491.887a5.478 5.478 0 0 0 1.451 1.411 5.214 5.214 0 0 0 3.9.695c.323-.07.65-.174.958-.315a5.25 5.25 0 0 0 .888-.49c.275-.198.535-.413.768-.655a5.24 5.24 0 0 0 .629-.805c.183-.282.34-.581.46-.904.123-.313.22-.641.275-.971.049-.253.068-.511.077-.77 1.026 2.083 3.359 3.293 5.729 2.776 2.355-.514 3.984-2.564 4.073-4.871a5.174 5.174 0 0 0 5.721 2.735 5.175 5.175 0 0 0 4.064-4.869c1.042 2.06 3.376 3.246 5.731 2.732 2.346-.511 3.974-2.561 4.063-4.868a5.173 5.173 0 0 0 5.722 2.734c2.355-.513 3.983-2.563 4.073-4.87a5.173 5.173 0 0 0 5.722 2.734c2.369-.517 3.987-2.588 4.053-4.909.115.232.239.459.39.667.187.278.413.536.655.768.243.244.511.45.796.642.283.182.592.337.905.459.312.123.638.21.97.276.331.054.675.086 1.012.075.34.001.68-.041 1.003-.112a4.76 4.76 0 0 0 .969-.318c.309-.13.601-.3.888-.489a5.67 5.67 0 0 0 .768-.656c.23-.251.448-.52.629-.804a4.69 4.69 0 0 0 .459-.905c.122-.312.22-.64.275-.971.066-.331.086-.674.086-1.013a5.362 5.362 0 0 0-.123-1 5.376 5.376 0 0 0-.307-.971 5.076 5.076 0 0 0-.498-.876 4.611 4.611 0 0 0-.656-.778 5.644 5.644 0 0 0-.795-.632 5.155 5.155 0 0 0-.904-.459 5.603 5.603 0 0 0-.971-.275 5.944 5.944 0 0 0-.747-.069 5.15 5.15 0 0 0 2.747-5.715 5.174 5.174 0 0 0-4.815-4.064 5.176 5.176 0 0 0 2.682-5.711 5.171 5.171 0 0 0-4.814-4.063 5.166 5.166 0 0 0 2.685-5.7 5.157 5.157 0 0 0-4.889-4.053 6.67 6.67 0 0 0 .662-.374 5.25 5.25 0 0 0 1.4-1.447c.182-.284.337-.593.459-.906.122-.312.22-.641.275-.97.063-.343.086-.675.086-1.015a5.411 5.411 0 0 0-.115-1.012 5.209 5.209 0 0 0-2.264-3.244 5.22 5.22 0 0 0-3.902-.705c-.323.07-.648.183-.958.314a4.563 4.563 0 0 0-.887.501 4.733 4.733 0 0 0-.769.644 5.896 5.896 0 0 0-.63.804 4.69 4.69 0 0 0-.459.905 4.812 4.812 0 0 0-.275.971c-.05.253-.069.511-.077.77-1.027-2.083-3.36-3.292-5.729-2.775a5.194 5.194 0 0 0-4.076 4.859 5.174 5.174 0 0 0-5.719-2.723 5.175 5.175 0 0 0-4.066 4.858 5.174 5.174 0 0 0-5.719-2.724 5.196 5.196 0 0 0-4.075 4.86 5.176 5.176 0 0 0-5.72-2.723 5.175 5.175 0 0 0-4.065 4.857 5.194 5.194 0 0 0-5.729-2.721Z" fill="#fff" fill-opacity=".24"/><path d="m152.44 127.773-51.024 11.129a1.881 1.881 0 0 0-1.438 2.24l6.841 31.363a1.882 1.882 0 0 0 2.24 1.438l51.024-11.129a1.881 1.881 0 0 0 1.437-2.24l-6.84-31.363a1.882 1.882 0 0 0-2.24-1.438Z" fill="#fff"/><path d="M148.275 103.707a181.58 181.58 0 0 1 4.716 13.424c1.43 4.517 2.694 9.103 3.73 13.797.136.583.248 1.18.37 1.771l.179.887.089.444.074.423c.026.187.055.335.065.558a5.827 5.827 0 0 1-.512 2.906c-.485 1.067-1.346 1.899-2.083 2.35a6.418 6.418 0 0 1-1.964.818 8.893 8.893 0 0 1-1.5.228c-1.77.101-3.097-.118-4.415-.345a41.256 41.256 0 0 1-3.708-.918c-4.744-1.422-9.081-3.282-13.377-5.472l1.624-4.255c4.445 1.039 8.986 2.091 13.325 2.773 1.081.168 2.153.296 3.163.362.988.079 2 .076 2.553-.049.255-.027.386-.215-.145.056-.249.137-.692.532-.938 1.065a2.68 2.68 0 0 0-.262 1.198c.011.077-.001.083.005.126.001.028.021.106-.009-.006l-.111-.407-.222-.813c-.15-.543-.289-1.084-.454-1.627-1.252-4.343-2.67-8.69-4.147-13.029a827.3 827.3 0 0 0-4.616-12.935l8.57-3.33Z" fill="#FFDED4"/><path d="M147.043 95.38c3.583 1.337 7.192 14.182 7.192 14.182l-14.793 9.255s-4.706-12.399-2.88-17.024c1.901-4.817 6.392-7.937 10.481-6.412Z" fill="#2FD8B0"/><path opacity=".2" d="M147.043 95.38c3.583 1.337 7.192 14.182 7.192 14.182l-14.793 9.255s-4.706-12.399-2.88-17.024c1.901-4.817 6.392-7.937 10.481-6.412Z" fill="#000"/><path d="M184.708 287.388a1.24 1.24 0 0 1-.103.034c-.392.109-.778.008-1.146-.301-.278-.233-.307-.497-.283-.676.153-1.138 3.094-2.52 3.429-2.674a.206.206 0 0 1 .232.035.214.214 0 0 1 .059.227c-.371 1.097-1.14 2.959-2.188 3.355Zm1.61-3.005c-1.16.587-2.639 1.519-2.72 2.118-.01.076-.004.177.135.294.257.216.505.287.757.217.589-.167 1.263-1.136 1.828-2.629Z" fill="#407BFF"/><path d="M186.492 284.288c-1.045.394-3.15.621-3.828-.017-.144-.136-.351-.436-.123-.923a1.11 1.11 0 0 1 .718-.613c1.253-.371 3.455.991 3.548 1.049.064.04.102.112.1.187a.215.215 0 0 1-.111.181 2.603 2.603 0 0 1-.304.136Zm-3.174-1.124a.678.678 0 0 0-.391.365c-.117.248-.045.361.03.432.457.432 2.234.339 3.266-.024-.757-.415-2.097-1.015-2.843-.794a.645.645 0 0 0-.062.021Z" fill="#407BFF"/><path d="M102.1 355.15c-.861.241-1.692.33-2.25.055-.353-.175-.572-.476-.65-.895a.687.687 0 0 1 .196-.643c.898-.878 4.844-.082 5.29.012a.211.211 0 0 1 .167.181.212.212 0 0 1-.115.217c-.694.353-1.684.806-2.638 1.073Zm-2.045-1.359a.84.84 0 0 0-.361.181c-.072.07-.095.15-.074.261.052.283.19.476.419.59.658.325 2.106.009 3.936-.847-1.348-.237-3.1-.415-3.92-.185Z" fill="#21B07D"/><path d="M104.699 354.093a.21.21 0 0 1-.09.005c-1.162-.177-3.727-1.473-3.842-2.498-.027-.243.057-.578.609-.795.407-.16.823-.148 1.234.036 1.343.602 2.195 2.877 2.231 2.973a.214.214 0 0 1-.142.279Zm-3.046-2.932a1.166 1.166 0 0 0-.122.041c-.364.142-.346.299-.34.35.068.616 1.866 1.697 3.096 2.04-.291-.651-.971-1.968-1.851-2.363a1.12 1.12 0 0 0-.783-.068Z" fill="#21B07D"/><path d="M134.32 94.475c-6.201.269-11.274.534-16.768 1.52-2.021.357-4.125.808-6.108 1.26v.01c-1.506 1.613-4.137 9.76-1.186 15.27 1.945-3.27 5.212-6.121 7.39-6.405 2.398.65 4.76 4.268 5.334 7.452 3.909-.708 12.368-9.848 17.173-17.214l1.244-1.904a88.556 88.556 0 0 0-7.079.011Z" fill="#28C19D"/><path d="M133.803 76.418c-1.385 5.402-3.04 15.221.516 18.42 0 0-3.344 5.433-11.831 6.425-9.348 1.093-4.936-4.905-4.936-4.905 6.103-1.958 6.219-6.335 5.425-10.363l10.826-9.577Z" fill="#FFDED4"/><path d="M117.552 96.357s-3.74 3.939-.187 11.123c7.524-3.494 14.721-7.642 16.954-12.643l-16.767 1.52Z" fill="#FFDED4"/><path opacity=".2" d="m129.39 80.325-6.408 5.665c.192.953.326 1.925.337 2.88 2.318-.535 6.148-2.842 6.538-5.23.194-1.192-.305-2.783-.467-3.315Z" fill="#000"/><path d="M140.918 69.9c-3.183 8.337-4.352 11.934-10.011 14.953-8.513 4.542-18.057-1.19-17.429-10.31.565-8.21 5.674-20.465 15.054-21.243 9.241-.767 15.568 8.263 12.386 16.6Z" fill="#FFDED4"/><path d="M121.989 53.255c3.802-.884 5.068 3.46-1.6 4.998-6.669 1.537-1.537-4.268 1.6-4.998Z" fill="#263238"/><path d="M125.938 50.955c-5.442 2.055-3.021 8.276 3.129 10.058s4.117 12.244 9.645 14.542c5.529 2.298 8.46-15.29 3.689-20.232-4.77-4.943-12.811-5.748-16.463-4.368Z" fill="#263238"/><path d="M120.852 67.467s-2.107 2.612-3.85 3.645c.647 1.139 2.322 1.236 2.322 1.236l1.528-4.881Z" fill="#ED847E"/><path d="M122.251 76.239a7.013 7.013 0 0 1-1.044-.243.212.212 0 0 1-.139-.267.218.218 0 0 1 .266-.14c3.047.954 5.121-.726 5.141-.743a.213.213 0 0 1 .272.328c-.082.067-1.823 1.47-4.496 1.065Z" fill="#263238"/><path d="M141.119 77.494c-1.123 1.47-2.821 2.284-4.331 2.46-2.271.266-3.053-1.851-2.126-3.81.835-1.762 3.023-4.025 5.16-3.385 2.106.63 2.582 3.055 1.297 4.735Z" fill="#F4CEC3"/><path d="M131.437 67.626a.426.426 0 0 1-.318-.387c-.122-1.966-2.272-3.314-2.293-3.327a.426.426 0 1 1 .446-.725c.105.064 2.548 1.597 2.697 4a.426.426 0 0 1-.532.439ZM126.776 68.678c-.234.635-.76 1.026-1.175.873-.415-.153-.562-.791-.328-1.426.234-.635.76-1.026 1.175-.873.416.153.562.791.328 1.426ZM118.927 65.913c-.234.635-.76 1.025-1.175.873-.415-.154-.562-.792-.328-1.427.234-.635.76-1.026 1.175-.873.415.153.562.792.328 1.427Z" fill="#263238"/><path d="m118.769 64.588-1.363-1.001s.344 1.48 1.363 1.001ZM126.619 67.354l-1.363-1.001s.343 1.479 1.363 1.001ZM117.127 60.562a.427.427 0 0 1-.206-.795c2.043-1.172 3.806-.298 3.879-.26a.426.426 0 0 1-.386.76c-.058-.03-1.437-.697-3.069.239a.424.424 0 0 1-.218.056Z" fill="#263238"/><path d="m132.74 130.701-6.121-7.544-1.717 8.982s4.446 3.684 7.907 2.273l-.069-3.711Z" fill="#FFDED4"/><path d="m121.177 121.91-2.957 7.156 6.682 3.072 1.717-8.981-5.442-1.247Z" fill="#FFDED4"/><path d="m353.846 197.574-.857.082 1.118 11.622.857-.082-1.118-11.622ZM355.354 213.253l-.857.082.451 4.691.857-.083-.451-4.69Z" fill="#35AF94"/><path d="m148.172 313.877 211.868-20.363-12.123-126.13-211.868 20.363 12.123 126.13Z" fill="#3BC4A4"/><path opacity=".1" d="m148.172 313.877 211.868-20.363-12.123-126.13-211.868 20.363 12.123 126.13Z" fill="#000"/><path opacity=".1" d="m248.595 246.36-112.546-58.614 211.868-20.363-99.322 78.977Z" fill="#263238"/><path d="m222.958 118.639-86.909 69.108 211.868-20.364-98.481-51.289a24.42 24.42 0 0 0-26.478 2.545Z" fill="#209A7E"/><path opacity=".2" d="m340.047 168.14-93.571-48.732a18.427 18.427 0 0 0-19.981 1.921l-82.576 65.661 196.128-18.85Z" fill="#263238"/><path d="m300.92 166.594 28.672 7.654.688 7.159-81.684 64.953-92.561-48.205-1.375-14.304 146.26-17.257Z" fill="#fff"/><path d="m300.919 166.595 5.412 15.009 23.26-7.355" fill="#E0E0E0"/><path d="m300.919 166.595 2.78 12.378 25.892-4.724" fill="#F0F0F0"/><path d="m265.532 232.874 94.509 60.639-211.868 20.364 81.229-77.531c9.8-9.354 24.728-10.788 36.13-3.472Z" fill="#28C19D"/><path d="m112.667 152.166 6.02 10.501 24.564-19.623c.216-.172-.034-.486-.27-.339l-23.027 14.299-3.55-6.514-3.737 1.676Z" fill="#1EB38F"/></svg>