<svg width="32" height="24" viewBox="0 0 32 24" fill="none" xmlns="http://www.w3.org/2000/svg">
<g clip-path="url(#clip0_230_25851)">
<mask id="mask0_230_25851" style="mask-type:luminance" maskUnits="userSpaceOnUse" x="0" y="0" width="32" height="24">
<rect width="32" height="24" fill="white"/>
</mask>
<g mask="url(#mask0_230_25851)">
<path fill-rule="evenodd" clip-rule="evenodd" d="M0 0V24H32V0H0Z" fill="#F7FCFF"/>
<mask id="mask1_230_25851" style="mask-type:luminance" maskUnits="userSpaceOnUse" x="0" y="0" width="32" height="24">
<path fill-rule="evenodd" clip-rule="evenodd" d="M0 0V24H32V0H0Z" fill="white"/>
</mask>
<g mask="url(#mask1_230_25851)">
<path fill-rule="evenodd" clip-rule="evenodd" d="M16 19.5C20.1421 19.5 23.5 16.1421 23.5 12C23.5 7.85786 20.1421 4.5 16 4.5C11.8579 4.5 8.5 7.85786 8.5 12C8.5 16.1421 11.8579 19.5 16 19.5Z" fill="#E31D1C"/>
</g>
</g>
<rect width="32" height="24" fill="url(#paint0_linear_230_25851)" style="mix-blend-mode:overlay"/>
</g>
<rect x="0.5" y="0.5" width="31" height="23" rx="1.5" stroke="black" stroke-opacity="0.1"/>
<defs>
<linearGradient id="paint0_linear_230_25851" x1="16" y1="0" x2="16" y2="24" gradientUnits="userSpaceOnUse">
<stop stop-color="white" stop-opacity="0.7"/>
<stop offset="1" stop-opacity="0.3"/>
</linearGradient>
<clipPath id="clip0_230_25851">
<rect width="32" height="24" rx="2" fill="white"/>
</clipPath>
</defs>
</svg>
