<svg width="32" height="24" viewBox="0 0 32 24" fill="none" xmlns="http://www.w3.org/2000/svg">
<g clip-path="url(#clip0_230_27439)">
<mask id="mask0_230_27439" style="mask-type:luminance" maskUnits="userSpaceOnUse" x="0" y="0" width="32" height="24">
<rect width="32" height="24" fill="white"/>
</mask>
<g mask="url(#mask0_230_27439)">
<path fill-rule="evenodd" clip-rule="evenodd" d="M0 0V24H32V0H0Z" fill="#F7FCFF"/>
<mask id="mask1_230_27439" style="mask-type:luminance" maskUnits="userSpaceOnUse" x="0" y="0" width="32" height="24">
<path fill-rule="evenodd" clip-rule="evenodd" d="M0 0V24H32V0H0Z" fill="white"/>
</mask>
<g mask="url(#mask1_230_27439)">
<path fill-rule="evenodd" clip-rule="evenodd" d="M7.59905 14.3208C7.17094 14.0232 7.36349 13.3704 7.36349 13.3704C7.36349 13.3704 7.99902 13.7315 8.22182 13.8991C8.44461 14.0667 8.60531 14.7583 8.60531 14.7583C8.60531 14.7583 8.02715 14.6183 7.59905 14.3208ZM8.7432 15.2542C8.72161 15.0656 8.77447 14.897 8.77447 14.897C8.77447 14.897 9.31093 15.1837 9.49899 15.3167C9.68705 15.4498 9.8227 15.9987 9.8227 15.9987C9.8227 15.9987 9.33467 15.8876 8.9733 15.6514C8.84191 15.5655 8.77978 15.4424 8.75391 15.3204C8.64601 15.3535 8.37086 15.4252 8.087 15.3979C7.72244 15.3628 7.45941 14.8513 7.45941 14.8513C7.45941 14.8513 7.95684 14.8493 8.15349 14.8761C8.30667 14.8969 8.61459 15.1454 8.7432 15.2542ZM10.4348 16.2301C10.4348 16.2301 10.4734 16.7675 10.8624 16.8773C11.2514 16.9871 11.7057 16.94 11.7057 16.94C11.7057 16.94 11.4022 16.4663 11.1963 16.3996C10.9904 16.333 10.4348 16.2301 10.4348 16.2301ZM12.7407 17.6687C12.3386 17.6281 12.2072 17.1056 12.2072 17.1056C12.2072 17.1056 12.7722 17.1104 12.9866 17.1403C13.2009 17.1701 13.5821 17.584 13.5821 17.584C13.5821 17.584 13.1429 17.7093 12.7407 17.6687ZM13.4548 16.7013C13.4548 16.7013 13.4003 17.3282 13.8043 17.5384C14.2083 17.7485 14.7115 17.7922 14.7115 17.7922C14.7115 17.7922 14.4661 17.1814 14.2538 17.0604C14.0415 16.9393 13.4548 16.7013 13.4548 16.7013ZM13.7373 18.3021C13.2911 18.3931 12.9389 17.8715 12.9389 17.8715C12.9389 17.8715 13.5447 17.6873 13.7859 17.6478C14.0271 17.6083 14.6021 17.9284 14.6021 17.9284C14.6021 17.9284 14.1836 18.2112 13.7373 18.3021ZM10.5108 17.1768C10.5108 17.1768 10.7222 17.6724 11.1258 17.6495C11.5293 17.6266 11.9435 17.4342 11.9435 17.4342C11.9435 17.4342 11.5024 17.0851 11.286 17.0891C11.0696 17.0931 10.5108 17.1768 10.5108 17.1768ZM11.6823 16.6094C11.3214 16.4274 11.3861 15.8925 11.3861 15.8925C11.3861 15.8925 11.9118 16.0994 12.1012 16.2042C12.2907 16.3089 12.4981 16.8318 12.4981 16.8318C12.4981 16.8318 12.0433 16.7914 11.6823 16.6094ZM9.64906 14.6529C9.64906 14.6529 9.64994 15.3137 9.92158 15.5719C10.1932 15.8302 10.5191 15.9203 10.5191 15.9203C10.5191 15.9203 10.3264 15.2506 10.1831 15.1036C10.0397 14.9566 9.64906 14.6529 9.64906 14.6529ZM8.65303 16.1128C8.65303 16.1128 9.05879 16.6411 9.47667 16.6139C9.89455 16.5868 10.2612 16.3784 10.2612 16.3784C10.2612 16.3784 9.66672 16.0081 9.43962 16.0138C9.21252 16.0196 8.65303 16.1128 8.65303 16.1128ZM8.75081 15.9926C8.52858 16.013 8.32053 15.7361 8.32053 15.7361C8.32053 15.7361 8.61887 15.6784 8.73952 15.6722C8.86017 15.6659 9.17064 15.8556 9.17064 15.8556C9.17064 15.8556 8.97305 15.9723 8.75081 15.9926ZM8.93582 13.8545C8.93582 13.8545 8.69926 14.1074 8.75789 14.3228C8.81652 14.5381 8.96567 14.7124 8.96567 14.7124C8.96567 14.7124 9.09861 14.3737 9.07151 14.256C9.0444 14.1383 8.93582 13.8545 8.93582 13.8545ZM10.8947 16.0833C10.7571 16.0317 10.789 15.8655 10.789 15.8655C10.789 15.8655 10.9901 15.9228 11.0622 15.9527C11.1343 15.9827 11.208 16.1417 11.208 16.1417C11.208 16.1417 11.0322 16.135 10.8947 16.0833ZM10.1803 16.7242C10.1803 16.7242 10.1484 16.8904 10.286 16.9421C10.4235 16.9937 10.5993 17.0005 10.5993 17.0005C10.5993 17.0005 10.5256 16.8414 10.4535 16.8115C10.3814 16.7815 10.1803 16.7242 10.1803 16.7242ZM12.8222 16.9421C12.6847 16.8904 12.7165 16.7242 12.7165 16.7242C12.7165 16.7242 12.9177 16.7815 12.9897 16.8115C13.0618 16.8414 13.1356 17.0005 13.1356 17.0005C13.1356 17.0005 12.9598 16.9937 12.8222 16.9421ZM12.2093 17.7738C12.2093 17.7738 12.1774 17.94 12.315 17.9917C12.4525 18.0433 12.6283 18.05 12.6283 18.05C12.6283 18.05 12.5546 17.891 12.4825 17.8611C12.4104 17.8311 12.2093 17.7738 12.2093 17.7738ZM14.93 18.9121L14.4844 18.5409C14.762 18.3804 15.048 18.2526 15.2927 18.1567C15.2254 18.1104 15.1645 18.0756 15.1154 18.0587V17.9371C15.1154 17.9371 15.2818 17.9803 15.5312 18.068C15.7805 17.9803 15.947 17.9371 15.947 17.9371V18.0587C15.8978 18.0756 15.837 18.1104 15.7697 18.1567C16.0143 18.2526 16.3003 18.3804 16.5779 18.5409L16.1323 18.9121C16.1323 18.9121 15.8263 18.5931 15.5312 18.3425C15.236 18.5931 14.93 18.9121 14.93 18.9121ZM23.6988 13.3704C23.6988 13.3704 23.8914 14.0232 23.4633 14.3208C23.0352 14.6183 22.457 14.7583 22.457 14.7583C22.457 14.7583 22.6177 14.0667 22.8405 13.8991C23.0633 13.7315 23.6988 13.3704 23.6988 13.3704ZM22.3191 15.2542C22.3407 15.0656 22.2878 14.897 22.2878 14.897C22.2878 14.897 21.7514 15.1837 21.5633 15.3167C21.3753 15.4498 21.2396 15.9987 21.2396 15.9987C21.2396 15.9987 21.7276 15.8876 22.089 15.6514C22.2204 15.5655 22.2825 15.4424 22.3084 15.3204C22.4163 15.3535 22.6915 15.4252 22.9753 15.3979C23.3399 15.3628 23.6029 14.8513 23.6029 14.8513C23.6029 14.8513 23.1055 14.8493 22.9088 14.8761C22.7556 14.8969 22.4477 15.1454 22.3191 15.2542ZM20.6275 16.2301C20.6275 16.2301 20.5889 16.7675 20.1999 16.8773C19.8109 16.9871 19.3566 16.94 19.3566 16.94C19.3566 16.94 19.6601 16.4663 19.866 16.3996C20.0719 16.333 20.6275 16.2301 20.6275 16.2301ZM18.3216 17.6687C18.7238 17.6281 18.8551 17.1056 18.8551 17.1056C18.8551 17.1056 18.2901 17.1104 18.0757 17.1403C17.8614 17.1701 17.4803 17.584 17.4803 17.584C17.4803 17.584 17.9194 17.7093 18.3216 17.6687ZM17.6075 16.7013C17.6075 16.7013 17.662 17.3282 17.258 17.5384C16.854 17.7485 16.3508 17.7922 16.3508 17.7922C16.3508 17.7922 16.5962 17.1814 16.8085 17.0604C17.0208 16.9393 17.6075 16.7013 17.6075 16.7013ZM17.325 18.3021C17.7712 18.3931 18.1234 17.8715 18.1234 17.8715C18.1234 17.8715 17.5176 17.6873 17.2765 17.6478C17.0353 17.6083 16.4602 17.9284 16.4602 17.9284C16.4602 17.9284 16.8788 18.2112 17.325 18.3021ZM20.5515 17.1768C20.5515 17.1768 20.3401 17.6724 19.9365 17.6495C19.533 17.6266 19.1188 17.4342 19.1188 17.4342C19.1188 17.4342 19.56 17.0851 19.7764 17.0891C19.9927 17.0931 20.5515 17.1768 20.5515 17.1768ZM19.38 16.6094C19.7409 16.4274 19.6762 15.8925 19.6762 15.8925C19.6762 15.8925 19.1505 16.0994 18.9611 16.2042C18.7717 16.3089 18.5642 16.8318 18.5642 16.8318C18.5642 16.8318 19.0191 16.7914 19.38 16.6094ZM21.4133 14.6529C21.4133 14.6529 21.4124 15.3137 21.1407 15.5719C20.8691 15.8302 20.5432 15.9203 20.5432 15.9203C20.5432 15.9203 20.7359 15.2506 20.8793 15.1036C21.0226 14.9566 21.4133 14.6529 21.4133 14.6529ZM22.4093 16.1128C22.4093 16.1128 22.0035 16.6411 21.5857 16.6139C21.1678 16.5868 20.8011 16.3784 20.8011 16.3784C20.8011 16.3784 21.3956 16.0081 21.6227 16.0138C21.8498 16.0196 22.4093 16.1128 22.4093 16.1128ZM22.3115 15.9926C22.5337 16.013 22.7418 15.7361 22.7418 15.7361C22.7418 15.7361 22.4434 15.6784 22.3228 15.6722C22.2021 15.6659 21.8917 15.8556 21.8917 15.8556C21.8917 15.8556 22.0893 15.9723 22.3115 15.9926ZM22.1265 13.8545C22.1265 13.8545 22.3631 14.1074 22.3044 14.3228C22.2458 14.5381 22.0966 14.7124 22.0966 14.7124C22.0966 14.7124 21.9637 14.3737 21.9908 14.256C22.0179 14.1383 22.1265 13.8545 22.1265 13.8545ZM20.1676 16.0833C20.3052 16.0317 20.2733 15.8655 20.2733 15.8655C20.2733 15.8655 20.0722 15.9228 20.0001 15.9527C19.928 15.9827 19.8543 16.1417 19.8543 16.1417C19.8543 16.1417 20.0301 16.135 20.1676 16.0833ZM20.882 16.7242C20.882 16.7242 20.9139 16.8904 20.7763 16.9421C20.6388 16.9937 20.463 17.0005 20.463 17.0005C20.463 17.0005 20.5367 16.8414 20.6088 16.8115C20.6809 16.7815 20.882 16.7242 20.882 16.7242ZM18.2401 16.9421C18.3777 16.8904 18.3458 16.7242 18.3458 16.7242C18.3458 16.7242 18.1447 16.7815 18.0726 16.8115C18.0005 16.8414 17.9268 17.0005 17.9268 17.0005C17.9268 17.0005 18.1025 16.9937 18.2401 16.9421ZM18.853 17.7738C18.853 17.7738 18.8849 17.94 18.7474 17.9917C18.6098 18.0433 18.434 18.05 18.434 18.05C18.434 18.05 18.5078 17.891 18.5798 17.8611C18.6519 17.8311 18.853 17.7738 18.853 17.7738Z" fill="#006B49"/>
<path fill-rule="evenodd" clip-rule="evenodd" d="M27.806 3.01703C27.806 3.01703 28.1522 3.46188 27.806 3.46188C27.4599 3.46188 26.5796 3.94323 26.5796 3.94323C26.5796 3.94323 26.1609 4.56814 25.6538 4.70952C25.1466 4.85091 24.9756 5.37594 24.2333 5.59477C23.4909 5.81359 23.4151 5.87334 23.4151 6.09481C23.4151 6.31628 23.5416 6.69135 23.0347 6.69135C22.5278 6.69135 22.1695 5.98161 21.8952 6.69135C21.6209 7.4011 21.343 7.60916 21.723 8.04334C22.103 8.47752 22.6064 8.89328 22.8205 9.14403C23.0347 9.39478 24.4633 10.1286 23.4151 10.1286C22.3669 10.1286 22.8939 9.46438 22.087 9.70701C21.28 9.94964 21.7433 10.3076 21.1266 10.1286C20.5099 9.94964 20.0988 9.78637 19.9074 9.86801C19.7161 9.94964 19.4087 9.41439 19.4087 10.1286C19.4087 10.8428 19.9842 10.5533 18.7502 11.3422C17.5162 12.1311 17.7613 11.9131 17.1949 11.9131C16.6285 11.9131 16.4295 12.2702 16.0519 12.2702C15.6742 12.2702 15.7203 12.2702 15.295 12.2702C14.8696 12.2702 15.3253 11.8185 14.6 12.2702C13.8747 12.722 13.6148 12.812 13.6148 12.9856C13.6148 13.1591 13.6148 13.6194 13.6148 13.6194C13.6148 13.6194 12.9503 13.9996 12.9503 13.6194C12.9503 13.2392 12.7454 13.1419 12.4699 12.9856C12.1943 12.8292 11.6437 12.9418 11.0557 12.9856C10.4677 13.0293 9.80295 12.3925 9.2925 12.3925C8.78205 12.3925 8.68708 11.9131 8.54744 11.9131C8.40781 11.9131 8.69312 11.5035 8.09876 11.1359C7.50441 10.7683 7.29637 10.7226 7.29637 10.1286C7.29637 9.53462 7.02344 9.37216 7.02344 9.01122C7.02344 8.65029 7.31428 9.14403 7.93086 9.14403C8.54744 9.14403 8.58789 8.76206 9.2925 8.4027C9.99711 8.04334 10.2362 7.84668 10.8237 8.04334C11.4113 8.24 11.9895 8.97282 12.4699 8.26946C12.9503 7.5661 12.9503 6.76177 12.9503 6.35568C12.9503 5.94959 12.6662 5.83393 13.433 6.09481C14.1999 6.35568 14.6461 6.35568 15.9205 6.35568C17.1949 6.35568 18.7187 6.77244 19.1883 6.35568C19.6579 5.93892 20.1599 5.59477 21.3783 5.59477C22.5967 5.59477 22.9948 4.99594 23.8141 4.70952C24.6334 4.42311 23.4252 5.02859 25.2629 4.24524C27.1007 3.46188 27.806 3.01703 27.806 3.01703Z" fill="#F57A01"/>
</g>
</g>
<rect width="32" height="24" fill="url(#paint0_linear_230_27439)" style="mix-blend-mode:overlay"/>
</g>
<rect x="0.5" y="0.5" width="31" height="23" rx="1.5" stroke="black" stroke-opacity="0.1"/>
<defs>
<linearGradient id="paint0_linear_230_27439" x1="16" y1="0" x2="16" y2="24" gradientUnits="userSpaceOnUse">
<stop stop-color="white" stop-opacity="0.7"/>
<stop offset="1" stop-opacity="0.3"/>
</linearGradient>
<clipPath id="clip0_230_27439">
<rect width="32" height="24" rx="2" fill="white"/>
</clipPath>
</defs>
</svg>
