<svg width="32" height="24" viewBox="0 0 32 24" fill="none" xmlns="http://www.w3.org/2000/svg">
<g clip-path="url(#clip0_230_23457)">
<mask id="mask0_230_23457" style="mask-type:luminance" maskUnits="userSpaceOnUse" x="0" y="0" width="32" height="24">
<rect width="32" height="24" fill="white"/>
</mask>
<g mask="url(#mask0_230_23457)">
<path fill-rule="evenodd" clip-rule="evenodd" d="M0 16H32V24H0V16Z" fill="#4E8B1D"/>
<path fill-rule="evenodd" clip-rule="evenodd" d="M0 0H32V6H0V0Z" fill="#4E8B1D"/>
<path d="M0 6.5H-1.5V8V16V17.5H0H32H33.5V16V8V6.5H32H0Z" fill="#AF0100" stroke="white" stroke-width="3"/>
<path fill-rule="evenodd" clip-rule="evenodd" d="M16.0024 14.4942L13.5082 16L14.0771 13.0617L12 10.8626L14.8125 10.7437L16.0024 8L17.1923 10.7437H20L17.9277 13.0617L18.5516 16L16.0024 14.4942Z" fill="#FECA00"/>
</g>
<rect width="32" height="24" fill="url(#paint0_linear_230_23457)" style="mix-blend-mode:overlay"/>
</g>
<rect x="0.5" y="0.5" width="31" height="23" rx="1.5" stroke="black" stroke-opacity="0.1"/>
<defs>
<linearGradient id="paint0_linear_230_23457" x1="16" y1="0" x2="16" y2="24" gradientUnits="userSpaceOnUse">
<stop stop-color="white" stop-opacity="0.7"/>
<stop offset="1" stop-opacity="0.3"/>
</linearGradient>
<clipPath id="clip0_230_23457">
<rect width="32" height="24" rx="2" fill="white"/>
</clipPath>
</defs>
</svg>
