<svg width="32" height="24" viewBox="0 0 32 24" fill="none" xmlns="http://www.w3.org/2000/svg">
<g clip-path="url(#clip0_230_24516)">
<mask id="mask0_230_24516" style="mask-type:luminance" maskUnits="userSpaceOnUse" x="0" y="0" width="32" height="24">
<rect width="32" height="24" fill="white"/>
</mask>
<g mask="url(#mask0_230_24516)">
<path fill-rule="evenodd" clip-rule="evenodd" d="M0 0V24H32V0H0Z" fill="#F50101"/>
<mask id="mask1_230_24516" style="mask-type:luminance" maskUnits="userSpaceOnUse" x="0" y="0" width="32" height="24">
<path fill-rule="evenodd" clip-rule="evenodd" d="M0 0V24H32V0H0Z" fill="white"/>
</mask>
<g mask="url(#mask1_230_24516)">
<path fill-rule="evenodd" clip-rule="evenodd" d="M0 0V8H32V0H0Z" fill="#F7FCFF"/>
<path fill-rule="evenodd" clip-rule="evenodd" d="M0 16V24H32V16H0Z" fill="#5EAA22"/>
<rect width="12" height="24" fill="#F50101"/>
<path fill-rule="evenodd" clip-rule="evenodd" d="M10.7706 2.0329C10.78 1.94168 10.6633 1.90658 10.6168 1.98561C10.2539 2.60206 9.34436 4.0685 7.84711 5.98619V5.0685C7.70429 4.91329 7.24898 4.4957 7.24898 4.4957V3.57938L8.07266 2.834L6.94139 2.00004L5.74905 2.834L6.6503 3.57938V4.4957C6.6503 4.9351 6.1039 5.0685 6.1039 5.0685L6.00387 5.87679C4.61092 4.068 3.74246 2.65766 3.3747 2.02729C3.32724 1.94594 3.20786 1.98426 3.22188 2.0774C3.33289 2.81455 3.66488 4.45016 4.58197 6.19649H4.33601V6.16397C4.33601 6.11595 4.29707 6.07702 4.24905 6.07702H2.14035C2.09233 6.07702 2.0534 6.11595 2.0534 6.16397V7.49006C2.0534 7.53809 2.09233 7.57702 2.14035 7.57702H4.24905C4.29707 7.57702 4.33601 7.53809 4.33601 7.49006V6.79386H4.60157C4.69165 7.00156 4.8985 7.14794 5.14041 7.15219C5.3094 7.41291 5.49267 7.67294 5.69139 7.9297C5.23425 7.88449 2.21289 7.62725 2.21289 8.72644C2.21289 9.38255 2.94777 9.72983 3.86941 9.90934C2.94141 10.7497 2.0655 11.5404 1.66249 11.904C1.5971 11.963 1.64822 12.0651 1.7337 12.044C2.45339 11.8656 4.33983 11.3153 6.13567 10.0902L6.1916 10.0903C6.69736 10.0903 7.04913 9.87088 7.29361 9.57391C9.12014 11.0648 11.1865 11.7534 12.0835 12.0001C12.1766 12.0257 12.2269 11.9053 12.1476 11.8502C11.4191 11.3445 9.77616 10.1274 8.09628 8.3596L8.14035 8.308C8.48309 7.90354 8.78173 7.48751 9.04194 7.07036C9.15083 7.00669 9.23753 6.90984 9.28783 6.79386H9.5534L9.5534 7.49006C9.5534 7.53809 9.59233 7.57702 9.64035 7.57702H11.749C11.7971 7.57702 11.836 7.53809 11.836 7.49006V6.16397C11.836 6.11595 11.7971 6.07702 11.749 6.07702H9.64035C9.61808 6.07702 9.59777 6.08539 9.58239 6.09915C10.4447 4.35365 10.6979 2.73405 10.7706 2.0329ZM9.5534 6.19649L9.5534 6.16397L9.55368 6.15685L9.53373 6.19649H9.5534ZM5.64035 6.56089C5.64035 6.82812 5.42136 7.04476 5.15122 7.04476C4.88108 7.04476 4.66209 6.82812 4.66209 6.56089C4.66209 6.29365 4.88108 6.07702 5.15122 6.07702C5.42136 6.07702 5.64035 6.29365 5.64035 6.56089ZM8.24905 6.56089C8.24905 6.82812 8.46804 7.04476 8.73818 7.04476C9.00832 7.04476 9.22731 6.82812 9.22731 6.56089C9.22731 6.29365 9.00832 6.07702 8.73818 6.07702C8.46804 6.07702 8.24905 6.29365 8.24905 6.56089Z" fill="#F7FCFF"/>
</g>
</g>
<rect width="32" height="24" fill="url(#paint0_linear_230_24516)" style="mix-blend-mode:overlay"/>
</g>
<rect x="0.5" y="0.5" width="31" height="23" rx="1.5" stroke="black" stroke-opacity="0.1"/>
<defs>
<linearGradient id="paint0_linear_230_24516" x1="16" y1="0" x2="16" y2="24" gradientUnits="userSpaceOnUse">
<stop stop-color="white" stop-opacity="0.7"/>
<stop offset="1" stop-opacity="0.3"/>
</linearGradient>
<clipPath id="clip0_230_24516">
<rect width="32" height="24" rx="2" fill="white"/>
</clipPath>
</defs>
</svg>
