<svg width="32" height="24" viewBox="0 0 32 24" fill="none" xmlns="http://www.w3.org/2000/svg">
<g clip-path="url(#clip0_230_25915)">
<mask id="mask0_230_25915" style="mask-type:luminance" maskUnits="userSpaceOnUse" x="0" y="0" width="32" height="24">
<rect width="32" height="24" fill="white"/>
</mask>
<g mask="url(#mask0_230_25915)">
<path fill-rule="evenodd" clip-rule="evenodd" d="M0 0V24H32V0H0Z" fill="#F7FCFF"/>
<mask id="mask1_230_25915" style="mask-type:luminance" maskUnits="userSpaceOnUse" x="0" y="0" width="32" height="24">
<path fill-rule="evenodd" clip-rule="evenodd" d="M0 0V24H32V0H0Z" fill="white"/>
</mask>
<g mask="url(#mask1_230_25915)">
<path fill-rule="evenodd" clip-rule="evenodd" d="M0 0V8H32V0H0Z" fill="#5EAA22"/>
<path fill-rule="evenodd" clip-rule="evenodd" d="M0 16V24H32V16H0Z" fill="#E31D1C"/>
<path fill-rule="evenodd" clip-rule="evenodd" d="M4.60068 16.3919V17.0258H2.26991V16.3919H4.60068ZM0.565702 17.9841H0.358728V17.7309H0.813422V18.618H1.39292V18.6248H1.95436V16.7832H1.59563V17.9909H1.54024V16.6872H1.18151V17.9841H1.17215V17.7309V16.6872H0.813422V17.097H0V18.618H0.179364H0.565702V17.9841ZM2.06653 18.3395H2.42525V17.711H2.82525V18.6247H3.95067V17.0781H3.37354V17.712H3.59194V17.9908H3.18398V17.0771H2.06653V18.3395ZM4.35849 17.9841H4.56546V18.618H4.17912H3.99976V17.097H4.81318V16.6872H5.17191V17.7309V17.9841H5.18127V16.6872H5.54V17.9909H5.59539V16.7832H5.95412V18.6248H5.39268V18.618H4.81318V17.7309H4.35849V17.9841ZM8.60044 16.3919V17.0258H6.26967V16.3919H8.60044ZM6.06629 18.3395H6.42502V17.711H6.82501V18.6247H7.95043V17.0781H7.3733V17.712H7.5917V17.9908H7.18374V17.0771H6.06629V18.3395ZM8.42967 17.9841H8.63665V18.618H8.25031H8.07094V17.097H8.88437V16.6872H9.2431V17.7309V17.9841H9.25246V16.6872H9.61119V17.9909H9.66658V16.7832H10.0253V18.6248H9.46386V18.618H8.88437V17.7309H8.42967V17.9841ZM12.6716 16.3919V17.0258H10.3409V16.3919H12.6716ZM10.1375 18.3395H10.4962V17.711H10.8962V18.6247H12.0216V17.0781H11.4445V17.712H11.6629V17.9908H11.2549V17.0771H10.1375V18.3395ZM12.4294 17.9841H12.6364V18.618H12.2501H12.0707V17.097H12.8841V16.6872H13.2429V17.7309V17.9841H13.2522V16.6872H13.6109V17.9909H13.6663V16.7832H14.0251V18.6248H13.4636V18.618H12.8841V17.7309H12.4294V17.9841ZM16.6714 16.3919V17.0258H14.3406V16.3919H16.6714ZM14.1372 18.3395H14.496V17.711H14.896V18.6247H16.0214V17.0781H15.4442V17.712H15.6626V17.9908H15.2547V17.0771H14.1372V18.3395ZM16.4292 17.9841H16.6362V18.618H16.2498H16.0705V17.097H16.8839V16.6872H17.2426V17.7309V17.9841H17.252V16.6872H17.6107V17.9909H17.6661V16.7832H18.0248V18.6248H17.4634V18.618H16.8839V17.7309H16.4292V17.9841ZM20.6711 16.3919V17.0258H18.3404V16.3919H20.6711ZM18.137 18.3395H18.4957V17.711H18.8957V18.6247H20.0211V17.0781H19.444V17.712H19.6624V17.9908H19.2544V17.0771H18.137V18.3395ZM20.5004 17.9841H20.7074V18.618H20.321H20.1417V17.097H20.9551V16.6872H21.3138V17.7309V17.9841H21.3232V16.6872H21.6819V17.9909H21.7373V16.7832H22.096V18.6248H21.5346V18.618H20.9551V17.7309H20.5004V17.9841ZM24.7423 16.3919V17.0258H22.4116V16.3919H24.7423ZM22.2082 18.3395H22.5669V17.711H22.9669V18.6247H24.0923V17.0781H23.5152V17.712H23.7336V17.9908H23.3256V17.0771H22.2082V18.3395ZM24.5716 17.9841H24.7785V18.618H24.3922H24.2128V17.097H25.0263V16.6872H25.385V17.7309V17.9841H25.3944V16.6872H25.7531V17.9909H25.8085V16.7832H26.1672V18.6248H25.6058V18.618H25.0263V17.7309H24.5716V17.9841ZM28.8135 16.3919V17.0258H26.4827V16.3919H28.8135ZM26.2794 18.3395H26.6381V17.711H27.0381V18.6247H28.1635V17.0781H27.5864V17.712H27.8048V17.9908H27.3968V17.0771H26.2794V18.3395ZM28.6427 17.9841H28.8497V18.618H28.4634H28.284V17.097H29.0974V16.6872H29.4562V17.7309V17.9841H29.4655V16.6872H29.8243V17.9909H29.8797V16.7832H30.2384V18.6248H29.6769V18.618H29.0974V17.7309H28.6427V17.9841ZM32.8847 16.3919V17.0258H30.5539V16.3919H32.8847ZM30.3505 18.3395H30.7093V17.711H31.1093V18.6247H32.2347V17.0781H31.6576V17.712H31.876V17.9908H31.468V17.0771H30.3505V18.3395ZM32.6425 17.9841H32.8495V18.618H32.4631H32.2838V17.097H33.0972V16.6872H33.4559V17.7309V17.9841H33.4653V16.6872H33.824V17.9909H33.8794V16.7832H34.2381V18.6248H33.6767V18.618H33.0972V17.7309H32.6425V17.9841ZM36.8845 16.3919V17.0258H34.5537V16.3919H36.8845ZM34.3503 18.3395H34.709V17.711H35.109V18.6247H36.2344V17.0781H35.6573V17.712H35.8757V17.9908H35.4678V17.0771H34.3503V18.3395ZM36.8565 17.9841H37.0635V18.618H36.6772H36.4978V17.097H37.3112V16.6872H37.67V17.7309V17.9841H37.6793V16.6872H38.0381V17.9909H38.0934V16.7832H38.4522V18.6248H37.8907V18.618H37.3112V17.7309H36.8565V17.9841ZM41.0985 16.3919V17.0258H38.7677V16.3919H41.0985ZM38.5643 18.3395H38.9231V17.711H39.3231V18.6247H40.4485V17.0781H39.8713V17.712H40.0897V17.9908H39.6818V17.0771H38.5643V18.3395Z" fill="#F7FCFF"/>
<path fill-rule="evenodd" clip-rule="evenodd" d="M0.485442 5.39191V6.02579H-1.84532V5.39191H0.485442ZM-3.54953 6.98414H-3.75651V6.7309H-3.30181V7.61802H-2.72232V7.62482H-2.16087V5.78324H-2.5196V6.99094H-2.57499V5.68724H-2.93372V6.98414H-2.94308V6.7309V5.68724H-3.30181V6.09702H-4.11523V7.61802H-3.93587H-3.54953V6.98414ZM-2.04871 7.33946H-1.68998V6.711H-1.28998V7.62465H-0.164569V6.07814H-0.741699V6.71202H-0.523297V6.99077H-0.931252V6.07712H-2.04871V7.33946ZM0.243255 6.98414H0.450228V7.61802H0.0638905H-0.115474V6.09702H0.697948V5.68724H1.05668V6.7309V6.98414H1.06604V5.68724H1.42477V6.99094H1.48016V5.78324H1.83889V7.62482H1.27744V7.61802H0.697948V6.7309H0.243255V6.98414ZM4.4852 5.39191V6.02579H2.15444V5.39191H4.4852ZM1.95105 7.33946H2.30978V6.711H2.70978V7.62465H3.83519V6.07814H3.25806V6.71202H3.47646V6.99077H3.06851V6.07712H1.95105V7.33946ZM4.31444 6.98414H4.52141V7.61802H4.13507H3.95571V6.09702H4.76913V5.68724H5.12786V6.7309V6.98414H5.13723V5.68724H5.49595V6.99094H5.55134V5.78324H5.91007V7.62482H5.34863V7.61802H4.76913V6.7309H4.31444V6.98414ZM8.55639 5.39191V6.02579H6.22563V5.39191H8.55639ZM6.02224 7.33946H6.38097V6.711H6.78096V7.62465H7.90638V6.07814H7.32925V6.71202H7.54765V6.99077H7.13969V6.07712H6.02224V7.33946ZM8.3142 6.98414H8.52117V7.61802H8.13484H7.95547V6.09702H8.76889V5.68724H9.12762V6.7309V6.98414H9.13699V5.68724H9.49571V6.99094H9.5511V5.78324H9.90983V7.62482H9.34839V7.61802H8.76889V6.7309H8.3142V6.98414ZM12.5561 5.39191V6.02579H10.2254V5.39191H12.5561ZM10.022 7.33946H10.3807V6.711H10.7807V7.62465H11.9061V6.07814H11.329V6.71202H11.5474V6.99077H11.1395V6.07712H10.022V7.33946ZM12.314 6.98414H12.5209V7.61802H12.1346H11.9552V6.09702H12.7687V5.68724H13.1274V6.7309V6.98414H13.1367V5.68724H13.4955V6.99094H13.5509V5.78324H13.9096V7.62482H13.3481V7.61802H12.7687V6.7309H12.314V6.98414ZM16.5559 5.39191V6.02579H14.2251V5.39191H16.5559ZM14.0218 7.33946H14.3805V6.711H14.7805V7.62465H15.9059V6.07814H15.3288V6.71202H15.5472V6.99077H15.1392V6.07712H14.0218V7.33946ZM16.3851 6.98414H16.5921V7.61802H16.2058H16.0264V6.09702H16.8398V5.68724H17.1986V6.7309V6.98414H17.2079V5.68724H17.5667V6.99094H17.622V5.78324H17.9808V7.62482H17.4193V7.61802H16.8398V6.7309H16.3851V6.98414ZM20.6271 5.39191V6.02579H18.2963V5.39191H20.6271ZM18.0929 7.33946H18.4517V6.711H18.8517V7.62465H19.9771V6.07814H19.4V6.71202H19.6184V6.99077H19.2104V6.07712H18.0929V7.33946ZM20.4563 6.98414H20.6633V7.61802H20.277H20.0976V6.09702H20.911V5.68724H21.2698V6.7309V6.98414H21.2791V5.68724H21.6378V6.99094H21.6932V5.78324H22.052V7.62482H21.4905V7.61802H20.911V6.7309H20.4563V6.98414ZM24.6983 5.39191V6.02579H22.3675V5.39191H24.6983ZM22.1641 7.33946H22.5229V6.711H22.9229V7.62465H24.0483V6.07814H23.4711V6.71202H23.6895V6.99077H23.2816V6.07712H22.1641V7.33946ZM24.5275 6.98414H24.7345V7.61802H24.3482H24.1688V6.09702H24.9822V5.68724H25.3409V6.7309V6.98414H25.3503V5.68724H25.709V6.99094H25.7644V5.78324H26.1231V7.62482H25.5617V7.61802H24.9822V6.7309H24.5275V6.98414ZM28.7695 5.39191V6.02579H26.4387V5.39191H28.7695ZM26.2353 7.33946H26.594V6.711H26.994V7.62465H28.1194V6.07814H27.5423V6.71202H27.7607V6.99077H27.3528V6.07712H26.2353V7.33946ZM28.5273 6.98414H28.7342V7.61802H28.3479H28.1685V6.09702H28.982V5.68724H29.3407V6.7309V6.98414H29.3501V5.68724H29.7088V6.99094H29.7642V5.78324H30.1229V7.62482H29.5615V7.61802H28.982V6.7309H28.5273V6.98414ZM32.7692 5.39191V6.02579H30.4385V5.39191H32.7692ZM30.2351 7.33946H30.5938V6.711H30.9938V7.62465H32.1192V6.07814H31.5421V6.71202H31.7605V6.99077H31.3525V6.07712H30.2351V7.33946ZM32.7413 6.98414H32.9483V7.61802H32.5619H32.3826V6.09702H33.196V5.68724H33.5547V6.7309V6.98414H33.5641V5.68724H33.9228V6.99094H33.9782V5.78324H34.3369V7.62482H33.7755V7.61802H33.196V6.7309H32.7413V6.98414ZM36.9833 5.39191V6.02579H34.6525V5.39191H36.9833ZM34.4491 7.33946H34.8078V6.711H35.2078V7.62465H36.3332V6.07814H35.7561V6.71202H35.9745V6.99077H35.5666V6.07712H34.4491V7.33946Z" fill="#F7FCFF"/>
<path fill-rule="evenodd" clip-rule="evenodd" d="M14.6069 8.25C14.6069 8.25 15.0342 8.475 15.4716 8.475C15.909 8.475 16.3491 8.25 16.3491 8.25V8.55C16.3491 8.55 15.8687 8.775 15.4432 8.775C15.0177 8.775 14.6069 8.55 14.6069 8.55V8.25ZM11.457 11.7906C11.457 10.0126 13.899 8.85 13.899 8.85C13.899 8.85 12.4876 9.60621 12.4876 11.7161C12.4876 13.826 13.2203 14.7397 13.2203 14.7397C13.2203 14.7397 11.457 13.5686 11.457 11.7906ZM19.6947 11.6925C19.6947 9.91448 17.255 8.85 17.255 8.85C17.255 8.85 18.6664 9.60621 18.6664 11.7161C18.6664 13.826 17.9337 14.7397 17.9337 14.7397C17.9337 14.7397 19.6947 13.4705 19.6947 11.6925ZM13.1241 12.1776C13.0311 10.402 14.5082 8.81052 14.5082 8.81052C14.5082 8.81052 13.9705 9.54185 14.081 11.6488C14.1189 12.3723 14.4038 13.4486 14.7628 14.0832V8.925H16.2628V14.1279C16.6223 13.5352 16.8993 12.5246 16.9378 11.7906C17.0482 9.68361 16.5364 8.81052 16.5364 8.81052C16.5364 8.81052 18.0135 10.402 17.9204 12.1776C17.865 13.2351 17.0513 14.3534 16.4022 15.0851C16.7176 15.1554 17.1403 15.2411 17.7215 15.3559C17.7339 15.4202 17.6044 15.4172 17.3471 15.4113C17.063 15.4047 16.623 15.3946 16.0463 15.4675C15.7811 15.7393 15.5965 15.9004 15.5965 15.9004C15.5965 15.9004 15.5673 15.861 15.5223 15.8064C15.4772 15.861 15.448 15.9004 15.448 15.9004C15.448 15.9004 15.2635 15.7393 14.9983 15.4675C14.4215 15.3946 13.9816 15.4047 13.6975 15.4113C13.4402 15.4172 13.3107 15.4202 13.3231 15.3559C13.9042 15.2411 14.327 15.1554 14.6424 15.0851C13.9933 14.3534 13.1796 13.2351 13.1241 12.1776Z" fill="#E31D1C"/>
</g>
</g>
<rect width="32" height="24" fill="url(#paint0_linear_230_25915)" style="mix-blend-mode:overlay"/>
</g>
<rect x="0.5" y="0.5" width="31" height="23" rx="1.5" stroke="black" stroke-opacity="0.1"/>
<defs>
<linearGradient id="paint0_linear_230_25915" x1="16" y1="0" x2="16" y2="24" gradientUnits="userSpaceOnUse">
<stop stop-color="white" stop-opacity="0.7"/>
<stop offset="1" stop-opacity="0.3"/>
</linearGradient>
<clipPath id="clip0_230_25915">
<rect width="32" height="24" rx="2" fill="white"/>
</clipPath>
</defs>
</svg>
