<svg width="32" height="24" viewBox="0 0 32 24" fill="none" xmlns="http://www.w3.org/2000/svg">
<g clip-path="url(#clip0_230_28421)">
<mask id="mask0_230_28421" style="mask-type:luminance" maskUnits="userSpaceOnUse" x="0" y="0" width="32" height="24">
<rect width="32" height="24" fill="white"/>
</mask>
<g mask="url(#mask0_230_28421)">
<path fill-rule="evenodd" clip-rule="evenodd" d="M0 0H32V24H0V0Z" fill="#F7FCFF"/>
<path d="M0 -1H-1V0V11.307L-2.848 12L-1 12.693V24V25H0H32L32.3511 23.0637L2.848 12L32.3511 0.936329L32 -1H0Z" fill="#3547A0" stroke="#E31D1C" stroke-width="2"/>
<path fill-rule="evenodd" clip-rule="evenodd" d="M29.0225 5.11007C29.0225 5.11007 27.0122 5.65253 26.2853 5.84972C26.1872 5.87632 26.0001 5.9239 26.0135 5.6569C25.553 5.95251 24.8106 6.2513 24.5062 6.33608C24.353 6.37874 24.3939 6.11374 24.3286 6.03789C24.196 6.23326 23.8554 6.5195 23.7588 6.54746C22.8005 6.82475 22.1643 7.02631 21.85 7.15214C21.85 7.15214 21.4009 7.58408 21.4009 7.92654C21.4009 8.26899 21.353 8.56147 21.0439 8.56147C20.7348 8.56147 20.0218 9.18352 20.283 9.53405C20.5441 9.88458 21.4009 9.69793 21.4009 9.53405C21.4009 9.37018 22.0116 9.16516 22.0116 9.34961C22.0116 9.53405 21.85 9.86766 21.85 9.86766H22.5243L22.0116 10.1328H22.5243L22.0116 10.4469H22.9715L22.3581 10.7206H22.7836L22.5243 11.0807H23.1892C23.1892 11.0807 23.448 11.3424 23.6919 11.4855C23.9358 11.6285 24.4765 12.8457 24.2061 13.317C23.9358 13.7884 24.2675 13.8585 24.3286 13.6514C24.3896 13.4443 24.516 13.1476 24.6245 13.1476C24.7331 13.1476 24.9413 13.1476 24.9413 13.1476L25.0885 13.5348L25.4378 13.9081C25.4378 13.9081 25.4627 13.5836 25.5282 13.5348C25.5282 13.5348 25.8009 13.5626 25.9332 13.5305C25.9332 13.5305 25.8744 13.0587 25.8791 12.9952C25.8791 12.9952 26.3019 13.1387 26.483 13.1355C26.483 13.1355 26.2109 12.71 26.2109 12.5647C26.2109 12.5647 26.7163 12.5905 26.7163 12.8054L26.6604 12.2689C26.6604 12.2689 27.1388 12.0654 27.1555 11.8941L26.842 11.8558C26.842 11.8558 27.0048 11.6491 26.9897 11.6083L26.5266 11.5496C26.5266 11.5496 27.0326 11.3734 27.0708 11.2621C27.0708 11.2621 26.9572 11.0836 26.8532 11.0136L26.4997 10.7845C26.4997 10.7845 27.2902 10.7896 27.4225 10.7896C27.4225 10.7896 27.6292 10.7154 27.4701 10.5883C27.4701 10.5883 27.3144 10.4947 27.3357 10.4043C27.3357 10.4043 27.4415 10.201 27.4173 10.1657C27.4173 10.1657 27.5302 10.3153 27.5302 9.94547C27.5302 9.94547 27.5331 9.57372 27.4619 9.55584C27.4619 9.55584 27.67 9.40278 27.5882 9.30509C27.5064 9.2074 26.6302 8.94735 26.4206 8.94735L28.0258 7.92991C28.0258 7.92991 28.137 7.50968 28.3 7.2585C28.3 7.2585 28.7265 6.87557 28.8125 6.57551C28.8984 6.27545 29.1405 5.53538 29.1405 5.53538V5.1967L29.0225 5.11007Z" fill="#9C3900"/>
<path fill-rule="evenodd" clip-rule="evenodd" d="M26.2109 12.5647C26.2317 12.5658 26.2519 12.5671 26.2757 12.569C26.5426 12.5906 26.6882 12.6577 26.7127 12.7701L26.7242 12.8701C26.7242 12.8354 26.7204 12.8021 26.7127 12.7701L26.6604 12.2689C26.9793 12.1332 27.1443 12.0083 27.1555 11.8941L26.9165 11.8649L26.8932 11.8948L26.8786 11.8602L26.842 11.8558L26.8645 11.8269L26.85 11.7926L26.8872 11.7971C26.9641 11.6944 26.9983 11.6314 26.9897 11.6083L26.6658 11.5672C26.6289 11.581 26.5896 11.5951 26.5481 11.6096C26.5481 11.6096 26.5363 11.5462 26.5411 11.5445L26.5348 11.4864L26.6578 11.502C26.9112 11.406 27.0489 11.3261 27.0708 11.2621C26.9951 11.1431 26.9225 11.0603 26.8532 11.0136L26.5989 10.8488L26.4992 10.8481C26.4992 10.8481 26.5125 10.7846 26.5188 10.7846L26.5352 10.7313L26.6185 10.7852C27.0731 10.7882 27.3412 10.7896 27.4225 10.7896C27.5603 10.7401 27.5761 10.673 27.4701 10.5883C27.3663 10.5259 27.3215 10.4646 27.3357 10.4043C27.3698 10.3388 27.3937 10.2864 27.4076 10.2471C27.3928 10.2357 27.3785 10.2211 27.3654 10.2036L27.4173 10.1657L27.4709 10.1301C27.4847 10.1502 27.4894 10.1743 27.4855 10.2052C27.5153 10.1872 27.5302 10.1007 27.5302 9.94547C27.5315 9.7798 27.5218 9.66684 27.5007 9.60683L27.4619 9.55584L27.4779 9.49416C27.4922 9.49774 27.5048 9.50389 27.5161 9.51273C27.6108 9.43001 27.6348 9.3608 27.5882 9.30509C27.5162 9.21921 26.8304 9.00784 26.5232 8.958L26.4556 9.00087C26.4556 9.00087 26.4265 8.94735 26.4366 8.93721L26.4206 8.88369C26.444 8.88369 26.474 8.88636 26.509 8.89129L28.0258 7.92991C28.0999 7.64976 28.1913 7.42595 28.3 7.2585C28.5843 7.00322 28.7552 6.77555 28.8125 6.57551C28.8698 6.37547 28.9791 6.02876 29.1405 5.53538V5.1967L29.0225 5.11007C27.6823 5.47171 26.7699 5.71826 26.2853 5.84972C26.1872 5.87632 26.0001 5.9239 26.0135 5.6569C25.553 5.95251 24.8106 6.2513 24.5062 6.33608C24.4082 6.36337 24.3897 6.26475 24.3719 6.17029C24.3619 6.11709 24.3521 6.06521 24.3286 6.03789C24.196 6.23326 23.8554 6.5195 23.7588 6.54746C22.8005 6.82475 22.1643 7.02631 21.85 7.15214C21.5506 7.4401 21.4009 7.69823 21.4009 7.92654C21.4009 8.26899 21.353 8.56147 21.0439 8.56147C20.7348 8.56147 20.0218 9.18352 20.283 9.53405C20.5441 9.88458 21.4009 9.69793 21.4009 9.53405C21.4009 9.37018 22.0116 9.16516 22.0116 9.34961C22.0116 9.47257 21.9577 9.64526 21.85 9.86766H22.3853L22.4942 9.81131L22.5102 9.87497L22.5243 9.93133H22.4012L22.0116 10.1328H22.4019L22.4901 10.0788L22.5086 10.1425L22.5243 10.1965H22.4204L22.0116 10.4469H22.8148L22.9448 10.389L22.9588 10.4526L22.9715 10.5106H22.8288L22.3581 10.7206H22.7043L22.7308 10.6838L22.7502 10.7206H22.7836L22.7643 10.7474L22.7836 10.7842H22.7378L22.5243 11.0807H23.1892C23.3618 11.2552 23.5293 11.3901 23.6919 11.4855C23.9358 11.6285 24.4765 12.8457 24.2061 13.317C23.9358 13.7884 24.2675 13.8585 24.3286 13.6514C24.3896 13.4443 24.516 13.1476 24.6245 13.1476H24.9413L25.0885 13.5348L25.4378 13.9081C25.4378 13.9081 25.4627 13.5836 25.5282 13.5348C25.71 13.5533 25.845 13.5519 25.9332 13.5305C25.9304 13.5082 25.9277 13.4866 25.9251 13.4656C25.9015 13.2744 25.8849 13.1396 25.858 13.0554L25.8791 12.9952C25.8791 12.9952 25.9433 13.0093 25.9435 13.0167C26.1918 13.0978 26.3717 13.1374 26.483 13.1355C26.3356 12.905 26.2481 12.7361 26.2179 12.6186C26.2133 12.5983 26.2109 12.5803 26.2109 12.5647ZM26.505 11.4895L26.2492 11.5785L26.9027 11.6615C26.8796 11.6997 26.8422 11.7517 26.7909 11.8168L26.7213 11.9052L27.0645 11.9471C27.0087 12.0211 26.866 12.1121 26.6347 12.2105L26.5912 12.229L26.6283 12.5851C26.5328 12.5375 26.3936 12.5103 26.2143 12.5012L26.1462 12.4977V12.5647C26.1462 12.6638 26.2175 12.8259 26.3606 13.061C26.2475 13.0426 26.0935 13.0006 25.9002 12.935L25.8206 12.908L25.8146 12.9906C25.8112 13.0362 25.8267 13.1941 25.8616 13.4784C25.7826 13.4877 25.6733 13.4856 25.5348 13.4715L25.4891 13.4841C25.4435 13.5181 25.4193 13.5911 25.3984 13.7073C25.3952 13.7253 25.3922 13.7437 25.3894 13.7624L25.1446 13.5009L24.9862 13.0839H24.6245C24.485 13.0839 24.357 13.3265 24.2664 13.6337C24.2494 13.6915 24.2069 13.7096 24.1865 13.6914C24.1458 13.6552 24.1562 13.5335 24.2625 13.3483C24.3967 13.1143 24.3604 12.7123 24.2031 12.2576C24.0681 11.8676 23.8662 11.5136 23.725 11.4308C23.5677 11.3385 23.4044 11.2071 23.2356 11.0363L23.2165 11.0171H22.6494L22.9087 10.6569H22.6575L23.2709 10.3833H22.2379L22.7506 10.0692H22.2737L22.7864 9.804H21.9508C22.0342 9.61661 22.0763 9.46584 22.0763 9.34961C22.0763 9.26587 22.012 9.22069 21.921 9.21408C21.8561 9.20937 21.7729 9.22305 21.6863 9.25065C21.4906 9.31306 21.3362 9.41925 21.3362 9.53405C21.3362 9.53882 21.3029 9.56676 21.2378 9.59383C21.1574 9.62724 21.0478 9.6528 20.9337 9.66358C20.6653 9.68895 20.4359 9.63166 20.3352 9.49641C20.2398 9.36849 20.3052 9.16709 20.4974 8.95915C20.6728 8.76946 20.9131 8.62513 21.0439 8.62513C21.2161 8.62513 21.3334 8.54496 21.3978 8.39755C21.4475 8.28372 21.4656 8.13665 21.4656 7.92654C21.4656 7.72095 21.6041 7.47994 21.8861 7.20642C22.2018 7.08133 22.8327 6.88178 23.777 6.60853C23.8811 6.57842 24.147 6.35553 24.31 6.19102C24.3237 6.26321 24.3338 6.29971 24.3555 6.33498C24.3914 6.39321 24.4513 6.41753 24.5238 6.39734C24.8832 6.29722 25.5376 6.01675 25.9564 5.76732C25.9737 5.84899 26.0183 5.90203 26.0878 5.92401C26.1511 5.94405 26.2083 5.93664 26.3025 5.91109C26.7834 5.78064 27.6856 5.53684 29.0092 5.17969L29.0758 5.22863V5.52539C28.9159 6.01442 28.8074 6.35853 28.7502 6.55824C28.6968 6.74467 28.5326 6.96346 28.2454 7.22425C28.136 7.39303 28.0442 7.61481 27.9696 7.88978L26.2007 9.01101H26.4206C26.6208 9.01101 27.4741 9.26896 27.5383 9.34558C27.5609 9.37262 27.5362 9.42174 27.4232 9.50485L27.3148 9.58458L27.4347 9.61478C27.4404 9.62628 27.4461 9.64596 27.4508 9.67301C27.4614 9.7335 27.4665 9.82453 27.4655 9.94498C27.4655 10.0405 27.4595 10.1074 27.45 10.1411C27.45 10.1411 27.36 10.1882 27.357 10.1875L27.357 10.1872L27.3569 10.1874C27.3561 10.195 27.353 10.207 27.3477 10.2227C27.3353 10.259 27.3121 10.3101 27.2727 10.39C27.2508 10.4831 27.3103 10.5658 27.4326 10.6403C27.4919 10.688 27.4915 10.6965 27.411 10.7259C27.3098 10.7258 27.006 10.7241 26.5001 10.7208L26.2816 10.7194L26.8176 11.0667C26.8713 11.1029 26.9307 11.1682 26.9938 11.2621C26.9746 11.2804 26.9382 11.3055 26.8851 11.3335C26.7977 11.3797 26.6708 11.4318 26.505 11.4895ZM27.357 10.1875L27.3572 10.1896L27.3569 10.1879L27.357 10.1875L27.357 10.1875Z" fill="#212121"/>
<path fill-rule="evenodd" clip-rule="evenodd" d="M27.4074 10.7921C27.4074 10.7921 29.316 11.0462 29.4314 11.0462C29.5469 11.0462 30.0273 10.924 29.8628 10.1552C29.6982 9.38642 29.7652 8.92137 29.2943 8.92137C28.8233 8.92137 28.3322 9.12597 28.1555 9.12597C27.9788 9.12597 28.1497 9.12597 27.4074 9.12597C26.6652 9.12597 22.2435 9.10044 21.9251 9.45508C21.6067 9.80972 20.7113 10.3099 20.2965 10.4864C19.8817 10.6628 19.7753 10.5395 19.5889 11.0462C19.4024 11.5528 19.2637 11.5881 19.2637 11.5881L19.5889 11.9508H20.5554C20.5554 11.9508 21.2209 11.1158 22.6024 11.0462C23.984 10.9766 27.4074 10.7921 27.4074 10.7921Z" fill="white"/>
<path fill-rule="evenodd" clip-rule="evenodd" d="M22.6024 11.0462C23.5235 10.9998 25.1252 10.9151 27.4074 10.7921C28.6798 10.9615 29.3545 11.0462 29.4314 11.0462C29.5469 11.0462 30.0273 10.924 29.8628 10.1552C29.8249 9.9781 29.7992 9.81712 29.7765 9.67423C29.7005 9.19684 29.6567 8.92137 29.2943 8.92137C29.0022 8.92137 28.7024 9.00005 28.4746 9.05983C28.3351 9.09644 28.2226 9.12597 28.1555 9.12597H27.4074C27.3692 9.12597 27.3212 9.1259 27.2645 9.12582C26.2205 9.12435 22.2271 9.11871 21.9251 9.45508C21.6067 9.80972 20.7113 10.3099 20.2965 10.4864C20.1905 10.5314 20.1046 10.557 20.0324 10.5784C19.8221 10.6409 19.7277 10.669 19.5889 11.0462C19.4646 11.3839 19.3562 11.5646 19.2637 11.5881L19.5889 11.9508H20.5554C20.9991 11.3941 21.6814 11.0926 22.6024 11.0462ZM20.5088 11.8553H19.6327L19.4081 11.6048C19.4985 11.5118 19.5846 11.3382 19.6801 11.0787C19.7166 10.9796 19.7494 10.9067 19.7812 10.8531C19.8392 10.7554 19.885 10.724 20.0077 10.6857C20.0103 10.6849 20.02 10.682 20.0333 10.678C20.067 10.6679 20.1239 10.6508 20.1483 10.643C20.2125 10.6225 20.272 10.6008 20.335 10.574C20.8807 10.3419 21.7105 9.8384 21.9978 9.51831C22.0517 9.45828 22.3813 9.39015 22.899 9.3415C23.3666 9.29755 23.982 9.26676 24.7126 9.24717C25.5265 9.22535 26.2793 9.21996 27.2254 9.22126C27.2206 9.22125 27.3059 9.22137 27.3266 9.22139L27.4074 9.22146H28.1555C28.2062 9.22146 28.2691 9.2102 28.3652 9.18666C28.3891 9.1808 28.4569 9.16319 28.5202 9.14675C28.5706 9.13365 28.6182 9.1213 28.6385 9.1162C28.8648 9.05939 29.042 9.02732 29.2137 9.01889C29.2411 9.01754 29.2679 9.01686 29.2943 9.01686C29.5214 9.01686 29.5873 9.12353 29.6604 9.56358C29.663 9.57928 29.6701 9.62318 29.678 9.6726C29.6885 9.7378 29.7005 9.81259 29.7059 9.84488C29.726 9.96548 29.7453 10.0697 29.7678 10.1749C29.8351 10.4894 29.7936 10.6988 29.6794 10.8257C29.6052 10.9082 29.4988 10.9507 29.4314 10.9507C29.3617 10.9507 28.6754 10.8645 27.4021 10.6968C25.12 10.8197 23.5184 10.9044 22.5975 10.9508C21.6702 10.9975 20.9716 11.2986 20.5088 11.8553Z" fill="#4D4D4D"/>
<path fill-rule="evenodd" clip-rule="evenodd" d="M19.5071 11.3993C19.5071 11.3993 18.7791 11.8662 19.0464 12.18C19.3136 12.4937 19.3401 12.5335 19.3933 12.5335C19.3933 12.5335 19.4076 12.1976 19.4938 12.1976C19.58 12.1976 20.2628 12.5238 20.5102 11.9724C20.7577 11.4209 19.5071 11.3993 19.5071 11.3993Z" fill="#FFC221"/>
<path fill-rule="evenodd" clip-rule="evenodd" d="M17.9219 12.9209L19.5974 12.6105L20.24 13.3063L20.4254 12.6836L20.8861 12.7967V13.111H21.0562V13.5424L22.261 13.7942L22.4121 13.381C22.4121 13.381 22.8045 14.0284 23.4071 13.9962C24.0098 13.9639 24.1173 14.1347 24.2233 13.6562C24.3292 13.1778 24.6247 12.9209 24.6247 12.9209L25.3279 13.1577C25.3279 13.1577 24.5554 14.1066 24.9248 14.4048L27.6785 15.042L27.5697 15.3755H27.2537L27.339 15.6628L24.3296 15.4549C24.3296 15.4549 23.9943 15.8798 23.9943 15.7713C23.9943 15.6628 23.9761 15.6628 23.8279 15.6628C23.6797 15.6628 23.6029 15.4549 23.6029 15.4549L23.4071 15.5303C23.4071 15.5303 23.4367 15.5343 23.1905 15.4549C22.9444 15.3755 22.8002 15.3755 22.8002 15.3755L21.7837 15.3006V15.4549C21.7837 15.4549 21.5145 15.4684 21.608 15.5303C21.7015 15.5922 23.6029 15.6628 23.6029 15.6628L23.487 15.8765C23.487 15.8765 24.4271 15.8798 24.6247 15.7713C24.8224 15.6628 24.6953 16.0118 24.6953 16.0118H25.629C25.629 16.0118 25.3974 16.231 25.1006 16.231C24.8037 16.231 25.9528 16.5954 25.9528 16.5954C25.9528 16.5954 25.3113 16.7945 25.0143 16.6628C24.7172 16.5312 25.1403 16.9173 25.3279 17.0148C25.5155 17.1123 24.668 17.1036 24.3296 16.7273C24.3296 16.7273 24.436 17.0061 24.3296 17.0858C24.3296 17.0858 23.7367 16.3873 23.4405 16.3873C23.1443 16.3873 23.487 16.8478 23.487 16.8478C23.487 16.8478 23.3179 16.607 23.129 16.7048C22.94 16.8027 22.8002 16.9134 22.8002 16.9134C22.8002 16.9134 22.6764 16.4867 22.022 16.3103C21.3677 16.1338 21.5872 16.069 21.0562 16.0118C20.5251 15.9545 20.4984 15.6628 20.4254 15.6628C20.3525 15.6628 19.7908 15.1714 19.7908 15.1714C19.7908 15.1714 19.6659 14.7104 19.9588 14.7104C20.2516 14.7104 20.716 14.5726 20.8861 14.7104C21.0562 14.8482 21.1281 14.7104 21.1281 14.7104H21.4274L21.8562 15.042H22.707C22.707 15.042 22.8701 14.7901 23.129 14.7104C23.3879 14.6306 23.129 14.4048 23.129 14.4048C23.129 14.4048 22.5112 14.44 22.261 14.5357C22.0108 14.6315 22.1712 14.0726 22.1712 14.0726L21.0562 13.87L20.8861 14.0726L20.5171 14.1836V14.4048L20.1281 14.3193L20.24 13.6562L19.3297 14.0726L17.9219 12.9209Z" fill="#FFC221"/>
<path fill-rule="evenodd" clip-rule="evenodd" d="M23.5215 15.8129L23.6029 15.6628C22.4469 15.6199 21.7921 15.5794 21.6378 15.5411C21.6233 15.5375 21.6134 15.5339 21.608 15.5303C21.5145 15.4684 21.7837 15.4549 21.7837 15.4549V15.3596V15.3006L21.8484 15.3053L22.8002 15.3755C22.8963 15.3755 23.0264 15.402 23.1905 15.4549C23.2603 15.4774 23.3134 15.4949 23.3499 15.5073C23.3523 15.5017 23.3564 15.4961 23.3638 15.486C23.3812 15.4749 23.3883 15.4704 23.396 15.4686C23.4012 15.4673 23.4067 15.4673 23.416 15.4672C23.416 15.4672 23.4113 15.5309 23.4071 15.5303C23.4071 15.5303 23.5423 15.4772 23.5441 15.4776L23.6029 15.4549C23.6265 15.5188 23.6551 15.5679 23.6888 15.6023L23.7022 15.615C23.7386 15.6469 23.7805 15.6628 23.8279 15.6628C23.9761 15.6628 23.9943 15.6628 23.9943 15.7713C23.9943 15.8437 24.1061 15.7382 24.3296 15.4549L27.339 15.6628L27.2537 15.4392L27.2673 15.4213L27.2537 15.3755H27.3022L27.3158 15.3577L27.3211 15.3755H27.5697L27.6785 15.042L24.9248 14.4048C24.6785 14.206 24.8129 13.7903 25.3279 13.1577L24.6247 12.9209C24.4277 13.0922 24.2939 13.3373 24.2233 13.6562C24.1444 14.0121 24.0648 14.0088 23.7811 13.997C23.6834 13.993 23.5615 13.9879 23.4071 13.9962C23.0053 14.0177 22.6737 13.8126 22.4121 13.381L22.261 13.7942L21.0562 13.5424V13.111H20.8861V12.7967L20.4254 12.6836L20.2613 13.2347L20.2879 13.2635L20.2502 13.272L20.24 13.3063L20.2156 13.2799L20.1779 13.2884L20.189 13.2511L19.5974 12.6105L17.9219 12.9209L19.3297 14.0726L20.169 13.6887L20.1762 13.6458L20.2091 13.6704L20.24 13.6562L20.2344 13.6894L20.2673 13.714L20.2272 13.7323L20.1281 14.3193L20.5171 14.4048V14.1836L20.8861 14.0726L21.0562 13.87C21.0562 13.87 22.1084 14.0572 22.1132 14.062L22.1712 14.0726C22.1656 14.092 22.1604 14.1108 22.1542 14.1342C22.0681 14.4621 22.1037 14.5959 22.261 14.5357C22.4278 14.4719 22.7171 14.4283 23.129 14.4048C23.3016 14.5554 23.3016 14.6572 23.129 14.7104C22.9564 14.7635 22.8157 14.8741 22.707 15.042H21.8562L21.4274 14.7104H21.1281C21.0802 14.8022 20.9995 14.8022 20.8861 14.7104C20.7717 14.6177 20.5241 14.6497 20.2852 14.6806C20.1689 14.6956 20.0546 14.7104 19.9588 14.7104C19.7635 14.7104 19.7076 14.864 19.7908 15.1714C20.1653 15.499 20.3768 15.6628 20.4254 15.6628C20.4458 15.6628 20.4625 15.6855 20.4876 15.7194C20.5524 15.8072 20.6731 15.9705 21.0562 16.0118C21.3439 16.0428 21.4113 16.076 21.5167 16.128C21.6059 16.172 21.7222 16.2294 22.022 16.3103C22.4583 16.4279 22.7177 16.6289 22.8002 16.9134C22.8002 16.9134 22.94 16.8027 23.129 16.7048C23.251 16.6417 23.3668 16.6845 23.4765 16.8332C23.4973 16.8627 23.5095 16.8792 23.5095 16.8792C23.4985 16.8635 23.4875 16.8482 23.4765 16.8332C23.4211 16.7548 23.1759 16.3873 23.4405 16.3873C23.638 16.3873 23.9343 16.6201 24.3296 17.0858C24.3831 17.0457 24.3962 16.9679 24.369 16.8523C24.3369 16.8264 24.3075 16.7988 24.2812 16.7695C24.2812 16.7695 24.331 16.7311 24.3376 16.7361L24.3902 16.705C24.4051 16.7442 24.4173 16.7812 24.4265 16.8159C24.8053 17.1043 25.4995 17.104 25.3279 17.0148C25.2161 16.9567 25.0205 16.796 24.939 16.6977C24.8979 16.6463 24.8975 16.6187 24.9835 16.65C24.9927 16.6536 25.003 16.6578 25.0143 16.6628C25.2123 16.7506 25.5252 16.7281 25.9528 16.5954C25.5069 16.454 25.2243 16.3537 25.0881 16.2859C25.0196 16.2493 25.0237 16.231 25.1023 16.231C25.1007 16.2259 25.0984 16.2213 25.095 16.2155C25.099 16.2185 25.1051 16.2223 25.1203 16.2307C25.2586 16.2273 25.3862 16.1876 25.5029 16.1118H25.5544C25.5733 16.0891 25.5918 16.0649 25.6101 16.0392L25.608 16.0311C25.6151 16.0248 25.6221 16.0183 25.629 16.0118H25.603L25.608 16.0311C25.574 16.0614 25.539 16.0883 25.5029 16.1118H25.4402C25.4715 16.0828 25.502 16.0495 25.5318 16.0118H24.7638L24.7561 16.0332L24.7408 16.0118H24.6953C24.7007 15.9969 24.7057 15.9826 24.7102 15.969L24.7169 15.9481C24.7744 15.765 24.7437 15.706 24.6247 15.7713C24.4982 15.8408 24.1434 15.8759 23.5603 15.8766L23.5441 15.9064L23.5259 15.8766L23.487 15.8765L23.5054 15.8426L23.4872 15.8128L23.5215 15.8129ZM19.3395 13.9978L18.069 12.9584L19.5738 12.6797L20.2697 13.4331L20.4701 12.7602L20.8214 12.8464V13.1747H20.9915V13.5939L22.3027 13.868L22.4285 13.5242C22.6907 13.8999 23.0195 14.0807 23.4106 14.0598C23.5283 14.0535 23.621 14.0542 23.7575 14.0598C23.9842 14.069 24.034 14.0663 24.108 14.0218C24.195 13.9694 24.242 13.8704 24.2865 13.6698C24.3509 13.3787 24.469 13.1538 24.6401 12.9934L25.2206 13.1889C24.7319 13.808 24.6077 14.2312 24.8953 14.4634L27.5955 15.0882L27.5225 15.3119H27.1674L27.2508 15.5929L24.2997 15.3891L24.2785 15.4159C24.1794 15.5415 24.1029 15.6312 24.0499 15.6844C24.0296 15.6136 23.9705 15.5992 23.8279 15.5992C23.7607 15.5992 23.7065 15.5491 23.6637 15.4332L23.641 15.3719C23.641 15.3719 23.3972 15.4562 23.3893 15.4535C23.3526 15.4407 23.2932 15.4211 23.2107 15.3944C23.042 15.34 22.9066 15.3123 22.8027 15.3119L21.719 15.232V15.3965C21.7044 15.3981 21.6899 15.3999 21.6759 15.4021C21.6296 15.4093 21.5944 15.4185 21.5689 15.4336C21.5062 15.4706 21.5097 15.5419 21.5719 15.5831C21.6489 15.6341 22.2498 15.6753 23.4971 15.7226L23.3794 15.9397L23.4868 15.9401C24.1266 15.9424 24.5105 15.9069 24.6562 15.8269C24.6655 15.8218 24.6736 15.818 24.6802 15.8152C24.6797 15.8252 24.6781 15.8382 24.675 15.8538C24.6681 15.8893 24.6545 15.9349 24.6344 15.9903L24.6033 16.0754H25.4402C25.3358 16.1369 25.2229 16.1673 25.1006 16.1673C25.0682 16.1673 25.0444 16.1699 25.025 16.1775C24.9784 16.1958 24.959 16.2472 24.9895 16.2902C25.0101 16.3193 25.0555 16.3446 25.1394 16.3804C25.2572 16.4308 25.4542 16.5009 25.7312 16.5912C25.4209 16.6675 25.1901 16.6709 25.0409 16.6048C24.9992 16.5863 24.9674 16.5758 24.9421 16.5729C24.8918 16.5673 24.8445 16.5939 24.847 16.6513C24.8487 16.6926 24.881 16.7352 24.9432 16.7975C25.0112 16.8656 25.1049 16.9435 25.1883 17.0024C25.143 17.0002 25.0909 16.9947 25.0364 16.9859C24.7643 16.9423 24.5149 16.8374 24.3781 16.6852L24.146 16.4271L24.2691 16.7497C24.3075 16.8505 24.3221 16.9246 24.3178 16.9736C23.9405 16.5408 23.6533 16.3236 23.4405 16.3236C23.3427 16.3236 23.2769 16.3672 23.2596 16.4457C23.2488 16.4948 23.2582 16.5517 23.2828 16.6167C23.2232 16.6059 23.1615 16.6161 23.0988 16.6485C23.079 16.6588 23.0592 16.6695 23.0395 16.6805C22.9679 16.7204 22.9004 16.7631 22.8319 16.8107C22.7186 16.5471 22.452 16.3602 22.0391 16.2489C21.8829 16.2067 21.7686 16.1689 21.677 16.1313C21.6424 16.1171 21.6123 16.1035 21.5786 16.0872L21.5667 16.0814C21.5477 16.0721 21.5121 16.0546 21.4996 16.0487C21.3911 15.9978 21.2888 15.9728 21.0632 15.9485C20.867 15.9273 20.7338 15.8732 20.6402 15.7939C20.614 15.7717 20.5736 15.7236 20.5394 15.6829L20.5394 15.6829C20.5116 15.6498 20.4879 15.6215 20.479 15.6157C20.4646 15.6063 20.4487 15.6004 20.4269 15.5974C20.4187 15.5937 20.4073 15.5873 20.3933 15.5785C20.3628 15.5593 20.3217 15.5297 20.2703 15.4899C20.1685 15.4111 20.0278 15.2933 19.8485 15.1366C19.7812 14.8771 19.8219 14.774 19.9588 14.774C20.0437 14.774 20.1157 14.7667 20.3 14.7429L20.3372 14.7381C20.6329 14.7003 20.7748 14.7026 20.845 14.7595C20.973 14.8633 21.0909 14.8731 21.1642 14.774H21.405L21.8338 15.1056H22.7425L22.7616 15.0762C22.8623 14.9206 22.9907 14.8197 23.1483 14.7711C23.3774 14.7006 23.3774 14.5365 23.1719 14.3572L23.1252 14.3413C22.7071 14.3651 22.4123 14.4096 22.2376 14.4764C22.19 14.4946 22.184 14.4918 22.177 14.4559C22.1644 14.3911 22.1825 14.2672 22.2334 14.0898L22.2527 14.0226L21.0305 13.8007L20.8486 14.0173L20.4524 14.1365V14.3254L20.2019 14.2703L20.3239 13.5477L19.3395 13.9978ZM23.4071 15.5322C23.4172 15.5336 23.4196 15.5326 23.4144 15.5294L23.4071 15.5322ZM21.6359 15.543L21.6355 15.5432L21.6367 15.5425L21.6359 15.543Z" fill="#4D4D4D"/>
</g>
<rect width="32" height="24" fill="url(#paint0_linear_230_28421)" style="mix-blend-mode:overlay"/>
</g>
<rect x="0.5" y="0.5" width="31" height="23" rx="1.5" stroke="black" stroke-opacity="0.1"/>
<defs>
<linearGradient id="paint0_linear_230_28421" x1="16" y1="0" x2="16" y2="24" gradientUnits="userSpaceOnUse">
<stop stop-color="white" stop-opacity="0.7"/>
<stop offset="1" stop-opacity="0.3"/>
</linearGradient>
<clipPath id="clip0_230_28421">
<rect width="32" height="24" rx="2" fill="white"/>
</clipPath>
</defs>
</svg>
