<svg width="32" height="24" viewBox="0 0 32 24" fill="none" xmlns="http://www.w3.org/2000/svg">
<g clip-path="url(#clip0_230_23285)">
<mask id="mask0_230_23285" style="mask-type:luminance" maskUnits="userSpaceOnUse" x="0" y="0" width="32" height="24">
<rect width="32" height="24" fill="white"/>
</mask>
<g mask="url(#mask0_230_23285)">
<path fill-rule="evenodd" clip-rule="evenodd" d="M0 0V24H32V0H0Z" fill="#2E42A5"/>
<mask id="mask1_230_23285" style="mask-type:luminance" maskUnits="userSpaceOnUse" x="0" y="0" width="32" height="24">
<path fill-rule="evenodd" clip-rule="evenodd" d="M0 0V24H32V0H0Z" fill="white"/>
</mask>
<g mask="url(#mask1_230_23285)">
<path fill-rule="evenodd" clip-rule="evenodd" d="M21.0469 10.0327C21.0469 10.0327 21.9329 21.964 25.9288 21.964C29.9248 21.964 30.9076 10.0327 30.9076 10.0327H21.0469Z" fill="#FECA00" stroke="#F7FCFF" stroke-width="0.5"/>
<path fill-rule="evenodd" clip-rule="evenodd" d="M25.9118 10.6218L26.0583 10.4566L26.7522 10.8986C26.8527 10.7424 27.0317 10.6697 27.2823 10.6817L27.0292 10.2962L27.2353 10.1864L27.7158 10.7648C27.7314 10.7695 27.7472 10.7745 27.7632 10.7797L27.6414 10.0281L27.883 10L28.0407 10.9739C28.0446 10.9737 28.0484 10.9736 28.0522 10.9736C28.1202 10.9736 28.1968 11.0064 28.2756 11.0585L28.4471 10L28.6886 10.0281L28.5668 10.7797C28.5828 10.7745 28.5986 10.7695 28.6143 10.7648L29.0947 10.1864L29.3009 10.2962L29.0478 10.6817C29.2983 10.6697 29.4774 10.7424 29.5778 10.8986L30.2717 10.4566L30.4182 10.6218L29.6568 11.1069C29.6672 11.1617 29.6725 11.2218 29.6725 11.2871V11.3996L30.7232 11.1693L30.8007 11.3647L29.6725 11.7645V11.901L30.7421 11.8143L30.7743 12.0191L29.6725 12.1794V12.4153L30.777 12.5977L30.7326 12.801L29.6725 12.6425V14.9406H29.5099V12.6182L28.7988 12.5119C28.7191 13.0742 28.6293 13.7822 28.6419 14.0381C28.6543 14.291 28.8431 14.3994 28.9757 14.4755C29.0788 14.5347 29.1478 14.5743 29.0734 14.6472C28.9032 14.8139 28.4778 14.9736 28.0522 14.9736C27.6266 14.9736 27.207 14.8139 27.116 14.6472C27.0997 14.6175 27.1018 14.6199 27.1164 14.6366C27.1835 14.7136 27.5155 15.0944 27.5415 14.0381C27.5558 13.4586 27.4707 12.9354 27.3729 12.5356L26.8201 12.6182V14.9406H26.6576V12.6425L25.5975 12.801L25.553 12.5977L26.6576 12.4153V12.1794L25.5557 12.0191L25.5879 11.8143L26.6576 11.901V11.7645L25.5293 11.3647L25.6068 11.1693L26.6576 11.3996V11.2871C26.6576 11.2218 26.6628 11.1617 26.6732 11.1069L25.9118 10.6218ZM27.3025 12.2733C27.3058 12.2844 27.309 12.2957 27.3123 12.3071L26.8201 12.3884V12.2031L27.3025 12.2733ZM27.3128 11.5143C27.3054 11.5225 27.2981 11.5305 27.291 11.5384L26.8201 11.4352V11.2871C26.8201 11.2575 26.8212 11.2294 26.8235 11.2026L27.3128 11.5143ZM27.6258 11.2048C27.5711 11.2519 27.5172 11.3026 27.4661 11.3535L26.8846 10.983C26.9663 10.8412 27.1272 10.7896 27.3775 10.8267L27.6258 11.2048ZM28.6951 11.461L29.4454 10.983C29.3638 10.8412 29.2029 10.7896 28.9525 10.8267L28.6044 11.3568C28.6362 11.3919 28.6666 11.427 28.6951 11.461ZM28.9482 11.5583L29.5065 11.2026C29.5088 11.2294 29.5099 11.2575 29.5099 11.2871V11.4352L28.9482 11.5583ZM29.1731 11.9414L29.5099 11.8221V11.9141L29.1731 11.9414ZM28.9136 12.2899L29.5099 12.2031V12.3884L28.9136 12.2899ZM26.8201 11.8221V11.9141L27.1569 11.9414L26.8201 11.8221Z" fill="#CF6900"/>
<path fill-rule="evenodd" clip-rule="evenodd" d="M24.8782 15.8428C24.8782 15.8428 23.5645 18.0429 23.5645 19.3764C23.5645 19.3764 24.4596 20.0864 25.9993 20.0864C27.539 20.0864 28.3313 19.3764 28.3313 19.3764C27.8977 17.7956 27.1599 15.8428 27.1599 15.8428H24.8782Z" fill="#00A727"/>
<path fill-rule="evenodd" clip-rule="evenodd" d="M24.9414 15.2351C24.9414 14.6292 25.4326 14.1381 26.0384 14.1381C26.6443 14.1381 27.1355 14.6292 27.1355 15.2351V15.9856H24.9414V15.2351Z" fill="#E31D1C"/>
<path fill-rule="evenodd" clip-rule="evenodd" d="M21.5195 12.8335C21.5195 12.8335 23.2534 13.1907 23.2534 13.7539C23.2534 14.3172 23.9516 14.5203 24.1231 14.368C24.2946 14.2157 25.5028 14.1092 25.5028 13.375C25.5028 12.6409 25.6037 12.441 25.3102 11.9748C25.0167 11.5086 24.4048 9.93265 24.2639 10.5641C24.1231 11.1955 23.9111 11.6632 23.5195 11.2868C23.128 10.9105 22.625 10.1136 22.4485 10.5641C22.272 11.0145 23.008 11.4666 22.4485 11.4666C21.889 11.4666 22.2833 11.4961 22.2833 11.8775C22.2833 12.2588 22.3497 12.6183 21.9346 12.6183C21.5195 12.6183 21.5195 12.8335 21.5195 12.8335Z" fill="#FF927F"/>
<rect width="18" height="14" fill="#2B409A"/>
<mask id="mask2_230_23285" style="mask-type:luminance" maskUnits="userSpaceOnUse" x="0" y="0" width="18" height="14">
<rect width="18" height="14" fill="white"/>
</mask>
<g mask="url(#mask2_230_23285)">
<path d="M-2.00586 12.9997L1.95509 14.7369L18.0883 1.88866L20.1776 -0.692871L15.9419 -1.27349L9.36159 4.2632L4.06508 7.99363L-2.00586 12.9997Z" fill="#F7FCFF"/>
<path d="M-1.46289 14.217L0.555031 15.2251L19.428 -0.932617H16.5947L-1.46289 14.217Z" fill="#F50100"/>
<path d="M20.0039 12.9997L16.043 14.7369L-0.0902405 1.88866L-2.17955 -0.692871L2.05612 -1.27349L8.63646 4.2632L13.933 7.99363L20.0039 12.9997Z" fill="#F7FCFF"/>
<path d="M19.8691 13.8733L17.8512 14.8815L9.81489 7.96351L7.43229 7.19059L-2.3802 -0.683947H0.453194L10.2602 7.00368L12.8651 7.9305L19.8691 13.8733Z" fill="#F50100"/>
<mask id="path-17-outside-1_230_23285" maskUnits="userSpaceOnUse" x="-2" y="-2" width="22" height="18" fill="black">
<rect fill="white" x="-2" y="-2" width="22" height="18"/>
<path fill-rule="evenodd" clip-rule="evenodd" d="M9.98451 0H7.98451V6H0V8H7.98451V14H9.98451V8H18V6H9.98451V0Z"/>
</mask>
<path fill-rule="evenodd" clip-rule="evenodd" d="M9.98451 0H7.98451V6H0V8H7.98451V14H9.98451V8H18V6H9.98451V0Z" fill="#F50100"/>
<path d="M7.98451 0V-1.5H6.48451V0H7.98451ZM9.98451 0H11.4845V-1.5H9.98451V0ZM7.98451 6V7.5H9.48451V6H7.98451ZM0 6V4.5H-1.5V6H0ZM0 8H-1.5V9.5H0V8ZM7.98451 8H9.48451V6.5H7.98451V8ZM7.98451 14H6.48451V15.5H7.98451V14ZM9.98451 14V15.5H11.4845V14H9.98451ZM9.98451 8V6.5H8.48451V8H9.98451ZM18 8V9.5H19.5V8H18ZM18 6H19.5V4.5H18V6ZM9.98451 6H8.48451V7.5H9.98451V6ZM7.98451 1.5H9.98451V-1.5H7.98451V1.5ZM9.48451 6V0H6.48451V6H9.48451ZM0 7.5H7.98451V4.5H0V7.5ZM1.5 8V6H-1.5V8H1.5ZM7.98451 6.5H0V9.5H7.98451V6.5ZM9.48451 14V8H6.48451V14H9.48451ZM9.98451 12.5H7.98451V15.5H9.98451V12.5ZM8.48451 8V14H11.4845V8H8.48451ZM18 6.5H9.98451V9.5H18V6.5ZM16.5 6V8H19.5V6H16.5ZM9.98451 7.5H18V4.5H9.98451V7.5ZM8.48451 0V6H11.4845V0H8.48451Z" fill="#F7FCFF" mask="url(#path-17-outside-1_230_23285)"/>
</g>
</g>
</g>
<rect width="32" height="24" fill="url(#paint0_linear_230_23285)" style="mix-blend-mode:overlay"/>
</g>
<rect x="0.5" y="0.5" width="31" height="23" rx="1.5" stroke="black" stroke-opacity="0.1"/>
<defs>
<linearGradient id="paint0_linear_230_23285" x1="16" y1="0" x2="16" y2="24" gradientUnits="userSpaceOnUse">
<stop stop-color="white" stop-opacity="0.7"/>
<stop offset="1" stop-opacity="0.3"/>
</linearGradient>
<clipPath id="clip0_230_23285">
<rect width="32" height="24" rx="2" fill="white"/>
</clipPath>
</defs>
</svg>
