<svg width="32" height="24" viewBox="0 0 32 24" fill="none" xmlns="http://www.w3.org/2000/svg">
<g clip-path="url(#clip0_230_27161)">
<mask id="mask0_230_27161" style="mask-type:luminance" maskUnits="userSpaceOnUse" x="0" y="0" width="32" height="24">
<rect width="32" height="24" fill="white"/>
</mask>
<g mask="url(#mask0_230_27161)">
<path fill-rule="evenodd" clip-rule="evenodd" d="M0 0H32V24H0V0Z" fill="#F7FCFF"/>
<path fill-rule="evenodd" clip-rule="evenodd" d="M0 0V8H32V0H0Z" fill="#272727"/>
<path fill-rule="evenodd" clip-rule="evenodd" d="M0 16V24H32V16H0Z" fill="#5EAA22"/>
<path fill-rule="evenodd" clip-rule="evenodd" d="M0 0L16 12L0 24V0Z" fill="#E31D1C"/>
<path fill-rule="evenodd" clip-rule="evenodd" d="M21.6883 15.4771C21.6883 15.4771 19.4136 14.1023 19.4136 11.8305C19.4136 9.55872 21.6883 8.36357 21.6883 8.36357C20.6701 7.71755 17.1396 8.63953 17.1396 11.9045C17.1396 15.1695 20.637 15.7728 21.6883 15.4771ZM23.5289 11.3125L22.205 10.0721L22.6622 11.6557L21.3811 12.2626L22.9546 12.7748L23.6379 14.489L23.9368 12.9022L25.491 13.2454L24.315 12.097L24.7128 10.8717L23.5289 11.3125Z" fill="#E31D1C"/>
</g>
<rect width="32" height="24" fill="url(#paint0_linear_230_27161)" style="mix-blend-mode:overlay"/>
</g>
<rect x="0.5" y="0.5" width="31" height="23" rx="1.5" stroke="black" stroke-opacity="0.1"/>
<defs>
<linearGradient id="paint0_linear_230_27161" x1="16" y1="0" x2="16" y2="24" gradientUnits="userSpaceOnUse">
<stop stop-color="white" stop-opacity="0.7"/>
<stop offset="1" stop-opacity="0.3"/>
</linearGradient>
<clipPath id="clip0_230_27161">
<rect width="32" height="24" rx="2" fill="white"/>
</clipPath>
</defs>
</svg>
