<svg width="32" height="24" viewBox="0 0 32 24" fill="none" xmlns="http://www.w3.org/2000/svg">
<g clip-path="url(#clip0_230_26999)">
<mask id="mask0_230_26999" style="mask-type:luminance" maskUnits="userSpaceOnUse" x="0" y="0" width="32" height="24">
<rect width="32" height="24" fill="white"/>
</mask>
<g mask="url(#mask0_230_26999)">
<path fill-rule="evenodd" clip-rule="evenodd" d="M0 0V24H32V0H0Z" fill="#FECA00"/>
<mask id="mask1_230_26999" style="mask-type:luminance" maskUnits="userSpaceOnUse" x="0" y="0" width="32" height="24">
<path fill-rule="evenodd" clip-rule="evenodd" d="M0 0V24H32V0H0Z" fill="white"/>
</mask>
<g mask="url(#mask1_230_26999)">
<path fill-rule="evenodd" clip-rule="evenodd" d="M0 0V8H32V0H0Z" fill="#5EAA22"/>
<path fill-rule="evenodd" clip-rule="evenodd" d="M0 16V24H32V16H0Z" fill="#E31D1C"/>
<path fill-rule="evenodd" clip-rule="evenodd" d="M16 18C19.3137 18 22 15.3137 22 12C22 8.68629 19.3137 6 16 6C12.6863 6 10 8.68629 10 12C10 15.3137 12.6863 18 16 18Z" fill="#2B77B8"/>
<path fill-rule="evenodd" clip-rule="evenodd" d="M16.0002 14L13.2381 14.9265L14.0981 12.618L12.2246 10.382H14.8246L16.0002 8L17.1757 10.382H19.8331L17.9023 12.618L18.5876 14.9265L16.0002 14Z" stroke="#FECA00" stroke-width="1.5"/>
<path d="M15.696 12.0345L13.6113 16.3946" stroke="#2B77B8"/>
<path d="M15.3672 11.4795H11.3672" stroke="#2B77B8"/>
<path d="M16.1211 12.8376L20.0301 14.6417" stroke="#2B77B8"/>
<path d="M16.9668 11.8737L19.7964 8.77649" stroke="#2B77B8"/>
</g>
</g>
<rect width="32" height="24" fill="url(#paint0_linear_230_26999)" style="mix-blend-mode:overlay"/>
</g>
<rect x="0.5" y="0.5" width="31" height="23" rx="1.5" stroke="black" stroke-opacity="0.1"/>
<defs>
<linearGradient id="paint0_linear_230_26999" x1="16" y1="0" x2="16" y2="24" gradientUnits="userSpaceOnUse">
<stop stop-color="white" stop-opacity="0.7"/>
<stop offset="1" stop-opacity="0.3"/>
</linearGradient>
<clipPath id="clip0_230_26999">
<rect width="32" height="24" rx="2" fill="white"/>
</clipPath>
</defs>
</svg>
