<svg width="32" height="24" viewBox="0 0 32 24" fill="none" xmlns="http://www.w3.org/2000/svg">
<g clip-path="url(#clip0_230_23794)">
<mask id="mask0_230_23794" style="mask-type:luminance" maskUnits="userSpaceOnUse" x="0" y="0" width="32" height="24">
<rect width="32" height="24" fill="white"/>
</mask>
<g mask="url(#mask0_230_23794)">
<path fill-rule="evenodd" clip-rule="evenodd" d="M0 0V24H32V0H0Z" fill="#FECA00"/>
<mask id="mask1_230_23794" style="mask-type:luminance" maskUnits="userSpaceOnUse" x="0" y="0" width="32" height="24">
<path fill-rule="evenodd" clip-rule="evenodd" d="M0 0V24H32V0H0Z" fill="white"/>
</mask>
<g mask="url(#mask1_230_23794)">
<path fill-rule="evenodd" clip-rule="evenodd" d="M0 0V14H32V0H0Z" fill="#3CA5D9"/>
<path fill-rule="evenodd" clip-rule="evenodd" d="M0 18V24H32V18H0Z" fill="#5A962A"/>
<path fill-rule="evenodd" clip-rule="evenodd" d="M24.0816 11.8656C24.0484 11.8664 24.0151 11.8668 23.9818 11.8668C23.9532 11.8668 23.9248 11.8665 23.8963 11.8659L23.2919 13.8398L23.164 11.7838C23.1028 11.7712 23.0421 11.7571 22.9819 11.7418L21.9352 13.5217L22.2896 11.495C22.2325 11.4685 22.1762 11.4407 22.1207 11.4116L20.6892 12.9027L21.5055 11.0139C21.4558 10.9749 21.407 10.9347 21.3593 10.8934L19.6211 12.0162L20.8536 10.3675C20.8138 10.3177 20.7752 10.2669 20.7379 10.2152L18.7885 10.9099L20.3689 9.58953C20.3415 9.53135 20.3155 9.47239 20.291 9.4127L18.2363 9.64357L20.0795 8.72045C20.0665 8.65722 20.055 8.59345 20.0452 8.52916L17.9941 8.28534L20.0018 7.80786C20.0038 7.74254 20.0075 7.67762 20.0128 7.61315L18.0752 6.9085L20.1381 6.90187C20.1555 6.83861 20.1744 6.77598 20.1948 6.71403L18.4751 5.58727L20.4843 6.05147C20.5159 5.99415 20.549 5.93769 20.5835 5.88214L19.1722 4.39286L21.0205 5.30363C21.0645 5.25539 21.1096 5.20823 21.1559 5.1622L20.129 3.38969L21.7161 4.69831C21.7699 4.66153 21.8246 4.62602 21.8802 4.59182L21.294 2.63182L22.5339 4.26812C22.5944 4.24476 22.6557 4.22282 22.7177 4.20234L22.6042 2.16011L23.4301 4.03744C23.4939 4.02871 23.5582 4.02147 23.6228 4.01576L23.989 2L24.3554 4.01709C24.4197 4.023 24.4836 4.03042 24.547 4.03932L25.3739 2.16011L25.2601 4.20705C25.321 4.22744 25.3813 4.24925 25.4409 4.27244L26.6841 2.63182L26.0956 4.59934C26.1497 4.63289 26.203 4.6677 26.2553 4.70371L27.849 3.38969L26.8169 5.17132C26.8615 5.21602 26.9051 5.26177 26.9475 5.30854L28.8058 4.39286L27.3858 5.89135C27.4188 5.94488 27.4505 5.99925 27.481 6.05442L29.5029 5.58727L27.7713 6.7218C27.7908 6.7812 27.8088 6.84122 27.8255 6.90182L29.9028 6.9085L27.9512 7.61824C27.9562 7.6799 27.9597 7.74197 27.9617 7.8044L29.9839 8.28534L27.9182 8.53091C27.9087 8.59239 27.8978 8.65339 27.8854 8.7139L29.7418 9.64357L27.6732 9.41115C27.6497 9.46841 27.6249 9.525 27.5988 9.58088L29.1895 10.9099L27.2286 10.2111C27.1927 10.261 27.1556 10.31 27.1174 10.3581L28.3569 12.0162L26.6105 10.888C26.5642 10.9282 26.517 10.9674 26.4688 11.0055L27.2888 12.9027L25.8525 11.4066C25.7982 11.4352 25.7431 11.4626 25.6873 11.4888L26.0428 13.5217L24.9942 11.7385C24.9347 11.7539 24.8747 11.768 24.8142 11.7807L24.6861 13.8398L24.0816 11.8656ZM23.9458 10.4148C25.3464 10.4148 26.4818 9.29593 26.4818 7.91569C26.4818 6.53545 25.3464 5.41654 23.9458 5.41654C22.5452 5.41654 21.4098 6.53545 21.4098 7.91569C21.4098 9.29593 22.5452 10.4148 23.9458 10.4148ZM25.4044 7.98885C25.4044 8.77819 24.7645 9.41808 23.9752 9.41808C23.1858 9.41808 22.5459 8.77819 22.5459 7.98885C22.5459 7.1995 23.1858 6.55962 23.9752 6.55962C24.7645 6.55962 25.4044 7.1995 25.4044 7.98885Z" fill="#FFDC17"/>
</g>
</g>
<rect width="32" height="24" fill="url(#paint0_linear_230_23794)" style="mix-blend-mode:overlay"/>
</g>
<rect x="0.5" y="0.5" width="31" height="23" rx="1.5" stroke="black" stroke-opacity="0.1"/>
<defs>
<linearGradient id="paint0_linear_230_23794" x1="16" y1="0" x2="16" y2="24" gradientUnits="userSpaceOnUse">
<stop stop-color="white" stop-opacity="0.7"/>
<stop offset="1" stop-opacity="0.3"/>
</linearGradient>
<clipPath id="clip0_230_23794">
<rect width="32" height="24" rx="2" fill="white"/>
</clipPath>
</defs>
</svg>
