<svg width="32" height="24" viewBox="0 0 32 24" fill="none" xmlns="http://www.w3.org/2000/svg">
<g clip-path="url(#clip0_230_27652)">
<mask id="mask0_230_27652" style="mask-type:luminance" maskUnits="userSpaceOnUse" x="0" y="0" width="32" height="24">
<rect width="32" height="24" fill="white"/>
</mask>
<g mask="url(#mask0_230_27652)">
<path fill-rule="evenodd" clip-rule="evenodd" d="M0 0H32V6H0V0Z" fill="#3D58DB"/>
<path fill-rule="evenodd" clip-rule="evenodd" d="M0 6H32V12H0V6Z" fill="#F7FCFF"/>
<path fill-rule="evenodd" clip-rule="evenodd" d="M0 12H32V18H0V12Z" fill="#73BE4A"/>
<path fill-rule="evenodd" clip-rule="evenodd" d="M0 18H32V24H0V18Z" fill="#FFD018"/>
<path fill-rule="evenodd" clip-rule="evenodd" d="M4.52928 5.41609L2.10474 7.0978L2.87947 4.21744L1.09961 2.37746L3.50964 2.27797L4.52928 -0.570282L5.54892 2.27797H7.95485L6.17909 4.21744L7.06842 6.92779L4.52928 5.41609Z" fill="#FECA00"/>
<path fill-rule="evenodd" clip-rule="evenodd" d="M12 0H20V24H12V0Z" fill="#E11C1B"/>
</g>
<rect width="32" height="24" fill="url(#paint0_linear_230_27652)" style="mix-blend-mode:overlay"/>
</g>
<rect x="0.5" y="0.5" width="31" height="23" rx="1.5" stroke="black" stroke-opacity="0.1"/>
<defs>
<linearGradient id="paint0_linear_230_27652" x1="16" y1="0" x2="16" y2="24" gradientUnits="userSpaceOnUse">
<stop stop-color="white" stop-opacity="0.7"/>
<stop offset="1" stop-opacity="0.3"/>
</linearGradient>
<clipPath id="clip0_230_27652">
<rect width="32" height="24" rx="2" fill="white"/>
</clipPath>
</defs>
</svg>
