<svg width="32" height="24" viewBox="0 0 32 24" fill="none" xmlns="http://www.w3.org/2000/svg">
<g clip-path="url(#clip0_230_24753)">
<mask id="mask0_230_24753" style="mask-type:luminance" maskUnits="userSpaceOnUse" x="0" y="0" width="32" height="24">
<rect width="32" height="24" fill="white"/>
</mask>
<g mask="url(#mask0_230_24753)">
<path fill-rule="evenodd" clip-rule="evenodd" d="M0 0H32V24H0V0Z" fill="#F7FCFF"/>
<rect x="0.0273438" y="5" width="32" height="2.9" fill="#E31D1C"/>
<rect x="0.0273438" y="10.2" width="32" height="2.9" fill="#E31D1C"/>
<rect x="0.111328" y="15.2" width="32" height="2.5" fill="#E31D1C"/>
<rect x="0.111328" y="20.2" width="32" height="2.7" fill="#E31D1C"/>
<path fill-rule="evenodd" clip-rule="evenodd" d="M0 0H32V2.5H0V0Z" fill="#E31D1C"/>
<path fill-rule="evenodd" clip-rule="evenodd" d="M0 0H16V12H0V0Z" fill="#3D58DB"/>
<path fill-rule="evenodd" clip-rule="evenodd" d="M3.59375 6.20228C3.59375 7.5785 4.24197 8.87992 5.56072 8.87992C7.5393 8.87992 7.92423 8.45809 8.84748 7.87612C9.06576 8.36639 8.3295 10.4645 5.53372 10.4645C3.29746 10.4195 1.49023 8.62294 1.49023 6.20228C1.49023 3.42377 3.53381 1.92322 5.4776 1.94021C7.19363 1.94021 9.01366 2.91396 8.95788 4.15619C8.14934 3.36634 7.27139 3.36634 5.80991 3.36634C4.34842 3.36634 3.59375 4.82588 3.59375 6.20228Z" fill="#FECA00"/>
<path fill-rule="evenodd" clip-rule="evenodd" d="M11 7.30005L10.0729 8.65322L10.1183 7.01357L8.57295 7.5634L9.57342 6.26357L8 5.80005L9.57342 5.33652L8.57295 4.03669L10.1183 4.58652L10.0729 2.94688L11 4.30005L11.9271 2.94688L11.8817 4.58652L13.4271 4.03669L12.4266 5.33652L14 5.80005L12.4266 6.26357L13.4271 7.5634L11.8817 7.01357L11.9271 8.65322L11 7.30005Z" fill="#FECA00"/>
</g>
<rect width="32" height="24" fill="url(#paint0_linear_230_24753)" style="mix-blend-mode:overlay"/>
</g>
<rect x="0.5" y="0.5" width="31" height="23" rx="1.5" stroke="black" stroke-opacity="0.1"/>
<defs>
<linearGradient id="paint0_linear_230_24753" x1="16" y1="0" x2="16" y2="24" gradientUnits="userSpaceOnUse">
<stop stop-color="white" stop-opacity="0.7"/>
<stop offset="1" stop-opacity="0.3"/>
</linearGradient>
<clipPath id="clip0_230_24753">
<rect width="32" height="24" rx="2" fill="white"/>
</clipPath>
</defs>
</svg>
