<svg width="32" height="24" viewBox="0 0 32 24" fill="none" xmlns="http://www.w3.org/2000/svg">
<g clip-path="url(#clip0_230_25321)">
<mask id="mask0_230_25321" style="mask-type:luminance" maskUnits="userSpaceOnUse" x="0" y="0" width="32" height="24">
<rect width="32" height="24" fill="white"/>
</mask>
<g mask="url(#mask0_230_25321)">
<path fill-rule="evenodd" clip-rule="evenodd" d="M0 16H32V24H0V16Z" fill="#E31D1C"/>
<path fill-rule="evenodd" clip-rule="evenodd" d="M0 8H32V16H0V8Z" fill="#2E42A5"/>
<path fill-rule="evenodd" clip-rule="evenodd" d="M0 0H32V8H0V0Z" fill="#E31D1C"/>
<path fill-rule="evenodd" clip-rule="evenodd" d="M16 15.7402C18.0711 15.7402 19.75 14.0613 19.75 11.9902C19.75 9.91917 18.0711 8.24023 16 8.24023C13.9289 8.24023 12.25 9.91917 12.25 11.9902C12.25 14.0613 13.9289 15.7402 16 15.7402Z" fill="#F7FCFF"/>
</g>
<rect width="32" height="24" fill="url(#paint0_linear_230_25321)" style="mix-blend-mode:overlay"/>
</g>
<rect x="0.5" y="0.5" width="31" height="23" rx="1.5" stroke="black" stroke-opacity="0.1"/>
<defs>
<linearGradient id="paint0_linear_230_25321" x1="16" y1="0" x2="16" y2="24" gradientUnits="userSpaceOnUse">
<stop stop-color="white" stop-opacity="0.7"/>
<stop offset="1" stop-opacity="0.3"/>
</linearGradient>
<clipPath id="clip0_230_25321">
<rect width="32" height="24" rx="2" fill="white"/>
</clipPath>
</defs>
</svg>
