<svg width="32" height="24" viewBox="0 0 32 24" fill="none" xmlns="http://www.w3.org/2000/svg">
<g clip-path="url(#clip0_230_28362)">
<mask id="mask0_230_28362" style="mask-type:luminance" maskUnits="userSpaceOnUse" x="0" y="0" width="32" height="24">
<rect width="32" height="24" fill="white"/>
</mask>
<g mask="url(#mask0_230_28362)">
<path fill-rule="evenodd" clip-rule="evenodd" d="M0 0V24H32V0H0Z" fill="#0061C1"/>
<mask id="mask1_230_28362" style="mask-type:luminance" maskUnits="userSpaceOnUse" x="0" y="0" width="32" height="24">
<path fill-rule="evenodd" clip-rule="evenodd" d="M0 0V24H32V0H0Z" fill="white"/>
</mask>
<g mask="url(#mask1_230_28362)">
<path d="M10 -1H9V0V9H0H-1V10V14V15H0H9V24V25H10H14H15V24V15H32H33V14V10V9H32H15V0V-1H14H10Z" fill="#D21034" stroke="#FFCE00" stroke-width="2"/>
</g>
</g>
<rect width="32" height="24" fill="url(#paint0_linear_230_28362)" style="mix-blend-mode:overlay"/>
</g>
<rect x="0.5" y="0.5" width="31" height="23" rx="1.5" stroke="black" stroke-opacity="0.1"/>
<defs>
<linearGradient id="paint0_linear_230_28362" x1="16" y1="0" x2="16" y2="24" gradientUnits="userSpaceOnUse">
<stop stop-color="white" stop-opacity="0.7"/>
<stop offset="1" stop-opacity="0.3"/>
</linearGradient>
<clipPath id="clip0_230_28362">
<rect width="32" height="24" rx="2" fill="white"/>
</clipPath>
</defs>
</svg>
