<svg width="32" height="24" viewBox="0 0 32 24" fill="none" xmlns="http://www.w3.org/2000/svg">
<g clip-path="url(#clip0_230_24014)">
<mask id="mask0_230_24014" style="mask-type:luminance" maskUnits="userSpaceOnUse" x="0" y="0" width="32" height="24">
<rect width="32" height="24" fill="white"/>
</mask>
<g mask="url(#mask0_230_24014)">
<path fill-rule="evenodd" clip-rule="evenodd" d="M8 0H32V24H8V0Z" fill="#EF0000"/>
<path fill-rule="evenodd" clip-rule="evenodd" d="M0 0H12V24H0V0Z" fill="#2F8D00"/>
<mask id="mask1_230_24014" style="mask-type:luminance" maskUnits="userSpaceOnUse" x="4" y="4" width="16" height="16">
<path fill-rule="evenodd" clip-rule="evenodd" d="M11.9057 19.8072C7.64521 19.8072 4.19141 16.3118 4.19141 12C4.19141 7.68816 7.64521 4.19275 11.9057 4.19275C16.1662 4.19275 19.62 7.68816 19.62 12C19.62 16.3118 16.1662 19.8072 11.9057 19.8072Z" fill="white"/>
</mask>
<g mask="url(#mask1_230_24014)">
<path fill-rule="evenodd" clip-rule="evenodd" d="M11.4297 4H12.4297V6.6988H11.4297V4Z" fill="#FFE017"/>
<path fill-rule="evenodd" clip-rule="evenodd" d="M11.4297 17.4939H12.4297V19.9999H11.4297V17.4939Z" fill="#FFE017"/>
<path d="M4.31474 12.4038L4.03516 11.6865C7.12034 10.4548 9.4489 9.6605 11.0289 9.30252C13.347 8.77732 15.8941 8.38873 18.6703 8.13647L18.7384 8.90447C15.9941 9.15383 13.4797 9.53743 11.1953 10.055C9.66239 10.4023 7.36617 11.1856 4.31474 12.4038Z" fill="#FFE017"/>
<path d="M19.1423 7.66384L18.9154 8.39994C16.5837 7.66383 14.6843 7.34741 13.2243 7.44542L13.1738 6.67603C14.7414 6.5708 16.7285 6.90183 19.1423 7.66384Z" fill="#FFE017"/>
<path d="M19.9496 11.7797L19.5185 12.4156C18.3299 11.5903 16.8654 11.1757 15.1152 11.1757V10.4047C17.0126 10.4047 18.6274 10.8617 19.9496 11.7797Z" fill="#FFE017"/>
<path d="M19.3023 12.0105L19.4992 12.7554C16.9366 13.4495 14.5307 13.8433 12.2812 13.9361C10.0163 14.0294 7.3764 13.6342 4.35938 12.7534L4.57056 12.0125C7.51426 12.8719 10.0749 13.2553 12.2502 13.1656C14.441 13.0753 16.7918 12.6905 19.3023 12.0105Z" fill="#FFE017"/>
<path d="M19.0125 15.6359L17.8082 16.8705C15.5195 14.584 13.5046 12.949 11.7758 11.9666C10.0175 10.9675 7.72451 9.9529 4.90039 8.927L5.47954 7.29407C8.38694 8.35022 10.7643 9.40212 12.6151 10.4538C14.4955 11.5224 16.6238 13.2494 19.0125 15.6359Z" fill="#FFE017"/>
<path d="M5.45977 16.3353L5.00391 15.7175C5.06757 15.6694 5.18115 15.5891 5.33765 15.4875C5.59605 15.3196 5.88299 15.152 6.19171 14.9954C7.04202 14.5641 7.89496 14.2947 8.70847 14.27C8.74826 14.2688 8.78788 14.2682 8.82733 14.2682V15.0393C8.79555 15.0393 8.76356 15.0398 8.73136 15.0407C8.04579 15.0616 7.29292 15.2993 6.53312 15.6847C6.24992 15.8284 5.98605 15.9825 5.74924 16.1364C5.66681 16.1899 5.59387 16.2394 5.53138 16.2836C5.49494 16.3093 5.47076 16.327 5.45977 16.3353Z" fill="#FFE017"/>
<path d="M5.8125 16.6025L6.00437 15.8563C8.54449 16.5253 10.5028 16.8586 11.8695 16.8586C13.231 16.8586 15.2576 16.4654 17.9361 15.6763L18.149 16.4166C15.4073 17.2244 13.3184 17.6297 11.8695 17.6297C10.4256 17.6297 8.40985 17.2866 5.8125 16.6025Z" fill="#FFE017"/>
<path d="M4.82422 9.69434L6.0313 8.4624L7.79862 10.236L6.59154 11.468L4.82422 9.69434Z" fill="#FFE017"/>
<path d="M14.8359 15.8477L15.7338 14.3698L18.5374 16.1142L17.6396 17.5922L14.8359 15.8477Z" fill="#FFE017"/>
</g>
<path fill-rule="evenodd" clip-rule="evenodd" d="M4.19141 12C4.19141 16.3118 7.64521 19.8072 11.9057 19.8072C16.1662 19.8072 19.62 16.3118 19.62 12C19.62 7.68816 16.1662 4.19275 11.9057 4.19275C7.64521 4.19275 4.19141 7.68816 4.19141 12ZM18.6676 12.0964C18.6676 15.8226 15.6828 18.8434 12.0009 18.8434C8.31903 18.8434 5.33426 15.8226 5.33426 12.0964C5.33426 8.3701 8.31903 5.34938 12.0009 5.34938C15.6828 5.34938 18.6676 8.3701 18.6676 12.0964Z" fill="#F9E813"/>
<path d="M7.6582 7.1853V13.446C8.07034 15.9241 9.4588 17.1631 11.8236 17.1631C14.1884 17.1631 15.5768 15.9241 15.989 13.446V7.1853H7.6582Z" fill="white"/>
<path d="M7.08594 6.60693H16.5596V13.4943L16.5516 13.5419C16.094 16.2936 14.4716 17.7414 11.8228 17.7414C9.17386 17.7414 7.5515 16.2936 7.09386 13.5419L7.08594 13.4943V6.60693Z" fill="#C51918"/>
<path d="M9.25195 8.71069H14.3917V13.1516C14.3917 13.1516 14.0103 15.4449 11.8218 15.4449C9.63336 15.4449 9.25195 13.1516 9.25195 13.1516V8.71069Z" fill="#F7FCFF"/>
<path fill-rule="evenodd" clip-rule="evenodd" d="M8 7.08435H8.72289V7.56628H8V7.08435Z" fill="#F9E813"/>
<path fill-rule="evenodd" clip-rule="evenodd" d="M7.61914 7.2771H8.95247V7.51806H7.61914V7.2771Z" fill="#060101"/>
<path fill-rule="evenodd" clip-rule="evenodd" d="M7.61914 7.46985H8.34203V7.71081H7.61914V7.46985Z" fill="#F9E813"/>
<path fill-rule="evenodd" clip-rule="evenodd" d="M8.38086 7.46985H9.10375V7.71081H8.38086V7.46985Z" fill="#F9E813"/>
<path fill-rule="evenodd" clip-rule="evenodd" d="M7.61914 8.04822H8.10107V8.77111H7.61914V8.04822Z" fill="#F9E813"/>
<path fill-rule="evenodd" clip-rule="evenodd" d="M8.57227 8.04822H9.05419V8.77111H8.57227V8.04822Z" fill="#F9E813"/>
<path fill-rule="evenodd" clip-rule="evenodd" d="M8.19141 8.04822H8.43237V8.77111H8.19141V8.04822Z" fill="#F9E813"/>
<path fill-rule="evenodd" clip-rule="evenodd" d="M7.61914 7.85547H8.95247V8.09643H7.61914V7.85547Z" fill="#060101"/>
<path fill-rule="evenodd" clip-rule="evenodd" d="M7.61914 8.43372H8.95247V8.67468H7.61914V8.43372Z" fill="#060101"/>
<path fill-rule="evenodd" clip-rule="evenodd" d="M7.81055 7.66272H8.05151V7.90368H7.81055V7.66272Z" fill="#F9E813"/>
<path fill-rule="evenodd" clip-rule="evenodd" d="M8.57227 7.66272H8.81323V7.90368H8.57227V7.66272Z" fill="#F9E813"/>
<path fill-rule="evenodd" clip-rule="evenodd" d="M8.19141 7.46985H8.43237V7.95178H8.19141V7.46985Z" fill="#F9E813"/>
<path fill-rule="evenodd" clip-rule="evenodd" d="M11.6191 7.08435H12.342V7.56628H11.6191V7.08435Z" fill="#F9E813"/>
<path fill-rule="evenodd" clip-rule="evenodd" d="M11.2383 7.2771H12.5716V7.51806H11.2383V7.2771Z" fill="#060101"/>
<path fill-rule="evenodd" clip-rule="evenodd" d="M11.2383 7.46985H11.9612V7.71081H11.2383V7.46985Z" fill="#F9E813"/>
<path fill-rule="evenodd" clip-rule="evenodd" d="M12 7.46985H12.7229V7.71081H12V7.46985Z" fill="#F9E813"/>
<path fill-rule="evenodd" clip-rule="evenodd" d="M11.2383 8.04822H11.7202V8.77111H11.2383V8.04822Z" fill="#F9E813"/>
<path fill-rule="evenodd" clip-rule="evenodd" d="M12.1914 8.04822H12.6733V8.77111H12.1914V8.04822Z" fill="#F9E813"/>
<path fill-rule="evenodd" clip-rule="evenodd" d="M11.8105 8.04822H12.0515V8.77111H11.8105V8.04822Z" fill="#F9E813"/>
<path fill-rule="evenodd" clip-rule="evenodd" d="M11.2383 7.85547H12.5716V8.09643H11.2383V7.85547Z" fill="#060101"/>
<path fill-rule="evenodd" clip-rule="evenodd" d="M11.2383 8.43372H12.5716V8.67468H11.2383V8.43372Z" fill="#060101"/>
<path fill-rule="evenodd" clip-rule="evenodd" d="M11.4297 7.66272H11.6707V7.90368H11.4297V7.66272Z" fill="#F9E813"/>
<path fill-rule="evenodd" clip-rule="evenodd" d="M12.1914 7.66272H12.4324V7.90368H12.1914V7.66272Z" fill="#F9E813"/>
<path fill-rule="evenodd" clip-rule="evenodd" d="M11.8105 7.46985H12.0515V7.95178H11.8105V7.46985Z" fill="#F9E813"/>
<path fill-rule="evenodd" clip-rule="evenodd" d="M15.0469 7.08435H15.7698V7.56628H15.0469V7.08435Z" fill="#F9E813"/>
<path fill-rule="evenodd" clip-rule="evenodd" d="M14.666 7.2771H15.9993V7.51806H14.666V7.2771Z" fill="#060101"/>
<path fill-rule="evenodd" clip-rule="evenodd" d="M14.666 7.46985H15.3889V7.71081H14.666V7.46985Z" fill="#F9E813"/>
<path fill-rule="evenodd" clip-rule="evenodd" d="M15.4277 7.46985H16.1506V7.71081H15.4277V7.46985Z" fill="#F9E813"/>
<path fill-rule="evenodd" clip-rule="evenodd" d="M14.666 8.04822H15.1479V8.77111H14.666V8.04822Z" fill="#F9E813"/>
<path fill-rule="evenodd" clip-rule="evenodd" d="M15.6191 8.04822H16.1011V8.77111H15.6191V8.04822Z" fill="#F9E813"/>
<path fill-rule="evenodd" clip-rule="evenodd" d="M15.2383 8.04822H15.4792V8.77111H15.2383V8.04822Z" fill="#F9E813"/>
<path fill-rule="evenodd" clip-rule="evenodd" d="M14.666 7.85547H15.9993V8.09643H14.666V7.85547Z" fill="#060101"/>
<path fill-rule="evenodd" clip-rule="evenodd" d="M14.666 8.43372H15.9993V8.67468H14.666V8.43372Z" fill="#060101"/>
<path fill-rule="evenodd" clip-rule="evenodd" d="M14.8574 7.66272H15.0984V7.90368H14.8574V7.66272Z" fill="#F9E813"/>
<path fill-rule="evenodd" clip-rule="evenodd" d="M15.6191 7.66272H15.8601V7.90368H15.6191V7.66272Z" fill="#F9E813"/>
<path fill-rule="evenodd" clip-rule="evenodd" d="M15.2383 7.46985H15.4792V7.95178H15.2383V7.46985Z" fill="#F9E813"/>
<path fill-rule="evenodd" clip-rule="evenodd" d="M15.0469 10.5542H15.7698V11.0361H15.0469V10.5542Z" fill="#F9E813"/>
<path fill-rule="evenodd" clip-rule="evenodd" d="M14.666 10.7469H15.9993V10.9879H14.666V10.7469Z" fill="#060101"/>
<path fill-rule="evenodd" clip-rule="evenodd" d="M14.666 10.9397H15.3889V11.1807H14.666V10.9397Z" fill="#F9E813"/>
<path fill-rule="evenodd" clip-rule="evenodd" d="M15.4277 10.9397H16.1506V11.1807H15.4277V10.9397Z" fill="#F9E813"/>
<path fill-rule="evenodd" clip-rule="evenodd" d="M14.666 11.5181H15.1479V12.241H14.666V11.5181Z" fill="#F9E813"/>
<path fill-rule="evenodd" clip-rule="evenodd" d="M15.6191 11.5181H16.1011V12.241H15.6191V11.5181Z" fill="#F9E813"/>
<path fill-rule="evenodd" clip-rule="evenodd" d="M15.2383 11.5181H15.4792V12.241H15.2383V11.5181Z" fill="#F9E813"/>
<path fill-rule="evenodd" clip-rule="evenodd" d="M14.666 11.3253H15.9993V11.5663H14.666V11.3253Z" fill="#060101"/>
<path fill-rule="evenodd" clip-rule="evenodd" d="M14.666 11.9036H15.9993V12.1445H14.666V11.9036Z" fill="#060101"/>
<path fill-rule="evenodd" clip-rule="evenodd" d="M14.8574 11.1326H15.0984V11.3735H14.8574V11.1326Z" fill="#F9E813"/>
<path fill-rule="evenodd" clip-rule="evenodd" d="M15.6191 11.1326H15.8601V11.3735H15.6191V11.1326Z" fill="#F9E813"/>
<path fill-rule="evenodd" clip-rule="evenodd" d="M15.2383 10.9397H15.4792V11.4216H15.2383V10.9397Z" fill="#F9E813"/>
<path fill-rule="evenodd" clip-rule="evenodd" d="M8 10.5542H8.72289V11.0361H8V10.5542Z" fill="#F9E813"/>
<path fill-rule="evenodd" clip-rule="evenodd" d="M7.61914 10.7469H8.95247V10.9879H7.61914V10.7469Z" fill="#060101"/>
<path fill-rule="evenodd" clip-rule="evenodd" d="M7.61914 10.9397H8.34203V11.1807H7.61914V10.9397Z" fill="#F9E813"/>
<path fill-rule="evenodd" clip-rule="evenodd" d="M8.38086 10.9397H9.10375V11.1807H8.38086V10.9397Z" fill="#F9E813"/>
<path fill-rule="evenodd" clip-rule="evenodd" d="M7.61914 11.5181H8.10107V12.241H7.61914V11.5181Z" fill="#F9E813"/>
<path fill-rule="evenodd" clip-rule="evenodd" d="M8.57227 11.5181H9.05419V12.241H8.57227V11.5181Z" fill="#F9E813"/>
<path fill-rule="evenodd" clip-rule="evenodd" d="M8.19141 11.5181H8.43237V12.241H8.19141V11.5181Z" fill="#F9E813"/>
<path fill-rule="evenodd" clip-rule="evenodd" d="M7.61914 11.3253H8.95247V11.5663H7.61914V11.3253Z" fill="#060101"/>
<path fill-rule="evenodd" clip-rule="evenodd" d="M7.61914 11.9036H8.95247V12.1445H7.61914V11.9036Z" fill="#060101"/>
<path fill-rule="evenodd" clip-rule="evenodd" d="M7.81055 11.1326H8.05151V11.3735H7.81055V11.1326Z" fill="#F9E813"/>
<path fill-rule="evenodd" clip-rule="evenodd" d="M8.57227 11.1326H8.81323V11.3735H8.57227V11.1326Z" fill="#F9E813"/>
<path fill-rule="evenodd" clip-rule="evenodd" d="M8.19141 10.9397H8.43237V11.4216H8.19141V10.9397Z" fill="#F9E813"/>
<path fill-rule="evenodd" clip-rule="evenodd" d="M8.46289 14.9039L8.92756 14.3502L9.29673 14.6599L8.83207 15.2137L8.46289 14.9039Z" fill="#F9E813"/>
<path fill-rule="evenodd" clip-rule="evenodd" d="M8.36719 15.3197L9.22424 14.2983L9.40883 14.4532L8.55178 15.4746L8.36719 15.3197Z" fill="#060101"/>
<path fill-rule="evenodd" clip-rule="evenodd" d="M8.51367 15.4436L8.97834 14.8898L9.16293 15.0447L8.69826 15.5985L8.51367 15.4436Z" fill="#F9E813"/>
<path fill-rule="evenodd" clip-rule="evenodd" d="M9.00391 14.86L9.46857 14.3062L9.65316 14.4611L9.1885 15.0149L9.00391 14.86Z" fill="#F9E813"/>
<path fill-rule="evenodd" clip-rule="evenodd" d="M8.95703 15.8153L9.26681 15.4461L9.82058 15.9108L9.5108 16.28L8.95703 15.8153Z" fill="#F9E813"/>
<path fill-rule="evenodd" clip-rule="evenodd" d="M9.56836 15.0858L9.87814 14.7166L10.4319 15.1813L10.1221 15.5505L9.56836 15.0858Z" fill="#F9E813"/>
<path fill-rule="evenodd" clip-rule="evenodd" d="M9.32422 15.3776L9.47911 15.193L10.0329 15.6576L9.87799 15.8422L9.32422 15.3776Z" fill="#F9E813"/>
<path fill-rule="evenodd" clip-rule="evenodd" d="M8.80859 15.6914L9.66564 14.67L9.85023 14.8249L8.99318 15.8463L8.80859 15.6914Z" fill="#060101"/>
<path fill-rule="evenodd" clip-rule="evenodd" d="M9.25195 16.0632L10.109 15.0418L10.2936 15.1967L9.43654 16.2181L9.25195 16.0632Z" fill="#060101"/>
<path fill-rule="evenodd" clip-rule="evenodd" d="M8.78516 15.4216L8.94004 15.237L9.12463 15.3919L8.96975 15.5765L8.78516 15.4216Z" fill="#F9E813"/>
<path fill-rule="evenodd" clip-rule="evenodd" d="M9.27344 14.838L9.42833 14.6534L9.61292 14.8083L9.45803 14.9929L9.27344 14.838Z" fill="#F9E813"/>
<path fill-rule="evenodd" clip-rule="evenodd" d="M8.88086 15.0059L9.03575 14.8213L9.40493 15.131L9.25004 15.3156L8.88086 15.0059Z" fill="#F9E813"/>
<path fill-rule="evenodd" clip-rule="evenodd" d="M14.9785 14.4663L15.4432 15.0201L15.074 15.3299L14.6093 14.7761L14.9785 14.4663Z" fill="#F9E813"/>
<path fill-rule="evenodd" clip-rule="evenodd" d="M14.5859 14.2983L15.443 15.3197L15.2584 15.4746L14.4013 14.4532L14.5859 14.2983Z" fill="#060101"/>
<path fill-rule="evenodd" clip-rule="evenodd" d="M14.4395 14.4222L14.9041 14.976L14.7195 15.1309L14.2549 14.5771L14.4395 14.4222Z" fill="#F9E813"/>
<path fill-rule="evenodd" clip-rule="evenodd" d="M14.9297 15.0059L15.3944 15.5596L15.2098 15.7145L14.7451 15.1607L14.9297 15.0059Z" fill="#F9E813"/>
<path fill-rule="evenodd" clip-rule="evenodd" d="M13.9961 14.7939L14.3059 15.1631L13.7521 15.6278L13.4423 15.2586L13.9961 14.7939Z" fill="#F9E813"/>
<path fill-rule="evenodd" clip-rule="evenodd" d="M14.6074 15.5236L14.9172 15.8927L14.3634 16.3574L14.0537 15.9882L14.6074 15.5236Z" fill="#F9E813"/>
<path fill-rule="evenodd" clip-rule="evenodd" d="M14.3633 15.2317L14.5182 15.4163L13.9644 15.8809L13.8095 15.6964L14.3633 15.2317Z" fill="#F9E813"/>
<path fill-rule="evenodd" clip-rule="evenodd" d="M14.1445 14.67L15.0016 15.6914L14.817 15.8463L13.9599 14.8249L14.1445 14.67Z" fill="#060101"/>
<path fill-rule="evenodd" clip-rule="evenodd" d="M13.7012 15.0419L14.5582 16.0633L14.3736 16.2182L13.5166 15.1968L13.7012 15.0419Z" fill="#060101"/>
<path fill-rule="evenodd" clip-rule="evenodd" d="M14.4141 14.6921L14.569 14.8767L14.3844 15.0316L14.2295 14.847L14.4141 14.6921Z" fill="#F9E813"/>
<path fill-rule="evenodd" clip-rule="evenodd" d="M14.9043 15.2758L15.0592 15.4603L14.8746 15.6152L14.7197 15.4306L14.9043 15.2758Z" fill="#F9E813"/>
<path fill-rule="evenodd" clip-rule="evenodd" d="M14.8066 14.86L14.9615 15.0446L14.5924 15.3544L14.4375 15.1698L14.8066 14.86Z" fill="#F9E813"/>
<path fill-rule="evenodd" clip-rule="evenodd" d="M12.5586 9.20483H11.2383V10.1663C11.2383 10.1663 11.3363 10.6628 11.8984 10.6628C12.4606 10.6628 12.5586 10.1663 12.5586 10.1663V9.20483ZM11.8097 9.59038C11.8097 9.69684 11.7244 9.78315 11.6192 9.78315C11.514 9.78315 11.4288 9.69684 11.4288 9.59038C11.4288 9.48391 11.514 9.39761 11.6192 9.39761C11.7244 9.39761 11.8097 9.48391 11.8097 9.59038ZM11.6192 10.5542C11.7244 10.5542 11.8097 10.4679 11.8097 10.3615C11.8097 10.255 11.7244 10.1687 11.6192 10.1687C11.514 10.1687 11.4288 10.255 11.4288 10.3615C11.4288 10.4679 11.514 10.5542 11.6192 10.5542ZM12.3811 10.3615C12.3811 10.4679 12.2959 10.5542 12.1907 10.5542C12.0855 10.5542 12.0002 10.4679 12.0002 10.3615C12.0002 10.255 12.0855 10.1687 12.1907 10.1687C12.2959 10.1687 12.3811 10.255 12.3811 10.3615ZM11.9049 10.1687C12.0101 10.1687 12.0954 10.0824 12.0954 9.97592C12.0954 9.86945 12.0101 9.78315 11.9049 9.78315C11.7998 9.78315 11.7145 9.86945 11.7145 9.97592C11.7145 10.0824 11.7998 10.1687 11.9049 10.1687ZM12.3811 9.59038C12.3811 9.69684 12.2959 9.78315 12.1907 9.78315C12.0855 9.78315 12.0002 9.69684 12.0002 9.59038C12.0002 9.48391 12.0855 9.39761 12.1907 9.39761C12.2959 9.39761 12.3811 9.48391 12.3811 9.59038Z" fill="#013399"/>
<path fill-rule="evenodd" clip-rule="evenodd" d="M12.5586 11.3253H11.2383V12.2868C11.2383 12.2868 11.3363 12.7833 11.8984 12.7833C12.4606 12.7833 12.5586 12.2868 12.5586 12.2868V11.3253ZM11.8097 11.7109C11.8097 11.8173 11.7244 11.9036 11.6192 11.9036C11.514 11.9036 11.4288 11.8173 11.4288 11.7109C11.4288 11.6044 11.514 11.5181 11.6192 11.5181C11.7244 11.5181 11.8097 11.6044 11.8097 11.7109ZM11.6192 12.6747C11.7244 12.6747 11.8097 12.5884 11.8097 12.4819C11.8097 12.3755 11.7244 12.2892 11.6192 12.2892C11.514 12.2892 11.4288 12.3755 11.4288 12.4819C11.4288 12.5884 11.514 12.6747 11.6192 12.6747ZM12.3811 12.4819C12.3811 12.5884 12.2959 12.6747 12.1907 12.6747C12.0855 12.6747 12.0002 12.5884 12.0002 12.4819C12.0002 12.3755 12.0855 12.2892 12.1907 12.2892C12.2959 12.2892 12.3811 12.3755 12.3811 12.4819ZM11.9049 12.2892C12.0101 12.2892 12.0954 12.2029 12.0954 12.0964C12.0954 11.9899 12.0101 11.9036 11.9049 11.9036C11.7998 11.9036 11.7145 11.9899 11.7145 12.0964C11.7145 12.2029 11.7998 12.2892 11.9049 12.2892ZM12.3811 11.7109C12.3811 11.8173 12.2959 11.9036 12.1907 11.9036C12.0855 11.9036 12.0002 11.8173 12.0002 11.7109C12.0002 11.6044 12.0855 11.5181 12.1907 11.5181C12.2959 11.5181 12.3811 11.6044 12.3811 11.7109Z" fill="#013399"/>
<path fill-rule="evenodd" clip-rule="evenodd" d="M14.2735 11.3253H12.9531V12.2868C12.9531 12.2868 13.0511 12.7833 13.6133 12.7833C14.1755 12.7833 14.2735 12.2868 14.2735 12.2868V11.3253ZM13.5246 11.7109C13.5246 11.8173 13.4393 11.9036 13.3341 11.9036C13.2289 11.9036 13.1436 11.8173 13.1436 11.7109C13.1436 11.6044 13.2289 11.5181 13.3341 11.5181C13.4393 11.5181 13.5246 11.6044 13.5246 11.7109ZM13.3341 12.6747C13.4393 12.6747 13.5246 12.5884 13.5246 12.4819C13.5246 12.3755 13.4393 12.2892 13.3341 12.2892C13.2289 12.2892 13.1436 12.3755 13.1436 12.4819C13.1436 12.5884 13.2289 12.6747 13.3341 12.6747ZM14.096 12.4819C14.096 12.5884 14.0107 12.6747 13.9055 12.6747C13.8003 12.6747 13.715 12.5884 13.715 12.4819C13.715 12.3755 13.8003 12.2892 13.9055 12.2892C14.0107 12.2892 14.096 12.3755 14.096 12.4819ZM13.6198 12.2892C13.725 12.2892 13.8103 12.2029 13.8103 12.0964C13.8103 11.9899 13.725 11.9036 13.6198 11.9036C13.5146 11.9036 13.4293 11.9899 13.4293 12.0964C13.4293 12.2029 13.5146 12.2892 13.6198 12.2892ZM14.096 11.7109C14.096 11.8173 14.0107 11.9036 13.9055 11.9036C13.8003 11.9036 13.715 11.8173 13.715 11.7109C13.715 11.6044 13.8003 11.5181 13.9055 11.5181C14.0107 11.5181 14.096 11.6044 14.096 11.7109Z" fill="#013399"/>
<path fill-rule="evenodd" clip-rule="evenodd" d="M10.8457 11.3253H9.52539V12.2868C9.52539 12.2868 9.62337 12.7833 10.1856 12.7833C10.7477 12.7833 10.8457 12.2868 10.8457 12.2868V11.3253ZM10.0968 11.7109C10.0968 11.8173 10.0115 11.9036 9.90634 11.9036C9.80115 11.9036 9.71587 11.8173 9.71587 11.7109C9.71587 11.6044 9.80115 11.5181 9.90634 11.5181C10.0115 11.5181 10.0968 11.6044 10.0968 11.7109ZM9.90634 12.6747C10.0115 12.6747 10.0968 12.5884 10.0968 12.4819C10.0968 12.3755 10.0115 12.2892 9.90634 12.2892C9.80115 12.2892 9.71587 12.3755 9.71587 12.4819C9.71587 12.5884 9.80115 12.6747 9.90634 12.6747ZM10.6682 12.4819C10.6682 12.5884 10.583 12.6747 10.4778 12.6747C10.3726 12.6747 10.2873 12.5884 10.2873 12.4819C10.2873 12.3755 10.3726 12.2892 10.4778 12.2892C10.583 12.2892 10.6682 12.3755 10.6682 12.4819ZM10.1921 12.2892C10.2973 12.2892 10.3825 12.2029 10.3825 12.0964C10.3825 11.9899 10.2973 11.9036 10.1921 11.9036C10.0869 11.9036 10.0016 11.9899 10.0016 12.0964C10.0016 12.2029 10.0869 12.2892 10.1921 12.2892ZM10.6682 11.7109C10.6682 11.8173 10.583 11.9036 10.4778 11.9036C10.3726 11.9036 10.2873 11.8173 10.2873 11.7109C10.2873 11.6044 10.3726 11.5181 10.4778 11.5181C10.583 11.5181 10.6682 11.6044 10.6682 11.7109Z" fill="#013399"/>
<path fill-rule="evenodd" clip-rule="evenodd" d="M12.5586 13.4458H11.2383V14.4073C11.2383 14.4073 11.3363 14.9038 11.8984 14.9038C12.4606 14.9038 12.5586 14.4073 12.5586 14.4073V13.4458ZM11.8097 13.8313C11.8097 13.9378 11.7244 14.0241 11.6192 14.0241C11.514 14.0241 11.4288 13.9378 11.4288 13.8313C11.4288 13.7249 11.514 13.6386 11.6192 13.6386C11.7244 13.6386 11.8097 13.7249 11.8097 13.8313ZM11.6192 14.7952C11.7244 14.7952 11.8097 14.7089 11.8097 14.6024C11.8097 14.496 11.7244 14.4097 11.6192 14.4097C11.514 14.4097 11.4288 14.496 11.4288 14.6024C11.4288 14.7089 11.514 14.7952 11.6192 14.7952ZM12.3811 14.6024C12.3811 14.7089 12.2959 14.7952 12.1907 14.7952C12.0855 14.7952 12.0002 14.7089 12.0002 14.6024C12.0002 14.496 12.0855 14.4097 12.1907 14.4097C12.2959 14.4097 12.3811 14.496 12.3811 14.6024ZM11.9049 14.4097C12.0101 14.4097 12.0954 14.3233 12.0954 14.2169C12.0954 14.1104 12.0101 14.0241 11.9049 14.0241C11.7998 14.0241 11.7145 14.1104 11.7145 14.2169C11.7145 14.3233 11.7998 14.4097 11.9049 14.4097ZM12.3811 13.8313C12.3811 13.9378 12.2959 14.0241 12.1907 14.0241C12.0855 14.0241 12.0002 13.9378 12.0002 13.8313C12.0002 13.7249 12.0855 13.6386 12.1907 13.6386C12.2959 13.6386 12.3811 13.7249 12.3811 13.8313Z" fill="#013399"/>
</g>
<rect width="32" height="24" fill="url(#paint0_linear_230_24014)" style="mix-blend-mode:overlay"/>
</g>
<rect x="0.5" y="0.5" width="31" height="23" rx="1.5" stroke="black" stroke-opacity="0.1"/>
<defs>
<linearGradient id="paint0_linear_230_24014" x1="16" y1="0" x2="16" y2="24" gradientUnits="userSpaceOnUse">
<stop stop-color="white" stop-opacity="0.7"/>
<stop offset="1" stop-opacity="0.3"/>
</linearGradient>
<clipPath id="clip0_230_24014">
<rect width="32" height="24" rx="2" fill="white"/>
</clipPath>
</defs>
</svg>
