<svg width="32" height="24" viewBox="0 0 32 24" fill="none" xmlns="http://www.w3.org/2000/svg">
<g clip-path="url(#clip0_230_25605)">
<mask id="mask0_230_25605" style="mask-type:luminance" maskUnits="userSpaceOnUse" x="0" y="0" width="32" height="24">
<rect width="32" height="24" fill="white"/>
</mask>
<g mask="url(#mask0_230_25605)">
<path fill-rule="evenodd" clip-rule="evenodd" d="M0 0V24H32V0H0Z" fill="#5196ED"/>
<mask id="mask1_230_25605" style="mask-type:luminance" maskUnits="userSpaceOnUse" x="0" y="0" width="32" height="24">
<path fill-rule="evenodd" clip-rule="evenodd" d="M0 0V24H32V0H0Z" fill="white"/>
</mask>
<g mask="url(#mask1_230_25605)">
<path fill-rule="evenodd" clip-rule="evenodd" d="M0 12V18H32V12H0Z" fill="#AF0100"/>
<path fill-rule="evenodd" clip-rule="evenodd" d="M0 6V12H32V6H0Z" fill="#F7FCFF"/>
<path fill-rule="evenodd" clip-rule="evenodd" d="M0 0V6H32V0H0Z" fill="#FECA00"/>
<path fill-rule="evenodd" clip-rule="evenodd" d="M0 0L19 12L0 24V0Z" fill="#5EAA22"/>
<path fill-rule="evenodd" clip-rule="evenodd" d="M7.30424 16.5012C7.30424 16.5012 3.72088 15.278 3.84762 11.4492C3.97436 7.62041 7.62305 6.87017 7.62305 6.87017C6.34523 5.94738 1.77289 7.02873 1.62656 11.4492C1.48024 15.8697 5.94174 16.8518 7.30424 16.5012ZM7.41183 9.80901L7.52409 9.1545L7.04856 8.69098L7.70573 8.59549L7.99962 8L8.29351 8.59549L8.95068 8.69098L8.47515 9.1545L8.58741 9.80901L7.99962 9.5L7.41183 9.80901ZM7.52409 11.1545L7.41183 11.809L7.99962 11.5L8.58741 11.809L8.47515 11.1545L8.95068 10.691L8.29351 10.5955L7.99962 10L7.70573 10.5955L7.04856 10.691L7.52409 11.1545ZM7.41183 13.809L7.52409 13.1545L7.04856 12.691L7.70573 12.5955L7.99962 12L8.29351 12.5955L8.95068 12.691L8.47515 13.1545L8.58741 13.809L7.99962 13.5L7.41183 13.809ZM7.41183 15.809L7.52409 15.1545L7.04856 14.691L7.70573 14.5955L7.99962 14L8.29351 14.5955L8.95068 14.691L8.47515 15.1545L8.58741 15.809L7.99962 15.5L7.41183 15.809Z" fill="#F7FCFF"/>
</g>
</g>
<rect width="32" height="24" fill="url(#paint0_linear_230_25605)" style="mix-blend-mode:overlay"/>
</g>
<rect x="0.5" y="0.5" width="31" height="23" rx="1.5" stroke="black" stroke-opacity="0.1"/>
<defs>
<linearGradient id="paint0_linear_230_25605" x1="16" y1="0" x2="16" y2="24" gradientUnits="userSpaceOnUse">
<stop stop-color="white" stop-opacity="0.7"/>
<stop offset="1" stop-opacity="0.3"/>
</linearGradient>
<clipPath id="clip0_230_25605">
<rect width="32" height="24" rx="2" fill="white"/>
</clipPath>
</defs>
</svg>
