<svg width="32" height="24" viewBox="0 0 32 24" fill="none" xmlns="http://www.w3.org/2000/svg">
<g clip-path="url(#clip0_230_23206)">
<mask id="mask0_230_23206" style="mask-type:luminance" maskUnits="userSpaceOnUse" x="0" y="0" width="32" height="24">
<rect width="32" height="24" fill="white"/>
</mask>
<g mask="url(#mask0_230_23206)">
<path fill-rule="evenodd" clip-rule="evenodd" d="M0 0H32V24H0V0Z" fill="#F7FCFF"/>
<path fill-rule="evenodd" clip-rule="evenodd" d="M0 0V8H32V0H0Z" fill="#C51918"/>
<path fill-rule="evenodd" clip-rule="evenodd" d="M0 16V24H32V16H0Z" fill="#409100"/>
<path fill-rule="evenodd" clip-rule="evenodd" d="M16.0201 8.62974L15.429 9.04746L15.6375 8.34746L15.0636 7.90564L15.7837 7.89074L16.0201 7.19995L16.2566 7.89074L16.9767 7.90564L16.4028 8.34746L16.6113 9.04746L16.0201 8.62974ZM13.523 9.2425L12.9318 9.66022L13.1404 8.96023L12.5665 8.5184L13.2866 8.5035L13.523 7.81272L13.7595 8.5035L14.4796 8.5184L13.9056 8.96023L14.1142 9.66022L13.523 9.2425ZM10.9896 11.4985L11.5808 11.0808L12.172 11.4985L11.9635 10.7985L12.5374 10.3567L11.8173 10.3418L11.5808 9.65102L11.3444 10.3418L10.6243 10.3567L11.1982 10.7985L10.9896 11.4985ZM10.9566 13.4638L10.3654 13.8815L10.5739 13.1815L10 12.7397L10.7201 12.7248L10.9566 12.034L11.193 12.7248L11.9131 12.7397L11.3392 13.1815L11.5477 13.8815L10.9566 13.4638ZM20.4232 13.8815L21.0144 13.4638L21.6055 13.8815L21.397 13.1815L21.9709 12.7397L21.2508 12.7248L21.0144 12.034L20.7779 12.7248L20.0578 12.7397L20.6317 13.1815L20.4232 13.8815ZM20.2514 11.0808L19.6602 11.4985L19.8687 10.7985L19.2948 10.3567L20.0149 10.3418L20.2514 9.65102L20.4878 10.3418L21.2079 10.3567L20.634 10.7985L20.8425 11.4985L20.2514 11.0808ZM17.7471 9.66022L18.3382 9.2425L18.9294 9.66022L18.7209 8.96023L19.2948 8.5184L18.5747 8.5035L18.3382 7.81272L18.1018 8.5035L17.3817 8.5184L17.9556 8.96023L17.7471 9.66022ZM12.6674 16.7545L12.483 16.0981C13.5031 15.8221 14.6741 15.6849 15.9965 15.6849C17.3188 15.6849 18.4898 15.8221 19.5099 16.0981L19.3256 16.7545C18.3694 16.4958 17.2597 16.3657 15.9965 16.3657C14.7333 16.3657 13.6235 16.4958 12.6674 16.7545ZM13.9306 15.7019C13.5236 15.7711 13.1908 15.3777 13.1908 15.3777L13.5945 15.2108C13.5817 14.9309 13.7506 14.7574 13.7506 14.7574C13.8872 14.8203 14.0735 15.164 14.0735 15.164H14.4395C14.4395 15.164 14.3376 15.6328 13.9306 15.7019ZM18.7401 15.4457C18.7401 15.4457 18.4073 15.8392 18.0003 15.77C17.5933 15.7009 17.4913 15.2321 17.4913 15.2321H17.8573C17.8573 15.2321 18.0437 14.8884 18.1803 14.8255C18.1803 14.8255 18.3491 14.999 18.3363 15.2789L18.7401 15.4457ZM15.9454 15.5773C15.5327 15.5891 15.2579 15.1532 15.2579 15.1532L15.6809 15.0442C15.7072 14.7652 15.8986 14.6169 15.8986 14.6169C16.0251 14.6982 16.1618 15.0645 16.1618 15.0645L16.5242 15.1154C16.5242 15.1154 16.358 15.5655 15.9454 15.5773Z" fill="#FFBB00"/>
<path fill-rule="evenodd" clip-rule="evenodd" d="M15.9593 13.6986C15.9593 13.6986 15.4903 14.7719 14.7516 14.8549C14.013 14.9379 13.6378 14.2445 13.6378 14.2445C13.6378 14.2445 13.5894 14.9656 12.7122 15.2436C11.835 15.5215 11.373 14.411 11.373 14.411C11.373 14.411 11.8297 14.8195 12.5381 14.6415C13.2464 14.4635 13.526 13.806 13.526 13.806C13.526 13.806 14.0502 14.4914 14.7516 14.1487C15.453 13.806 15.841 13.3872 15.841 12.9853V11.7835C15.841 11.7835 15.6601 11.4719 15.3462 11.4719C15.0323 11.4719 14.9447 11.6928 14.9447 11.6928C14.9447 11.6928 14.8221 10.4425 15.9511 10.3652L15.9511 10.3622C15.9616 10.3625 15.972 10.3629 15.9823 10.3634C15.9926 10.3629 16.003 10.3625 16.0135 10.3622L16.0135 10.3652C17.1425 10.4425 17.0199 11.6928 17.0199 11.6928C17.0199 11.6928 16.9323 11.4719 16.6184 11.4719C16.3045 11.4719 16.1236 11.7835 16.1236 11.7835V12.9853C16.1236 13.3872 16.5116 13.806 17.213 14.1487C17.9144 14.4914 18.4386 13.806 18.4386 13.806C18.4386 13.806 18.7182 14.4635 19.4265 14.6415C20.1349 14.8195 20.5916 14.411 20.5916 14.411C20.5916 14.411 20.1296 15.5215 19.2524 15.2436C18.3752 14.9656 18.3268 14.2445 18.3268 14.2445C18.3268 14.2445 17.9516 14.9379 17.213 14.8549C16.4743 14.7719 16.0053 13.6986 16.0053 13.6986L15.9823 12.282L15.9593 13.6986ZM15.9489 10.7019C15.428 10.7019 15.3226 11.1428 15.3226 11.1428C15.7812 11.1428 15.9489 11.3427 15.9489 11.3427C15.9489 11.3427 16.2884 11.1428 16.6303 11.1428C16.6303 11.1428 16.4697 10.7019 15.9489 10.7019Z" fill="#FFBB00"/>
</g>
<rect width="32" height="24" fill="url(#paint0_linear_230_23206)" style="mix-blend-mode:overlay"/>
</g>
<rect x="0.5" y="0.5" width="31" height="23" rx="1.5" stroke="black" stroke-opacity="0.1"/>
<defs>
<linearGradient id="paint0_linear_230_23206" x1="16" y1="0" x2="16" y2="24" gradientUnits="userSpaceOnUse">
<stop stop-color="white" stop-opacity="0.7"/>
<stop offset="1" stop-opacity="0.3"/>
</linearGradient>
<clipPath id="clip0_230_23206">
<rect width="32" height="24" rx="2" fill="white"/>
</clipPath>
</defs>
</svg>
