<svg width="32" height="24" viewBox="0 0 32 24" fill="none" xmlns="http://www.w3.org/2000/svg">
<g clip-path="url(#clip0_230_27805)">
<mask id="mask0_230_27805" style="mask-type:luminance" maskUnits="userSpaceOnUse" x="0" y="0" width="32" height="24">
<rect width="32" height="24" fill="white"/>
</mask>
<g mask="url(#mask0_230_27805)">
<path fill-rule="evenodd" clip-rule="evenodd" d="M0 0H32V24H0V0Z" fill="#73BE4A"/>
<path fill-rule="evenodd" clip-rule="evenodd" d="M0 0V16H32V0H0Z" fill="#AF0100"/>
<rect width="6" height="24" fill="#F7FCFF"/>
<path fill-rule="evenodd" clip-rule="evenodd" d="M0.443359 2.23605L1.89598 0.0568237L3.31121 2.23599L1.89594 4.31536L0.443359 2.23605ZM1.89064 3.42535L2.70481 2.22914L1.8906 0.975423L1.05494 2.22908L1.89064 3.42535ZM1.99915 2.06451H1.74915V2.58064H1.99915V2.06451Z" fill="#B20000"/>
<path fill-rule="evenodd" clip-rule="evenodd" d="M1.1362 4.18587L0.443359 5.17656L1.13619 6.12182L1.81122 5.17653L1.1362 4.18587ZM1.46026 5.19335L1.14808 5.61713L0.832145 5.16807L1.14724 4.70301L1.46026 5.19335Z" fill="#B20000"/>
<path fill-rule="evenodd" clip-rule="evenodd" d="M2.6362 4.18587L1.94336 5.17656L2.63619 6.12182L3.31122 5.17653L2.6362 4.18587ZM2.96026 5.19335L2.64808 5.61713L2.33214 5.16807L2.64724 4.70301L2.96026 5.19335Z" fill="#B20000"/>
<path fill-rule="evenodd" clip-rule="evenodd" d="M3.6362 4.18587L2.94336 5.17656L3.63619 6.12182L4.31122 5.17653L3.6362 4.18587ZM3.96026 5.19335L3.64808 5.61713L3.33214 5.16807L3.64724 4.70301L3.96026 5.19335Z" fill="#B20000"/>
<path fill-rule="evenodd" clip-rule="evenodd" d="M5.1362 4.18587L4.44336 5.17656L5.13619 6.12182L5.81122 5.17653L5.1362 4.18587ZM5.46026 5.19335L5.14808 5.61713L4.83214 5.16807L5.14724 4.70301L5.46026 5.19335Z" fill="#B20000"/>
<path fill-rule="evenodd" clip-rule="evenodd" d="M2.94336 2.23605L4.39598 0.0568237L5.81121 2.23599L4.39594 4.31536L2.94336 2.23605ZM4.39064 3.42535L5.20481 2.22914L4.3906 0.975423L3.55494 2.22908L4.39064 3.42535ZM4.49915 2.06451H4.24915V2.58064H4.49915V2.06451Z" fill="#B20000"/>
<path d="M1.65627 12.4061L0.0371094 9.68706L0.463069 9.41678L1.63685 11.3879L3.06907 8.75594L4.53688 11.3942L5.57397 9.67287L5.99855 9.94545L4.51979 12.3998L3.07389 9.80096L1.65627 12.4061Z" fill="#B20000"/>
<path fill-rule="evenodd" clip-rule="evenodd" d="M0.75 0.516129H1.01882V1.03226H0.75V0.516129Z" fill="#B20000"/>
<path fill-rule="evenodd" clip-rule="evenodd" d="M3 0H3.26882V0.516129H3V0Z" fill="#B20000"/>
<path fill-rule="evenodd" clip-rule="evenodd" d="M5.25 0.516129H5.51882V1.03226H5.25V0.516129Z" fill="#B20000"/>
<path fill-rule="evenodd" clip-rule="evenodd" d="M0.75 3.6129H1V4.12903H0.75V3.6129ZM3 3.6129H3.25V4.12903H3V3.6129ZM5.5 3.6129H5.25V4.12903H5.5V3.6129Z" fill="#B20000"/>
<path fill-rule="evenodd" clip-rule="evenodd" d="M0.75 6.19354H1V6.70967H0.75V6.19354ZM3 6.19354H3.25V6.70967H3V6.19354ZM5.5 6.19354H5.25V6.70967H5.5V6.19354Z" fill="#B20000"/>
<path fill-rule="evenodd" clip-rule="evenodd" d="M2.20795 8.95472L1.54376 9.92295L0.496094 8.03605L1.87585 5.88022L3.06242 7.75941L4.24899 5.88022L5.62875 8.03605L4.58108 9.92295L3.91689 8.95472L4.44128 7.86446L4.24899 7.42147L3.12875 9.23856V9.45373L3.06242 9.34615L2.99609 9.45373V9.23856L1.87585 7.42147L1.68356 7.86446L2.20795 8.95472Z" fill="#B20000"/>
<path fill-rule="evenodd" clip-rule="evenodd" d="M3 10.5806H3.25V11.0968H3V10.5806ZM3 13.1613H3.25V13.6774H3V13.1613ZM3 11.3548H2.75V11.871H3V12.129H2.75V12.6452H3V12.3871H3.25V12.6452H3.5V12.129H3.25V11.871H3.5V11.3548H3.25V11.871H3V11.3548ZM2.25 11.871H2.5V12.3871H2.25V11.871ZM4 11.871H3.75V12.3871H4V11.871ZM0.5 11.871H0.75V12.3871H0.5V11.871ZM5.75 11.871H5.5V12.3871H5.75V11.871Z" fill="#B20000"/>
<path fill-rule="evenodd" clip-rule="evenodd" d="M0.443359 21.7639L1.89598 23.9432L3.31121 21.764L1.89594 19.6846L0.443359 21.7639ZM1.89064 20.5747L2.70481 21.7709L1.8906 23.0246L1.05494 21.7709L1.89064 20.5747ZM1.99915 21.9355H1.74915V21.4194H1.99915V21.9355Z" fill="#B20000"/>
<path fill-rule="evenodd" clip-rule="evenodd" d="M1.1362 19.8141L0.443359 18.8234L1.13619 17.8782L1.81122 18.8235L1.1362 19.8141ZM1.46026 18.8067L1.14808 18.3829L0.832145 18.8319L1.14724 19.297L1.46026 18.8067Z" fill="#B20000"/>
<path fill-rule="evenodd" clip-rule="evenodd" d="M2.6362 19.8141L1.94336 18.8234L2.63619 17.8782L3.31122 18.8235L2.6362 19.8141ZM2.96026 18.8067L2.64808 18.3829L2.33214 18.8319L2.64724 19.297L2.96026 18.8067Z" fill="#B20000"/>
<path fill-rule="evenodd" clip-rule="evenodd" d="M3.6362 19.8141L2.94336 18.8234L3.63619 17.8782L4.31122 18.8235L3.6362 19.8141ZM3.96026 18.8067L3.64808 18.3829L3.33214 18.8319L3.64724 19.297L3.96026 18.8067Z" fill="#B20000"/>
<path fill-rule="evenodd" clip-rule="evenodd" d="M5.1362 19.8141L4.44336 18.8234L5.13619 17.8782L5.81122 18.8235L5.1362 19.8141ZM5.46026 18.8067L5.14808 18.3829L4.83214 18.8319L5.14724 19.297L5.46026 18.8067Z" fill="#B20000"/>
<path fill-rule="evenodd" clip-rule="evenodd" d="M2.94336 21.7639L4.39598 23.9432L5.81121 21.764L4.39594 19.6846L2.94336 21.7639ZM4.39064 20.5747L5.20481 21.7709L4.3906 23.0246L3.55494 21.7709L4.39064 20.5747ZM4.49915 21.9355H4.24915V21.4194H4.49915V21.9355Z" fill="#B20000"/>
<path d="M1.65627 11.5939L0.0371094 14.3129L0.463069 14.5832L1.63685 12.6121L3.06907 15.2441L4.53688 12.6058L5.57397 14.3271L5.99855 14.0546L4.51979 11.6002L3.07389 14.199L1.65627 11.5939Z" fill="#B20000"/>
<path fill-rule="evenodd" clip-rule="evenodd" d="M0.75 23.4839H1.01882V22.9677H0.75V23.4839Z" fill="#B20000"/>
<path fill-rule="evenodd" clip-rule="evenodd" d="M3 24H3.26882V23.4839H3V24Z" fill="#B20000"/>
<path fill-rule="evenodd" clip-rule="evenodd" d="M5.25 23.4839H5.51882V22.9677H5.25V23.4839Z" fill="#B20000"/>
<path fill-rule="evenodd" clip-rule="evenodd" d="M0.75 20.3871H1V19.871H0.75V20.3871ZM3 20.3871H3.25V19.871H3V20.3871ZM5.5 20.3871H5.25V19.871H5.5V20.3871Z" fill="#B20000"/>
<path fill-rule="evenodd" clip-rule="evenodd" d="M0.75 17.8065H1V17.2903H0.75V17.8065ZM3 17.8065H3.25V17.2903H3V17.8065ZM5.5 17.8065H5.25V17.2903H5.5V17.8065Z" fill="#B20000"/>
<path fill-rule="evenodd" clip-rule="evenodd" d="M2.20795 15.1928L1.54376 14.2246L0.496094 16.1115L1.87585 18.2673L3.06242 16.3881L4.24899 18.2673L5.62875 16.1115L4.58108 14.2246L3.91689 15.1928L4.44128 16.2831L4.24899 16.7261L3.12875 14.909V14.6938L3.06242 14.8014L2.99609 14.6938V14.909L1.87585 16.7261L1.68356 16.2831L2.20795 15.1928Z" fill="#B20000"/>
</g>
<rect width="32" height="24" fill="url(#paint0_linear_230_27805)" style="mix-blend-mode:overlay"/>
</g>
<rect x="0.5" y="0.5" width="31" height="23" rx="1.5" stroke="black" stroke-opacity="0.1"/>
<defs>
<linearGradient id="paint0_linear_230_27805" x1="16" y1="0" x2="16" y2="24" gradientUnits="userSpaceOnUse">
<stop stop-color="white" stop-opacity="0.7"/>
<stop offset="1" stop-opacity="0.3"/>
</linearGradient>
<clipPath id="clip0_230_27805">
<rect width="32" height="24" rx="2" fill="white"/>
</clipPath>
</defs>
</svg>
