<svg width="32" height="24" viewBox="0 0 32 24" fill="none" xmlns="http://www.w3.org/2000/svg">
<g clip-path="url(#clip0_230_25285)">
<mask id="mask0_230_25285" style="mask-type:luminance" maskUnits="userSpaceOnUse" x="0" y="0" width="32" height="24">
<rect width="32" height="24" fill="white"/>
</mask>
<g mask="url(#mask0_230_25285)">
<path fill-rule="evenodd" clip-rule="evenodd" d="M0 0V24H32V0H0Z" fill="#E31D1C"/>
<mask id="mask1_230_25285" style="mask-type:luminance" maskUnits="userSpaceOnUse" x="0" y="0" width="32" height="24">
<path fill-rule="evenodd" clip-rule="evenodd" d="M0 0V24H32V0H0Z" fill="white"/>
</mask>
<g mask="url(#mask1_230_25285)">
<path fill-rule="evenodd" clip-rule="evenodd" d="M0 0V12H32V0H0Z" fill="#2E42A5"/>
<path fill-rule="evenodd" clip-rule="evenodd" d="M4.79688 11.0532C4.79688 11.0532 6.00354 11.8043 8.79971 11.8043C11.5959 11.8043 13.0801 11.0532 13.0801 11.0532C13.0801 11.0532 10.8872 9.77844 8.92656 9.77844C6.96588 9.77844 4.79688 11.0532 4.79688 11.0532Z" fill="black"/>
<path d="M4.8708 6.74222L4.65472 6.86796L4.72703 6.99222H4.8708H13.196H13.3792L13.4344 6.81755L13.196 6.74222C13.4344 6.81755 13.4344 6.81747 13.4345 6.81739L13.4345 6.81717L13.4347 6.81661L13.4352 6.81491L13.437 6.80932L13.4429 6.78958C13.4478 6.77271 13.4547 6.74852 13.463 6.7178C13.4795 6.6564 13.5016 6.56864 13.5244 6.46075C13.5699 6.24562 13.6191 5.94712 13.6328 5.61591C13.6596 4.9677 13.5526 4.12256 12.9235 3.57561C12.2823 3.01825 11.4688 3.10501 10.767 3.28041C10.5282 3.34011 10.2846 3.41511 10.0565 3.48535C9.94885 3.51852 9.8446 3.55062 9.74594 3.57955C9.42463 3.67375 9.15679 3.73626 8.94123 3.73626C8.72671 3.73626 8.49025 3.67854 8.21262 3.59114C8.12842 3.56464 8.039 3.53486 7.94598 3.50389C7.74629 3.43739 7.52997 3.36536 7.31298 3.30826C6.65418 3.13488 5.89376 3.06939 5.05089 3.54675C4.61191 3.79536 4.36091 4.14145 4.24207 4.52073C4.12555 4.89259 4.14016 5.28191 4.20219 5.6232C4.26448 5.96593 4.37745 6.27577 4.47328 6.49792C4.52146 6.6096 4.56596 6.70061 4.59876 6.76429C4.61517 6.79616 4.6287 6.82128 4.63834 6.83881L4.6498 6.85935L4.65312 6.86519L4.65414 6.86696L4.65449 6.86755L4.65462 6.86778C4.65467 6.86787 4.65472 6.86796 4.8708 6.74222Z" fill="#FFD83D" stroke="black" stroke-width="0.5"/>
<path d="M3.8854 6.906L4.00195 7.12717C3.8854 6.906 3.8855 6.90595 3.8856 6.90589L3.88584 6.90577L3.88643 6.90546L3.88806 6.90461L3.89313 6.902L3.91049 6.89331C3.92527 6.88602 3.94648 6.8758 3.97414 6.86308C4.02946 6.83765 4.11057 6.80222 4.21761 6.76017C4.43171 6.67606 4.7495 6.56548 5.17219 6.45544C6.01777 6.2353 7.28204 6.01758 8.97442 6.01758C10.6668 6.01758 11.9311 6.2353 12.7767 6.45544C13.1993 6.56548 13.5171 6.67606 13.7312 6.76017C13.8383 6.80222 13.9194 6.83765 13.9747 6.86308C14.0024 6.8758 14.0236 6.88602 14.0384 6.89331L14.0557 6.902L14.0608 6.90461L14.0624 6.90546L14.063 6.90577L14.0632 6.90589C14.0634 6.90595 14.0634 6.906 13.9469 7.12717L14.0634 6.906L14.2581 7.0086L14.1811 7.21474L12.9962 10.3831L12.9136 10.6039L3.8854 6.906ZM3.8854 6.906L3.69244 7.00769L3.76702 7.21266L4.91999 10.381L5.00049 10.6023L5.22612 10.5352L3.8854 6.906ZM12.6883 10.5344L12.6883 10.5344L5.22616 10.5352L5.22625 10.5351L5.22703 10.5349L5.23065 10.5338L5.24594 10.5294C5.25966 10.5255 5.28035 10.5196 5.30755 10.512C5.36195 10.497 5.44237 10.4752 5.54511 10.4491C5.75066 10.3968 6.04521 10.3269 6.39935 10.2569C7.10923 10.1167 8.05136 9.97775 8.99337 9.97775C9.93513 9.97775 10.8595 10.1166 11.5513 10.2567C11.8965 10.3266 12.1821 10.3964 12.3808 10.4486C12.4802 10.4747 12.5578 10.4964 12.6102 10.5114C12.6364 10.5189 12.6563 10.5248 12.6694 10.5287L12.6841 10.5331L12.6875 10.5342L12.6882 10.5344L12.6883 10.5344Z" fill="#FFD83D" stroke="black" stroke-width="0.5"/>
<path d="M8.87344 4.26509C9.43316 4.26509 9.79571 3.71828 9.79571 3.16981C9.79571 2.62133 9.43316 2.07452 8.87344 2.07452C8.31372 2.07452 7.95117 2.62133 7.95117 3.16981C7.95117 3.71828 8.31372 4.26509 8.87344 4.26509Z" fill="#FFD83D" stroke="black" stroke-width="0.5"/>
<mask id="path-11-outside-1_230_25285" maskUnits="userSpaceOnUse" x="7.11719" y="-1" width="4" height="5" fill="black">
<rect fill="white" x="7.11719" y="-1" width="4" height="5"/>
<path fill-rule="evenodd" clip-rule="evenodd" d="M9.12559 0H8.62139L8.68629 0.922722L8.11719 0.845283V1.47925L8.69503 1.39965L8.62139 2.85283H9.12559L9.05095 1.39721L9.62979 1.47925V0.845283L9.06144 0.926866L9.12559 0Z"/>
</mask>
<path fill-rule="evenodd" clip-rule="evenodd" d="M9.12559 0H8.62139L8.68629 0.922722L8.11719 0.845283V1.47925L8.69503 1.39965L8.62139 2.85283H9.12559L9.05095 1.39721L9.62979 1.47925V0.845283L9.06144 0.926866L9.12559 0Z" fill="#FFD83D"/>
<path d="M8.62139 0V-0.5H8.08498L8.12262 0.0350833L8.62139 0ZM9.12559 0L9.6244 0.0345249L9.66139 -0.5H9.12559V0ZM8.68629 0.922722L8.61888 1.41816L9.22821 1.50107L9.18506 0.887638L8.68629 0.922722ZM8.11719 0.845283L8.1846 0.349849L7.61719 0.27264V0.845283H8.11719ZM8.11719 1.47925H7.61719V2.05284L8.18541 1.97457L8.11719 1.47925ZM8.69503 1.39965L9.19439 1.42496L9.22495 0.821939L8.62681 0.904328L8.69503 1.39965ZM8.62139 2.85283L8.12203 2.82752L8.09541 3.35283H8.62139V2.85283ZM9.12559 2.85283V3.35283H9.65189L9.62493 2.82722L9.12559 2.85283ZM9.05095 1.39721L9.12111 0.902154L8.52054 0.817036L8.5516 1.42281L9.05095 1.39721ZM9.62979 1.47925L9.55963 1.9743L10.1298 2.05511V1.47925H9.62979ZM9.62979 0.845283H10.1298V0.268387L9.55875 0.350356L9.62979 0.845283ZM9.06144 0.926866L8.56263 0.892341L8.5199 1.50972L9.13248 1.42179L9.06144 0.926866ZM8.62139 0.5H9.12559V-0.5H8.62139V0.5ZM9.18506 0.887638L9.12016 -0.0350833L8.12262 0.0350833L8.18753 0.957805L9.18506 0.887638ZM8.04977 1.34072L8.61888 1.41816L8.75371 0.427287L8.1846 0.349849L8.04977 1.34072ZM8.61719 1.47925V0.845283H7.61719V1.47925H8.61719ZM8.62681 0.904328L8.04896 0.983922L8.18541 1.97457L8.76326 1.89497L8.62681 0.904328ZM9.12075 2.87814L9.19439 1.42496L8.19568 1.37434L8.12203 2.82752L9.12075 2.87814ZM9.12559 2.35283H8.62139V3.35283H9.12559V2.35283ZM8.5516 1.42281L8.62625 2.87844L9.62493 2.82722L9.55029 1.3716L8.5516 1.42281ZM9.69996 0.984193L9.12111 0.902154L8.98078 1.89226L9.55963 1.9743L9.69996 0.984193ZM9.12979 0.845283V1.47925H10.1298V0.845283H9.12979ZM9.13248 1.42179L9.70084 1.34021L9.55875 0.350356L8.99039 0.431939L9.13248 1.42179ZM8.62678 -0.0345249L8.56263 0.892341L9.56024 0.961391L9.6244 0.0345249L8.62678 -0.0345249Z" fill="black" mask="url(#path-11-outside-1_230_25285)"/>
</g>
</g>
<rect width="32" height="24" fill="url(#paint0_linear_230_25285)" style="mix-blend-mode:overlay"/>
</g>
<rect x="0.5" y="0.5" width="31" height="23" rx="1.5" stroke="black" stroke-opacity="0.1"/>
<defs>
<linearGradient id="paint0_linear_230_25285" x1="16" y1="0" x2="16" y2="24" gradientUnits="userSpaceOnUse">
<stop stop-color="white" stop-opacity="0.7"/>
<stop offset="1" stop-opacity="0.3"/>
</linearGradient>
<clipPath id="clip0_230_25285">
<rect width="32" height="24" rx="2" fill="white"/>
</clipPath>
</defs>
</svg>
