<svg width="32" height="24" viewBox="0 0 32 24" fill="none" xmlns="http://www.w3.org/2000/svg">
<g clip-path="url(#clip0_230_22549)">
<mask id="mask0_230_22549" style="mask-type:luminance" maskUnits="userSpaceOnUse" x="0" y="0" width="32" height="24">
<rect width="32" height="24" fill="white"/>
</mask>
<g mask="url(#mask0_230_22549)">
<path fill-rule="evenodd" clip-rule="evenodd" d="M8 0H24V24H8V0Z" fill="#FFDC17"/>
<path fill-rule="evenodd" clip-rule="evenodd" d="M24 0H32V24H24V0Z" fill="#5FBF2B"/>
<path fill-rule="evenodd" clip-rule="evenodd" d="M0 0H8V24H0V0Z" fill="#2E42A5"/>
<path fill-rule="evenodd" clip-rule="evenodd" d="M19.7264 5.59998L16.6863 10.0629L19.7264 14.3679L22.7665 10.0629L19.7264 5.59998ZM12.2772 5.67882L9 10.0629L12.0401 14.2892L15.0802 10.0629L12.2772 5.67882ZM12.8431 14.9888L16.1204 10.6047L18.9234 14.9888L16.1204 19.5011L12.8431 14.9888Z" fill="#5FBF2B"/>
</g>
<rect width="32" height="24" fill="url(#paint0_linear_230_22549)" style="mix-blend-mode:overlay"/>
</g>
<rect x="0.5" y="0.5" width="31" height="23" rx="1.5" stroke="black" stroke-opacity="0.1"/>
<defs>
<linearGradient id="paint0_linear_230_22549" x1="16" y1="0" x2="16" y2="24" gradientUnits="userSpaceOnUse">
<stop stop-color="white" stop-opacity="0.7"/>
<stop offset="1" stop-opacity="0.3"/>
</linearGradient>
<clipPath id="clip0_230_22549">
<rect width="32" height="24" rx="2" fill="white"/>
</clipPath>
</defs>
</svg>
