<svg width="32" height="24" viewBox="0 0 32 24" fill="none" xmlns="http://www.w3.org/2000/svg">
<g clip-path="url(#clip0_230_25169)">
<mask id="mask0_230_25169" style="mask-type:luminance" maskUnits="userSpaceOnUse" x="0" y="0" width="32" height="24">
<rect width="32" height="24" fill="white"/>
</mask>
<g mask="url(#mask0_230_25169)">
<path fill-rule="evenodd" clip-rule="evenodd" d="M0 0H32V22C32 23.1046 31.1046 24 30 24H2C0.895431 24 0 23.1046 0 22V0Z" fill="#C51918"/>
<path fill-rule="evenodd" clip-rule="evenodd" d="M0 0H32V24H0V0Z" fill="#E31D1C"/>
<path fill-rule="evenodd" clip-rule="evenodd" d="M22.4817 19.6261L16.1656 2.70056H15.8915L9.79492 19.6261L16.1263 15.821L22.4817 19.6261ZM15.4664 8.22198L16.1435 5.58363L16.8461 8.29755L18.8648 13.954L20.0501 16.6926L17.4913 14.8899L16.1248 14.0718L14.7804 14.8798L12.2811 16.6926L13.4365 13.8979L15.4664 8.22198Z" fill="#579D20"/>
<path fill-rule="evenodd" clip-rule="evenodd" d="M12.662 13.4731L16.158 15.797L19.4201 13.4731L25.6159 8.23639H6.38477L12.662 13.4731ZM12.7346 11.474L10.357 10.0191H13.2577H19.0214H21.5802L19.5392 11.3118L16.1428 13.8888L12.7346 11.474Z" fill="#579D20"/>
</g>
<rect width="32" height="24" fill="url(#paint0_linear_230_25169)" style="mix-blend-mode:overlay"/>
</g>
<rect x="0.5" y="0.5" width="31" height="23" rx="1.5" stroke="black" stroke-opacity="0.1"/>
<defs>
<linearGradient id="paint0_linear_230_25169" x1="16" y1="0" x2="16" y2="24" gradientUnits="userSpaceOnUse">
<stop stop-color="white" stop-opacity="0.7"/>
<stop offset="1" stop-opacity="0.3"/>
</linearGradient>
<clipPath id="clip0_230_25169">
<rect width="32" height="24" rx="2" fill="white"/>
</clipPath>
</defs>
</svg>
