<svg width="32" height="24" viewBox="0 0 32 24" fill="none" xmlns="http://www.w3.org/2000/svg">
<g clip-path="url(#clip0_230_22789)">
<mask id="mask0_230_22789" style="mask-type:luminance" maskUnits="userSpaceOnUse" x="0" y="0" width="32" height="24">
<rect width="32" height="24" fill="white"/>
</mask>
<g mask="url(#mask0_230_22789)">
<path fill-rule="evenodd" clip-rule="evenodd" d="M0 0V24H32V0H0Z" fill="#FECA00"/>
<mask id="mask1_230_22789" style="mask-type:luminance" maskUnits="userSpaceOnUse" x="0" y="0" width="32" height="24">
<path fill-rule="evenodd" clip-rule="evenodd" d="M0 0V24H32V0H0Z" fill="white"/>
</mask>
<g mask="url(#mask1_230_22789)">
<rect width="32" height="4" fill="#272727"/>
<rect y="8" width="32" height="4" fill="#D74800"/>
<rect y="12" width="32" height="4" fill="#272727"/>
<rect y="20" width="32" height="4" fill="#D74800"/>
<path fill-rule="evenodd" clip-rule="evenodd" d="M16 18C19.3137 18 22 15.3137 22 12C22 8.68629 19.3137 6 16 6C12.6863 6 10 8.68629 10 12C10 15.3137 12.6863 18 16 18Z" fill="#F7FCFF"/>
<path fill-rule="evenodd" clip-rule="evenodd" d="M13.6802 8.32864L12.6223 8.67579L13.6802 8.76637C13.6802 8.76637 13.8513 9.18472 13.6802 9.5113C13.6368 9.59421 13.5248 9.70043 13.3818 9.83601C12.9616 10.2345 12.2739 10.8867 12.2739 11.9462C12.2739 13.3663 15.0145 14.0102 15.0145 14.0102V14.6849C15.0145 14.6849 15.3326 14.8824 13.5178 14.8824C11.9439 14.8824 12.0423 15.4799 12.0962 15.8069C12.1045 15.857 12.1117 15.9008 12.1117 15.935C12.1117 16.1933 12.8681 15.6768 13.2222 15.1626C13.4086 14.892 14.1892 14.9063 14.9903 14.9805C15.0535 14.9864 15.6377 16.2237 15.1306 16.8629C14.9175 17.1314 14.1819 17.1664 13.7222 17.1883C13.4879 17.1994 13.3253 17.2071 13.3403 17.2407C13.3517 17.2658 13.4903 17.2576 13.6917 17.2455C13.9432 17.2305 14.2926 17.2097 14.6146 17.2407C14.6635 17.2454 14.474 17.4099 14.2823 17.5762C14.085 17.7475 13.8854 17.9207 13.9417 17.9234C14.0049 17.9263 14.3744 17.7216 14.7102 17.5356C14.988 17.3817 15.2426 17.2407 15.2814 17.2407C15.5348 17.2407 15.7636 17.2719 15.9642 17.2994C16.2996 17.3452 16.5565 17.3803 16.7182 17.2407C16.768 17.1977 16.4793 17.1285 16.1849 17.058C15.8817 16.9854 15.5724 16.9113 15.6212 16.8629C15.8999 16.5863 15.7835 16.0064 15.6918 15.5498C15.6506 15.3449 15.6144 15.1648 15.6212 15.048C15.645 14.6332 16.0838 14.8508 16.4286 15.0218C16.5796 15.0967 16.7126 15.1626 16.7848 15.1626C17.4378 15.1626 16.627 14.3367 16.1819 13.8834C16.1429 13.8437 16.1068 13.8068 16.0746 13.7736C15.8483 13.5399 16.0071 13.5713 16.3659 13.6423C16.6397 13.6964 17.03 13.7736 17.4546 13.7736C18.4356 13.7736 19.1516 13.4549 18.9028 12.592C18.7388 12.0227 17.8403 11.829 16.9017 11.6266C16.4175 11.5222 15.9227 11.4155 15.5124 11.2538C14.503 10.8559 14.5544 10.2758 14.598 9.78534C14.6064 9.68994 14.6146 9.59793 14.6146 9.5113C14.6146 8.97929 15.5124 8.32864 15.5124 8.32864C15.5124 8.32864 15.1027 7.64209 14.4232 7.64209C13.7437 7.64209 13.6802 8.32864 13.6802 8.32864ZM15.5284 14.5765V14.0747C15.5284 14.0747 15.948 14.0609 16.0951 14.4138C16.2423 14.7668 15.5284 14.5765 15.5284 14.5765Z" fill="#272727"/>
<path fill-rule="evenodd" clip-rule="evenodd" d="M13.0781 6.71128L14.0917 7.91322L14.6166 7.78976L14.3649 6.57642L13.0781 6.71128Z" fill="#D74800"/>
<path fill-rule="evenodd" clip-rule="evenodd" d="M14.394 6.42064L14.4593 8.22769L15.3248 8.01473L15.6934 6.83122L14.394 6.42064Z" fill="#FFD018"/>
<path fill-rule="evenodd" clip-rule="evenodd" d="M13.5766 9.43892C13.7678 9.43892 13.9228 9.28781 13.9228 9.10142C13.9228 8.91502 13.7678 8.76392 13.5766 8.76392C13.3854 8.76392 13.2305 8.91502 13.2305 9.10142C13.2305 9.28781 13.3854 9.43892 13.5766 9.43892Z" fill="#D74800"/>
<path fill-rule="evenodd" clip-rule="evenodd" d="M15.7773 6.75914L14.7697 7.96602L14.9824 8.4615L16.1336 8.0029L15.7773 6.75914Z" fill="#D74800"/>
<path fill-rule="evenodd" clip-rule="evenodd" d="M18.1202 15.8931C18.1202 15.8931 19.8926 15.1013 19.8926 13.994C19.8926 12.8867 17.0146 11.6805 17.0146 11.6805C17.0146 11.6805 15.3217 12.068 16.0847 12.5865C16.8478 13.105 17.8701 13.3042 17.8701 13.994C17.8701 14.6838 18.1502 15.3415 17.5824 15.3415C17.0146 15.3415 18.1202 15.8931 18.1202 15.8931Z" fill="#D74800"/>
<path fill-rule="evenodd" clip-rule="evenodd" d="M15.5613 11.4781C15.5613 11.4781 14.9345 11.5883 14.9642 11.6901C15.0465 11.9716 15.9037 12.3382 16.2772 12.592C17.0403 13.1105 17.7638 13.0523 18.302 12.7148C18.8402 12.3774 15.5613 11.4781 15.5613 11.4781Z" fill="#FFFDFF"/>
</g>
</g>
<rect width="32" height="24" fill="url(#paint0_linear_230_22789)" style="mix-blend-mode:overlay"/>
</g>
<rect x="0.5" y="0.5" width="31" height="23" rx="1.5" stroke="black" stroke-opacity="0.1"/>
<defs>
<linearGradient id="paint0_linear_230_22789" x1="16" y1="0" x2="16" y2="24" gradientUnits="userSpaceOnUse">
<stop stop-color="white" stop-opacity="0.7"/>
<stop offset="1" stop-opacity="0.3"/>
</linearGradient>
<clipPath id="clip0_230_22789">
<rect width="32" height="24" rx="2" fill="white"/>
</clipPath>
</defs>
</svg>
