<svg width="32" height="24" viewBox="0 0 32 24" fill="none" xmlns="http://www.w3.org/2000/svg">
<g clip-path="url(#clip0_230_26132)">
<mask id="mask0_230_26132" style="mask-type:luminance" maskUnits="userSpaceOnUse" x="0" y="0" width="32" height="24">
<rect width="32" height="24" fill="white"/>
</mask>
<g mask="url(#mask0_230_26132)">
<path fill-rule="evenodd" clip-rule="evenodd" d="M0 0V24H32V0H0Z" fill="#E31D1C"/>
<mask id="mask1_230_26132" style="mask-type:luminance" maskUnits="userSpaceOnUse" x="0" y="0" width="32" height="24">
<path fill-rule="evenodd" clip-rule="evenodd" d="M0 0V24H32V0H0Z" fill="white"/>
</mask>
<g mask="url(#mask1_230_26132)">
<path fill-rule="evenodd" clip-rule="evenodd" d="M6.09358 4.14102C6.0859 4.0485 6.1966 4.00364 6.25922 4.07218C6.70835 4.56384 7.8954 5.78781 8.58188 5.78781C9.44089 5.78781 12.8145 2.94517 13.8116 3.40824C14.8088 3.87131 16.8277 8.71294 16.8277 8.71294L15.5121 10.3632L13.8116 9.43558L13.4903 5.78781C13.4903 5.78781 10.2172 7.47129 8.58188 6.86022L7.6626 7.63269C7.6626 7.63269 6.77731 5.87969 6.4287 5.34351C6.19803 4.98874 6.11999 4.45893 6.09358 4.14102Z" fill="#F7FCFF"/>
<path fill-rule="evenodd" clip-rule="evenodd" d="M8.26293 8.12443L7.70313 8.46359L7.81004 7.74523L7.35716 7.23648L7.98303 7.13168L8.26293 6.47809L8.54283 7.13168L9.1687 7.23648L8.71581 7.74523L8.82272 8.46359L8.26293 8.12443Z" fill="#FECA00"/>
<path fill-rule="evenodd" clip-rule="evenodd" d="M13.0137 3.79203C13.0137 3.59171 13.1761 3.42932 13.3764 3.42932C13.5767 3.42932 13.7391 3.59171 13.7391 3.79203V5.50563C13.7391 5.70595 13.5767 5.86835 13.3764 5.86835C13.1761 5.86835 13.0137 5.70595 13.0137 5.50563L13.0137 3.79203Z" fill="#FECA00"/>
<path fill-rule="evenodd" clip-rule="evenodd" d="M25.2207 5.10343C25.3033 5.14594 25.2827 5.2636 25.1913 5.28038C24.5364 5.40073 22.8694 5.7588 22.5056 6.34097C22.0504 7.06945 22.6733 11.4368 21.7522 12.037C20.8311 12.6373 15.6553 11.7837 15.6553 11.7837L14.953 9.7935L16.6407 8.84303L19.9045 10.5035C19.9045 10.5035 20.2113 6.83569 21.5961 5.77268L21.4282 4.58374C21.4282 4.58374 23.3839 4.76192 24.0234 4.75041C24.4465 4.74279 24.9371 4.95736 25.2207 5.10343Z" fill="#F7FCFF"/>
<path fill-rule="evenodd" clip-rule="evenodd" d="M20.6929 4.83142L20.7019 4.17695L21.2545 4.64829L21.9259 4.53382L21.6831 5.12013L22.0891 5.70384L21.3865 5.59486L20.9659 6.07009L20.7745 5.41643L20.1086 5.12642L20.6929 4.83142Z" fill="#FECA00"/>
<path fill-rule="evenodd" clip-rule="evenodd" d="M21.914 11.2048C22.0936 11.3162 22.1526 11.55 22.0472 11.7332C21.9341 11.9297 21.6784 11.9896 21.4898 11.8637L19.9412 10.8294C19.8023 10.7366 19.7453 10.5605 19.8036 10.4039C19.8831 10.1905 20.138 10.1033 20.3315 10.2233L21.914 11.2048Z" fill="#FECA00"/>
<path fill-rule="evenodd" clip-rule="evenodd" d="M14.8615 20.9837C14.7834 21.0339 14.6918 20.9572 14.7229 20.8698C14.9462 20.2424 15.4696 18.6197 15.1473 18.0135C14.744 17.2551 10.6503 15.6109 10.5911 14.5131C10.5318 13.4152 13.8589 9.35966 13.8589 9.35966L15.9336 9.74654L15.9129 11.6834L12.843 13.6797C12.843 13.6797 15.866 15.7793 16.0942 17.5101L17.2078 17.9591C17.2078 17.9591 16.0756 19.5637 15.7659 20.1233C15.5609 20.4935 15.1298 20.8111 14.8615 20.9837Z" fill="#F7FCFF"/>
<path fill-rule="evenodd" clip-rule="evenodd" d="M17.362 17.199L17.9243 17.534L17.2398 17.7769L17.0032 18.4156L16.6168 17.9122L15.9084 17.9719L16.354 17.4179L16.1527 16.8161L16.8146 16.9771L17.3986 16.5455L17.362 17.199Z" fill="#FECA00"/>
<path fill-rule="evenodd" clip-rule="evenodd" d="M11.1036 14.9572C10.8805 15.0424 10.6324 14.9178 10.5675 14.688C10.5105 14.4866 10.6159 14.2749 10.8109 14.1988L12.4791 13.5478C12.6645 13.4754 12.8751 13.5455 12.9802 13.7145C13.1173 13.9351 13.0193 14.226 12.7766 14.3186L11.1036 14.9572Z" fill="#FECA00"/>
<path d="M13.6632 9.76495C13.5388 9.72146 13.4723 9.58286 13.5148 9.45537C13.5572 9.32788 13.7566 9.11492 13.8811 9.15841L15.6169 9.76495C15.7064 9.79625 15.7694 9.8789 15.7773 9.97549L15.9325 11.8793C15.9434 12.0136 15.7479 12.1222 15.6169 12.1334C15.4858 12.1446 15.3707 12.0449 15.3598 11.9106L15.216 10.2734L13.6632 9.76495Z" fill="#FECA00"/>
<path d="M16.6799 8.76755C16.7837 8.68479 16.9689 8.78071 17.0497 8.88699C17.1305 8.99328 17.1119 9.14652 17.0081 9.22928L15.8057 10.4617C15.702 10.5445 15.4686 10.383 15.3878 10.2767C15.307 10.1705 15.2841 9.88094 15.3878 9.79818L16.6799 8.76755Z" fill="#FECA00"/>
</g>
</g>
<rect width="32" height="24" fill="url(#paint0_linear_230_26132)" style="mix-blend-mode:overlay"/>
</g>
<rect x="0.5" y="0.5" width="31" height="23" rx="1.5" stroke="black" stroke-opacity="0.1"/>
<defs>
<linearGradient id="paint0_linear_230_26132" x1="16" y1="0" x2="16" y2="24" gradientUnits="userSpaceOnUse">
<stop stop-color="white" stop-opacity="0.7"/>
<stop offset="1" stop-opacity="0.3"/>
</linearGradient>
<clipPath id="clip0_230_26132">
<rect width="32" height="24" rx="2" fill="white"/>
</clipPath>
</defs>
</svg>
