<svg width="32" height="24" viewBox="0 0 32 24" fill="none" xmlns="http://www.w3.org/2000/svg">
<g clip-path="url(#clip0_230_26732)">
<mask id="mask0_230_26732" style="mask-type:luminance" maskUnits="userSpaceOnUse" x="0" y="0" width="32" height="24">
<rect width="32" height="24" fill="white"/>
</mask>
<g mask="url(#mask0_230_26732)">
<path fill-rule="evenodd" clip-rule="evenodd" d="M0 0V24H32V0H0Z" fill="#F7FCFF"/>
<mask id="mask1_230_26732" style="mask-type:luminance" maskUnits="userSpaceOnUse" x="0" y="0" width="32" height="24">
<path fill-rule="evenodd" clip-rule="evenodd" d="M0 0V24H32V0H0Z" fill="white"/>
</mask>
<g mask="url(#mask1_230_26732)">
<path fill-rule="evenodd" clip-rule="evenodd" d="M14 0H18V10H32V14H18V24H14V14H0V10H14V0Z" fill="#E31D1C"/>
<path fill-rule="evenodd" clip-rule="evenodd" d="M9.9979 17.222L12.1992 17V19C12.1992 19 9.9979 18.8622 9.9979 18.902C9.9979 18.9418 10.1992 21 10.1992 21H8.19922L8.35944 19H6.19922V17L8.35944 17.222L8.19922 15H10.1992L9.9979 17.222Z" fill="#E31D1C"/>
<path fill-rule="evenodd" clip-rule="evenodd" d="M9.9979 5.22195L12.1992 5V7C12.1992 7 9.9979 6.86216 9.9979 6.90196C9.9979 6.94175 10.1992 9 10.1992 9H8.19922L8.35944 7H6.19922V5L8.35944 5.22195L8.19922 3H10.1992L9.9979 5.22195Z" fill="#E31D1C"/>
<path fill-rule="evenodd" clip-rule="evenodd" d="M23.9979 5.22195L26.1992 5V7C26.1992 7 23.9979 6.86216 23.9979 6.90196C23.9979 6.94175 24.1992 9 24.1992 9H22.1992L22.3594 7H20.1992V5L22.3594 5.22195L22.1992 3H24.1992L23.9979 5.22195Z" fill="#E31D1C"/>
<path fill-rule="evenodd" clip-rule="evenodd" d="M23.9979 17.222L26.1992 17V19C26.1992 19 23.9979 18.8622 23.9979 18.902C23.9979 18.9418 24.1992 21 24.1992 21H22.1992L22.3594 19H20.1992V17L22.3594 17.222L22.1992 15H24.1992L23.9979 17.222Z" fill="#E31D1C"/>
</g>
</g>
<rect width="32" height="24" fill="url(#paint0_linear_230_26732)" style="mix-blend-mode:overlay"/>
</g>
<rect x="0.5" y="0.5" width="31" height="23" rx="1.5" stroke="black" stroke-opacity="0.1"/>
<defs>
<linearGradient id="paint0_linear_230_26732" x1="16" y1="0" x2="16" y2="24" gradientUnits="userSpaceOnUse">
<stop stop-color="white" stop-opacity="0.7"/>
<stop offset="1" stop-opacity="0.3"/>
</linearGradient>
<clipPath id="clip0_230_26732">
<rect width="32" height="24" rx="2" fill="white"/>
</clipPath>
</defs>
</svg>
