<svg width="32" height="24" viewBox="0 0 32 24" fill="none" xmlns="http://www.w3.org/2000/svg">
<g clip-path="url(#clip0_230_24612)">
<rect width="32" height="24" fill="white"/>
<path d="M11.6159 12.3201L20.9325 23.5H0.5V0.842271L20.0392 11.5H12H10.9325L11.6159 12.3201Z" fill="#C51918" stroke="#4857A1"/>
<mask id="mask0_230_24612" style="mask-type:luminance" maskUnits="userSpaceOnUse" x="0" y="0" width="22" height="24">
<path d="M11.6159 12.3201L20.9325 23.5H0.5V0.842271L20.0392 11.5H12H10.9325L11.6159 12.3201Z" fill="white" stroke="white"/>
</mask>
<g mask="url(#mask0_230_24612)">
<path fill-rule="evenodd" clip-rule="evenodd" d="M5.82963 20.0102L4.60446 21.6003L4.54791 19.5938L2.6221 20.16L3.75576 18.5035L1.86491 17.8296L3.75576 17.1558L2.6221 15.4992L4.54791 16.0655L4.60446 14.059L5.82963 15.649L7.0548 14.059L7.11135 16.0655L9.03716 15.4992L7.9035 17.1558L9.79435 17.8296L7.9035 18.5035L9.03716 20.16L7.11135 19.5938L7.0548 21.6003L5.82963 20.0102Z" fill="#F7FCFF"/>
<path fill-rule="evenodd" clip-rule="evenodd" d="M5.80078 8.1388L5.16095 8.96921L5.13141 7.92131L4.12567 8.21704L4.71771 7.35191L3.73023 7L4.71771 6.64809L4.12567 5.78296L5.13141 6.07869L5.16095 5.03079L5.80078 5.8612L6.44062 5.03079L6.47015 6.07869L7.47589 5.78296L6.88385 6.64809L7.87133 7L6.88385 7.35191L7.47589 8.21704L6.47015 7.92131L6.44062 8.96921L5.80078 8.1388Z" fill="#F7FCFF"/>
<path fill-rule="evenodd" clip-rule="evenodd" d="M5.66569 7.89414C7.89201 7.90303 9.07901 6.64004 9.07901 6.64004C9.31383 8.0812 7.50081 9.04004 5.68739 9.04004C3.87397 9.04004 2.77603 7.73302 2.09961 6.64004C2.09961 6.64004 3.43937 7.88525 5.66569 7.89414Z" fill="#F9FAFA"/>
</g>
<rect width="32" height="24" fill="url(#paint0_linear_230_24612)" style="mix-blend-mode:overlay"/>
</g>
<rect x="0.5" y="0.5" width="31" height="23" rx="1.5" stroke="black" stroke-opacity="0.1"/>
<defs>
<linearGradient id="paint0_linear_230_24612" x1="16" y1="0" x2="16" y2="24" gradientUnits="userSpaceOnUse">
<stop stop-color="white" stop-opacity="0.7"/>
<stop offset="1" stop-opacity="0.3"/>
</linearGradient>
<clipPath id="clip0_230_24612">
<rect width="32" height="24" rx="2" fill="white"/>
</clipPath>
</defs>
</svg>
