<svg width="32" height="24" viewBox="0 0 32 24" fill="none" xmlns="http://www.w3.org/2000/svg">
<g clip-path="url(#clip0_230_23623)">
<mask id="mask0_230_23623" style="mask-type:luminance" maskUnits="userSpaceOnUse" x="0" y="0" width="32" height="24">
<rect width="32" height="24" fill="white"/>
</mask>
<g mask="url(#mask0_230_23623)">
<path fill-rule="evenodd" clip-rule="evenodd" d="M0 0V24H32V0H0Z" fill="#2E42A5"/>
<mask id="mask1_230_23623" style="mask-type:luminance" maskUnits="userSpaceOnUse" x="0" y="0" width="32" height="24">
<path fill-rule="evenodd" clip-rule="evenodd" d="M0 0V24H32V0H0Z" fill="white"/>
</mask>
<g mask="url(#mask1_230_23623)">
<rect width="18" height="14" fill="#2B409A"/>
<mask id="mask2_230_23623" style="mask-type:luminance" maskUnits="userSpaceOnUse" x="0" y="0" width="18" height="14">
<rect width="18" height="14" fill="white"/>
</mask>
<g mask="url(#mask2_230_23623)">
<path d="M-2.00586 12.9997L1.95509 14.7369L18.0883 1.88866L20.1776 -0.692871L15.9419 -1.27349L9.36159 4.2632L4.06508 7.99363L-2.00586 12.9997Z" fill="#F7FCFF"/>
<path d="M-1.46289 14.217L0.555031 15.2251L19.428 -0.932617H16.5947L-1.46289 14.217Z" fill="#F50100"/>
<path d="M20.0039 12.9997L16.043 14.7369L-0.0902405 1.88866L-2.17955 -0.692871L2.05612 -1.27349L8.63646 4.2632L13.933 7.99363L20.0039 12.9997Z" fill="#F7FCFF"/>
<path d="M19.8691 13.8733L17.8512 14.8815L9.81489 7.96351L7.43229 7.19059L-2.3802 -0.683947H0.453194L10.2602 7.00368L12.8651 7.9305L19.8691 13.8733Z" fill="#F50100"/>
<mask id="path-12-outside-1_230_23623" maskUnits="userSpaceOnUse" x="-2" y="-2" width="22" height="18" fill="black">
<rect fill="white" x="-2" y="-2" width="22" height="18"/>
<path fill-rule="evenodd" clip-rule="evenodd" d="M9.98451 0H7.98451V6H0V8H7.98451V14H9.98451V8H18V6H9.98451V0Z"/>
</mask>
<path fill-rule="evenodd" clip-rule="evenodd" d="M9.98451 0H7.98451V6H0V8H7.98451V14H9.98451V8H18V6H9.98451V0Z" fill="#F50100"/>
<path d="M7.98451 0V-1.5H6.48451V0H7.98451ZM9.98451 0H11.4845V-1.5H9.98451V0ZM7.98451 6V7.5H9.48451V6H7.98451ZM0 6V4.5H-1.5V6H0ZM0 8H-1.5V9.5H0V8ZM7.98451 8H9.48451V6.5H7.98451V8ZM7.98451 14H6.48451V15.5H7.98451V14ZM9.98451 14V15.5H11.4845V14H9.98451ZM9.98451 8V6.5H8.48451V8H9.98451ZM18 8V9.5H19.5V8H18ZM18 6H19.5V4.5H18V6ZM9.98451 6H8.48451V7.5H9.98451V6ZM7.98451 1.5H9.98451V-1.5H7.98451V1.5ZM9.48451 6V0H6.48451V6H9.48451ZM0 7.5H7.98451V4.5H0V7.5ZM1.5 8V6H-1.5V8H1.5ZM7.98451 6.5H0V9.5H7.98451V6.5ZM9.48451 14V8H6.48451V14H9.48451ZM9.98451 12.5H7.98451V15.5H9.98451V12.5ZM8.48451 8V14H11.4845V8H8.48451ZM18 6.5H9.98451V9.5H18V6.5ZM16.5 6V8H19.5V6H16.5ZM9.98451 7.5H18V4.5H9.98451V7.5ZM8.48451 0V6H11.4845V0H8.48451Z" fill="#F7FCFF" mask="url(#path-12-outside-1_230_23623)"/>
</g>
<path d="M22.0388 9.78271H21.7888V10.0327C21.7888 10.4659 21.7868 10.8902 21.7849 11.3044C21.7803 12.2917 21.776 13.2214 21.7993 14.0748C21.8323 15.2865 21.9212 16.3664 22.1502 17.2675C22.3796 18.17 22.755 18.9153 23.3773 19.4324C24.0019 19.9513 24.8433 20.214 25.9511 20.214C27.0716 20.214 27.9359 19.8867 28.5853 19.2954C29.2296 18.7088 29.6395 17.8831 29.8961 16.9252C30.4069 15.0179 30.3317 12.4946 30.1905 10.0185L30.177 9.78271H29.9409H22.0388Z" fill="#B7E1FF" stroke="#F7FCFF" stroke-width="0.5"/>
<mask id="mask3_230_23623" style="mask-type:luminance" maskUnits="userSpaceOnUse" x="21" y="9" width="10" height="12">
<path d="M22.0388 9.78271H21.7888V10.0327C21.7888 10.4659 21.7868 10.8902 21.7849 11.3044C21.7803 12.2917 21.776 13.2214 21.7993 14.0748C21.8323 15.2865 21.9212 16.3664 22.1502 17.2675C22.3796 18.17 22.755 18.9153 23.3773 19.4324C24.0019 19.9513 24.8433 20.214 25.9511 20.214C27.0716 20.214 27.9359 19.8867 28.5853 19.2954C29.2296 18.7088 29.6395 17.8831 29.8961 16.9252C30.4069 15.0179 30.3317 12.4946 30.1905 10.0185L30.177 9.78271H29.9409H22.0388Z" fill="white" stroke="white" stroke-width="0.5"/>
</mask>
<g mask="url(#mask3_230_23623)">
<rect x="24" y="18" width="6" height="2" fill="#2E42A5"/>
<g filter="url(#filter0_d_230_23623)">
<rect x="20" y="8" width="12" height="6" fill="#FDFF00"/>
</g>
<path d="M25.1792 10.8766C25.1715 10.8014 25.1596 10.7042 25.1283 10.602L25.6007 12.0696C25.5569 12.0262 25.5104 11.9869 25.4763 11.9583C25.4697 11.9528 25.4634 11.9475 25.4574 11.9424C25.4278 11.9176 25.4039 11.8977 25.3793 11.8756C25.2783 11.785 25.2289 11.7171 25.2213 11.5885C25.2153 11.4865 25.2104 11.3884 25.2059 11.2968C25.1977 11.1309 25.1905 10.9858 25.1792 10.8766ZM24.8054 13.4585C24.8054 13.4585 24.8055 13.4585 24.8055 13.4585L24.8936 13.5294L24.8936 13.5294L24.8054 13.4585Z" fill="#F7FCFF" stroke="#272727"/>
<path d="M24.8262 14.0441H25.0262V17.9993H24.8262V14.0441Z" fill="#FDFF00"/>
<path fill-rule="evenodd" clip-rule="evenodd" d="M24.0997 16.8126H25.8825C25.8825 16.8126 25.8997 17.3271 25.629 17.2319C25.3584 17.1367 25.6562 17.3271 25.2444 17.2319C24.8327 17.1367 24.4698 17.5306 24.3775 17.3336C24.2852 17.1367 23.927 17.3896 24.0133 17.1011C24.0997 16.8126 24.0997 16.8126 24.0997 16.8126Z" fill="#F7FCFF"/>
<rect x="24.1328" y="16.7639" width="1.73333" height="0.2" fill="#212123"/>
<path fill-rule="evenodd" clip-rule="evenodd" d="M24.3473 16.0654H25.7736C25.7736 16.0654 25.7873 16.477 25.5708 16.4008C25.3543 16.3247 25.5925 16.477 25.2631 16.4008C24.9337 16.3247 24.6434 16.6398 24.5696 16.4822C24.4957 16.3247 24.2091 16.527 24.2782 16.2962C24.3473 16.0654 24.3473 16.0654 24.3473 16.0654Z" fill="#F7FCFF"/>
<rect x="24.373" y="16.0265" width="1.38667" height="0.2" fill="#212123"/>
<path fill-rule="evenodd" clip-rule="evenodd" d="M24.0864 15.245H25.6315C25.6315 15.245 25.6464 15.6565 25.4118 15.5804C25.1773 15.5043 25.4354 15.6565 25.0785 15.5804C24.7216 15.5043 24.4072 15.8194 24.3271 15.6618C24.2471 15.5043 23.9367 15.7066 24.0116 15.4758C24.0864 15.245 24.0864 15.245 24.0864 15.245Z" fill="#F7FCFF"/>
<rect x="24.1152" y="15.2061" width="1.50222" height="0.2" fill="#212123"/>
<path fill-rule="evenodd" clip-rule="evenodd" d="M24.2126 14.5562H25.6388C25.6388 14.5562 25.6526 15.0706 25.436 14.9754C25.2195 14.8802 25.4578 15.0706 25.1284 14.9754C24.7989 14.8802 24.5086 15.2741 24.4348 15.0772C24.3609 14.8802 24.0744 15.1331 24.1435 14.8446C24.2126 14.5562 24.2126 14.5562 24.2126 14.5562Z" fill="#F7FCFF"/>
<rect x="24.2383" y="14.5074" width="1.38667" height="0.2" fill="#212123"/>
<path d="M26.7422 14.5441H26.9422V18.4993H26.7422V14.5441Z" fill="#FDFF00"/>
<path fill-rule="evenodd" clip-rule="evenodd" d="M26.0997 16.9757H27.8825C27.8825 16.9757 27.8997 17.3873 27.629 17.3111C27.3584 17.235 27.6562 17.3873 27.2444 17.3111C26.8327 17.235 26.4698 17.5501 26.3775 17.3925C26.2852 17.235 25.927 17.4373 26.0133 17.2065C26.0997 16.9757 26.0997 16.9757 26.0997 16.9757Z" fill="#F7FCFF"/>
<rect x="26.1328" y="16.9368" width="1.73333" height="0.2" fill="#212123"/>
<path fill-rule="evenodd" clip-rule="evenodd" d="M26.3635 16.2303H27.7643C27.7643 16.2303 27.7778 16.539 27.5651 16.4819C27.3525 16.4248 27.5865 16.539 27.2629 16.4819C26.9394 16.4248 26.6543 16.6611 26.5817 16.543C26.5092 16.4248 26.2278 16.5765 26.2956 16.4034C26.3635 16.2303 26.3635 16.2303 26.3635 16.2303Z" fill="#F7FCFF"/>
<rect x="26.3887" y="16.2006" width="1.3619" height="0.2" fill="#212123"/>
<path fill-rule="evenodd" clip-rule="evenodd" d="M26.0855 15.4098H27.6136C27.6136 15.4098 27.6283 15.7185 27.3963 15.6613C27.1643 15.6042 27.4196 15.7185 27.0667 15.6613C26.7137 15.6042 26.4027 15.8406 26.3235 15.7224C26.2444 15.6042 25.9374 15.756 26.0114 15.5829C26.0855 15.4098 26.0855 15.4098 26.0855 15.4098Z" fill="#F7FCFF"/>
<rect x="26.1133" y="15.38" width="1.48571" height="0.2" fill="#212123"/>
<path fill-rule="evenodd" clip-rule="evenodd" d="M26.2209 14.7194H27.6217C27.6217 14.7194 27.6352 15.1309 27.4225 15.0548C27.2099 14.9786 27.4439 15.1309 27.1203 15.0548C26.7968 14.9786 26.5117 15.2937 26.4392 15.1362C26.3666 14.9786 26.0852 15.1809 26.153 14.9501C26.2209 14.7194 26.2209 14.7194 26.2209 14.7194Z" fill="#F7FCFF"/>
<rect x="26.2461" y="14.6804" width="1.3619" height="0.2" fill="#212123"/>
<path d="M29.4902 14.0586H29.6902V19.3172H29.4902V14.0586Z" fill="#FDFF00"/>
<path fill-rule="evenodd" clip-rule="evenodd" d="M28.6738 17.2531H30.9428C30.9428 17.2531 30.9647 17.6646 30.6202 17.5885C30.2758 17.5123 30.6548 17.6646 30.1307 17.5885C29.6066 17.5123 29.1448 17.8274 29.0273 17.6699C28.9098 17.5123 28.4539 17.7146 28.5638 17.4838C28.6738 17.2531 28.6738 17.2531 28.6738 17.2531Z" fill="#F7FCFF"/>
<rect x="28.7148" y="17.2141" width="2.20606" height="0.2" fill="#212123"/>
<path fill-rule="evenodd" clip-rule="evenodd" d="M29.0099 16.2555H30.7926C30.7926 16.2555 30.8098 16.5642 30.5392 16.5071C30.2686 16.4499 30.5664 16.5642 30.1546 16.5071C29.7428 16.4499 29.38 16.6863 29.2876 16.5681C29.1953 16.4499 28.8371 16.6017 28.9235 16.4286C29.0099 16.2555 29.0099 16.2555 29.0099 16.2555Z" fill="#F7FCFF"/>
<rect x="29.043" y="16.231" width="1.73333" height="0.2" fill="#212123"/>
<path fill-rule="evenodd" clip-rule="evenodd" d="M28.8282 14.9349H30.611C30.611 14.9349 30.6282 15.3465 30.3576 15.2703C30.0869 15.1942 30.3847 15.3465 29.9729 15.2703C29.5612 15.1942 29.1983 15.5093 29.106 15.3518C29.0137 15.1942 28.6555 15.3965 28.7418 15.1657C28.8282 14.9349 28.8282 14.9349 28.8282 14.9349Z" fill="#F7FCFF"/>
<rect x="28.8613" y="14.896" width="1.73333" height="0.2" fill="#212123"/>
<path fill-rule="evenodd" clip-rule="evenodd" d="M24.1855 17.6868C24.1855 17.6868 25.1112 18.1898 26.5225 18.1031C27.9338 18.0165 27.8325 18.2889 28.1985 17.9013C28.5646 17.5138 28.5967 17.6002 29.0533 17.3968C29.5099 17.1933 29.5754 17.0014 29.8108 17.0014C30.0462 17.0014 32.5529 16.9008 32.5529 16.9008C32.5529 16.9008 32.3235 17.1067 32.3235 17.3968C32.3235 17.6868 32.4764 17.7165 32.3235 17.9796C32.1706 18.2426 31.9978 18.5943 31.7759 18.6964C31.5539 18.7984 28.5579 18.8629 27.7939 18.8629C27.03 18.8629 25.4609 18.948 25.2804 18.8629C25.0998 18.7779 24.1855 17.6868 24.1855 17.6868Z" fill="#272727"/>
<path fill-rule="evenodd" clip-rule="evenodd" d="M22.1172 15.6864L23.0104 14.8636C23.0104 14.8636 23.0494 14.8636 23.2154 15.275C23.3814 15.6864 23.3892 16.2491 23.5619 16.1086C23.7346 15.968 24.0004 16.0978 24.1122 15.6864C24.2241 15.275 24.2171 14.7423 24.3594 15.0087C24.5017 15.275 24.4171 14.8857 24.6442 15.4971C24.8713 16.1086 24.9612 15.2344 25.086 16.1086C25.2109 16.9827 25.3165 17.2844 25.3165 17.4877C25.3165 17.6911 26.4537 18.2969 26.0175 18.7142C25.5814 19.1315 25.7048 18.9348 25.3165 19.1972C24.9283 19.4596 24.5304 19.307 25.086 19.5131C25.6416 19.7192 25.562 20.0928 25.562 20.3683C25.562 20.6437 25.5278 20.7672 25.086 20.7055C24.6442 20.6437 24.1069 20.8636 23.9995 20.8636C23.8922 20.8636 22.5969 20.5997 22.5969 20.0564C22.5969 19.5131 22.1172 15.6864 22.1172 15.6864Z" fill="#CE6201"/>
</g>
</g>
</g>
<rect width="32" height="24" fill="url(#paint0_linear_230_23623)" style="mix-blend-mode:overlay"/>
</g>
<rect x="0.5" y="0.5" width="31" height="23" rx="1.5" stroke="black" stroke-opacity="0.1"/>
<defs>
<filter id="filter0_d_230_23623" x="20" y="8" width="12" height="7" filterUnits="userSpaceOnUse" color-interpolation-filters="sRGB">
<feFlood flood-opacity="0" result="BackgroundImageFix"/>
<feColorMatrix in="SourceAlpha" type="matrix" values="0 0 0 0 0 0 0 0 0 0 0 0 0 0 0 0 0 0 127 0" result="hardAlpha"/>
<feOffset dy="1"/>
<feColorMatrix type="matrix" values="0 0 0 0 0 0 0 0 0 0 0 0 0 0 0 0 0 0 0.5 0"/>
<feBlend mode="normal" in2="BackgroundImageFix" result="effect1_dropShadow_230_23623"/>
<feBlend mode="normal" in="SourceGraphic" in2="effect1_dropShadow_230_23623" result="shape"/>
</filter>
<linearGradient id="paint0_linear_230_23623" x1="16" y1="0" x2="16" y2="24" gradientUnits="userSpaceOnUse">
<stop stop-color="white" stop-opacity="0.7"/>
<stop offset="1" stop-opacity="0.3"/>
</linearGradient>
<clipPath id="clip0_230_23623">
<rect width="32" height="24" rx="2" fill="white"/>
</clipPath>
</defs>
</svg>
