<svg width="32" height="24" viewBox="0 0 32 24" fill="none" xmlns="http://www.w3.org/2000/svg">
<g clip-path="url(#clip0_230_27531)">
<mask id="mask0_230_27531" style="mask-type:luminance" maskUnits="userSpaceOnUse" x="0" y="0" width="32" height="24">
<rect width="32" height="24" fill="white"/>
</mask>
<g mask="url(#mask0_230_27531)">
<path fill-rule="evenodd" clip-rule="evenodd" d="M0 0V24H32V0H0Z" fill="#3D58DB"/>
<mask id="mask1_230_27531" style="mask-type:luminance" maskUnits="userSpaceOnUse" x="0" y="0" width="32" height="24">
<path fill-rule="evenodd" clip-rule="evenodd" d="M0 0V24H32V0H0Z" fill="white"/>
</mask>
<g mask="url(#mask1_230_27531)">
<path d="M0 8H-2V10V14V16H0H32H34V14V10V8H32H0Z" fill="#3D58DB" stroke="#F7FCFF" stroke-width="4"/>
</g>
<path fill-rule="evenodd" clip-rule="evenodd" d="M0 0V24L18 12L0 0Z" fill="#E31D1C"/>
<mask id="mask2_230_27531" style="mask-type:luminance" maskUnits="userSpaceOnUse" x="0" y="0" width="18" height="24">
<path fill-rule="evenodd" clip-rule="evenodd" d="M0 0V24L18 12L0 0Z" fill="white"/>
</mask>
<g mask="url(#mask2_230_27531)">
<path fill-rule="evenodd" clip-rule="evenodd" d="M6.68764 14.2169L3.01571 16.1549L4.80338 12.2609L2.52539 10.1808L5.33788 10.077L6.68764 6.5563L7.71769 10.077H10.5254L8.654 12.2609L10.1425 16.1549L6.68764 14.2169Z" fill="#F7FCFF"/>
</g>
</g>
<rect width="32" height="24" fill="url(#paint0_linear_230_27531)" style="mix-blend-mode:overlay"/>
</g>
<rect x="0.5" y="0.5" width="31" height="23" rx="1.5" stroke="black" stroke-opacity="0.1"/>
<defs>
<linearGradient id="paint0_linear_230_27531" x1="16" y1="0" x2="16" y2="24" gradientUnits="userSpaceOnUse">
<stop stop-color="white" stop-opacity="0.7"/>
<stop offset="1" stop-opacity="0.3"/>
</linearGradient>
<clipPath id="clip0_230_27531">
<rect width="32" height="24" rx="2" fill="white"/>
</clipPath>
</defs>
</svg>
