<svg width="32" height="24" viewBox="0 0 32 24" fill="none" xmlns="http://www.w3.org/2000/svg">
<g clip-path="url(#clip0_230_26154)">
<mask id="mask0_230_26154" style="mask-type:luminance" maskUnits="userSpaceOnUse" x="0" y="0" width="32" height="24">
<rect width="32" height="24" fill="white"/>
</mask>
<g mask="url(#mask0_230_26154)">
<path fill-rule="evenodd" clip-rule="evenodd" d="M0 0V24H32V0H0Z" fill="#F7FCFF"/>
<mask id="mask1_230_26154" style="mask-type:luminance" maskUnits="userSpaceOnUse" x="0" y="0" width="32" height="24">
<path fill-rule="evenodd" clip-rule="evenodd" d="M0 0V24H32V0H0Z" fill="white"/>
</mask>
<g mask="url(#mask1_230_26154)">
<path fill-rule="evenodd" clip-rule="evenodd" d="M0 3V6H32V3H0Z" fill="#3D58DB"/>
<path fill-rule="evenodd" clip-rule="evenodd" d="M0 18V21H32V18H0Z" fill="#3D58DB"/>
<path fill-rule="evenodd" clip-rule="evenodd" d="M11.3809 14.9388H20.7578L16.1156 6.6203L11.3809 14.9388ZM19.1529 13.9295H13.0202L16.1062 8.45995L19.1529 13.9295Z" fill="#3D58DB"/>
<path fill-rule="evenodd" clip-rule="evenodd" d="M11.2637 9.07606H20.6805L16.1356 17.1615L11.2637 9.07606ZM19.045 10.05H13.0507L16.1089 15.5312L19.045 10.05Z" fill="#3D58DB"/>
</g>
</g>
<rect width="32" height="24" fill="url(#paint0_linear_230_26154)" style="mix-blend-mode:overlay"/>
</g>
<rect x="0.5" y="0.5" width="31" height="23" rx="1.5" stroke="black" stroke-opacity="0.1"/>
<defs>
<linearGradient id="paint0_linear_230_26154" x1="16" y1="0" x2="16" y2="24" gradientUnits="userSpaceOnUse">
<stop stop-color="white" stop-opacity="0.7"/>
<stop offset="1" stop-opacity="0.3"/>
</linearGradient>
<clipPath id="clip0_230_26154">
<rect width="32" height="24" rx="2" fill="white"/>
</clipPath>
</defs>
</svg>
