<svg width="32" height="24" viewBox="0 0 32 24" fill="none" xmlns="http://www.w3.org/2000/svg">
<g clip-path="url(#clip0_230_24896)">
<rect width="32" height="24" fill="#21428E"/>
<path fill-rule="evenodd" clip-rule="evenodd" d="M14 0H18V10H32V14H18V24H14V14H0V10H14V0Z" fill="#F7FCFF"/>
<path fill-rule="evenodd" clip-rule="evenodd" d="M4.82916 1.34879C4.82916 1.38761 4.85603 1.41196 4.87685 1.43083C4.91186 1.46257 4.92977 1.4788 4.77395 1.52234C4.53931 1.59176 3.90438 1.68433 3.4627 1.67276C3.37824 1.67276 3.22972 1.6477 3.09791 1.62546L3.09791 1.62545L3.09791 1.62545C2.99276 1.60771 2.89825 1.59176 2.85538 1.59176C2.79759 1.59782 2.92879 1.65457 3.03536 1.70066C3.13245 1.74266 3.2091 1.77581 3.10382 1.75375C2.80016 1.68433 2.62073 1.66119 2.85538 1.78846C3.03481 1.88102 3.43509 1.88102 4.001 1.82317C4.1169 1.81103 4.33165 1.77658 4.53949 1.74323L4.5395 1.74323C4.72769 1.71304 4.91022 1.68375 5.0086 1.67276C5.08784 1.66612 5.12159 1.6976 5.15163 1.72563C5.17392 1.74643 5.19417 1.76532 5.22944 1.76532C5.97479 1.80003 7.29985 1.77689 7.87957 1.70747C8.36266 1.64962 8.5421 1.67276 8.68012 1.8116C8.95618 2.07772 8.66632 2.30913 7.87957 2.44797C6.91338 2.62153 6.5131 2.77194 6.14042 3.10749C5.24325 3.91741 6.29225 4.83147 8.25224 4.95875C9.39787 5.03974 10.1432 5.22487 9.96378 5.37528C9.89476 5.43313 9.13561 5.5257 8.26604 5.58355C6.37507 5.71082 5.5331 5.93066 4.81536 6.50918C4.41508 6.83315 4.27706 7.02985 4.27706 7.29597C4.27706 7.43978 4.27706 7.52773 4.23419 7.58152C4.16669 7.66622 3.99292 7.66622 3.54552 7.66622H3.54551C3.15904 7.66622 2.62073 7.61994 2.37228 7.55051C1.9858 7.46952 1.93059 7.46952 2.06862 7.60837C2.34468 7.88606 3.13143 8.12903 3.78016 8.12903C4.27706 8.12903 4.55311 8.21003 4.9948 8.47615C5.87817 9.01995 6.88577 9.22822 8.5559 9.21665C10.7505 9.20508 12.0066 8.71912 12.0066 7.89763C12.0066 7.2844 11.1784 6.92571 9.45308 6.79844C8.5835 6.72902 6.87197 6.84472 6.12662 7.02985C5.98859 7.06456 6.14042 6.98357 6.47169 6.84472C6.87197 6.68274 7.5345 6.56703 8.43167 6.49761C10.4193 6.35876 11.3164 5.98851 11.3164 5.29429C11.3164 4.62321 10.4331 4.24138 8.5421 4.09097C6.67873 3.95212 6.5407 3.67443 8.11421 3.26947C9.23223 2.99178 9.79814 2.57525 9.79814 2.0083C9.79814 1.14052 9.23223 0.85126 7.34126 0.770267C6.19563 0.723985 5.91958 0.747126 5.42268 0.943823C5.09142 1.0711 4.82916 1.25622 4.82916 1.34879ZM6.46772 1.25803C6.40324 1.36387 6.23127 1.46971 6.1238 1.46971C5.99483 1.46971 5.97333 1.36387 6.03782 1.25803C6.1023 1.13102 6.27426 1.04635 6.38174 1.04635C6.51071 1.04635 6.53221 1.13102 6.46772 1.25803ZM7.83334 8.35737C8.74639 8.42404 10.2454 8.22404 10.4771 7.99739C10.5589 7.91739 9.99606 7.71077 9.73713 7.61745C8.81007 7.37481 6.9748 7.46407 6.06176 7.81073C5.73469 7.94406 6.8249 8.26404 7.83334 8.35737Z" fill="white"/>
<path fill-rule="evenodd" clip-rule="evenodd" d="M4.82916 15.3488C4.82916 15.3876 4.85603 15.412 4.87685 15.4308C4.91186 15.4626 4.92977 15.4788 4.77395 15.5223C4.53931 15.5918 3.90438 15.6843 3.4627 15.6728C3.37824 15.6728 3.22972 15.6477 3.09791 15.6255L3.09791 15.6255L3.09791 15.6255C2.99276 15.6077 2.89825 15.5918 2.85538 15.5918C2.79759 15.5978 2.92879 15.6546 3.03536 15.7007C3.13245 15.7427 3.2091 15.7758 3.10382 15.7537C2.80016 15.6843 2.62073 15.6612 2.85538 15.7885C3.03481 15.881 3.43509 15.881 4.001 15.8232C4.1169 15.811 4.33165 15.7766 4.53949 15.7432L4.5395 15.7432C4.72769 15.713 4.91022 15.6838 5.0086 15.6728C5.08784 15.6661 5.12159 15.6976 5.15163 15.7256C5.17392 15.7464 5.19417 15.7653 5.22944 15.7653C5.97479 15.8 7.29985 15.7769 7.87957 15.7075C8.36266 15.6496 8.5421 15.6728 8.68012 15.8116C8.95618 16.0777 8.66632 16.3091 7.87957 16.448C6.91338 16.6215 6.5131 16.7719 6.14042 17.1075C5.24325 17.9174 6.29225 18.8315 8.25224 18.9587C9.39787 19.0397 10.1432 19.2249 9.96378 19.3753C9.89476 19.4331 9.13561 19.5257 8.26604 19.5835C6.37507 19.7108 5.5331 19.9307 4.81536 20.5092C4.41508 20.8332 4.27706 21.0298 4.27706 21.296C4.27706 21.4398 4.27706 21.5277 4.23419 21.5815C4.16669 21.6662 3.99292 21.6662 3.54552 21.6662H3.54551C3.15904 21.6662 2.62073 21.6199 2.37228 21.5505C1.9858 21.4695 1.93059 21.4695 2.06862 21.6084C2.34468 21.8861 3.13143 22.129 3.78016 22.129C4.27706 22.129 4.55311 22.21 4.9948 22.4761C5.87817 23.02 6.88577 23.2282 8.5559 23.2167C10.7505 23.2051 12.0066 22.7191 12.0066 21.8976C12.0066 21.2844 11.1784 20.9257 9.45308 20.7984C8.5835 20.729 6.87197 20.8447 6.12662 21.0298C5.98859 21.0646 6.14042 20.9836 6.47169 20.8447C6.87197 20.6827 7.5345 20.567 8.43167 20.4976C10.4193 20.3588 11.3164 19.9885 11.3164 19.2943C11.3164 18.6232 10.4331 18.2414 8.5421 18.091C6.67873 17.9521 6.5407 17.6744 8.11421 17.2695C9.23223 16.9918 9.79814 16.5752 9.79814 16.0083C9.79814 15.1405 9.23223 14.8513 7.34126 14.7703C6.19563 14.724 5.91958 14.7471 5.42268 14.9438C5.09142 15.0711 4.82916 15.2562 4.82916 15.3488ZM6.46772 15.258C6.40324 15.3639 6.23127 15.4697 6.1238 15.4697C5.99483 15.4697 5.97333 15.3639 6.03782 15.258C6.1023 15.131 6.27426 15.0464 6.38174 15.0464C6.51071 15.0464 6.53221 15.131 6.46772 15.258ZM7.83334 22.3574C8.74639 22.424 10.2454 22.224 10.4771 21.9974C10.5589 21.9174 9.99606 21.7108 9.73713 21.6175C8.81007 21.3748 6.9748 21.4641 6.06176 21.8107C5.73469 21.9441 6.8249 22.264 7.83334 22.3574Z" fill="white"/>
<path fill-rule="evenodd" clip-rule="evenodd" d="M22.8233 1.34879C22.8233 1.38761 22.8502 1.41196 22.871 1.43083C22.906 1.46257 22.9239 1.4788 22.7681 1.52234C22.5334 1.59176 21.8985 1.68433 21.4568 1.67276C21.3724 1.67276 21.2239 1.6477 21.0921 1.62546L21.0921 1.62545L21.092 1.62545C20.9869 1.60771 20.8924 1.59176 20.8495 1.59176C20.7917 1.59782 20.9229 1.65457 21.0295 1.70066C21.1266 1.74266 21.2032 1.77581 21.098 1.75375C20.7943 1.68433 20.6149 1.66119 20.8495 1.78846C21.029 1.88102 21.4292 1.88102 21.9951 1.82317C22.111 1.81103 22.3258 1.77658 22.5336 1.74323L22.5336 1.74323C22.7218 1.71304 22.9044 1.68375 23.0027 1.67276C23.082 1.66612 23.1157 1.6976 23.1458 1.72563C23.1681 1.74643 23.1883 1.76532 23.2236 1.76532C23.9689 1.80003 25.294 1.77689 25.8737 1.70747C26.3568 1.64962 26.5362 1.67276 26.6743 1.8116C26.9503 2.07772 26.6605 2.30913 25.8737 2.44797C24.9075 2.62153 24.5072 2.77194 24.1346 3.10749C23.2374 3.91741 24.2864 4.83147 26.2464 4.95875C27.392 5.03974 28.1374 5.22487 27.9579 5.37528C27.8889 5.43313 27.1298 5.5257 26.2602 5.58355C24.3692 5.71082 23.5272 5.93066 22.8095 6.50918C22.4092 6.83315 22.2712 7.02985 22.2712 7.29597C22.2712 7.43978 22.2712 7.52773 22.2283 7.58152C22.1608 7.66622 21.9871 7.66622 21.5397 7.66622H21.5397C21.1532 7.66622 20.6149 7.61994 20.3664 7.55051C19.9799 7.46952 19.9247 7.46952 20.0628 7.60837C20.3388 7.88606 21.1256 8.12903 21.7743 8.12903C22.2712 8.12903 22.5473 8.21003 22.9889 8.47615C23.8723 9.01995 24.8799 9.22822 26.55 9.21665C28.7447 9.20508 30.0007 8.71912 30.0007 7.89763C30.0007 7.2844 29.1726 6.92571 27.4472 6.79844C26.5776 6.72902 24.8661 6.84472 24.1208 7.02985C23.9827 7.06456 24.1346 6.98357 24.4658 6.84472C24.8661 6.68274 25.5286 6.56703 26.4258 6.49761C28.4134 6.35876 29.3106 5.98851 29.3106 5.29429C29.3106 4.62321 28.4272 4.24138 26.5362 4.09097C24.6729 3.95212 24.5348 3.67443 26.1084 3.26947C27.2264 2.99178 27.7923 2.57525 27.7923 2.0083C27.7923 1.14052 27.2264 0.85126 25.3354 0.770267C24.1898 0.723985 23.9137 0.747126 23.4168 0.943823C23.0856 1.0711 22.8233 1.25622 22.8233 1.34879ZM24.4619 1.25803C24.3974 1.36387 24.2254 1.46971 24.118 1.46971C23.989 1.46971 23.9675 1.36387 24.032 1.25803C24.0965 1.13102 24.2684 1.04635 24.3759 1.04635C24.5049 1.04635 24.5264 1.13102 24.4619 1.25803ZM25.8275 8.35737C26.7405 8.42404 28.2396 8.22404 28.4712 7.99739C28.553 7.91739 27.9902 7.71077 27.7313 7.61745C26.8042 7.37481 24.969 7.46407 24.0559 7.81073C23.7288 7.94406 24.8191 8.26404 25.8275 8.35737Z" fill="white"/>
<path fill-rule="evenodd" clip-rule="evenodd" d="M22.8233 15.3488C22.8233 15.3876 22.8502 15.412 22.871 15.4308C22.906 15.4626 22.9239 15.4788 22.7681 15.5223C22.5334 15.5918 21.8985 15.6843 21.4568 15.6728C21.3724 15.6728 21.2239 15.6477 21.0921 15.6255L21.0921 15.6255L21.092 15.6255C20.9869 15.6077 20.8924 15.5918 20.8495 15.5918C20.7917 15.5978 20.9229 15.6546 21.0295 15.7007C21.1266 15.7427 21.2032 15.7758 21.098 15.7537C20.7943 15.6843 20.6149 15.6612 20.8495 15.7885C21.029 15.881 21.4292 15.881 21.9951 15.8232C22.111 15.811 22.3258 15.7766 22.5336 15.7432L22.5336 15.7432C22.7218 15.713 22.9044 15.6838 23.0027 15.6728C23.082 15.6661 23.1157 15.6976 23.1458 15.7256C23.1681 15.7464 23.1883 15.7653 23.2236 15.7653C23.9689 15.8 25.294 15.7769 25.8737 15.7075C26.3568 15.6496 26.5362 15.6728 26.6743 15.8116C26.9503 16.0777 26.6605 16.3091 25.8737 16.448C24.9075 16.6215 24.5072 16.7719 24.1346 17.1075C23.2374 17.9174 24.2864 18.8315 26.2464 18.9587C27.392 19.0397 28.1374 19.2249 27.9579 19.3753C27.8889 19.4331 27.1298 19.5257 26.2602 19.5835C24.3692 19.7108 23.5272 19.9307 22.8095 20.5092C22.4092 20.8332 22.2712 21.0298 22.2712 21.296C22.2712 21.4398 22.2712 21.5277 22.2283 21.5815C22.1608 21.6662 21.9871 21.6662 21.5397 21.6662H21.5397C21.1532 21.6662 20.6149 21.6199 20.3664 21.5505C19.9799 21.4695 19.9247 21.4695 20.0628 21.6084C20.3388 21.8861 21.1256 22.129 21.7743 22.129C22.2712 22.129 22.5473 22.21 22.9889 22.4761C23.8723 23.02 24.8799 23.2282 26.55 23.2167C28.7447 23.2051 30.0007 22.7191 30.0007 21.8976C30.0007 21.2844 29.1726 20.9257 27.4472 20.7984C26.5776 20.729 24.8661 20.8447 24.1208 21.0298C23.9827 21.0646 24.1346 20.9836 24.4658 20.8447C24.8661 20.6827 25.5286 20.567 26.4258 20.4976C28.4134 20.3588 29.3106 19.9885 29.3106 19.2943C29.3106 18.6232 28.4272 18.2414 26.5362 18.091C24.6729 17.9521 24.5348 17.6744 26.1084 17.2695C27.2264 16.9918 27.7923 16.5752 27.7923 16.0083C27.7923 15.1405 27.2264 14.8513 25.3354 14.7703C24.1898 14.724 23.9137 14.7471 23.4168 14.9438C23.0856 15.0711 22.8233 15.2562 22.8233 15.3488ZM24.4619 15.258C24.3974 15.3639 24.2254 15.4697 24.118 15.4697C23.989 15.4697 23.9675 15.3639 24.032 15.258C24.0965 15.131 24.2684 15.0464 24.3759 15.0464C24.5049 15.0464 24.5264 15.131 24.4619 15.258ZM25.8275 22.3574C26.7405 22.424 28.2396 22.224 28.4712 21.9974C28.553 21.9174 27.9902 21.7108 27.7313 21.6175C26.8042 21.3748 24.969 21.4641 24.0559 21.8107C23.7288 21.9441 24.8191 22.264 25.8275 22.3574Z" fill="white"/>
<rect width="32" height="24" fill="url(#paint0_linear_230_24896)" style="mix-blend-mode:overlay"/>
</g>
<rect x="0.5" y="0.5" width="31" height="23" rx="1.5" stroke="black" stroke-opacity="0.1"/>
<defs>
<linearGradient id="paint0_linear_230_24896" x1="16" y1="0" x2="16" y2="24" gradientUnits="userSpaceOnUse">
<stop stop-color="white" stop-opacity="0.7"/>
<stop offset="1" stop-opacity="0.3"/>
</linearGradient>
<clipPath id="clip0_230_24896">
<rect width="32" height="24" rx="2" fill="white"/>
</clipPath>
</defs>
</svg>
