<svg width="32" height="24" viewBox="0 0 32 24" fill="none" xmlns="http://www.w3.org/2000/svg">
<g clip-path="url(#clip0_230_26643)">
<mask id="mask0_230_26643" style="mask-type:luminance" maskUnits="userSpaceOnUse" x="0" y="0" width="32" height="24">
<rect width="32" height="24" fill="white"/>
</mask>
<g mask="url(#mask0_230_26643)">
<path fill-rule="evenodd" clip-rule="evenodd" d="M0 12H32V24H0V12Z" fill="#C51918"/>
<mask id="mask1_230_26643" style="mask-type:luminance" maskUnits="userSpaceOnUse" x="0" y="12" width="32" height="12">
<path fill-rule="evenodd" clip-rule="evenodd" d="M0 12H32V24H0V12Z" fill="white"/>
</mask>
<g mask="url(#mask1_230_26643)">
<path fill-rule="evenodd" clip-rule="evenodd" d="M12 20C16.4183 20 20 16.4183 20 12C20 7.58172 16.4183 4 12 4C7.58172 4 4 7.58172 4 12C4 16.4183 7.58172 20 12 20Z" fill="#F7FCFF"/>
</g>
<path fill-rule="evenodd" clip-rule="evenodd" d="M0 0H32V12H0V0Z" fill="#F7FCFF"/>
<mask id="mask2_230_26643" style="mask-type:luminance" maskUnits="userSpaceOnUse" x="0" y="0" width="32" height="12">
<path fill-rule="evenodd" clip-rule="evenodd" d="M0 0H32V12H0V0Z" fill="white"/>
</mask>
<g mask="url(#mask2_230_26643)">
<path fill-rule="evenodd" clip-rule="evenodd" d="M12 20C16.4183 20 20 16.4183 20 12C20 7.58172 16.4183 4 12 4C7.58172 4 4 7.58172 4 12C4 16.4183 7.58172 20 12 20Z" fill="#C51918"/>
</g>
</g>
<rect width="32" height="24" fill="url(#paint0_linear_230_26643)" style="mix-blend-mode:overlay"/>
</g>
<rect x="0.5" y="0.5" width="31" height="23" rx="1.5" stroke="black" stroke-opacity="0.1"/>
<defs>
<linearGradient id="paint0_linear_230_26643" x1="16" y1="0" x2="16" y2="24" gradientUnits="userSpaceOnUse">
<stop stop-color="white" stop-opacity="0.7"/>
<stop offset="1" stop-opacity="0.3"/>
</linearGradient>
<clipPath id="clip0_230_26643">
<rect width="32" height="24" rx="2" fill="white"/>
</clipPath>
</defs>
</svg>
