<svg width="32" height="24" viewBox="0 0 32 24" fill="none" xmlns="http://www.w3.org/2000/svg">
<g clip-path="url(#clip0_230_24006)">
<mask id="mask0_230_24006" style="mask-type:luminance" maskUnits="userSpaceOnUse" x="0" y="0" width="32" height="24">
<rect width="32" height="24" fill="white"/>
</mask>
<g mask="url(#mask0_230_24006)">
<path fill-rule="evenodd" clip-rule="evenodd" d="M0 0V24H32V0H0Z" fill="#61C6F0"/>
<mask id="mask1_230_24006" style="mask-type:luminance" maskUnits="userSpaceOnUse" x="0" y="0" width="32" height="24">
<path fill-rule="evenodd" clip-rule="evenodd" d="M0 0V24H32V0H0Z" fill="white"/>
</mask>
<g mask="url(#mask1_230_24006)">
<path fill-rule="evenodd" clip-rule="evenodd" d="M11.5 18C15.0899 18 18 15.0899 18 11.5C18 7.91015 15.0899 5 11.5 5C7.91015 5 5 7.91015 5 11.5C5 15.0899 7.91015 18 11.5 18Z" fill="#FBCD17"/>
</g>
</g>
<rect width="32" height="24" fill="url(#paint0_linear_230_24006)" style="mix-blend-mode:overlay"/>
</g>
<rect x="0.5" y="0.5" width="31" height="23" rx="1.5" stroke="black" stroke-opacity="0.1"/>
<defs>
<linearGradient id="paint0_linear_230_24006" x1="16" y1="0" x2="16" y2="24" gradientUnits="userSpaceOnUse">
<stop stop-color="white" stop-opacity="0.7"/>
<stop offset="1" stop-opacity="0.3"/>
</linearGradient>
<clipPath id="clip0_230_24006">
<rect width="32" height="24" rx="2" fill="white"/>
</clipPath>
</defs>
</svg>
