<svg width="32" height="24" viewBox="0 0 32 24" fill="none" xmlns="http://www.w3.org/2000/svg">
<g clip-path="url(#clip0_230_24768)">
<mask id="mask0_230_24768" style="mask-type:luminance" maskUnits="userSpaceOnUse" x="0" y="0" width="32" height="24">
<rect width="32" height="24" fill="white"/>
</mask>
<g mask="url(#mask0_230_24768)">
<path fill-rule="evenodd" clip-rule="evenodd" d="M22 0H32V24H22V0Z" fill="#D9071E"/>
<path fill-rule="evenodd" clip-rule="evenodd" d="M0 0H12V24H0V0Z" fill="#006923"/>
<path fill-rule="evenodd" clip-rule="evenodd" d="M10 0H22V24H10V0Z" fill="white"/>
<path fill-rule="evenodd" clip-rule="evenodd" d="M13.056 8.34173C12.9497 8.79689 13.0189 8.90433 13.5328 8.90433C13.5595 8.90433 13.6018 8.97976 13.6479 9.06182C13.6984 9.15184 13.7534 9.24983 13.7972 9.26497C13.7784 9.2898 13.5831 9.64294 13.5821 10.265C13.5819 10.3931 13.6415 10.6041 13.6988 10.8069C13.761 11.0274 13.8205 11.238 13.7972 11.3213C13.7593 11.4568 13.5894 11.3091 13.4578 11.1947C13.3825 11.1293 13.3197 11.0747 13.3013 11.0902C13.2073 11.1693 13.1588 10.5431 13.1295 10.1648C13.1164 9.99635 13.1072 9.87703 13.0994 9.89096C13.0666 9.81861 13.0532 9.72972 13.04 9.6419C13.0112 9.45092 12.9832 9.26497 12.7578 9.26497H12.1777V9.69207C12.1777 9.69207 12.5134 9.69207 12.5134 10.4866C12.5189 10.6054 12.6756 11.6502 13.056 11.6556C12.833 11.6606 12.8347 11.7051 12.8357 11.7312L12.8358 11.7358C12.8358 12.375 13.37 12.4441 13.8692 12.2637C14.1693 12.1552 14.4879 11.9435 14.7264 11.6826C15.063 11.3143 15.1046 10.8375 14.6626 10.5761C14.5052 10.483 14.3345 10.4471 14.0957 10.4338C14.1429 10.2936 14.0982 10.1685 14.0633 10.0708C14.0342 9.98915 14.0119 9.92675 14.056 9.89096C14.5566 9.48494 14.6012 9.11072 14.237 8.77504C14.1897 8.7315 14.144 8.67246 14.0969 8.61169L14.0969 8.61169C14.0082 8.49713 13.9146 8.37642 13.7972 8.34173C13.8515 8.23221 13.9246 8.09951 14.0164 7.94665L13.1591 7.43188C13.0036 7.69075 13.0296 7.89322 13.0523 8.06967C13.0647 8.16652 13.0761 8.25553 13.056 8.34173ZM13.9883 11.0079L13.9728 11.0245L13.9833 11.015C13.9849 11.0121 13.9866 11.0097 13.9883 11.0079ZM13.5346 11.3213C13.5344 11.3214 13.535 11.3212 13.5361 11.321L13.5363 11.321L13.5459 11.3191C13.542 11.3197 13.5383 11.3205 13.5363 11.321L13.5346 11.3213ZM13.0994 11.6551C13.0877 11.6551 13.0765 11.6552 13.0658 11.6554L13.0842 11.655L13.0994 11.6551Z" fill="#A8AC71"/>
<path fill-rule="evenodd" clip-rule="evenodd" d="M14.3833 7.91345C14.3833 7.91345 13.6965 8.44611 13.8249 9.01399C13.9534 9.58187 15.3069 9.01399 15.1432 8.46372C14.9796 7.91345 14.3833 7.91345 14.3833 7.91345Z" fill="#FCCA3D"/>
<path fill-rule="evenodd" clip-rule="evenodd" d="M19.2656 12.4029C19.2656 12.4029 20.1906 9.66155 18.7202 8.24251C17.2498 6.82347 15.5507 6.91843 15.5507 6.91843C15.5507 6.91843 15.0614 7.28197 15.5507 7.55923C16.04 7.83649 15.835 8.10233 15.835 8.10233C15.835 8.10233 15.0156 7.27029 14.4716 7.7564C13.9276 8.24251 14.9794 8.16853 14.8681 8.53455C14.7567 8.90057 14.285 10.5256 14.9743 11.3461C15.6636 12.1665 14.3226 11.9885 14.5953 11.9885C14.8681 11.9885 15.835 12.1794 15.835 11.9885C15.835 11.7975 16.1712 12.7309 16.4589 12.7309C16.7466 12.7309 16.9686 12.4029 16.9686 12.4029C16.9686 12.4029 17.3719 12.7309 17.6176 12.7309C17.8633 12.7309 18.7202 12.5163 18.7202 12.5163L17.1007 11.1517C17.1007 11.1517 17.1984 10.5499 16.9686 10.4196C16.7389 10.2893 18.8104 11.574 18.9726 11.9885C19.1348 12.4029 19.2656 12.4029 19.2656 12.4029Z" fill="#8F4620"/>
<path d="M11.0664 11.7266C11.0664 11.7266 11.2166 11.248 11.3773 11.2148C11.5166 11.186 11.8094 11.4441 11.8094 11.4441C12.3297 14.334 13.5876 15.4627 15.6749 15.4627C17.7867 15.4627 19.0666 14.605 19.8135 11.9398C19.8135 11.9398 20.2106 11.5343 20.3507 11.5794C20.5032 11.6284 20.6943 12.1649 20.6943 12.1649C19.8375 15.2225 18.2185 16.5839 15.6749 16.5839C13.1067 16.5839 11.6638 15.0448 11.0664 11.7266Z" fill="#9FAB2F"/>
<path fill-rule="evenodd" clip-rule="evenodd" d="M13.3346 13.6565C13.3346 13.6565 16.339 14.2938 17.5248 14.2938C18.7107 14.2938 16.4844 15.2616 15.6157 15.2616C15.2357 15.2616 14.7777 15.0313 14.2417 14.5706C14.1456 14.488 14.2386 14.3032 13.946 14.3007C13.5379 14.2972 13.0309 14.2015 13.0794 14.1431C13.1255 14.0876 13.7193 14.0709 13.6621 14.0102C13.5677 13.9102 13.3346 13.6565 13.3346 13.6565Z" fill="#2FC2DC"/>
<rect x="14.666" y="14.1" width="2" height="1.07143" rx="0.166667" fill="#F9AA51"/>
<path d="M12.1758 12.1359C12.1758 12.1359 12.1758 11.7609 12.4298 11.5616C12.7209 11.3332 12.9944 11.5616 12.9944 11.5616C14.0598 13.0802 15.6532 13.5798 17.8816 13.0584C17.8816 13.0584 18.5479 13.2761 18.5813 13.4192C18.6238 13.6007 18.1094 14.0321 18.1094 14.0321C15.5044 14.6416 13.4908 14.0102 12.1758 12.1359Z" fill="#259485"/>
<path fill-rule="evenodd" clip-rule="evenodd" d="M16.5919 12.3502C16.5919 12.3502 15.3782 12.9891 15.7828 12.9891C16.1873 12.9891 17.7706 13.3085 17.4625 12.9891C17.1545 12.6697 16.5919 12.3502 16.5919 12.3502Z" fill="#FCCA3D"/>
<path fill-rule="evenodd" clip-rule="evenodd" d="M15.157 11.5882C15.157 11.5882 14.9264 10.9221 14.4465 10.9221C13.9666 10.9221 14.1021 11.4685 13.8713 11.4685C13.6405 11.4685 14.0863 11.853 14.285 11.853C14.4837 11.853 15.157 11.5882 15.157 11.5882Z" fill="#FCCA3D"/>
</g>
<rect width="32" height="24" fill="url(#paint0_linear_230_24768)" style="mix-blend-mode:overlay"/>
</g>
<rect x="0.5" y="0.5" width="31" height="23" rx="1.5" stroke="black" stroke-opacity="0.1"/>
<defs>
<linearGradient id="paint0_linear_230_24768" x1="16" y1="0" x2="16" y2="24" gradientUnits="userSpaceOnUse">
<stop stop-color="white" stop-opacity="0.7"/>
<stop offset="1" stop-opacity="0.3"/>
</linearGradient>
<clipPath id="clip0_230_24768">
<rect width="32" height="24" rx="2" fill="white"/>
</clipPath>
</defs>
</svg>
