<svg width="32" height="24" viewBox="0 0 32 24" fill="none" xmlns="http://www.w3.org/2000/svg">
<g clip-path="url(#clip0_230_24192)">
<mask id="mask0_230_24192" style="mask-type:luminance" maskUnits="userSpaceOnUse" x="0" y="0" width="32" height="24">
<rect width="32" height="24" fill="white"/>
</mask>
<g mask="url(#mask0_230_24192)">
<path fill-rule="evenodd" clip-rule="evenodd" d="M0 0V24H32V0H0Z" fill="#2E42A5"/>
<mask id="mask1_230_24192" style="mask-type:luminance" maskUnits="userSpaceOnUse" x="0" y="0" width="32" height="24">
<path fill-rule="evenodd" clip-rule="evenodd" d="M0 0V24H32V0H0Z" fill="white"/>
</mask>
<g mask="url(#mask1_230_24192)">
<rect width="18" height="14" fill="#2B409A"/>
<mask id="mask2_230_24192" style="mask-type:luminance" maskUnits="userSpaceOnUse" x="0" y="0" width="18" height="14">
<rect width="18" height="14" fill="white"/>
</mask>
<g mask="url(#mask2_230_24192)">
<path d="M-2.00586 12.9997L1.95509 14.7369L18.0883 1.88866L20.1776 -0.692871L15.9419 -1.27349L9.36159 4.2632L4.06508 7.99363L-2.00586 12.9997Z" fill="#F7FCFF"/>
<path d="M-1.46289 14.217L0.555031 15.2251L19.428 -0.932617H16.5947L-1.46289 14.217Z" fill="#F50100"/>
<path d="M20.0039 12.9997L16.043 14.7369L-0.0902405 1.88866L-2.17955 -0.692871L2.05612 -1.27349L8.63646 4.2632L13.933 7.99363L20.0039 12.9997Z" fill="#F7FCFF"/>
<path d="M19.8691 13.8733L17.8512 14.8815L9.81489 7.96351L7.43229 7.19059L-2.3802 -0.683947H0.453194L10.2602 7.00368L12.8651 7.9305L19.8691 13.8733Z" fill="#F50100"/>
<mask id="path-12-outside-1_230_24192" maskUnits="userSpaceOnUse" x="-2" y="-2" width="22" height="18" fill="black">
<rect fill="white" x="-2" y="-2" width="22" height="18"/>
<path fill-rule="evenodd" clip-rule="evenodd" d="M9.98451 0H7.98451V6H0V8H7.98451V14H9.98451V8H18V6H9.98451V0Z"/>
</mask>
<path fill-rule="evenodd" clip-rule="evenodd" d="M9.98451 0H7.98451V6H0V8H7.98451V14H9.98451V8H18V6H9.98451V0Z" fill="#F50100"/>
<path d="M7.98451 0V-1.5H6.48451V0H7.98451ZM9.98451 0H11.4845V-1.5H9.98451V0ZM7.98451 6V7.5H9.48451V6H7.98451ZM0 6V4.5H-1.5V6H0ZM0 8H-1.5V9.5H0V8ZM7.98451 8H9.48451V6.5H7.98451V8ZM7.98451 14H6.48451V15.5H7.98451V14ZM9.98451 14V15.5H11.4845V14H9.98451ZM9.98451 8V6.5H8.48451V8H9.98451ZM18 8V9.5H19.5V8H18ZM18 6H19.5V4.5H18V6ZM9.98451 6H8.48451V7.5H9.98451V6ZM7.98451 1.5H9.98451V-1.5H7.98451V1.5ZM9.48451 6V0H6.48451V6H9.48451ZM0 7.5H7.98451V4.5H0V7.5ZM1.5 8V6H-1.5V8H1.5ZM7.98451 6.5H0V9.5H7.98451V6.5ZM9.48451 14V8H6.48451V14H9.48451ZM9.98451 12.5H7.98451V15.5H9.98451V12.5ZM8.48451 8V14H11.4845V8H8.48451ZM18 6.5H9.98451V9.5H18V6.5ZM16.5 6V8H19.5V6H16.5ZM9.98451 7.5H18V4.5H9.98451V7.5ZM8.48451 0V6H11.4845V0H8.48451Z" fill="#F7FCFF" mask="url(#path-12-outside-1_230_24192)"/>
</g>
<path fill-rule="evenodd" clip-rule="evenodd" d="M20.6155 10.7569C20.6155 10.7569 20.7142 11.8516 20.4977 12.4719C20.2812 13.0922 20.1712 13.4523 20.1712 13.0558C20.1712 12.6593 20.0192 12.3451 19.8969 12.3451C19.7747 12.3451 19.8712 12.7383 19.7483 12.7383C19.6254 12.7383 19.2021 12.8059 19.2021 12.5755C19.2021 12.3451 19.1463 13.1935 19.4211 13.2694C19.6958 13.3453 19.2877 13.5807 19.1055 13.5078C19.1055 13.5078 19.8549 13.7514 20.1488 13.959C20.1488 13.959 21.0298 15.0588 21.8539 14.9247C21.8539 14.9247 20.7318 14.5373 20.9295 13.7973C21.1272 13.0572 21.8539 12.9501 21.8539 12.9501C21.8539 12.9501 22.1949 13.0642 22.1846 13.3629C22.1744 13.6617 22.434 13.2694 22.434 13.2694C22.434 13.2694 22.4758 12.892 22.4297 12.7999C22.3836 12.7078 23.2107 12.5295 23.2629 12.1408C23.2629 12.1408 22.4178 12.1794 22.3598 12.0796C22.3017 11.9797 22.6213 11.8232 22.5214 11.6286C22.4214 11.4339 20.9295 12.7383 20.9295 12.7383C20.9295 12.7383 21.4447 11.8505 21.4447 11.3737C21.4447 10.897 21.3138 10.5712 20.9295 10.5712C20.5452 10.5712 20.6155 10.7569 20.6155 10.7569Z" fill="#5EAA22"/>
<path fill-rule="evenodd" clip-rule="evenodd" d="M28.3822 11.0171C28.3813 11.0188 28.3834 11.0202 28.3847 11.0188C28.4403 10.9642 28.7826 10.6494 29.0695 10.8984C29.3827 11.1702 28.9116 11.4352 28.9116 11.4352C28.9116 11.4352 29.1318 11.6487 29.3836 11.6487C29.6354 11.6487 29.6972 11.4352 29.6972 11.4352C29.6972 11.4352 29.7164 11.9104 30.5376 12.0904C30.5376 12.0904 30.8306 11.6697 30.5376 11.4394C30.5376 11.4394 30.8838 11.3676 30.8586 11.0872C30.8586 11.0872 30.5741 11.1842 30.3712 10.9614C30.1682 10.7386 29.7727 10.6359 29.4852 10.6872C28.7553 10.424 28.4268 10.9396 28.3822 11.0171Z" fill="#5EAA22"/>
<path fill-rule="evenodd" clip-rule="evenodd" d="M23.4023 13.415C23.4023 13.415 24.2516 15.0124 23.7208 15.3434C23.19 15.6744 26.2445 15.4389 26.5323 15.3434C26.8201 15.2478 26.4742 14.7442 26.1551 14.6044C25.8359 14.4646 24.5237 13.9994 24.1746 13.6485C23.8256 13.2977 24.0387 13.1732 24.3199 12.8269C24.601 12.4805 25.6418 12.342 25.6418 12.0183C25.6418 11.6946 26.302 10.3596 26.7635 10.2588C27.2249 10.1581 26.9756 9.99948 26.8695 9.99948C26.7635 9.99948 26.1255 10.657 25.8837 10.5384C25.6418 10.4197 25.6123 10.4281 25.8837 10.1413C26.1551 9.85459 26.3594 9.52455 26.0006 9.76202C25.6418 9.99948 25.0503 10.3753 24.766 10.3753C24.4817 10.3753 23.4694 10.2471 23.5951 10.5384C23.7208 10.8296 23.774 11.3352 24.3199 11.6768C24.8657 12.0183 24.6285 12.2683 24.1746 12.5974C23.7208 12.9265 23.4023 13.415 23.4023 13.415Z" fill="#96877D"/>
<path d="M29.038 11.3027L27.4198 14.5481C27.4198 14.5481 27.3726 15.4648 28.5295 14.8539C29.6864 14.2431 29.6408 13.8098 29.9744 13.8098C30.3079 13.8098 30.4138 13.6246 30.4138 13.6246L30.1917 13.4499C30.1917 13.4499 30.166 13.1312 30.3067 13.0597C30.3067 13.0597 30.0306 12.9076 29.9912 13.0345C29.9517 13.1615 29.7571 12.7689 29.8672 12.7689C29.8672 12.7689 29.6238 13.1631 29.5724 13.3169C29.5724 13.3169 29.2202 13.1736 29.2371 12.5101C29.2539 11.8466 29.038 11.3027 29.038 11.3027Z" fill="#FFD018"/>
<path d="M21.3359 10.7888C21.3359 10.7888 20.5119 10.9806 20.6008 11.1802C20.6896 11.3798 20.8206 11.1748 20.4172 11.4154C20.4172 11.4154 19.7085 11.9634 19.554 11.904C19.3995 11.8446 19.6634 12.042 19.6634 11.4154C19.6634 10.7888 19.2518 11.2988 19.6634 10.8805C20.0749 10.4622 20.2192 10.7888 20.4172 10.5481C20.6151 10.3074 20.4372 10.4354 20.974 10.4354C21.5109 10.4354 21.3359 10.7888 21.3359 10.7888Z" fill="#FFD018"/>
<path d="M23.8502 14.0142C23.8502 14.0142 21.5431 15.8272 21.082 15.9625C20.6209 16.0978 22.0303 15.9253 22.3747 15.6859C22.719 15.4466 23.8502 14.0142 23.8502 14.0142Z" fill="#FFD018"/>
<path fill-rule="evenodd" clip-rule="evenodd" d="M28.4248 17.1947C28.4248 17.1947 28.6463 18.6231 28.0682 18.4825C27.4901 18.3419 27.2502 18.2692 27.2502 18.2692C27.2502 18.2692 27.4622 18.9345 27.7652 18.9345C27.7652 18.9345 28.2814 19.9406 28.0828 20.2582C28.0828 20.2582 28.972 19.5368 28.8283 18.9632C28.6845 18.3897 29.0581 19.0576 29.0581 19.0576C29.0581 19.0576 29.3853 19.2156 29.6219 19.0392C29.8584 18.8627 29.6189 18.9411 29.3824 18.6052C29.1458 18.2692 29.2042 17.3257 28.4847 16.8367C27.7652 16.3477 27.5977 16.3633 27.5977 16.3633C27.5977 16.3633 27.0678 15.4969 27.3853 15.5542C27.3853 15.5542 29.6605 16.3341 29.7196 16.534C29.7787 16.7339 30.382 16.6973 30.0804 16.1258C29.7787 15.5542 28.1524 15.2098 27.9588 15.0486C27.7652 14.8874 27.9453 14.2761 27.5977 14.1429C27.2502 14.0097 26.3006 13.0647 26.3012 12.6093C26.3018 12.1539 25.8548 11.9395 25.4663 11.9395C25.0778 11.9395 24.3463 11.8273 24.0372 11.8273C23.7281 11.8273 23.4401 12.3443 23.7386 12.3443C24.0372 12.3443 23.7821 13.3123 23.2822 13.5238C22.7823 13.7353 22.3958 14.0394 21.8249 14.0394C21.254 14.0394 22.633 14.5316 22.8528 14.3373C23.0726 14.1429 23.0005 13.8532 23.7386 13.5238C24.4768 13.1944 25.1813 12.9993 25.0921 13.2616C25.0029 13.5238 25.2304 13.9624 25.5782 13.8037C25.9259 13.6449 26.0374 13.2439 26.0374 13.5238C26.0374 13.8037 26.5706 15.2412 26.978 15.8022C27.3853 16.3633 28.4248 17.1947 28.4248 17.1947Z" fill="#5EAA22"/>
<path d="M23.5708 11.9456C23.5708 11.9456 23.3003 12.3765 23.5708 12.3765C23.8413 12.3765 24.2763 12.3765 24.0113 12.161C23.7463 11.9456 23.5708 11.9456 23.5708 11.9456Z" fill="#FFD018"/>
<path d="M24.4746 11.9352C24.4746 11.9352 24.4759 12.2217 24.6634 12.2217C24.8509 12.2217 25.0177 12.5083 25.0177 12.2217C25.0177 11.9352 25.2782 12.0302 24.8764 11.9352C24.4746 11.8402 24.4746 11.9352 24.4746 11.9352Z" fill="#FFD018"/>
<path d="M25.6295 12.0009C25.6295 12.0009 25.4488 12.1369 25.5391 12.3796C25.6295 12.6224 25.8339 13.1027 25.5391 13.1027C25.2443 13.1027 25.0018 13.2758 25.2321 13.2758C25.4623 13.2758 25.872 13.449 25.872 13.2758C25.872 13.1027 26.0387 13.5614 26.0387 13.2758C26.0387 12.9903 26.0387 12.8539 26.0387 12.6864C26.0387 12.5189 26.2053 12.4708 26.0387 12.2358C25.872 12.0009 25.6295 12.0009 25.6295 12.0009Z" fill="#FFD018"/>
<path d="M26.0469 13.6718C26.0469 13.6718 26.4235 14.8572 26.6284 15.01C26.8332 15.1629 26.9251 16.4502 27.015 16.5902C27.1048 16.7302 28.3296 17.4367 28.3296 17.8158C28.3296 18.1949 28.7067 17.5245 28.5182 17.149C28.3296 16.7736 27.7359 15.9743 27.3089 15.8C26.8819 15.6257 26.9361 15.2036 26.8463 14.907C26.7566 14.6103 27.3776 15.1466 26.8463 14.4738C26.3151 13.8009 26.3292 14.162 26.4788 14.162C26.6284 14.162 26.7779 14.0825 26.6284 13.9779C26.4788 13.8733 26.0469 13.6718 26.0469 13.6718Z" fill="#FFD018"/>
<path d="M22.0536 16.1165C22.0536 16.1165 20.8302 18.2771 20.6119 18.3887C20.3936 18.5003 20.2308 18.523 20.1193 18.3887C20.0077 18.2544 19.9963 18.7492 20.1193 18.8846C20.2423 19.0201 20.6119 19.0201 20.817 18.7795C20.817 18.7795 20.8495 19.3874 21.169 19.8456C21.4885 20.3039 21.6216 20.1773 21.6216 20.4365C21.6216 20.6956 21.6971 21.0387 21.7946 21.0387C21.8922 21.0387 21.9677 21.8544 21.7946 21.8544C21.6216 21.8544 22.1956 21.9213 22.4459 21.7173C22.6961 21.5133 22.8031 21.3579 22.7496 21.3579C22.6961 21.3579 22.0536 21.0197 22.0536 20.7805C22.0536 20.5412 21.6216 20.3538 21.6216 19.9986C21.6216 19.6434 21.3971 19.221 21.3971 19.0528C21.3971 18.8846 21.5891 19.1177 21.7946 18.9585C22.0002 18.7992 22.0536 18.3887 22.0536 18.3887C22.0536 18.3887 21.7298 18.6059 21.6216 18.4973C21.5134 18.3887 21.1727 18.1743 21.3971 17.8065C21.6216 17.4387 22.0536 16.1165 22.0536 16.1165Z" fill="#FFD018"/>
<path fill-rule="evenodd" clip-rule="evenodd" d="M24.1743 9.30225C24.1743 9.30225 23.7362 9.49709 23.8822 9.7866C24.0282 10.0761 24.0807 10.2043 24.1743 10.1402C24.2678 10.0761 24.9241 9.95492 24.7771 9.62858C24.6301 9.30225 24.3221 9.30225 24.3221 9.30225H24.1743Z" fill="#5EAA22"/>
<path d="M25.6937 9.14572C25.6937 9.14572 25.1151 8.88968 25.308 9.14572C25.5008 9.40176 25.7476 9.53674 25.9251 9.53674C26.1026 9.53674 26.4715 9.48382 26.2871 9.38052C26.1026 9.27722 25.6937 9.14572 25.6937 9.14572Z" fill="#FFD018"/>
<path fill-rule="evenodd" clip-rule="evenodd" d="M19.9811 15.8007C19.984 15.7851 19.9655 15.7742 19.954 15.7851C19.8331 15.9004 19.4725 16.2833 19.6258 16.6165C19.8088 17.014 19.9918 17.152 19.9918 17.152C19.9918 17.152 20.1032 17.7606 20.3335 17.9262C20.3335 17.9262 20.6429 17.9104 20.6582 17.4366C20.6582 17.4366 21.1835 17.2825 21.3379 17.6106C21.3379 17.6106 21.2361 17.6474 21.2361 17.9262C21.2361 18.2049 21.4738 18.5069 21.4738 18.5069C21.4738 18.5069 21.5826 17.5455 22.0718 16.9257C22.5609 16.3059 22.7009 16.1835 22.7009 16.1835V15.4861C22.7009 15.4861 21.6888 16.3108 21.4738 16.9965C21.4738 16.9965 20.9641 17.0135 20.757 16.9257C20.5499 16.8379 21.0156 16.6939 20.757 16.3818C20.4983 16.0698 20.6169 16.8212 20.3335 16.6165C19.8903 16.4932 19.9505 15.9664 19.9811 15.8007Z" fill="#5EAA22"/>
<path fill-rule="evenodd" clip-rule="evenodd" d="M22.1855 15.1948L27.3702 15.1948V18.3625C27.3702 18.3625 26.9475 20.9508 24.6897 22.2259C24.6897 22.2259 22.5026 20.9332 22.1855 18.3625V15.1948Z" fill="#5EAA22"/>
<mask id="mask3_230_24192" style="mask-type:luminance" maskUnits="userSpaceOnUse" x="22" y="15" width="6" height="8">
<path fill-rule="evenodd" clip-rule="evenodd" d="M22.1855 15.1948L27.3702 15.1948V18.3625C27.3702 18.3625 26.9475 20.9508 24.6897 22.2259C24.6897 22.2259 22.5026 20.9332 22.1855 18.3625V15.1948Z" fill="white"/>
</mask>
<g mask="url(#mask3_230_24192)">
<path fill-rule="evenodd" clip-rule="evenodd" d="M24.65 15.0237L22.3848 19.7244L25.4567 16.9347L27.571 20.439V15.0237L25.4567 16.7568L24.65 15.0237Z" fill="#58A5FF"/>
<path d="M24.5781 18.4138C24.5781 18.3204 24.6538 18.2448 24.7471 18.2448C24.8405 18.2448 24.9162 18.3204 24.9162 18.4138V21.4321C24.9162 21.5254 24.8405 21.6011 24.7471 21.6011C24.6538 21.6011 24.5781 21.5254 24.5781 21.4321L24.5781 18.4138Z" fill="#FFD018"/>
<path d="M23.9903 19.1579C23.8986 19.1579 23.8242 19.0836 23.8242 18.9919C23.8242 18.9001 23.8986 18.8258 23.9903 18.8258H25.5175C25.6092 18.8258 25.6835 18.9001 25.6835 18.9919C25.6835 19.0836 25.6092 19.1579 25.5175 19.1579H23.9903Z" fill="#FFD018"/>
<path d="M24.8151 21.4888L24.6843 21.5951C24.4915 21.3609 24.3157 21.2483 24.1603 21.2483C23.9315 21.2483 23.7455 21.0574 23.5938 20.6954L23.7498 20.6309C23.8781 20.9371 24.0178 21.0804 24.1603 21.0804C24.3763 21.0804 24.5934 21.2195 24.8151 21.4888Z" fill="#FFD018"/>
<path fill-rule="evenodd" clip-rule="evenodd" d="M23.4422 20.1192C23.4411 20.1182 23.4395 20.119 23.4395 20.1204V20.9364C23.4395 20.9376 23.4406 20.9384 23.4417 20.9379L24.0554 20.6852C24.0565 20.6848 24.0568 20.6834 24.0559 20.6825L23.4422 20.1192Z" fill="#FFD018"/>
<path d="M24.6751 21.4888L24.8059 21.5951C24.9987 21.3609 25.1745 21.2483 25.3299 21.2483C25.5587 21.2483 25.7448 21.0574 25.8965 20.6954L25.7405 20.6309C25.6121 20.9371 25.4725 21.0804 25.3299 21.0804C25.1139 21.0804 24.8968 21.2195 24.6751 21.4888Z" fill="#FFD018"/>
<path fill-rule="evenodd" clip-rule="evenodd" d="M26.0481 20.1192C26.0491 20.1182 26.0508 20.119 26.0508 20.1204V20.9364C26.0508 20.9376 26.0496 20.9384 26.0485 20.9379L25.4348 20.6852C25.4337 20.6848 25.4334 20.6834 25.4343 20.6825L26.0481 20.1192Z" fill="#FFD018"/>
<rect x="24.4062" y="17.0587" width="0.676056" height="1.00733" fill="white"/>
</g>
</g>
</g>
<rect width="32" height="24" fill="url(#paint0_linear_230_24192)" style="mix-blend-mode:overlay"/>
</g>
<rect x="0.5" y="0.5" width="31" height="23" rx="1.5" stroke="black" stroke-opacity="0.1"/>
<defs>
<linearGradient id="paint0_linear_230_24192" x1="16" y1="0" x2="16" y2="24" gradientUnits="userSpaceOnUse">
<stop stop-color="white" stop-opacity="0.7"/>
<stop offset="1" stop-opacity="0.3"/>
</linearGradient>
<clipPath id="clip0_230_24192">
<rect width="32" height="24" rx="2" fill="white"/>
</clipPath>
</defs>
</svg>
