<svg width="32" height="24" viewBox="0 0 32 24" fill="none" xmlns="http://www.w3.org/2000/svg">
<g clip-path="url(#clip0_230_22713)">
<mask id="mask0_230_22713" style="mask-type:luminance" maskUnits="userSpaceOnUse" x="0" y="0" width="32" height="24">
<rect width="32" height="24" fill="white"/>
</mask>
<g mask="url(#mask0_230_22713)">
<path fill-rule="evenodd" clip-rule="evenodd" d="M0 0H32V24H0V0Z" fill="#F7FCFF"/>
<path fill-rule="evenodd" clip-rule="evenodd" d="M0 14.6666V16.6666H32V14.6666H0Z" fill="#E31D1C"/>
<path fill-rule="evenodd" clip-rule="evenodd" d="M0 18.3334V20.3334H32V18.3334H0Z" fill="#E31D1C"/>
<path fill-rule="evenodd" clip-rule="evenodd" d="M0 7.33337V9.33337H32V7.33337H0Z" fill="#E31D1C"/>
<path fill-rule="evenodd" clip-rule="evenodd" d="M0 22V24H32V22H0Z" fill="#E31D1C"/>
<path fill-rule="evenodd" clip-rule="evenodd" d="M0 11V13H32V11H0Z" fill="#E31D1C"/>
<path fill-rule="evenodd" clip-rule="evenodd" d="M0 0V2H32V0H0Z" fill="#E31D1C"/>
<path fill-rule="evenodd" clip-rule="evenodd" d="M0 3.66663V5.66663H32V3.66663H0Z" fill="#E31D1C"/>
<rect width="20" height="13" fill="#2E42A5"/>
<path fill-rule="evenodd" clip-rule="evenodd" d="M1.72123 2.93871L0.995355 3.44759L1.24042 2.54198L0.595703 1.96807H1.43779L1.72022 1.229L2.05139 1.96807H2.76925L2.20521 2.54198L2.42357 3.44759L1.72123 2.93871ZM5.72123 2.93871L4.99535 3.44759L5.24042 2.54198L4.5957 1.96807H5.43779L5.72022 1.229L6.05139 1.96807H6.76925L6.20521 2.54198L6.42357 3.44759L5.72123 2.93871ZM8.99535 3.44759L9.72123 2.93871L10.4236 3.44759L10.2052 2.54198L10.7692 1.96807H10.0514L9.72022 1.229L9.43779 1.96807H8.5957L9.24042 2.54198L8.99535 3.44759ZM13.7212 2.93871L12.9954 3.44759L13.2404 2.54198L12.5957 1.96807H13.4378L13.7202 1.229L14.0514 1.96807H14.7692L14.2052 2.54198L14.4236 3.44759L13.7212 2.93871ZM0.995355 7.44759L1.72123 6.93871L2.42357 7.44759L2.20521 6.54198L2.76925 5.96807H2.05139L1.72022 5.229L1.43779 5.96807H0.595703L1.24042 6.54198L0.995355 7.44759ZM5.72123 6.93871L4.99535 7.44759L5.24042 6.54198L4.5957 5.96807H5.43779L5.72022 5.229L6.05139 5.96807H6.76925L6.20521 6.54198L6.42357 7.44759L5.72123 6.93871ZM8.99535 7.44759L9.72123 6.93871L10.4236 7.44759L10.2052 6.54198L10.7692 5.96807H10.0514L9.72022 5.229L9.43779 5.96807H8.5957L9.24042 6.54198L8.99535 7.44759ZM13.7212 6.93871L12.9954 7.44759L13.2404 6.54198L12.5957 5.96807H13.4378L13.7202 5.229L14.0514 5.96807H14.7692L14.2052 6.54198L14.4236 7.44759L13.7212 6.93871ZM0.995355 11.4476L1.72123 10.9387L2.42357 11.4476L2.20521 10.542L2.76925 9.96807H2.05139L1.72022 9.229L1.43779 9.96807H0.595703L1.24042 10.542L0.995355 11.4476ZM5.72123 10.9387L4.99535 11.4476L5.24042 10.542L4.5957 9.96807H5.43779L5.72022 9.229L6.05139 9.96807H6.76925L6.20521 10.542L6.42357 11.4476L5.72123 10.9387ZM8.99535 11.4476L9.72123 10.9387L10.4236 11.4476L10.2052 10.542L10.7692 9.96807H10.0514L9.72022 9.229L9.43779 9.96807H8.5957L9.24042 10.542L8.99535 11.4476ZM13.7212 10.9387L12.9954 11.4476L13.2404 10.542L12.5957 9.96807H13.4378L13.7202 9.229L14.0514 9.96807H14.7692L14.2052 10.542L14.4236 11.4476L13.7212 10.9387ZM16.9954 3.44759L17.7212 2.93871L18.4236 3.44759L18.2052 2.54198L18.7692 1.96807H18.0514L17.7202 1.229L17.4378 1.96807H16.5957L17.2404 2.54198L16.9954 3.44759ZM17.7212 6.93871L16.9954 7.44759L17.2404 6.54198L16.5957 5.96807H17.4378L17.7202 5.229L18.0514 5.96807H18.7692L18.2052 6.54198L18.4236 7.44759L17.7212 6.93871ZM16.9954 11.4476L17.7212 10.9387L18.4236 11.4476L18.2052 10.542L18.7692 9.96807H18.0514L17.7202 9.229L17.4378 9.96807H16.5957L17.2404 10.542L16.9954 11.4476ZM3.72123 4.93871L2.99535 5.44759L3.24042 4.54198L2.5957 3.96807H3.43779L3.72022 3.229L4.05139 3.96807H4.76925L4.20521 4.54198L4.42357 5.44759L3.72123 4.93871ZM6.99535 5.44759L7.72123 4.93871L8.42357 5.44759L8.20521 4.54198L8.76925 3.96807H8.05139L7.72022 3.229L7.43779 3.96807H6.5957L7.24042 4.54198L6.99535 5.44759ZM11.7212 4.93871L10.9954 5.44759L11.2404 4.54198L10.5957 3.96807H11.4378L11.7202 3.229L12.0514 3.96807H12.7692L12.2052 4.54198L12.4236 5.44759L11.7212 4.93871ZM2.99535 9.44759L3.72123 8.93871L4.42357 9.44759L4.20521 8.54198L4.76925 7.96807H4.05139L3.72022 7.229L3.43779 7.96807H2.5957L3.24042 8.54198L2.99535 9.44759ZM7.72123 8.93871L6.99535 9.44759L7.24042 8.54198L6.5957 7.96807H7.43779L7.72022 7.229L8.05139 7.96807H8.76925L8.20521 8.54198L8.42357 9.44759L7.72123 8.93871ZM10.9954 9.44759L11.7212 8.93871L12.4236 9.44759L12.2052 8.54198L12.7692 7.96807H12.0514L11.7202 7.229L11.4378 7.96807H10.5957L11.2404 8.54198L10.9954 9.44759ZM15.7212 4.93871L14.9954 5.44759L15.2404 4.54198L14.5957 3.96807H15.4378L15.7202 3.229L16.0514 3.96807H16.7692L16.2052 4.54198L16.4236 5.44759L15.7212 4.93871ZM14.9954 9.44759L15.7212 8.93871L16.4236 9.44759L16.2052 8.54198L16.7692 7.96807H16.0514L15.7202 7.229L15.4378 7.96807H14.5957L15.2404 8.54198L14.9954 9.44759Z" fill="#F7FCFF"/>
</g>
<rect width="32" height="24" fill="url(#paint0_linear_230_22713)" style="mix-blend-mode:overlay"/>
</g>
<rect x="0.5" y="0.5" width="31" height="23" rx="1.5" stroke="black" stroke-opacity="0.1"/>
<defs>
<linearGradient id="paint0_linear_230_22713" x1="16" y1="0" x2="16" y2="24" gradientUnits="userSpaceOnUse">
<stop stop-color="white" stop-opacity="0.7"/>
<stop offset="1" stop-opacity="0.3"/>
</linearGradient>
<clipPath id="clip0_230_22713">
<rect width="32" height="24" rx="2" fill="white"/>
</clipPath>
</defs>
</svg>
