<svg width="32" height="24" viewBox="0 0 32 24" fill="none" xmlns="http://www.w3.org/2000/svg">
<g clip-path="url(#clip0_230_27174)">
<mask id="mask0_230_27174" style="mask-type:luminance" maskUnits="userSpaceOnUse" x="0" y="0" width="32" height="24">
<rect width="32" height="24" fill="white"/>
</mask>
<g mask="url(#mask0_230_27174)">
<path fill-rule="evenodd" clip-rule="evenodd" d="M0 0V24H32V0H0Z" fill="#F7FCFF"/>
<mask id="mask1_230_27174" style="mask-type:luminance" maskUnits="userSpaceOnUse" x="0" y="0" width="32" height="24">
<path fill-rule="evenodd" clip-rule="evenodd" d="M0 0V24H32V0H0Z" fill="white"/>
</mask>
<g mask="url(#mask1_230_27174)">
<path fill-rule="evenodd" clip-rule="evenodd" d="M0 0V8H32V0H0Z" fill="#BF2714"/>
<path fill-rule="evenodd" clip-rule="evenodd" d="M0 16V24H32V16H0Z" fill="#272727"/>
<path d="M12.2605 10.2202L13.2595 10.266L13.0087 15.7358L12.0098 15.69L12.2605 10.2202Z" fill="#C09302"/>
<path d="M13.3035 10.5598L14.3019 10.6162L14.0511 15.0515L13.0527 14.9951L13.3035 10.5598Z" fill="#C09302"/>
<path d="M14.3484 10.8919L15.3451 10.9737L15.0943 14.0297L14.0977 13.9479L14.3484 10.8919Z" fill="#C09302"/>
<path d="M19.7395 10.2202L18.7405 10.266L18.9913 15.7358L19.9902 15.69L19.7395 10.2202Z" fill="#C09302"/>
<path d="M18.6965 10.5598L17.6981 10.6162L17.9489 15.0515L18.9473 14.9951L18.6965 10.5598Z" fill="#C09302"/>
<path d="M17.6516 10.8919L16.6549 10.9737L16.9057 14.0297L17.9023 13.9479L17.6516 10.8919Z" fill="#C09302"/>
<path d="M15.9728 15.3267L14.998 15.1034L15.4106 13.3027L16.3854 13.526L15.9728 15.3267Z" fill="#C09302"/>
<path d="M16.7186 15.3267L17.6934 15.1034L17.2808 13.3027L16.306 13.526L16.7186 15.3267Z" fill="#C09302"/>
<path d="M16.4707 15.3102H15.4707V13.5423H16.4707V15.3102Z" fill="#C09302"/>
<path d="M14.6346 10.9133L15.6343 10.9378L15.5759 13.3187L14.5762 13.2942L14.6346 10.9133Z" fill="#C09302"/>
<path d="M16.3729 10.9133L17.3726 10.9378L17.3142 13.3187L16.3145 13.2942L16.3729 10.9133Z" fill="#C09302"/>
<path d="M13.3379 15.9228L13.5976 14.9572C14.6586 15.2425 15.4734 15.3836 16.0289 15.3836C16.5845 15.3836 17.3992 15.2425 18.4602 14.9572L18.7199 15.9228C17.5815 16.229 16.6888 16.3836 16.0289 16.3836C15.369 16.3836 14.4763 16.229 13.3379 15.9228Z" fill="#C09302"/>
<path d="M12.2828 10.2227C12.2162 9.56211 12.6028 9.11493 13.2581 9.17197C13.4735 9.19072 13.7155 9.25446 14.0378 9.36381C14.132 9.39612 14.132 9.39612 14.2235 9.42852C14.6666 9.58612 14.7869 9.62663 14.8119 9.63196C14.7137 9.60973 15.0029 9.08696 15.0692 8.99884C15.0771 9.0548 15.0438 9.04683 14.9638 9.03084L14.0618 8.85031L14.7039 8.19155C14.9284 7.96129 15.2273 7.84711 15.5683 7.84711C15.6037 7.84711 15.6367 7.84547 15.7451 7.8388C15.8252 7.83393 15.8252 7.83393 15.9153 7.8302C16.5392 7.80998 16.9867 7.98642 16.9867 8.62808C16.9867 8.85763 17.0157 9.22678 17.0636 9.50683C17.0797 9.60104 17.1108 9.68922 17.019 9.72795C17.0228 9.69453 17.2414 9.60828 17.5812 9.46616L17.622 9.44911C18.6095 9.03696 18.7248 8.99873 19.0431 9.19217C19.2552 9.32108 19.4572 9.55295 19.6835 9.89867L18.8468 10.4464C18.7009 10.2234 18.5846 10.0881 18.5293 10.0503C18.6551 10.1377 18.2314 10.2784 18.0072 10.3719L17.9671 10.3887C17.1983 10.7102 17.0969 10.7486 16.8771 10.7486C16.2789 10.7486 16.0641 10.1358 16.0053 9.25829C15.8207 9.86586 15.2701 10.6326 14.8163 10.6326C14.6177 10.6326 14.7132 10.664 13.8884 10.3707C13.802 10.3401 13.802 10.3401 13.7165 10.3108C13.4667 10.226 13.2864 10.1785 13.1727 10.1683C13.1774 10.163 13.1941 10.1449 13.2129 10.1289L12.2828 10.2227Z" fill="#C09302"/>
</g>
</g>
<rect width="32" height="24" fill="url(#paint0_linear_230_27174)" style="mix-blend-mode:overlay"/>
</g>
<rect x="0.5" y="0.5" width="31" height="23" rx="1.5" stroke="black" stroke-opacity="0.1"/>
<defs>
<linearGradient id="paint0_linear_230_27174" x1="16" y1="0" x2="16" y2="24" gradientUnits="userSpaceOnUse">
<stop stop-color="white" stop-opacity="0.7"/>
<stop offset="1" stop-opacity="0.3"/>
</linearGradient>
<clipPath id="clip0_230_27174">
<rect width="32" height="24" rx="2" fill="white"/>
</clipPath>
</defs>
</svg>
