<svg width="32" height="24" viewBox="0 0 32 24" fill="none" xmlns="http://www.w3.org/2000/svg">
<g clip-path="url(#clip0_230_28544)">
<mask id="mask0_230_28544" style="mask-type:luminance" maskUnits="userSpaceOnUse" x="0" y="0" width="32" height="24">
<rect width="32" height="24" fill="white"/>
</mask>
<g mask="url(#mask0_230_28544)">
<path fill-rule="evenodd" clip-rule="evenodd" d="M0 0H32V24H0V0Z" fill="#F50100"/>
<path fill-rule="evenodd" clip-rule="evenodd" d="M16.5 6.22363C16.5679 6.20979 16.7378 6.11623 17.1028 5.63666C17.3256 5.34389 17.3155 4.991 17.3066 4.68487C17.2951 4.28365 17.2858 3.96274 17.8065 3.96274C18.2333 3.96274 18.5496 3.8402 18.8144 3.73757C19.1192 3.61947 19.356 3.52773 19.615 3.67935C20.032 3.9235 20.5236 3.95731 20.5233 3.96199C20.5233 3.96274 20.5106 3.96274 20.4828 3.96274C20.282 3.96274 19.5606 4.3735 20.1184 4.3735C20.3913 4.3735 20.6825 4.17692 20.9087 4.02417C21.1449 3.86464 21.3104 3.75291 21.3104 3.96274C21.3104 3.96274 21.4691 4.42642 21.086 4.46161C21.086 4.46161 19.3578 4.63049 19.6955 4.70644C19.6955 4.70644 20.003 4.83317 20.2135 4.84088C20.2135 4.84088 20.3046 5.16109 19.7446 5.24976C19.7446 5.24976 18.1617 5.54364 18.0893 6.05226C18.0711 6.17994 18.0259 6.34781 17.9776 6.52764C17.8334 7.06413 17.6605 7.70705 18.0893 7.70705C18.6617 7.70705 19.0335 7.31498 19.0335 6.87444C19.0335 6.43391 19.1112 5.68975 19.615 5.65352C19.615 5.65352 20.8535 5.23532 21.0071 5.26403C21.065 5.27485 21.0619 5.31287 21.0583 5.35603C21.0525 5.42732 21.0455 5.51264 21.3104 5.51264C21.7357 5.51264 22.9681 4.49091 23.1621 4.08513C23.3561 3.67935 23.6475 4.08513 23.6475 4.08513C23.6475 4.08513 23.835 5.22105 22.8586 5.63666C21.8822 6.05226 21.3104 6.05226 21.3104 6.05226C21.3104 6.05226 20.7015 6.50001 21.086 6.50001C21.1713 6.50001 21.2781 6.50778 21.3988 6.51655C21.8221 6.54733 22.4169 6.59058 22.8586 6.355C22.9805 6.28997 23.0865 6.23109 23.1777 6.18041C23.511 5.99515 23.6475 5.91933 23.6475 6.05226V6.055C23.6475 6.23154 23.6476 7.17112 22.9974 7.17112H21.3104C21.086 7.17112 20.5547 7.49076 21.4373 7.70705C22.3199 7.92334 22.6044 7.83295 22.9974 7.70705C23.3903 7.58114 23.6475 7.50962 23.6475 7.70705C23.6475 7.90447 23.1085 8.64308 22.6454 8.64308C22.3741 8.64308 22.0854 8.50233 21.8463 8.38575C21.6773 8.30336 21.5331 8.23305 21.4373 8.23305C21.206 8.23305 20.9661 8.64308 21.086 8.64308C21.1249 8.64308 21.1931 8.70566 21.2851 8.79024C21.4769 8.96648 21.7727 9.23823 22.1246 9.23823C22.4118 9.23823 22.6356 9.17961 22.8364 9.12701C22.9998 9.08421 23.148 9.0454 23.3027 9.0454C23.5024 9.0454 23.5864 9.02135 23.6218 9.05251C23.6475 9.07515 23.6475 9.12693 23.6475 9.23823C23.6475 9.50275 22.9595 9.79458 22.6454 9.79458C22.5026 9.79458 22.151 9.63798 21.81 9.48608C21.4009 9.30388 21.0071 9.12846 21.0071 9.23823C21.0071 9.43951 21.8368 10.522 22.3477 10.522H23.3027C23.6475 10.522 23.5106 10.9599 23.5106 10.9599C23.5106 10.9599 23.1768 11.2565 22.7622 11.2565C22.4514 11.2565 22.1447 11.021 21.9047 10.8367C21.8246 10.7751 21.7519 10.7193 21.6889 10.6798C21.4373 10.522 21.086 10.3998 21.086 10.6798C21.086 10.9599 21.8792 12.0786 22.5206 12.0786C22.7769 12.0786 23.0082 12.0375 23.1937 12.0044C23.4724 11.9548 23.6475 11.9236 23.6475 12.0786C23.6475 12.3368 23.3493 12.9114 22.9974 12.7844L22.9898 12.7817C22.6299 12.6519 21.5332 12.2563 21.3104 11.8363C21.086 11.4133 20.6759 11.5939 20.8415 11.8363C21.0071 12.0786 21.8792 13.332 22.5206 13.4488C22.691 13.4798 22.8599 13.5005 23.0137 13.5193C23.439 13.5712 23.748 13.609 23.6475 13.8127C23.5106 14.09 22.9431 14.4775 22.6454 14.3554C22.3477 14.2334 21.3306 13.2984 21.086 12.9086C20.8415 12.5189 20.2135 11.7726 20.2135 12.0786C20.2135 12.144 20.2019 12.2335 20.1887 12.335C20.1401 12.7087 20.0704 13.2444 20.4828 13.3344C21.0071 13.4488 21.2833 13.9536 21.0071 13.9536C20.7308 13.9536 19.7446 13.7171 19.7446 13.0915C19.7446 12.466 19.2985 12.1147 19.2985 12.2903C19.2985 12.3103 19.298 12.3348 19.2973 12.3631C19.2921 12.5837 19.2814 13.0333 19.499 13.3344C19.7445 13.6741 19.3966 13.9513 19.2985 13.8127C19.2005 13.6741 18.7801 13.0328 18.7801 12.9086C18.7801 12.7844 18.6318 12.4929 18.4574 12.4929C18.283 12.4929 18.248 12.7968 18.5743 13.4488C18.9006 14.1008 19.7051 14.6221 19.9593 14.6221C20.2135 14.6221 19.9593 15.2068 19.9593 15.2068L21.6889 15.6548C21.6889 15.6548 22.3477 15.3152 22.3477 15.2068C22.3477 15.0984 22.692 14.8341 22.9974 14.8341C23.3027 14.8341 23.3269 15.2068 23.1621 15.2068C23.0807 15.2068 22.9654 15.2765 22.8487 15.347C22.7292 15.4193 22.6082 15.4924 22.5206 15.4924C22.3477 15.4924 21.819 15.8622 21.819 15.8622H22.9974C22.9974 15.8622 22.8087 15.6548 23.3027 15.6548C23.7966 15.6548 24 15.8622 24 15.8622C24 15.8622 23.4432 16.1889 23.3027 16.1889C23.2672 16.1889 23.2224 16.1962 23.1668 16.2052C23.0846 16.2186 22.9788 16.2358 22.8442 16.2391C22.8064 16.211 22.7841 16.2172 22.7712 16.2394C22.6513 16.2377 22.5111 16.2242 22.3477 16.1889C21.819 16.0748 22.7622 16.426 22.7622 16.426C22.7622 16.426 22.7417 16.2905 22.7712 16.2394C22.7964 16.2398 22.8207 16.2397 22.8442 16.2391C22.8799 16.2656 22.9293 16.3228 22.9974 16.426C23.3027 16.889 23.3493 17.0332 22.9974 17.0332C22.6454 17.0332 22.3477 16.9261 22.3477 16.6761C22.3477 16.426 21.6889 16.1889 21.6889 16.1889L20.8415 16.6761C20.8415 16.6761 20.9997 16.9476 20.7412 17.0332C20.4828 17.1187 20.1184 16.993 20.1184 16.9075C20.1184 16.8219 20.2039 16.426 20.4235 16.426C20.6431 16.426 21.3104 16.0633 21.3104 16.0633L19.6955 15.5808C19.6955 15.5808 19.2432 16.0633 19.0945 16.0633C19.0183 16.0633 18.8685 15.7552 18.7049 15.4188C18.5491 15.0984 18.3808 14.7523 18.2517 14.6221C18.1708 14.5406 18.099 14.4323 18.0296 14.3276C17.8721 14.0901 17.7267 13.8709 17.5142 14.0236C17.2081 14.2436 17.0865 14.9215 17.5142 15.4924C17.9419 16.0633 18.682 16.5143 18.8882 16.5143C19.0945 16.5143 19.499 16.5337 19.499 16.6761C19.499 16.8184 19.3191 17.4013 18.8882 17.1544C18.8028 17.1055 18.7162 17.0546 18.6318 17.0049C18.2903 16.8042 17.9839 16.6241 17.9314 16.6761C17.866 16.7409 18.1353 17.475 18.5118 17.6502C18.6771 17.7272 18.8306 17.7215 18.9508 17.7171C19.1042 17.7115 19.2032 17.7079 19.2032 17.8806C19.2032 18.1887 18.9372 18.532 18.4574 18.2063C18.2454 18.0624 18.0705 17.8729 17.9337 17.7247C17.761 17.5376 17.6492 17.4165 17.6009 17.537C17.5142 17.7528 17.551 18.5961 17.9314 18.5961C18.019 18.5961 18.1003 18.5933 18.1736 18.5907C18.4187 18.5821 18.5743 18.5767 18.5743 18.6912C18.5743 18.8398 18.4865 19.4736 18.0893 19.2208C17.692 18.9679 17.4015 18.6526 17.3305 18.4295C17.2595 18.2063 16.8354 18.4286 16.9691 18.7424C17.1028 19.0562 17.4276 19.6887 17.5142 19.6887C17.6009 19.6887 16.507 21.6 16.507 21.6L16.5 19.2469L16.493 21.6C16.493 21.6 15.3991 19.6887 15.4858 19.6887C15.5724 19.6887 15.8972 19.0562 16.0309 18.7424C16.1646 18.4286 15.7405 18.2063 15.6695 18.4295C15.5985 18.6526 15.308 18.9679 14.9107 19.2208C14.5135 19.4736 14.4257 18.8398 14.4257 18.6912C14.4257 18.5767 14.5813 18.5821 14.8264 18.5907C14.8997 18.5933 14.981 18.5961 15.0686 18.5961C15.449 18.5961 15.4858 17.7528 15.3991 17.537C15.3508 17.4165 15.239 17.5376 15.0663 17.7247C14.9295 17.8729 14.7546 18.0624 14.5426 18.2063C14.0628 18.532 13.7968 18.1887 13.7968 17.8806C13.7968 17.7079 13.8958 17.7115 14.0492 17.7171C14.1694 17.7215 14.3229 17.7272 14.4882 17.6502C14.8647 17.475 15.134 16.7409 15.0686 16.6761C15.0161 16.6241 14.7097 16.8042 14.3682 17.0049C14.2838 17.0546 14.1972 17.1055 14.1118 17.1544C13.6809 17.4013 13.501 16.8184 13.501 16.6761C13.501 16.5337 13.9055 16.5143 14.1118 16.5143C14.318 16.5143 15.0581 16.0633 15.4858 15.4924C15.9135 14.9215 15.7919 14.2436 15.4858 14.0236C15.2733 13.8709 15.1279 14.0901 14.9704 14.3276C14.901 14.4323 14.8292 14.5406 14.7483 14.6221C14.6192 14.7523 14.4509 15.0984 14.2951 15.4188C14.1315 15.7552 13.9817 16.0633 13.9055 16.0633C13.7568 16.0633 13.3045 15.5808 13.3045 15.5808L11.6896 16.0633C11.6896 16.0633 12.3569 16.426 12.5765 16.426C12.7961 16.426 12.8816 16.8219 12.8816 16.9075C12.8816 16.993 12.5172 17.1187 12.2588 17.0332C12.0003 16.9476 12.1585 16.6761 12.1585 16.6761L11.3111 16.1889C11.3111 16.1889 10.6523 16.426 10.6523 16.6761C10.6523 16.9261 10.3546 17.0332 10.0026 17.0332C9.65071 17.0332 9.69733 16.889 10.0026 16.426C10.0707 16.3228 10.1201 16.2656 10.1558 16.2391C10.1793 16.2397 10.2036 16.2398 10.2288 16.2394C10.2583 16.2905 10.2378 16.426 10.2378 16.426C10.2378 16.426 11.181 16.0748 10.6523 16.1889C10.4889 16.2242 10.3487 16.2377 10.2288 16.2394C10.2159 16.2172 10.1935 16.211 10.1558 16.2391C10.0212 16.2358 9.91538 16.2186 9.83321 16.2052C9.7776 16.1962 9.73283 16.1889 9.69733 16.1889C9.55679 16.1889 9 15.8622 9 15.8622C9 15.8622 9.20337 15.6548 9.69733 15.6548C10.1913 15.6548 10.0026 15.8622 10.0026 15.8622H11.181C11.181 15.8622 10.6523 15.4924 10.4794 15.4924C10.3918 15.4924 10.2708 15.4193 10.1513 15.347C10.0346 15.2765 9.91926 15.2068 9.83787 15.2068C9.67309 15.2068 9.69733 14.8341 10.0026 14.8341C10.308 14.8341 10.6523 15.0984 10.6523 15.2068C10.6523 15.3152 11.3111 15.6548 11.3111 15.6548L13.0407 15.2068C13.0407 15.2068 12.7865 14.6221 13.0407 14.6221C13.2949 14.6221 14.0994 14.1008 14.4257 13.4488C14.752 12.7968 14.717 12.4929 14.5426 12.4929C14.3682 12.4929 14.2199 12.7844 14.2199 12.9086C14.2199 13.0328 13.7995 13.6741 13.7015 13.8127C13.6034 13.9513 13.2554 13.6741 13.501 13.3344C13.7186 13.0333 13.7079 12.5837 13.7027 12.3631C13.702 12.3348 13.7015 12.3103 13.7015 12.2903C13.7015 12.1147 13.2554 12.466 13.2554 13.0915C13.2554 13.7171 12.2692 13.9536 11.9929 13.9536C11.7167 13.9536 11.9929 13.4488 12.5172 13.3344C12.9296 13.2444 12.8599 12.7087 12.8113 12.335C12.7981 12.2336 12.7865 12.144 12.7865 12.0786C12.7865 11.7726 12.1585 12.5189 11.914 12.9086C11.6694 13.2984 10.6523 14.2334 10.3546 14.3554C10.0569 14.4775 9.48935 14.09 9.35253 13.8127C9.25204 13.609 9.561 13.5712 9.98634 13.5193C10.1401 13.5005 10.309 13.4798 10.4794 13.4488C11.1208 13.332 11.9929 12.0786 12.1585 11.8363C12.3241 11.5939 11.914 11.4133 11.6896 11.8363C11.4668 12.2563 10.3701 12.6519 10.0102 12.7817L10.0026 12.7844C9.65071 12.9114 9.35253 12.3368 9.35253 12.0786C9.35253 11.9236 9.52756 11.9548 9.80632 12.0044C9.99176 12.0375 10.2231 12.0786 10.4794 12.0786C11.1208 12.0786 11.914 10.9599 11.914 10.6798C11.914 10.3998 11.5627 10.522 11.3111 10.6798C11.2481 10.7193 11.1754 10.7751 11.0953 10.8367C10.8553 11.021 10.5486 11.2565 10.2378 11.2565C9.82322 11.2565 9.48935 10.9599 9.48935 10.9599C9.48935 10.9599 9.35253 10.522 9.69733 10.522H10.6523C11.1632 10.522 11.9929 9.43951 11.9929 9.23823C11.9929 9.12846 11.5991 9.30388 11.19 9.48608C10.849 9.63798 10.4974 9.79458 10.3546 9.79458C10.0405 9.79458 9.35253 9.50275 9.35253 9.23823C9.35253 9.12693 9.35253 9.07515 9.37822 9.05251C9.41358 9.02135 9.49761 9.0454 9.69733 9.0454C9.85202 9.0454 10.0002 9.08421 10.1636 9.12701C10.3644 9.17961 10.5882 9.23823 10.8754 9.23823C11.2273 9.23823 11.5231 8.96648 11.7149 8.79024C11.8069 8.70566 11.8751 8.64308 11.914 8.64308C12.0339 8.64308 11.794 8.23305 11.5627 8.23305C11.4669 8.23305 11.3227 8.30336 11.1537 8.38575C10.9146 8.50233 10.6259 8.64308 10.3546 8.64308C9.89148 8.64308 9.35253 7.90447 9.35253 7.70705C9.35253 7.50962 9.60974 7.58114 10.0026 7.70705C10.3956 7.83295 10.6801 7.92334 11.5627 7.70705C12.4453 7.49076 11.914 7.17112 11.6896 7.17112H10.0026C9.35241 7.17112 9.35251 6.23154 9.35253 6.055L9.35253 6.05226C9.35253 5.91933 9.48896 5.99515 9.82233 6.18041C9.91354 6.23109 10.0195 6.28997 10.1414 6.355C10.5831 6.59058 11.1779 6.54733 11.6012 6.51655C11.7219 6.50778 11.8287 6.50001 11.914 6.50001C12.2985 6.50001 11.6896 6.05226 11.6896 6.05226C11.6896 6.05226 11.1178 6.05226 10.1414 5.63666C9.165 5.22105 9.35253 4.08513 9.35253 4.08513C9.35253 4.08513 9.64387 3.67935 9.83787 4.08513C10.0319 4.49091 11.2643 5.51264 11.6896 5.51264C11.9545 5.51264 11.9475 5.42732 11.9417 5.35603C11.9381 5.31287 11.935 5.27485 11.9929 5.26403C12.1465 5.23532 13.385 5.65352 13.385 5.65352C13.8888 5.68975 13.9665 6.43391 13.9665 6.87444C13.9665 7.31498 14.3383 7.70705 14.9107 7.70705C15.3395 7.70705 15.1666 7.06413 15.0224 6.52764C14.9741 6.34781 14.9289 6.17994 14.9107 6.05226C14.8383 5.54364 13.2554 5.24976 13.2554 5.24976C12.6954 5.16109 12.7865 4.84088 12.7865 4.84088C12.997 4.83317 13.3045 4.70644 13.3045 4.70644C13.6422 4.63049 11.914 4.46161 11.914 4.46161C11.5309 4.42642 11.6896 3.96274 11.6896 3.96274C11.6896 3.75291 11.8551 3.86464 12.0913 4.02417C12.3175 4.17692 12.6087 4.3735 12.8816 4.3735C13.4394 4.3735 12.718 3.96274 12.5172 3.96274C12.4894 3.96274 12.4767 3.96274 12.4767 3.96199C12.4764 3.95731 12.968 3.9235 13.385 3.67935C13.644 3.52773 13.8808 3.61947 14.1856 3.73757C14.4504 3.8402 14.7667 3.96274 15.1935 3.96274C15.7142 3.96274 15.7049 4.28365 15.6934 4.68487C15.6845 4.991 15.6744 5.34389 15.8972 5.63666C16.2622 6.11623 16.4321 6.20979 16.5 6.22363Z" fill="#1A1A1A"/>
</g>
<rect width="32" height="24" fill="url(#paint0_linear_230_28544)" style="mix-blend-mode:overlay"/>
</g>
<rect x="0.5" y="0.5" width="31" height="23" rx="1.5" stroke="black" stroke-opacity="0.1"/>
<defs>
<linearGradient id="paint0_linear_230_28544" x1="16" y1="0" x2="16" y2="24" gradientUnits="userSpaceOnUse">
<stop stop-color="white" stop-opacity="0.7"/>
<stop offset="1" stop-opacity="0.3"/>
</linearGradient>
<clipPath id="clip0_230_28544">
<rect width="32" height="24" rx="2" fill="white"/>
</clipPath>
</defs>
</svg>
