<svg width="32" height="24" viewBox="0 0 32 24" fill="none" xmlns="http://www.w3.org/2000/svg">
<g clip-path="url(#clip0_230_28206)">
<mask id="mask0_230_28206" style="mask-type:luminance" maskUnits="userSpaceOnUse" x="0" y="0" width="32" height="24">
<rect width="32" height="24" fill="white"/>
</mask>
<g mask="url(#mask0_230_28206)">
<path fill-rule="evenodd" clip-rule="evenodd" d="M0 0V24H32V0H0Z" fill="#AF0100"/>
<mask id="mask1_230_28206" style="mask-type:luminance" maskUnits="userSpaceOnUse" x="0" y="0" width="32" height="24">
<path fill-rule="evenodd" clip-rule="evenodd" d="M0 0V24H32V0H0Z" fill="white"/>
</mask>
<g mask="url(#mask1_230_28206)">
<path fill-rule="evenodd" clip-rule="evenodd" d="M21.0293 11.0427L29.918 11.0427V20.0326C29.918 20.0326 29.6421 21.2702 27.9311 22.0874C26.22 22.9045 25.4737 22.9045 25.4737 22.9045C25.4737 22.9045 22.7482 22.2349 22.1847 21.6078C21.6212 20.9806 21.0293 20.7487 21.0293 19.6525C21.0293 18.5562 21.0293 11.0427 21.0293 11.0427Z" fill="white"/>
<mask id="mask2_230_28206" style="mask-type:luminance" maskUnits="userSpaceOnUse" x="21" y="11" width="9" height="12">
<path fill-rule="evenodd" clip-rule="evenodd" d="M21.0293 11.0427L29.918 11.0427V20.0326C29.918 20.0326 29.6421 21.2702 27.9311 22.0874C26.22 22.9045 25.4737 22.9045 25.4737 22.9045C25.4737 22.9045 22.7482 22.2349 22.1847 21.6078C21.6212 20.9806 21.0293 20.7487 21.0293 19.6525C21.0293 18.5562 21.0293 11.0427 21.0293 11.0427Z" fill="white"/>
</mask>
<g mask="url(#mask2_230_28206)">
<path fill-rule="evenodd" clip-rule="evenodd" d="M25.4554 11.57C25.4888 11.5219 25.5063 11.4758 25.5063 11.4758L25.5032 11.6262C25.535 11.6557 25.574 11.6778 25.6199 11.6778L25.8169 11.5611C25.8169 11.5611 25.7716 11.819 25.8311 11.8117C25.8311 11.8117 26.0148 11.6903 26.0877 11.7558C26.0877 11.7558 25.8738 12.0008 26.1313 12.0024C26.1313 12.0024 26.455 11.9503 26.427 12.1006C26.427 12.1006 26.1844 12.546 26.2863 12.5743L26.6868 12.5625C26.6868 12.5625 26.4184 12.796 26.4256 12.8942L26.5593 12.9992C26.5593 12.9992 26.6343 12.8146 26.6974 12.9656C26.6974 12.9656 26.7056 13.2398 26.6636 13.2398L26.3076 13.3538C26.3076 13.3538 26.2845 13.4878 26.4118 13.4878C26.4118 13.4878 26.7064 13.3631 26.7148 13.4898C26.7148 13.4898 26.676 13.6362 26.6589 13.7599C26.6589 13.7599 26.6401 14.2085 26.6373 14.2471C26.6373 14.2471 26.6606 14.2303 26.8847 14.4943C26.8847 14.4943 27.4502 14.8516 27.5538 14.7694C27.5824 14.7467 27.6011 14.7002 27.6222 14.6477C27.6777 14.5098 27.75 14.33 28.0627 14.427L28.0655 14.4279C28.4951 14.5612 28.5995 14.5936 28.4909 14.7694C28.382 14.9456 27.9685 15.3653 27.9685 15.3653L27.61 16.8034H28.3779C28.6096 16.8034 28.8224 16.8932 28.8632 17.0853C28.9041 17.2773 28.9147 17.6506 28.9147 17.6952C28.9147 17.7012 28.9137 17.7095 28.9126 17.7193C28.9053 17.7816 28.8907 17.9054 29.0741 17.9054C29.0741 17.9054 29.4414 17.9528 29.3653 17.9795C29.3653 17.9795 29.105 17.9293 29.1032 18.1584C29.1032 18.1584 29.0032 18.1879 29.0516 18.4708C29.0516 18.4708 29.2535 19.0905 29.1195 18.9628C29.1195 18.9628 28.845 18.6406 28.845 18.5033C28.845 18.5033 28.649 18.5806 28.6551 18.7825C28.6551 18.7825 28.4696 19.0307 28.4752 18.7881C28.4752 18.7881 28.7894 18.192 28.6138 18.327C28.6138 18.327 28.3863 18.8193 28.3565 18.7446L27.5125 18.5164L27.191 19.9311C27.191 19.9311 27.2766 20.1966 27.5125 20.1966C27.598 20.1966 27.6739 20.1632 27.7432 20.1327C27.865 20.0792 27.9662 20.0347 28.0627 20.1966C28.2141 20.4506 28.2815 20.4743 28.3565 20.4743C28.4314 20.4743 28.519 20.5717 28.4752 20.7207C28.4314 20.8697 28.2347 20.9818 28.1487 20.9818C28.1171 20.9818 28.1255 21.0087 28.136 21.0427C28.1542 21.1011 28.1789 21.1805 28.0187 21.1805C27.8917 21.1805 27.8282 21.1653 27.7648 21.1501C27.7016 21.135 27.6384 21.1199 27.5125 21.1199C27.483 21.1199 27.4537 21.1202 27.4249 21.1205C27.2082 21.123 27.024 21.1251 27.024 20.9818C27.024 20.8428 26.857 20.7197 26.7092 20.6108C26.6844 20.5925 26.6601 20.5746 26.6373 20.5571C26.4783 20.4354 26.1313 19.0592 26.1313 19.0592L25.475 14.926L25.4554 13.9667L25.4358 14.926L24.7796 19.0592C24.7796 19.0592 24.4326 20.4354 24.2735 20.5571C24.2507 20.5746 24.2265 20.5925 24.2017 20.6107C24.0538 20.7197 23.8868 20.8428 23.8868 20.9818C23.8868 21.1251 23.7026 21.123 23.4859 21.1205C23.4572 21.1202 23.4279 21.1199 23.3984 21.1199C23.2725 21.1199 23.2093 21.135 23.146 21.1501C23.0826 21.1653 23.0191 21.1805 22.8922 21.1805C22.7319 21.1805 22.7566 21.1011 22.7748 21.0427C22.7854 21.0087 22.7938 20.9818 22.7621 20.9818C22.6761 20.9818 22.4794 20.8697 22.4356 20.7207C22.3919 20.5717 22.4794 20.4743 22.5544 20.4743C22.6294 20.4743 22.6967 20.4506 22.8481 20.1966C22.9446 20.0347 23.0459 20.0792 23.1677 20.1327C23.2369 20.1632 23.3129 20.1966 23.3984 20.1966C23.6343 20.1966 23.7199 19.9311 23.7199 19.9311L23.3984 18.5164L22.5544 18.7446C22.5245 18.8193 22.297 18.327 22.297 18.327C22.1214 18.192 22.4356 18.7881 22.4356 18.7881C22.4413 19.0307 22.2558 18.7825 22.2558 18.7825C22.2618 18.5806 22.0659 18.5033 22.0659 18.5033C22.0659 18.6406 21.7913 18.9628 21.7913 18.9628C21.6573 19.0905 21.8593 18.4708 21.8593 18.4708C21.9077 18.1879 21.8077 18.1584 21.8077 18.1584C21.8059 17.9293 21.5455 17.9795 21.5455 17.9795C21.4694 17.9528 21.8367 17.9054 21.8367 17.9054C22.0202 17.9054 22.0056 17.7816 21.9983 17.7193C21.9971 17.7095 21.9961 17.7012 21.9961 17.6952C21.9961 17.6506 22.0068 17.2773 22.0476 17.0853C22.0884 16.8932 22.3013 16.8034 22.5329 16.8034H23.3008L22.9423 15.3653C22.9423 15.3653 22.5288 14.9456 22.42 14.7694C22.3114 14.5936 22.4158 14.5612 22.8453 14.4279L22.8481 14.427C23.1608 14.33 23.2332 14.5098 23.2886 14.6477C23.3098 14.7002 23.3284 14.7467 23.357 14.7694C23.4607 14.8516 24.0261 14.4943 24.0261 14.4943C24.2502 14.2303 24.2735 14.2471 24.2735 14.2471C24.2707 14.2085 24.252 13.7599 24.252 13.7599C24.2349 13.6362 24.196 13.4898 24.196 13.4898C24.2044 13.3631 24.499 13.4878 24.499 13.4878C24.6263 13.4878 24.6033 13.3538 24.6033 13.3538L24.2472 13.2398C24.2053 13.2398 24.2135 12.9656 24.2135 12.9656C24.2766 12.8146 24.3516 12.9992 24.3516 12.9992L24.4852 12.8942C24.4924 12.796 24.224 12.5625 24.224 12.5625L24.6245 12.5743C24.7265 12.546 24.4839 12.1006 24.4839 12.1006C24.4559 11.9503 24.7796 12.0024 24.7796 12.0024C25.0371 12.0008 24.8232 11.7558 24.8232 11.7558C24.896 11.6903 25.0797 11.8117 25.0797 11.8117C25.1393 11.819 25.0939 11.5611 25.0939 11.5611L25.291 11.6778C25.3368 11.6778 25.3759 11.6557 25.4076 11.6262L25.4046 11.4758C25.4046 11.4758 25.4221 11.5219 25.4554 11.57Z" fill="#CF142B"/>
<path fill-rule="evenodd" clip-rule="evenodd" d="M21.2216 20L20.8945 19.6786V23.3214H24.7666H26.1271H29.9992V19.6786L29.6721 20C29.7211 19.6158 29.6469 19.7393 29.5582 19.887C29.5163 19.9569 29.4711 20.0321 29.4342 20.0615C29.3994 20.0892 29.3915 19.9769 29.3838 19.8669C29.3769 19.7696 29.3702 19.674 29.3451 19.6786C29.3451 19.6786 29.246 19.5206 29.1852 19.5804C29.1731 19.5923 29.164 19.6803 29.1538 19.7798C29.1427 19.8873 29.1302 20.0083 29.111 20.0615C29.0885 20.1235 29.0181 20 29.0181 20C29.0181 20 29.0216 19.5332 28.9501 19.4629C28.8786 19.3926 28.8715 20 28.8715 20C28.8715 20 28.7619 19.5501 28.6514 19.5804C28.6328 19.5855 28.6231 19.7031 28.6127 19.8297C28.6026 19.9528 28.5918 20.0843 28.5714 20.1289C28.5297 20.2204 28.4319 19.5804 28.4319 19.5804C28.4319 19.5804 28.4028 20.1046 28.305 20.1289C28.2887 20.133 28.2736 20.0482 28.2569 19.9547C28.2409 19.8648 28.2234 19.7669 28.202 19.7314C28.1568 19.6565 27.9436 19.9495 27.9436 19.9495L27.7946 19.3447L27.3829 19.6786H26.1271H24.7666H23.5108L23.0991 19.3447L22.9501 19.9495C22.9501 19.9495 22.7369 19.6565 22.6917 19.7314C22.6703 19.7669 22.6528 19.8648 22.6368 19.9547C22.6201 20.0482 22.605 20.133 22.5887 20.1289C22.4909 20.1046 22.4619 19.5804 22.4619 19.5804C22.4619 19.5804 22.364 20.2204 22.3223 20.1289C22.3019 20.0843 22.2911 19.9528 22.281 19.8297C22.2706 19.7031 22.2609 19.5855 22.2423 19.5804C22.1318 19.5501 22.0222 20 22.0222 20C22.0222 20 22.0151 19.3926 21.9436 19.4629C21.8721 19.5332 21.8756 20 21.8756 20C21.8756 20 21.8052 20.1235 21.7828 20.0615C21.7635 20.0083 21.751 19.8873 21.7399 19.7798C21.7297 19.6803 21.7206 19.5923 21.7085 19.5804C21.6477 19.5206 21.5486 19.6786 21.5486 19.6786C21.5236 19.674 21.5168 19.7696 21.51 19.8669C21.5022 19.9769 21.4943 20.0892 21.4595 20.0615C21.4226 20.0321 21.3774 19.9569 21.3355 19.887C21.2468 19.7393 21.1726 19.6158 21.2216 20Z" fill="#5DC852"/>
<path fill-rule="evenodd" clip-rule="evenodd" d="M28.1785 14.94C28.1785 14.94 28.2214 15.0503 28.1785 15.1591V14.94ZM25.4841 14.7626C25.5577 14.7737 25.6239 14.7916 25.6804 14.8069C25.8122 14.8425 25.8916 14.864 25.8916 14.752C25.8916 14.6703 26.1078 14.776 26.406 14.9216C26.7946 15.1114 27.3222 15.3691 27.6919 15.3691C28.014 15.3691 28.1368 15.2648 28.1785 15.1591V15.5843C28.1785 15.6602 28.1952 15.7503 28.211 15.835C28.2398 15.9904 28.2653 16.1278 28.1785 16.1278C28.0445 16.1278 27.444 16.5501 27.444 17.0365C27.444 17.5229 28.1785 17.9225 28.1785 17.9225C28.1785 17.9225 27.6919 19.6349 27.2663 19.8965C27.008 20.0553 26.8548 19.925 26.7743 19.8565C26.7222 19.8121 26.7005 19.7937 26.7005 19.8965C26.7005 20.1581 26.3315 20.5271 25.8916 20.6727C25.6071 20.7669 25.6905 20.8391 25.785 20.921C25.8366 20.9657 25.8916 21.0134 25.8916 21.069C25.8916 21.1949 25.5445 21.0189 25.4052 20.9432C25.2659 21.0189 24.9188 21.1949 24.9188 21.069C24.9188 21.0134 24.9738 20.9657 25.0254 20.921C25.1199 20.8391 25.2033 20.7669 24.9188 20.6727C24.4788 20.5271 24.1099 20.1581 24.1099 19.8965C24.1099 19.7937 24.0882 19.8121 24.0361 19.8565C23.9556 19.925 23.8024 20.0553 23.5441 19.8965C23.1184 19.6349 22.6319 17.9225 22.6319 17.9225C22.6319 17.9225 23.3664 17.5229 23.3664 17.0365C23.3664 16.5501 22.7659 16.1278 22.6319 16.1278C22.5451 16.1278 22.5706 15.9904 22.5994 15.835C22.6151 15.7503 22.6319 15.6602 22.6319 15.5843V15.1591C22.6736 15.2648 22.7963 15.3691 23.1184 15.3691C23.4881 15.3691 24.0158 15.1114 24.4044 14.9216C24.7026 14.776 24.9188 14.6703 24.9188 14.752C24.9188 14.864 24.9982 14.8425 25.13 14.8069C25.1865 14.7916 25.2526 14.7737 25.3263 14.7626C25.3333 14.7556 25.3406 14.752 25.3484 14.752C25.3677 14.752 25.3866 14.7526 25.4052 14.7539C25.4238 14.7526 25.4427 14.752 25.462 14.752C25.4697 14.752 25.4771 14.7556 25.4841 14.7626ZM22.6319 14.94C22.6319 14.94 22.5889 15.0503 22.6319 15.1591V14.94Z" fill="#4ABCE6"/>
<mask id="mask3_230_28206" style="mask-type:luminance" maskUnits="userSpaceOnUse" x="22" y="14" width="7" height="8">
<path fill-rule="evenodd" clip-rule="evenodd" d="M28.1785 14.94C28.1785 14.94 28.2214 15.0503 28.1785 15.1591V14.94ZM25.4841 14.7626C25.5577 14.7737 25.6239 14.7916 25.6804 14.8069C25.8122 14.8425 25.8916 14.864 25.8916 14.752C25.8916 14.6703 26.1078 14.776 26.406 14.9216C26.7946 15.1114 27.3222 15.3691 27.6919 15.3691C28.014 15.3691 28.1368 15.2648 28.1785 15.1591V15.5843C28.1785 15.6602 28.1952 15.7503 28.211 15.835C28.2398 15.9904 28.2653 16.1278 28.1785 16.1278C28.0445 16.1278 27.444 16.5501 27.444 17.0365C27.444 17.5229 28.1785 17.9225 28.1785 17.9225C28.1785 17.9225 27.6919 19.6349 27.2663 19.8965C27.008 20.0553 26.8548 19.925 26.7743 19.8565C26.7222 19.8121 26.7005 19.7937 26.7005 19.8965C26.7005 20.1581 26.3315 20.5271 25.8916 20.6727C25.6071 20.7669 25.6905 20.8391 25.785 20.921C25.8366 20.9657 25.8916 21.0134 25.8916 21.069C25.8916 21.1949 25.5445 21.0189 25.4052 20.9432C25.2659 21.0189 24.9188 21.1949 24.9188 21.069C24.9188 21.0134 24.9738 20.9657 25.0254 20.921C25.1199 20.8391 25.2033 20.7669 24.9188 20.6727C24.4788 20.5271 24.1099 20.1581 24.1099 19.8965C24.1099 19.7937 24.0882 19.8121 24.0361 19.8565C23.9556 19.925 23.8024 20.0553 23.5441 19.8965C23.1184 19.6349 22.6319 17.9225 22.6319 17.9225C22.6319 17.9225 23.3664 17.5229 23.3664 17.0365C23.3664 16.5501 22.7659 16.1278 22.6319 16.1278C22.5451 16.1278 22.5706 15.9904 22.5994 15.835C22.6151 15.7503 22.6319 15.6602 22.6319 15.5843V15.1591C22.6736 15.2648 22.7963 15.3691 23.1184 15.3691C23.4881 15.3691 24.0158 15.1114 24.4044 14.9216C24.7026 14.776 24.9188 14.6703 24.9188 14.752C24.9188 14.864 24.9982 14.8425 25.13 14.8069C25.1865 14.7916 25.2526 14.7737 25.3263 14.7626C25.3333 14.7556 25.3406 14.752 25.3484 14.752C25.3677 14.752 25.3866 14.7526 25.4052 14.7539C25.4238 14.7526 25.4427 14.752 25.462 14.752C25.4697 14.752 25.4771 14.7556 25.4841 14.7626ZM22.6319 14.94C22.6319 14.94 22.5889 15.0503 22.6319 15.1591V14.94Z" fill="white"/>
</mask>
<g mask="url(#mask3_230_28206)">
<path fill-rule="evenodd" clip-rule="evenodd" d="M22.4629 16.8929C22.4629 16.8929 24.6495 16.6599 25.9334 16.6599C27.2174 16.6599 26.5269 16.739 27.0204 16.7943C27.5139 16.8497 28.0094 16.8929 28.0094 16.8929V21.2857H22.4629V16.8929Z" fill="white"/>
<path fill-rule="evenodd" clip-rule="evenodd" d="M22.9833 16.2727C22.9833 16.2727 22.8047 15.9226 23.5296 15.7973C24.2545 15.6721 24.4788 15.6194 24.7535 15.946C25.0283 16.2727 25.5866 17.6792 25.1701 18.0571C24.7535 18.435 24.4633 18.8327 24.2985 18.6944C24.1337 18.5561 24.4862 18.0571 23.6146 18.0571C22.7431 18.0571 22.4453 18.0571 22.4453 18.0571L22.9833 16.2727Z" fill="#FFDA3A"/>
<path fill-rule="evenodd" clip-rule="evenodd" d="M26.6555 16.6123L25.0927 17.0915C25.0927 17.0915 25.2343 18.1582 24.8312 18.1582C24.4281 18.1582 24.2564 15.849 24.2564 15.849H24.0898L24.6209 18.3886L24.2564 18.6245L25.3727 19.1207L27.2652 18.1582L26.6555 16.6123Z" fill="#B35A1F"/>
</g>
<path fill-rule="evenodd" clip-rule="evenodd" d="M24.4044 14.9216C24.0158 15.1114 23.4881 15.3691 23.1184 15.3691C22.86 15.3691 22.6978 15.3188 22.6319 15.2181V15.5843C22.6319 15.6602 22.6151 15.7503 22.5994 15.835C22.5706 15.9904 22.5451 16.1278 22.6319 16.1278C22.7659 16.1278 23.3664 16.5501 23.3664 17.0365C23.3664 17.3608 23.1215 17.6561 22.6319 17.9225C22.9562 19.0641 23.2603 19.7221 23.5441 19.8965C23.7724 20.0369 23.9186 19.9513 24.009 19.8791C24.0188 19.8712 24.0278 19.8635 24.0361 19.8565C24.0882 19.8121 24.1099 19.7937 24.1099 19.8965C24.1099 19.906 24.1104 19.9157 24.1119 19.9313C24.1421 20.1898 24.498 20.5334 24.9188 20.6727C25.2033 20.7669 25.1199 20.8391 25.0254 20.921C24.9738 20.9657 24.9188 21.0134 24.9188 21.069C24.9188 21.1684 25.0809 21.1267 25.4052 20.9441C25.7294 21.1267 25.8916 21.1684 25.8916 21.069C25.8916 21.0134 25.8366 20.9657 25.785 20.921C25.6905 20.8391 25.6071 20.7669 25.8916 20.6727C26.3124 20.5334 26.6682 20.1898 26.6991 19.9254C26.7 19.9157 26.7005 19.906 26.7005 19.8965C26.7005 19.7937 26.7221 19.8121 26.7767 19.8585C26.7854 19.8658 26.7949 19.8739 26.8053 19.8823C26.8918 19.9513 27.0379 20.0369 27.2663 19.8965C27.5501 19.7221 27.8541 19.0641 28.1785 17.9225C27.6888 17.6561 27.444 17.3608 27.444 17.0365C27.444 16.5501 28.0445 16.1278 28.1785 16.1278C28.2653 16.1278 28.2398 15.9904 28.211 15.835C28.1952 15.7503 28.1785 15.6602 28.1785 15.5843V15.2181C28.2238 15.1491 28.2238 15.0564 28.1785 14.94V15.2181C28.1125 15.3188 27.9503 15.3691 27.6919 15.3691C27.3222 15.3691 26.7946 15.1114 26.406 14.9216C26.1078 14.776 25.8916 14.6703 25.8916 14.752C25.8916 14.864 25.8122 14.8425 25.6804 14.8069C25.6249 14.7918 25.5602 14.7743 25.4881 14.7632C25.4798 14.7557 25.4711 14.752 25.462 14.752C25.4427 14.752 25.4238 14.7526 25.4052 14.7539C25.3866 14.7526 25.3677 14.752 25.3484 14.752C25.3393 14.752 25.3306 14.7557 25.3222 14.7632C25.2502 14.7743 25.1854 14.7918 25.13 14.8069C24.9982 14.8425 24.9188 14.864 24.9188 14.752C24.9188 14.6703 24.7026 14.776 24.4044 14.9216Z" fill="#FFD129"/>
<path fill-rule="evenodd" clip-rule="evenodd" d="M29.918 11.0427H21.0293V19.6525C21.0293 20.4978 21.3813 20.8292 21.8008 21.2242C21.9253 21.3414 22.0557 21.4642 22.1847 21.6078C22.5604 22.0259 23.6567 22.4581 25.4737 22.9045C25.9712 22.9045 26.7903 22.6322 27.9311 22.0874C29.0718 21.5426 29.7341 20.8577 29.918 20.0326V11.0427ZM21.8088 20.9395C21.3893 20.5338 21.2386 20.2392 21.2386 19.6525V11.257H29.7087V20.0078C29.5339 20.7493 28.9189 21.3791 27.8426 21.8932C26.7472 22.4163 25.9591 22.6811 25.4975 22.69C23.7379 22.2562 22.6737 21.8355 22.3388 21.4627C22.3123 21.4332 22.2851 21.4039 22.2571 21.3745C22.1872 21.301 22.1161 21.2309 22.024 21.1434C22.0289 21.1481 21.8546 20.9838 21.8088 20.9395Z" fill="black"/>
</g>
<rect width="18" height="14" fill="#2B409A"/>
<mask id="mask4_230_28206" style="mask-type:luminance" maskUnits="userSpaceOnUse" x="0" y="0" width="18" height="14">
<rect width="18" height="14" fill="white"/>
</mask>
<g mask="url(#mask4_230_28206)">
<path d="M-2.00586 12.9998L1.95509 14.737L18.0883 1.88875L20.1776 -0.69278L15.9419 -1.2734L9.36159 4.26329L4.06508 7.99372L-2.00586 12.9998Z" fill="#F7FCFF"/>
<path d="M-1.46289 14.217L0.555031 15.2251L19.428 -0.932632H16.5947L-1.46289 14.217Z" fill="#F50100"/>
<path d="M20.0039 12.9998L16.043 14.737L-0.0902405 1.88875L-2.17955 -0.69278L2.05612 -1.2734L8.63646 4.26329L13.933 7.99372L20.0039 12.9998Z" fill="#F7FCFF"/>
<path d="M19.8691 13.8733L17.8512 14.8815L9.81489 7.96351L7.43229 7.19059L-2.3802 -0.683947H0.453194L10.2602 7.00368L12.8651 7.9305L19.8691 13.8733Z" fill="#F50100"/>
<mask id="path-23-outside-1_230_28206" maskUnits="userSpaceOnUse" x="-2" y="-2" width="22" height="18" fill="black">
<rect fill="white" x="-2" y="-2" width="22" height="18"/>
<path fill-rule="evenodd" clip-rule="evenodd" d="M9.98451 0H7.98451V6H0V8H7.98451V14H9.98451V8H18V6H9.98451V0Z"/>
</mask>
<path fill-rule="evenodd" clip-rule="evenodd" d="M9.98451 0H7.98451V6H0V8H7.98451V14H9.98451V8H18V6H9.98451V0Z" fill="#F50100"/>
<path d="M7.98451 0V-1.5H6.48451V0H7.98451ZM9.98451 0H11.4845V-1.5H9.98451V0ZM7.98451 6V7.5H9.48451V6H7.98451ZM0 6V4.5H-1.5V6H0ZM0 8H-1.5V9.5H0V8ZM7.98451 8H9.48451V6.5H7.98451V8ZM7.98451 14H6.48451V15.5H7.98451V14ZM9.98451 14V15.5H11.4845V14H9.98451ZM9.98451 8V6.5H8.48451V8H9.98451ZM18 8V9.5H19.5V8H18ZM18 6H19.5V4.5H18V6ZM9.98451 6H8.48451V7.5H9.98451V6ZM7.98451 1.5H9.98451V-1.5H7.98451V1.5ZM9.48451 6V0H6.48451V6H9.48451ZM0 7.5H7.98451V4.5H0V7.5ZM1.5 8V6H-1.5V8H1.5ZM7.98451 6.5H0V9.5H7.98451V6.5ZM9.48451 14V8H6.48451V14H9.48451ZM9.98451 12.5H7.98451V15.5H9.98451V12.5ZM8.48451 8V14H11.4845V8H8.48451ZM18 6.5H9.98451V9.5H18V6.5ZM16.5 6V8H19.5V6H16.5ZM9.98451 7.5H18V4.5H9.98451V7.5ZM8.48451 0V6H11.4845V0H8.48451Z" fill="#F7FCFF" mask="url(#path-23-outside-1_230_28206)"/>
</g>
</g>
</g>
<rect width="32" height="24" fill="url(#paint0_linear_230_28206)" style="mix-blend-mode:overlay"/>
</g>
<rect x="0.5" y="0.5" width="31" height="23" rx="1.5" stroke="black" stroke-opacity="0.1"/>
<defs>
<linearGradient id="paint0_linear_230_28206" x1="16" y1="0" x2="16" y2="24" gradientUnits="userSpaceOnUse">
<stop stop-color="white" stop-opacity="0.7"/>
<stop offset="1" stop-opacity="0.3"/>
</linearGradient>
<clipPath id="clip0_230_28206">
<rect width="32" height="24" rx="2" fill="white"/>
</clipPath>
</defs>
</svg>
