<svg width="32" height="24" viewBox="0 0 32 24" fill="none" xmlns="http://www.w3.org/2000/svg">
<g clip-path="url(#clip0_230_28176)">
<mask id="mask0_230_28176" style="mask-type:luminance" maskUnits="userSpaceOnUse" x="0" y="0" width="32" height="24">
<rect width="32" height="24" fill="white"/>
</mask>
<g mask="url(#mask0_230_28176)">
<path fill-rule="evenodd" clip-rule="evenodd" d="M0 0V24H32V0H0Z" fill="#FFD221"/>
<mask id="mask1_230_28176" style="mask-type:luminance" maskUnits="userSpaceOnUse" x="0" y="0" width="32" height="24">
<path fill-rule="evenodd" clip-rule="evenodd" d="M0 0V24H32V0H0Z" fill="white"/>
</mask>
<g mask="url(#mask1_230_28176)">
<path d="M-3.06641 10.6152L-1.05842 6.03615L33.7682 21.3081L31.7603 25.8872L-3.06641 10.6152Z" fill="#313131"/>
<path d="M-3.01758 5.56952L-1.01043 0.990067L35.5482 17.0135L33.541 21.593L-3.01758 5.56952Z" fill="#FAF9F9"/>
<path fill-rule="evenodd" clip-rule="evenodd" d="M7.33107 12.3973C5.9125 10.6565 6.14966 9.47911 6.14966 9.47911C6.14966 9.47911 7.60142 9.53217 7.58523 10.4683C7.58523 10.8639 8.10595 11.2383 8.55457 11.5609C8.89405 11.805 9.19223 12.0194 9.19223 12.1908C9.19223 12.5887 9.49184 16.6006 9.49184 16.6006C9.49184 16.6006 9.28258 16.9659 8.28022 16.9659C7.27787 16.9659 7.33107 16.3885 7.33107 16.3885C7.93876 15.6434 7.33107 12.3973 7.33107 12.3973ZM24.6699 12.3973C26.0885 10.6565 25.8513 9.47911 25.8513 9.47911C25.8513 9.47911 24.3996 9.53217 24.4157 10.4683C24.4157 10.8639 23.895 11.2383 23.4464 11.5609C23.1069 11.805 22.8087 12.0194 22.8087 12.1908C22.8087 12.5887 22.5091 16.6006 22.5091 16.6006C22.5091 16.6006 22.7184 16.9659 23.7207 16.9659C24.7231 16.9659 24.6699 16.3885 24.6699 16.3885C24.0622 15.6434 24.6699 12.3973 24.6699 12.3973Z" fill="#CF1225"/>
<path fill-rule="evenodd" clip-rule="evenodd" d="M16.0602 2.87477L17.187 3.67913L16.4486 3.87641L17.187 4.51462L16.2676 4.28173V4.9265H17.187L17.4944 6.43789L17.1386 6.18555L16.7829 6.43789L16.4271 6.18555L16.0714 6.43789L15.7049 6.18555L15.3385 6.43789L14.972 6.18555L14.6055 6.43789L15.0671 4.9265H15.9177V2.87477H16.0602ZM21.0854 7.95141C21.0854 7.95141 20.742 8.25503 20.0054 7.95141C19.7594 7.84999 19.4896 7.67266 19.2082 7.48765C18.6473 7.11885 18.0399 6.71954 17.4811 6.83028C16.642 6.99657 16.2691 7.39704 16.2691 7.39704V6.47469H16.1674H16.0098H15.9081V7.39704C15.9081 7.39704 15.5352 6.99657 14.6961 6.83028C14.1374 6.71954 13.53 7.11885 12.969 7.48765C12.6876 7.67266 12.4179 7.84999 12.1718 7.95141C11.4352 8.25503 11.0918 7.95141 11.0918 7.95141C11.0918 7.95141 11.0918 8.20844 11.6394 8.60427C11.877 8.776 12.1486 8.76363 12.38 8.69459C12.2086 8.82391 12.1256 8.97583 12.3988 9.09758C12.9649 9.34987 13.8954 8.68588 13.9974 8.61105C13.8838 8.69556 12.7591 9.54137 13.2746 9.54137C13.8172 9.54137 14.6961 8.83039 14.6961 8.83039C14.6961 8.83039 13.6296 9.85371 14.2034 10.0131C14.5686 10.1146 15.0047 9.58237 15.2097 9.26708C15.2163 9.33408 15.2778 9.3751 15.3449 9.41978C15.4309 9.47703 15.5259 9.54032 15.5259 9.67205C15.5259 9.84092 15.5678 9.86991 15.6045 9.89532C15.6332 9.91515 15.6587 9.93281 15.6587 10.0131V10.2464L15.5259 10.4424C15.5259 10.4424 15.5259 10.7471 15.6587 10.9894C15.7594 11.1728 15.7076 11.3271 15.6188 11.5915C15.5903 11.6762 15.5581 11.7722 15.5259 11.884C15.3931 12.3451 15.6587 13.1326 15.6587 13.1326H15.5259C15.5259 13.1326 15.6587 13.2296 15.6587 13.6179C15.6587 13.9342 15.5707 14.1137 15.4043 14.4528C15.3664 14.5302 15.3244 14.6159 15.2784 14.7134C15.0309 15.2383 15.5259 15.9056 15.5259 15.9056C15.5259 15.9056 14.6961 15.5414 14.8625 15.9056C14.9902 16.1852 15.6913 16.4573 16.0098 16.5685V16.621C16.0098 16.621 16.039 16.612 16.0886 16.5954C16.1383 16.612 16.1674 16.621 16.1674 16.621V16.5685C16.4859 16.4573 17.187 16.1852 17.3148 15.9056C17.4811 15.5414 16.6513 15.9056 16.6513 15.9056C16.6513 15.9056 17.1464 15.2383 16.8989 14.7134C16.8529 14.6159 16.8109 14.5302 16.7729 14.4528L16.7729 14.4528C16.6066 14.1137 16.5185 13.9342 16.5185 13.6179C16.5185 13.2296 16.6513 13.1326 16.6513 13.1326H16.5185C16.5185 13.1326 16.7842 12.3451 16.6513 11.884C16.6191 11.7722 16.5869 11.6762 16.5585 11.5915C16.4697 11.3271 16.4179 11.1728 16.5185 10.9894C16.6513 10.7471 16.6513 10.4424 16.6513 10.4424L16.5185 10.2464V10.0131C16.5185 9.93281 16.544 9.91515 16.5727 9.89532C16.6094 9.86991 16.6513 9.84092 16.6513 9.67205C16.6513 9.54032 16.7464 9.47703 16.8323 9.41978C16.8994 9.3751 16.961 9.33408 16.9676 9.26708C17.1725 9.58237 17.6086 10.1146 17.9738 10.0131C18.5476 9.85371 17.4811 8.83039 17.4811 8.83039C17.4811 8.83039 18.3601 9.54137 18.9027 9.54137C19.4182 9.54137 18.2935 8.69556 18.1798 8.61105C18.2818 8.68588 19.2124 9.34987 19.7785 9.09758C20.0517 8.97583 19.9686 8.82391 19.7972 8.69459C20.0286 8.76363 20.3003 8.776 20.5379 8.60427C21.0854 8.20844 21.0854 7.95141 21.0854 7.95141ZM19.2616 8.41786C19.2616 8.41786 19.4952 8.60449 19.7972 8.69459C19.5924 8.5401 19.2616 8.41786 19.2616 8.41786ZM16.8989 9.09758C16.8089 8.97773 16.8505 9.08703 16.9676 9.26708C16.9718 9.22397 16.9533 9.1701 16.8989 9.09758ZM15.2784 9.09758C15.3684 8.97773 15.3267 9.08703 15.2097 9.26708C15.2054 9.22397 15.224 9.1701 15.2784 9.09758ZM14.0066 8.60427C14.0066 8.60427 14.0035 8.60663 13.9974 8.61105C14.0034 8.60661 14.0066 8.60427 14.0066 8.60427ZM12.9156 8.41786C12.9156 8.41786 12.6821 8.60449 12.38 8.69459C12.5848 8.5401 12.9156 8.41786 12.9156 8.41786Z" fill="#CF1225"/>
<path fill-rule="evenodd" clip-rule="evenodd" d="M11.2304 9.57806C11.2304 9.57806 10.0367 11.2017 10.1696 12.9365C10.3024 14.6713 11.7178 18.7074 15.9168 18.7074C15.9529 18.7074 15.9888 18.7065 16.0245 18.7065C20.4739 18.7065 21.7369 14.2562 21.7369 12.6559C21.7369 11.0417 20.7302 9.57806 20.7302 9.57806C20.7302 9.57806 20.8478 11.7441 20.7302 12.6559C20.3754 15.4064 18.6426 16.6768 15.9947 16.6768C13.3304 16.6768 11.6817 15.3584 11.2304 12.6559C11.0844 11.7821 11.2304 9.57806 11.2304 9.57806Z" fill="#CF1225"/>
<path fill-rule="evenodd" clip-rule="evenodd" d="M9.06641 19.7512C9.06641 19.7512 9.28307 19.1308 9.54941 19.1308C9.81574 19.1308 9.03982 18.5923 9.54941 18.44C10.059 18.2876 10.8431 19.047 10.8431 18.2876C10.8431 17.5283 10.18 17.114 10.6673 17.114C11.1545 17.114 11.6629 16.9686 11.6629 16.9686C11.6629 16.9686 13.736 19.1308 15.8116 19.1308C17.8871 19.1308 20.383 17.114 20.383 17.114C20.383 17.114 21.3029 16.88 21.3029 17.2449C21.3029 17.6098 21.1011 18.1605 21.1011 18.1605C21.1011 18.1605 21.7457 18.0335 22.0736 18.1605C22.4016 18.2876 22.0736 18.8956 22.0736 18.8956V19.1308C22.0736 19.1308 22.9268 18.9429 22.9268 19.2791C22.9268 19.6153 22.515 19.4233 21.6803 19.5193C20.8456 19.6153 20.5289 20.2679 20.0045 20.2679C19.4802 20.2679 19.3672 19.7512 19.3672 19.7512C19.3672 19.7512 17.7423 20.632 15.8116 20.632C13.8808 20.632 12.7145 19.7512 12.7145 19.7512C12.7145 19.7512 12.8966 20.6554 12.2797 20.4616C11.6629 20.2679 11.0318 19.0389 10.2906 19.2791C9.54941 19.5193 9.06641 19.7512 9.06641 19.7512Z" fill="#CF1225"/>
<path fill-rule="evenodd" clip-rule="evenodd" d="M12.0613 16.1648C12.0978 16.1308 12.1345 16.093 12.1826 16.0408C12.3187 15.893 12.3556 15.8538 12.3835 15.8359C12.3891 15.8612 12.3929 15.9025 12.3929 15.9592C12.3929 16.3357 12.4063 16.62 12.4429 16.8177C12.4691 16.9586 12.5054 17.0498 12.5694 17.0932C12.6631 17.1566 12.7574 17.1014 12.845 16.9698C13.0453 16.6687 13.4222 16.6315 13.4222 16.7464C13.4222 16.7762 13.4105 16.8085 13.3373 16.9878C13.3246 17.0187 13.3146 17.0438 13.3054 17.0682C13.254 17.2035 13.2311 17.3014 13.2422 17.3866C13.2588 17.5137 13.3525 17.5852 13.5042 17.5852C13.6729 17.5852 13.7837 17.4761 13.9063 17.261C13.9182 17.24 13.9503 17.1816 13.9639 17.1568L13.964 17.1566L13.9641 17.1566L13.9701 17.1456C13.9925 17.1054 14.009 17.0782 14.0241 17.0572C14.0688 16.9949 14.0785 16.9997 14.1775 17.2336C14.2036 17.2953 14.2571 17.4252 14.3034 17.5377C14.34 17.6265 14.3721 17.7045 14.3827 17.7294C14.4478 17.8822 14.4933 17.9723 14.5413 18.0353C14.6515 18.1801 14.7831 18.179 14.9402 18.0446C14.9713 18.018 15.0061 17.9917 15.0462 17.9641C15.0671 17.9497 15.117 17.9176 15.1646 17.887L15.1646 17.887C15.2098 17.8579 15.253 17.8301 15.2676 17.8199C15.3587 17.7563 15.404 17.7061 15.4031 17.6321C15.402 17.5386 15.3239 17.4799 15.1683 17.422C15.1374 17.4106 15.1135 17.3997 15.0962 17.3918L15.0961 17.3917L15.0961 17.3917C15.0834 17.386 15.0742 17.3818 15.0684 17.3802C15.0723 17.3795 15.078 17.3766 15.0869 17.3721L15.0947 17.3682C15.1923 17.3197 15.3894 17.2842 15.5653 17.2842L15.5663 17.2842C15.5745 17.2842 15.5795 17.2842 15.5824 17.2867C15.5867 17.2903 15.5865 17.2994 15.586 17.3221L15.5859 17.3246C15.5847 17.3776 15.5733 17.4289 15.5298 17.5919L15.5149 17.6489C15.4657 17.8402 15.452 17.956 15.4858 18.0557C15.5354 18.2019 15.6764 18.2527 15.8954 18.2093C16.1917 18.1507 16.336 18.033 16.3737 17.8527C16.3831 17.8075 16.385 17.773 16.3851 17.7024C16.3853 17.5862 16.3859 17.5852 16.4852 17.5852C16.6264 17.5852 16.6823 17.6353 16.7417 17.7743C16.7469 17.7865 16.7522 17.7992 16.7629 17.8252C16.8319 17.9917 16.896 18.0641 17.0405 18.0641C17.137 18.0641 17.2042 18.0235 17.1923 17.9299C17.1893 17.9061 17.1812 17.8851 17.1667 17.8558L17.1551 17.833L17.1551 17.833C17.1474 17.8179 17.1381 17.8 17.1344 17.7925C17.0448 17.609 17.0803 17.469 17.3888 17.2715C17.4768 17.2151 17.613 17.1197 17.7309 17.0371L17.7309 17.0371L17.7309 17.037L17.731 17.037C17.8159 16.9775 17.8913 16.9246 17.9326 16.8977C17.9359 16.9228 17.9383 16.9572 17.9405 17.0073C17.9414 17.0271 17.9436 17.0891 17.9454 17.1392L17.9478 17.2035C17.9609 17.5383 18.0306 17.8448 18.1321 17.9692C18.3042 18.1799 18.4703 17.9852 18.5833 17.5215C18.6914 17.0779 18.8457 16.6596 18.9961 16.4057C19.0698 16.2813 19.1389 16.2033 19.1914 16.1796C19.2263 16.1639 19.2509 16.1751 19.287 16.2407C19.4229 16.4874 19.6319 16.7163 19.8086 16.7844C20.0709 16.8854 20.2266 16.6726 20.2266 16.1993C20.2266 15.8025 20.291 15.4861 20.3976 15.242C20.4343 15.158 20.4732 15.0893 20.5117 15.0347C20.5338 15.0034 20.55 14.9845 20.5576 14.977L20.4444 14.8554C20.3924 14.9064 20.3193 15.0099 20.248 15.1732C20.1318 15.4392 20.0626 15.7791 20.0626 16.1993C20.0626 16.5736 19.989 16.6742 19.8663 16.6269C19.7329 16.5755 19.5484 16.3735 19.4297 16.158C19.3552 16.0226 19.2445 15.972 19.1255 16.0256C19.0345 16.0666 18.9457 16.1669 18.856 16.3184C18.6959 16.5887 18.5361 17.022 18.4243 17.4807C18.3757 17.6801 18.3252 17.807 18.2578 17.8612C18.1862 17.7735 18.1234 17.4969 18.1116 17.1968L18.1093 17.134L18.1093 17.1338C18.1075 17.0835 18.1052 17.0203 18.1043 16.9997C18.1015 16.9369 18.0983 16.8953 18.0931 16.8616C18.0765 16.7538 18.022 16.6903 17.9239 16.716C17.8854 16.7261 17.7005 16.8546 17.5341 16.9703L17.5341 16.9703C17.4414 17.0347 17.3545 17.0951 17.302 17.1288C16.9206 17.373 16.8609 17.608 16.9879 17.8679L16.9981 17.888C16.9676 17.8739 16.9464 17.838 16.9137 17.7593C16.9033 17.7339 16.8975 17.72 16.8919 17.7067C16.8089 17.5127 16.7021 17.417 16.4852 17.417C16.2765 17.417 16.2214 17.5046 16.2212 17.7022C16.2211 17.7611 16.2197 17.7874 16.2134 17.8174C16.1911 17.9241 16.1014 17.9973 15.8644 18.0442C15.7162 18.0735 15.6584 18.0526 15.6406 18.0004C15.6216 17.9442 15.6327 17.8499 15.6734 17.6918L15.688 17.6362C15.736 17.4558 15.7482 17.4016 15.7498 17.3284C15.7526 17.2016 15.6906 17.116 15.5653 17.116C15.3667 17.116 15.1462 17.1557 15.0232 17.2168C14.8214 17.3171 14.8614 17.4868 15.1124 17.5802C15.1617 17.5985 15.1943 17.6142 15.2141 17.6237L15.2141 17.6237C15.2281 17.6305 15.2357 17.6341 15.2382 17.6334C15.2364 17.6338 15.2318 17.6375 15.2241 17.6438C15.2138 17.6521 15.1979 17.6651 15.1753 17.6809C15.1634 17.6892 15.1256 17.7135 15.0837 17.7404L15.0836 17.7405L15.0836 17.7405L15.0836 17.7405L15.0834 17.7406C15.0339 17.7724 14.9789 17.8078 14.9549 17.8244C14.9103 17.855 14.8711 17.8847 14.8352 17.9153C14.7435 17.9938 14.7179 17.994 14.6705 17.9318C14.6336 17.8833 14.5927 17.8023 14.533 17.6621C14.5228 17.6381 14.4914 17.5618 14.4553 17.4743C14.4088 17.3613 14.3545 17.2295 14.3278 17.1666C14.1869 16.8336 14.0346 16.7587 13.8921 16.9574C13.8724 16.9849 13.8531 17.0167 13.8278 17.0621L13.8203 17.0757C13.806 17.1017 13.7757 17.1568 13.7647 17.1761C13.6697 17.3429 13.5944 17.417 13.5042 17.417C13.4297 17.417 13.4096 17.4016 13.4047 17.3642C13.3984 17.316 13.4164 17.2392 13.4581 17.1293C13.4668 17.1064 13.4763 17.0826 13.4885 17.0528C13.5797 16.8293 13.5861 16.8116 13.5861 16.7464C13.5861 16.4053 12.9823 16.4649 12.7096 16.8749C12.6864 16.9098 12.6666 16.9326 12.652 16.9439C12.638 16.9223 12.619 16.8673 12.604 16.7862C12.5699 16.6023 12.5568 16.3253 12.5568 15.9592C12.5568 15.7273 12.4872 15.6046 12.3373 15.6715C12.2696 15.7017 12.267 15.7043 12.0634 15.9253C12.018 15.9746 11.9839 16.0097 11.9511 16.0403C11.9087 16.0798 11.872 16.1079 11.8404 16.1245C11.7939 16.1491 11.776 16.1339 11.7508 16.0255C11.7248 15.9131 11.7162 15.7545 11.7163 15.4903L11.7167 15.3796L11.717 15.2655C11.717 15.078 11.6668 14.973 11.5444 14.973C11.5025 14.973 11.4604 14.9872 11.4071 15.0143C11.3885 15.0238 11.3689 15.0346 11.3428 15.0497L11.3328 15.0555L11.277 15.0878C11.1641 15.1522 11.0892 15.1814 11.0187 15.1814C11.0055 15.1814 10.9979 15.1835 10.9944 15.1845L10.9944 15.1845C10.993 15.1848 10.9923 15.185 10.9922 15.1848C10.992 15.1846 10.9926 15.184 10.9937 15.1826C10.9967 15.179 11.004 15.1703 11.0135 15.1515C11.0601 15.0601 11.1853 14.9124 11.3867 14.7145L11.2733 14.593C11.0596 14.803 10.9254 14.9612 10.8682 15.0737C10.7891 15.2292 10.8504 15.3497 11.0187 15.3497C11.1251 15.3497 11.2209 15.3123 11.3567 15.2348C11.5137 15.1452 11.5215 15.1412 11.5444 15.1412C11.5444 15.1412 11.553 15.1592 11.553 15.2655L11.5527 15.3789L11.5524 15.4903C11.5523 15.7679 11.5613 15.9348 11.5914 16.0645C11.6377 16.2641 11.7511 16.3608 11.9154 16.2741C11.9617 16.2497 12.0092 16.2134 12.0613 16.1648ZM12.4007 15.8257C12.4019 15.8259 12.4028 15.8259 12.4032 15.8257L12.4007 15.8257ZM15.0635 17.3723C15.0606 17.3703 15.0591 17.3691 15.0591 17.3689C15.0607 17.3759 15.0622 17.38 15.0648 17.3818L15.0635 17.3723ZM17.9647 16.879L17.9629 16.8794L17.9641 16.8792L17.9647 16.879Z" fill="#F6E017"/>
<path fill-rule="evenodd" clip-rule="evenodd" d="M13.8327 19.7503C13.76 19.9465 13.6453 20.0114 13.5157 19.9134C13.4763 19.8836 13.438 19.8411 13.3847 19.7726L13.3727 19.7569C13.3443 19.7195 13.2736 19.6266 13.2476 19.5942C13.136 19.4553 13.0398 19.3683 12.9353 19.3238L12.9258 19.3197L12.9257 19.3197C12.7984 19.2654 12.771 19.2537 12.7441 19.241L12.7148 19.2268C12.5616 19.152 12.4742 19.0745 12.39 18.9296C12.3241 18.8162 12.2604 18.6626 12.1523 18.3657L12.3059 18.3069C12.4105 18.5944 12.4717 18.7416 12.5308 18.8434C12.5975 18.9584 12.6601 19.0138 12.7853 19.0749L12.8114 19.0876C12.837 19.0997 12.8631 19.1109 12.9893 19.1646L12.9893 19.1646L12.9982 19.1684C13.1329 19.2258 13.2469 19.3289 13.3741 19.4872C13.4025 19.5226 13.4784 19.6224 13.5042 19.6563L13.5042 19.6563L13.5128 19.6676C13.5576 19.7253 13.5885 19.7594 13.613 19.778C13.6263 19.788 13.627 19.7887 13.6253 19.7898C13.6367 19.7828 13.6569 19.7513 13.6795 19.6905C13.7298 19.5548 13.6856 19.4498 13.5634 19.3403C13.5589 19.3363 13.5464 19.3263 13.53 19.3131L13.53 19.3131L13.53 19.3131L13.53 19.3131C13.4831 19.2756 13.4046 19.2126 13.3901 19.1911C13.3435 19.1218 13.3834 19.0514 13.4554 19.0323C13.4878 19.0237 13.5356 19.0205 13.6121 19.0205C13.8768 19.0205 13.9496 19.176 13.9987 19.5736L13.9995 19.5802C14.0382 19.8936 14.0773 19.9797 14.2111 19.9797C14.362 19.9797 14.4539 19.9196 14.6144 19.7482L14.6495 19.7107C14.854 19.493 14.9972 19.4198 15.2377 19.4864C15.4298 19.5396 15.512 19.6341 15.5313 19.7806C15.5334 19.7969 15.5345 19.8087 15.5366 19.8366C15.546 19.9601 15.5678 19.9797 15.8068 19.9797C15.9882 19.9797 16.1569 19.9893 16.377 20.0088L16.4036 20.0112C16.4552 20.0159 16.5649 20.0259 16.5979 20.0286C16.6695 20.0345 16.7204 20.0373 16.7606 20.0373C16.7892 20.0373 16.8112 20.0358 16.8263 20.0332C16.8325 19.985 16.8609 19.9511 16.9758 19.821C16.9891 19.806 16.9993 19.7942 17.0088 19.7829C17.0625 19.7196 17.0862 19.6772 17.0847 19.6704C17.0845 19.6691 17.0364 19.6518 16.9067 19.6518C16.7876 19.6518 16.728 19.6369 16.7172 19.5529C16.7082 19.4826 16.7488 19.4486 16.8389 19.4007C16.942 19.3459 17.13 19.2746 17.3555 19.2028C17.5726 19.1336 17.8018 19.0714 17.9761 19.0349C18.0704 19.0151 18.1471 19.0031 18.203 18.9999C18.3096 18.9939 18.373 19.0087 18.373 19.1046C18.373 19.1447 18.4855 19.2821 18.5977 19.3445C18.7317 19.4191 18.8268 19.3908 18.8925 19.2159C18.9883 18.9605 19.1881 18.6847 19.3828 18.5268C19.4873 18.4421 19.5835 18.3965 19.6666 18.404C19.7789 18.4141 19.8376 18.5105 19.8376 18.6561H19.6736C19.6736 18.5878 19.6644 18.5726 19.6523 18.5715C19.6214 18.5688 19.559 18.5983 19.4845 18.6588C19.3126 18.7982 19.1307 19.0493 19.0455 19.2763C18.9422 19.5516 18.7361 19.6129 18.5196 19.4924C18.3869 19.4186 18.26 19.2785 18.2211 19.1675C18.1657 19.1705 18.096 19.1814 18.009 19.1997C17.8403 19.2351 17.6163 19.2958 17.4041 19.3634C17.2636 19.4082 17.1383 19.4527 17.0424 19.4918C17.1594 19.5086 17.2271 19.5521 17.2448 19.634C17.2625 19.7158 17.2226 19.787 17.1326 19.8933C17.1222 19.9056 17.1112 19.9181 17.0973 19.934C17.0179 20.0238 16.9887 20.0622 16.9887 20.0638C16.9887 20.1749 16.9042 20.2055 16.7606 20.2055C16.715 20.2055 16.6604 20.2025 16.5848 20.1963C16.5509 20.1935 16.439 20.1833 16.3881 20.1787L16.3629 20.1764C16.1471 20.1573 15.9826 20.1479 15.8068 20.1479C15.484 20.1479 15.3893 20.0627 15.3732 19.8496C15.3713 19.825 15.3704 19.8152 15.3688 19.8031C15.3584 19.7243 15.3239 19.6845 15.195 19.6489C15.0269 19.6023 14.9348 19.6494 14.7675 19.8274L14.7326 19.8648C14.5437 20.0665 14.4192 20.1479 14.2111 20.1479C13.9757 20.1479 13.8986 20.022 13.8497 19.6963C13.8452 19.714 13.8395 19.732 13.8327 19.7503ZM13.8464 19.6013L13.8454 19.5948C13.8299 19.4916 13.8139 19.4125 13.7935 19.3527C13.8745 19.4552 13.9027 19.5681 13.8621 19.6963C13.8566 19.6664 13.8514 19.6347 13.8464 19.6013ZM16.8453 19.4791L16.8493 19.4804L16.8473 19.4796L16.8453 19.4791ZM16.8421 20.0295L16.838 20.0308L16.8407 20.0302L16.8421 20.0295Z" fill="#F6E017"/>
</g>
</g>
<rect width="32" height="24" fill="url(#paint0_linear_230_28176)" style="mix-blend-mode:overlay"/>
</g>
<rect x="0.5" y="0.5" width="31" height="23" rx="1.5" stroke="black" stroke-opacity="0.1"/>
<defs>
<linearGradient id="paint0_linear_230_28176" x1="16" y1="0" x2="16" y2="24" gradientUnits="userSpaceOnUse">
<stop stop-color="white" stop-opacity="0.7"/>
<stop offset="1" stop-opacity="0.3"/>
</linearGradient>
<clipPath id="clip0_230_28176">
<rect width="32" height="24" rx="2" fill="white"/>
</clipPath>
</defs>
</svg>
