<svg width="32" height="24" viewBox="0 0 32 24" fill="none" xmlns="http://www.w3.org/2000/svg">
<g clip-path="url(#clip0_230_24397)">
<mask id="mask0_230_24397" style="mask-type:luminance" maskUnits="userSpaceOnUse" x="0" y="0" width="32" height="24">
<rect width="32" height="24" fill="white"/>
</mask>
<g mask="url(#mask0_230_24397)">
<rect width="32" height="24" rx="2" fill="#E11C1B"/>
<path fill-rule="evenodd" clip-rule="evenodd" d="M0 0L32 24H0V0Z" fill="#1D1D1D"/>
<path fill-rule="evenodd" clip-rule="evenodd" d="M7.08398 18.2684H8.4158L9.04919 16.7751L9.79367 18.2584L11.1582 18.333L9.99206 19.6023L10.5908 21.1313L9.10855 20.2802L7.73977 21.1389L8.2561 19.6543L7.08398 18.2684Z" fill="#EEEEF6"/>
<path fill-rule="evenodd" clip-rule="evenodd" d="M3.08398 14.2684H4.4158L5.04919 12.7751L5.79367 14.2584L7.15819 14.333L5.99206 15.6023L6.59082 17.1313L5.10855 16.2802L3.73977 17.1389L4.2561 15.6543L3.08398 14.2684Z" fill="#EEEEF6"/>
<path fill-rule="evenodd" clip-rule="evenodd" d="M7.08398 12.2684H8.4158L9.04919 10.7751L9.79367 12.2584L11.1582 12.333L9.99206 13.6023L10.5908 15.1313L9.10855 14.2802L7.73977 15.1389L8.2561 13.6543L7.08398 12.2684Z" fill="#EEEEF6"/>
<path fill-rule="evenodd" clip-rule="evenodd" d="M9.71094 16.5642L10.6264 16.5338L10.9569 15.5896L11.3279 16.5288L12.1703 16.6097L11.4117 17.1461L12.0235 18.0959L10.9621 17.6988L10.0421 18.1086L10.5279 17.1722L9.71094 16.5642Z" fill="#EEEEF6"/>
<path fill-rule="evenodd" clip-rule="evenodd" d="M11.7109 14.5642L12.6264 14.5338L12.9569 13.5896L13.3279 14.5288L14.1703 14.6097L13.4117 15.1461L14.0235 16.0959L12.9621 15.6988L12.0421 16.1086L12.5279 15.1722L11.7109 14.5642Z" fill="#EEEEF6"/>
<path fill-rule="evenodd" clip-rule="evenodd" d="M21.0839 2C21.0839 2 17.9951 2.6162 18.862 6.90985H18.4213C18.4213 6.90985 18.4574 6.6858 18.0337 6.55443C17.61 6.42306 17.6949 6.47238 17.4763 6.55443C17.2576 6.63648 15.9275 6.55443 15.9275 6.55443V6.71879L16.8688 7.12531C16.8688 7.12531 16.8456 7.4638 17.2391 7.65137C17.6326 7.83894 17.9183 7.92933 17.9183 7.92933C17.9183 7.92933 17.9766 8.30286 17.6078 8.30286C17.2391 8.30286 15.756 7.82211 15.2285 9.00323C14.701 10.1844 14 11.051 14 11.051H14.7909L14.5787 11.3147H15.4693L15.2285 11.4514C15.2285 11.4514 16.3303 11.4391 16.4162 11.3147C16.5021 11.1903 16.4162 11.6519 16.4162 11.6519C16.4162 11.6519 17.4835 11.1646 17.5419 11.051L18.0401 11.3927L18.182 10.8144L18.7165 11.051L18.862 10.5C18.862 10.5 20.3741 13.0288 21.5209 12.8836V12.4639L22.5675 12.8836L22.7004 12.697C22.7004 12.697 23.9647 13.2125 24.3538 13.2603L24.0762 12.697H24.3538L24.0762 11.6519H24.3538L23.7986 10.8144L23.9541 10.5876L23.8512 10.2896C23.8512 10.2896 25.8867 10.938 25.7949 11.9697C25.7031 13.0013 24.7965 13.4176 24.7965 13.4176C24.7965 13.4176 23.9272 13.6839 23.142 13.6266C23.142 13.6266 23.7653 14.3629 25.0841 14.1134C26.403 13.8639 26.84 12.5852 26.84 12.5852C26.84 12.5852 27.4447 13.8412 26.9469 14.5016C26.4491 15.162 24.2326 15.6257 24.2326 15.6257C24.2326 15.6257 25.0345 16.0959 25.7949 15.9754C26.5552 15.8549 27.7377 15.1932 27.9669 14.1134C28.1961 13.0336 27.1761 11.0412 26.714 10.8144L26.5314 10.1231L26.9469 10.2896L26.0945 8.20516L26.5078 8.29571L25.3019 6.79557L25.6339 6.69328L23.9678 5.49566L24.4664 5.36395C24.4664 5.36395 23.2349 4.73985 21.8301 5.49566L21.8433 5.23454L21.4742 5.29695L21.4961 5.00973L21.863 4.45382L21.3121 4.24159C21.3121 4.24159 21.7574 3.57267 21.6906 3.58186C21.6906 3.58186 21.1943 3.72428 21.2225 3.66459C21.2225 3.66459 21.4729 3.01991 21.407 3.03717C21.407 3.03717 20.8315 3.2329 20.9166 3.13495L21.1378 2.7411L21.0839 2Z" fill="#FBCD17"/>
</g>
<rect width="32" height="24" fill="url(#paint0_linear_230_24397)" style="mix-blend-mode:overlay"/>
</g>
<rect x="0.5" y="0.5" width="31" height="23" rx="1.5" stroke="black" stroke-opacity="0.1"/>
<defs>
<linearGradient id="paint0_linear_230_24397" x1="16" y1="0" x2="16" y2="24" gradientUnits="userSpaceOnUse">
<stop stop-color="white" stop-opacity="0.7"/>
<stop offset="1" stop-opacity="0.3"/>
</linearGradient>
<clipPath id="clip0_230_24397">
<rect width="32" height="24" rx="2" fill="white"/>
</clipPath>
</defs>
</svg>
