<svg width="32" height="24" viewBox="0 0 32 24" fill="none" xmlns="http://www.w3.org/2000/svg">
<g clip-path="url(#clip0_230_24411)">
<mask id="mask0_230_24411" style="mask-type:luminance" maskUnits="userSpaceOnUse" x="0" y="0" width="32" height="24">
<rect width="32" height="24" fill="white"/>
</mask>
<g mask="url(#mask0_230_24411)">
<path fill-rule="evenodd" clip-rule="evenodd" d="M0 0V24H32V0H0Z" fill="#F7FCFF"/>
<mask id="mask1_230_24411" style="mask-type:luminance" maskUnits="userSpaceOnUse" x="0" y="0" width="32" height="24">
<path fill-rule="evenodd" clip-rule="evenodd" d="M0 0V24H32V0H0Z" fill="white"/>
</mask>
<g mask="url(#mask1_230_24411)">
<path fill-rule="evenodd" clip-rule="evenodd" d="M0 0V6H32V0H0Z" fill="#BF2714"/>
<path fill-rule="evenodd" clip-rule="evenodd" d="M0 18V24H32V18H0Z" fill="#BF2714"/>
<mask id="mask2_230_24411" style="mask-type:luminance" maskUnits="userSpaceOnUse" x="10" y="6" width="12" height="12">
<path fill-rule="evenodd" clip-rule="evenodd" d="M16 18C19.3137 18 22 15.3137 22 12C22 8.68629 19.3137 6 16 6C12.6863 6 10 8.68629 10 12C10 15.3137 12.6863 18 16 18Z" fill="white"/>
</mask>
<g mask="url(#mask2_230_24411)">
<path fill-rule="evenodd" clip-rule="evenodd" d="M10.5497 13.7648C10.495 13.5933 10.6802 13.4444 10.8359 13.5348L11.2095 13.7516C11.2653 13.784 11.3333 13.787 11.3917 13.7597L12.3142 13.3277C12.3788 13.2975 12.4548 13.3046 12.5127 13.3464L13.5092 14.0656L14.8867 13.3239C14.9397 13.2954 15.003 13.2927 15.0583 13.3167L16.0957 13.7674C16.1482 13.7902 16.2079 13.789 16.2594 13.7642L17.1901 13.3162C17.2398 13.2923 17.2972 13.2903 17.3484 13.3108L18.4999 13.7707C18.5517 13.7914 18.61 13.7891 18.6601 13.7644L19.552 13.3231C19.6084 13.2952 19.6747 13.296 19.7305 13.3251L20.5486 13.7536C20.6078 13.7845 20.6787 13.7834 20.7368 13.7504L21.1622 13.5094C21.3139 13.4235 21.4941 13.5627 21.4493 13.7311L21.3604 14.0656H10.6457L10.5497 13.7648Z" fill="#5277B9"/>
<path fill-rule="evenodd" clip-rule="evenodd" d="M10.546 14.9506C10.4928 14.7781 10.6807 14.6311 10.8354 14.7241L11.1753 14.9286C11.2323 14.9629 11.3028 14.9661 11.3626 14.937L12.2399 14.5113C12.3061 14.4792 12.3847 14.4867 12.4436 14.5308L13.3995 15.2459L14.7232 14.5072C14.7776 14.4769 14.8431 14.4741 14.8998 14.4996L15.8896 14.9453C15.9434 14.9695 16.0053 14.9683 16.0582 14.9419L16.9458 14.499C16.9968 14.4736 17.0563 14.4715 17.1089 14.4933L18.2091 14.9488C18.2624 14.9709 18.3227 14.9684 18.3741 14.9421L19.2238 14.5063C19.2816 14.4767 19.3503 14.4775 19.4074 14.5085L20.185 14.9306C20.2456 14.9635 20.319 14.9622 20.3785 14.9273L20.7686 14.6983C20.9194 14.6097 21.1022 14.7473 21.0587 14.9168L20.9744 15.2459H10.6369L10.546 14.9506Z" fill="#5277B9"/>
<path fill-rule="evenodd" clip-rule="evenodd" d="M10.7413 15.7375C10.6881 15.565 10.876 15.418 11.0307 15.511L11.3707 15.7155C11.4276 15.7498 11.4981 15.7529 11.5579 15.7239L12.4352 15.2982C12.5014 15.266 12.58 15.2735 12.6389 15.3176L13.5948 16.0327L14.9185 15.2941C14.9729 15.2637 15.0384 15.2609 15.0951 15.2865L16.0849 15.7321C16.1387 15.7564 16.2006 15.7551 16.2535 15.7288L17.1412 15.2859C17.1921 15.2605 17.2516 15.2584 17.3042 15.2801L18.4044 15.7356C18.4577 15.7577 18.5181 15.7553 18.5694 15.7289L19.4191 15.2932C19.4769 15.2636 19.5456 15.2644 19.6027 15.2954L20.3804 15.7174C20.441 15.7503 20.5144 15.7491 20.5738 15.7142L20.9639 15.4851C21.1147 15.3966 21.2975 15.5342 21.2541 15.7036L21.1697 16.0327H10.8322L10.7413 15.7375Z" fill="#5277B9"/>
<path fill-rule="evenodd" clip-rule="evenodd" d="M11.9229 16.5245C11.8698 16.352 12.0576 16.2049 12.2123 16.298L12.5523 16.5025C12.6093 16.5368 12.6797 16.5399 12.7396 16.5109L13.6168 16.0851C13.683 16.053 13.7616 16.0605 13.8205 16.1046L14.7765 16.8197L16.1002 16.0811C16.1545 16.0507 16.22 16.0479 16.2768 16.0735L17.2665 16.5191C17.3204 16.5434 17.3823 16.5421 17.4351 16.5158L18.3228 16.0729C18.3738 16.0474 18.4333 16.0453 18.4859 16.0671L19.586 16.5226C19.6394 16.5447 19.6997 16.5422 19.7511 16.5159L20.6008 16.0802C20.6586 16.0506 20.7273 16.0514 20.7844 16.0824L21.562 16.5044C21.6226 16.5373 21.696 16.5361 21.7555 16.5012L22.1455 16.2721C22.2964 16.1836 22.4791 16.3212 22.4357 16.4906L22.3513 16.8197H12.0139L11.9229 16.5245Z" fill="#5277B9"/>
<path fill-rule="evenodd" clip-rule="evenodd" d="M10.3487 17.508C10.2956 17.3355 10.4834 17.1885 10.6381 17.2815L10.9781 17.486C11.0351 17.5203 11.1055 17.5234 11.1654 17.4944L12.0426 17.0687C12.1088 17.0365 12.1874 17.044 12.2463 17.0881L13.2023 17.8032L14.5259 17.0646C14.5803 17.0342 14.6458 17.0314 14.7026 17.057L15.6923 17.5026C15.7462 17.5269 15.8081 17.5257 15.8609 17.4993L16.7486 17.0564C16.7995 17.031 16.859 17.0289 16.9117 17.0507L18.0118 17.5061C18.0652 17.5282 18.1255 17.5258 18.1768 17.4994L19.0266 17.0637C19.0844 17.0341 19.1531 17.0349 19.2102 17.0659L19.9878 17.4879C20.0484 17.5208 20.1218 17.5196 20.1812 17.4847L20.5713 17.2556C20.7222 17.1671 20.9049 17.3047 20.8615 17.4741L20.7771 17.8032H10.4396L10.3487 17.508Z" fill="#5277B9"/>
<path d="M14.4233 14.138V15.138C13.579 15.138 12.9816 14.6196 12.6911 13.6989L12.668 13.5485V9.44592H13.668V13.4681C13.8346 13.9485 14.0689 14.138 14.4233 14.138Z" fill="#FF0000"/>
<path d="M17.192 14.138V15.138C18.0363 15.138 18.6336 14.6196 18.9241 13.6989L18.9473 13.5485V9.44592H17.9473V13.4681C17.7807 13.9485 17.5463 14.138 17.192 14.138Z" fill="#FF0000"/>
<path fill-rule="evenodd" clip-rule="evenodd" d="M16.7253 6.90869C16.7253 6.90869 15.0664 6.47492 15.0664 7.57486C15.0664 8.67481 15.0664 11.037 15.0664 11.037L17.0004 11.6114V8.78154C17.0004 8.78154 16.0334 8.19069 16.0334 7.72862C16.0334 7.26655 16.7253 6.90869 16.7253 6.90869Z" fill="#FF0000"/>
<path d="M13.9336 12.8907L14.5643 12.0847" stroke="black"/>
<path d="M14.5086 12.8641L13.9043 12.0533" stroke="black"/>
<path d="M14.8379 12.8907L15.4686 12.0847" stroke="black"/>
<path d="M15.4129 12.8641L14.8086 12.0533" stroke="black"/>
<path d="M15.7051 12.8907L16.3358 12.0847" stroke="black"/>
<path d="M16.2801 12.8641L15.6758 12.0533" stroke="black"/>
<path d="M16.6094 12.8907L17.2401 12.0847" stroke="black"/>
<path d="M17.1844 12.8641L16.5801 12.0533" stroke="black"/>
<path d="M17.5137 12.8907L18.1444 12.0847" stroke="black"/>
<path d="M18.0887 12.8641L17.4844 12.0533" stroke="black"/>
<path fill-rule="evenodd" clip-rule="evenodd" d="M13.4545 7.09487L14.6514 9.43314L14.7988 7.09487L14.6514 6.63428L13.4545 7.09487ZM12.855 9.09027L11.9927 8.17598L12.855 7.14843L14.6674 10.0458V10.7822L13.7959 10.0458V9.09027H12.855ZM10.9566 9.79467L12.5294 10.5476L12.6523 9.38433L11.3428 8.26542L10.9566 9.79467ZM12.6088 11.7257L10.5399 11.514V10.0549L12.6088 10.8507V11.7257ZM10.4838 13.1589L10.2383 11.9182L12.5703 12.0345V13.1589H10.4838ZM13.7673 11.1203V10.4201L14.6395 11.1203L14.5448 11.4901L13.7673 11.1203ZM21.8807 11.9182L21.6352 13.1589H19.5487V12.0345L21.8807 11.9182ZM19.5102 11.7257L21.5791 11.514V10.0549L19.5102 10.8507V11.7257ZM21.1624 9.79467L19.5896 10.5476L19.4667 9.38433L20.7762 8.26542L21.1624 9.79467ZM19.2641 9.09027L20.1264 8.17598L19.2641 7.14843L17.4516 10.0458V10.7822L18.3231 10.0458V9.09027H19.2641ZM18.6645 7.09487L17.4676 9.43314L17.3202 7.09487L17.4676 6.63428L18.6645 7.09487ZM18.3517 11.1203V10.4201L17.4795 11.1203L17.5742 11.4901L18.3517 11.1203Z" fill="#FA8F21"/>
</g>
</g>
</g>
<rect width="32" height="24" fill="url(#paint0_linear_230_24411)" style="mix-blend-mode:overlay"/>
</g>
<rect x="0.5" y="0.5" width="31" height="23" rx="1.5" stroke="black" stroke-opacity="0.1"/>
<defs>
<linearGradient id="paint0_linear_230_24411" x1="16" y1="0" x2="16" y2="24" gradientUnits="userSpaceOnUse">
<stop stop-color="white" stop-opacity="0.7"/>
<stop offset="1" stop-opacity="0.3"/>
</linearGradient>
<clipPath id="clip0_230_24411">
<rect width="32" height="24" rx="2" fill="white"/>
</clipPath>
</defs>
</svg>
