<svg width="32" height="24" viewBox="0 0 32 24" fill="none" xmlns="http://www.w3.org/2000/svg">
<g clip-path="url(#clip0_230_27704)">
<mask id="mask0_230_27704" style="mask-type:luminance" maskUnits="userSpaceOnUse" x="0" y="0" width="32" height="24">
<rect width="32" height="24" fill="white"/>
</mask>
<g mask="url(#mask0_230_27704)">
<path fill-rule="evenodd" clip-rule="evenodd" d="M0 0V24H32V0H0Z" fill="#0168B4"/>
<mask id="mask1_230_27704" style="mask-type:luminance" maskUnits="userSpaceOnUse" x="0" y="0" width="32" height="24">
<path fill-rule="evenodd" clip-rule="evenodd" d="M0 0V24H32V0H0Z" fill="white"/>
</mask>
<g mask="url(#mask1_230_27704)">
<path fill-rule="evenodd" clip-rule="evenodd" d="M0 0V3H32V0H0Z" fill="#E93C43"/>
<path fill-rule="evenodd" clip-rule="evenodd" d="M0 21V24H32V21H0Z" fill="#E93C43"/>
<path d="M16 18C12.6863 18 10 15.3137 10 12C10 8.68629 12.6863 6 16 6C19.3137 6 22 8.68629 22 12C22 15.3137 19.3137 18 16 18Z" fill="#F7FCFF"/>
<path d="M16 20C11.5817 20 8 16.4183 8 12C8 7.58172 11.5817 4 16 4C20.4183 4 24 7.58172 24 12C24 16.4183 20.4183 20 16 20Z" fill="white"/>
<path fill-rule="evenodd" clip-rule="evenodd" d="M16 19C19.866 19 23 15.866 23 12C23 8.13401 19.866 5 16 5C12.134 5 9 8.13401 9 12C9 15.866 12.134 19 16 19Z" stroke="#9C4C17" stroke-width="0.5"/>
<path fill-rule="evenodd" clip-rule="evenodd" d="M15.5739 4.08286L15.4186 4.41775C15.6747 4.55683 15.7719 4.87161 15.7719 5.06231C15.7719 5.25103 15.6717 5.39499 15.4186 5.52719L15.5739 5.87336C15.6799 5.81796 15.7848 5.77136 15.884 5.72729C16.2397 5.5693 16.5219 5.44393 16.5219 5.06231C16.5219 4.596 16.0944 4.3646 15.6328 4.11478L15.5739 4.08286ZM17.8143 4.29271L17.5727 4.57184C17.7806 4.77613 17.7872 5.1055 17.7347 5.2888C17.6827 5.47022 17.5467 5.58099 17.2669 5.6383L17.3207 6.01385C17.438 5.98984 17.5517 5.97396 17.6592 5.95894C18.0446 5.9051 18.3504 5.86237 18.4556 5.49553C18.5842 5.04729 18.2369 4.70701 17.8621 4.33963L17.8143 4.29271ZM19.6091 5.32241L19.9217 5.12609L19.9537 5.18494C20.2048 5.64587 20.4373 6.07279 20.1834 6.46387C19.9755 6.78392 19.6705 6.73536 19.2862 6.67416C19.179 6.6571 19.0657 6.63905 18.9465 6.62773L19.0049 6.25286C19.2892 6.27985 19.4516 6.21367 19.5544 6.05539C19.6582 5.89546 19.7482 5.57855 19.6091 5.32241ZM21.6926 6.51513L21.3381 6.61768C21.4011 6.90223 21.2273 7.18207 21.0834 7.30718C20.9409 7.43099 20.7666 7.44985 20.5008 7.34554L20.3413 7.68981C20.4527 7.73352 20.5567 7.78212 20.6551 7.82806L20.6551 7.82807C21.0076 7.99283 21.2874 8.12357 21.5754 7.87321C21.9273 7.56728 21.8215 7.0928 21.7072 6.58053L21.6926 6.51513ZM22.6323 8.34623L23.0014 8.34539L22.9974 8.41227C22.9661 8.93619 22.937 9.42148 22.5144 9.61854C22.1686 9.77982 21.9357 9.57703 21.6422 9.32147C21.5603 9.25019 21.4737 9.17482 21.3787 9.10209L21.6268 8.8151C21.8536 8.98864 22.0264 9.01857 22.1975 8.93881C22.3703 8.85822 22.6145 8.63713 22.6323 8.34623ZM23.7521 10.4835L23.3988 10.3764C23.2967 10.6494 22.9985 10.7894 22.8097 10.816C22.6228 10.8422 22.4663 10.7631 22.3002 10.5308L21.979 10.7327C22.0486 10.8301 22.1093 10.9275 22.1668 11.0196C22.3727 11.3498 22.5362 11.6118 22.9141 11.5587C23.3758 11.4938 23.5455 11.0382 23.7286 10.5463L23.7521 10.4835ZM23.5524 12.531L23.8624 12.7314L23.8226 12.7853C23.511 13.2076 23.2223 13.5988 22.7605 13.5339C22.3826 13.4808 22.2977 13.1838 22.1908 12.8097C22.161 12.7053 22.1294 12.5949 22.0893 12.4822L22.4537 12.3766C22.5494 12.6457 22.678 12.7649 22.8649 12.7912C23.0537 12.8177 23.379 12.7653 23.5524 12.531ZM23.3365 14.9361L23.0986 14.6539C22.8643 14.8272 22.538 14.7822 22.3651 14.7016C22.1941 14.6219 22.1059 14.4703 22.0931 14.185L21.7138 14.1794C21.7191 14.2989 21.717 14.4137 21.7151 14.5222C21.7079 14.9113 21.7023 15.2201 22.0482 15.3814C22.4708 15.5784 22.8612 15.2888 23.2827 14.976L23.3365 14.9361ZM22.0619 16.5497L22.2128 16.8865L22.15 16.9101C21.6587 17.0945 21.2035 17.2654 20.8516 16.9595C20.5636 16.7091 20.6541 16.4138 20.7682 16.0418C20.8 15.938 20.8337 15.8283 20.8615 15.7119L21.2246 15.8218C21.1583 16.0996 21.2012 16.2696 21.3436 16.3934C21.4876 16.5185 21.7889 16.6517 22.0619 16.5497ZM20.5866 18.4421L20.5344 18.0767C20.2439 18.0996 19.9909 17.8885 19.8871 17.7286C19.7843 17.5703 19.7899 17.395 19.9302 17.1463L19.6114 16.9405C19.5527 17.0447 19.4901 17.1409 19.4309 17.2319C19.2186 17.5581 19.0502 17.817 19.2581 18.137C19.512 18.5281 19.9967 18.4893 20.5198 18.4474L20.5866 18.4421ZM18.6333 19.1241L18.5764 19.4888L18.5109 19.4743C17.9984 19.3614 17.5236 19.2568 17.3951 18.8086C17.2899 18.4417 17.5266 18.2434 17.8249 17.9935C17.9081 17.9238 17.9961 17.8501 18.0828 17.7676L18.3275 18.0576C18.1206 18.2545 18.064 18.4204 18.116 18.6019C18.1686 18.7852 18.3487 19.061 18.6333 19.1241ZM16.3667 19.9172L16.5219 19.5823C16.2658 19.4432 16.1686 19.1284 16.1686 18.9377C16.1686 18.749 16.2688 18.605 16.5219 18.4728L16.3667 18.1266C16.2606 18.1821 16.1557 18.2287 16.0565 18.2727C15.7008 18.4307 15.4186 18.5561 15.4186 18.9377C15.4186 19.404 15.8462 19.6354 16.3078 19.8852L16.3667 19.9172ZM14.3678 19.4282L14.1262 19.7073L14.0784 19.6604C13.7036 19.293 13.3564 18.9527 13.4849 18.5045C13.5901 18.1376 13.8959 18.0949 14.2814 18.0411L14.2814 18.0411C14.3889 18.0261 14.5025 18.0102 14.6198 17.9862L14.6736 18.3617C14.3938 18.419 14.2579 18.5298 14.2058 18.7112C14.1533 18.8945 14.1599 19.2239 14.3678 19.4282ZM12.0188 18.8739L12.3314 18.6776C12.1923 18.4215 12.2823 18.1046 12.3862 17.9446C12.4889 17.7863 12.6513 17.7202 12.9356 17.7471L12.994 17.3723C12.8748 17.361 12.7615 17.3429 12.6543 17.3258C12.27 17.2647 11.965 17.2161 11.7571 17.5361C11.5032 17.9272 11.7357 18.3541 11.9868 18.8151L12.0188 18.8739ZM10.6025 17.3823L10.2479 17.4849L10.2333 17.4195C10.119 16.9072 10.0132 16.4327 10.3651 16.1268C10.6531 15.8764 10.9329 16.0072 11.2855 16.1719C11.3838 16.2179 11.4878 16.2665 11.5992 16.3102L11.4398 16.6545C11.1739 16.5502 10.9996 16.569 10.8571 16.6928C10.7132 16.8179 10.5394 17.0978 10.6025 17.3823ZM8.93907 15.6546L9.30819 15.6538C9.326 15.3629 9.57023 15.1418 9.74306 15.0612C9.9141 14.9814 10.0869 15.0114 10.3137 15.1849L10.5618 14.8979C10.4668 14.8252 10.3802 14.7498 10.2984 14.6785C10.0049 14.423 9.77196 14.2202 9.42609 14.3815C9.00348 14.5785 8.97445 15.0638 8.9431 15.5877L8.93907 15.6546ZM8.5417 13.6236L8.18846 13.5165L8.21187 13.4537C8.39503 12.9618 8.56468 12.5062 9.02644 12.4413C9.40435 12.3882 9.56778 12.6503 9.77373 12.9805C9.83117 13.0725 9.89192 13.1699 9.96155 13.2673L9.64035 13.4692C9.4742 13.2369 9.31771 13.1578 9.13082 13.184C8.94198 13.2106 8.64379 13.3506 8.5417 13.6236ZM8.07812 11.2686L8.38815 11.469C8.56153 11.2347 8.88677 11.1823 9.07561 11.2088C9.26249 11.2351 9.39111 11.3543 9.4868 11.6234L9.85121 11.5178C9.81111 11.4051 9.77956 11.2947 9.74973 11.1904L9.74973 11.1903C9.64277 10.8162 9.5579 10.5192 9.17999 10.4661C8.71822 10.4012 8.42957 10.7924 8.11793 11.2147L8.07812 11.2686ZM8.84192 9.34614L8.60401 9.06392L8.65784 9.02402C9.07934 8.71126 9.46975 8.42156 9.89236 8.61863C10.2382 8.77991 10.2326 9.08868 10.2255 9.47778C10.2235 9.5863 10.2214 9.70106 10.2268 9.82062L9.84742 9.81501C9.83458 9.52973 9.74644 9.37812 9.57539 9.29836C9.40257 9.21777 9.07622 9.1728 8.84192 9.34614ZM9.72774 7.11347L9.87864 7.45034C10.1516 7.34829 10.453 7.48148 10.5969 7.60658C10.7393 7.7304 10.7822 7.90043 10.716 8.1782L11.0791 8.28815C11.1068 8.17174 11.1405 8.062 11.1723 7.95823C11.2864 7.58617 11.3769 7.29092 11.0889 7.04055C10.737 6.73463 10.2819 6.90549 9.79048 7.08996L9.72774 7.11347ZM11.4061 5.9233L11.3539 5.55789L11.4207 5.55257C11.9439 5.51069 12.4285 5.4719 12.6824 5.86298C12.8903 6.18304 12.7219 6.44189 12.5096 6.7681C12.4505 6.85907 12.3879 6.95529 12.3291 7.05953L12.0103 6.85375C12.1506 6.60502 12.1562 6.42973 12.0534 6.27146C11.9496 6.11153 11.6966 5.90045 11.4061 5.9233ZM13.3641 4.51124L13.3072 4.87594C13.5918 4.93904 13.7719 5.21485 13.8245 5.39816C13.8765 5.57957 13.8199 5.74556 13.613 5.94241L13.8577 6.23238C13.9444 6.14988 14.0324 6.07618 14.1156 6.00648C14.4139 5.75658 14.6506 5.55827 14.5454 5.19143C14.4169 4.74319 13.9421 4.6386 13.4296 4.52568C13.4078 4.52089 13.386 4.51608 13.3641 4.51124Z" fill="#5B8C39"/>
<path fill-rule="evenodd" clip-rule="evenodd" d="M12.2795 13.9869C12.2795 13.9869 11.1797 13.9628 11.1797 14.4681C11.1797 14.9734 11.1797 15.5332 11.7296 15.2533C12.2795 14.9734 12.9518 14.8629 13.3074 15.0581C13.663 15.2533 14.4917 15.65 15.6597 15.65C16.8277 15.65 16.7499 15.2533 17.8256 15.2533C18.9013 15.2533 20.822 15.1677 20.3772 14.8179C19.9324 14.4681 19.4088 14.2468 19.0091 14.2468C18.6095 14.2468 18.303 14.2468 17.4627 13.8349C16.6223 13.4231 15.6842 13.3858 14.7388 13.5186C13.7935 13.6514 13.6687 13.9869 13.1097 13.9869C12.5507 13.9869 12.2795 13.9869 12.2795 13.9869Z" fill="#247805"/>
<path d="M16.1005 15.65C16.171 15.8898 16.1712 15.8898 16.1713 15.8898L16.1715 15.8897L16.1722 15.8895L16.1741 15.8889L16.1801 15.8871L16.2005 15.8806C16.2177 15.8751 16.2419 15.8669 16.2722 15.856C16.3328 15.8342 16.4178 15.8014 16.5192 15.756C16.7213 15.6656 16.992 15.524 17.2641 15.319C17.809 14.9084 18.3769 14.2278 18.3769 13.1918V13.1838V13.1759V13.1679V13.16V13.152V13.1441V13.1362V13.1282V13.1203V13.1124V13.1045V13.0966V13.0887V13.0808V13.0729V13.065V13.0571V13.0493V13.0414V13.0336V13.0257V13.0179V13.01V13.0022V12.9944V12.9865V12.9787V12.9709V12.9631V12.9553V12.9475V12.9397V12.932V12.9242V12.9164V12.9087V12.9009V12.8932V12.8855V12.8777V12.87V12.8623V12.8546V12.8469V12.8392V12.8315V12.8238V12.8161V12.8085V12.8008V12.7932V12.7855V12.7779V12.7702V12.7626V12.755V12.7474V12.7398V12.7322V12.7246V12.717V12.7095V12.7019V12.6944V12.6868V12.6793V12.6717V12.6642V12.6567V12.6492V12.6417V12.6342V12.6267V12.6192V12.6118V12.6043V12.5969V12.5894V12.582V12.5746V12.5672V12.5597V12.5523V12.545V12.5376V12.5302V12.5228V12.5155V12.5081V12.5008V12.4935V12.4861V12.4788V12.4715V12.4642V12.4569V12.4497V12.4424V12.4351V12.4279V12.4207V12.4134V12.4062V12.399V12.3918V12.3846V12.3774V12.3702V12.3631V12.3559V12.3488V12.3416V12.3345V12.3274V12.3203V12.3132V12.3061V12.299V12.292V12.2849V12.2779V12.2708V12.2638V12.2568V12.2498V12.2428V12.2358V12.2288V12.2219V12.2149V12.208V12.2011V12.1941V12.1872V12.1803V12.1734V12.1665V12.1597V12.1528V12.146V12.1391V12.1323V12.1255V12.1187V12.1119V12.1051V12.0984V12.0916V12.0848V12.0781V12.0714V12.0647V12.058V12.0513V12.0446V12.0379V12.0313V12.0246V12.018V12.0114V12.0048V11.9982V11.9916V11.985V11.9784V11.9719V11.9654V11.9588V11.9523V11.9458V11.9393V11.9328V11.9264V11.9199V11.9135V11.907V11.9006V11.8942V11.8878V11.8814V11.8751V11.8687V11.8624V11.8561V11.8497V11.8434V11.8371V11.8309V11.8246V11.8183V11.8121V11.8059V11.7997V11.7934V11.7873V11.7811V11.7749V11.7688V11.7626V11.7565V11.7504V11.7443V11.7382V11.7322V11.7261V11.7201V11.714V11.708V11.702V11.696V11.69V11.6841V11.6781V11.6722V11.6663V11.6604V11.6545V11.6486V11.6427V11.6369V11.6311V11.6252V11.6194V11.6136V11.6079V11.6021V11.5963V11.5906V11.5849V11.5792V11.5735V11.5678V11.5622V11.5565V11.5509V11.5453V11.5396V11.5341V11.5285V11.5229V11.5174V11.5118V11.5063V11.5008V11.4953V11.4899V11.4844V11.479V11.4736V11.4682V11.4628V11.4574V11.452V11.4467V11.4413V11.436V11.4307V11.4254V11.4202V11.4149V11.4097V11.4045V11.3992V11.3941V11.3889V11.3837V11.3786V11.3735V11.3683V11.3632V11.3582V11.3531V11.3481V11.343V11.338V11.333V11.328V11.3231V11.3181V11.3132V11.3083V11.3034V11.2985V11.2936V11.2888V11.284V11.2791V11.2743V11.2696V11.2648V11.26V11.2553V11.2506V11.2459V11.2412V11.2366V11.2319V11.2273V11.2227V11.2181V11.2135V11.209V11.2044V11.1999V11.1954V11.1909V11.1864V11.182V11.1775V11.1731V11.1687V11.1643V11.16V11.1556V11.1513V11.147V11.1427V11.1384V11.1342V11.1299V11.1257V11.1215V11.1173V11.1131V11.109V11.1049V11.1008V11.0967V11.0926V11.0885V11.0845V11.0805V11.0765V11.0725V11.0685V11.0646V11.0607V11.0568V11.0529V11.049V11.0452V11.0413V11.0375V11.0337V11.0299V11.0262V11.0225V11.0187V11.015V11.0114V11.0077V11.0041V11.0005V10.9969V10.9933V10.9897V10.9862V10.9827V10.9792V10.9757V10.9722V10.9688V10.9653V10.9619V10.9586V10.9552V10.9519V10.9485V10.9452V10.9419V10.9387V10.9354V10.9322V10.929V10.9258V10.9227V10.9195V10.9164V10.9133V10.9102V10.9072V10.9042V10.9011V10.8981V10.8952V10.8922V10.8893V10.8864V10.8835V10.8806V10.8777V10.8749V10.8721V10.8693V10.8666V10.8638V10.8611V10.8584V10.8557V10.8531V10.8504V10.8478V10.8452V10.8426V10.8401V10.8375V10.835V10.8326V10.8301V10.8276V10.8252V10.8228V10.8204V10.8181V10.8158V10.8134V10.8111V10.8089V10.8066V10.8044V10.8022V10.8V10.7979V10.7957V10.7936V10.7915V10.7895V10.7874V10.7854V10.7834V10.7814V10.7795V10.7775V10.7756V10.7737V10.7719V10.77V10.7682V10.7664V10.7646V10.7629V10.7612V10.7595V10.7578V10.7561V10.7545V10.7529V10.7513V10.7497V10.7482V10.7467V10.7452V10.7437V10.7423V10.7408V10.7394V10.7381V10.7367V10.7354V10.7341V10.7328V10.7315V10.7303V10.7291V10.7279V10.7268V10.7256V10.7245V10.7234V10.7224V10.7213V10.7203V10.7193V10.7183V10.7174V10.7165V10.7156V10.7147V10.7139V10.713V10.7122V10.7115V10.7107V10.71V10.7093V10.7086V10.708V10.7074V10.7068V10.7062V10.7056V10.7051V10.7046V10.7042V10.7037V10.7033V10.7029V10.7025V10.7022V10.7019V10.7016V10.7013V10.701V10.7008V10.7006V10.7005V10.7003V10.7002V10.7001V10.7V10.7L18.1269 10.7H18.3769V10.45H18.1269H14.0742H13.8242V10.7H14.0742L13.8242 10.7V10.7001V10.7001V10.7002V10.7004V10.7005V10.7007V10.701V10.7012V10.7015V10.7018V10.7022V10.7026V10.703V10.7034V10.7039V10.7044V10.7049V10.7055V10.7061V10.7067V10.7073V10.708V10.7087V10.7095V10.7102V10.711V10.7118V10.7127V10.7136V10.7145V10.7154V10.7164V10.7174V10.7184V10.7194V10.7205V10.7216V10.7228V10.7239V10.7251V10.7263V10.7276V10.7289V10.7302V10.7315V10.7329V10.7342V10.7357V10.7371V10.7386V10.7401V10.7416V10.7431V10.7447V10.7463V10.7479V10.7496V10.7513V10.753V10.7547V10.7565V10.7583V10.7601V10.762V10.7638V10.7657V10.7676V10.7696V10.7716V10.7736V10.7756V10.7777V10.7797V10.7818V10.784V10.7861V10.7883V10.7905V10.7927V10.795V10.7973V10.7996V10.8019V10.8043V10.8067V10.8091V10.8115V10.814V10.8164V10.819V10.8215V10.824V10.8266V10.8292V10.8319V10.8345V10.8372V10.8399V10.8426V10.8454V10.8481V10.8509V10.8537V10.8566V10.8595V10.8623V10.8653V10.8682V10.8712V10.8741V10.8772V10.8802V10.8832V10.8863V10.8894V10.8925V10.8957V10.8988V10.902V10.9052V10.9085V10.9117V10.915V10.9183V10.9216V10.925V10.9284V10.9317V10.9352V10.9386V10.942V10.9455V10.949V10.9525V10.9561V10.9596V10.9632V10.9668V10.9705V10.9741V10.9778V10.9815V10.9852V10.9889V10.9927V10.9964V11.0002V11.0041V11.0079V11.0117V11.0156V11.0195V11.0234V11.0274V11.0313V11.0353V11.0393V11.0433V11.0474V11.0514V11.0555V11.0596V11.0637V11.0678V11.072V11.0762V11.0803V11.0846V11.0888V11.093V11.0973V11.1016V11.1059V11.1102V11.1146V11.1189V11.1233V11.1277V11.1321V11.1366V11.141V11.1455V11.15V11.1545V11.159V11.1636V11.1681V11.1727V11.1773V11.1819V11.1866V11.1912V11.1959V11.2006V11.2053V11.21V11.2147V11.2195V11.2243V11.2291V11.2339V11.2387V11.2435V11.2484V11.2533V11.2581V11.2631V11.268V11.2729V11.2779V11.2828V11.2878V11.2928V11.2979V11.3029V11.3079V11.313V11.3181V11.3232V11.3283V11.3334V11.3386V11.3437V11.3489V11.3541V11.3593V11.3645V11.3698V11.375V11.3803V11.3856V11.3909V11.3962V11.4015V11.4069V11.4122V11.4176V11.423V11.4284V11.4338V11.4392V11.4446V11.4501V11.4556V11.461V11.4665V11.472V11.4776V11.4831V11.4887V11.4942V11.4998V11.5054V11.511V11.5166V11.5222V11.5279V11.5335V11.5392V11.5449V11.5506V11.5563V11.562V11.5677V11.5735V11.5792V11.585V11.5908V11.5966V11.6024V11.6082V11.614V11.6199V11.6257V11.6316V11.6375V11.6434V11.6493V11.6552V11.6611V11.667V11.673V11.6789V11.6849V11.6909V11.6969V11.7029V11.7089V11.7149V11.7209V11.727V11.733V11.7391V11.7452V11.7513V11.7574V11.7635V11.7696V11.7757V11.7819V11.788V11.7942V11.8003V11.8065V11.8127V11.8189V11.8251V11.8313V11.8375V11.8438V11.85V11.8563V11.8625V11.8688V11.8751V11.8814V11.8877V11.894V11.9003V11.9066V11.913V11.9193V11.9256V11.932V11.9384V11.9447V11.9511V11.9575V11.9639V11.9703V11.9767V11.9832V11.9896V11.996V12.0025V12.0089V12.0154V12.0219V12.0283V12.0348V12.0413V12.0478V12.0543V12.0608V12.0673V12.0739V12.0804V12.0869V12.0935V12.1V12.1066V12.1132V12.1197V12.1263V12.1329V12.1395V12.1461V12.1527V12.1593V12.1659V12.1725V12.1791V12.1858V12.1924V12.1991V12.2057V12.2124V12.219V12.2257V12.2324V12.239V12.2457V12.2524V12.2591V12.2658V12.2725V12.2792V12.2859V12.2926V12.2993V12.306V12.3128V12.3195V12.3262V12.333V12.3397V12.3465V12.3532V12.36V12.3667V12.3735V12.3803V12.387V12.3938V12.4006V12.4074V12.4141V12.4209V12.4277V12.4345V12.4413V12.4481V12.4549V12.4617V12.4685V12.4753V12.4821V12.489V12.4958V12.5026V12.5094V12.5162V12.5231V12.5299V12.5367V12.5436V12.5504V12.5572V12.5641V12.5709V12.5778V12.5846V12.5915V12.5983V12.6052V12.612V12.6189V12.6257V12.6326V12.6394V12.6463V12.6531V12.66V12.6668V12.6737V12.6806V12.6874V12.6943V12.7012V12.708V12.7149V12.7217V12.7286V12.756V12.8109V12.8384V12.8521V12.8658V12.8932V12.9205V12.9479V12.9752V13.0296V13.0839V13.111V13.138V13.1918C13.8242 14.2017 14.3939 14.8816 14.9352 15.2969C15.2064 15.505 15.4761 15.6516 15.6776 15.7463C15.7786 15.7938 15.8634 15.8286 15.9236 15.8518C15.9538 15.8634 15.9779 15.8721 15.995 15.8781L16.0152 15.8851L16.0211 15.887L16.0229 15.8877L16.0236 15.8879L16.0239 15.8879C16.024 15.888 16.0241 15.888 16.1005 15.65ZM16.1005 15.65L16.171 15.8898L16.0973 15.9115L16.0241 15.888L16.1005 15.65Z" fill="white" stroke="#565656" stroke-width="0.5"/>
<mask id="mask2_230_27704" style="mask-type:luminance" maskUnits="userSpaceOnUse" x="13" y="10" width="6" height="7">
<path d="M16.1005 15.65C16.171 15.8898 16.1712 15.8898 16.1713 15.8898L16.1715 15.8897L16.1722 15.8895L16.1741 15.8889L16.1801 15.8871L16.2005 15.8806C16.2177 15.8751 16.2419 15.8669 16.2722 15.856C16.3328 15.8342 16.4178 15.8014 16.5192 15.756C16.7213 15.6656 16.992 15.524 17.2641 15.319C17.809 14.9084 18.3769 14.2278 18.3769 13.1918V13.1838V13.1759V13.1679V13.16V13.152V13.1441V13.1362V13.1282V13.1203V13.1124V13.1045V13.0966V13.0887V13.0808V13.0729V13.065V13.0571V13.0493V13.0414V13.0336V13.0257V13.0179V13.01V13.0022V12.9944V12.9865V12.9787V12.9709V12.9631V12.9553V12.9475V12.9397V12.932V12.9242V12.9164V12.9087V12.9009V12.8932V12.8855V12.8777V12.87V12.8623V12.8546V12.8469V12.8392V12.8315V12.8238V12.8161V12.8085V12.8008V12.7932V12.7855V12.7779V12.7702V12.7626V12.755V12.7474V12.7398V12.7322V12.7246V12.717V12.7095V12.7019V12.6944V12.6868V12.6793V12.6717V12.6642V12.6567V12.6492V12.6417V12.6342V12.6267V12.6192V12.6118V12.6043V12.5969V12.5894V12.582V12.5746V12.5672V12.5597V12.5523V12.545V12.5376V12.5302V12.5228V12.5155V12.5081V12.5008V12.4935V12.4861V12.4788V12.4715V12.4642V12.4569V12.4497V12.4424V12.4351V12.4279V12.4207V12.4134V12.4062V12.399V12.3918V12.3846V12.3774V12.3702V12.3631V12.3559V12.3488V12.3416V12.3345V12.3274V12.3203V12.3132V12.3061V12.299V12.292V12.2849V12.2779V12.2708V12.2638V12.2568V12.2498V12.2428V12.2358V12.2288V12.2219V12.2149V12.208V12.2011V12.1941V12.1872V12.1803V12.1734V12.1665V12.1597V12.1528V12.146V12.1391V12.1323V12.1255V12.1187V12.1119V12.1051V12.0984V12.0916V12.0848V12.0781V12.0714V12.0647V12.058V12.0513V12.0446V12.0379V12.0313V12.0246V12.018V12.0114V12.0048V11.9982V11.9916V11.985V11.9784V11.9719V11.9654V11.9588V11.9523V11.9458V11.9393V11.9328V11.9264V11.9199V11.9135V11.907V11.9006V11.8942V11.8878V11.8814V11.8751V11.8687V11.8624V11.8561V11.8497V11.8434V11.8371V11.8309V11.8246V11.8183V11.8121V11.8059V11.7997V11.7934V11.7873V11.7811V11.7749V11.7688V11.7626V11.7565V11.7504V11.7443V11.7382V11.7322V11.7261V11.7201V11.714V11.708V11.702V11.696V11.69V11.6841V11.6781V11.6722V11.6663V11.6604V11.6545V11.6486V11.6427V11.6369V11.6311V11.6252V11.6194V11.6136V11.6079V11.6021V11.5963V11.5906V11.5849V11.5792V11.5735V11.5678V11.5622V11.5565V11.5509V11.5453V11.5396V11.5341V11.5285V11.5229V11.5174V11.5118V11.5063V11.5008V11.4953V11.4899V11.4844V11.479V11.4736V11.4682V11.4628V11.4574V11.452V11.4467V11.4413V11.436V11.4307V11.4254V11.4202V11.4149V11.4097V11.4045V11.3992V11.3941V11.3889V11.3837V11.3786V11.3735V11.3683V11.3632V11.3582V11.3531V11.3481V11.343V11.338V11.333V11.328V11.3231V11.3181V11.3132V11.3083V11.3034V11.2985V11.2936V11.2888V11.284V11.2791V11.2743V11.2696V11.2648V11.26V11.2553V11.2506V11.2459V11.2412V11.2366V11.2319V11.2273V11.2227V11.2181V11.2135V11.209V11.2044V11.1999V11.1954V11.1909V11.1864V11.182V11.1775V11.1731V11.1687V11.1643V11.16V11.1556V11.1513V11.147V11.1427V11.1384V11.1342V11.1299V11.1257V11.1215V11.1173V11.1131V11.109V11.1049V11.1008V11.0967V11.0926V11.0885V11.0845V11.0805V11.0765V11.0725V11.0685V11.0646V11.0607V11.0568V11.0529V11.049V11.0452V11.0413V11.0375V11.0337V11.0299V11.0262V11.0225V11.0187V11.015V11.0114V11.0077V11.0041V11.0005V10.9969V10.9933V10.9897V10.9862V10.9827V10.9792V10.9757V10.9722V10.9688V10.9653V10.9619V10.9586V10.9552V10.9519V10.9485V10.9452V10.9419V10.9387V10.9354V10.9322V10.929V10.9258V10.9227V10.9195V10.9164V10.9133V10.9102V10.9072V10.9042V10.9011V10.8981V10.8952V10.8922V10.8893V10.8864V10.8835V10.8806V10.8777V10.8749V10.8721V10.8693V10.8666V10.8638V10.8611V10.8584V10.8557V10.8531V10.8504V10.8478V10.8452V10.8426V10.8401V10.8375V10.835V10.8326V10.8301V10.8276V10.8252V10.8228V10.8204V10.8181V10.8158V10.8134V10.8111V10.8089V10.8066V10.8044V10.8022V10.8V10.7979V10.7957V10.7936V10.7915V10.7895V10.7874V10.7854V10.7834V10.7814V10.7795V10.7775V10.7756V10.7737V10.7719V10.77V10.7682V10.7664V10.7646V10.7629V10.7612V10.7595V10.7578V10.7561V10.7545V10.7529V10.7513V10.7497V10.7482V10.7467V10.7452V10.7437V10.7423V10.7408V10.7394V10.7381V10.7367V10.7354V10.7341V10.7328V10.7315V10.7303V10.7291V10.7279V10.7268V10.7256V10.7245V10.7234V10.7224V10.7213V10.7203V10.7193V10.7183V10.7174V10.7165V10.7156V10.7147V10.7139V10.713V10.7122V10.7115V10.7107V10.71V10.7093V10.7086V10.708V10.7074V10.7068V10.7062V10.7056V10.7051V10.7046V10.7042V10.7037V10.7033V10.7029V10.7025V10.7022V10.7019V10.7016V10.7013V10.701V10.7008V10.7006V10.7005V10.7003V10.7002V10.7001V10.7V10.7L18.1269 10.7H18.3769V10.45H18.1269H14.0742H13.8242V10.7H14.0742L13.8242 10.7V10.7001V10.7001V10.7002V10.7004V10.7005V10.7007V10.701V10.7012V10.7015V10.7018V10.7022V10.7026V10.703V10.7034V10.7039V10.7044V10.7049V10.7055V10.7061V10.7067V10.7073V10.708V10.7087V10.7095V10.7102V10.711V10.7118V10.7127V10.7136V10.7145V10.7154V10.7164V10.7174V10.7184V10.7194V10.7205V10.7216V10.7228V10.7239V10.7251V10.7263V10.7276V10.7289V10.7302V10.7315V10.7329V10.7342V10.7357V10.7371V10.7386V10.7401V10.7416V10.7431V10.7447V10.7463V10.7479V10.7496V10.7513V10.753V10.7547V10.7565V10.7583V10.7601V10.762V10.7638V10.7657V10.7676V10.7696V10.7716V10.7736V10.7756V10.7777V10.7797V10.7818V10.784V10.7861V10.7883V10.7905V10.7927V10.795V10.7973V10.7996V10.8019V10.8043V10.8067V10.8091V10.8115V10.814V10.8164V10.819V10.8215V10.824V10.8266V10.8292V10.8319V10.8345V10.8372V10.8399V10.8426V10.8454V10.8481V10.8509V10.8537V10.8566V10.8595V10.8623V10.8653V10.8682V10.8712V10.8741V10.8772V10.8802V10.8832V10.8863V10.8894V10.8925V10.8957V10.8988V10.902V10.9052V10.9085V10.9117V10.915V10.9183V10.9216V10.925V10.9284V10.9317V10.9352V10.9386V10.942V10.9455V10.949V10.9525V10.9561V10.9596V10.9632V10.9668V10.9705V10.9741V10.9778V10.9815V10.9852V10.9889V10.9927V10.9964V11.0002V11.0041V11.0079V11.0117V11.0156V11.0195V11.0234V11.0274V11.0313V11.0353V11.0393V11.0433V11.0474V11.0514V11.0555V11.0596V11.0637V11.0678V11.072V11.0762V11.0803V11.0846V11.0888V11.093V11.0973V11.1016V11.1059V11.1102V11.1146V11.1189V11.1233V11.1277V11.1321V11.1366V11.141V11.1455V11.15V11.1545V11.159V11.1636V11.1681V11.1727V11.1773V11.1819V11.1866V11.1912V11.1959V11.2006V11.2053V11.21V11.2147V11.2195V11.2243V11.2291V11.2339V11.2387V11.2435V11.2484V11.2533V11.2581V11.2631V11.268V11.2729V11.2779V11.2828V11.2878V11.2928V11.2979V11.3029V11.3079V11.313V11.3181V11.3232V11.3283V11.3334V11.3386V11.3437V11.3489V11.3541V11.3593V11.3645V11.3698V11.375V11.3803V11.3856V11.3909V11.3962V11.4015V11.4069V11.4122V11.4176V11.423V11.4284V11.4338V11.4392V11.4446V11.4501V11.4556V11.461V11.4665V11.472V11.4776V11.4831V11.4887V11.4942V11.4998V11.5054V11.511V11.5166V11.5222V11.5279V11.5335V11.5392V11.5449V11.5506V11.5563V11.562V11.5677V11.5735V11.5792V11.585V11.5908V11.5966V11.6024V11.6082V11.614V11.6199V11.6257V11.6316V11.6375V11.6434V11.6493V11.6552V11.6611V11.667V11.673V11.6789V11.6849V11.6909V11.6969V11.7029V11.7089V11.7149V11.7209V11.727V11.733V11.7391V11.7452V11.7513V11.7574V11.7635V11.7696V11.7757V11.7819V11.788V11.7942V11.8003V11.8065V11.8127V11.8189V11.8251V11.8313V11.8375V11.8438V11.85V11.8563V11.8625V11.8688V11.8751V11.8814V11.8877V11.894V11.9003V11.9066V11.913V11.9193V11.9256V11.932V11.9384V11.9447V11.9511V11.9575V11.9639V11.9703V11.9767V11.9832V11.9896V11.996V12.0025V12.0089V12.0154V12.0219V12.0283V12.0348V12.0413V12.0478V12.0543V12.0608V12.0673V12.0739V12.0804V12.0869V12.0935V12.1V12.1066V12.1132V12.1197V12.1263V12.1329V12.1395V12.1461V12.1527V12.1593V12.1659V12.1725V12.1791V12.1858V12.1924V12.1991V12.2057V12.2124V12.219V12.2257V12.2324V12.239V12.2457V12.2524V12.2591V12.2658V12.2725V12.2792V12.2859V12.2926V12.2993V12.306V12.3128V12.3195V12.3262V12.333V12.3397V12.3465V12.3532V12.36V12.3667V12.3735V12.3803V12.387V12.3938V12.4006V12.4074V12.4141V12.4209V12.4277V12.4345V12.4413V12.4481V12.4549V12.4617V12.4685V12.4753V12.4821V12.489V12.4958V12.5026V12.5094V12.5162V12.5231V12.5299V12.5367V12.5436V12.5504V12.5572V12.5641V12.5709V12.5778V12.5846V12.5915V12.5983V12.6052V12.612V12.6189V12.6257V12.6326V12.6394V12.6463V12.6531V12.66V12.6668V12.6737V12.6806V12.6874V12.6943V12.7012V12.708V12.7149V12.7217V12.7286V12.756V12.8109V12.8384V12.8521V12.8658V12.8932V12.9205V12.9479V12.9752V13.0296V13.0839V13.111V13.138V13.1918C13.8242 14.2017 14.3939 14.8816 14.9352 15.2969C15.2064 15.505 15.4761 15.6516 15.6776 15.7463C15.7786 15.7938 15.8634 15.8286 15.9236 15.8518C15.9538 15.8634 15.9779 15.8721 15.995 15.8781L16.0152 15.8851L16.0211 15.887L16.0229 15.8877L16.0236 15.8879L16.0239 15.8879C16.024 15.888 16.0241 15.888 16.1005 15.65ZM16.1005 15.65L16.171 15.8898L16.0973 15.9115L16.0241 15.888L16.1005 15.65Z" fill="white" stroke="white" stroke-width="0.5"/>
</mask>
<g mask="url(#mask2_230_27704)">
<path opacity="0.4" fill-rule="evenodd" clip-rule="evenodd" d="M14.1973 13.9089L16.1306 12.4847L18.1635 14.0703V16.3271H14.1973V13.9089Z" fill="#84CEFF"/>
<path fill-rule="evenodd" clip-rule="evenodd" d="M14.2578 14.4125H17.8499V14.9125H14.2578V14.4125Z" fill="#006AC9"/>
<path fill-rule="evenodd" clip-rule="evenodd" d="M14.4434 14.9075H17.7591V15.1726H14.4434V14.9075Z" fill="#59C800"/>
<path fill-rule="evenodd" clip-rule="evenodd" d="M14.4434 15.2375H17.7591V15.7375H14.4434V15.2375Z" fill="#FFD800"/>
<path fill-rule="evenodd" clip-rule="evenodd" d="M18.727 14.5107L16.1367 12.5326L16.1367 9.86237H18.727V14.5107Z" fill="#F7D85D"/>
<path fill-rule="evenodd" clip-rule="evenodd" d="M15.5488 13.4225C15.5488 13.4225 15.6307 13.8474 15.6933 13.8474C15.7559 13.8474 15.8692 13.4225 15.8692 13.4225C15.8692 13.4225 15.8826 13.8474 15.9456 13.8474C16.0086 13.8474 16.0008 13.4913 16.1015 13.4225C16.1379 13.3976 16.1839 13.8452 16.2399 13.8474C16.2869 13.8492 16.4018 13.4225 16.4018 13.4225C16.4018 13.4225 16.4366 13.8474 16.491 13.8474C16.5454 13.8474 16.6541 13.4225 16.6541 13.4225V14.495H15.5488V13.4225Z" fill="#F5F6F6"/>
<path fill-rule="evenodd" clip-rule="evenodd" d="M16.101 14.84C16.6606 14.84 17.1142 14.7443 17.1142 14.6262C17.1142 14.5082 16.6606 14.4125 16.101 14.4125C15.5415 14.4125 15.0879 14.5082 15.0879 14.6262C15.0879 14.7443 15.5415 14.84 16.101 14.84Z" fill="#892E2E"/>
<path d="M14.2891 11.1041L14.4974 10.9415L15.8982 12.381L15.6899 12.5436L14.2891 11.1041Z" fill="#A46031"/>
<path d="M14.5162 12.7674L14.2949 12.6191L15.6572 10.988L15.8785 11.1363L14.5162 12.7674Z" fill="#892E2E"/>
<path d="M16.4082 11.3181L16.6165 11.189L18.0173 12.332L17.809 12.4611L16.4082 11.3181Z" fill="#A46031"/>
<path d="M16.7006 12.486L16.4414 12.3099L17.7738 11.2355L18.0579 11.4695L16.7006 12.486Z" fill="#F5F6F6"/>
</g>
<path fill-rule="evenodd" clip-rule="evenodd" d="M14.5664 16.5348L15.2168 16.7386V17.3H14.5664V16.5348Z" fill="#6699FF"/>
<path fill-rule="evenodd" clip-rule="evenodd" d="M14.1016 15.387L14.4675 15.5907V16.1522H14.1016V15.387Z" fill="#6699FF"/>
<path fill-rule="evenodd" clip-rule="evenodd" d="M17.541 16.5348L16.8906 16.7386V17.3H17.541V16.5348Z" fill="#6699FF"/>
<path fill-rule="evenodd" clip-rule="evenodd" d="M18.0059 15.387L17.6399 15.5907V16.1522H18.0059V15.387Z" fill="#6699FF"/>
<path d="M13.7479 16.5761C13.6288 16.5761 13.5297 16.5789 13.4164 16.5843C13.1418 16.5975 13.1245 16.5972 13.0487 16.566C13.0032 16.5473 12.9577 16.5171 12.8923 16.4634C12.7372 16.3361 12.5701 16.0436 12.3887 15.5847L12.3892 15.5654C12.6131 15.0812 13.0736 15.0213 13.7584 15.3801C13.9388 15.4747 14.4648 15.7605 14.4605 15.7582C14.6997 15.8863 14.8675 15.9683 15.0324 16.0347C15.3742 16.1723 15.6965 16.2347 16.1098 16.2347C16.3581 16.2347 16.6456 16.1642 16.981 16.031C17.1748 15.954 17.3765 15.86 17.6225 15.7351C17.6549 15.7187 18.1696 15.451 18.2969 15.3898C18.5196 15.2826 18.6665 15.2306 18.7678 15.2306C18.7954 15.2306 18.8167 15.2305 18.8702 15.2302C18.9627 15.2296 19.0067 15.2296 19.0601 15.2302C19.5538 15.2363 19.7974 15.3185 19.7974 15.5756C19.7974 15.8186 19.6394 16.1482 19.3244 16.5669L19.3091 16.5759C18.6859 16.6599 18.3245 16.6599 18.2133 16.5711C18.183 16.5469 18.0999 16.5579 17.9472 16.6069C17.878 16.6291 17.5075 16.7615 17.393 16.7995C16.9165 16.9575 16.5081 17.0423 16.0922 17.0423C15.4588 17.0423 14.7655 16.7966 14.0123 16.3058C14.1488 16.4793 14.0624 16.5761 13.7479 16.5761Z" fill="white"/>
<path fill-rule="evenodd" clip-rule="evenodd" d="M13.4164 16.5843C13.5297 16.5789 13.6288 16.5761 13.7479 16.5761C14.0624 16.5761 14.1488 16.4793 14.0123 16.3058C14.7655 16.7966 15.4588 17.0423 16.0922 17.0423C16.5081 17.0423 16.9165 16.9575 17.393 16.7995C17.4513 16.7802 17.5756 16.7364 17.6929 16.6952C17.8064 16.6553 17.9132 16.6178 17.9472 16.6069C18.0999 16.5579 18.183 16.5469 18.2133 16.5711C18.3245 16.6599 18.6859 16.6599 19.3091 16.5759L19.3244 16.5669C19.6394 16.1482 19.7974 15.8186 19.7974 15.5756C19.7974 15.3185 19.5538 15.2363 19.0601 15.2302C19.0067 15.2296 18.9627 15.2296 18.8702 15.2302C18.8167 15.2305 18.7954 15.2306 18.7678 15.2306C18.6665 15.2306 18.5196 15.2826 18.2969 15.3898C18.1962 15.4382 17.8534 15.6157 17.6983 15.696C17.6572 15.7172 17.6293 15.7317 17.6225 15.7351C17.3765 15.86 17.1748 15.954 16.981 16.031C16.6456 16.1642 16.3581 16.2347 16.1098 16.2347C15.6965 16.2347 15.3742 16.1723 15.0324 16.0347C14.8675 15.9683 14.6997 15.8863 14.4605 15.7582C14.4648 15.7605 13.9388 15.4747 13.7584 15.3801C13.0736 15.0213 12.6131 15.0812 12.3892 15.5654L12.3887 15.5847C12.5701 16.0436 12.7372 16.3361 12.8923 16.4634C12.9577 16.5171 13.0032 16.5473 13.0487 16.566C13.1245 16.5972 13.1418 16.5975 13.4164 16.5843ZM13.066 16.5216C13.0255 16.505 12.9834 16.477 12.9213 16.426C12.7753 16.3061 12.6127 16.0226 12.4356 15.5765C12.6477 15.13 13.0776 15.0771 13.7374 15.4228C13.9174 15.5171 14.4431 15.8028 14.439 15.8006C14.6797 15.9294 14.8487 16.0121 15.0154 16.0792C15.3626 16.219 15.6907 16.2826 16.1098 16.2826C16.3647 16.2826 16.6574 16.2107 16.9978 16.0756C17.1931 15.9981 17.3959 15.9035 17.643 15.778C17.65 15.7745 17.6784 15.7598 17.7201 15.7382C17.8759 15.6576 18.2167 15.4811 18.3166 15.4331C18.5331 15.3289 18.6757 15.2784 18.7678 15.2784C18.7955 15.2784 18.8169 15.2783 18.8704 15.278C18.9627 15.2775 19.0065 15.2774 19.0595 15.2781C19.5271 15.2838 19.751 15.3593 19.751 15.5756C19.751 15.8037 19.5988 16.1226 19.2936 16.5298C18.6921 16.6104 18.3377 16.61 18.2418 16.5333C18.1936 16.4948 18.1032 16.5068 17.9334 16.5612C17.8988 16.5723 17.7907 16.6103 17.6766 16.6504C17.5597 16.6915 17.4363 16.7349 17.3788 16.7539C16.9065 16.9105 16.5025 16.9945 16.0922 16.9945C15.3923 16.9945 14.6153 16.6888 13.7612 16.0765L13.7342 16.1154C14.1241 16.4082 14.1241 16.5283 13.7479 16.5283C13.6281 16.5283 13.5282 16.5311 13.4143 16.5366C13.1493 16.5492 13.1325 16.549 13.066 16.5216Z" fill="#666666"/>
<path d="M13.0281 15.8085L12.9609 15.7424C13.1125 15.5793 13.3132 15.5382 13.5549 15.6181C13.649 15.6492 14.2615 16.0033 14.4251 16.0863C15.023 16.3899 15.5921 16.5594 16.1966 16.5594C17.0657 16.5594 17.9052 16.285 18.7127 15.7379C19.0179 15.4904 19.2089 15.4904 19.2089 15.7755H19.116C19.116 15.6055 19.0263 15.6055 18.767 15.8154C17.9415 16.3749 17.0844 16.655 16.1966 16.655C15.5759 16.655 14.9936 16.4816 14.384 16.1721C14.2126 16.0851 13.6101 15.7368 13.5265 15.7092C13.317 15.6399 13.1536 15.6734 13.0281 15.8085Z" fill="#565757"/>
<path fill-rule="evenodd" clip-rule="evenodd" d="M16.4916 6.94362L16.3107 6.94452C16.315 7.68704 16.1488 8.1561 15.825 8.35754C15.7994 8.37344 15.7675 8.39237 15.7324 8.41269C15.7018 8.33022 15.662 8.23061 15.6112 8.10594L15.5951 8.06639C15.4029 7.59343 15.36 7.37527 15.4587 7.317L15.3608 7.17737C15.1432 7.30589 15.1902 7.54518 15.4256 8.12441L15.4418 8.16415C15.5002 8.30749 15.5433 8.41639 15.5743 8.50279L15.5548 8.51378L15.5548 8.51378L15.5548 8.51379C15.5451 8.51927 15.5355 8.52467 15.5261 8.52995C15.4322 8.48214 15.3233 8.45808 15.1993 8.45808C14.6236 8.45808 14.2248 8.30728 13.993 8.00892L13.8457 8.10531C14.1152 8.45227 14.5697 8.62412 15.1993 8.62412C15.2507 8.62412 15.2989 8.6303 15.3439 8.6427C15.2522 8.72085 15.24 8.80273 15.24 9.08427C15.24 9.26054 15.278 9.4944 15.3541 9.7867C15.2955 9.71175 15.241 9.67632 15.1856 9.67632V9.84235C15.1776 9.84235 15.1723 9.84117 15.1702 9.84068L15.1694 9.84051L15.1685 9.83978L15.1676 9.83926L15.1696 9.84077L15.1694 9.84051C15.1748 9.84459 15.1825 9.852 15.1916 9.86267C15.2169 9.89214 15.2478 9.93965 15.283 10.0043C15.3566 10.1393 15.4469 10.3444 15.5534 10.6187L15.6092 10.6005L15.6135 10.6128L15.6435 10.6039V10.6089H15.7006L15.7015 10.6549L15.8824 10.6512C15.882 10.6336 15.8817 10.6163 15.8815 10.5991L15.9153 10.603C15.9521 10.3317 15.9735 10.0856 15.9793 9.86489C16.0427 9.68927 16.1364 9.5622 16.2591 9.48309C16.5678 9.28395 16.7491 9.09245 16.7986 8.90242L16.6227 8.86378C16.5856 9.00597 16.4311 9.16919 16.1551 9.34725C16.0868 9.39125 16.0265 9.44548 15.9739 9.5099C15.9565 9.23709 15.907 9.01646 15.8244 8.84906V8.80001C15.8244 8.73263 15.8145 8.66682 15.7881 8.57682C15.8395 8.54733 15.8884 8.51863 15.9265 8.49498C16.3122 8.25499 16.4962 7.73591 16.4916 6.94362ZM15.5142 8.7319C15.5636 8.77319 15.6067 8.82641 15.6435 8.8917V10.1391C15.495 9.66877 15.4209 9.31635 15.4209 9.08427C15.4209 8.8243 15.4283 8.79142 15.4886 8.74757C15.4923 8.74486 15.5013 8.73944 15.5142 8.7319Z" fill="#984800"/>
<path fill-rule="evenodd" clip-rule="evenodd" d="M16.9839 7.08531C16.8471 7.12547 16.6715 7.13541 16.4852 7.1059C16.2791 7.07326 16.1005 6.99883 15.9815 6.90615C15.9888 6.92922 15.9924 6.95286 15.992 6.97691C15.988 7.20613 15.6203 7.38558 15.1707 7.37773C14.7212 7.36989 14.3599 7.17771 14.3639 6.94849C14.3679 6.71928 14.7356 6.53982 15.1852 6.54767C15.4556 6.55239 15.694 6.62378 15.8402 6.72981C15.8274 6.69465 15.8233 6.65899 15.8288 6.6237C15.8611 6.41992 16.2073 6.3054 16.6021 6.36792C16.9968 6.43045 17.2907 6.64633 17.2584 6.85012C17.2525 6.8871 17.2363 6.92114 17.2114 6.95172C17.4058 6.89573 17.6735 6.90894 17.9469 7.00306C18.4193 7.16571 18.7296 7.50843 18.64 7.76854C18.5505 8.02865 18.0949 8.10766 17.6225 7.94501C17.5657 7.92544 17.5112 7.90327 17.4595 7.87895C17.3321 8.07674 16.9745 8.18126 16.5785 8.11854C16.1097 8.04429 15.7646 7.76383 15.8076 7.49212C15.8507 7.22041 16.2656 7.06033 16.7343 7.13457C16.8023 7.14533 16.8676 7.16042 16.9295 7.17918C16.9414 7.14464 16.9598 7.11331 16.9839 7.08531ZM14.2739 6.984C14.3739 7.16445 14.1716 7.46782 13.8221 7.66159C13.4725 7.85536 13.108 7.86615 13.008 7.68569C12.908 7.50524 13.1103 7.20187 13.4598 7.0081C13.8094 6.81433 14.1739 6.80354 14.2739 6.984ZM15.3673 8.11814C15.3629 8.37028 14.9138 8.5669 14.3644 8.55731C13.8149 8.54772 13.373 8.33554 13.3774 8.08341C13.3818 7.83127 13.8308 7.63465 14.3803 7.64424C14.9298 7.65383 15.3717 7.866 15.3673 8.11814ZM14.7342 9.88178C15.23 9.82089 15.6094 9.58708 15.5814 9.35953C15.5535 9.13199 15.1289 8.99689 14.633 9.05778C14.1371 9.11866 13.7578 9.35248 13.7857 9.58002C13.8136 9.80756 14.2383 9.94266 14.7342 9.88178ZM16.5631 10.1855C17.0012 10.2867 17.4024 10.1695 17.4591 9.92375C17.5159 9.67804 17.2067 9.39685 16.7686 9.2957C16.3304 9.19456 15.9293 9.31175 15.8726 9.55746C15.8158 9.80317 16.125 10.0844 16.5631 10.1855ZM16.9496 9.25274C17.6117 9.38143 18.1874 9.28509 18.2356 9.03755C18.2837 8.79 17.786 8.485 17.1239 8.35631C16.4618 8.22762 15.8861 8.32397 15.838 8.57151C15.7899 8.81905 16.2876 9.12405 16.9496 9.25274Z" fill="#247805"/>
<path fill-rule="evenodd" clip-rule="evenodd" d="M12.2445 10.9392C12.2445 10.9392 11.9316 13.9094 11.9316 14.3119C11.9316 14.7145 12.5074 14.3119 12.5074 14.3119C12.5074 14.3119 12.592 12.8935 12.7881 12.3666C12.9842 11.8397 13.0768 12.4186 13.0768 12.7262C13.0768 13.0339 13.0768 14.473 13.0768 14.473C13.0768 14.473 13.7933 14.5706 13.7933 14.3119C13.7933 14.0533 13.4952 10.9392 13.4952 10.9392H12.4113H12.2445Z" fill="white"/>
<path fill-rule="evenodd" clip-rule="evenodd" d="M12.2057 10.8975L12.2018 10.9351C11.9929 12.9177 11.8887 14.0414 11.8887 14.3119C11.8887 14.6304 12.1272 14.6304 12.5347 14.3455L12.5513 14.3339L12.5525 14.3143C12.6087 13.3724 12.7018 12.727 12.8307 12.3805C12.9084 12.1717 12.931 12.1624 12.9659 12.2485C13.0068 12.3491 13.0338 12.5543 13.0338 12.7262V14.5092L13.0716 14.5143C13.5742 14.5828 13.8385 14.5234 13.8385 14.3119C13.8385 14.201 13.7867 13.5892 13.6989 12.6305L13.6892 12.525C13.6566 12.1702 13.6217 11.7961 13.5867 11.4261L13.5529 11.0698L13.5435 10.9705L13.5401 10.9355L13.5365 10.8975H12.2057ZM12.4657 14.2899C12.1176 14.5301 11.9768 14.5268 11.9768 14.3119C11.9768 14.0474 12.0798 12.9352 12.2855 10.981H13.456L13.4652 11.0773L13.499 11.4336C13.5339 11.8035 13.5688 12.1775 13.6014 12.5322L13.6111 12.6377C13.6983 13.5894 13.7504 14.205 13.7504 14.3119C13.7504 14.4416 13.5488 14.4905 13.1219 14.4366V12.7262C13.1219 12.5449 13.0937 12.3306 13.0482 12.2184C12.9729 12.0332 12.8472 12.0852 12.7476 12.3527C12.616 12.7063 12.5224 13.3512 12.4657 14.2899Z" fill="#979797"/>
<path fill-rule="evenodd" clip-rule="evenodd" d="M11.207 9.91763C11.207 9.91763 11.4528 10.8022 11.5615 10.8022C11.6703 10.8022 12.3306 10.2594 12.3306 10.2594V10.9961H13.5608V10.6698L13.7187 10.9961L13.9338 10.8955L14.3059 10.4569H13.9338C13.9338 10.4569 13.8257 9.75246 13.8257 9.64106C13.8257 9.52967 13.83 9.30929 13.5608 9.22953C13.2916 9.14977 13.1596 9.00854 13.1596 9.00854C13.1596 9.00854 13.7393 8.17828 13.2978 8.17828C12.8564 8.17828 12.6566 8.28472 12.6566 8.28472C12.6566 8.28472 12.6566 8.77769 12.6566 8.89311C12.6566 9.00854 12.0233 8.87187 12.0233 9.22953C12.0233 9.58719 11.728 9.91763 11.728 9.91763L11.6528 9.67809L11.207 9.91763Z" fill="#FF863B"/>
<path fill-rule="evenodd" clip-rule="evenodd" d="M13.0675 8.38291C13.3107 8.38291 13.508 8.286 13.508 8.16645C13.508 8.04691 13.3107 7.95 13.0675 7.95C12.8242 7.95 12.627 8.04691 12.627 8.16645C12.627 8.286 12.8242 8.38291 13.0675 8.38291Z" fill="black"/>
<path d="M10.8473 10.2599L10.6484 10.0948C11.0315 9.68005 11.4577 9.37834 11.9266 9.19104C12.3707 9.01369 12.951 8.73063 13.6665 8.34215L13.7979 8.55965C13.0739 8.95275 12.4847 9.24012 12.0292 9.42203C11.5987 9.594 11.2048 9.87281 10.8473 10.2599Z" fill="#740000"/>
<path fill-rule="evenodd" clip-rule="evenodd" d="M13.6582 8.43311L13.8252 9.2173L14.5664 8.82521L13.9826 8.17638L13.6582 8.43311Z" fill="#F9FCFF" stroke="#6C6C6C" stroke-width="0.5"/>
<path fill-rule="evenodd" clip-rule="evenodd" d="M19.8596 11.307C19.8596 11.307 20.1699 14.407 20.1699 14.8271C20.1699 15.2472 19.5988 14.8271 19.5988 14.8271C19.5988 14.8271 19.5149 13.3467 19.3204 12.7968C19.1259 12.2468 19.0341 12.851 19.0341 13.1721C19.0341 13.4932 19.0341 14.9952 19.0341 14.9952C19.0341 14.9952 18.3233 15.097 18.3233 14.8271C18.3233 14.5572 18.619 11.307 18.619 11.307H19.6941H19.8596Z" fill="white"/>
<path fill-rule="evenodd" clip-rule="evenodd" d="M19.8984 11.2634L19.9023 11.3027C20.1095 13.372 20.2129 14.5448 20.2129 14.8271C20.2129 15.1594 19.9763 15.1594 19.5721 14.8622L19.5556 14.85L19.5544 14.8295C19.4987 13.8465 19.4064 13.1729 19.2785 12.8113C19.2014 12.5934 19.179 12.5836 19.1443 12.6734C19.1038 12.7785 19.077 12.9926 19.077 13.1721V15.033L19.0396 15.0384C18.541 15.1098 18.2789 15.0478 18.2789 14.8271C18.2789 14.7114 18.3302 14.0728 18.4173 13.0722L18.4269 12.962C18.4593 12.5917 18.4939 12.2014 18.5286 11.8152L18.5621 11.4433L18.5715 11.3396L18.5748 11.3031L18.5784 11.2634H19.8984ZM19.6405 14.8041C19.9858 15.0548 20.1255 15.0513 20.1255 14.8271C20.1255 14.551 20.0233 13.3902 19.8193 11.3506H18.6582L18.6491 11.4511L18.6156 11.8229C18.581 12.2091 18.5463 12.5994 18.514 12.9696L18.5044 13.0797C18.4179 14.073 18.3663 14.7154 18.3663 14.8271C18.3663 14.9624 18.5662 15.0135 18.9897 14.9572V13.1721C18.9897 12.9828 19.0176 12.7592 19.0628 12.6421C19.1374 12.4487 19.2621 12.5031 19.3609 12.7822C19.4914 13.1513 19.5842 13.8244 19.6405 14.8041Z" fill="#979797"/>
<path fill-rule="evenodd" clip-rule="evenodd" d="M20.9102 10.178C20.9102 10.178 20.6664 11.1012 20.5585 11.1012C20.4506 11.1012 19.7957 10.5347 19.7957 10.5347V11.3036H18.5754V10.9631L18.4188 11.3036L18.2055 11.1986L17.8363 10.7408H18.2055C18.2055 10.7408 18.3127 10.0056 18.3127 9.88937C18.3127 9.77311 18.3084 9.54311 18.5754 9.45986C18.8424 9.37661 18.9734 9.22921 18.9734 9.22921C18.9734 9.22921 18.3984 8.36267 18.8363 8.36267C19.2741 8.36267 19.4723 8.47376 19.4723 8.47376C19.4723 8.47376 19.4723 8.98827 19.4723 9.10874C19.4723 9.22921 20.1005 9.08657 20.1005 9.45986C20.1005 9.83315 20.3934 10.178 20.3934 10.178L20.4679 9.92802L20.9102 10.178Z" fill="#824028"/>
<path fill-rule="evenodd" clip-rule="evenodd" d="M19.065 8.57622C18.8237 8.57622 18.6281 8.47507 18.6281 8.3503C18.6281 8.22554 18.8237 8.12439 19.065 8.12439C19.3063 8.12439 19.502 8.22554 19.502 8.3503C19.502 8.47507 19.3063 8.57622 19.065 8.57622Z" fill="black"/>
<path d="M21.526 10.3456L18.8533 8.95257C18.8533 8.95257 18.8038 8.4846 18.2876 8.3437C17.7714 8.20281 17.3597 7.98479 17.3597 7.98479L17.1247 8.3437C17.1247 8.3437 16.7061 8.23323 18.2876 8.95257C19.8691 9.67191 18.2281 8.56267 18.6776 8.95257L21.526 10.3456Z" fill="#BA611F"/>
</g>
</g>
<rect width="32" height="24" fill="url(#paint0_linear_230_27704)" style="mix-blend-mode:overlay"/>
</g>
<rect x="0.5" y="0.5" width="31" height="23" rx="1.5" stroke="black" stroke-opacity="0.1"/>
<defs>
<linearGradient id="paint0_linear_230_27704" x1="16" y1="0" x2="16" y2="24" gradientUnits="userSpaceOnUse">
<stop stop-color="white" stop-opacity="0.7"/>
<stop offset="1" stop-opacity="0.3"/>
</linearGradient>
<clipPath id="clip0_230_27704">
<rect width="32" height="24" rx="2" fill="white"/>
</clipPath>
</defs>
</svg>
