<svg width="32" height="24" viewBox="0 0 32 24" fill="none" xmlns="http://www.w3.org/2000/svg">
<g clip-path="url(#clip0_230_25561)">
<mask id="mask0_230_25561" style="mask-type:luminance" maskUnits="userSpaceOnUse" x="0" y="0" width="32" height="24">
<rect width="32" height="24" fill="white"/>
</mask>
<g mask="url(#mask0_230_25561)">
<path fill-rule="evenodd" clip-rule="evenodd" d="M0 0V24H32V0H0Z" fill="#3D58DB"/>
<mask id="mask1_230_25561" style="mask-type:luminance" maskUnits="userSpaceOnUse" x="0" y="0" width="32" height="24">
<path fill-rule="evenodd" clip-rule="evenodd" d="M0 0V24H32V0H0Z" fill="white"/>
</mask>
<g mask="url(#mask1_230_25561)">
<path d="M0 5H-1V6V18V19H0H32H33V18V6V5H32H0Z" fill="#C51918" stroke="#F7FCFF" stroke-width="2"/>
<path fill-rule="evenodd" clip-rule="evenodd" d="M10 17C12.7614 17 15 14.7614 15 12C15 9.23858 12.7614 7 10 7C7.23858 7 5 9.23858 5 12C5 14.7614 7.23858 17 10 17Z" fill="#F7FCFF"/>
<path fill-rule="evenodd" clip-rule="evenodd" d="M9.99472 13.8698L7.27839 15.76L8.23668 12.5925L5.59961 10.5933L8.90819 10.5258L9.99472 7.40002L11.0813 10.5258L14.3898 10.5933L11.7528 12.5925L12.7111 15.76L9.99472 13.8698Z" fill="#C51918"/>
</g>
</g>
<rect width="32" height="24" fill="url(#paint0_linear_230_25561)" style="mix-blend-mode:overlay"/>
</g>
<rect x="0.5" y="0.5" width="31" height="23" rx="1.5" stroke="black" stroke-opacity="0.1"/>
<defs>
<linearGradient id="paint0_linear_230_25561" x1="16" y1="0" x2="16" y2="24" gradientUnits="userSpaceOnUse">
<stop stop-color="white" stop-opacity="0.7"/>
<stop offset="1" stop-opacity="0.3"/>
</linearGradient>
<clipPath id="clip0_230_25561">
<rect width="32" height="24" rx="2" fill="white"/>
</clipPath>
</defs>
</svg>
