<svg width="32" height="24" viewBox="0 0 32 24" fill="none" xmlns="http://www.w3.org/2000/svg">
<g clip-path="url(#clip0_230_26295)">
<mask id="mask0_230_26295" style="mask-type:luminance" maskUnits="userSpaceOnUse" x="0" y="0" width="32" height="24">
<rect width="32" height="24" fill="white"/>
</mask>
<g mask="url(#mask0_230_26295)">
<path fill-rule="evenodd" clip-rule="evenodd" d="M0 0V24H32V0H0Z" fill="#F7FCFF"/>
<mask id="mask1_230_26295" style="mask-type:luminance" maskUnits="userSpaceOnUse" x="0" y="0" width="32" height="24">
<path fill-rule="evenodd" clip-rule="evenodd" d="M0 0V24H32V0H0Z" fill="white"/>
</mask>
<g mask="url(#mask1_230_26295)">
<path fill-rule="evenodd" clip-rule="evenodd" d="M0 0V8H32V0H0Z" fill="#4564F9"/>
<path fill-rule="evenodd" clip-rule="evenodd" d="M0 16V24H32V16H0Z" fill="#4564F9"/>
<path fill-rule="evenodd" clip-rule="evenodd" d="M16.4021 12.6708L15.5356 13.118L15.7011 12.1708L15 11.4309H15.9688L16.4021 10.5L16.8354 11.4309H17.8042L17.1032 12.1708L17.2687 13.118L16.4021 12.6708Z" fill="#4564F9"/>
<path fill-rule="evenodd" clip-rule="evenodd" d="M10.3181 10.5027L9.45158 10.9499L9.61707 10.0027L8.91602 9.26281H9.88485L10.3181 8.33191L10.7514 9.26281H11.7202L11.0192 10.0027L11.1847 10.9499L10.3181 10.5027Z" fill="#4564F9"/>
<path fill-rule="evenodd" clip-rule="evenodd" d="M10.3181 14.7027L9.45158 15.15L9.61707 14.2027L8.91602 13.4628H9.88485L10.3181 12.5319L10.7514 13.4628H11.7202L11.0192 14.2027L11.1847 15.15L10.3181 14.7027Z" fill="#4564F9"/>
<path fill-rule="evenodd" clip-rule="evenodd" d="M22.3181 10.5027L21.4516 10.9499L21.6171 10.0027L20.916 9.26281H21.8849L22.3181 8.33191L22.7514 9.26281H23.7202L23.0192 10.0027L23.1847 10.9499L22.3181 10.5027Z" fill="#4564F9"/>
<path fill-rule="evenodd" clip-rule="evenodd" d="M22.3181 14.7027L21.4516 15.15L21.6171 14.2027L20.916 13.4628H21.8849L22.3181 12.5319L22.7514 13.4628H23.7202L23.0192 14.2027L23.1847 15.15L22.3181 14.7027Z" fill="#4564F9"/>
</g>
</g>
<rect width="32" height="24" fill="url(#paint0_linear_230_26295)" style="mix-blend-mode:overlay"/>
</g>
<rect x="0.5" y="0.5" width="31" height="23" rx="1.5" stroke="black" stroke-opacity="0.1"/>
<defs>
<linearGradient id="paint0_linear_230_26295" x1="16" y1="0" x2="16" y2="24" gradientUnits="userSpaceOnUse">
<stop stop-color="white" stop-opacity="0.7"/>
<stop offset="1" stop-opacity="0.3"/>
</linearGradient>
<clipPath id="clip0_230_26295">
<rect width="32" height="24" rx="2" fill="white"/>
</clipPath>
</defs>
</svg>
