<svg width="32" height="24" viewBox="0 0 32 24" fill="none" xmlns="http://www.w3.org/2000/svg">
<g clip-path="url(#clip0_230_26990)">
<mask id="mask0_230_26990" style="mask-type:luminance" maskUnits="userSpaceOnUse" x="0" y="0" width="32" height="24">
<rect width="32" height="24" fill="white"/>
</mask>
<g mask="url(#mask0_230_26990)">
<path fill-rule="evenodd" clip-rule="evenodd" d="M0 0V24H32V0H0Z" fill="#F7FCFF"/>
<mask id="mask1_230_26990" style="mask-type:luminance" maskUnits="userSpaceOnUse" x="0" y="0" width="32" height="24">
<path fill-rule="evenodd" clip-rule="evenodd" d="M0 0V24H32V0H0Z" fill="white"/>
</mask>
<g mask="url(#mask1_230_26990)">
<path d="M10.8185 1H9.8185V2V10.323H0H-1V11.323V13.323V14.323H0H9.8185V24V25H10.8185H12.8185H13.8185V24V14.323H32H33V13.323V11.323V10.323H32H13.8185V2V1H12.8185H10.8185Z" fill="#2E42A5" stroke="#2E42A5" stroke-width="2"/>
</g>
</g>
<rect width="32" height="24" fill="url(#paint0_linear_230_26990)" style="mix-blend-mode:overlay"/>
</g>
<rect x="0.5" y="0.5" width="31" height="23" rx="1.5" stroke="black" stroke-opacity="0.1"/>
<defs>
<linearGradient id="paint0_linear_230_26990" x1="16" y1="0" x2="16" y2="24" gradientUnits="userSpaceOnUse">
<stop stop-color="white" stop-opacity="0.7"/>
<stop offset="1" stop-opacity="0.3"/>
</linearGradient>
<clipPath id="clip0_230_26990">
<rect width="32" height="24" rx="2" fill="white"/>
</clipPath>
</defs>
</svg>
