<svg width="32" height="24" viewBox="0 0 32 24" fill="none" xmlns="http://www.w3.org/2000/svg">
<g clip-path="url(#clip0_230_22669)">
<mask id="mask0_230_22669" style="mask-type:luminance" maskUnits="userSpaceOnUse" x="0" y="0" width="32" height="24">
<rect width="32" height="24" fill="white"/>
</mask>
<g mask="url(#mask0_230_22669)">
<path fill-rule="evenodd" clip-rule="evenodd" d="M0 0V24H32V0H0Z" fill="#F7FCFF"/>
<mask id="mask1_230_22669" style="mask-type:luminance" maskUnits="userSpaceOnUse" x="0" y="0" width="32" height="24">
<path fill-rule="evenodd" clip-rule="evenodd" d="M0 0V24H32V0H0Z" fill="white"/>
</mask>
<g mask="url(#mask1_230_22669)">
<rect y="2" width="32" height="3" fill="#2E42A5"/>
<rect y="8" width="32" height="3" fill="#2E42A5"/>
<rect y="14" width="32" height="3" fill="#2E42A5"/>
<rect y="19" width="32" height="3" fill="#2E42A5"/>
<rect width="14" height="14" fill="#F7FCFF"/>
<path fill-rule="evenodd" clip-rule="evenodd" d="M4.78116 2.58222C4.70788 2.5773 4.6439 2.6322 4.63825 2.70484C4.61084 3.05798 4.92168 3.37902 5.09378 3.55676L5.11075 3.5743C5.13793 3.60244 5.16577 3.63024 5.20065 3.6643C5.20063 3.66428 5.28203 3.7433 5.30431 3.76532C5.45376 3.91312 5.48615 4.05156 5.52252 4.20699L5.53153 4.24522C5.54725 4.31108 5.56343 4.3907 5.58119 4.47813L5.58119 4.47813C5.65991 4.8656 5.76978 5.40642 6.00978 5.58271C6.06856 5.62589 6.48037 5.36939 6.5245 5.31076C6.54007 5.29009 6.5861 5.25586 6.63658 5.21833L6.63658 5.21833C6.72921 5.14946 6.83682 5.06945 6.79878 5.04151C6.54747 4.8569 6.35655 4.40951 6.10851 3.76532C5.97608 3.46202 5.62931 3.26922 5.34154 3.10923C5.09574 2.97257 4.89299 2.85985 4.90365 2.72265C4.90929 2.65001 4.85445 2.58713 4.78116 2.58222ZM8.82846 2.68164C8.79267 2.6175 8.71178 2.59374 8.64779 2.62857C8.33669 2.79791 8.23674 3.23346 8.18141 3.4746L8.17594 3.49838C8.16714 3.5365 8.15899 3.575 8.14942 3.6228C8.14943 3.62277 8.12749 3.73408 8.12115 3.76475C8.07859 3.97059 7.98013 4.07316 7.86959 4.18831L7.84243 4.21669C7.79576 4.26575 7.73779 4.32268 7.67414 4.38519C7.39205 4.66224 6.99833 5.04894 6.98119 5.34623C6.97699 5.41904 7.4164 5.62471 7.4896 5.6298C7.51542 5.63159 7.56919 5.65156 7.62817 5.67346C7.73637 5.71363 7.86208 5.76031 7.8648 5.71318C7.88275 5.40187 8.15398 4.99809 8.55915 4.43922C8.74139 4.16296 8.71422 3.76712 8.69167 3.43864C8.67241 3.15807 8.65652 2.92664 8.7774 2.86085C8.84139 2.82602 8.86425 2.74578 8.82846 2.68164ZM11.4147 5.03054C11.4853 5.04871 11.5282 5.12125 11.5107 5.19257C11.4931 5.26389 11.4217 5.30698 11.3511 5.28881C11.2178 5.25449 11.0716 5.43458 10.8944 5.65292C10.6868 5.90853 10.4367 6.21656 10.1151 6.29431C9.43758 6.42672 8.96384 6.53705 8.73839 6.75248C8.70427 6.78509 8.64416 6.66523 8.59243 6.56205L8.59243 6.56205L8.59242 6.56204C8.56423 6.50581 8.53852 6.45454 8.52085 6.43561C8.47079 6.38197 8.28969 5.93188 8.34242 5.88149C8.55771 5.67575 9.10939 5.66146 9.50464 5.65122L9.50466 5.65122C9.59384 5.64891 9.67505 5.64681 9.74264 5.64276L9.78186 5.64053C9.94124 5.6317 10.0832 5.62384 10.2547 5.50232C10.2798 5.48451 10.3692 5.41994 10.3721 5.41784L10.3722 5.41778C10.4118 5.38935 10.444 5.36676 10.4764 5.34488L10.4967 5.33121C10.7016 5.19259 11.0717 4.94222 11.4147 5.03054ZM2.32146 5.47381C2.26616 5.52215 2.25974 5.60621 2.30711 5.66156C2.53743 5.93066 2.98425 5.93787 3.23161 5.94186C3.23998 5.94199 3.24812 5.94213 3.25602 5.94226C3.29514 5.94294 3.33448 5.94291 3.38323 5.94233C3.3832 5.94233 3.49664 5.94065 3.52796 5.94047C3.73815 5.9393 3.85894 6.01428 3.99457 6.09848C4.00558 6.10531 4.0167 6.11221 4.02797 6.11914C4.08566 6.15459 4.1534 6.19945 4.22778 6.24872C4.55743 6.46704 5.01753 6.77176 5.31189 6.72672C5.38399 6.71568 5.4938 6.24312 5.48356 6.17046C5.47995 6.14483 5.48829 6.08808 5.49745 6.02584C5.51425 5.91165 5.53377 5.77898 5.48711 5.78612C5.17887 5.83329 4.72752 5.65193 4.09662 5.37181C3.78851 5.25099 3.40697 5.35987 3.09036 5.45022C2.81992 5.52739 2.59685 5.59105 2.50737 5.4865C2.45999 5.43115 2.37676 5.42546 2.32146 5.47381Z" fill="#FFC125"/>
<path d="M4.63825 2.70484L4.56348 2.69903V2.69903L4.63825 2.70484ZM4.78116 2.58222L4.77614 2.65705L4.78116 2.58222ZM5.09378 3.55676L5.14768 3.50461L5.14766 3.50458L5.09378 3.55676ZM5.11075 3.5743L5.1647 3.5222L5.16465 3.52215L5.11075 3.5743ZM5.20065 3.6643L5.14825 3.71796L5.25334 3.61092L5.20065 3.6643ZM5.30431 3.76532L5.25157 3.81865L5.25157 3.81865L5.30431 3.76532ZM5.52252 4.20699L5.44949 4.22408L5.44952 4.22419L5.52252 4.20699ZM5.53153 4.24522L5.45853 4.26241L5.45858 4.26263L5.53153 4.24522ZM5.58119 4.47813L5.50756 4.49308L5.50872 4.49745L5.58119 4.47813ZM5.58119 4.47813L5.65482 4.46317L5.65366 4.45881L5.58119 4.47813ZM6.00978 5.58271L5.96538 5.64316H5.96538L6.00978 5.58271ZM6.5245 5.31076L6.58442 5.35587V5.35587L6.5245 5.31076ZM6.63658 5.21833L6.59492 5.15584L6.59183 5.15814L6.63658 5.21833ZM6.63658 5.21833L6.67824 5.28081L6.68133 5.27851L6.63658 5.21833ZM6.79878 5.04151L6.75438 5.10195L6.79878 5.04151ZM6.10851 3.76532L6.17857 3.73835L6.17725 3.73531L6.10851 3.76532ZM5.34154 3.10923L5.30509 3.17478L5.34154 3.10923ZM4.90365 2.72265L4.82887 2.71684V2.71684L4.90365 2.72265ZM8.64779 2.62857L8.61193 2.5627V2.5627L8.64779 2.62857ZM8.82846 2.68164L8.89396 2.6451V2.6451L8.82846 2.68164ZM8.18141 3.4746L8.2545 3.4914L8.25451 3.49137L8.18141 3.4746ZM8.17594 3.49838L8.24902 3.51525L8.24903 3.51519L8.17594 3.49838ZM8.14942 3.6228L8.07588 3.60808L8.2229 3.63783L8.14942 3.6228ZM8.12115 3.76475L8.19459 3.77994L8.19459 3.77994L8.12115 3.76475ZM7.86959 4.18831L7.81548 4.13637L7.8154 4.13646L7.86959 4.18831ZM7.84243 4.21669L7.78825 4.16483L7.78809 4.16499L7.84243 4.21669ZM7.67414 4.38519L7.62159 4.33168L7.67414 4.38519ZM6.98119 5.34623L7.05606 5.35055V5.35055L6.98119 5.34623ZM7.4896 5.6298L7.4844 5.70462L7.4896 5.6298ZM7.62817 5.67346L7.65427 5.60315L7.62817 5.67346ZM7.8648 5.71318L7.78992 5.70886V5.70886L7.8648 5.71318ZM8.55915 4.43922L8.61993 4.48328L8.62175 4.48052L8.55915 4.43922ZM8.69167 3.43864L8.7665 3.43351V3.43351L8.69167 3.43864ZM8.7774 2.86085L8.74154 2.79498V2.79498L8.7774 2.86085ZM11.4147 5.03054L11.4334 4.95791L11.4147 5.03054ZM11.3511 5.28881L11.3324 5.36144L11.3511 5.28881ZM10.8944 5.65292L10.8361 5.60564L10.8944 5.65292ZM10.1151 6.29431L10.1295 6.36799L10.1327 6.36721L10.1151 6.29431ZM8.73839 6.75248L8.68658 6.69826H8.68658L8.73839 6.75248ZM8.59243 6.56205L8.52254 6.59L8.52538 6.59567L8.59243 6.56205ZM8.59243 6.56205L8.6623 6.5341L8.65951 6.52851L8.59243 6.56205ZM8.59242 6.56204L8.6595 6.5285L8.65947 6.52842L8.59242 6.56204ZM8.52085 6.43561L8.46603 6.48679V6.48679L8.52085 6.43561ZM8.34242 5.88149L8.39424 5.93571L8.34242 5.88149ZM9.50464 5.65122L9.50658 5.72621L9.50752 5.72617L9.50464 5.65122ZM9.50466 5.65122L9.50272 5.57624L9.50178 5.57628L9.50466 5.65122ZM9.74264 5.64276L9.73838 5.56788L9.73816 5.56789L9.74264 5.64276ZM9.78186 5.64053L9.77771 5.56564L9.77759 5.56565L9.78186 5.64053ZM10.2547 5.50232L10.2113 5.44113L10.2547 5.50232ZM10.3721 5.41784L10.3283 5.35699L10.3282 5.35704L10.3721 5.41784ZM10.3722 5.41778L10.3284 5.35686L10.3283 5.35694L10.3722 5.41778ZM10.4764 5.34488L10.5184 5.40705L10.5184 5.40702L10.4764 5.34488ZM10.4967 5.33121L10.5387 5.39335L10.5387 5.39333L10.4967 5.33121ZM2.30711 5.66156L2.36409 5.6128H2.36409L2.30711 5.66156ZM2.32146 5.47381L2.37082 5.53027L2.37082 5.53027L2.32146 5.47381ZM3.23161 5.94186L3.23041 6.01685H3.23041L3.23161 5.94186ZM3.25602 5.94226L3.25733 5.86727H3.25733L3.25602 5.94226ZM3.38323 5.94233L3.38412 6.01733L3.38255 5.86734L3.38323 5.94233ZM3.52796 5.94047L3.52838 6.01547H3.52838L3.52796 5.94047ZM3.99457 6.09848L4.03412 6.03475H4.03412L3.99457 6.09848ZM4.02797 6.11914L3.9887 6.18304H3.9887L4.02797 6.11914ZM4.22778 6.24872L4.18637 6.31125L4.22778 6.24872ZM5.31189 6.72672L5.32324 6.80085H5.32324L5.31189 6.72672ZM5.48356 6.17046L5.55782 6.15999V6.15999L5.48356 6.17046ZM5.49745 6.02584L5.57165 6.03676H5.57165L5.49745 6.02584ZM5.48711 5.78612L5.47576 5.71198L5.48711 5.78612ZM4.09662 5.37181L4.12709 5.3032L4.124 5.30199L4.09662 5.37181ZM3.09036 5.45022L3.11094 5.52234H3.11094L3.09036 5.45022ZM2.50737 5.4865L2.56435 5.43773H2.56435L2.50737 5.4865ZM4.71303 2.71064C4.71544 2.67955 4.74331 2.65484 4.77614 2.65705L4.78619 2.50738C4.67244 2.49975 4.57235 2.58484 4.56348 2.69903L4.71303 2.71064ZM5.14766 3.50458C5.06118 3.41527 4.94532 3.29535 4.85399 3.15555C4.76235 3.01531 4.70115 2.86359 4.71303 2.71064L4.56348 2.69903C4.54794 2.89922 4.62845 3.0846 4.72841 3.2376C4.82867 3.39104 4.95429 3.52051 5.0399 3.60893L5.14766 3.50458ZM5.16465 3.52215L5.14768 3.50461L5.03988 3.6089L5.05685 3.62645L5.16465 3.52215ZM5.25305 3.61064C5.2185 3.5769 5.19121 3.54964 5.1647 3.5222L5.0568 3.6264C5.08465 3.65523 5.11305 3.68358 5.14825 3.71796L5.25305 3.61064ZM5.35704 3.712C5.34564 3.70072 5.31946 3.67521 5.29642 3.65279C5.28484 3.64152 5.27395 3.63094 5.26597 3.62318C5.26197 3.6193 5.2587 3.61613 5.25643 3.61392C5.2553 3.61282 5.25441 3.61196 5.25381 3.61138C5.25351 3.61108 5.25328 3.61086 5.25312 3.61071C5.25304 3.61063 5.25299 3.61058 5.25294 3.61054C5.25293 3.61052 5.25291 3.6105 5.2529 3.61049C5.25289 3.61049 5.25289 3.61048 5.25288 3.61047C5.25288 3.61047 5.25287 3.61046 5.25286 3.61046C5.25285 3.61044 5.14702 3.61186 5.14796 3.71767L5.25334 3.61092C5.25427 3.71673 5.14845 3.71815 5.14844 3.71814C5.14843 3.71814 5.14843 3.71813 5.14843 3.71813C5.14842 3.71813 5.14843 3.71813 5.14843 3.71813C5.14844 3.71814 5.14845 3.71815 5.14847 3.71817C5.14851 3.71821 5.14856 3.71826 5.14864 3.71834C5.14879 3.71848 5.14902 3.71871 5.14932 3.719C5.14992 3.71958 5.1508 3.72044 5.15193 3.72153C5.1542 3.72373 5.15746 3.7269 5.16144 3.73077C5.16941 3.73851 5.18027 3.74906 5.19182 3.7603C5.21504 3.78289 5.2407 3.8079 5.25157 3.81865L5.35704 3.712ZM5.59555 4.1899C5.55883 4.03295 5.52277 3.87589 5.35704 3.712L5.25157 3.81865C5.38476 3.95036 5.41348 4.07016 5.44949 4.22408L5.59555 4.1899ZM5.60453 4.22802L5.59552 4.18979L5.44952 4.22419L5.45853 4.26241L5.60453 4.22802ZM5.65469 4.46319C5.63701 4.37617 5.62056 4.29516 5.60448 4.2278L5.45858 4.26263C5.47395 4.32699 5.48985 4.40523 5.50769 4.49306L5.65469 4.46319ZM5.65366 4.45881L5.65366 4.4588L5.50872 4.49745L5.50873 4.49746L5.65366 4.45881ZM6.05418 5.52227C5.95502 5.44943 5.87336 5.29126 5.80629 5.08629C5.74057 4.88547 5.69422 4.65776 5.65469 4.4632L5.50769 4.49306C5.54689 4.68597 5.59483 4.92241 5.66373 5.13294C5.73126 5.33932 5.82454 5.5397 5.96538 5.64316L6.05418 5.52227ZM6.46458 5.26565C6.46525 5.26477 6.46067 5.27011 6.44513 5.2826C6.4314 5.29364 6.41303 5.30719 6.39107 5.32237C6.34724 5.35267 6.29163 5.38773 6.23547 5.41976C6.17892 5.45202 6.124 5.47994 6.08111 5.49698C6.05933 5.50562 6.04365 5.51025 6.03392 5.51197C6.02907 5.51282 6.02833 5.51247 6.03048 5.51264C6.03216 5.51276 6.0425 5.51369 6.05418 5.52227L5.96538 5.64316C5.9844 5.65713 6.00485 5.66111 6.01904 5.6622C6.0337 5.66332 6.04787 5.66183 6.06 5.65968C6.08422 5.65541 6.11069 5.64662 6.13648 5.63638C6.18871 5.61563 6.25052 5.58386 6.30979 5.55006C6.36945 5.51603 6.42874 5.47868 6.47637 5.44575C6.50015 5.42931 6.52165 5.41354 6.53911 5.39951C6.55477 5.38691 6.57271 5.37142 6.58442 5.35587L6.46458 5.26565ZM6.59183 5.15814C6.56692 5.17666 6.54159 5.19548 6.52056 5.21233C6.50143 5.22766 6.47881 5.24676 6.46458 5.26566L6.58442 5.35587C6.58427 5.35607 6.58621 5.35363 6.59223 5.3481C6.5978 5.34298 6.60515 5.33676 6.61434 5.3294C6.63282 5.31459 6.65576 5.29753 6.68133 5.27852L6.59183 5.15814ZM6.59498 5.15592L6.59498 5.15593L6.67818 5.28073L6.67818 5.28073L6.59498 5.15592ZM6.75438 5.10195C6.74378 5.09417 6.7338 5.08009 6.73193 5.06203C6.73042 5.04747 6.7351 5.03837 6.73528 5.03799C6.73529 5.03797 6.73082 5.04516 6.71497 5.06025C6.68528 5.08851 6.63947 5.12272 6.59183 5.15814L6.68133 5.27851C6.72632 5.24506 6.78062 5.20484 6.81839 5.1689C6.83627 5.15188 6.85735 5.12953 6.86974 5.10449C6.87611 5.09161 6.88367 5.07113 6.88113 5.04658C6.87823 5.01852 6.86328 4.99583 6.84318 4.98106L6.75438 5.10195ZM6.03852 3.79227C6.16245 4.11413 6.27347 4.39048 6.38564 4.6099C6.49718 4.82807 6.61423 4.999 6.75438 5.10195L6.84318 4.98106C6.73202 4.89941 6.62795 4.75434 6.5192 4.54162C6.41108 4.33014 6.30262 4.0607 6.1785 3.73838L6.03852 3.79227ZM5.30509 3.17478C5.44979 3.25523 5.60361 3.3409 5.73781 3.44318C5.87197 3.54544 5.98074 3.66011 6.03978 3.79534L6.17725 3.73531C6.10386 3.56724 5.97302 3.43386 5.82874 3.32389C5.6845 3.21395 5.52105 3.12322 5.37798 3.04368L5.30509 3.17478ZM4.82887 2.71684C4.82033 2.82686 4.89826 2.91135 4.98032 2.9753C5.066 3.04208 5.18403 3.10747 5.30509 3.17478L5.37798 3.04368C5.25325 2.97433 5.147 2.91503 5.07253 2.85699C4.99443 2.79612 4.97631 2.75564 4.97842 2.72845L4.82887 2.71684ZM4.77614 2.65705C4.80837 2.65921 4.83124 2.68638 4.82887 2.71684L4.97842 2.72845C4.98734 2.61363 4.90052 2.51506 4.78619 2.50738L4.77614 2.65705ZM8.68365 2.69445C8.71103 2.67954 8.74694 2.68945 8.76297 2.71819L8.89396 2.6451C8.83841 2.54555 8.71253 2.50794 8.61193 2.5627L8.68365 2.69445ZM8.25451 3.49137C8.28231 3.37019 8.31979 3.20772 8.38728 3.05498C8.455 2.90175 8.5489 2.76779 8.68365 2.69445L8.61193 2.5627C8.43557 2.6587 8.32395 2.82718 8.25008 2.99435C8.176 3.162 8.13583 3.33787 8.10831 3.45782L8.25451 3.49137ZM8.24903 3.51519L8.2545 3.4914L8.10831 3.45779L8.10284 3.48158L8.24903 3.51519ZM8.22296 3.63752C8.23244 3.59016 8.24043 3.55243 8.24902 3.51525L8.10286 3.48151C8.09384 3.52057 8.08554 3.55983 8.07588 3.60808L8.22296 3.63752ZM8.19459 3.77994C8.19784 3.76423 8.20498 3.72839 8.21123 3.69685C8.21437 3.68099 8.21732 3.66611 8.21948 3.65518C8.22055 3.64972 8.22144 3.64525 8.22205 3.64215C8.22236 3.64059 8.22259 3.63938 8.22276 3.63856C8.22284 3.63814 8.2229 3.63783 8.22294 3.63762C8.22296 3.63751 8.22298 3.63743 8.22299 3.63738C8.22299 3.63735 8.223 3.63733 8.223 3.63731C8.223 3.6373 8.22301 3.6373 8.22301 3.63729C8.22301 3.63728 8.22301 3.63727 8.22301 3.63727C8.22301 3.63725 8.16415 3.54926 8.07594 3.60776L8.2229 3.63783C8.13469 3.69633 8.07583 3.60835 8.07583 3.60833C8.07583 3.60832 8.07583 3.60832 8.07583 3.60831C8.07583 3.60831 8.07583 3.60831 8.07583 3.60832C8.07583 3.60833 8.07582 3.60835 8.07582 3.60838C8.07581 3.60843 8.07579 3.60851 8.07577 3.60861C8.07573 3.60882 8.07567 3.60913 8.07559 3.60954C8.07543 3.61036 8.07519 3.61157 8.07488 3.61311C8.07427 3.61621 8.07339 3.62067 8.07232 3.62612C8.07017 3.63702 8.06723 3.65187 8.0641 3.66768C8.0578 3.69945 8.05079 3.7346 8.0477 3.74957L8.19459 3.77994ZM7.92369 4.24025C8.03532 4.12397 8.14741 4.00819 8.19459 3.77994L8.0477 3.74957C8.00978 3.933 7.92495 4.02234 7.81548 4.13637L7.92369 4.24025ZM7.89661 4.26854L7.92377 4.24017L7.8154 4.13646L7.78825 4.16483L7.89661 4.26854ZM7.72669 4.4387C7.79005 4.37648 7.84903 4.31856 7.89677 4.26838L7.78809 4.16499C7.74248 4.21293 7.68553 4.26888 7.62159 4.33168L7.72669 4.4387ZM7.05606 5.35055C7.06314 5.22772 7.15132 5.07309 7.28669 4.9052C7.41932 4.74071 7.58505 4.57781 7.72669 4.4387L7.62159 4.33168C7.48114 4.46962 7.30897 4.6386 7.16992 4.81104C7.03362 4.98009 6.91637 5.16745 6.90631 5.34191L7.05606 5.35055ZM7.49479 5.55498C7.4959 5.55506 7.48893 5.55412 7.46999 5.5479C7.45325 5.54239 7.43188 5.53436 7.4072 5.52422C7.35791 5.50396 7.29821 5.47642 7.24077 5.44677C7.18292 5.41691 7.12959 5.38605 7.09194 5.35936C7.07283 5.34581 7.0604 5.33517 7.05367 5.32795C7.05031 5.32435 7.0502 5.32353 7.05123 5.32543C7.05204 5.32691 7.0569 5.33608 7.05606 5.35055L6.90631 5.34191C6.90495 5.36548 6.91275 5.3848 6.91957 5.39729C6.92661 5.4102 6.93558 5.42127 6.94398 5.43027C6.96076 5.44826 6.98255 5.46567 7.00518 5.48172C7.05103 5.51423 7.11134 5.54876 7.17197 5.58006C7.233 5.61156 7.29662 5.64094 7.35017 5.66296C7.37691 5.67394 7.40185 5.68339 7.42313 5.69039C7.44222 5.69667 7.46499 5.70327 7.4844 5.70462L7.49479 5.55498ZM7.65427 5.60315C7.62517 5.59234 7.5956 5.58135 7.57 5.57288C7.54673 5.56519 7.51839 5.55662 7.49479 5.55498L7.4844 5.70462C7.48416 5.7046 7.48726 5.7049 7.49518 5.70694C7.5025 5.70882 7.51172 5.7116 7.5229 5.7153C7.54539 5.72273 7.57219 5.73268 7.60206 5.74377L7.65427 5.60315ZM7.78992 5.70886C7.79068 5.69574 7.79705 5.6797 7.81118 5.66829C7.82257 5.6591 7.83275 5.65806 7.83317 5.65801C7.83319 5.65801 7.82472 5.65818 7.80344 5.6531C7.76357 5.6436 7.70992 5.62381 7.65427 5.60315L7.60206 5.74377C7.65462 5.76328 7.71793 5.78692 7.76864 5.79901C7.79265 5.80474 7.82288 5.81025 7.85062 5.807C7.8649 5.80532 7.88619 5.80052 7.9054 5.78501C7.92735 5.76729 7.93824 5.7424 7.93967 5.7175L7.78992 5.70886ZM8.49843 4.3952C8.29599 4.67443 8.12469 4.91805 8.00177 5.13162C7.87954 5.34399 7.79993 5.53525 7.78992 5.70886L7.93967 5.7175C7.94761 5.5798 8.0126 5.41352 8.13177 5.20645C8.25025 5.00059 8.41714 4.76288 8.61987 4.48324L8.49843 4.3952ZM8.61685 3.44378C8.62819 3.60895 8.64011 3.78462 8.62742 3.95287C8.61473 4.12108 8.5778 4.27475 8.49655 4.39792L8.62175 4.48052C8.72274 4.32743 8.76335 4.14505 8.777 3.96416C8.79064 3.78331 8.77771 3.59682 8.7665 3.43351L8.61685 3.44378ZM8.74154 2.79498C8.64462 2.84773 8.61621 2.95911 8.60726 3.06276C8.59792 3.17099 8.60736 3.30559 8.61685 3.44378L8.7665 3.43351C8.75672 3.29113 8.74859 3.16973 8.75671 3.07565C8.76522 2.977 8.7893 2.93976 8.81325 2.92672L8.74154 2.79498ZM8.76297 2.71819C8.77871 2.7464 8.76837 2.78037 8.74154 2.79498L8.81325 2.92672C8.91441 2.87166 8.94979 2.74517 8.89396 2.6451L8.76297 2.71819ZM11.5835 5.21051C11.6108 5.09982 11.5444 4.98647 11.4334 4.95791L11.396 5.10317C11.4262 5.11095 11.4457 5.14269 11.4379 5.17463L11.5835 5.21051ZM11.3324 5.36144C11.4439 5.39016 11.5561 5.32178 11.5835 5.21051L11.4379 5.17463C11.4301 5.206 11.3994 5.2238 11.3698 5.21618L11.3324 5.36144ZM10.9526 5.70019C11.0425 5.5894 11.1194 5.49506 11.1895 5.4318C11.263 5.36545 11.306 5.35464 11.3324 5.36144L11.3698 5.21618C11.263 5.18866 11.1662 5.25074 11.089 5.32044C11.0083 5.39323 10.9234 5.49811 10.8361 5.60564L10.9526 5.70019ZM10.1327 6.36721C10.3109 6.32413 10.465 6.21844 10.5984 6.09544C10.7317 5.97249 10.8494 5.82727 10.9526 5.70019L10.8361 5.60564C10.7318 5.73418 10.6207 5.87078 10.4967 5.98518C10.3727 6.09955 10.2409 6.18675 10.0974 6.22141L10.1327 6.36721ZM8.79021 6.8067C8.88993 6.71141 9.05086 6.63412 9.27924 6.56396C9.50628 6.4942 9.79045 6.43417 10.1294 6.36792L10.1007 6.2207C9.76218 6.28686 9.47075 6.3482 9.23519 6.42057C9.00096 6.49253 8.8123 6.57812 8.68658 6.69826L8.79021 6.8067ZM8.52538 6.59567C8.55051 6.64578 8.58069 6.70624 8.60954 6.74968C8.62319 6.77024 8.64154 6.79488 8.66405 6.81143C8.67563 6.81994 8.69448 6.83094 8.7191 6.8327C8.74724 6.83471 8.77218 6.82394 8.79021 6.8067L8.68658 6.69826C8.69608 6.68918 8.71168 6.68179 8.72979 6.68309C8.74439 6.68413 8.75254 6.69031 8.75289 6.69056C8.75291 6.69058 8.7466 6.68492 8.73449 6.66669C8.71182 6.63255 8.68608 6.58149 8.65947 6.52843L8.52538 6.59567ZM8.52279 6.5899L8.52279 6.5899L8.66206 6.5342L8.66206 6.53419L8.52279 6.5899ZM8.52534 6.59558L8.52534 6.59559L8.65951 6.52851L8.6595 6.5285L8.52534 6.59558ZM8.46603 6.48679C8.46586 6.48661 8.46793 6.48895 8.47233 6.49583C8.4764 6.5022 8.48125 6.51053 8.4869 6.52085C8.49828 6.54163 8.5111 6.56718 8.52538 6.59566L8.65947 6.52842C8.64555 6.50067 8.63142 6.47247 8.61848 6.44882C8.60671 6.42732 8.59182 6.40173 8.57568 6.38444L8.46603 6.48679ZM8.2906 5.82727C8.27354 5.84358 8.26607 5.86302 8.26253 5.87681C8.25888 5.89105 8.25789 5.90527 8.25789 5.91758C8.2579 5.94217 8.26195 5.96977 8.26756 5.99695C8.27892 6.05199 8.29948 6.11838 8.32248 6.18261C8.34563 6.24727 8.37212 6.31215 8.39628 6.36478C8.40834 6.39105 8.42013 6.41496 8.43092 6.4346C8.4406 6.45221 8.45275 6.47257 8.46603 6.48679L8.57568 6.38444C8.57644 6.38525 8.57198 6.37981 8.56238 6.36234C8.55389 6.3469 8.54374 6.32646 8.5326 6.3022C8.51037 6.25377 8.48549 6.19292 8.4637 6.13205C8.44176 6.07076 8.4238 6.01182 8.41447 5.96662C8.40973 5.94368 8.4079 5.92743 8.4079 5.91755C8.40789 5.91263 8.40837 5.91196 8.40784 5.91405C8.40742 5.91568 8.40471 5.9257 8.39424 5.93571L8.2906 5.82727ZM9.5027 5.57625C9.30591 5.58135 9.06475 5.58751 8.84545 5.6188C8.63048 5.64947 8.41695 5.70653 8.2906 5.82727L8.39424 5.93571C8.48319 5.85071 8.65314 5.79776 8.86664 5.76729C9.07582 5.73745 9.30812 5.73134 9.50658 5.7262L9.5027 5.57625ZM9.50178 5.57628L9.50176 5.57628L9.50752 5.72617L9.50754 5.72617L9.50178 5.57628ZM9.73816 5.56789C9.67211 5.57185 9.59231 5.57393 9.50272 5.57625L9.5066 5.7262C9.59537 5.7239 9.678 5.72177 9.74713 5.71763L9.73816 5.56789ZM9.77759 5.56565L9.73838 5.56788L9.7469 5.71764L9.78612 5.71541L9.77759 5.56565ZM10.2113 5.44113C10.0585 5.54942 9.93554 5.5569 9.77771 5.56564L9.786 5.71541C9.94695 5.7065 10.1079 5.69827 10.2981 5.56352L10.2113 5.44113ZM10.3282 5.35704C10.3251 5.3593 10.2361 5.42357 10.2113 5.44113L10.2981 5.56352C10.3236 5.54545 10.4133 5.48059 10.416 5.47863L10.3282 5.35704ZM10.3283 5.35694L10.3283 5.35699L10.416 5.47868L10.416 5.47863L10.3283 5.35694ZM10.4345 5.2827C10.4013 5.30512 10.3684 5.32816 10.3284 5.35686L10.4159 5.4787C10.4552 5.45054 10.4867 5.42839 10.5184 5.40705L10.4345 5.2827ZM10.4547 5.26907L10.4344 5.28274L10.5184 5.40702L10.5387 5.39335L10.4547 5.26907ZM11.4334 4.95791C11.239 4.90784 11.0424 4.95494 10.8744 5.02682C10.7059 5.0989 10.5566 5.20013 10.4546 5.26909L10.5387 5.39333C10.6417 5.32367 10.7799 5.2304 10.9334 5.16473C11.0874 5.09884 11.2475 5.06492 11.396 5.10317L11.4334 4.95791ZM2.36409 5.6128C2.34382 5.58911 2.34605 5.55193 2.37082 5.53027L2.2721 5.41734C2.18627 5.49237 2.17566 5.62332 2.25013 5.71033L2.36409 5.6128ZM3.23282 5.86687C3.10851 5.86486 2.9418 5.86199 2.77836 5.82772C2.6144 5.79335 2.46385 5.72934 2.36409 5.6128L2.25013 5.71033C2.3807 5.86288 2.56871 5.93703 2.74758 5.97453C2.92697 6.01214 3.10735 6.01486 3.23041 6.01685L3.23282 5.86687ZM3.25733 5.86727C3.24937 5.86714 3.24118 5.867 3.23282 5.86687L3.23041 6.01685C3.23878 6.01698 3.24687 6.01712 3.25471 6.01725L3.25733 5.86727ZM3.38234 5.86734C3.33405 5.86791 3.29548 5.86794 3.25733 5.86727L3.25471 6.01725C3.29479 6.01795 3.33492 6.01791 3.38412 6.01733L3.38234 5.86734ZM3.52754 5.86548C3.5115 5.86557 3.47496 5.86604 3.44281 5.86648C3.42665 5.8667 3.41148 5.86691 3.40034 5.86708C3.39478 5.86716 3.39022 5.86722 3.38705 5.86727C3.38547 5.86729 3.38424 5.86731 3.3834 5.86732C3.38298 5.86733 3.38266 5.86733 3.38244 5.86734C3.38233 5.86734 3.38225 5.86734 3.38219 5.86734C3.38217 5.86734 3.38214 5.86734 3.38213 5.86734C3.38212 5.86734 3.38211 5.86734 3.38211 5.86734C3.3821 5.86734 3.38209 5.86734 3.38209 5.86734C3.38207 5.86734 3.30823 5.94326 3.38391 6.01733L3.38255 5.86734C3.45822 5.94141 3.38438 6.01732 3.38437 6.01732C3.38437 6.01732 3.38436 6.01732 3.38436 6.01732C3.38436 6.01732 3.38436 6.01732 3.38437 6.01732C3.38438 6.01732 3.3844 6.01732 3.38442 6.01732C3.38448 6.01732 3.38456 6.01732 3.38466 6.01732C3.38488 6.01732 3.3852 6.01731 3.38561 6.01731C3.38645 6.01729 3.38768 6.01728 3.38926 6.01725C3.39241 6.01721 3.39696 6.01714 3.40251 6.01706C3.41362 6.0169 3.42875 6.01668 3.44487 6.01646C3.47726 6.01602 3.51309 6.01556 3.52838 6.01547L3.52754 5.86548ZM4.03412 6.03475C3.89717 5.94974 3.76062 5.86418 3.52754 5.86548L3.52838 6.01547C3.71569 6.01443 3.82071 6.07883 3.95501 6.1622L4.03412 6.03475ZM4.06723 6.05524C4.05613 6.04842 4.04516 6.04161 4.03412 6.03475L3.95501 6.1622C3.96601 6.16902 3.97726 6.17601 3.9887 6.18304L4.06723 6.05524ZM4.26919 6.18619C4.19516 6.13715 4.12624 6.0915 4.06723 6.05524L3.9887 6.18304C4.04508 6.21768 4.11164 6.26176 4.18637 6.31125L4.26919 6.18619ZM5.30055 6.65258C5.17893 6.67119 5.00934 6.61709 4.81698 6.51958C4.62851 6.42405 4.43472 6.29581 4.26919 6.18619L4.18637 6.31125C4.35049 6.41994 4.55157 6.55322 4.74916 6.65338C4.94285 6.75155 5.15049 6.82729 5.32324 6.80085L5.30055 6.65258ZM5.40929 6.18093C5.40914 6.17983 5.40968 6.18685 5.40752 6.20666C5.40562 6.22418 5.40221 6.24675 5.39741 6.27301C5.38785 6.32543 5.37332 6.38955 5.35626 6.45191C5.33908 6.5147 5.31999 6.57328 5.30171 6.61565C5.29242 6.63717 5.28461 6.65153 5.27894 6.65962C5.27612 6.66366 5.27534 6.66393 5.27698 6.66252C5.27826 6.66143 5.28622 6.65477 5.30055 6.65258L5.32324 6.80085C5.34657 6.79728 5.36384 6.78564 5.37464 6.77638C5.38581 6.7668 5.39477 6.75572 5.40183 6.74563C5.41593 6.72549 5.42844 6.70055 5.43943 6.67508C5.4617 6.62347 5.48294 6.5573 5.50094 6.49149C5.51907 6.42524 5.53458 6.3569 5.54498 6.29994C5.55017 6.27151 5.55422 6.24515 5.55664 6.22288C5.55881 6.2029 5.56054 6.17925 5.55782 6.15999L5.40929 6.18093ZM5.42325 6.01492C5.41873 6.04564 5.41413 6.07685 5.41117 6.10364C5.40848 6.12801 5.40599 6.15751 5.40929 6.18093L5.55782 6.15999C5.55786 6.16023 5.55751 6.15713 5.55785 6.14896C5.55817 6.14141 5.55897 6.13181 5.56026 6.12011C5.56286 6.09657 5.56701 6.06828 5.57165 6.03676L5.42325 6.01492ZM5.49845 5.86026C5.48546 5.86225 5.46845 5.85935 5.45435 5.8479C5.44299 5.83867 5.43986 5.82893 5.43972 5.82853C5.43972 5.82851 5.44164 5.83676 5.4411 5.85863C5.44009 5.89961 5.43189 5.9562 5.42325 6.01492L5.57165 6.03676C5.57981 5.98129 5.58977 5.91445 5.59106 5.86233C5.59166 5.83765 5.59077 5.80694 5.58182 5.78048C5.57722 5.76687 5.56809 5.74704 5.54893 5.73147C5.52703 5.71369 5.50042 5.70821 5.47576 5.71198L5.49845 5.86026ZM4.06619 5.44036C4.38141 5.58032 4.65532 5.69723 4.88979 5.77306C5.12292 5.84846 5.32656 5.88656 5.49845 5.86026L5.47576 5.71198C5.33942 5.73285 5.16326 5.70385 4.93594 5.63034C4.70995 5.55725 4.44274 5.44343 4.12706 5.30327L4.06619 5.44036ZM3.11094 5.52234C3.27015 5.47691 3.43949 5.42872 3.60671 5.40615C3.77388 5.38359 3.93187 5.38777 4.06924 5.44164L4.124 5.30199C3.95327 5.23504 3.76643 5.23324 3.58665 5.2575C3.40692 5.28175 3.22719 5.33318 3.06978 5.3781L3.11094 5.52234ZM2.45039 5.53527C2.52214 5.6191 2.63699 5.62374 2.74024 5.61094C2.84805 5.59757 2.97774 5.56035 3.11094 5.52234L3.06978 5.3781C2.93254 5.41726 2.81549 5.45046 2.72178 5.46208C2.62351 5.47426 2.58208 5.45845 2.56435 5.43773L2.45039 5.53527ZM2.37082 5.53027C2.39514 5.50901 2.43053 5.51206 2.45039 5.53527L2.56435 5.43773C2.48946 5.35023 2.35837 5.34192 2.2721 5.41734L2.37082 5.53027Z" fill="#984111"/>
<path fill-rule="evenodd" clip-rule="evenodd" d="M4.75577 11.2454C4.68249 11.2503 4.6185 11.1954 4.61286 11.1228C4.58544 10.7697 4.89629 10.4486 5.06839 10.2709L5.08536 10.2533C5.11254 10.2252 5.14038 10.1974 5.17526 10.1633C5.17524 10.1634 5.25664 10.0843 5.27891 10.0623C5.42837 9.91451 5.46076 9.77608 5.49713 9.62065L5.50614 9.58242C5.52186 9.51656 5.53804 9.43694 5.5558 9.34951L5.5558 9.34951C5.63452 8.96204 5.74439 8.42122 5.98439 8.24493C6.04317 8.20175 6.45497 8.45825 6.49911 8.51687C6.51468 8.53755 6.56071 8.57177 6.61119 8.60931L6.61119 8.60931C6.70382 8.67818 6.81143 8.75818 6.77339 8.78613C6.52208 8.97074 6.33116 9.41813 6.08312 10.0623C5.95069 10.3656 5.60392 10.5584 5.31615 10.7184C5.07035 10.8551 4.8676 10.9678 4.87826 11.105C4.8839 11.1776 4.82906 11.2405 4.75577 11.2454ZM8.80307 11.146C8.76728 11.2101 8.68639 11.2339 8.6224 11.1991C8.3113 11.0297 8.21135 10.5942 8.15602 10.353L8.15055 10.3293C8.14175 10.2911 8.1336 10.2526 8.12403 10.2048C8.12403 10.2049 8.1021 10.0936 8.09576 10.0629C8.0532 9.85704 7.95474 9.75448 7.8442 9.63932L7.81704 9.61095C7.77027 9.56179 7.71145 9.50405 7.64662 9.4404L7.64659 9.44038L7.64658 9.44037C7.35995 9.159 6.9558 8.76227 6.9558 8.48141C6.9558 8.35383 7.39101 8.20292 7.46421 8.19784C7.49003 8.19604 7.5438 8.17608 7.60278 8.15418C7.71098 8.11401 7.83669 8.06733 7.83941 8.11446C7.85736 8.42577 8.12859 8.82955 8.53376 9.38842C8.716 9.66467 8.68883 10.0605 8.66628 10.389C8.64702 10.6696 8.63113 10.901 8.75201 10.9668C8.816 11.0016 8.83886 11.0819 8.80307 11.146ZM11.3893 8.7971C11.4599 8.77893 11.5029 8.70638 11.4853 8.63507C11.4677 8.56375 11.3963 8.52066 11.3257 8.53883C11.1925 8.57314 11.0462 8.39305 10.869 8.17472C10.6614 7.91911 10.4114 7.61108 10.0897 7.53332C9.41219 7.40091 8.93844 7.29059 8.713 7.07515C8.67888 7.04254 8.61877 7.16241 8.56704 7.26559L8.56703 7.26559L8.56703 7.2656C8.53884 7.32183 8.51313 7.3731 8.49546 7.39202C8.4454 7.44566 8.2643 7.89576 8.31703 7.94615C8.53232 8.15188 9.084 8.16617 9.47925 8.17641L9.47927 8.17641C9.56845 8.17872 9.64966 8.18083 9.71725 8.18488L9.75646 8.18711C9.91585 8.19593 10.0578 8.20379 10.2293 8.32532C10.2544 8.34313 10.3438 8.40769 10.3467 8.4098L10.3468 8.40985C10.3864 8.43829 10.4186 8.46088 10.451 8.48276L10.4713 8.49643C10.6762 8.63504 11.0463 8.88542 11.3893 8.7971ZM2.29607 8.35383C2.24077 8.30549 2.23435 8.22142 2.28172 8.16607C2.51204 7.89697 2.95886 7.88977 3.20622 7.88578C3.21459 7.88564 3.22273 7.88551 3.23063 7.88537C3.26975 7.88469 3.30909 7.88472 3.35784 7.8853C3.35781 7.8853 3.47125 7.88699 3.50257 7.88716C3.71276 7.88833 3.83355 7.81335 3.96918 7.72916C3.98019 7.72232 3.99131 7.71542 4.00258 7.7085C4.06027 7.67305 4.12801 7.62818 4.20239 7.57892C4.53204 7.3606 4.99214 7.05588 5.2865 7.10092C5.3586 7.11195 5.46841 7.58452 5.45817 7.65718C5.45455 7.68281 5.4629 7.73956 5.47206 7.8018C5.48886 7.91599 5.50838 8.04866 5.46172 8.04152C5.15348 7.99435 4.70213 8.17571 4.07123 8.45582C3.76312 8.57665 3.38158 8.46777 3.06497 8.37742C2.79453 8.30024 2.57146 8.23659 2.48198 8.34114C2.4346 8.39649 2.35137 8.40217 2.29607 8.35383Z" fill="#FFC125"/>
<path d="M4.61286 11.1228L4.53809 11.1286V11.1286L4.61286 11.1228ZM4.75577 11.2454L4.75075 11.1706L4.75577 11.2454ZM5.06839 10.2709L5.12229 10.323L5.12227 10.3231L5.06839 10.2709ZM5.08536 10.2533L5.13931 10.3054L5.13926 10.3055L5.08536 10.2533ZM5.17526 10.1633L5.12286 10.1097L5.22795 10.2167L5.17526 10.1633ZM5.27891 10.0623L5.22618 10.009L5.22618 10.009L5.27891 10.0623ZM5.49713 9.62065L5.4241 9.60356L5.42413 9.60345L5.49713 9.62065ZM5.50614 9.58242L5.43314 9.56522L5.43319 9.565L5.50614 9.58242ZM5.5558 9.34951L5.48217 9.33455L5.48333 9.33019L5.5558 9.34951ZM5.5558 9.34951L5.62943 9.36446L5.62827 9.36883L5.5558 9.34951ZM5.98439 8.24493L5.93999 8.18448H5.93999L5.98439 8.24493ZM6.49911 8.51687L6.55903 8.47176V8.47176L6.49911 8.51687ZM6.61119 8.60931L6.56953 8.67179L6.56644 8.66949L6.61119 8.60931ZM6.61119 8.60931L6.65285 8.54682L6.65594 8.54912L6.61119 8.60931ZM6.77339 8.78613L6.72899 8.72569L6.77339 8.78613ZM6.08312 10.0623L6.15318 10.0893L6.15186 10.0923L6.08312 10.0623ZM5.31615 10.7184L5.2797 10.6529L5.31615 10.7184ZM4.87826 11.105L4.80348 11.1108V11.1108L4.87826 11.105ZM8.6224 11.1991L8.58654 11.2649V11.2649L8.6224 11.1991ZM8.80307 11.146L8.86857 11.1825V11.1825L8.80307 11.146ZM8.15602 10.353L8.22911 10.3362L8.22912 10.3363L8.15602 10.353ZM8.15055 10.3293L8.22362 10.3124L8.22364 10.3124L8.15055 10.3293ZM8.12403 10.2048L8.05049 10.2196L8.19751 10.1898L8.12403 10.2048ZM8.09576 10.0629L8.1692 10.0477L8.1692 10.0477L8.09576 10.0629ZM7.8442 9.63932L7.79009 9.69126L7.79001 9.69118L7.8442 9.63932ZM7.81704 9.61095L7.76286 9.66281L7.7627 9.66264L7.81704 9.61095ZM7.64662 9.4404L7.59408 9.49392L7.59403 9.49388L7.64662 9.4404ZM7.64659 9.44038L7.69866 9.38639L7.69918 9.3869L7.64659 9.44038ZM7.64658 9.44037L7.59452 9.49436L7.59404 9.49389L7.64658 9.44037ZM7.46421 8.19784L7.45901 8.12302L7.46421 8.19784ZM7.60278 8.15418L7.62888 8.22449L7.60278 8.15418ZM7.83941 8.11446L7.76453 8.11877V8.11877L7.83941 8.11446ZM8.53376 9.38842L8.59454 9.34435L8.59636 9.34712L8.53376 9.38842ZM8.66628 10.389L8.74111 10.3941V10.3941L8.66628 10.389ZM8.75201 10.9668L8.71615 11.0327V11.0327L8.75201 10.9668ZM11.3893 8.7971L11.408 8.86973L11.3893 8.7971ZM11.3257 8.53883L11.307 8.4662L11.3257 8.53883ZM10.869 8.17472L10.8107 8.22199L10.869 8.17472ZM10.0897 7.53332L10.1041 7.45965L10.1073 7.46042L10.0897 7.53332ZM8.713 7.07515L8.66119 7.12938H8.66119L8.713 7.07515ZM8.56704 7.26559L8.49715 7.23763L8.49999 7.23197L8.56704 7.26559ZM8.56703 7.26559L8.63691 7.29354L8.63412 7.29913L8.56703 7.26559ZM8.56703 7.2656L8.63411 7.29914L8.63408 7.29921L8.56703 7.2656ZM8.49546 7.39202L8.44064 7.34085V7.34085L8.49546 7.39202ZM8.31703 7.94615L8.36885 7.89192L8.31703 7.94615ZM9.47925 8.17641L9.48119 8.10143L9.48213 8.10147L9.47925 8.17641ZM9.47927 8.17641L9.47733 8.25139L9.47639 8.25136L9.47927 8.17641ZM9.71725 8.18488L9.71299 8.25976L9.71277 8.25974L9.71725 8.18488ZM9.75646 8.18711L9.75232 8.26199L9.7522 8.26199L9.75646 8.18711ZM10.2293 8.32532L10.1859 8.38651L10.2293 8.32532ZM10.3467 8.4098L10.3029 8.47064L10.3028 8.47059L10.3467 8.4098ZM10.3468 8.40985L10.3031 8.47077L10.3029 8.4707L10.3468 8.40985ZM10.451 8.48276L10.493 8.42058L10.493 8.42062L10.451 8.48276ZM10.4713 8.49643L10.5133 8.43429L10.5133 8.4343L10.4713 8.49643ZM2.28172 8.16607L2.3387 8.21484H2.3387L2.28172 8.16607ZM2.29607 8.35383L2.34543 8.29736L2.34543 8.29736L2.29607 8.35383ZM3.20622 7.88578L3.20501 7.81079H3.20502L3.20622 7.88578ZM3.23063 7.88537L3.23194 7.96036H3.23194L3.23063 7.88537ZM3.35784 7.8853L3.35873 7.81031L3.35716 7.9603L3.35784 7.8853ZM3.50257 7.88716L3.50299 7.81216H3.50299L3.50257 7.88716ZM3.96918 7.72916L4.00873 7.79288H4.00873L3.96918 7.72916ZM4.00258 7.7085L3.96331 7.6446H3.96331L4.00258 7.7085ZM4.20239 7.57892L4.16098 7.51639L4.20239 7.57892ZM5.2865 7.10092L5.29785 7.02678H5.29785L5.2865 7.10092ZM5.45817 7.65718L5.53243 7.66765V7.66765L5.45817 7.65718ZM5.47206 7.8018L5.54626 7.79088H5.54626L5.47206 7.8018ZM5.46172 8.04152L5.45037 8.11565L5.46172 8.04152ZM4.07123 8.45582L4.1017 8.52444L4.09861 8.52565L4.07123 8.45582ZM3.06497 8.37742L3.08555 8.3053H3.08555L3.06497 8.37742ZM2.48198 8.34114L2.53896 8.38991H2.53896L2.48198 8.34114ZM4.68764 11.117C4.69005 11.1481 4.71792 11.1728 4.75075 11.1706L4.7608 11.3203C4.64705 11.3279 4.54696 11.2428 4.53809 11.1286L4.68764 11.117ZM5.12227 10.3231C5.03579 10.4124 4.91993 10.5323 4.82859 10.6721C4.73696 10.8123 4.67576 10.964 4.68764 11.117L4.53809 11.1286C4.52255 10.9284 4.60306 10.743 4.70302 10.59C4.80328 10.4366 4.9289 10.3071 5.01451 10.2187L5.12227 10.3231ZM5.13926 10.3055L5.12229 10.323L5.01448 10.2187L5.03146 10.2012L5.13926 10.3055ZM5.22766 10.217C5.19311 10.2507 5.16582 10.278 5.13931 10.3054L5.03141 10.2012C5.05926 10.1724 5.08766 10.1441 5.12286 10.1097L5.22766 10.217ZM5.33165 10.1156C5.32025 10.1269 5.29407 10.1524 5.27103 10.1748C5.25944 10.1861 5.24856 10.1967 5.24058 10.2045C5.23658 10.2083 5.23331 10.2115 5.23104 10.2137C5.22991 10.2148 5.22902 10.2157 5.22842 10.2163C5.22812 10.2166 5.22789 10.2168 5.22773 10.2169C5.22765 10.217 5.22759 10.2171 5.22755 10.2171C5.22753 10.2171 5.22752 10.2171 5.22751 10.2171C5.2275 10.2172 5.22749 10.2172 5.22749 10.2172C5.22748 10.2172 5.22748 10.2172 5.22747 10.2172C5.22745 10.2172 5.12163 10.2158 5.12257 10.11L5.22795 10.2167C5.22888 10.1109 5.12306 10.1095 5.12305 10.1095C5.12304 10.1095 5.12304 10.1095 5.12304 10.1095C5.12303 10.1095 5.12303 10.1095 5.12304 10.1095C5.12305 10.1095 5.12306 10.1095 5.12308 10.1095C5.12312 10.1094 5.12317 10.1094 5.12325 10.1093C5.1234 10.1092 5.12363 10.1089 5.12393 10.1086C5.12453 10.1081 5.12541 10.1072 5.12654 10.1061C5.12881 10.1039 5.13207 10.1007 5.13605 10.0969C5.14402 10.0891 5.15488 10.0786 5.16643 10.0673C5.18964 10.0447 5.21531 10.0197 5.22618 10.009L5.33165 10.1156ZM5.57016 9.63774C5.53343 9.79469 5.49738 9.95175 5.33165 10.1156L5.22618 10.009C5.35936 9.87727 5.38809 9.75747 5.4241 9.60356L5.57016 9.63774ZM5.57914 9.59962L5.57013 9.63785L5.42413 9.60345L5.43314 9.56522L5.57914 9.59962ZM5.6293 9.36444C5.61162 9.45147 5.59517 9.53247 5.57909 9.59984L5.43319 9.565C5.44856 9.50064 5.46446 9.42241 5.4823 9.33458L5.6293 9.36444ZM5.62827 9.36883L5.62827 9.36884L5.48333 9.33019L5.48333 9.33018L5.62827 9.36883ZM6.02879 8.30537C5.92963 8.37821 5.84797 8.53638 5.7809 8.74135C5.71518 8.94217 5.66883 9.16988 5.6293 9.36444L5.4823 9.33457C5.5215 9.14166 5.56944 8.90523 5.63834 8.6947C5.70587 8.48832 5.79915 8.28794 5.93999 8.18448L6.02879 8.30537ZM6.43919 8.56198C6.43986 8.56287 6.43528 8.55753 6.41974 8.54504C6.40601 8.534 6.38764 8.52045 6.36568 8.50527C6.32185 8.47497 6.26624 8.4399 6.21008 8.40787C6.15353 8.37562 6.09861 8.3477 6.05572 8.33066C6.03394 8.32201 6.01826 8.31738 6.00853 8.31567C6.00368 8.31481 6.00294 8.31517 6.00509 8.315C6.00677 8.31487 6.01711 8.31395 6.02879 8.30537L5.93999 8.18448C5.95901 8.17051 5.97946 8.16652 5.99365 8.16544C6.00831 8.16432 6.02248 8.16581 6.03461 8.16795C6.05883 8.17223 6.0853 8.18101 6.11109 8.19126C6.16332 8.212 6.22513 8.24377 6.2844 8.27758C6.34406 8.3116 6.40335 8.34896 6.45098 8.38189C6.47476 8.39832 6.49626 8.41409 6.51372 8.42813C6.52938 8.44072 6.54732 8.45622 6.55903 8.47176L6.43919 8.56198ZM6.56644 8.66949C6.54153 8.65097 6.5162 8.63216 6.49516 8.6153C6.47604 8.59998 6.45342 8.58088 6.43919 8.56198L6.55903 8.47176C6.55888 8.47157 6.56082 8.47401 6.56684 8.47954C6.57241 8.48466 6.57976 8.49088 6.58895 8.49823C6.60743 8.51305 6.63037 8.53011 6.65594 8.54912L6.56644 8.66949ZM6.56959 8.67171L6.56958 8.67171L6.65279 8.5469L6.65279 8.54691L6.56959 8.67171ZM6.72899 8.72569C6.71839 8.73347 6.70841 8.74755 6.70654 8.76561C6.70503 8.78017 6.70971 8.78927 6.70989 8.78965C6.7099 8.78967 6.70543 8.78247 6.68958 8.76739C6.65989 8.73913 6.61408 8.70491 6.56644 8.6695L6.65594 8.54912C6.70093 8.58257 6.75523 8.62279 6.793 8.65874C6.81088 8.67576 6.83196 8.69811 6.84434 8.72315C6.85072 8.73603 6.85828 8.7565 6.85574 8.78106C6.85283 8.80912 6.83789 8.83181 6.81779 8.84658L6.72899 8.72569ZM6.01313 10.0354C6.13706 9.71351 6.24808 9.43715 6.36025 9.21774C6.47179 8.99957 6.58884 8.82864 6.72899 8.72569L6.81779 8.84658C6.70663 8.92823 6.60256 9.0733 6.49381 9.28602C6.38569 9.4975 6.27723 9.76693 6.15311 10.0893L6.01313 10.0354ZM5.2797 10.6529C5.4244 10.5724 5.57822 10.4867 5.71242 10.3845C5.84658 10.2822 5.95534 10.1675 6.01439 10.0323L6.15186 10.0923C6.07847 10.2604 5.94763 10.3938 5.80335 10.5038C5.65911 10.6137 5.49566 10.7044 5.35259 10.784L5.2797 10.6529ZM4.80348 11.1108C4.79494 11.0008 4.87287 10.9163 4.95493 10.8523C5.04061 10.7856 5.15864 10.7202 5.2797 10.6529L5.35259 10.784C5.22786 10.8533 5.12161 10.9126 5.04714 10.9706C4.96904 11.0315 4.95092 11.072 4.95303 11.0992L4.80348 11.1108ZM4.75075 11.1706C4.78298 11.1684 4.80585 11.1413 4.80348 11.1108L4.95303 11.0992C4.96195 11.214 4.87513 11.3126 4.7608 11.3203L4.75075 11.1706ZM8.65826 11.1332C8.68564 11.1481 8.72155 11.1382 8.73758 11.1095L8.86857 11.1825C8.81302 11.2821 8.68714 11.3197 8.58654 11.2649L8.65826 11.1332ZM8.22912 10.3363C8.25692 10.4574 8.2944 10.6199 8.36189 10.7727C8.42961 10.9259 8.52351 11.0598 8.65826 11.1332L8.58654 11.2649C8.41018 11.1689 8.29856 11.0005 8.22469 10.8333C8.15061 10.6656 8.11044 10.4898 8.08292 10.3698L8.22912 10.3363ZM8.22364 10.3124L8.22911 10.3362L8.08292 10.3698L8.07745 10.3461L8.22364 10.3124ZM8.19757 10.1901C8.20705 10.2375 8.21504 10.2752 8.22362 10.3124L8.07747 10.3461C8.06845 10.3071 8.06015 10.2678 8.05049 10.2196L8.19757 10.1901ZM8.1692 10.0477C8.17245 10.0634 8.17959 10.0993 8.18584 10.1308C8.18898 10.1466 8.19193 10.1615 8.19408 10.1725C8.19516 10.1779 8.19605 10.1824 8.19666 10.1855C8.19696 10.187 8.1972 10.1883 8.19737 10.1891C8.19745 10.1895 8.19751 10.1898 8.19755 10.19C8.19757 10.1901 8.19759 10.1902 8.1976 10.1903C8.1976 10.1903 8.19761 10.1903 8.19761 10.1903C8.19761 10.1903 8.19761 10.1903 8.19762 10.1903C8.19762 10.1904 8.19762 10.1904 8.19762 10.1904C8.19762 10.1904 8.13876 10.2784 8.05055 10.2199L8.19751 10.1898C8.1093 10.1313 8.05043 10.2193 8.05044 10.2193C8.05044 10.2193 8.05044 10.2193 8.05044 10.2193C8.05044 10.2193 8.05044 10.2193 8.05044 10.2193C8.05044 10.2193 8.05043 10.2193 8.05043 10.2193C8.05042 10.2192 8.0504 10.2191 8.05038 10.219C8.05034 10.2188 8.05028 10.2185 8.0502 10.2181C8.05004 10.2173 8.0498 10.2161 8.04949 10.2145C8.04888 10.2114 8.048 10.207 8.04693 10.2015C8.04477 10.1906 8.04184 10.1758 8.0387 10.16C8.03241 10.1282 8.0254 10.093 8.02231 10.0781L8.1692 10.0477ZM7.8983 9.58739C8.00993 9.70367 8.12202 9.81945 8.1692 10.0477L8.02231 10.0781C7.98439 9.89463 7.89956 9.8053 7.79009 9.69126L7.8983 9.58739ZM7.87122 9.55909L7.89838 9.58747L7.79001 9.69118L7.76286 9.66281L7.87122 9.55909ZM7.69915 9.38688C7.76369 9.45023 7.82354 9.50897 7.87138 9.55926L7.7627 9.66264C7.71701 9.61461 7.65922 9.55787 7.59408 9.49392L7.69915 9.38688ZM7.69918 9.3869L7.6992 9.38693L7.59403 9.49388L7.59401 9.49386L7.69918 9.3869ZM7.69864 9.38638L7.69865 9.38639L7.59453 9.49437L7.59452 9.49436L7.69864 9.38638ZM7.0308 8.48141C7.0308 8.5346 7.05029 8.59962 7.0899 8.67543C7.12912 8.7505 7.18531 8.83094 7.25205 8.91357C7.38572 9.07907 7.55518 9.24555 7.69912 9.38685L7.59404 9.49389C7.45136 9.35383 7.27543 9.18125 7.13536 9.00782C7.06523 8.92099 7.00246 8.832 6.95695 8.7449C6.91182 8.65853 6.8808 8.56864 6.8808 8.48141H7.0308ZM7.4694 8.27266C7.46954 8.27265 7.46889 8.27269 7.46726 8.27293C7.46569 8.27316 7.46358 8.27352 7.46089 8.27405C7.45546 8.27512 7.44849 8.27671 7.44002 8.27889C7.4231 8.28324 7.40174 8.28954 7.37738 8.29757C7.32863 8.31366 7.27003 8.33598 7.21392 8.36181C7.15714 8.38795 7.10616 8.41622 7.07058 8.44351C7.05277 8.45717 7.04138 8.46865 7.03502 8.47729C7.02848 8.48616 7.0308 8.48709 7.0308 8.48141H6.8808C6.8808 8.44382 6.89671 8.41213 6.91426 8.38831C6.93198 8.36426 6.95517 8.34298 6.9793 8.32448C7.02761 8.28743 7.09 8.25373 7.15118 8.22556C7.21302 8.19709 7.27695 8.17276 7.33039 8.15513C7.38062 8.13856 7.43002 8.12503 7.45901 8.12302L7.4694 8.27266ZM7.62888 8.22449C7.59978 8.2353 7.57021 8.24629 7.54461 8.25475C7.52134 8.26245 7.493 8.27102 7.4694 8.27266L7.45901 8.12302C7.45877 8.12303 7.46187 8.12273 7.46979 8.1207C7.47711 8.11882 7.48633 8.11604 7.49751 8.11234C7.52 8.1049 7.5468 8.09496 7.57667 8.08387L7.62888 8.22449ZM7.76453 8.11877C7.76529 8.1319 7.77166 8.14794 7.78579 8.15934C7.79718 8.16854 7.80736 8.16957 7.80778 8.16962C7.8078 8.16963 7.79933 8.16946 7.77805 8.17453C7.73818 8.18404 7.68453 8.20383 7.62888 8.22449L7.57667 8.08387C7.62923 8.06436 7.69253 8.04072 7.74325 8.02863C7.76726 8.0229 7.79749 8.01739 7.82523 8.02064C7.83951 8.02231 7.8608 8.02712 7.88001 8.04263C7.90196 8.06034 7.91285 8.08523 7.91428 8.11014L7.76453 8.11877ZM8.47304 9.43244C8.2706 9.15321 8.0993 8.90959 7.97637 8.69601C7.85415 8.48364 7.77454 8.29238 7.76453 8.11877L7.91428 8.11014C7.92222 8.24784 7.98721 8.41412 8.10638 8.62119C8.22486 8.82705 8.39175 9.06475 8.59448 9.3444L8.47304 9.43244ZM8.59146 10.3839C8.6028 10.2187 8.61472 10.043 8.60203 9.87476C8.58934 9.70656 8.55241 9.55289 8.47115 9.42972L8.59636 9.34712C8.69735 9.5002 8.73796 9.68258 8.75161 9.86348C8.76525 10.0443 8.75232 10.2308 8.74111 10.3941L8.59146 10.3839ZM8.71615 11.0327C8.61923 10.9799 8.59082 10.8685 8.58187 10.7649C8.57253 10.6566 8.58197 10.522 8.59146 10.3839L8.74111 10.3941C8.73133 10.5365 8.7232 10.6579 8.73132 10.752C8.73983 10.8506 8.76391 10.8879 8.78786 10.9009L8.71615 11.0327ZM8.73758 11.1095C8.75332 11.0812 8.74298 11.0473 8.71615 11.0327L8.78786 10.9009C8.88901 10.956 8.9244 11.0825 8.86857 11.1825L8.73758 11.1095ZM11.5581 8.61713C11.5854 8.72782 11.519 8.84116 11.408 8.86973L11.3706 8.72446C11.4008 8.71669 11.4203 8.68495 11.4125 8.65301L11.5581 8.61713ZM11.307 8.4662C11.4185 8.43748 11.5307 8.50586 11.5581 8.61713L11.4125 8.65301C11.4047 8.62164 11.374 8.60384 11.3444 8.61146L11.307 8.4662ZM10.9272 8.12745C11.0171 8.23824 11.094 8.33258 11.1641 8.39584C11.2376 8.46219 11.2806 8.473 11.307 8.4662L11.3444 8.61146C11.2376 8.63898 11.1408 8.5769 11.0636 8.50719C10.9829 8.43441 10.8981 8.32953 10.8107 8.22199L10.9272 8.12745ZM10.1073 7.46042C10.2855 7.50351 10.4396 7.6092 10.573 7.73219C10.7063 7.85515 10.824 8.00036 10.9272 8.12745L10.8107 8.22199C10.7064 8.09346 10.5953 7.95685 10.4713 7.84245C10.3473 7.72809 10.2155 7.64089 10.072 7.60623L10.1073 7.46042ZM8.76482 7.02093C8.86454 7.11622 9.02547 7.19352 9.25385 7.26368C9.48089 7.33343 9.76506 7.39346 10.104 7.45972L10.0753 7.60693C9.73679 7.54078 9.44535 7.47944 9.2098 7.40707C8.97557 7.33511 8.78691 7.24952 8.66119 7.12938L8.76482 7.02093ZM8.49999 7.23197C8.52512 7.18185 8.5553 7.12139 8.58415 7.07796C8.5978 7.0574 8.61615 7.03275 8.63865 7.01621C8.65024 7.0077 8.66909 6.99669 8.69371 6.99493C8.72184 6.99292 8.74678 7.0037 8.76482 7.02093L8.66119 7.12938C8.67069 7.13846 8.68629 7.14585 8.7044 7.14455C8.719 7.14351 8.72715 7.13732 8.72749 7.13707C8.72752 7.13706 8.7212 7.14272 8.7091 7.16094C8.68643 7.19508 8.66069 7.24615 8.63408 7.2992L8.49999 7.23197ZM8.4974 7.23774L8.4974 7.23773L8.63667 7.29344L8.63667 7.29344L8.4974 7.23774ZM8.49995 7.23205L8.49995 7.23205L8.63412 7.29913L8.63411 7.29914L8.49995 7.23205ZM8.44064 7.34085C8.44047 7.34102 8.44254 7.33869 8.44694 7.3318C8.45101 7.32543 8.45586 7.31711 8.46151 7.30679C8.47288 7.28601 8.48571 7.26046 8.49999 7.23198L8.63408 7.29921C8.62016 7.32696 8.60603 7.35517 8.59308 7.37881C8.58132 7.40031 8.56643 7.42591 8.55029 7.4432L8.44064 7.34085ZM8.26521 8.00037C8.24815 7.98406 8.24068 7.96462 8.23714 7.95083C8.23349 7.93658 8.2325 7.92237 8.2325 7.91006C8.23251 7.88546 8.23656 7.85786 8.24217 7.83069C8.25353 7.77565 8.27409 7.70926 8.29709 7.64502C8.32024 7.58036 8.34673 7.51548 8.37089 7.46286C8.38294 7.43659 8.39474 7.41268 8.40553 7.39304C8.41521 7.37543 8.42736 7.35507 8.44064 7.34085L8.55029 7.4432C8.55105 7.44238 8.54659 7.44782 8.53699 7.46529C8.5285 7.48074 8.51834 7.50118 8.50721 7.52544C8.48498 7.57387 8.4601 7.63472 8.43831 7.69559C8.41637 7.75688 8.39841 7.81581 8.38908 7.86101C8.38434 7.88396 8.38251 7.90021 8.3825 7.91008C8.3825 7.91501 8.38298 7.91568 8.38245 7.91359C8.38203 7.91196 8.37932 7.90193 8.36885 7.89192L8.26521 8.00037ZM9.47731 8.25139C9.28052 8.24629 9.03936 8.24013 8.82006 8.20884C8.60509 8.17816 8.39156 8.1211 8.26521 8.00037L8.36885 7.89192C8.45779 7.97693 8.62775 8.02988 8.84125 8.06034C9.05043 8.09019 9.28273 8.0963 9.48119 8.10144L9.47731 8.25139ZM9.47639 8.25136L9.47637 8.25136L9.48213 8.10147L9.48215 8.10147L9.47639 8.25136ZM9.71277 8.25974C9.64672 8.25578 9.56692 8.25371 9.47733 8.25139L9.48121 8.10144C9.56998 8.10374 9.65261 8.10587 9.72174 8.11001L9.71277 8.25974ZM9.7522 8.26199L9.71299 8.25976L9.72151 8.11L9.76073 8.11223L9.7522 8.26199ZM10.1859 8.38651C10.0331 8.27822 9.91015 8.27073 9.75232 8.26199L9.76061 8.11222C9.92156 8.12114 10.0825 8.12937 10.2727 8.26412L10.1859 8.38651ZM10.3028 8.47059C10.2997 8.46834 10.2107 8.40407 10.1859 8.38651L10.2727 8.26412C10.2982 8.28219 10.3879 8.34705 10.3907 8.34901L10.3028 8.47059ZM10.3029 8.4707L10.3029 8.47064L10.3906 8.34896L10.3907 8.34901L10.3029 8.4707ZM10.4091 8.54494C10.3759 8.52252 10.343 8.49947 10.3031 8.47077L10.3905 8.34893C10.4298 8.3771 10.4614 8.39924 10.493 8.42058L10.4091 8.54494ZM10.4293 8.55857L10.4091 8.5449L10.493 8.42062L10.5133 8.43429L10.4293 8.55857ZM11.408 8.86973C11.2136 8.9198 11.0171 8.8727 10.849 8.80082C10.6805 8.72873 10.5312 8.6275 10.4292 8.55855L10.5133 8.4343C10.6163 8.50396 10.7545 8.59723 10.908 8.66291C11.062 8.72879 11.2221 8.76272 11.3706 8.72446L11.408 8.86973ZM2.3387 8.21484C2.31843 8.23853 2.32066 8.27571 2.34543 8.29736L2.24671 8.41029C2.16088 8.33526 2.15027 8.20432 2.22474 8.1173L2.3387 8.21484ZM3.20743 7.96077C3.08312 7.96277 2.91641 7.96565 2.75297 7.99991C2.58901 8.03429 2.43846 8.09829 2.3387 8.21484L2.22474 8.1173C2.35531 7.96475 2.54332 7.89061 2.72219 7.85311C2.90158 7.81549 3.08196 7.81277 3.20501 7.81079L3.20743 7.96077ZM3.23194 7.96036C3.22398 7.9605 3.21579 7.96063 3.20743 7.96077L3.20502 7.81079C3.21339 7.81065 3.22148 7.81052 3.22932 7.81038L3.23194 7.96036ZM3.35695 7.9603C3.30866 7.95972 3.27009 7.9597 3.23194 7.96036L3.22932 7.81038C3.2694 7.80969 3.30953 7.80972 3.35873 7.81031L3.35695 7.9603ZM3.50215 7.96216C3.48611 7.96207 3.44957 7.9616 3.41742 7.96116C3.40126 7.96094 3.38609 7.96072 3.37495 7.96056C3.36939 7.96048 3.36483 7.96041 3.36166 7.96037C3.36008 7.96034 3.35885 7.96033 3.35801 7.96031C3.35759 7.96031 3.35727 7.9603 3.35705 7.9603C3.35694 7.9603 3.35686 7.9603 3.3568 7.9603C3.35678 7.9603 3.35675 7.9603 3.35674 7.9603C3.35673 7.9603 3.35672 7.96029 3.35672 7.96029C3.35671 7.96029 3.3567 7.96029 3.3567 7.96029C3.35668 7.96029 3.28284 7.88438 3.35852 7.81031L3.35716 7.9603C3.43283 7.88623 3.35899 7.81031 3.35898 7.81031C3.35898 7.81031 3.35897 7.81031 3.35897 7.81031C3.35897 7.81031 3.35897 7.81031 3.35898 7.81031C3.35899 7.81031 3.35901 7.81031 3.35903 7.81031C3.35909 7.81031 3.35917 7.81031 3.35927 7.81032C3.35949 7.81032 3.35981 7.81032 3.36022 7.81033C3.36106 7.81034 3.36229 7.81036 3.36386 7.81038C3.36702 7.81043 3.37157 7.8105 3.37712 7.81058C3.38823 7.81074 3.40336 7.81095 3.41948 7.81117C3.45187 7.81162 3.4877 7.81208 3.50299 7.81216L3.50215 7.96216ZM4.00873 7.79288C3.87178 7.8779 3.73523 7.96346 3.50215 7.96216L3.50299 7.81216C3.6903 7.81321 3.79532 7.74881 3.92962 7.66544L4.00873 7.79288ZM4.04184 7.7724C4.03074 7.77922 4.01977 7.78603 4.00873 7.79288L3.92962 7.66544C3.94062 7.65862 3.95187 7.65163 3.96331 7.6446L4.04184 7.7724ZM4.2438 7.64145C4.16976 7.69049 4.10085 7.73614 4.04184 7.7724L3.96331 7.6446C4.01969 7.60996 4.08625 7.56588 4.16098 7.51639L4.2438 7.64145ZM5.27516 7.17506C5.15354 7.15645 4.98395 7.21055 4.79159 7.30806C4.60312 7.40359 4.40933 7.53183 4.2438 7.64145L4.16098 7.51639C4.3251 7.40769 4.52618 7.27441 4.72377 7.17426C4.91746 7.07609 5.1251 7.00035 5.29785 7.02678L5.27516 7.17506ZM5.3839 7.64671C5.38375 7.64781 5.38428 7.64079 5.38213 7.62097C5.38023 7.60345 5.37682 7.58088 5.37202 7.55463C5.36246 7.5022 5.34793 7.43809 5.33087 7.37573C5.31369 7.31294 5.2946 7.25436 5.27632 7.21198C5.26703 7.19047 5.25921 7.17611 5.25355 7.16802C5.25073 7.16398 5.24995 7.1637 5.25159 7.16511C5.25287 7.16621 5.26083 7.17286 5.27516 7.17506L5.29785 7.02678C5.32118 7.03035 5.33845 7.042 5.34925 7.05126C5.36042 7.06084 5.36938 7.07192 5.37644 7.082C5.39054 7.10215 5.40305 7.12708 5.41404 7.15256C5.43631 7.20417 5.45755 7.27034 5.47555 7.33615C5.49368 7.40239 5.50919 7.47073 5.51959 7.5277C5.52478 7.55613 5.52883 7.58249 5.53125 7.60476C5.53342 7.62474 5.53515 7.64838 5.53243 7.66765L5.3839 7.64671ZM5.39786 7.81271C5.39334 7.782 5.38874 7.75079 5.38578 7.72399C5.38309 7.69963 5.3806 7.67013 5.3839 7.64671L5.53243 7.66765C5.53247 7.66741 5.53212 7.67051 5.53246 7.67867C5.53278 7.68623 5.53358 7.69583 5.53487 7.70753C5.53747 7.73107 5.54162 7.75935 5.54626 7.79088L5.39786 7.81271ZM5.47306 7.96738C5.46007 7.96539 5.44306 7.96829 5.42896 7.97974C5.4176 7.98897 5.41447 7.99871 5.41433 7.99911C5.41433 7.99913 5.41625 7.99088 5.41571 7.969C5.4147 7.92803 5.4065 7.87144 5.39786 7.81271L5.54626 7.79088C5.55442 7.84635 5.56438 7.91318 5.56567 7.96531C5.56627 7.98998 5.56538 8.02069 5.55643 8.04715C5.55183 8.06077 5.5427 8.0806 5.52354 8.09616C5.50164 8.11395 5.47503 8.11943 5.45037 8.11565L5.47306 7.96738ZM4.0408 8.38728C4.35602 8.24732 4.62993 8.13041 4.86439 8.05458C5.09753 7.97918 5.30117 7.94108 5.47306 7.96738L5.45037 8.11565C5.31403 8.09479 5.13787 8.12378 4.91055 8.1973C4.68456 8.27039 4.41735 8.38421 4.10167 8.52437L4.0408 8.38728ZM3.08555 8.3053C3.24476 8.35073 3.4141 8.39892 3.58132 8.42149C3.74849 8.44405 3.90648 8.43987 4.04385 8.386L4.09861 8.52565C3.92787 8.5926 3.74104 8.5944 3.56126 8.57014C3.38153 8.54588 3.2018 8.49446 3.04439 8.44954L3.08555 8.3053ZM2.425 8.29237C2.49675 8.20854 2.6116 8.2039 2.71485 8.2167C2.82266 8.23007 2.95235 8.26729 3.08555 8.3053L3.04439 8.44954C2.90715 8.41038 2.7901 8.37718 2.69639 8.36556C2.59812 8.35338 2.55669 8.36919 2.53896 8.38991L2.425 8.29237ZM2.34543 8.29736C2.36975 8.31863 2.40514 8.31558 2.425 8.29237L2.53896 8.38991C2.46407 8.4774 2.33298 8.48572 2.24671 8.41029L2.34543 8.29736Z" fill="#984111"/>
<path fill-rule="evenodd" clip-rule="evenodd" d="M6.99941 2.0592C6.87197 2.0592 6.76398 2.15306 6.74622 2.27926L6.33275 5.2171H7.66608L7.25261 2.27926C7.23485 2.15306 7.12686 2.0592 6.99941 2.0592ZM10.4931 3.50634C10.403 3.41622 10.2603 3.40623 10.1585 3.4829L7.78873 5.2679L8.73154 6.21071L10.5165 3.84097C10.5932 3.73918 10.5832 3.59645 10.4931 3.50634ZM11.7202 6.74683C11.8464 6.76459 11.9402 6.87258 11.9402 7.00002C11.9402 7.12747 11.8464 7.23546 11.7202 7.25322L8.78234 7.66669V6.33336L11.7202 6.74683ZM10.4931 10.4937C10.5832 10.4036 10.5932 10.2609 10.5165 10.1591L8.73154 7.78934L7.78873 8.73215L10.1585 10.5171C10.2603 10.5938 10.403 10.5838 10.4931 10.4937ZM7.25261 11.7208C7.23485 11.847 7.12686 11.9408 6.99941 11.9408C6.87197 11.9408 6.76398 11.847 6.74622 11.7208L6.33275 8.78295H7.66608L7.25261 11.7208ZM3.50573 10.4937C3.59584 10.5838 3.73857 10.5938 3.84036 10.5171L6.2101 8.73215L5.26729 7.78934L3.48229 10.1591C3.40562 10.2609 3.41561 10.4036 3.50573 10.4937ZM2.27865 7.25322C2.15245 7.23546 2.05859 7.12747 2.05859 7.00002C2.05859 6.87258 2.15245 6.76459 2.27865 6.74683L5.21649 6.33336V7.66669L2.27865 7.25322ZM3.50573 3.50634C3.41561 3.59645 3.40562 3.73918 3.48229 3.84097L5.26729 6.21071L6.2101 5.2679L3.84036 3.4829C3.73857 3.40623 3.59584 3.41622 3.50573 3.50634Z" fill="#FFC125"/>
<path d="M6.74622 2.27926L6.67195 2.26881V2.26881L6.74622 2.27926ZM6.33275 5.2171L6.25848 5.20665L6.24645 5.2921H6.33275V5.2171ZM7.66608 5.2171V5.2921H7.75238L7.74035 5.20665L7.66608 5.2171ZM7.25261 2.27926L7.32688 2.26881V2.26881L7.25261 2.27926ZM10.1585 3.4829L10.1133 3.423V3.423L10.1585 3.4829ZM7.78873 5.2679L7.7436 5.20799L7.67468 5.25991L7.7357 5.32093L7.78873 5.2679ZM8.73154 6.21071L8.6785 6.26374L8.73952 6.32476L8.79144 6.25584L8.73154 6.21071ZM10.5165 3.84097L10.4566 3.79585L10.5165 3.84097ZM11.7202 6.74683L11.7097 6.8211L11.7202 6.74683ZM11.7202 7.25322L11.7306 7.32749L11.7202 7.25322ZM8.78234 7.66669H8.70734V7.75299L8.79279 7.74096L8.78234 7.66669ZM8.78234 6.33336L8.79279 6.25909L8.70734 6.24706V6.33336H8.78234ZM10.5165 10.1591L10.5764 10.114L10.5165 10.1591ZM10.4931 10.4937L10.5461 10.5467L10.4931 10.4937ZM8.73154 7.78934L8.79144 7.74421L8.73952 7.67529L8.67851 7.73631L8.73154 7.78934ZM7.78873 8.73215L7.7357 8.67912L7.67468 8.74013L7.7436 8.79205L7.78873 8.73215ZM10.1585 10.5171L10.2036 10.4572L10.2036 10.4572L10.1585 10.5171ZM7.25261 11.7208L7.17834 11.7103L7.25261 11.7208ZM6.74622 11.7208L6.67195 11.7312L6.74622 11.7208ZM6.33275 8.78295V8.70795H6.24645L6.25848 8.7934L6.33275 8.78295ZM7.66608 8.78295L7.74035 8.7934L7.75238 8.70795H7.66608V8.78295ZM3.84036 10.5171L3.79524 10.4572V10.4572L3.84036 10.5171ZM3.50573 10.4937L3.45269 10.5467H3.45269L3.50573 10.4937ZM6.2101 8.73215L6.25522 8.79206L6.32415 8.74014L6.26313 8.67912L6.2101 8.73215ZM5.26729 7.78934L5.32032 7.73631L5.2593 7.67529L5.20738 7.74422L5.26729 7.78934ZM3.48229 10.1591L3.5422 10.2042L3.5422 10.2042L3.48229 10.1591ZM2.27865 7.25322L2.26819 7.32749H2.26819L2.27865 7.25322ZM2.27865 6.74683L2.26819 6.67256H2.26819L2.27865 6.74683ZM5.21649 6.33336H5.29149V6.24706L5.20604 6.25909L5.21649 6.33336ZM5.21649 7.66669L5.20604 7.74096L5.29149 7.75299V7.66669H5.21649ZM3.48229 3.84097L3.5422 3.79585L3.48229 3.84097ZM3.50573 3.50634L3.45269 3.4533L3.50573 3.50634ZM5.26729 6.21071L5.20738 6.25584L5.2593 6.32476L5.32032 6.26374L5.26729 6.21071ZM6.2101 5.2679L6.26313 5.32093L6.32415 5.25991L6.25522 5.20799L6.2101 5.2679ZM3.84036 3.4829L3.79524 3.54281L3.84036 3.4829ZM6.82049 2.28971C6.83304 2.20053 6.90935 2.1342 6.99941 2.1342V1.9842C6.83459 1.9842 6.69493 2.10559 6.67195 2.26881L6.82049 2.28971ZM6.40702 5.22755L6.82049 2.28971L6.67195 2.26881L6.25848 5.20665L6.40702 5.22755ZM7.66608 5.1421H6.33275V5.2921H7.66608V5.1421ZM7.17834 2.28971L7.59181 5.22755L7.74035 5.20665L7.32688 2.26881L7.17834 2.28971ZM6.99941 2.1342C7.08948 2.1342 7.16579 2.20053 7.17834 2.28971L7.32688 2.26881C7.3039 2.10559 7.16424 1.9842 6.99941 1.9842V2.1342ZM10.2036 3.54281C10.2755 3.48862 10.3764 3.49569 10.4401 3.55937L10.5461 3.4533C10.4296 3.33675 10.245 3.32383 10.1133 3.423L10.2036 3.54281ZM7.83385 5.32781L10.2036 3.54281L10.1133 3.423L7.7436 5.20799L7.83385 5.32781ZM8.78457 6.15768L7.84176 5.21487L7.7357 5.32093L8.6785 6.26374L8.78457 6.15768ZM10.4566 3.79585L8.67163 6.16559L8.79144 6.25584L10.5764 3.8861L10.4566 3.79585ZM10.4401 3.55937C10.5038 3.62305 10.5108 3.72391 10.4566 3.79585L10.5764 3.8861C10.6756 3.75444 10.6627 3.56985 10.5461 3.4533L10.4401 3.55937ZM12.0152 7.00002C12.0152 6.8352 11.8939 6.69554 11.7306 6.67256L11.7097 6.8211C11.7989 6.83365 11.8652 6.90996 11.8652 7.00002H12.0152ZM11.7306 7.32749C11.8939 7.30451 12.0152 7.16485 12.0152 7.00002H11.8652C11.8652 7.09009 11.7989 7.1664 11.7097 7.17895L11.7306 7.32749ZM8.79279 7.74096L11.7306 7.32749L11.7097 7.17895L8.77189 7.59242L8.79279 7.74096ZM8.70734 6.33336V7.66669H8.85734V6.33336H8.70734ZM11.7306 6.67256L8.79279 6.25909L8.77189 6.40763L11.7097 6.8211L11.7306 6.67256ZM10.4566 10.2042C10.5108 10.2761 10.5038 10.377 10.4401 10.4407L10.5461 10.5467C10.6627 10.4302 10.6756 10.2456 10.5764 10.114L10.4566 10.2042ZM8.67163 7.83446L10.4566 10.2042L10.5764 10.114L8.79144 7.74421L8.67163 7.83446ZM7.84176 8.78518L8.78457 7.84237L8.67851 7.73631L7.7357 8.67912L7.84176 8.78518ZM10.2036 10.4572L7.83385 8.67224L7.7436 8.79205L10.1133 10.5771L10.2036 10.4572ZM10.4401 10.4407C10.3764 10.5044 10.2755 10.5114 10.2036 10.4572L10.1133 10.5771C10.245 10.6762 10.4296 10.6633 10.5461 10.5467L10.4401 10.4407ZM6.99941 12.0158C7.16424 12.0158 7.3039 11.8945 7.32687 11.7312L7.17834 11.7103C7.16579 11.7995 7.08948 11.8658 6.99941 11.8658V12.0158ZM6.67195 11.7312C6.69493 11.8945 6.83459 12.0158 6.99941 12.0158V11.8658C6.90935 11.8658 6.83304 11.7995 6.82049 11.7103L6.67195 11.7312ZM6.25848 8.7934L6.67195 11.7312L6.82049 11.7103L6.40702 8.7725L6.25848 8.7934ZM7.66608 8.70795H6.33275V8.85795H7.66608V8.70795ZM7.32687 11.7312L7.74035 8.7934L7.59181 8.7725L7.17834 11.7103L7.32687 11.7312ZM3.79524 10.4572C3.7233 10.5114 3.62244 10.5044 3.55876 10.4407L3.45269 10.5467C3.56924 10.6633 3.75383 10.6762 3.88549 10.5771L3.79524 10.4572ZM6.16498 8.67224L3.79524 10.4572L3.88549 10.5771L6.25522 8.79206L6.16498 8.67224ZM5.21426 7.84237L6.15707 8.78518L6.26313 8.67912L5.32032 7.73631L5.21426 7.84237ZM3.5422 10.2042L5.3272 7.83446L5.20738 7.74422L3.42239 10.114L3.5422 10.2042ZM3.55876 10.4407C3.49508 10.377 3.48801 10.2761 3.5422 10.2042L3.42239 10.114C3.32322 10.2456 3.33614 10.4302 3.45269 10.5467L3.55876 10.4407ZM1.98359 7.00002C1.98359 7.16485 2.10498 7.30451 2.26819 7.32749L2.2891 7.17895C2.19992 7.1664 2.13359 7.09009 2.13359 7.00002H1.98359ZM2.26819 6.67256C2.10498 6.69554 1.98359 6.8352 1.98359 7.00002H2.13359C2.13359 6.90996 2.19992 6.83365 2.2891 6.8211L2.26819 6.67256ZM5.20604 6.25909L2.26819 6.67256L2.2891 6.8211L5.22694 6.40763L5.20604 6.25909ZM5.29149 7.66669V6.33336H5.14149V7.66669H5.29149ZM2.26819 7.32749L5.20604 7.74096L5.22694 7.59242L2.2891 7.17895L2.26819 7.32749ZM3.5422 3.79585C3.48801 3.72391 3.49508 3.62305 3.55876 3.55937L3.45269 3.4533C3.33614 3.56985 3.32322 3.75444 3.42239 3.8861L3.5422 3.79585ZM5.3272 6.16559L3.5422 3.79585L3.42239 3.8861L5.20738 6.25584L5.3272 6.16559ZM6.15707 5.21487L5.21426 6.15768L5.32032 6.26374L6.26313 5.32093L6.15707 5.21487ZM3.79524 3.54281L6.16498 5.32781L6.25522 5.20799L3.88549 3.423L3.79524 3.54281ZM3.55876 3.55937C3.62244 3.49569 3.7233 3.48862 3.79524 3.54281L3.88549 3.423C3.75383 3.32383 3.56924 3.33675 3.45269 3.4533L3.55876 3.55937Z" fill="#984111"/>
<path fill-rule="evenodd" clip-rule="evenodd" d="M6.99974 8.84216C8.06749 8.84216 8.93307 7.98796 8.93307 6.93426C8.93307 5.88056 8.06749 5.02637 6.99974 5.02637C5.93199 5.02637 5.06641 5.88056 5.06641 6.93426C5.06641 7.98796 5.93199 8.84216 6.99974 8.84216Z" fill="#FFC125" stroke="#984111" stroke-width="0.15"/>
<path d="M6.81212 6.43645C6.79218 6.4241 6.70763 6.3683 6.68685 6.35515C6.61369 6.30884 6.55532 6.27865 6.50112 6.26174C6.47142 6.25247 6.4443 6.24779 6.41978 6.24779C6.30212 6.24779 6.1359 6.32123 5.92566 6.47089L5.84766 6.36418C6.07857 6.1998 6.26776 6.11621 6.41978 6.11621C6.45894 6.11621 6.49935 6.12318 6.54133 6.13628C6.60911 6.15744 6.67661 6.19235 6.75883 6.24439C6.78127 6.25859 6.86509 6.31391 6.88301 6.32501C6.91215 6.34306 6.93101 6.35174 6.93078 6.35174C7.08998 6.35174 7.09962 6.9213 6.98703 7.09594C6.9566 7.14315 6.91925 7.1813 6.8703 7.21971C6.85147 7.23448 6.79237 7.27705 6.78366 7.28377C6.74443 7.314 6.73199 7.33161 6.73199 7.35317C6.73199 7.3569 6.77991 7.36877 6.88675 7.36376C6.90792 7.36277 6.92894 7.36136 6.9599 7.35901C7.03583 7.35325 7.04565 7.3526 7.07014 7.3526V7.48418C7.05082 7.48418 7.04061 7.48485 6.97013 7.4902C6.93797 7.49265 6.91585 7.49412 6.89309 7.49519C6.70523 7.50401 6.59866 7.4776 6.59866 7.35317C6.59866 7.2817 6.63321 7.23277 6.70158 7.18007C6.71274 7.17147 6.77123 7.12934 6.78732 7.11671C6.82559 7.08669 6.85306 7.05863 6.87453 7.02531C6.90902 6.97182 6.93042 6.83264 6.92793 6.68509C6.92678 6.61735 6.9206 6.55517 6.91083 6.51156C6.90789 6.49847 6.90476 6.48769 6.9018 6.47979C6.87651 6.47366 6.84928 6.45948 6.81212 6.43645Z" fill="#984111"/>
<path fill-rule="evenodd" clip-rule="evenodd" d="M7.35089 6.39029C7.3219 6.40924 7.29078 6.42957 7.27968 6.43645C7.24251 6.45948 7.21529 6.47366 7.19 6.47979C7.18704 6.48769 7.1839 6.49847 7.18097 6.51156C7.1712 6.55517 7.16502 6.61735 7.16387 6.68509C7.16137 6.83264 7.18278 6.97182 7.21726 7.02531C7.23874 7.05863 7.26621 7.08669 7.30448 7.11671C7.31384 7.12406 7.33757 7.14141 7.35797 7.15632C7.37262 7.16702 7.38555 7.17648 7.39022 7.18007C7.45858 7.23277 7.49314 7.2817 7.49314 7.35317C7.49314 7.4776 7.38656 7.50401 7.19871 7.49519C7.17595 7.49412 7.15382 7.49265 7.12166 7.4902C7.05118 7.48485 7.04097 7.48418 7.02166 7.48418V7.3526C7.04615 7.3526 7.05597 7.35325 7.1319 7.35901C7.16286 7.36136 7.18388 7.36277 7.20505 7.36376C7.31189 7.36877 7.3598 7.3569 7.3598 7.35317C7.3598 7.33161 7.34737 7.314 7.30814 7.28377C7.30492 7.28128 7.29479 7.27389 7.28236 7.26481C7.2612 7.24935 7.23336 7.22901 7.2215 7.21971C7.17255 7.1813 7.1352 7.14315 7.10477 7.09594C6.99218 6.9213 7.00182 6.35174 7.16101 6.35174C7.16098 6.35174 7.16136 6.35155 7.16214 6.35117C7.16659 6.34897 7.18396 6.3404 7.20879 6.32501C7.21835 6.31909 7.24668 6.30057 7.27444 6.28242C7.29869 6.26657 7.3225 6.25101 7.33296 6.24439C7.41519 6.19235 7.48269 6.15744 7.55047 6.13628C7.59245 6.12318 7.63286 6.11621 7.67202 6.11621C7.82403 6.11621 8.01322 6.1998 8.24414 6.36418L8.16614 6.47089C7.9559 6.32123 7.78968 6.24779 7.67202 6.24779C7.64749 6.24779 7.62037 6.25247 7.59067 6.26174C7.53647 6.27865 7.47811 6.30884 7.40494 6.35515C7.39573 6.36098 7.37398 6.37519 7.35089 6.39029ZM7.19417 6.47033L7.19259 6.47351L7.19356 6.47133L7.19417 6.47033Z" fill="#984111"/>
<path d="M6.66457 7.72276L6.69808 7.78986L6.66457 7.72276ZM7.3414 7.72405L7.38002 7.65976L7.3414 7.72405ZM7.41008 7.76531L7.47168 7.80809L7.51738 7.74228L7.4487 7.70102L7.41008 7.76531ZM7.36438 7.83112L7.30278 7.78835L7.36438 7.83112ZM6.64112 7.83865L6.69808 7.78986L6.64112 7.83865ZM6.57862 7.76569L6.54511 7.69859L6.45916 7.74152L6.52166 7.81448L6.57862 7.76569ZM6.83009 7.81713L6.80779 7.74553L6.67832 7.78586L6.7813 7.87409L6.83009 7.81713ZM7.18454 7.81554L7.23848 7.86765L7.32023 7.78304L7.20902 7.74465L7.18454 7.81554ZM6.61061 7.77304L6.57186 7.70882L6.50047 7.75189L6.55083 7.81834L6.61061 7.77304ZM7.38178 7.77279L7.44583 7.81181L7.48123 7.7537L7.42683 7.71283L7.38178 7.77279ZM6.5229 7.65085L6.56236 7.71463L6.5229 7.65085ZM7.48033 7.65931L7.43441 7.71861V7.71861L7.48033 7.65931ZM7.52625 7.69487L7.57217 7.63558L7.57217 7.63558L7.52625 7.69487ZM7.57881 7.73558L7.64319 7.77405L7.67729 7.71699L7.62473 7.67628L7.57881 7.73558ZM7.5447 7.79264L7.48032 7.75417L7.48032 7.75417L7.5447 7.79264ZM7.51506 7.84226L7.57944 7.88073L7.57944 7.88073L7.51506 7.84226ZM6.48391 7.85412L6.42376 7.89892H6.42376L6.48391 7.85412ZM6.44141 7.79705L6.50156 7.75225L6.50156 7.75225L6.44141 7.79705ZM6.39258 7.73149L6.35311 7.66772L6.2836 7.71073L6.33243 7.77629L6.39258 7.73149ZM6.46209 7.68848L6.42262 7.6247H6.42262L6.46209 7.68848ZM7.01533 7.56415C6.88112 7.56415 6.75272 7.5949 6.63106 7.65566L6.69808 7.78986C6.79939 7.73926 6.9049 7.71415 7.01533 7.71415V7.56415ZM7.38002 7.65976C7.27129 7.59445 7.14851 7.56415 7.01533 7.56415V7.71415C7.12507 7.71415 7.22042 7.73887 7.30278 7.78835L7.38002 7.65976ZM7.4487 7.70102L7.38002 7.65976L7.30278 7.78835L7.37146 7.8296L7.4487 7.70102ZM7.42598 7.8739L7.47168 7.80809L7.34847 7.72253L7.30278 7.78835L7.42598 7.8739ZM7.01533 8.12379C7.18724 8.12379 7.32276 8.02255 7.42598 7.8739L7.30278 7.78835C7.21525 7.91439 7.11985 7.97379 7.01533 7.97379V8.12379ZM6.58416 7.88744C6.70479 8.02826 6.84845 8.12379 7.01533 8.12379V7.97379C6.91042 7.97379 6.80465 7.91426 6.69808 7.78986L6.58416 7.88744ZM6.52166 7.81448L6.58416 7.88744L6.69808 7.78986L6.63558 7.71689L6.52166 7.81448ZM6.63106 7.65566L6.54511 7.69859L6.61213 7.83278L6.69808 7.78986L6.63106 7.65566ZM7.01533 7.82379C6.98304 7.82379 6.93793 7.81077 6.87889 7.76018L6.7813 7.87409C6.85964 7.94121 6.93807 7.97379 7.01533 7.97379V7.82379ZM7.13061 7.76343C7.08303 7.81267 7.04516 7.82379 7.01533 7.82379V7.97379C7.0934 7.97379 7.16837 7.94022 7.23848 7.86765L7.13061 7.76343ZM7.01533 7.86415C7.07087 7.86415 7.11853 7.87209 7.16007 7.88643L7.20902 7.74465C7.14981 7.7242 7.08535 7.71415 7.01533 7.71415V7.86415ZM6.8524 7.88874C6.90522 7.87229 6.9593 7.86415 7.01533 7.86415V7.71415C6.94443 7.71415 6.8753 7.7245 6.80779 7.74553L6.8524 7.88874ZM7.01533 7.95537C6.9149 7.95537 6.79914 7.89763 6.67038 7.72774L6.55083 7.81834C6.69403 8.00728 6.8489 8.10537 7.01533 8.10537V7.95537ZM7.31773 7.73378C7.21619 7.90047 7.11323 7.95537 7.01533 7.95537V8.10537C7.18421 8.10537 7.32844 8.00454 7.44583 7.81181L7.31773 7.73378ZM7.01533 7.73257C7.14422 7.73257 7.24973 7.76738 7.33673 7.83275L7.42683 7.71283C7.31121 7.62596 7.17326 7.58257 7.01533 7.58257V7.73257ZM6.64935 7.83726C6.76624 7.76673 6.88784 7.73257 7.01533 7.73257V7.58257C6.85929 7.58257 6.71106 7.62484 6.57186 7.70882L6.64935 7.83726ZM7.01533 7.43257C6.82641 7.43257 6.64784 7.48534 6.48343 7.58707L6.56236 7.71463C6.70427 7.62681 6.85569 7.58257 7.01533 7.58257V7.43257ZM7.52626 7.60002C7.38027 7.48695 7.20659 7.43257 7.01533 7.43257V7.58257C7.17682 7.58257 7.31733 7.62794 7.43441 7.71861L7.52626 7.60002ZM7.57217 7.63558L7.52626 7.60002L7.43441 7.71861L7.48032 7.75417L7.57217 7.63558ZM7.62473 7.67628L7.57217 7.63558L7.48032 7.75417L7.53288 7.79487L7.62473 7.67628ZM7.60908 7.83112L7.64319 7.77405L7.51442 7.69711L7.48032 7.75417L7.60908 7.83112ZM7.57944 7.88073L7.60908 7.83112L7.48032 7.75417L7.45068 7.80378L7.57944 7.88073ZM7.01533 8.25537C7.25926 8.25537 7.44611 8.10384 7.57944 7.88073L7.45068 7.80378C7.33242 8.00168 7.18666 8.10537 7.01533 8.10537V8.25537ZM6.42376 7.89892C6.58264 8.11225 6.77888 8.25537 7.01533 8.25537V8.10537C6.84625 8.10537 6.68918 8.00417 6.54406 7.80933L6.42376 7.89892ZM6.38125 7.84185L6.42376 7.89892L6.54406 7.80933L6.50156 7.75225L6.38125 7.84185ZM6.33243 7.77629L6.38126 7.84185L6.50156 7.75225L6.45273 7.68669L6.33243 7.77629ZM6.42262 7.6247L6.35311 7.66772L6.43204 7.79527L6.50156 7.75225L6.42262 7.6247ZM6.48343 7.58707L6.42262 7.6247L6.50156 7.75225L6.56236 7.71463L6.48343 7.58707Z" fill="#984111"/>
<path d="M6.064 6.45293L6.09646 6.52054L6.064 6.45293ZM6.064 6.81443L6.03155 6.88205L6.03155 6.88205L6.064 6.81443ZM6.60032 6.81443L6.63277 6.88205V6.88205L6.60032 6.81443ZM6.60032 6.45293L6.56786 6.52054H6.56786L6.60032 6.45293ZM6.07459 6.63085L6.0056 6.60144L6.0056 6.60144L6.07459 6.63085ZM6.08129 6.62099L6.13756 6.67057L6.13756 6.67057L6.08129 6.62099ZM6.12891 6.58816L6.09646 6.52054L6.09646 6.52054L6.12891 6.58816ZM6.53541 6.58816L6.56786 6.52054L6.56786 6.52054L6.53541 6.58816ZM6.58303 6.62099L6.52676 6.67057L6.52676 6.67057L6.58303 6.62099ZM6.58973 6.63085L6.52074 6.66026L6.52074 6.66026L6.58973 6.63085ZM6.58973 6.63652L6.52074 6.6071L6.52074 6.6071L6.58973 6.63652ZM6.58303 6.64638L6.52676 6.59679L6.52676 6.59679L6.58303 6.64638ZM6.53541 6.6792L6.56786 6.74682H6.56786L6.53541 6.6792ZM6.12891 6.6792L6.09646 6.74682H6.09646L6.12891 6.6792ZM6.08129 6.64638L6.02502 6.69596H6.02502L6.08129 6.64638ZM6.07459 6.63652L6.0056 6.66593L6.0056 6.66593L6.07459 6.63652ZM7.39734 6.45293L7.36488 6.38532V6.38532L7.39734 6.45293ZM7.39734 6.81443L7.36488 6.88205V6.88205L7.39734 6.81443ZM7.93365 6.81443L7.9012 6.74682V6.74682L7.93365 6.81443ZM7.93365 6.45293L7.9012 6.52054V6.52054L7.93365 6.45293ZM7.40793 6.63085L7.33893 6.60144L7.33893 6.60144L7.40793 6.63085ZM7.41463 6.62099L7.35836 6.5714L7.35836 6.5714L7.41463 6.62099ZM7.46225 6.58816L7.4947 6.65577L7.46225 6.58816ZM7.86874 6.58816L7.83629 6.65577L7.86874 6.58816ZM7.91636 6.62099L7.86009 6.67057L7.86009 6.67057L7.91636 6.62099ZM7.92306 6.63085L7.85407 6.66026L7.85407 6.66026L7.92306 6.63085ZM7.92306 6.63652L7.85407 6.6071L7.85407 6.6071L7.92306 6.63652ZM7.91636 6.64638L7.86009 6.59679L7.86009 6.59679L7.91636 6.64638ZM7.86874 6.6792L7.83629 6.61159L7.86874 6.6792ZM7.46225 6.6792L7.4947 6.61159L7.46225 6.6792ZM7.41463 6.64638L7.35836 6.69596L7.35836 6.69596L7.41463 6.64638ZM7.40793 6.63652L7.33893 6.66592L7.33893 6.66593L7.40793 6.63652ZM6.09646 6.52054C6.15678 6.49159 6.24011 6.47368 6.33216 6.47368V6.32368C6.22271 6.32368 6.11625 6.34466 6.03155 6.38532L6.09646 6.52054ZM5.99883 6.63368C5.99883 6.58989 6.03553 6.54979 6.09646 6.52054L6.03155 6.38532C5.95827 6.42049 5.84883 6.49845 5.84883 6.63368H5.99883ZM6.09646 6.74682C6.03553 6.71757 5.99883 6.67747 5.99883 6.63368H5.84883C5.84883 6.76891 5.95827 6.84687 6.03155 6.88205L6.09646 6.74682ZM6.33216 6.79368C6.24011 6.79368 6.15678 6.77577 6.09646 6.74682L6.03155 6.88205C6.11625 6.9227 6.22271 6.94368 6.33216 6.94368V6.79368ZM6.56786 6.74682C6.50755 6.77577 6.42421 6.79368 6.33216 6.79368V6.94368C6.44162 6.94368 6.54808 6.9227 6.63277 6.88205L6.56786 6.74682ZM6.66549 6.63368C6.66549 6.67747 6.62879 6.71757 6.56786 6.74682L6.63277 6.88205C6.70605 6.84687 6.81549 6.76891 6.81549 6.63368H6.66549ZM6.56786 6.52054C6.62879 6.54979 6.66549 6.58989 6.66549 6.63368H6.81549C6.81549 6.49845 6.70605 6.42049 6.63277 6.38532L6.56786 6.52054ZM6.33216 6.47368C6.42421 6.47368 6.50755 6.49159 6.56786 6.52054L6.63277 6.38532C6.54808 6.34466 6.44162 6.32368 6.33216 6.32368V6.47368ZM6.0056 6.60144C6.00111 6.61196 5.99883 6.62275 5.99883 6.63368H6.14883C6.14883 6.63451 6.14882 6.63694 6.14855 6.64003C6.14829 6.64292 6.14787 6.64568 6.14732 6.64829C6.14624 6.65341 6.14478 6.65746 6.14358 6.66026L6.0056 6.60144ZM6.02502 6.5714C6.01658 6.58099 6.01003 6.59103 6.0056 6.60144L6.14358 6.66026C6.14082 6.66676 6.13801 6.67007 6.13756 6.67057L6.02502 6.5714ZM6.09646 6.52054C6.06629 6.53502 6.04189 6.55226 6.02502 6.5714L6.13756 6.67057C6.13736 6.67081 6.14337 6.66441 6.16137 6.65577L6.09646 6.52054ZM6.33216 6.47368C6.24011 6.47368 6.15678 6.49159 6.09646 6.52054L6.16137 6.65577C6.19732 6.63851 6.25753 6.62368 6.33216 6.62368V6.47368ZM6.56786 6.52054C6.50755 6.49159 6.42421 6.47368 6.33216 6.47368V6.62368C6.40679 6.62368 6.467 6.63851 6.50295 6.65577L6.56786 6.52054ZM6.6393 6.5714C6.62244 6.55226 6.59803 6.53502 6.56786 6.52054L6.50295 6.65577C6.52096 6.66441 6.52697 6.67081 6.52676 6.67057L6.6393 6.5714ZM6.65872 6.60144C6.65429 6.59103 6.64775 6.58099 6.6393 6.5714L6.52676 6.67057C6.52631 6.67007 6.52351 6.66676 6.52074 6.66026L6.65872 6.60144ZM6.66549 6.63368C6.66549 6.62275 6.66321 6.61196 6.65872 6.60144L6.52074 6.66026C6.51954 6.65746 6.51808 6.65341 6.51701 6.64829C6.51646 6.64568 6.51603 6.64292 6.51578 6.64003C6.5155 6.63694 6.51549 6.63451 6.51549 6.63368H6.66549ZM6.65872 6.66593C6.66321 6.6554 6.66549 6.64462 6.66549 6.63368H6.51549C6.51549 6.63285 6.5155 6.63042 6.51578 6.62734C6.51603 6.62444 6.51646 6.62168 6.51701 6.61907C6.51808 6.61395 6.51954 6.60991 6.52074 6.6071L6.65872 6.66593ZM6.6393 6.69596C6.64775 6.68638 6.65429 6.67633 6.65872 6.66593L6.52074 6.6071C6.52351 6.60061 6.52631 6.5973 6.52676 6.59679L6.6393 6.69596ZM6.56786 6.74682C6.59803 6.73234 6.62244 6.7151 6.6393 6.69596L6.52676 6.59679C6.52697 6.59656 6.52096 6.60295 6.50295 6.61159L6.56786 6.74682ZM6.33216 6.79368C6.42421 6.79368 6.50755 6.77577 6.56786 6.74682L6.50295 6.61159C6.467 6.62885 6.40679 6.64368 6.33216 6.64368V6.79368ZM6.09646 6.74682C6.15678 6.77577 6.24011 6.79368 6.33216 6.79368V6.64368C6.25753 6.64368 6.19732 6.62885 6.16137 6.61159L6.09646 6.74682ZM6.02502 6.69596C6.04189 6.7151 6.06629 6.73234 6.09646 6.74682L6.16137 6.61159C6.14337 6.60295 6.13736 6.59656 6.13756 6.59679L6.02502 6.69596ZM6.0056 6.66593C6.01003 6.67633 6.01658 6.68638 6.02502 6.69596L6.13756 6.59679C6.13801 6.5973 6.14082 6.60061 6.14358 6.6071L6.0056 6.66593ZM5.99883 6.63368C5.99883 6.64462 6.00111 6.6554 6.0056 6.66593L6.14358 6.6071C6.14478 6.60991 6.14624 6.61395 6.14732 6.61907C6.14787 6.62168 6.14829 6.62444 6.14855 6.62734C6.14882 6.63042 6.14883 6.63285 6.14883 6.63368H5.99883ZM7.42979 6.52054C7.49011 6.49159 7.57344 6.47368 7.66549 6.47368V6.32368C7.55604 6.32368 7.44958 6.34466 7.36488 6.38532L7.42979 6.52054ZM7.33216 6.63368C7.33216 6.58989 7.36886 6.54979 7.42979 6.52054L7.36488 6.38532C7.2916 6.42049 7.18216 6.49845 7.18216 6.63368H7.33216ZM7.42979 6.74682C7.36886 6.71757 7.33216 6.67747 7.33216 6.63368H7.18216C7.18216 6.76891 7.2916 6.84687 7.36488 6.88205L7.42979 6.74682ZM7.66549 6.79368C7.57344 6.79368 7.49011 6.77577 7.42979 6.74682L7.36488 6.88205C7.44958 6.9227 7.55604 6.94368 7.66549 6.94368V6.79368ZM7.9012 6.74682C7.84088 6.77577 7.75755 6.79368 7.66549 6.79368V6.94368C7.77495 6.94368 7.88141 6.9227 7.96611 6.88205L7.9012 6.74682ZM7.99883 6.63368C7.99883 6.67747 7.96213 6.71757 7.9012 6.74682L7.96611 6.88205C8.03939 6.84687 8.14883 6.76891 8.14883 6.63368H7.99883ZM7.9012 6.52054C7.96213 6.54979 7.99883 6.58989 7.99883 6.63368H8.14883C8.14883 6.49845 8.03939 6.42049 7.96611 6.38532L7.9012 6.52054ZM7.66549 6.47368C7.75755 6.47368 7.84088 6.49159 7.9012 6.52054L7.96611 6.38532C7.88141 6.34466 7.77495 6.32368 7.66549 6.32368V6.47368ZM7.33893 6.60144C7.33445 6.61196 7.33216 6.62275 7.33216 6.63368H7.48216C7.48216 6.63451 7.48215 6.63694 7.48188 6.64003C7.48162 6.64292 7.4812 6.64568 7.48065 6.64829C7.47957 6.65341 7.47811 6.65745 7.47692 6.66026L7.33893 6.60144ZM7.35836 6.5714C7.34991 6.58099 7.34337 6.59103 7.33893 6.60144L7.47692 6.66026C7.47415 6.66676 7.47134 6.67007 7.4709 6.67057L7.35836 6.5714ZM7.42979 6.52054C7.39963 6.53502 7.37522 6.55226 7.35836 6.5714L7.4709 6.67057C7.47069 6.67081 7.4767 6.66441 7.4947 6.65577L7.42979 6.52054ZM7.66549 6.47368C7.57344 6.47368 7.49011 6.49159 7.42979 6.52054L7.4947 6.65577C7.53066 6.63851 7.59086 6.62368 7.66549 6.62368V6.47368ZM7.9012 6.52054C7.84088 6.49159 7.75755 6.47368 7.66549 6.47368V6.62368C7.74013 6.62368 7.80033 6.63851 7.83629 6.65577L7.9012 6.52054ZM7.97263 6.5714C7.95577 6.55226 7.93136 6.53502 7.9012 6.52054L7.83629 6.65577C7.85429 6.66441 7.8603 6.67081 7.86009 6.67057L7.97263 6.5714ZM7.99206 6.60144C7.98762 6.59103 7.98108 6.58099 7.97263 6.5714L7.86009 6.67057C7.85965 6.67007 7.85684 6.66676 7.85407 6.66026L7.99206 6.60144ZM7.99883 6.63368C7.99883 6.62275 7.99655 6.61197 7.99206 6.60144L7.85407 6.66026C7.85288 6.65746 7.85142 6.65341 7.85034 6.64828C7.84979 6.64568 7.84937 6.64292 7.84911 6.64002C7.84884 6.63694 7.84883 6.63451 7.84883 6.63368H7.99883ZM7.99206 6.66593C7.99655 6.6554 7.99883 6.64461 7.99883 6.63368H7.84883C7.84883 6.63286 7.84884 6.63042 7.84911 6.62734C7.84937 6.62445 7.84979 6.62168 7.85034 6.61908C7.85142 6.61396 7.85288 6.60991 7.85407 6.6071L7.99206 6.66593ZM7.97263 6.69596C7.98108 6.68638 7.98762 6.67633 7.99206 6.66593L7.85407 6.6071C7.85684 6.60061 7.85965 6.5973 7.86009 6.59679L7.97263 6.69596ZM7.9012 6.74682C7.93136 6.73234 7.95577 6.7151 7.97263 6.69596L7.86009 6.59679C7.8603 6.59656 7.85429 6.60295 7.83629 6.61159L7.9012 6.74682ZM7.66549 6.79368C7.75755 6.79368 7.84088 6.77577 7.9012 6.74682L7.83629 6.61159C7.80033 6.62885 7.74013 6.64368 7.66549 6.64368V6.79368ZM7.42979 6.74682C7.49011 6.77577 7.57344 6.79368 7.66549 6.79368V6.64368C7.59086 6.64368 7.53066 6.62885 7.4947 6.61159L7.42979 6.74682ZM7.35836 6.69596C7.37522 6.7151 7.39963 6.73234 7.42979 6.74682L7.4947 6.61159C7.4767 6.60295 7.47069 6.59656 7.4709 6.59679L7.35836 6.69596ZM7.33893 6.66593C7.34337 6.67633 7.34991 6.68638 7.35836 6.69596L7.4709 6.59679C7.47134 6.5973 7.47415 6.60061 7.47692 6.6071L7.33893 6.66593ZM7.33216 6.63368C7.33216 6.64461 7.33445 6.6554 7.33893 6.66592L7.47692 6.60711C7.47811 6.60991 7.47957 6.61396 7.48065 6.61908C7.4812 6.62168 7.48162 6.62444 7.48188 6.62734C7.48215 6.63042 7.48216 6.63285 7.48216 6.63368H7.33216Z" fill="#984111"/>
</g>
</g>
<rect width="32" height="24" fill="url(#paint0_linear_230_22669)" style="mix-blend-mode:overlay"/>
</g>
<rect x="0.5" y="0.5" width="31" height="23" rx="1.5" stroke="black" stroke-opacity="0.1"/>
<defs>
<linearGradient id="paint0_linear_230_22669" x1="16" y1="0" x2="16" y2="24" gradientUnits="userSpaceOnUse">
<stop stop-color="white" stop-opacity="0.7"/>
<stop offset="1" stop-opacity="0.3"/>
</linearGradient>
<clipPath id="clip0_230_22669">
<rect width="32" height="24" rx="2" fill="white"/>
</clipPath>
</defs>
</svg>
