<svg width="32" height="24" viewBox="0 0 32 24" fill="none" xmlns="http://www.w3.org/2000/svg">
<g clip-path="url(#clip0_230_26533)">
<mask id="mask0_230_26533" style="mask-type:luminance" maskUnits="userSpaceOnUse" x="0" y="0" width="32" height="24">
<rect width="32" height="24" fill="white"/>
</mask>
<g mask="url(#mask0_230_26533)">
<path fill-rule="evenodd" clip-rule="evenodd" d="M0 0H32V24H0V0Z" fill="#F7FCFF"/>
<path fill-rule="evenodd" clip-rule="evenodd" d="M0 5.5H32V8.45683H0V5.5ZM0 10.8151H32V13.7719H0V10.8151ZM32 15.9432H0V18.9H32V15.9432Z" fill="#4564F9"/>
<path fill-rule="evenodd" clip-rule="evenodd" d="M0 0H32V3H0V0Z" fill="#4564F9"/>
<rect y="21" width="32" height="3" fill="#4564F9"/>
<path fill-rule="evenodd" clip-rule="evenodd" d="M0 0H15V13.8H0V0Z" fill="#4564F9"/>
<path fill-rule="evenodd" clip-rule="evenodd" d="M6 0H9V5.50386H15V8.43867H9V14.5H6V8.43867H0V5.50386H6V0Z" fill="#F7FCFF"/>
</g>
<rect width="32" height="24" fill="url(#paint0_linear_230_26533)" style="mix-blend-mode:overlay"/>
</g>
<rect x="0.5" y="0.5" width="31" height="23" rx="1.5" stroke="black" stroke-opacity="0.1"/>
<defs>
<linearGradient id="paint0_linear_230_26533" x1="16" y1="0" x2="16" y2="24" gradientUnits="userSpaceOnUse">
<stop stop-color="white" stop-opacity="0.7"/>
<stop offset="1" stop-opacity="0.3"/>
</linearGradient>
<clipPath id="clip0_230_26533">
<rect width="32" height="24" rx="2" fill="white"/>
</clipPath>
</defs>
</svg>
