<svg width="32" height="24" viewBox="0 0 32 24" fill="none" xmlns="http://www.w3.org/2000/svg">
<g clip-path="url(#clip0_230_25077)">
<mask id="mask0_230_25077" style="mask-type:luminance" maskUnits="userSpaceOnUse" x="0" y="0" width="32" height="24">
<rect width="32" height="24" fill="white"/>
</mask>
<g mask="url(#mask0_230_25077)">
<path fill-rule="evenodd" clip-rule="evenodd" d="M0 0H32V24H0V0Z" fill="#E8AA00"/>
<path fill-rule="evenodd" clip-rule="evenodd" d="M4 4H28V20H4V4Z" fill="#C51918"/>
<mask id="mask1_230_25077" style="mask-type:luminance" maskUnits="userSpaceOnUse" x="4" y="4" width="24" height="16">
<path fill-rule="evenodd" clip-rule="evenodd" d="M4 4H28V20H4V4Z" fill="white"/>
</mask>
<g mask="url(#mask1_230_25077)">
<path fill-rule="evenodd" clip-rule="evenodd" d="M20.2306 15.7514C20.6385 15.7514 20.9691 15.4126 20.9691 14.9946C20.9691 14.5767 20.6385 14.2379 20.2306 14.2379C19.8228 14.2379 19.4922 14.5767 19.4922 14.9946C19.4922 15.4126 19.8228 15.7514 20.2306 15.7514Z" fill="#1E5E91"/>
<path fill-rule="evenodd" clip-rule="evenodd" d="M10.6282 12.3318C8.69093 10.0804 11.4674 6.17322 11.4674 6.17322C11.4674 6.17322 11.8825 8.50677 13.4189 10.077C13.4189 10.1885 13.2738 10.353 13.1269 10.5196C13.0243 10.6359 12.9209 10.7532 12.8653 10.8542C12.7303 11.0997 13.194 11.2396 13.4189 11.2396C13.5198 11.2396 13.5756 11.386 13.6259 11.5181C13.6877 11.6804 13.7413 11.8211 13.8603 11.6428C14.0762 11.3194 13.6444 10.6087 13.6444 10.6087L14.328 9.88767L14.5592 9.42159H14.328V8.94175L14.166 9.07476C14.166 9.07476 13.9883 8.64572 13.6444 8.64572C13.3006 8.64572 13.194 8.44952 13.194 8.44952H13.6444C13.87 8.44952 13.6084 8.15063 13.4189 7.99494C13.3339 7.92515 13.205 7.94921 13.0887 7.97093C12.9455 7.99767 12.8212 8.02086 12.8212 7.86114C12.8212 7.68607 12.9576 7.66287 13.1151 7.63607C13.218 7.61855 13.33 7.5995 13.4189 7.5355C13.5659 7.42964 13.764 7.46219 13.9785 7.49742C14.0922 7.51608 14.2104 7.5355 14.328 7.5355H14.885C15.0861 7.5355 14.5592 7.86114 14.5592 7.86114L14.885 8.15063L15.3694 8.64572L15.1272 8.78953L15.6271 9.27432C15.6271 9.27432 15.4574 9.55024 15.6271 9.55024C15.6971 9.55024 15.7431 9.60757 15.773 9.67496C15.803 9.60757 15.849 9.55024 15.9189 9.55024C16.0886 9.55024 15.9189 9.27432 15.9189 9.27432L16.4189 8.78953L16.1766 8.64572L16.6611 8.15063L16.9869 7.86114C16.9869 7.86114 16.46 7.5355 16.6611 7.5355H17.218C17.3357 7.5355 17.4539 7.51608 17.5675 7.49742C17.782 7.46219 17.9802 7.42964 18.1272 7.5355C18.2161 7.5995 18.328 7.61855 18.431 7.63607C18.5885 7.66287 18.7248 7.68607 18.7248 7.86114C18.7248 8.02086 18.6006 7.99767 18.4573 7.97093C18.341 7.94921 18.2121 7.92515 18.1272 7.99494C17.9376 8.15063 17.676 8.44952 17.9016 8.44952H18.3521C18.3521 8.44952 18.2455 8.64572 17.9016 8.64572C17.5577 8.64572 17.38 9.07476 17.38 9.07476L17.218 8.94175V9.42159H16.9869L17.218 9.88767L17.9016 10.6087C17.9016 10.6087 17.4698 11.3194 17.6857 11.6428C17.8047 11.8211 17.8583 11.6804 17.9201 11.5181C17.9705 11.386 18.0262 11.2396 18.1272 11.2396C18.3521 11.2396 18.8158 11.0997 18.6807 10.8542C18.6252 10.7532 18.5217 10.6359 18.4191 10.5196C18.2722 10.353 18.1272 10.1885 18.1272 10.077C19.6635 8.50677 20.0786 6.17322 20.0786 6.17322C20.0786 6.17322 22.8551 10.0804 20.9179 12.3318C18.9806 14.5833 17.5577 13.9044 17.5577 13.9044L18.3521 14.6167L18.1272 14.8113H18.789L18.5456 14.974L18.7248 15.0525L18.9144 15.1355C18.9144 15.1355 18.4032 15.5115 18.9144 15.5115C18.9952 15.5115 19.0807 15.5091 19.1687 15.5067C19.2651 15.504 19.3646 15.5012 19.4639 15.5014C19.4907 15.5015 19.4309 15.3541 19.3715 15.208C19.313 15.0638 19.2549 14.9208 19.2811 14.922C19.3363 14.9243 19.4449 15.0554 19.5539 15.1869C19.6407 15.2918 19.7278 15.3969 19.7883 15.4374C19.8273 15.4634 19.9795 15.4106 20.1205 15.3616C20.2398 15.3202 20.351 15.2815 20.3791 15.2957C20.498 15.3557 20.4676 15.4771 20.4386 15.5927C20.4312 15.6225 20.4239 15.6518 20.4192 15.6796C20.4149 15.7049 20.5672 15.6061 20.7274 15.5022C20.8955 15.3931 21.0724 15.2784 21.0859 15.2957C21.0887 15.2993 21.0918 15.303 21.095 15.3069C21.1522 15.3757 21.2443 15.4865 20.5643 16.0106C20.5643 16.1114 20.5679 16.1936 20.5708 16.2604C20.5801 16.4749 20.5825 16.5304 20.4373 16.5304C20.3725 16.5304 20.282 16.5625 20.1771 16.5997C19.9081 16.695 19.5449 16.8237 19.2811 16.5304C18.9144 16.1227 18.3521 15.5115 18.3521 15.5115V15.8119L17.6857 15.1355L17.5577 15.5115L16.6611 14.4816L16.4189 14.6167C16.4189 14.6167 17.2442 16.8944 17.6857 16.9102C17.9051 16.9181 17.572 17.131 17.1307 17.413C16.6839 17.6985 16.1263 18.0548 15.9189 18.341C15.8572 18.4262 15.8095 18.2963 15.773 18.0139C15.7365 18.2963 15.6888 18.4262 15.6271 18.341C15.4197 18.0548 14.8621 17.6985 14.4154 17.413C13.9741 17.131 13.641 16.9181 13.8603 16.9102C14.3018 16.8944 15.1272 14.6167 15.1272 14.6167L14.885 14.4816L13.9883 15.5115L13.8603 15.1355L13.194 15.8119V15.5115C13.194 15.5115 12.6316 16.1227 12.2649 16.5304C12.0011 16.8237 11.6379 16.695 11.3689 16.5997C11.264 16.5625 11.1735 16.5304 11.1088 16.5304C10.8781 16.5304 10.8009 16.2076 11.1088 15.8119C11.3681 15.4786 11.908 15.4936 12.3774 15.5067C12.4654 15.5091 12.5509 15.5115 12.6316 15.5115C13.1429 15.5115 12.6316 15.1355 12.6316 15.1355L12.8212 15.0525L13.0004 14.974L12.7571 14.8113H13.4189L13.194 14.6167L13.9883 13.9044C13.9883 13.9044 12.5654 14.5833 10.6282 12.3318Z" fill="#F6C540"/>
<path fill-rule="evenodd" clip-rule="evenodd" d="M12.433 17.0303L11.5579 15.4961C11.5579 15.4961 10.4137 12.858 10.4137 12.5377C10.4137 12.2174 9.95312 11.2689 9.95312 11.5443C9.95312 11.8196 9.95312 12.5377 9.95312 12.5377L11.8836 16.8867V17.2294H12.1436L12.433 17.0303Z" fill="#F6C540"/>
<path d="M19.4434 14.9649L19.5765 14.523L21.2024 15.0128L21.0692 15.4548L19.4434 14.9649Z" fill="#F6C540"/>
<path d="M20.3085 14.1603L20.7481 14.3043L20.3186 15.6823L19.8789 15.5384L20.3085 14.1603Z" fill="#F6C540"/>
<path fill-rule="evenodd" clip-rule="evenodd" d="M20.7186 13.7111L20.6241 13.6895L20.5857 13.8415L20.412 13.7989L20.3906 13.8917L20.5623 13.9338L20.5186 14.1071L20.6131 14.1286L20.6564 13.9569L20.8273 13.9989L20.8487 13.9061L20.6798 13.8646L20.7186 13.7111Z" fill="#F6C540"/>
<path fill-rule="evenodd" clip-rule="evenodd" d="M15.6953 5.22241L15.7428 5.38822H15.8872L15.9347 5.22241C16.0548 5.25858 16.1638 5.29972 16.2615 5.34566L16.2649 5.30936C17.0367 5.37986 17.4372 5.70294 17.3943 6.27097C17.3588 6.74117 17.1208 6.98751 16.7239 6.9812V7.33241C16.7239 7.33241 16.0778 7.58046 15.7547 7.58046C15.4316 7.58046 14.7855 7.33241 14.7855 7.33241V6.97526C14.4587 6.93485 14.2635 6.69315 14.2316 6.27097C14.1887 5.70294 14.5892 5.37986 15.3611 5.30936L15.3646 5.34747C15.4633 5.30081 15.5735 5.25905 15.6953 5.22241ZM14.8781 6.6667C14.8346 6.67888 14.8041 6.68786 14.7916 6.69155C14.6144 6.65832 14.5279 6.51673 14.5078 6.25075C14.4875 5.98184 14.6139 5.79475 14.9118 5.68685C14.7085 5.94697 14.6936 6.27785 14.8781 6.6667ZM15.1533 6.59503C15.3161 6.5559 15.5046 6.51699 15.6555 6.50363V5.53295C15.0357 5.75048 14.8868 6.08326 15.1533 6.59503ZM15.9324 6.51235C16.1402 6.53959 16.3924 6.60198 16.5554 6.64588L16.4737 6.60078C16.7503 6.07435 16.5898 5.73658 15.9324 5.51863V6.51235ZM16.7198 5.6889C16.9271 5.95593 16.9365 6.29729 16.736 6.69918C16.9802 6.70285 17.0946 6.56193 17.1181 6.25075C17.1383 5.98353 17.0137 5.79711 16.7198 5.6889Z" fill="#F6C540"/>
<path fill-rule="evenodd" clip-rule="evenodd" d="M15.7547 5.51914C15.9331 5.51914 16.0778 5.37449 16.0778 5.19606C16.0778 5.01763 15.9331 4.87299 15.7547 4.87299C15.5763 4.87299 15.4316 5.01763 15.4316 5.19606C15.4316 5.37449 15.5763 5.51914 15.7547 5.51914Z" fill="#3D58DB"/>
<path fill-rule="evenodd" clip-rule="evenodd" d="M15.8 4.49821L15.7031 4.50017L15.7026 4.65696L15.5237 4.6576L15.5255 4.75278L15.7023 4.75215L15.7017 4.93087L15.7986 4.9289L15.7992 4.75181L15.9751 4.75118L15.9734 4.656L15.7995 4.65662L15.8 4.49821Z" fill="#F6C540"/>
<path fill-rule="evenodd" clip-rule="evenodd" d="M13.9535 10.3595C13.9535 10.3595 15.0912 10.1448 15.7074 10.1448C16.2604 10.1448 17.4612 10.3595 17.4612 10.3595C17.4612 11.7195 17.8439 12.5522 17.4612 13.4811C17.0785 14.41 16.1432 13.9635 15.7198 14.8524C15.1788 14.0092 14.4482 14.4734 13.9535 13.2727C13.4588 12.0721 14.2542 11.5191 13.9535 10.3595Z" fill="#1E5E91"/>
<mask id="mask2_230_25077" style="mask-type:luminance" maskUnits="userSpaceOnUse" x="13" y="10" width="5" height="5">
<path fill-rule="evenodd" clip-rule="evenodd" d="M13.9535 10.3595C13.9535 10.3595 15.0912 10.1448 15.7074 10.1448C16.2604 10.1448 17.4612 10.3595 17.4612 10.3595C17.4612 11.7195 17.8439 12.5522 17.4612 13.4811C17.0785 14.41 16.1432 13.9635 15.7198 14.8524C15.1788 14.0092 14.4482 14.4734 13.9535 13.2727C13.4588 12.0721 14.2542 11.5191 13.9535 10.3595Z" fill="white"/>
</mask>
<g mask="url(#mask2_230_25077)">
<rect x="13.9531" y="13.1973" width="3.50769" height="1.7027" fill="#5EAA22"/>
<path fill-rule="evenodd" clip-rule="evenodd" d="M14.9911 11.0297C14.8571 10.7449 15.6954 10.7117 15.6954 10.7117C15.6954 10.7117 15.8762 11.0297 15.6954 11.4822C15.564 11.8113 15.7832 11.7819 16.0858 11.7415C16.1993 11.7263 16.3244 11.7095 16.4472 11.7095C16.6353 11.7095 16.7342 11.6957 16.8164 11.7266C16.931 11.7697 17.013 11.8995 17.258 12.2743C17.3699 12.4455 17.365 12.5582 17.2975 12.6256C17.3033 12.7997 17.1138 12.9441 16.7636 13.0364L16.7176 12.8532C16.9028 12.8044 17.0162 12.7576 17.0689 12.706C16.8049 12.722 16.4472 12.5916 16.4472 12.4239C16.4472 12.1761 15.6023 12.2283 15.0938 12.2597C14.9643 12.2677 14.8566 12.2743 14.7902 12.2743C14.4945 12.2743 14.7213 11.9129 14.9276 11.584C14.9492 11.5496 14.9706 11.5155 14.9911 11.4822C15.0971 11.3105 15.1315 11.2667 15.1233 11.2334C15.1147 11.1986 15.0596 11.1752 14.9911 11.0297ZM17.0022 10.9856C16.4957 10.9052 16.2116 10.983 16.2116 11.2664C16.2116 11.5362 16.4812 11.6531 16.9744 11.6513C16.9936 11.6576 17.0104 11.6638 17.0248 11.6697C17.0064 11.6785 16.9839 11.6877 16.9575 11.6972L17.0188 11.8757C17.3297 11.7636 17.3297 11.5641 17.0149 11.4661L17.0015 11.4619L16.9874 11.4621C16.5775 11.4655 16.3962 11.3886 16.3962 11.2664C16.3962 11.1553 16.5682 11.1082 16.974 11.1726L17.0022 10.9856Z" fill="#F6C540"/>
</g>
</g>
</g>
<rect width="32" height="24" fill="url(#paint0_linear_230_25077)" style="mix-blend-mode:overlay"/>
</g>
<rect x="0.5" y="0.5" width="31" height="23" rx="1.5" stroke="black" stroke-opacity="0.1"/>
<defs>
<linearGradient id="paint0_linear_230_25077" x1="16" y1="0" x2="16" y2="24" gradientUnits="userSpaceOnUse">
<stop stop-color="white" stop-opacity="0.7"/>
<stop offset="1" stop-opacity="0.3"/>
</linearGradient>
<clipPath id="clip0_230_25077">
<rect width="32" height="24" rx="2" fill="white"/>
</clipPath>
</defs>
</svg>
