<svg width="32" height="24" viewBox="0 0 32 24" fill="none" xmlns="http://www.w3.org/2000/svg">
<g clip-path="url(#clip0_230_24460)">
<mask id="mask0_230_24460" style="mask-type:luminance" maskUnits="userSpaceOnUse" x="0" y="0" width="32" height="24">
<rect width="32" height="24" fill="white"/>
</mask>
<g mask="url(#mask0_230_24460)">
<path fill-rule="evenodd" clip-rule="evenodd" d="M8 0H25V24H8V0Z" fill="#F7FCFF"/>
<path fill-rule="evenodd" clip-rule="evenodd" d="M24 0H32V24H24V0Z" fill="#F50101"/>
<path fill-rule="evenodd" clip-rule="evenodd" d="M0 0H8V24H0V0Z" fill="#F50101"/>
<path d="M15.7407 8.74515L15.7742 9.10709C14.7757 9.20807 14.2363 8.72021 14.2363 7.70768C14.2363 6.70297 14.7641 6.16892 15.7564 6.1626L15.7585 6.52623C14.9545 6.53135 14.5842 6.90614 14.5842 7.70768C14.5842 8.5014 14.9429 8.82584 15.7407 8.74515Z" fill="#A2BB6A"/>
<path d="M16.1831 8.74515L16.1496 9.10709C17.1481 9.20807 17.6875 8.72021 17.6875 7.70768C17.6875 6.70297 17.1597 6.16892 16.1674 6.1626L16.1653 6.52623C16.9693 6.53135 17.3397 6.90614 17.3397 7.70768C17.3397 8.5014 16.981 8.82584 16.1831 8.74515Z" fill="#A2BB6A"/>
<path fill-rule="evenodd" clip-rule="evenodd" d="M15.1398 17.1229C14.8527 17.2257 12.9062 17.1229 12.9062 17.1229V17.665H14.1967C14.6273 17.665 14.7901 17.7421 14.9394 17.8128C15.0659 17.8727 15.1828 17.928 15.4448 17.928C15.9552 17.928 15.9458 17.5484 15.938 17.2324C15.9371 17.1948 15.9362 17.158 15.9362 17.1229C15.9362 16.9886 15.9572 16.9137 15.9735 16.8554C15.9972 16.7706 16.0111 16.721 15.9362 16.5751C15.8098 16.3288 14.6076 16.3617 14.6076 16.5751C14.6076 16.6757 14.7899 16.7804 14.9524 16.8737C15.1343 16.9783 15.2915 17.0685 15.1398 17.1229ZM16.8892 17.1229C17.1763 17.2257 19.1228 17.1229 19.1228 17.1229V17.665H17.8323C17.4018 17.665 17.239 17.7421 17.0896 17.8128C16.9631 17.8727 16.8462 17.928 16.5842 17.928C16.0739 17.928 16.0832 17.5484 16.091 17.2324C16.092 17.1948 16.0929 17.158 16.0929 17.1229C16.0929 16.9886 16.0719 16.9137 16.0556 16.8554C16.0318 16.7706 16.0179 16.721 16.0929 16.5751C16.2193 16.3288 17.4214 16.3617 17.4214 16.5751C17.4214 16.6757 17.2392 16.7804 17.0767 16.8737C16.8947 16.9783 16.7376 17.0685 16.8892 17.1229Z" fill="#E31D1C"/>
<path fill-rule="evenodd" clip-rule="evenodd" d="M16.4062 17.1747C16.4062 17.1747 17.9252 17.0238 18.2687 16.476C18.6122 15.9282 19.1845 14.9931 19.3857 14.7667C19.5869 14.5402 19.5999 15.09 19.5999 15.09C19.5999 15.09 19.9318 15.5609 19.9318 14.9588C19.9318 14.3568 19.6957 14.7774 19.3857 13.8716C19.0756 12.9658 18.9012 12.0773 18.9884 11.9428C19.0756 11.8083 19.2821 12.0773 19.2821 11.9428C19.2821 11.8083 19.2821 11.5451 19.2821 11.5451L19.5999 11.9428L19.9318 11.8168C19.9318 11.8168 20.2051 12.402 20.3734 12.5832C20.5417 12.7644 20.6402 12.3405 20.591 11.9428C20.5417 11.5451 19.9318 11.5451 19.9318 11.5451C19.9318 11.5451 19.1518 11.1246 19.1518 10.9484C19.1518 10.7722 19.4891 10.8247 19.4891 10.8247L19.3857 10.2791C19.3857 10.2791 19.6644 10.6105 19.7981 10.4448C19.9318 10.2791 19.5999 9.98836 19.5999 9.98836H20.1291V9.73285L20.3734 9.8696L20.1291 9.31165C20.1291 9.31165 19.4125 9.41956 19.2821 9.31165C19.1518 9.20374 18.7414 8.78313 18.7414 8.78313V8.58346H18.505L18.7414 8.18295V7.54518L19.5999 7.71633V7.24475C19.5999 7.24475 20.8085 7.83391 20.591 8.30852C20.3734 8.78313 20.3734 9.31165 20.3734 9.31165V9.73285C20.3734 9.73285 20.4096 9.60391 20.591 9.60391C20.7723 9.60391 20.9786 9.69761 20.9786 9.98836C20.9786 10.2791 21.3479 9.8696 21.3479 9.8696V11.0792C21.3479 11.0792 21.4347 11.21 21.6245 11.0792C21.8143 10.9484 21.7311 11.0504 21.161 11.8168C20.591 12.5832 20.7963 12.5853 20.9786 12.3975C21.161 12.2097 21.9011 11.6759 21.6245 11.9428C21.3479 12.2097 21.3296 12.7689 21.6245 12.5832C21.9194 12.3975 21.8625 12.2654 21.8625 12.5832C21.8625 12.901 21.3434 13.9829 21.161 14.1523C20.9786 14.3218 20.8085 14.426 20.591 14.5963C20.3734 14.7667 20.1291 14.9679 20.1291 15.09C20.1291 15.2122 20.591 14.9588 20.591 14.9588L20.3734 15.7354H20.7962C20.7962 15.7354 20.4597 16.7666 19.7981 16.7666C19.1366 16.7666 18.6379 16.7666 18.505 16.7666C18.372 16.7666 17.7714 17.0499 17.7714 17.0499L17.332 17.1747C17.332 17.1747 18.0325 17.2416 18.2687 17.452C18.505 17.6623 18.2687 17.809 18.2687 17.809C18.2687 17.809 17.6204 17.7447 17.1364 17.5983C16.6524 17.452 16.4062 17.7293 16.4062 17.452C16.4062 17.1747 16.4062 17.1747 16.4062 17.1747Z" fill="#00A854"/>
<path fill-rule="evenodd" clip-rule="evenodd" d="M20.7819 8.90911C20.7819 9.00953 20.7041 9.09093 20.608 9.09093C20.512 9.09093 20.4341 9.00953 20.4341 8.90911C20.4341 8.8087 20.512 8.72729 20.608 8.72729C20.7041 8.72729 20.7819 8.8087 20.7819 8.90911ZM19.9124 9.63639C19.9124 9.7368 19.8345 9.8182 19.7385 9.8182C19.6424 9.8182 19.5645 9.7368 19.5645 9.63639C19.5645 9.53597 19.6424 9.45457 19.7385 9.45457C19.8345 9.45457 19.9124 9.53597 19.9124 9.63639ZM20.7819 9.45457C20.878 9.45457 20.9558 9.37316 20.9558 9.27275C20.9558 9.17233 20.878 9.09093 20.7819 9.09093C20.6859 9.09093 20.608 9.17233 20.608 9.27275C20.608 9.37316 20.6859 9.45457 20.7819 9.45457ZM20.4341 12.1818C20.4341 12.2823 20.3562 12.3637 20.2602 12.3637C20.1641 12.3637 20.0863 12.2823 20.0863 12.1818C20.0863 12.0814 20.1641 12 20.2602 12C20.3562 12 20.4341 12.0814 20.4341 12.1818ZM19.5645 14.5455C19.6606 14.5455 19.7385 14.4641 19.7385 14.3637C19.7385 14.2632 19.6606 14.1818 19.5645 14.1818C19.4685 14.1818 19.3906 14.2632 19.3906 14.3637C19.3906 14.4641 19.4685 14.5455 19.5645 14.5455ZM20.9558 14.9091C20.9558 15.0095 20.878 15.0909 20.7819 15.0909C20.6859 15.0909 20.608 15.0095 20.608 14.9091C20.608 14.8087 20.6859 14.7273 20.7819 14.7273C20.878 14.7273 20.9558 14.8087 20.9558 14.9091ZM21.1298 14.7273C21.2258 14.7273 21.3037 14.6459 21.3037 14.5455C21.3037 14.4451 21.2258 14.3637 21.1298 14.3637C21.0337 14.3637 20.9558 14.4451 20.9558 14.5455C20.9558 14.6459 21.0337 14.7273 21.1298 14.7273ZM21.1298 12C21.1298 12.1004 21.0519 12.1818 20.9558 12.1818C20.8598 12.1818 20.7819 12.1004 20.7819 12C20.7819 11.8996 20.8598 11.8182 20.9558 11.8182C21.0519 11.8182 21.1298 11.8996 21.1298 12Z" fill="#C51918"/>
<path fill-rule="evenodd" clip-rule="evenodd" d="M15.6855 16.8546C15.6855 16.8546 12.9219 16.3084 12.7707 15.2512C12.6196 14.1939 12.6217 13.0684 12.6217 13.0684L12.3654 13.7562C12.3654 13.7562 12.3525 12.8199 12.8781 12.152C13.4038 11.484 12.2211 12.5945 12.2211 12.5945C12.2211 12.5945 12.8199 11.6503 13.0692 11.5604C13.3186 11.4705 12.0675 12.152 12.0675 12.152C12.0675 12.152 12.4259 11.3596 12.7045 11.1355C12.9831 10.9114 12.0675 11.5604 12.0675 11.5604C12.0675 11.5604 12.2746 10.7745 12.5224 10.5871C12.7702 10.3996 11.7127 11.5604 11.7127 11.5604C11.7127 11.5604 12.2706 9.76474 12.5849 9.59716C12.8992 9.42958 12.0675 9.92639 12.0675 9.92639C12.0675 9.92639 12.5769 9.1584 13.0333 8.77662C13.4896 8.39483 12.2085 8.93942 12.3654 8.93942C12.3654 8.93942 12.8287 8.41625 13.0949 8.26858C13.361 8.12091 12.0675 8.77662 12.0675 8.77662C12.0675 8.77662 12.996 7.75195 13.2744 7.6011C13.5527 7.45024 11.9079 8.41483 11.9079 8.41483C11.9079 8.41483 12.004 7.96802 12.0455 7.6487C12.0869 7.32938 11.2834 8.52383 11.3925 9.59716C11.5016 10.6705 10.9554 8.77662 10.9554 8.77662C10.9554 8.77662 10.7356 9.18777 11.2696 10.2647L10.6908 9.45365C10.6908 9.45365 10.77 10.1897 10.9554 10.5871C11.1408 10.9844 10.4291 9.92639 10.4291 9.92639C10.4291 9.92639 10.2929 10.5871 10.4291 10.5871C10.4291 10.5871 11.2418 11.6729 11.2719 11.9894C11.3021 12.306 10.3592 10.8591 10.233 10.8591C10.1068 10.8591 10.0369 11.3238 10.233 11.3238C10.4291 11.3238 10.8005 11.9894 10.8005 11.9894C10.8005 11.9894 10.3178 11.6406 10.2143 11.6199C10.1108 11.5993 10.2955 11.8269 10.4291 11.9894C10.4291 11.9894 10.0515 12.2973 10.0802 12.5306C10.1088 12.7638 11.1094 12.8132 11.5454 13.9204C11.5454 13.9204 10.6439 13.4437 10.4291 13.4437C10.2143 13.4437 10.775 13.9414 10.9554 14.1057C11.1358 14.27 10.6774 13.9414 10.5532 14.1057C10.4291 14.27 11.2397 14.9718 11.3925 14.9718C11.5454 14.9718 10.8005 14.9718 10.8005 14.9718C10.8005 14.9718 10.9985 15.2512 11.2719 15.2512C11.5454 15.2512 12.5224 15.6903 12.5224 15.8326C12.5224 15.9748 11.6982 15.6505 11.5454 15.6505C11.3925 15.6505 12.6215 16.8103 13.2744 16.8546C13.9273 16.8988 14.3399 17.0741 14.6214 17.0741C14.9029 17.0741 15.1007 17.0741 15.1007 17.0741L13.7709 17.7517C13.7709 17.7517 13.6366 17.7517 14.2135 17.7517C14.7905 17.7517 15.2317 17.912 15.4586 17.5805C15.6855 17.2491 15.6855 16.8546 15.6855 16.8546Z" fill="#00A854"/>
<mask id="path-13-outside-1_230_24460" maskUnits="userSpaceOnUse" x="11.1777" y="6.88147" width="9" height="11" fill="black">
<rect fill="white" x="11.1777" y="6.88147" width="9" height="11"/>
<path fill-rule="evenodd" clip-rule="evenodd" d="M16.0875 8.90541C16.1141 8.89033 16.129 8.88147 16.129 8.88147V8.9286C16.3215 9.03481 16.8063 9.28369 17.1214 9.28369C17.5221 9.28369 18.0668 8.88147 18.0668 8.88147L18.978 10.1682C18.978 10.1682 18.3643 11.4545 18.8339 13.0263C19.3035 14.5981 18.8091 15.8101 16.7208 15.9447C16.7208 15.9447 16.3093 16.0229 16.129 16.1475V16.2626C16.129 16.2339 16.1136 16.2067 16.0875 16.1811C16.0614 16.2067 16.0461 16.2339 16.0461 16.2626V16.1475C15.8658 16.0229 15.4543 15.9447 15.4543 15.9447C13.366 15.8101 12.8715 14.5981 13.3411 13.0263C13.8107 11.4545 13.197 10.1682 13.197 10.1682L14.1083 8.88147C14.1083 8.88147 14.6529 9.28369 15.0536 9.28369C15.3688 9.28369 15.8535 9.03481 16.0461 8.9286V8.88147C16.0461 8.88147 16.0609 8.89033 16.0875 8.90541Z"/>
</mask>
<path fill-rule="evenodd" clip-rule="evenodd" d="M16.0875 8.90541C16.1141 8.89033 16.129 8.88147 16.129 8.88147V8.9286C16.3215 9.03481 16.8063 9.28369 17.1214 9.28369C17.5221 9.28369 18.0668 8.88147 18.0668 8.88147L18.978 10.1682C18.978 10.1682 18.3643 11.4545 18.8339 13.0263C19.3035 14.5981 18.8091 15.8101 16.7208 15.9447C16.7208 15.9447 16.3093 16.0229 16.129 16.1475V16.2626C16.129 16.2339 16.1136 16.2067 16.0875 16.1811C16.0614 16.2067 16.0461 16.2339 16.0461 16.2626V16.1475C15.8658 16.0229 15.4543 15.9447 15.4543 15.9447C13.366 15.8101 12.8715 14.5981 13.3411 13.0263C13.8107 11.4545 13.197 10.1682 13.197 10.1682L14.1083 8.88147C14.1083 8.88147 14.6529 9.28369 15.0536 9.28369C15.3688 9.28369 15.8535 9.03481 16.0461 8.9286V8.88147C16.0461 8.88147 16.0609 8.89033 16.0875 8.90541Z" fill="#E8AA00"/>
<path d="M16.129 8.88147H17.129V7.12111L15.6169 8.02252L16.129 8.88147ZM16.0875 8.90541L15.5944 9.77538L16.0875 10.0549L16.5806 9.77538L16.0875 8.90541ZM16.129 8.9286H15.129V9.51898L15.6459 9.80418L16.129 8.9286ZM18.0668 8.88147L18.8828 8.30351L18.2933 7.47105L17.4727 8.07706L18.0668 8.88147ZM18.978 10.1682L19.8806 10.5988L20.1333 10.0692L19.7941 9.59025L18.978 10.1682ZM18.8339 13.0263L17.8758 13.3126L18.8339 13.0263ZM16.7208 15.9447L16.6565 14.9467L16.5948 14.9507L16.5341 14.9622L16.7208 15.9447ZM16.129 16.1475L15.5604 15.3248L15.129 15.623V16.1475H16.129ZM16.0875 16.1811L16.7878 15.4672L16.0875 14.7804L15.3873 15.4672L16.0875 16.1811ZM16.0461 16.1475H17.0461V15.623L16.6146 15.3248L16.0461 16.1475ZM15.4543 15.9447L15.641 14.9622L15.5803 14.9507L15.5186 14.9467L15.4543 15.9447ZM13.197 10.1682L12.3809 9.59025L12.0418 10.0692L12.2945 10.5988L13.197 10.1682ZM14.1083 8.88147L14.7024 8.07706L13.8818 7.47105L13.2922 8.30351L14.1083 8.88147ZM16.0461 8.9286L16.5291 9.80418L17.0461 9.51898V8.9286H16.0461ZM16.0461 8.88147L16.5581 8.02252L15.0461 7.12111V8.88147H16.0461ZM16.129 8.88147C15.6169 8.02252 15.617 8.02251 15.617 8.0225C15.617 8.0225 15.617 8.02249 15.617 8.02248C15.617 8.02247 15.6171 8.02246 15.6171 8.02244C15.6171 8.02242 15.6172 8.02239 15.6172 8.02237C15.6173 8.02232 15.6174 8.02228 15.6174 8.02223C15.6176 8.02215 15.6177 8.02207 15.6178 8.022C15.6181 8.02186 15.6182 8.02175 15.6184 8.02167C15.6186 8.02152 15.6187 8.0215 15.6185 8.0216C15.6182 8.02179 15.617 8.02248 15.6151 8.02361C15.6111 8.02589 15.6041 8.02994 15.5944 8.03545L16.5806 9.77538C16.5975 9.7658 16.6113 9.75788 16.6214 9.75196C16.6265 9.74899 16.6308 9.74652 16.634 9.74458C16.6357 9.74362 16.6371 9.74278 16.6383 9.74209C16.6388 9.74174 16.6394 9.74142 16.6398 9.74115C16.6401 9.74101 16.6403 9.74088 16.6405 9.74076C16.6406 9.7407 16.6407 9.74064 16.6408 9.74058C16.6408 9.74055 16.6409 9.74053 16.6409 9.7405C16.641 9.74049 16.641 9.74047 16.641 9.74046C16.641 9.74045 16.641 9.74044 16.641 9.74044C16.641 9.74043 16.6411 9.74042 16.129 8.88147ZM17.129 8.9286V8.88147H15.129V8.9286H17.129ZM15.6459 9.80418C15.7594 9.86679 15.9662 9.97569 16.2008 10.0716C16.4035 10.1545 16.7568 10.2837 17.1214 10.2837V8.28369C17.1633 8.28369 17.1675 8.29021 17.1206 8.27757C17.0798 8.26657 17.0246 8.24772 16.9577 8.22036C16.8229 8.16527 16.6911 8.09662 16.6121 8.05301L15.6459 9.80418ZM17.1214 10.2837C17.5893 10.2837 18.0156 10.0726 18.2194 9.96252C18.3442 9.89516 18.4502 9.82898 18.525 9.77975C18.5629 9.75482 18.594 9.73343 18.6169 9.71735C18.6284 9.70929 18.6379 9.7025 18.6453 9.6972C18.649 9.69454 18.6521 9.69226 18.6547 9.69036C18.656 9.68942 18.6572 9.68857 18.6582 9.68782C18.6587 9.68744 18.6592 9.6871 18.6596 9.68677C18.6598 9.68661 18.6601 9.68646 18.6603 9.68631C18.6604 9.68623 18.6605 9.68612 18.6606 9.68609C18.6607 9.68598 18.6608 9.68588 18.0668 8.88147C17.4727 8.07706 17.4728 8.07696 17.473 8.07686C17.473 8.07683 17.4731 8.07673 17.4732 8.07667C17.4734 8.07655 17.4735 8.07643 17.4737 8.07631C17.474 8.07609 17.4743 8.07588 17.4745 8.0757C17.475 8.07534 17.4754 8.07507 17.4756 8.07488C17.4762 8.07451 17.4762 8.07449 17.4758 8.07478C17.475 8.07537 17.4724 8.07722 17.4682 8.08016C17.4598 8.08607 17.4452 8.09611 17.4258 8.10889C17.386 8.13507 17.3308 8.16944 17.2693 8.20264C17.2058 8.23691 17.1497 8.26227 17.1069 8.2773C17.0569 8.29487 17.0664 8.28369 17.1214 8.28369V10.2837ZM17.2507 9.45942L18.162 10.7462L19.7941 9.59025L18.8828 8.30351L17.2507 9.45942ZM18.978 10.1682C18.0755 9.73759 18.0754 9.73793 18.0752 9.73828C18.0751 9.73841 18.075 9.73876 18.0748 9.73901C18.0746 9.73951 18.0744 9.74002 18.0741 9.74056C18.0736 9.74163 18.073 9.74279 18.0725 9.74403C18.0713 9.7465 18.07 9.74931 18.0685 9.75245C18.0657 9.75871 18.0622 9.76629 18.0582 9.77513C18.0503 9.79283 18.0404 9.81566 18.0289 9.84337C18.0059 9.89874 17.9766 9.97394 17.9444 10.0669C17.8803 10.2523 17.804 10.5116 17.7462 10.828C17.6309 11.4585 17.5848 12.3387 17.8758 13.3126L19.7921 12.74C19.6134 12.1421 19.6394 11.5933 19.7136 11.1877C19.7505 10.986 19.7983 10.8255 19.8346 10.7206C19.8526 10.6684 19.8675 10.6308 19.8763 10.6097C19.8806 10.5992 19.8834 10.5929 19.8843 10.5909C19.8847 10.59 19.8847 10.5901 19.8841 10.5914C19.8838 10.5921 19.8833 10.593 19.8827 10.5943C19.8825 10.5949 19.8821 10.5956 19.8818 10.5963C19.8816 10.5967 19.8814 10.5971 19.8812 10.5975C19.8811 10.5977 19.8809 10.5981 19.8809 10.5982C19.8807 10.5985 19.8806 10.5988 18.978 10.1682ZM17.8758 13.3126C18.0733 13.9738 17.9945 14.3267 17.891 14.4906C17.8047 14.6273 17.5354 14.8901 16.6565 14.9467L16.7851 16.9426C17.9944 16.8647 19.0165 16.4542 19.5821 15.5583C20.1306 14.6896 20.0641 13.6507 19.7921 12.74L17.8758 13.3126ZM16.7208 15.9447C16.5341 14.9622 16.534 14.9623 16.5339 14.9623C16.5338 14.9623 16.5337 14.9623 16.5337 14.9623C16.5335 14.9624 16.5334 14.9624 16.5332 14.9624C16.5329 14.9625 16.5325 14.9625 16.5321 14.9626C16.5314 14.9628 16.5305 14.9629 16.5296 14.9631C16.5276 14.9635 16.5253 14.9639 16.5226 14.9645C16.5172 14.9656 16.5101 14.967 16.5017 14.9687C16.4849 14.9721 16.4622 14.9769 16.435 14.983C16.3813 14.9951 16.3065 15.0129 16.2228 15.0364C16.0974 15.0715 15.802 15.1578 15.5604 15.3248L16.6976 16.9701C16.65 17.003 16.6272 17.0079 16.6599 16.9953C16.6837 16.986 16.7189 16.9744 16.7622 16.9623C16.8038 16.9506 16.8433 16.9411 16.8723 16.9346C16.8865 16.9314 16.8974 16.9292 16.9038 16.9279C16.9069 16.9272 16.9089 16.9268 16.9096 16.9267C16.9099 16.9266 16.9099 16.9266 16.9096 16.9267C16.9094 16.9267 16.9091 16.9268 16.9088 16.9268C16.9086 16.9269 16.9084 16.9269 16.9082 16.927C16.9081 16.927 16.908 16.927 16.9078 16.927C16.9078 16.927 16.9077 16.927 16.9076 16.9271C16.9075 16.9271 16.9074 16.9271 16.7208 15.9447ZM17.129 16.2626V16.1475H15.129V16.2626H17.129ZM15.3873 16.895C15.3173 16.8264 15.129 16.6121 15.129 16.2626H17.129C17.129 15.8558 16.9099 15.587 16.7878 15.4672L15.3873 16.895ZM15.3873 15.4672C15.2651 15.587 15.0461 15.8558 15.0461 16.2626H17.0461C17.0461 16.6121 16.8577 16.8264 16.7878 16.895L15.3873 15.4672ZM17.0461 16.2626V16.1475H15.0461V16.2626H17.0461ZM15.4543 15.9447C15.2676 16.9271 15.2675 16.9271 15.2674 16.9271C15.2674 16.927 15.2673 16.927 15.2672 16.927C15.2671 16.927 15.267 16.927 15.2669 16.927C15.2667 16.9269 15.2665 16.9269 15.2663 16.9268C15.2659 16.9268 15.2657 16.9267 15.2655 16.9267C15.2651 16.9266 15.2651 16.9266 15.2655 16.9267C15.2661 16.9268 15.2681 16.9272 15.2713 16.9279C15.2777 16.9292 15.2885 16.9314 15.3027 16.9346C15.3318 16.9411 15.3712 16.9506 15.4129 16.9623C15.4562 16.9744 15.4913 16.986 15.5152 16.9953C15.5478 17.0079 15.5251 17.003 15.4775 16.9701L16.6146 15.3248C16.373 15.1578 16.0777 15.0715 15.9523 15.0364C15.8685 15.0129 15.7938 14.9951 15.7401 14.983C15.7129 14.9769 15.6902 14.9721 15.6734 14.9687C15.6649 14.967 15.6579 14.9656 15.6525 14.9645C15.6498 14.9639 15.6474 14.9635 15.6455 14.9631C15.6445 14.9629 15.6437 14.9628 15.6429 14.9626C15.6426 14.9625 15.6422 14.9625 15.6419 14.9624C15.6417 14.9624 15.6416 14.9624 15.6414 14.9623C15.6413 14.9623 15.6412 14.9623 15.6412 14.9623C15.6411 14.9623 15.641 14.9622 15.4543 15.9447ZM12.383 12.74C12.1109 13.6507 12.0445 14.6896 12.5929 15.5583C13.1585 16.4542 14.1807 16.8647 15.39 16.9426L15.5186 14.9467C14.6396 14.8901 14.3704 14.6273 14.2841 14.4906C14.1806 14.3267 14.1017 13.9738 14.2993 13.3126L12.383 12.74ZM13.197 10.1682C12.2945 10.5988 12.2943 10.5985 12.2942 10.5982C12.2941 10.5981 12.294 10.5977 12.2939 10.5975C12.2937 10.5971 12.2935 10.5967 12.2933 10.5963C12.2929 10.5956 12.2926 10.5949 12.2923 10.5943C12.2917 10.593 12.2913 10.5921 12.291 10.5914C12.2904 10.5901 12.2903 10.59 12.2908 10.5909C12.2916 10.5929 12.2944 10.5992 12.2988 10.6097C12.3076 10.6308 12.3224 10.6684 12.3405 10.7206C12.3768 10.8255 12.4246 10.986 12.4615 11.1877C12.5357 11.5933 12.5616 12.1421 12.383 12.74L14.2993 13.3126C14.5902 12.3387 14.5442 11.4585 14.4289 10.828C14.371 10.5116 14.2948 10.2523 14.2307 10.0669C14.1985 9.97394 14.1691 9.89874 14.1461 9.84337C14.1347 9.81566 14.1247 9.79283 14.1168 9.77513C14.1129 9.76629 14.1094 9.75871 14.1065 9.75245C14.1051 9.74931 14.1038 9.7465 14.1026 9.74403C14.102 9.74279 14.1015 9.74163 14.101 9.74056C14.1007 9.74002 14.1005 9.73951 14.1002 9.73901C14.1001 9.73876 14.0999 9.73841 14.0999 9.73828C14.0997 9.73793 14.0996 9.73759 13.197 10.1682ZM13.2922 8.30351L12.3809 9.59025L14.0131 10.7462L14.9244 9.45942L13.2922 8.30351ZM15.0536 8.28369C15.1086 8.28369 15.1182 8.29487 15.0681 8.2773C15.0253 8.26227 14.9693 8.23691 14.9058 8.20264C14.8443 8.16944 14.7891 8.13507 14.7493 8.10889C14.7298 8.09611 14.7153 8.08607 14.7069 8.08016C14.7027 8.07722 14.7001 8.07537 14.6993 8.07478C14.6989 8.07449 14.6989 8.07451 14.6994 8.07488C14.6997 8.07507 14.7 8.07534 14.7005 8.0757C14.7008 8.07588 14.7011 8.07609 14.7014 8.07631C14.7015 8.07643 14.7017 8.07655 14.7019 8.07667C14.7019 8.07673 14.7021 8.07683 14.7021 8.07686C14.7022 8.07696 14.7024 8.07706 14.1083 8.88147C13.5142 9.68588 13.5144 9.68598 13.5145 9.68609C13.5146 9.68612 13.5147 9.68623 13.5148 9.68631C13.515 9.68646 13.5152 9.68661 13.5154 9.68677C13.5159 9.6871 13.5164 9.68744 13.5169 9.68782C13.5179 9.68857 13.519 9.68942 13.5203 9.69036C13.5229 9.69226 13.5261 9.69454 13.5298 9.6972C13.5371 9.7025 13.5466 9.70929 13.5581 9.71735C13.581 9.73343 13.6122 9.75482 13.6501 9.77975C13.7249 9.82898 13.8309 9.89516 13.9556 9.96252C14.1595 10.0726 14.5857 10.2837 15.0536 10.2837V8.28369ZM15.563 8.05301C15.484 8.09662 15.3521 8.16527 15.2174 8.22036C15.1505 8.24772 15.0953 8.26657 15.0545 8.27757C15.0075 8.29021 15.0117 8.28369 15.0536 8.28369V10.2837C15.4183 10.2837 15.7716 10.1545 15.9743 10.0716C16.2089 9.97569 16.4156 9.86679 16.5291 9.80418L15.563 8.05301ZM17.0461 8.9286V8.88147H15.0461V8.9286H17.0461ZM16.0461 8.88147C15.534 9.74042 15.534 9.74043 15.534 9.74044C15.534 9.74044 15.5341 9.74045 15.5341 9.74046C15.5341 9.74047 15.5341 9.74049 15.5341 9.7405C15.5342 9.74053 15.5342 9.74055 15.5343 9.74058C15.5344 9.74064 15.5345 9.7407 15.5346 9.74076C15.5348 9.74088 15.535 9.74101 15.5352 9.74115C15.5357 9.74142 15.5362 9.74174 15.5368 9.74209C15.538 9.74278 15.5394 9.74362 15.541 9.74458C15.5443 9.74652 15.5485 9.74899 15.5536 9.75196C15.5638 9.75788 15.5775 9.7658 15.5944 9.77538L16.5806 8.03545C16.5709 8.02994 16.5639 8.02589 16.56 8.02361C16.5581 8.02248 16.5569 8.02179 16.5566 8.0216C16.5564 8.0215 16.5564 8.02152 16.5567 8.02167C16.5568 8.02175 16.557 8.02186 16.5572 8.022C16.5574 8.02207 16.5575 8.02215 16.5576 8.02223C16.5577 8.02228 16.5578 8.02232 16.5579 8.02237C16.5579 8.02239 16.558 8.02242 16.558 8.02244C16.558 8.02246 16.558 8.02247 16.5581 8.02248C16.5581 8.02249 16.5581 8.0225 16.5581 8.0225C16.5581 8.02251 16.5581 8.02252 16.0461 8.88147Z" fill="#E8AA00" mask="url(#path-13-outside-1_230_24460)"/>
<mask id="mask1_230_24460" style="mask-type:luminance" maskUnits="userSpaceOnUse" x="12" y="7" width="9" height="11">
<mask id="path-15-outside-2_230_24460" maskUnits="userSpaceOnUse" x="11.1777" y="6.88147" width="9" height="11" fill="black">
<rect fill="white" x="11.1777" y="6.88147" width="9" height="11"/>
<path fill-rule="evenodd" clip-rule="evenodd" d="M16.0875 8.90541C16.1141 8.89033 16.129 8.88147 16.129 8.88147V8.9286C16.3215 9.03481 16.8063 9.28369 17.1214 9.28369C17.5221 9.28369 18.0668 8.88147 18.0668 8.88147L18.978 10.1682C18.978 10.1682 18.3643 11.4545 18.8339 13.0263C19.3035 14.5981 18.8091 15.8101 16.7208 15.9447C16.7208 15.9447 16.3093 16.0229 16.129 16.1475V16.2626C16.129 16.2339 16.1136 16.2067 16.0875 16.1811C16.0614 16.2067 16.0461 16.2339 16.0461 16.2626V16.1475C15.8658 16.0229 15.4543 15.9447 15.4543 15.9447C13.366 15.8101 12.8715 14.5981 13.3411 13.0263C13.8107 11.4545 13.197 10.1682 13.197 10.1682L14.1083 8.88147C14.1083 8.88147 14.6529 9.28369 15.0536 9.28369C15.3688 9.28369 15.8535 9.03481 16.0461 8.9286V8.88147C16.0461 8.88147 16.0609 8.89033 16.0875 8.90541Z"/>
</mask>
<path fill-rule="evenodd" clip-rule="evenodd" d="M16.0875 8.90541C16.1141 8.89033 16.129 8.88147 16.129 8.88147V8.9286C16.3215 9.03481 16.8063 9.28369 17.1214 9.28369C17.5221 9.28369 18.0668 8.88147 18.0668 8.88147L18.978 10.1682C18.978 10.1682 18.3643 11.4545 18.8339 13.0263C19.3035 14.5981 18.8091 15.8101 16.7208 15.9447C16.7208 15.9447 16.3093 16.0229 16.129 16.1475V16.2626C16.129 16.2339 16.1136 16.2067 16.0875 16.1811C16.0614 16.2067 16.0461 16.2339 16.0461 16.2626V16.1475C15.8658 16.0229 15.4543 15.9447 15.4543 15.9447C13.366 15.8101 12.8715 14.5981 13.3411 13.0263C13.8107 11.4545 13.197 10.1682 13.197 10.1682L14.1083 8.88147C14.1083 8.88147 14.6529 9.28369 15.0536 9.28369C15.3688 9.28369 15.8535 9.03481 16.0461 8.9286V8.88147C16.0461 8.88147 16.0609 8.89033 16.0875 8.90541Z" fill="white"/>
<path d="M16.129 8.88147H17.129V7.12111L15.6169 8.02252L16.129 8.88147ZM16.0875 8.90541L15.5944 9.77538L16.0875 10.0549L16.5806 9.77538L16.0875 8.90541ZM16.129 8.9286H15.129V9.51898L15.6459 9.80418L16.129 8.9286ZM18.0668 8.88147L18.8828 8.30351L18.2933 7.47105L17.4727 8.07706L18.0668 8.88147ZM18.978 10.1682L19.8806 10.5988L20.1333 10.0692L19.7941 9.59025L18.978 10.1682ZM18.8339 13.0263L17.8758 13.3126L18.8339 13.0263ZM16.7208 15.9447L16.6565 14.9467L16.5948 14.9507L16.5341 14.9622L16.7208 15.9447ZM16.129 16.1475L15.5604 15.3248L15.129 15.623V16.1475H16.129ZM16.0875 16.1811L16.7878 15.4672L16.0875 14.7804L15.3873 15.4672L16.0875 16.1811ZM16.0461 16.1475H17.0461V15.623L16.6146 15.3248L16.0461 16.1475ZM15.4543 15.9447L15.641 14.9622L15.5803 14.9507L15.5186 14.9467L15.4543 15.9447ZM13.197 10.1682L12.3809 9.59025L12.0418 10.0692L12.2945 10.5988L13.197 10.1682ZM14.1083 8.88147L14.7024 8.07706L13.8818 7.47105L13.2922 8.30351L14.1083 8.88147ZM16.0461 8.9286L16.5291 9.80418L17.0461 9.51898V8.9286H16.0461ZM16.0461 8.88147L16.5581 8.02252L15.0461 7.12111V8.88147H16.0461ZM16.129 8.88147C15.6169 8.02252 15.617 8.02251 15.617 8.0225C15.617 8.0225 15.617 8.02249 15.617 8.02248C15.617 8.02247 15.6171 8.02246 15.6171 8.02244C15.6171 8.02242 15.6172 8.02239 15.6172 8.02237C15.6173 8.02232 15.6174 8.02228 15.6174 8.02223C15.6176 8.02215 15.6177 8.02207 15.6178 8.022C15.6181 8.02186 15.6182 8.02175 15.6184 8.02167C15.6186 8.02152 15.6187 8.0215 15.6185 8.0216C15.6182 8.02179 15.617 8.02248 15.6151 8.02361C15.6111 8.02589 15.6041 8.02994 15.5944 8.03545L16.5806 9.77538C16.5975 9.7658 16.6113 9.75788 16.6214 9.75196C16.6265 9.74899 16.6308 9.74652 16.634 9.74458C16.6357 9.74362 16.6371 9.74278 16.6383 9.74209C16.6388 9.74174 16.6394 9.74142 16.6398 9.74115C16.6401 9.74101 16.6403 9.74088 16.6405 9.74076C16.6406 9.7407 16.6407 9.74064 16.6408 9.74058C16.6408 9.74055 16.6409 9.74053 16.6409 9.7405C16.641 9.74049 16.641 9.74047 16.641 9.74046C16.641 9.74045 16.641 9.74044 16.641 9.74044C16.641 9.74043 16.6411 9.74042 16.129 8.88147ZM17.129 8.9286V8.88147H15.129V8.9286H17.129ZM15.6459 9.80418C15.7594 9.86679 15.9662 9.97569 16.2008 10.0716C16.4035 10.1545 16.7568 10.2837 17.1214 10.2837V8.28369C17.1633 8.28369 17.1675 8.29021 17.1206 8.27757C17.0798 8.26657 17.0246 8.24772 16.9577 8.22036C16.8229 8.16527 16.6911 8.09662 16.6121 8.05301L15.6459 9.80418ZM17.1214 10.2837C17.5893 10.2837 18.0156 10.0726 18.2194 9.96252C18.3442 9.89516 18.4502 9.82898 18.525 9.77975C18.5629 9.75482 18.594 9.73343 18.6169 9.71735C18.6284 9.70929 18.6379 9.7025 18.6453 9.6972C18.649 9.69454 18.6521 9.69226 18.6547 9.69036C18.656 9.68942 18.6572 9.68857 18.6582 9.68782C18.6587 9.68744 18.6592 9.6871 18.6596 9.68677C18.6598 9.68661 18.6601 9.68646 18.6603 9.68631C18.6604 9.68623 18.6605 9.68612 18.6606 9.68609C18.6607 9.68598 18.6608 9.68588 18.0668 8.88147C17.4727 8.07706 17.4728 8.07696 17.473 8.07686C17.473 8.07683 17.4731 8.07673 17.4732 8.07667C17.4734 8.07655 17.4735 8.07643 17.4737 8.07631C17.474 8.07609 17.4743 8.07588 17.4745 8.0757C17.475 8.07534 17.4754 8.07507 17.4756 8.07488C17.4762 8.07451 17.4762 8.07449 17.4758 8.07478C17.475 8.07537 17.4724 8.07722 17.4682 8.08016C17.4598 8.08607 17.4452 8.09611 17.4258 8.10889C17.386 8.13507 17.3308 8.16944 17.2693 8.20264C17.2058 8.23691 17.1497 8.26227 17.1069 8.2773C17.0569 8.29487 17.0664 8.28369 17.1214 8.28369V10.2837ZM17.2507 9.45942L18.162 10.7462L19.7941 9.59025L18.8828 8.30351L17.2507 9.45942ZM18.978 10.1682C18.0755 9.73759 18.0754 9.73793 18.0752 9.73828C18.0751 9.73841 18.075 9.73876 18.0748 9.73901C18.0746 9.73951 18.0744 9.74002 18.0741 9.74056C18.0736 9.74163 18.073 9.74279 18.0725 9.74403C18.0713 9.7465 18.07 9.74931 18.0685 9.75245C18.0657 9.75871 18.0622 9.76629 18.0582 9.77513C18.0503 9.79283 18.0404 9.81566 18.0289 9.84337C18.0059 9.89874 17.9766 9.97394 17.9444 10.0669C17.8803 10.2523 17.804 10.5116 17.7462 10.828C17.6309 11.4585 17.5848 12.3387 17.8758 13.3126L19.7921 12.74C19.6134 12.1421 19.6394 11.5933 19.7136 11.1877C19.7505 10.986 19.7983 10.8255 19.8346 10.7206C19.8526 10.6684 19.8675 10.6308 19.8763 10.6097C19.8806 10.5992 19.8834 10.5929 19.8843 10.5909C19.8847 10.59 19.8847 10.5901 19.8841 10.5914C19.8838 10.5921 19.8833 10.593 19.8827 10.5943C19.8825 10.5949 19.8821 10.5956 19.8818 10.5963C19.8816 10.5967 19.8814 10.5971 19.8812 10.5975C19.8811 10.5977 19.8809 10.5981 19.8809 10.5982C19.8807 10.5985 19.8806 10.5988 18.978 10.1682ZM17.8758 13.3126C18.0733 13.9738 17.9945 14.3267 17.891 14.4906C17.8047 14.6273 17.5354 14.8901 16.6565 14.9467L16.7851 16.9426C17.9944 16.8647 19.0165 16.4542 19.5821 15.5583C20.1306 14.6896 20.0641 13.6507 19.7921 12.74L17.8758 13.3126ZM16.7208 15.9447C16.5341 14.9622 16.534 14.9623 16.5339 14.9623C16.5338 14.9623 16.5337 14.9623 16.5337 14.9623C16.5335 14.9624 16.5334 14.9624 16.5332 14.9624C16.5329 14.9625 16.5325 14.9625 16.5321 14.9626C16.5314 14.9628 16.5305 14.9629 16.5296 14.9631C16.5276 14.9635 16.5253 14.9639 16.5226 14.9645C16.5172 14.9656 16.5101 14.967 16.5017 14.9687C16.4849 14.9721 16.4622 14.9769 16.435 14.983C16.3813 14.9951 16.3065 15.0129 16.2228 15.0364C16.0974 15.0715 15.802 15.1578 15.5604 15.3248L16.6976 16.9701C16.65 17.003 16.6272 17.0079 16.6599 16.9953C16.6837 16.986 16.7189 16.9744 16.7622 16.9623C16.8038 16.9506 16.8433 16.9411 16.8723 16.9346C16.8865 16.9314 16.8974 16.9292 16.9038 16.9279C16.9069 16.9272 16.9089 16.9268 16.9096 16.9267C16.9099 16.9266 16.9099 16.9266 16.9096 16.9267C16.9094 16.9267 16.9091 16.9268 16.9088 16.9268C16.9086 16.9269 16.9084 16.9269 16.9082 16.927C16.9081 16.927 16.908 16.927 16.9078 16.927C16.9078 16.927 16.9077 16.927 16.9076 16.9271C16.9075 16.9271 16.9074 16.9271 16.7208 15.9447ZM17.129 16.2626V16.1475H15.129V16.2626H17.129ZM15.3873 16.895C15.3173 16.8264 15.129 16.6121 15.129 16.2626H17.129C17.129 15.8558 16.9099 15.587 16.7878 15.4672L15.3873 16.895ZM15.3873 15.4672C15.2651 15.587 15.0461 15.8558 15.0461 16.2626H17.0461C17.0461 16.6121 16.8577 16.8264 16.7878 16.895L15.3873 15.4672ZM17.0461 16.2626V16.1475H15.0461V16.2626H17.0461ZM15.4543 15.9447C15.2676 16.9271 15.2675 16.9271 15.2674 16.9271C15.2674 16.927 15.2673 16.927 15.2672 16.927C15.2671 16.927 15.267 16.927 15.2669 16.927C15.2667 16.9269 15.2665 16.9269 15.2663 16.9268C15.2659 16.9268 15.2657 16.9267 15.2655 16.9267C15.2651 16.9266 15.2651 16.9266 15.2655 16.9267C15.2661 16.9268 15.2681 16.9272 15.2713 16.9279C15.2777 16.9292 15.2885 16.9314 15.3027 16.9346C15.3318 16.9411 15.3712 16.9506 15.4129 16.9623C15.4562 16.9744 15.4913 16.986 15.5152 16.9953C15.5478 17.0079 15.5251 17.003 15.4775 16.9701L16.6146 15.3248C16.373 15.1578 16.0777 15.0715 15.9523 15.0364C15.8685 15.0129 15.7938 14.9951 15.7401 14.983C15.7129 14.9769 15.6902 14.9721 15.6734 14.9687C15.6649 14.967 15.6579 14.9656 15.6525 14.9645C15.6498 14.9639 15.6474 14.9635 15.6455 14.9631C15.6445 14.9629 15.6437 14.9628 15.6429 14.9626C15.6426 14.9625 15.6422 14.9625 15.6419 14.9624C15.6417 14.9624 15.6416 14.9624 15.6414 14.9623C15.6413 14.9623 15.6412 14.9623 15.6412 14.9623C15.6411 14.9623 15.641 14.9622 15.4543 15.9447ZM12.383 12.74C12.1109 13.6507 12.0445 14.6896 12.5929 15.5583C13.1585 16.4542 14.1807 16.8647 15.39 16.9426L15.5186 14.9467C14.6396 14.8901 14.3704 14.6273 14.2841 14.4906C14.1806 14.3267 14.1017 13.9738 14.2993 13.3126L12.383 12.74ZM13.197 10.1682C12.2945 10.5988 12.2943 10.5985 12.2942 10.5982C12.2941 10.5981 12.294 10.5977 12.2939 10.5975C12.2937 10.5971 12.2935 10.5967 12.2933 10.5963C12.2929 10.5956 12.2926 10.5949 12.2923 10.5943C12.2917 10.593 12.2913 10.5921 12.291 10.5914C12.2904 10.5901 12.2903 10.59 12.2908 10.5909C12.2916 10.5929 12.2944 10.5992 12.2988 10.6097C12.3076 10.6308 12.3224 10.6684 12.3405 10.7206C12.3768 10.8255 12.4246 10.986 12.4615 11.1877C12.5357 11.5933 12.5616 12.1421 12.383 12.74L14.2993 13.3126C14.5902 12.3387 14.5442 11.4585 14.4289 10.828C14.371 10.5116 14.2948 10.2523 14.2307 10.0669C14.1985 9.97394 14.1691 9.89874 14.1461 9.84337C14.1347 9.81566 14.1247 9.79283 14.1168 9.77513C14.1129 9.76629 14.1094 9.75871 14.1065 9.75245C14.1051 9.74931 14.1038 9.7465 14.1026 9.74403C14.102 9.74279 14.1015 9.74163 14.101 9.74056C14.1007 9.74002 14.1005 9.73951 14.1002 9.73901C14.1001 9.73876 14.0999 9.73841 14.0999 9.73828C14.0997 9.73793 14.0996 9.73759 13.197 10.1682ZM13.2922 8.30351L12.3809 9.59025L14.0131 10.7462L14.9244 9.45942L13.2922 8.30351ZM15.0536 8.28369C15.1086 8.28369 15.1182 8.29487 15.0681 8.2773C15.0253 8.26227 14.9693 8.23691 14.9058 8.20264C14.8443 8.16944 14.7891 8.13507 14.7493 8.10889C14.7298 8.09611 14.7153 8.08607 14.7069 8.08016C14.7027 8.07722 14.7001 8.07537 14.6993 8.07478C14.6989 8.07449 14.6989 8.07451 14.6994 8.07488C14.6997 8.07507 14.7 8.07534 14.7005 8.0757C14.7008 8.07588 14.7011 8.07609 14.7014 8.07631C14.7015 8.07643 14.7017 8.07655 14.7019 8.07667C14.7019 8.07673 14.7021 8.07683 14.7021 8.07686C14.7022 8.07696 14.7024 8.07706 14.1083 8.88147C13.5142 9.68588 13.5144 9.68598 13.5145 9.68609C13.5146 9.68612 13.5147 9.68623 13.5148 9.68631C13.515 9.68646 13.5152 9.68661 13.5154 9.68677C13.5159 9.6871 13.5164 9.68744 13.5169 9.68782C13.5179 9.68857 13.519 9.68942 13.5203 9.69036C13.5229 9.69226 13.5261 9.69454 13.5298 9.6972C13.5371 9.7025 13.5466 9.70929 13.5581 9.71735C13.581 9.73343 13.6122 9.75482 13.6501 9.77975C13.7249 9.82898 13.8309 9.89516 13.9556 9.96252C14.1595 10.0726 14.5857 10.2837 15.0536 10.2837V8.28369ZM15.563 8.05301C15.484 8.09662 15.3521 8.16527 15.2174 8.22036C15.1505 8.24772 15.0953 8.26657 15.0545 8.27757C15.0075 8.29021 15.0117 8.28369 15.0536 8.28369V10.2837C15.4183 10.2837 15.7716 10.1545 15.9743 10.0716C16.2089 9.97569 16.4156 9.86679 16.5291 9.80418L15.563 8.05301ZM17.0461 8.9286V8.88147H15.0461V8.9286H17.0461ZM16.0461 8.88147C15.534 9.74042 15.534 9.74043 15.534 9.74044C15.534 9.74044 15.5341 9.74045 15.5341 9.74046C15.5341 9.74047 15.5341 9.74049 15.5341 9.7405C15.5342 9.74053 15.5342 9.74055 15.5343 9.74058C15.5344 9.74064 15.5345 9.7407 15.5346 9.74076C15.5348 9.74088 15.535 9.74101 15.5352 9.74115C15.5357 9.74142 15.5362 9.74174 15.5368 9.74209C15.538 9.74278 15.5394 9.74362 15.541 9.74458C15.5443 9.74652 15.5485 9.74899 15.5536 9.75196C15.5638 9.75788 15.5775 9.7658 15.5944 9.77538L16.5806 8.03545C16.5709 8.02994 16.5639 8.02589 16.56 8.02361C16.5581 8.02248 16.5569 8.02179 16.5566 8.0216C16.5564 8.0215 16.5564 8.02152 16.5567 8.02167C16.5568 8.02175 16.557 8.02186 16.5572 8.022C16.5574 8.02207 16.5575 8.02215 16.5576 8.02223C16.5577 8.02228 16.5578 8.02232 16.5579 8.02237C16.5579 8.02239 16.558 8.02242 16.558 8.02244C16.558 8.02246 16.558 8.02247 16.5581 8.02248C16.5581 8.02249 16.5581 8.0225 16.5581 8.0225C16.5581 8.02251 16.5581 8.02252 16.0461 8.88147Z" fill="white" mask="url(#path-15-outside-2_230_24460)"/>
</mask>
<g mask="url(#mask1_230_24460)">
<rect x="13.3047" y="8.72729" width="2.78261" height="3.81818" fill="#67BAFF"/>
<rect x="16.0879" y="8.72729" width="2.78261" height="3.81818" fill="white"/>
<rect x="12.957" y="12.9091" width="6.95652" height="4.36364" fill="#C51918"/>
<path d="M17.4357 12.275H17.0879V9.66028H17.4357V12.275Z" fill="#C9A951"/>
<path d="M17.2953 11.0856L17.1258 11.3893L16.5254 11.0541L16.695 10.7504L17.2953 11.0856Z" fill="#C9A951"/>
<path d="M17.2953 10.3583L17.1258 10.662L16.5254 10.3268L16.695 10.0231L17.2953 10.3583Z" fill="#C9A951"/>
<path d="M17.2203 11.0856L17.3899 11.3893L17.9902 11.0541L17.8207 10.7504L17.2203 11.0856Z" fill="#C9A951"/>
<path d="M17.2203 10.3583L17.3899 10.662L17.9902 10.3268L17.8207 10.0231L17.2203 10.3583Z" fill="#C9A951"/>
<path fill-rule="evenodd" clip-rule="evenodd" d="M17.7292 13.705C17.7292 13.705 17.9711 13.4283 17.9711 13.5666C17.9711 13.705 17.9711 13.9376 17.8501 13.9376C17.7292 13.9376 17.1656 13.8269 16.9509 13.5666C16.7362 13.3064 16.282 12.8533 15.6973 12.9599C15.1126 13.0666 14.4191 13.8246 14.2482 13.8246C14.0773 13.8246 13.7026 14.4088 13.9754 14.8651C14.2482 15.3213 14.7122 15.1798 14.7122 15.3121C14.7122 15.4445 14.8282 15.4597 15.2628 15.4597C15.6973 15.4597 15.8562 15.613 16.2323 15.613C16.6085 15.613 16.1082 15.6074 16.714 15.4597C17.3199 15.3121 17.7788 14.8651 17.4257 14.8651C17.0727 14.8651 16.9586 14.8651 16.714 14.8651C16.4694 14.8651 15.925 15.0413 15.925 14.8651C15.925 14.6888 16.0459 14.3114 16.38 14.5001C16.714 14.6888 17.6422 14.8327 17.9711 14.5001C18.3001 14.1675 18.4151 13.967 18.3576 13.5666C18.3001 13.1663 17.8501 13.2815 17.8501 13.2815L17.7292 13.705Z" fill="#FBCD17"/>
<path fill-rule="evenodd" clip-rule="evenodd" d="M15.3776 9.56982C15.1679 9.75321 15.3032 10.4234 14.9596 10.4234C14.6161 10.4234 14.1326 9.92155 14.0108 10.2527C13.8891 10.5838 14.0108 10.4726 14.0108 10.7546C14.0108 11.0366 13.7192 11.8203 13.865 11.9528C14.0108 12.0853 14.1602 12.4344 14.1344 12.271C14.1085 12.1076 13.9982 11.8676 14.0442 11.6069C13.9998 11.3376 14.2899 11.0785 14.2899 11.0785C14.2899 11.0785 14.2584 11.3581 14.2356 11.4624C14.2356 11.4624 14.1399 11.6728 14.1787 11.8126C14.1787 11.8126 14.277 12.2065 14.3175 12.2337C14.3175 12.2337 14.3438 11.301 14.3737 11.1473C14.4036 10.9936 14.6168 11.3207 14.6877 11.2836C14.6877 11.2836 14.7121 11.9214 14.6752 11.9974C14.6752 11.9974 14.6004 12.1482 14.6282 12.1964C14.6282 12.1964 14.6976 12.371 14.7568 12.3202C14.7568 12.3202 14.7589 12.3165 14.7889 12.1466C14.7889 12.1466 14.754 12.044 14.8086 11.8103C14.8086 11.8103 14.866 11.2958 14.8898 11.4074C14.8898 11.4074 14.8791 11.6503 14.9065 11.7755C14.9065 11.7755 14.9503 12.0864 14.959 12.1205C14.959 12.1205 15.169 12.4195 15.1745 12.2932C15.1745 12.2932 14.9733 12.0533 15.0164 11.8707C15.0164 11.8707 14.9012 11.3535 15.062 11.2382C15.062 11.2382 15.4886 11.0408 15.5143 10.7031C15.5143 10.7031 15.5761 10.3181 15.5872 10.1416C15.5872 10.1416 15.4936 10.0898 15.6871 9.99865C15.6871 9.99865 15.9985 9.87912 15.8044 9.71291" fill="#D18219"/>
</g>
</g>
<rect width="32" height="24" fill="url(#paint0_linear_230_24460)" style="mix-blend-mode:overlay"/>
</g>
<rect x="0.5" y="0.5" width="31" height="23" rx="1.5" stroke="black" stroke-opacity="0.1"/>
<defs>
<linearGradient id="paint0_linear_230_24460" x1="16" y1="0" x2="16" y2="24" gradientUnits="userSpaceOnUse">
<stop stop-color="white" stop-opacity="0.7"/>
<stop offset="1" stop-opacity="0.3"/>
</linearGradient>
<clipPath id="clip0_230_24460">
<rect width="32" height="24" rx="2" fill="white"/>
</clipPath>
</defs>
</svg>
