<svg width="32" height="24" viewBox="0 0 32 24" fill="none" xmlns="http://www.w3.org/2000/svg">
<g clip-path="url(#clip0_230_27211)">
<mask id="mask0_230_27211" style="mask-type:luminance" maskUnits="userSpaceOnUse" x="0" y="0" width="32" height="24">
<rect width="32" height="24" fill="white"/>
</mask>
<g mask="url(#mask0_230_27211)">
<path fill-rule="evenodd" clip-rule="evenodd" d="M0 0V24H32V0H0Z" fill="#2E42A5"/>
<mask id="mask1_230_27211" style="mask-type:luminance" maskUnits="userSpaceOnUse" x="0" y="0" width="32" height="24">
<path fill-rule="evenodd" clip-rule="evenodd" d="M0 0V24H32V0H0Z" fill="white"/>
</mask>
<g mask="url(#mask1_230_27211)">
<path fill-rule="evenodd" clip-rule="evenodd" d="M0 0V12H32V0H0Z" fill="#FECA00"/>
<path fill-rule="evenodd" clip-rule="evenodd" d="M0 18V24H32V18H0Z" fill="#E31D1C"/>
<path fill-rule="evenodd" clip-rule="evenodd" d="M9.71875 5.71424C9.71875 5.71424 13.875 3.83662 14.2528 4.04993C14.6305 4.26323 14.7217 4.87121 15.0478 4.87121C15.374 4.87121 16.0305 4.67909 16.3046 4.67909C16.5788 4.67909 16.8497 4.87121 16.8497 4.87121H18.0204V4.22022L23.3286 5.71424C23.3286 5.71424 20.2326 6.11872 19.9992 6.11872C19.7659 6.11872 19.9992 6.45234 19.9992 6.45234C19.9992 6.45234 19.5577 6.11872 18.8854 6.11872C18.2131 6.11872 16.8497 6.81329 16.8497 6.81329L17.3453 7.87944L16.8497 8.19294L16.3046 7.87944C16.3046 7.87944 16.3399 7.00268 16.1052 7.00268C15.8704 7.00268 15.6992 7.56593 15.6992 7.87944C15.6992 8.19294 15.0478 8.19294 15.0478 8.19294L15.3388 7.60604C15.3388 7.60604 15.628 6.633 15.0478 6.633C14.4676 6.633 11.823 6.11872 11.823 6.11872L11.1467 6.45234L11.3885 5.71424H9.71875Z" fill="#7B2900"/>
<path fill-rule="evenodd" clip-rule="evenodd" d="M11.5032 15.7742C10.8545 14.3163 11.5032 11.0865 11.5032 11.0865L12.7638 11.7475C12.6143 12.5013 12.5909 13.9258 13.0626 15.0907C13.5343 16.2557 15.3176 17.1732 15.3176 17.1732C15.3176 17.1732 16.2173 17.3738 14.8504 17.5183C13.4835 17.6628 12.1519 17.232 11.5032 15.7742ZM14.7352 21.5167C14.329 21.5167 15.5474 18.8077 15.5474 18.8077L15.9234 18.0551C15.9234 18.0551 15.9694 21.2439 15.712 21.5167C15.5469 21.6916 15.3589 21.6422 15.1382 21.5843C15.0147 21.5518 14.8809 21.5167 14.7352 21.5167Z" fill="#E31D1C"/>
<path fill-rule="evenodd" clip-rule="evenodd" d="M10.3283 15.2981C9.78486 13.1211 10.6327 10.1649 10.6327 10.1649L11.486 10.7746C11.3607 11.9002 11.3607 14.8111 12.0825 16.0724C12.8042 17.3336 15.9697 17.8634 15.9697 17.8634C15.9697 17.8634 15.3451 18.3251 14.2 18.5409C13.0548 18.7568 10.8718 17.4751 10.3283 15.2981ZM13.9573 21.2171L14.4593 19.4248L15.167 18.5589H15.6758C15.6758 18.5589 14.9595 21.6396 14.4593 21.6396C14.1344 21.6396 14.2317 21.4613 14.3397 21.2632C14.398 21.1564 14.4593 21.0439 14.4593 20.9504C14.4593 20.6837 13.9573 21.2171 13.9573 21.2171Z" fill="#2E42A5"/>
<path fill-rule="evenodd" clip-rule="evenodd" d="M9.49934 15.671C9.22965 13.7972 9.76903 9.31995 9.76903 9.31995L10.6223 9.92963C10.2367 11.0141 10.3561 14.126 10.6223 15.671C10.8886 17.2161 13.4079 18.1475 13.4079 18.1475C13.4079 18.1475 12.7834 18.6091 11.6383 18.825C10.4931 19.0408 9.76903 17.5449 9.49934 15.671ZM13.688 19.4155C13.2021 19.4155 13.8998 18.7189 13.8998 18.7189H15.0629C15.0629 18.7189 14.665 19.7029 14.1738 19.7029C13.9275 19.7029 13.9282 19.6306 13.9289 19.5586C13.9296 19.487 13.9302 19.4155 13.688 19.4155Z" fill="#FECA00"/>
<path fill-rule="evenodd" clip-rule="evenodd" d="M20.366 15.7742C21.0147 14.3163 20.366 11.0865 20.366 11.0865L19.1053 11.7475C19.2549 12.5013 19.2783 13.9258 18.8066 15.0907C18.3348 16.2557 16.5515 17.1732 16.5515 17.1732C16.5515 17.1732 15.6519 17.3738 17.0188 17.5183C18.3857 17.6628 19.7173 17.232 20.366 15.7742ZM17.134 21.5167C17.5401 21.5167 16.3217 18.8077 16.3217 18.8077L15.9457 18.0551C15.9457 18.0551 15.8997 21.2439 16.1572 21.5167C16.3222 21.6916 16.5102 21.6422 16.7309 21.5843C16.8545 21.5518 16.9882 21.5167 17.134 21.5167Z" fill="#E31D1C"/>
<path fill-rule="evenodd" clip-rule="evenodd" d="M21.5408 15.2981C22.0843 13.1211 21.2364 10.1649 21.2364 10.1649L20.3831 10.7746C20.5084 11.9002 20.5084 14.8111 19.7867 16.0724C19.0649 17.3336 15.8995 17.8634 15.8995 17.8634C15.8995 17.8634 16.524 18.3251 17.6692 18.5409C18.8143 18.7568 20.9973 17.4751 21.5408 15.2981ZM17.9118 21.2171L17.4098 19.4248L16.7022 18.5589H16.1934C16.1934 18.5589 16.9097 21.6396 17.4098 21.6396C17.7347 21.6396 17.6375 21.4613 17.5294 21.2632C17.4712 21.1564 17.4098 21.0439 17.4098 20.9504C17.4098 20.6837 17.9118 21.2171 17.9118 21.2171Z" fill="#2E42A5"/>
<path fill-rule="evenodd" clip-rule="evenodd" d="M22.3698 15.671C22.6395 13.7972 22.1001 9.31995 22.1001 9.31995L21.2468 9.92963C21.6325 11.0141 21.5131 14.126 21.2468 15.671C20.9806 17.2161 18.4612 18.1475 18.4612 18.1475C18.4612 18.1475 19.0857 18.6091 20.2309 18.825C21.376 19.0408 22.1001 17.5449 22.3698 15.671ZM18.1812 19.4155C18.667 19.4155 17.9694 18.7189 17.9694 18.7189H16.8062C16.8062 18.7189 17.2041 19.7029 17.6953 19.7029C17.9416 19.7029 17.9409 19.6306 17.9403 19.5586C17.9396 19.487 17.9389 19.4155 18.1812 19.4155Z" fill="#FECA00"/>
<path d="M10.2031 10.446L10.2947 9.89364L11.8956 9.99728L10.6813 8.73936L11.0904 8.35018L12.7328 10.0515L11.3287 7.41148L11.8141 7.12279L13.0924 9.00317L12.4826 7.04867L13.0069 6.84015L14.9726 10.7602L14.2185 10.7114L14.2924 10.9482L14.9344 11.1184L14.7881 11.6618L14.4904 11.5829L14.7685 12.4742L14.2855 11.7637L15.1265 13.3442L13.0601 11.2036L10.2031 10.446Z" fill="#6FAE21"/>
<path d="M21.9258 10.446L21.8342 9.89364L20.2333 9.99728L21.4476 8.73936L21.0385 8.35018L19.3961 10.0515L20.8002 7.41148L20.3148 7.12279L19.0365 9.00317L19.6463 7.04867L19.122 6.84015L17.1563 10.7602L17.9104 10.7114L17.8365 10.9482L17.1945 11.1184L17.3408 11.6618L17.6385 11.5829L17.3604 12.4742L17.8434 11.7637L17.0024 13.3442L19.0688 11.2036L21.9258 10.446Z" fill="#6FAE21"/>
<path d="M11.0666 21.3113L10.6543 20.9254L22.8447 8.09061L23.257 8.47648L11.0666 21.3113Z" fill="#171401"/>
<path fill-rule="evenodd" clip-rule="evenodd" d="M22.5352 8.1894L23.1602 8.77884L23.5125 7.80441L22.5352 8.1894Z" fill="#CECECC"/>
<path fill-rule="evenodd" clip-rule="evenodd" d="M11.3756 21.3086L10.6577 20.8366L10.4251 21.8041L11.3756 21.3086Z" fill="#CECECC"/>
<path d="M10.1604 19.3988L9.74805 19.0129L21.9384 6.1781L22.3507 6.56397L10.1604 19.3988Z" fill="#171401"/>
<path fill-rule="evenodd" clip-rule="evenodd" d="M21.6289 6.27689L22.2539 6.86633L22.6062 5.89191L21.6289 6.27689Z" fill="#CECECC"/>
<path fill-rule="evenodd" clip-rule="evenodd" d="M10.4693 19.3961L9.75142 18.9241L9.51885 19.8916L10.4693 19.3961Z" fill="#CECECC"/>
<path d="M21.2537 21.3113L21.666 20.9254L9.47564 8.09061L9.06333 8.47648L21.2537 21.3113Z" fill="#171401"/>
<path fill-rule="evenodd" clip-rule="evenodd" d="M9.78516 8.1894L9.16013 8.77884L8.80785 7.80441L9.78516 8.1894Z" fill="#CECECC"/>
<path fill-rule="evenodd" clip-rule="evenodd" d="M20.9447 21.3086L21.6626 20.8366L21.8952 21.8041L20.9447 21.3086Z" fill="#CECECC"/>
<path d="M22.3885 19.8488L22.8008 19.4629L10.6104 6.62811L10.1981 7.01398L22.3885 19.8488Z" fill="#171401"/>
<path fill-rule="evenodd" clip-rule="evenodd" d="M10.9199 6.72691L10.2949 7.31634L9.94261 6.34192L10.9199 6.72691Z" fill="#CECECC"/>
<path fill-rule="evenodd" clip-rule="evenodd" d="M22.0795 19.8461L22.7974 19.3741L23.03 20.3416L22.0795 19.8461Z" fill="#CECECC"/>
<rect x="13.668" y="16.375" width="4.53333" height="2.25" fill="#B74E01"/>
<path d="M15.9486 17.2868C16.8474 17.2868 17.6241 16.7088 18.1636 15.852C18.7051 14.9919 19.0319 13.8191 19.0319 12.5368C19.0319 11.2544 18.7051 10.0817 18.1636 9.22159C17.6241 8.36479 16.8474 7.78677 15.9486 7.78677C15.0498 7.78677 14.273 8.36479 13.7335 9.22159C13.192 10.0817 12.8652 11.2544 12.8652 12.5368C12.8652 13.8191 13.192 14.9919 13.7335 15.852C14.273 16.7088 15.0498 17.2868 15.9486 17.2868Z" fill="#7DB8FF" stroke="#FECA00" stroke-width="0.5"/>
<mask id="mask2_230_27211" style="mask-type:luminance" maskUnits="userSpaceOnUse" x="12" y="7" width="8" height="11">
<path d="M15.9486 17.2868C16.8474 17.2868 17.6241 16.7088 18.1636 15.852C18.7051 14.9919 19.0319 13.8191 19.0319 12.5368C19.0319 11.2544 18.7051 10.0817 18.1636 9.22159C17.6241 8.36479 16.8474 7.78677 15.9486 7.78677C15.0498 7.78677 14.273 8.36479 13.7335 9.22159C13.192 10.0817 12.8652 11.2544 12.8652 12.5368C12.8652 13.8191 13.192 14.9919 13.7335 15.852C14.273 16.7088 15.0498 17.2868 15.9486 17.2868Z" fill="white" stroke="white" stroke-width="0.5"/>
</mask>
<g mask="url(#mask2_230_27211)">
<path fill-rule="evenodd" clip-rule="evenodd" d="M12.881 12.6099H14.4933C14.4933 12.6099 15.6016 12.8554 15.0475 13.0486C14.4933 13.2418 14.4933 13.3057 14.4933 13.5812C14.4933 13.8568 14.4933 14.8651 14.4933 15.0805C14.4933 15.2958 14.8876 15.7568 14.0566 15.7568C13.2257 15.7568 12.5098 12.3408 12.5098 12.3408L12.881 12.6099Z" fill="#6FAE21"/>
<path fill-rule="evenodd" clip-rule="evenodd" d="M19.1797 12.7955C19.1797 12.7955 17.682 13.0913 16.656 12.9927C15.63 12.8941 15.1797 12.7955 15.1797 12.7955C15.1797 12.7955 15.8948 13.1674 16.149 13.4792C16.4031 13.7909 16.9235 14.3299 17.454 14.3299C17.9844 14.3299 18.7976 14.833 18.7976 14.833L19.1797 12.7955Z" fill="#6FAE21"/>
<path fill-rule="evenodd" clip-rule="evenodd" d="M13.3202 10.1356C13.3202 10.1356 14.5548 10.3742 14.8522 10.7315C15.1495 11.0888 14.4593 11.446 16.2583 11.0888C18.0573 10.7315 19.4853 10.1083 19.4853 11.0888C19.4853 12.0693 19.3282 12.9725 18.554 12.9725C17.7799 12.9725 17.4711 12.9725 15.1101 12.9725C12.7492 12.9725 11.4622 13.6946 11.6275 12.5327C11.7928 11.3708 13.3202 10.1356 13.3202 10.1356Z" fill="#F7FCFF"/>
</g>
</g>
</g>
<rect width="32" height="24" fill="url(#paint0_linear_230_27211)" style="mix-blend-mode:overlay"/>
</g>
<rect x="0.5" y="0.5" width="31" height="23" rx="1.5" stroke="black" stroke-opacity="0.1"/>
<defs>
<linearGradient id="paint0_linear_230_27211" x1="16" y1="0" x2="16" y2="24" gradientUnits="userSpaceOnUse">
<stop stop-color="white" stop-opacity="0.7"/>
<stop offset="1" stop-opacity="0.3"/>
</linearGradient>
<clipPath id="clip0_230_27211">
<rect width="32" height="24" rx="2" fill="white"/>
</clipPath>
</defs>
</svg>
