<svg width="32" height="24" viewBox="0 0 32 24" fill="none" xmlns="http://www.w3.org/2000/svg">
<g clip-path="url(#clip0_230_25251)">
<mask id="mask0_230_25251" style="mask-type:luminance" maskUnits="userSpaceOnUse" x="0" y="0" width="32" height="24">
<rect width="32" height="24" fill="white"/>
</mask>
<g mask="url(#mask0_230_25251)">
<path fill-rule="evenodd" clip-rule="evenodd" d="M0 0H32V24H0V0Z" fill="#F7FCFF"/>
<rect x="0.0273438" y="5.5" width="32" height="3" fill="#E31D1C"/>
<path fill-rule="evenodd" clip-rule="evenodd" d="M0 0H32V3H0V0Z" fill="#E31D1C"/>
<rect x="-0.0585938" y="11" width="32" height="3" fill="#E31D1C"/>
<rect x="0.111328" y="16.4" width="32" height="3" fill="#E31D1C"/>
<rect x="0.101562" y="21.5" width="32" height="3" fill="#E31D1C"/>
<path fill-rule="evenodd" clip-rule="evenodd" d="M0 0H16V14H0V0Z" fill="#3D58DB"/>
<path fill-rule="evenodd" clip-rule="evenodd" d="M8.13247 9.21309L5.2111 11.2394L6.14459 7.7688L4 5.55178L6.90389 5.43191L8.13247 2L9.36105 5.43191H12.26L10.1204 7.7688L11.1919 11.0346L8.13247 9.21309Z" fill="#F7FCFF"/>
</g>
<rect width="32" height="24" fill="url(#paint0_linear_230_25251)" style="mix-blend-mode:overlay"/>
</g>
<rect x="0.5" y="0.5" width="31" height="23" rx="1.5" stroke="black" stroke-opacity="0.1"/>
<defs>
<linearGradient id="paint0_linear_230_25251" x1="16" y1="0" x2="16" y2="24" gradientUnits="userSpaceOnUse">
<stop stop-color="white" stop-opacity="0.7"/>
<stop offset="1" stop-opacity="0.3"/>
</linearGradient>
<clipPath id="clip0_230_25251">
<rect width="32" height="24" rx="2" fill="white"/>
</clipPath>
</defs>
</svg>
