<svg width="32" height="24" viewBox="0 0 32 24" fill="none" xmlns="http://www.w3.org/2000/svg">
<g clip-path="url(#clip0_230_23483)">
<mask id="mask0_230_23483" style="mask-type:luminance" maskUnits="userSpaceOnUse" x="0" y="0" width="32" height="24">
<rect width="32" height="24" fill="white"/>
</mask>
<g mask="url(#mask0_230_23483)">
<path fill-rule="evenodd" clip-rule="evenodd" d="M0 0V24H32V0H0Z" fill="#F7FCFF"/>
<mask id="mask1_230_23483" style="mask-type:luminance" maskUnits="userSpaceOnUse" x="0" y="0" width="32" height="24">
<path fill-rule="evenodd" clip-rule="evenodd" d="M0 0V24H32V0H0Z" fill="white"/>
</mask>
<g mask="url(#mask1_230_23483)">
<path fill-rule="evenodd" clip-rule="evenodd" d="M0 12V24H32V12H0Z" fill="#56C6F5"/>
<path fill-rule="evenodd" clip-rule="evenodd" d="M10.2537 9.02848C10.2463 8.94397 10.2286 8.87092 10.198 8.81396C9.94115 8.33521 10.0241 7.73614 10.0241 7.73614C10.0241 7.73614 9.71741 8.4377 9.53744 9.09821C9.34825 8.79062 9.28211 8.48247 9.28211 8.48247C9.28211 8.48247 9.15967 10.42 9.53401 10.8791C9.90835 11.3382 10.1579 11.5399 10.1579 11.5399C10.1579 11.5399 10.1863 10.7354 10.0773 10.1062C10.1541 9.84367 10.2234 9.55612 10.2482 9.30854C10.2973 9.27216 10.4268 9.17494 10.5888 9.04273C10.5205 9.41951 10.5172 9.62423 10.5172 9.62423C10.5172 9.62423 11.9277 8.60003 11.9636 8.0579C11.9994 7.51577 12.3873 7.05171 12.3873 7.05171C12.3873 7.05171 12.0666 7.27116 11.7004 7.56544C11.7972 7.11037 12.097 6.75171 12.097 6.75171C12.097 6.75171 10.4947 7.84811 10.3634 8.42574C10.3063 8.67699 10.2731 8.87966 10.2537 9.02848ZM10.3223 12.3589C10.1687 12.0688 9.50014 10.8529 9.03382 10.7471C8.50398 10.6269 8.1063 10.1712 8.1063 10.1712C8.1063 10.1712 8.93857 11.9252 9.48854 12.1453C9.93021 12.322 10.221 12.3925 10.3185 12.4134C10.3024 12.6499 10.2996 12.8132 10.2996 12.8132C10.2996 12.8132 10.5594 12.6249 10.9572 12.186C11.3551 11.7471 11.3342 9.8058 11.3342 9.8058C11.3342 9.8058 11.1766 10.3897 10.753 10.73C10.4689 10.9583 10.3619 11.8178 10.3223 12.3589ZM9.07089 12.1754C9.6762 12.1718 10.6074 13.6561 10.6074 13.6561C10.6074 13.6561 10.2466 13.6759 9.61642 13.5763C8.98619 13.4767 8.00391 11.7854 8.00391 11.7854C8.00391 11.7854 8.46557 12.1789 9.07089 12.1754ZM12.0215 15.6323C12.0215 15.6323 12.3807 13.7408 11.8414 13.2999C11.302 12.8589 11.2068 12.2 11.2068 12.2C11.2068 12.2 10.7277 14.2975 11.2068 14.8407C11.686 15.3838 12.0215 15.6323 12.0215 15.6323ZM9.84522 15.1216C10.1975 15.5392 11.3197 15.1216 11.3197 15.1216C11.3197 15.1216 11.5669 15.3462 10.6769 14.5328C9.78697 13.7194 7.97605 14.2331 8.46341 14.2331C8.95078 14.2331 9.49299 14.704 9.84522 15.1216ZM10.6769 17.342C11.3299 17.8949 12.7407 16.5801 12.7407 16.5801C12.7407 16.5801 12.3775 16.1403 11.7044 15.8161C11.0312 15.4919 8.54823 15.8161 8.54823 15.8161L9.65323 16.3079C9.65323 16.3079 8.42322 16.789 8.74971 16.7622C9.0762 16.7353 10.024 16.789 10.6769 17.342Z" fill="#006923"/>
<path fill-rule="evenodd" clip-rule="evenodd" d="M19.2143 16.1963C19.2143 16.1963 18.6529 15.253 19.2143 14.7972C19.7756 14.3415 19.9978 14.6446 19.9978 14.1206C19.9978 13.5967 20.0546 13.7527 20.3304 13.4925C20.6063 13.2324 20.4109 12.6006 20.7803 12.9165C21.1497 13.2324 21.2186 12.6266 21.2186 13.8851C21.2186 15.1435 21.2186 12.7437 21.2186 12.0368C21.2186 11.33 20.7803 11.4973 20.7803 11.0233C20.7803 10.5493 20.3419 9.84133 20.7803 9.84133C21.2186 9.84133 21.4763 10.3681 21.4763 10.3681C21.4763 10.3681 21.9071 11.1022 21.9071 10.3681C21.9071 9.63391 21.1402 9.85217 20.7803 9.04203C20.4203 8.23189 20.4772 9.13289 19.9978 8.08897C19.5184 7.04505 18.9477 6.71378 19.4727 6.71378C19.9978 6.71378 19.8806 6.71378 20.3304 6.71378C20.7803 6.71378 21.4763 6.34016 21.4763 6.71378C21.4763 7.08741 21.4763 6.9162 21.4763 7.50258C21.4763 8.08897 21.9071 8.08897 21.9071 8.08897C21.9071 8.08897 22.1413 6.9162 22.4354 7.50258C22.7296 8.08897 22.5293 9.04203 22.7446 9.04203C22.9599 9.04203 22.7817 8.05712 23.2518 8.81148C23.722 9.56584 23.2518 10.0771 23.2518 10.3681C23.2518 10.6591 22.7446 11.372 22.7446 11.372C22.7446 11.372 22.8436 11.7208 23.2518 11.372C23.66 11.0233 24.0472 10.6746 24.0472 11.0233C24.0472 11.372 24.8427 11.4804 24.0472 12.0368C23.2518 12.5933 23.759 13.1504 23.2518 13.1504C22.7446 13.1504 22.1469 13.8851 21.9071 13.8851C21.6672 13.8851 20.7701 14.4475 21.2186 14.4475C21.6672 14.4475 22.1263 13.3226 22.4354 13.8851C22.7446 14.4475 22.7405 13.7937 22.9962 14.1206C23.2518 14.4475 23.5075 16.2212 23.2518 15.5092C22.9962 14.7972 22.5955 14.7972 21.9071 14.7972C21.2186 14.7972 19.8806 14.8486 20.3304 15.1789C20.7803 15.5092 21.2855 14.8486 21.4763 15.1789C21.6672 15.5092 21.6117 15.8395 21.9071 15.5092C22.2024 15.1789 22.493 15.5092 22.7446 15.5092C22.9962 15.5092 22.493 15.879 22.7446 16.1963C22.9962 16.5137 23.5569 16.9365 22.9962 16.9365C22.4354 16.9365 22.1469 16.4882 21.9071 16.9365C21.6672 17.3848 21.657 18.1634 21.2186 17.55C20.7803 16.9365 19.9978 17.2479 19.9978 16.9365C19.9978 16.6251 20.169 16.5748 19.6916 16.5748C19.2143 16.5748 19.2143 16.1963 19.2143 16.1963Z" fill="#009933"/>
<path fill-rule="evenodd" clip-rule="evenodd" d="M21.517 9.44995C21.517 9.58802 21.4087 9.69995 21.2751 9.69995C21.1415 9.69995 21.0331 9.58802 21.0331 9.44995C21.0331 9.31188 21.1415 9.19995 21.2751 9.19995C21.4087 9.19995 21.517 9.31188 21.517 9.44995ZM10.3396 9.99995C10.4732 9.99995 10.5815 9.88802 10.5815 9.74995C10.5815 9.61188 10.4732 9.49995 10.3396 9.49995C10.206 9.49995 10.0977 9.61188 10.0977 9.74995C10.0977 9.88802 10.206 9.99995 10.3396 9.99995ZM10.5815 11.05C10.5815 11.188 10.4732 11.3 10.3396 11.3C10.206 11.3 10.0977 11.188 10.0977 11.05C10.0977 10.9119 10.206 10.8 10.3396 10.8C10.4732 10.8 10.5815 10.9119 10.5815 11.05ZM10.7267 13.6C10.8603 13.6 10.9686 13.488 10.9686 13.35C10.9686 13.2119 10.8603 13.1 10.7267 13.1C10.5931 13.1 10.4848 13.2119 10.4848 13.35C10.4848 13.488 10.5931 13.6 10.7267 13.6ZM12.6622 16.1C12.7958 16.1 12.9041 15.988 12.9041 15.85C12.9041 15.7119 12.7958 15.6 12.6622 15.6C12.5286 15.6 12.4202 15.7119 12.4202 15.85C12.4202 15.988 12.5286 16.1 12.6622 16.1ZM21.9525 12.3C22.0861 12.3 22.1944 12.188 22.1944 12.05C22.1944 11.9119 22.0861 11.8 21.9525 11.8C21.8189 11.8 21.7106 11.9119 21.7106 12.05C21.7106 12.188 21.8189 12.3 21.9525 12.3ZM21.4202 14.05C21.4202 14.188 21.3119 14.3 21.1783 14.3C21.0447 14.3 20.9364 14.188 20.9364 14.05C20.9364 13.9119 21.0447 13.8 21.1783 13.8C21.3119 13.8 21.4202 13.9119 21.4202 14.05ZM19.146 16.5C19.2797 16.5 19.388 16.388 19.388 16.25C19.388 16.1119 19.2797 16 19.146 16C19.0124 16 18.9041 16.1119 18.9041 16.25C18.9041 16.388 19.0124 16.5 19.146 16.5ZM13.0009 16.55C13.0009 16.688 12.8926 16.8 12.7589 16.8C12.6253 16.8 12.517 16.688 12.517 16.55C12.517 16.4119 12.6253 16.3 12.7589 16.3C12.8926 16.3 13.0009 16.4119 13.0009 16.55Z" fill="#C51918"/>
<path fill-rule="evenodd" clip-rule="evenodd" d="M18.0372 19.8197C18.0372 19.6149 14.9366 17.4781 14.1045 17.0068C13.2723 16.5355 9.20845 13.9415 10.3151 10.0001H10.1477C10.1477 10.0001 9.39872 14.8566 14.5588 17.8754C16.9082 19.4515 17.0252 19.8197 17.0252 19.8197C17.0252 19.8197 18.0372 20.0246 18.0372 19.8197Z" fill="#FECA00"/>
<path fill-rule="evenodd" clip-rule="evenodd" d="M13.9238 19.8197C13.9238 19.6149 17.0243 17.4781 17.8565 17.0068C18.6887 16.5355 22.7525 13.9415 21.6458 10.0001H21.8133C21.8133 10.0001 22.5622 14.8566 17.4022 17.8754C15.0527 19.4515 14.9358 19.8197 14.9358 19.8197C14.9358 19.8197 13.9238 20.0246 13.9238 19.8197Z" fill="#FECA00"/>
<path fill-rule="evenodd" clip-rule="evenodd" d="M16.0483 16.8856C18.2129 16.8856 19.9676 14.0838 19.9676 11.35C19.9676 8.61614 18.2129 7.19995 16.0483 7.19995C13.8837 7.19995 12.1289 8.61614 12.1289 11.35C12.1289 14.0838 13.8837 16.8856 16.0483 16.8856Z" fill="#56C6F5"/>
<path fill-rule="evenodd" clip-rule="evenodd" d="M14.3126 9.53886C14.3126 9.53886 14.9163 9.00647 14.6144 9.00647C14.5559 9.00647 14.4847 8.99504 14.4078 8.98272C14.0884 8.93148 13.6725 8.86476 13.6725 9.53886V10.6973L13.6724 10.7H13.5833C13.5281 10.7 13.4833 10.7448 13.4833 10.8C13.4833 10.8552 13.5281 10.9 13.5833 10.9H13.6616C13.6482 11.1474 13.6245 11.5874 13.6013 12.0272L13.4868 12.0372C13.4277 12.0424 13.3839 12.0946 13.3891 12.1537L13.3965 12.2384C13.4017 12.2975 13.4538 12.3413 13.513 12.3361L13.5854 12.3298C13.5585 12.8436 13.5358 13.2933 13.5358 13.3483C13.5358 13.4835 14.4541 13.4312 14.4541 13.4312C14.4541 13.4312 14.4255 12.8891 14.3941 12.259L14.4556 12.2536C14.5148 12.2485 14.5585 12.1963 14.5534 12.1371L14.546 12.0525C14.5408 11.9934 14.4886 11.9496 14.4295 11.9548L14.3792 11.9592C14.3607 11.5818 14.3426 11.1987 14.3299 10.9H14.4478C14.5031 10.9 14.5478 10.8552 14.5478 10.8C14.5478 10.7448 14.5031 10.7 14.4478 10.7H14.3218C14.316 10.5507 14.3126 10.4386 14.3126 10.382V9.53886Z" fill="white"/>
<path fill-rule="evenodd" clip-rule="evenodd" d="M13.8711 11H14.1937V11.4301H13.8711V11Z" fill="black"/>
<path fill-rule="evenodd" clip-rule="evenodd" d="M13.7734 12.5H14.3111V13.5H13.7734V12.5Z" fill="black"/>
<path fill-rule="evenodd" clip-rule="evenodd" d="M16.3458 9.53886C16.3458 9.53886 16.9495 9.00647 16.6476 9.00647C16.5891 9.00647 16.5179 8.99504 16.441 8.98272C16.1216 8.93148 15.7057 8.86476 15.7057 9.53886V10.6973L15.7056 10.7H15.6165C15.5613 10.7 15.5165 10.7448 15.5165 10.8C15.5165 10.8552 15.5613 10.9 15.6165 10.9H15.6948C15.6814 11.1474 15.6577 11.5874 15.6345 12.0272L15.52 12.0372C15.4609 12.0424 15.4171 12.0946 15.4223 12.1537L15.4297 12.2384C15.4349 12.2975 15.487 12.3413 15.5462 12.3361L15.6186 12.3298C15.5917 12.8436 15.569 13.2933 15.569 13.3483C15.569 13.4835 16.4873 13.4312 16.4873 13.4312C16.4873 13.4312 16.4587 12.8891 16.4273 12.259L16.4888 12.2536C16.548 12.2485 16.5917 12.1963 16.5866 12.1371L16.5792 12.0525C16.574 11.9934 16.5218 11.9496 16.4627 11.9548L16.4124 11.9592C16.3939 11.5818 16.3758 11.1987 16.3631 10.9H16.481C16.5363 10.9 16.581 10.8552 16.581 10.8C16.581 10.7448 16.5363 10.7 16.481 10.7H16.355C16.3492 10.5507 16.3458 10.4386 16.3458 10.382V9.53886Z" fill="white"/>
<path fill-rule="evenodd" clip-rule="evenodd" d="M15.9043 11H16.2269V11.4301H15.9043V11Z" fill="black"/>
<path fill-rule="evenodd" clip-rule="evenodd" d="M15.8066 12.5H16.3443V13.5H15.8066V12.5Z" fill="black"/>
<path fill-rule="evenodd" clip-rule="evenodd" d="M18.2814 9.53886C18.2814 9.53886 18.885 9.00647 18.5832 9.00647C18.5247 9.00647 18.4534 8.99504 18.3766 8.98272C18.0572 8.93148 17.6413 8.86476 17.6413 9.53886V10.6973L17.6411 10.7H17.5521C17.4968 10.7 17.4521 10.7448 17.4521 10.8C17.4521 10.8552 17.4968 10.9 17.5521 10.9H17.6303C17.6169 11.1474 17.5932 11.5874 17.57 12.0272L17.4556 12.0372C17.3964 12.0424 17.3527 12.0946 17.3578 12.1537L17.3652 12.2384C17.3704 12.2975 17.4226 12.3413 17.4817 12.3361L17.5541 12.3298C17.5272 12.8436 17.5046 13.2933 17.5046 13.3483C17.5046 13.4835 18.4229 13.4312 18.4229 13.4312C18.4229 13.4312 18.3943 12.8891 18.3628 12.259L18.4244 12.2536C18.4835 12.2485 18.5273 12.1963 18.5221 12.1371L18.5147 12.0525C18.5095 11.9934 18.4574 11.9496 18.3982 11.9548L18.348 11.9592C18.3295 11.5818 18.3113 11.1987 18.2987 10.9H18.4166C18.4718 10.9 18.5166 10.8552 18.5166 10.8C18.5166 10.7448 18.4718 10.7 18.4166 10.7H18.2905C18.2848 10.5507 18.2814 10.4386 18.2814 10.382V9.53886Z" fill="white"/>
<path fill-rule="evenodd" clip-rule="evenodd" d="M17.8398 11H18.1624V11.4301H17.8398V11Z" fill="black"/>
<path fill-rule="evenodd" clip-rule="evenodd" d="M17.7422 12.5H18.2798V13.5H17.7422V12.5Z" fill="black"/>
<path fill-rule="evenodd" clip-rule="evenodd" d="M18.5153 6.3999H13.3863V7.16554L13.3519 7.16862C13.3519 7.16862 10.839 9.12134 11.5364 12.0465C12.2338 14.9717 15.0039 17.141 15.0039 17.141L15.1436 16.6362C15.1436 16.6362 12.504 13.0471 12.504 11.6129C12.504 10.1787 13.002 8.83258 13.5293 8.62327C13.8464 8.49739 13.9011 8.52293 13.9876 8.56329C14.0448 8.59003 14.116 8.62327 14.2867 8.62327C14.715 8.62327 15.1436 8.3167 15.1436 8.3167C15.1436 8.3167 15.4416 8.62327 15.7183 8.62327C15.9951 8.62327 15.999 8.3167 15.999 8.3167V7.2999H16.03V8.3167C16.03 8.3167 16.0339 8.62327 16.3107 8.62327C16.5875 8.62327 16.8855 8.3167 16.8855 8.3167C16.8855 8.3167 17.314 8.62327 17.7423 8.62327C17.913 8.62327 17.9842 8.59003 18.0415 8.56329C18.1279 8.52293 18.1826 8.49739 18.4998 8.62327C19.0271 8.83258 19.5251 10.1787 19.5251 11.6129C19.5251 13.0471 16.8855 16.6362 16.8855 16.6362L17.0251 17.141C17.0251 17.141 19.7953 14.9717 20.4927 12.0465C21.1901 9.12134 18.6772 7.16862 18.6772 7.16862L18.5153 7.15414V6.3999Z" fill="#E8AA00"/>
<path d="M13.3863 6.3999V5.8999H12.8863V6.3999H13.3863ZM18.5153 6.3999H19.0153V5.8999H18.5153V6.3999ZM13.3863 7.16554L13.4308 7.66355L13.8863 7.62283V7.16554H13.3863ZM13.3519 7.16862L13.3073 6.6706L13.161 6.68368L13.0451 6.77381L13.3519 7.16862ZM11.5364 12.0465L11.05 12.1625L11.5364 12.0465ZM15.0039 17.141L14.6957 17.5347L15.2859 17.9969L15.4858 17.2743L15.0039 17.141ZM15.1436 16.6362L15.6255 16.7695L15.6902 16.5355L15.5464 16.34L15.1436 16.6362ZM13.5293 8.62327L13.3448 8.15855L13.3448 8.15855L13.5293 8.62327ZM13.9876 8.56329L13.776 9.01633L13.776 9.01633L13.9876 8.56329ZM15.1436 8.3167L15.5021 7.96821L15.2024 7.65986L14.8527 7.91003L15.1436 8.3167ZM15.999 8.3167L16.499 8.32303V8.3167H15.999ZM15.999 7.2999V6.7999H15.499V7.2999H15.999ZM16.03 7.2999H16.53V6.7999H16.03V7.2999ZM16.03 8.3167H15.53L15.5301 8.32303L16.03 8.3167ZM16.8855 8.3167L17.1764 7.91003L16.8266 7.65986L16.5269 7.96821L16.8855 8.3167ZM18.0415 8.56329L18.253 9.01633L18.253 9.01633L18.0415 8.56329ZM18.4998 8.62327L18.3153 9.088L18.4998 8.62327ZM16.8855 16.6362L16.4827 16.34L16.3388 16.5355L16.4036 16.7695L16.8855 16.6362ZM17.0251 17.141L16.5432 17.2743L16.7431 17.9969L17.3334 17.5347L17.0251 17.141ZM18.6772 7.16862L18.984 6.77381L18.868 6.68368L18.7217 6.6706L18.6772 7.16862ZM18.5153 7.15414H18.0153V7.61143L18.4708 7.65215L18.5153 7.15414ZM13.3863 6.8999H18.5153V5.8999H13.3863V6.8999ZM13.8863 7.16554V6.3999H12.8863V7.16554H13.8863ZM13.3964 7.66663L13.4308 7.66355L13.3417 6.66753L13.3073 6.6706L13.3964 7.66663ZM12.0227 11.9306C11.7149 10.6396 12.1104 9.55873 12.6049 8.77826C12.8523 8.38786 13.1206 8.07976 13.3268 7.86979C13.4296 7.76517 13.5159 7.68593 13.575 7.63403C13.6046 7.60811 13.6272 7.5891 13.6416 7.57723C13.6489 7.5713 13.654 7.56716 13.6569 7.56485C13.6583 7.56369 13.6592 7.56299 13.6595 7.56275C13.6597 7.56264 13.6597 7.56263 13.6595 7.56274C13.6595 7.5628 13.6593 7.56288 13.6592 7.563C13.6591 7.56305 13.659 7.56316 13.659 7.56319C13.6588 7.5633 13.6587 7.56343 13.3519 7.16862C13.0451 6.77381 13.0449 6.77394 13.0447 6.77409C13.0446 6.77415 13.0444 6.7743 13.0443 6.77441C13.044 6.77465 13.0436 6.77491 13.0433 6.7752C13.0425 6.77579 13.0416 6.7765 13.0406 6.77733C13.0384 6.77899 13.0357 6.78114 13.0325 6.78377C13.0259 6.78902 13.017 6.7962 13.006 6.80529C12.9839 6.82346 12.9532 6.84925 12.9154 6.88244C12.8399 6.94876 12.7353 7.04493 12.6134 7.16908C12.3702 7.41666 12.0539 7.77957 11.7602 8.243C11.1727 9.17019 10.6604 10.5283 11.05 12.1625L12.0227 11.9306ZM15.0039 17.141C15.3122 16.7474 15.3123 16.7474 15.3124 16.7475C15.3124 16.7475 15.3125 16.7476 15.3125 16.7476C15.3125 16.7476 15.3125 16.7476 15.3125 16.7476C15.3125 16.7476 15.3122 16.7474 15.3118 16.7471C15.3111 16.7465 15.3096 16.7453 15.3076 16.7437C15.3034 16.7404 15.2968 16.7351 15.2877 16.7277C15.2696 16.713 15.2419 16.6903 15.2059 16.6599C15.1338 16.5991 15.0283 16.5077 14.8988 16.3885C14.6395 16.1498 14.2856 15.8012 13.911 15.365C13.1556 14.4854 12.3452 13.2831 12.0227 11.9306L11.05 12.1625C11.4249 13.7352 12.3483 15.0801 13.1523 16.0165C13.5574 16.4882 13.9397 16.8648 14.2216 17.1243C14.3627 17.2541 14.4791 17.3551 14.5612 17.4243C14.6023 17.459 14.6348 17.4857 14.6576 17.5042C14.669 17.5135 14.678 17.5207 14.6844 17.5257C14.6875 17.5283 14.6901 17.5303 14.692 17.5318C14.6929 17.5326 14.6937 17.5332 14.6943 17.5336C14.6946 17.5339 14.6949 17.5341 14.6951 17.5343C14.6952 17.5344 14.6954 17.5345 14.6954 17.5345C14.6955 17.5346 14.6957 17.5347 15.0039 17.141ZM14.6617 16.5029L14.522 17.0077L15.4858 17.2743L15.6255 16.7695L14.6617 16.5029ZM12.004 11.6129C12.004 12.089 12.2123 12.6683 12.4621 13.2117C12.7213 13.7752 13.0625 14.3772 13.3975 14.9237C13.7335 15.4718 14.0687 15.9731 14.3195 16.3368C14.4451 16.5189 14.5498 16.6671 14.6234 16.77C14.6602 16.8215 14.6893 16.8617 14.7093 16.8892C14.7193 16.903 14.727 16.9136 14.7323 16.9209C14.735 16.9245 14.737 16.9273 14.7384 16.9292C14.7391 16.9302 14.7397 16.931 14.7401 16.9315C14.7403 16.9318 14.7404 16.932 14.7406 16.9321C14.7406 16.9322 14.7407 16.9323 14.7407 16.9323C14.7407 16.9324 14.7408 16.9324 15.1436 16.6362C15.5464 16.34 15.5464 16.34 15.5464 16.34C15.5464 16.34 15.5464 16.34 15.5464 16.34C15.5463 16.3399 15.5462 16.3398 15.5461 16.3396C15.5459 16.3393 15.5455 16.3387 15.5449 16.338C15.5438 16.3365 15.5421 16.3341 15.5397 16.3309C15.535 16.3245 15.5279 16.3147 15.5186 16.3019C15.4999 16.2761 15.4722 16.2378 15.4369 16.1884C15.3661 16.0894 15.2647 15.946 15.1428 15.7692C14.8986 15.4151 14.5739 14.9294 14.2501 14.4011C13.9251 13.871 13.6065 13.3067 13.3707 12.7939C13.1256 12.261 13.004 11.8539 13.004 11.6129H12.004ZM13.3448 8.15855C13.078 8.26444 12.8779 8.48261 12.7329 8.69622C12.5811 8.91981 12.4521 9.19435 12.3471 9.493C12.137 10.0911 12.004 10.8425 12.004 11.6129H13.004C13.004 10.9491 13.1199 10.3103 13.2906 9.82448C13.3761 9.58117 13.4704 9.39031 13.5603 9.25781C13.657 9.11534 13.7169 9.08677 13.7137 9.088L13.3448 8.15855ZM14.1991 8.11025C14.1394 8.08237 14.0075 8.0189 13.8115 8.03206C13.664 8.04196 13.5091 8.09334 13.3448 8.15855L13.7137 9.088C13.7844 9.05996 13.8308 9.04423 13.8606 9.03567C13.891 9.02694 13.8934 9.02881 13.8784 9.02982C13.8699 9.03039 13.8567 9.03062 13.8402 9.02903C13.8233 9.0274 13.8068 9.02424 13.7918 9.0201C13.7773 9.01613 13.7673 9.01213 13.7642 9.01085C13.7629 9.01032 13.7634 9.01043 13.776 9.01633L14.1991 8.11025ZM14.2867 8.12327C14.2602 8.12327 14.2425 8.12198 14.2316 8.12077C14.2211 8.11959 14.2167 8.11845 14.2167 8.11844C14.2165 8.1184 14.2169 8.11849 14.2175 8.1187C14.2182 8.11891 14.2185 8.11905 14.2183 8.11897C14.2168 8.11837 14.2144 8.11738 14.1991 8.11025L13.776 9.01633C13.8085 9.03148 13.877 9.06413 13.9725 9.08818C14.0661 9.11173 14.1685 9.12327 14.2867 9.12327V8.12327ZM15.1436 8.3167C14.8527 7.91003 14.8528 7.90997 14.8529 7.9099C14.8529 7.90988 14.853 7.90982 14.853 7.90978C14.8532 7.9097 14.8533 7.90962 14.8534 7.90955C14.8536 7.90941 14.8537 7.90928 14.8539 7.90917C14.8542 7.90896 14.8544 7.90881 14.8545 7.90873C14.8547 7.90857 14.8546 7.90868 14.8541 7.90904C14.853 7.90976 14.8505 7.91147 14.8467 7.91404C14.839 7.91919 14.826 7.92766 14.8086 7.93836C14.7733 7.95998 14.7219 7.98942 14.6605 8.0187C14.528 8.08188 14.3927 8.12327 14.2867 8.12327V9.12327C14.609 9.12327 14.9021 9.01139 15.091 8.92128C15.1903 8.87392 15.2728 8.82671 15.3313 8.79085C15.3607 8.77281 15.3846 8.75732 15.402 8.74571C15.4107 8.73989 15.4178 8.73502 15.4233 8.73125C15.426 8.72937 15.4283 8.72775 15.4302 8.72643C15.4311 8.72577 15.4319 8.72519 15.4326 8.72468C15.433 8.72442 15.4333 8.72418 15.4336 8.72397C15.4338 8.72386 15.4339 8.72375 15.4341 8.72365C15.4341 8.7236 15.4342 8.72353 15.4343 8.72351C15.4344 8.72344 15.4345 8.72337 15.1436 8.3167ZM15.7183 8.12327C15.7385 8.12327 15.7371 8.12798 15.7092 8.11602C15.6833 8.10486 15.6506 8.08617 15.6146 8.06086C15.5796 8.03627 15.5489 8.01075 15.5271 7.99128C15.5164 7.98179 15.5086 7.97436 15.5041 7.97005C15.5019 7.96791 15.5005 7.96659 15.5002 7.96623C15.5 7.96605 15.5001 7.96611 15.5004 7.96644C15.5005 7.9666 15.5008 7.96683 15.5011 7.96712C15.5012 7.96727 15.5014 7.96743 15.5015 7.96761C15.5016 7.96771 15.5017 7.9678 15.5018 7.9679C15.5019 7.96795 15.5019 7.96803 15.502 7.96805C15.502 7.96813 15.5021 7.96821 15.1436 8.3167C14.785 8.66519 14.7851 8.66528 14.7852 8.66536C14.7852 8.66539 14.7853 8.66547 14.7854 8.66553C14.7855 8.66565 14.7856 8.66577 14.7857 8.6659C14.786 8.66616 14.7862 8.66643 14.7865 8.66673C14.7871 8.66732 14.7878 8.66799 14.7885 8.66873C14.79 8.67021 14.7917 8.672 14.7938 8.67406C14.7979 8.67819 14.8033 8.68346 14.8098 8.6897C14.8227 8.70215 14.8402 8.71868 14.8619 8.73793C14.9045 8.77594 14.9656 8.82706 15.0397 8.87911C15.167 8.96854 15.4184 9.12327 15.7183 9.12327V8.12327ZM15.999 8.3167C15.4991 8.31038 15.4991 8.31016 15.4991 8.30994C15.4991 8.30987 15.4991 8.30965 15.4991 8.30951C15.4991 8.30922 15.4991 8.30894 15.4991 8.30866C15.4991 8.3081 15.4991 8.30755 15.4991 8.30702C15.4991 8.30595 15.4992 8.30494 15.4992 8.30398C15.4992 8.30206 15.4993 8.30034 15.4994 8.29879C15.4995 8.29572 15.4996 8.2933 15.4998 8.29142C15.5001 8.28782 15.5004 8.28561 15.5006 8.28411C15.5007 8.28356 15.5019 8.27476 15.5089 8.25951C15.5163 8.24361 15.5372 8.20585 15.5838 8.17183C15.636 8.13363 15.6889 8.12327 15.7183 8.12327V9.12327C15.8862 9.12327 16.0434 9.07459 16.1742 8.97892C16.2993 8.88741 16.3731 8.77301 16.416 8.68047C16.4587 8.58857 16.4781 8.50313 16.4876 8.4451C16.4925 8.41486 16.4953 8.38869 16.4968 8.36833C16.4976 8.35807 16.4981 8.34906 16.4985 8.3415C16.4986 8.33771 16.4987 8.33426 16.4988 8.33118C16.4989 8.32964 16.4989 8.32819 16.4989 8.32683C16.4989 8.32615 16.4989 8.32549 16.499 8.32486C16.499 8.32454 16.499 8.32423 16.499 8.32393C16.499 8.32377 16.499 8.32355 16.499 8.32347C16.499 8.32325 16.499 8.32303 15.999 8.3167ZM15.499 7.2999V8.3167H16.499V7.2999H15.499ZM16.03 6.7999H15.999V7.7999H16.03V6.7999ZM15.53 7.2999V8.3167H16.53V7.2999H15.53ZM16.03 8.3167C15.5301 8.32303 15.5301 8.32325 15.5301 8.32347C15.5301 8.32355 15.5301 8.32377 15.5301 8.32393C15.5301 8.32423 15.5301 8.32454 15.5301 8.32486C15.5301 8.32549 15.5301 8.32615 15.5301 8.32683C15.5301 8.32819 15.5302 8.32964 15.5302 8.33118C15.5303 8.33426 15.5304 8.33771 15.5306 8.3415C15.5309 8.34906 15.5314 8.35807 15.5322 8.36833C15.5338 8.38869 15.5365 8.41486 15.5415 8.4451C15.5509 8.50313 15.5704 8.58857 15.613 8.68047C15.656 8.77301 15.7298 8.88741 15.8548 8.97892C15.9856 9.07459 16.1428 9.12327 16.3107 9.12327V8.12327C16.3402 8.12327 16.3931 8.13363 16.4453 8.17183C16.4918 8.20585 16.5127 8.24361 16.5201 8.25951C16.5272 8.27476 16.5283 8.28356 16.5284 8.28411C16.5287 8.28561 16.529 8.28782 16.5292 8.29142C16.5294 8.2933 16.5295 8.29572 16.5297 8.29879C16.5297 8.30034 16.5298 8.30206 16.5299 8.30398C16.5299 8.30494 16.5299 8.30595 16.5299 8.30702C16.5299 8.30755 16.5299 8.3081 16.53 8.30866C16.53 8.30894 16.53 8.30922 16.53 8.30951C16.53 8.30965 16.53 8.30987 16.53 8.30994C16.53 8.31016 16.53 8.31038 16.03 8.3167ZM16.3107 9.12327C16.6106 9.12327 16.862 8.96854 16.9893 8.87911C17.0634 8.82706 17.1245 8.77594 17.1672 8.73793C17.1888 8.71868 17.2064 8.70215 17.2193 8.6897C17.2258 8.68346 17.2311 8.67819 17.2352 8.67406C17.2373 8.672 17.2391 8.67021 17.2405 8.66873C17.2413 8.66799 17.2419 8.66732 17.2425 8.66673C17.2428 8.66643 17.2431 8.66616 17.2433 8.6659C17.2434 8.66577 17.2436 8.66565 17.2437 8.66553C17.2437 8.66547 17.2438 8.66539 17.2438 8.66536C17.2439 8.66528 17.244 8.66519 16.8855 8.3167C16.5269 7.96821 16.527 7.96813 16.5271 7.96805C16.5271 7.96803 16.5272 7.96795 16.5272 7.9679C16.5273 7.9678 16.5274 7.96771 16.5275 7.96761C16.5277 7.96743 16.5278 7.96727 16.528 7.96712C16.5283 7.96682 16.5285 7.9666 16.5286 7.96644C16.529 7.96611 16.529 7.96605 16.5289 7.96623C16.5285 7.96659 16.5272 7.96791 16.5249 7.97005C16.5205 7.97436 16.5126 7.98179 16.502 7.99128C16.4801 8.01075 16.4494 8.03627 16.4144 8.06086C16.3784 8.08617 16.3458 8.10486 16.3198 8.11602C16.292 8.12798 16.2905 8.12327 16.3107 8.12327V9.12327ZM16.8855 8.3167C16.5946 8.72337 16.5947 8.72344 16.5948 8.72351C16.5948 8.72353 16.5949 8.7236 16.595 8.72365C16.5951 8.72375 16.5952 8.72386 16.5954 8.72397C16.5957 8.72418 16.596 8.72442 16.5964 8.72468C16.5971 8.72519 16.5979 8.72577 16.5989 8.72643C16.6008 8.72775 16.6031 8.72937 16.6058 8.73125C16.6112 8.73502 16.6184 8.73989 16.6271 8.74571C16.6445 8.75732 16.6683 8.77281 16.6977 8.79085C16.7562 8.82671 16.8387 8.87392 16.938 8.92128C17.1269 9.01139 17.42 9.12327 17.7423 9.12327V8.12327C17.6363 8.12327 17.501 8.08188 17.3685 8.0187C17.3072 7.98942 17.2557 7.95998 17.2205 7.93836C17.203 7.92766 17.1901 7.91919 17.1823 7.91404C17.1785 7.91147 17.176 7.90976 17.175 7.90904C17.1744 7.90868 17.1743 7.90857 17.1745 7.90873C17.1746 7.90881 17.1748 7.90896 17.1751 7.90917C17.1753 7.90928 17.1755 7.90941 17.1757 7.90955C17.1758 7.90962 17.1759 7.9097 17.176 7.90978C17.1761 7.90982 17.1761 7.90988 17.1762 7.9099C17.1763 7.90997 17.1764 7.91003 16.8855 8.3167ZM17.7423 9.12327C17.8605 9.12327 17.963 9.11173 18.0565 9.08818C18.152 9.06413 18.2206 9.03148 18.253 9.01633L17.8299 8.11025C17.8147 8.11738 17.8122 8.11837 17.8107 8.11897C17.8105 8.11905 17.8109 8.11891 17.8115 8.1187C17.8122 8.11849 17.8125 8.1184 17.8124 8.11844C17.8123 8.11845 17.8079 8.11959 17.7974 8.12077C17.7866 8.12198 17.7689 8.12327 17.7423 8.12327V9.12327ZM18.253 9.01633C18.2657 9.01043 18.2661 9.01032 18.2648 9.01085C18.2617 9.01213 18.2518 9.01613 18.2373 9.0201C18.2222 9.02424 18.2058 9.0274 18.1889 9.02903C18.1723 9.03062 18.1592 9.03039 18.1506 9.02982C18.1356 9.02881 18.138 9.02694 18.1684 9.03567C18.1982 9.04423 18.2446 9.05996 18.3153 9.088L18.6842 8.15855C18.5199 8.09334 18.365 8.04196 18.2176 8.03206C18.0215 8.0189 17.8896 8.08237 17.8299 8.11025L18.253 9.01633ZM18.3153 9.088C18.3122 9.08677 18.372 9.11534 18.4687 9.25781C18.5586 9.39031 18.6529 9.58117 18.7384 9.82448C18.9091 10.3103 19.0251 10.9491 19.0251 11.6129H20.0251C20.0251 10.8425 19.892 10.0911 19.6819 9.493C19.577 9.19435 19.4479 8.91981 19.2961 8.69622C19.1512 8.48261 18.951 8.26444 18.6842 8.15855L18.3153 9.088ZM19.0251 11.6129C19.0251 11.8539 18.9034 12.261 18.6584 12.7939C18.4226 13.3067 18.1039 13.871 17.779 14.4011C17.4551 14.9294 17.1304 15.4151 16.8863 15.7692C16.7644 15.946 16.6629 16.0894 16.5922 16.1884C16.5568 16.2378 16.5291 16.2761 16.5104 16.3019C16.5011 16.3147 16.494 16.3245 16.4893 16.3309C16.487 16.3341 16.4852 16.3365 16.4841 16.338C16.4836 16.3387 16.4832 16.3393 16.4829 16.3396C16.4828 16.3398 16.4827 16.3399 16.4827 16.34C16.4826 16.34 16.4826 16.34 16.4826 16.34C16.4826 16.34 16.4827 16.34 16.8855 16.6362C17.2883 16.9324 17.2883 16.9324 17.2883 16.9323C17.2884 16.9323 17.2884 16.9322 17.2885 16.9321C17.2886 16.932 17.2888 16.9318 17.289 16.9315C17.2894 16.931 17.2899 16.9302 17.2906 16.9292C17.292 16.9273 17.2941 16.9245 17.2967 16.9209C17.302 16.9136 17.3098 16.903 17.3198 16.8892C17.3397 16.8617 17.3688 16.8215 17.4056 16.77C17.4792 16.6671 17.584 16.5189 17.7095 16.3368C17.9603 15.9731 18.2955 15.4718 18.6316 14.9237C18.9665 14.3772 19.3078 13.7752 19.5669 13.2117C19.8168 12.6683 20.0251 12.089 20.0251 11.6129H19.0251ZM16.4036 16.7695L16.5432 17.2743L17.507 17.0077L17.3674 16.5029L16.4036 16.7695ZM17.0251 17.141C17.3334 17.5347 17.3335 17.5346 17.3336 17.5345C17.3337 17.5345 17.3338 17.5344 17.3339 17.5343C17.3341 17.5341 17.3344 17.5339 17.3347 17.5336C17.3353 17.5332 17.3361 17.5326 17.337 17.5318C17.3389 17.5303 17.3415 17.5283 17.3447 17.5257C17.3511 17.5207 17.36 17.5135 17.3714 17.5042C17.3942 17.4857 17.4268 17.459 17.4678 17.4243C17.55 17.3551 17.6664 17.2541 17.8075 17.1243C18.0893 16.8648 18.4716 16.4882 18.8767 16.0165C19.6808 15.0801 20.6041 13.7352 20.979 12.1625L20.0063 11.9306C19.6839 13.2831 18.8734 14.4854 18.118 15.365C17.7434 15.8012 17.3896 16.1498 17.1302 16.3885C17.0007 16.5077 16.8953 16.5991 16.8232 16.6599C16.7871 16.6903 16.7595 16.713 16.7413 16.7277C16.7323 16.7351 16.7256 16.7404 16.7215 16.7437C16.7194 16.7453 16.718 16.7465 16.7172 16.7471C16.7168 16.7474 16.7166 16.7476 16.7165 16.7476C16.7165 16.7476 16.7165 16.7476 16.7166 16.7476C16.7166 16.7476 16.7167 16.7475 16.7167 16.7475C16.7167 16.7474 16.7168 16.7474 17.0251 17.141ZM20.979 12.1625C21.3687 10.5283 20.8563 9.17019 20.2688 8.243C19.9751 7.77957 19.6588 7.41666 19.4157 7.16908C19.2937 7.04493 19.1892 6.94876 19.1136 6.88244C19.0758 6.84925 19.0451 6.82346 19.0231 6.80529C19.012 6.7962 19.0032 6.78902 18.9966 6.78377C18.9933 6.78114 18.9906 6.77899 18.9885 6.77733C18.9874 6.7765 18.9865 6.77579 18.9858 6.7752C18.9854 6.77491 18.9851 6.77465 18.9848 6.77441C18.9846 6.7743 18.9844 6.77415 18.9843 6.77409C18.9842 6.77394 18.984 6.77381 18.6772 7.16862C18.3704 7.56343 18.3702 7.5633 18.3701 7.56319C18.37 7.56316 18.3699 7.56305 18.3698 7.563C18.3697 7.56288 18.3696 7.5628 18.3695 7.56274C18.3694 7.56263 18.3694 7.56264 18.3695 7.56275C18.3698 7.56299 18.3707 7.56369 18.3722 7.56485C18.3751 7.56716 18.3802 7.5713 18.3874 7.57723C18.4018 7.5891 18.4245 7.60811 18.454 7.63403C18.5131 7.68593 18.5994 7.76517 18.7022 7.86979C18.9084 8.07976 19.1767 8.38786 19.4241 8.77826C19.9187 9.55873 20.3141 10.6396 20.0063 11.9306L20.979 12.1625ZM18.7217 6.6706L18.5598 6.65613L18.4708 7.65215L18.6327 7.66663L18.7217 6.6706ZM18.0153 6.3999V7.15414H19.0153V6.3999H18.0153Z" fill="#FFD018"/>
<path fill-rule="evenodd" clip-rule="evenodd" d="M13.1035 13.7848C13.1035 13.7848 13.418 12.9404 13.9679 13.2219C14.5179 13.5033 14.4699 14.4832 14.9702 14.134C15.4706 13.7848 15.1869 13.2219 15.9283 13.2219C16.6698 13.2219 16.5606 14.134 17.0052 14.134C17.4499 14.134 17.4884 13.2219 17.9854 13.2219C18.4825 13.2219 18.9866 13.7848 18.9866 13.7848L16.0451 17.7873L13.1035 13.7848Z" fill="#8FC753"/>
<path fill-rule="evenodd" clip-rule="evenodd" d="M7.92888 18.4572L7.6125 18.0309C7.6125 18.0309 8.92457 18.0309 9.10257 18.3394C9.15274 18.4264 9.17463 18.4928 9.19129 18.5434C9.23375 18.6722 9.24225 18.698 9.59816 18.698C10.0937 18.698 9.59816 18.2063 9.3918 18.0309C9.18545 17.8555 9.31111 17.5499 9.59816 17.5499C9.70878 17.5499 9.90134 17.5245 10.138 17.4933C10.5155 17.4436 11.0052 17.3791 11.4539 17.3791C12.184 17.3791 11.5788 18.0309 11.5788 18.0309C11.5788 18.0309 12.524 18.0309 12.2894 17.7596C12.0547 17.4884 13.0773 17.1583 13.5191 17.1583C13.931 17.1583 15.7851 17.2508 16.0345 17.2633C16.2953 17.2508 18.2336 17.1583 18.6454 17.1583C19.0872 17.1583 20.1098 17.4884 19.8751 17.7596C19.6405 18.0309 20.5857 18.0309 20.5857 18.0309C20.5857 18.0309 19.9805 17.3791 20.7106 17.3791C21.1593 17.3791 21.649 17.4436 22.0265 17.4933C22.2632 17.5245 22.4557 17.5499 22.5664 17.5499C22.8534 17.5499 22.9791 17.8555 22.7727 18.0309C22.5664 18.2063 22.0708 18.698 22.5664 18.698C22.9223 18.698 22.9308 18.6722 22.9732 18.5434C22.9899 18.4928 23.0118 18.4264 23.0619 18.3394C23.2336 18.0418 24.4605 18.0313 24.5472 18.0309C24.5274 17.9947 24.5161 17.9529 24.5161 17.9083C24.5161 17.7703 24.6244 17.6583 24.7581 17.6583C24.8917 17.6583 25 17.7703 25 17.9083C25 18.0464 24.8917 18.1583 24.7581 18.1583C24.669 18.1583 24.5913 18.1086 24.5492 18.0347L24.2356 18.4572L24.5622 18.8615C24.6062 18.799 24.6775 18.7583 24.7581 18.7583C24.8917 18.7583 25 18.8703 25 19.0083C25 19.1464 24.8917 19.2583 24.7581 19.2583C24.6244 19.2583 24.5161 19.1464 24.5161 19.0083C24.5161 18.9798 24.5208 18.9524 24.5293 18.9268C24.3443 18.837 24.0247 18.698 23.8174 18.698H23.2399C23.3852 18.698 24.1848 19.2256 23.9427 19.4542L23.9016 19.4931C23.6641 19.7189 23.3543 20.0134 23.0619 19.8528C22.7525 19.6828 22.5664 19.4542 22.5664 19.4542L22.3239 18.698C22.3239 18.698 20.8947 18.3291 20.8947 18.5845C20.8947 18.8398 20.8907 18.9648 20.3839 18.9648C20.1003 18.9648 19.8262 18.9167 19.5849 18.8743C19.395 18.841 19.2254 18.8112 19.0872 18.8112C18.8896 18.8112 18.5842 18.8722 18.3583 18.9173C18.2256 18.9438 18.1202 18.9648 18.0802 18.9648C17.972 18.9648 17.3933 18.9387 17.7899 18.698C18.1865 18.4572 18.2779 18.2063 18.2779 18.2063C18.2779 18.2063 16.6904 18.442 16.0623 18.4565V18.4572L16.0339 18.4571L16.0055 18.4572V18.4565C15.3827 18.442 13.8866 18.2063 13.8866 18.2063C13.8866 18.2063 13.978 18.4572 14.3746 18.698C14.7712 18.9387 14.1925 18.9648 14.0843 18.9648C14.0443 18.9648 13.9389 18.9438 13.8062 18.9173C13.5803 18.8722 13.2749 18.8112 13.0773 18.8112C12.9391 18.8112 12.7695 18.841 12.5796 18.8743C12.3383 18.9167 12.0642 18.9648 11.7806 18.9648C11.2738 18.9648 11.2698 18.8398 11.2698 18.5845C11.2698 18.3291 9.84061 18.698 9.84061 18.698L9.59816 19.4542C9.59816 19.4542 9.41203 19.6828 9.10257 19.8528C8.81025 20.0134 8.50041 19.7189 8.26287 19.4931L8.22186 19.4542C7.97969 19.2256 8.77935 18.698 8.92457 18.698H8.34716C8.04078 18.698 7.48932 19.0014 7.48932 19.0014L7.92888 18.4572ZM7.24194 18.1583C7.37555 18.1583 7.48387 18.0464 7.48387 17.9083C7.48387 17.7703 7.37555 17.6583 7.24194 17.6583C7.10832 17.6583 7 17.7703 7 17.9083C7 18.0464 7.10832 18.1583 7.24194 18.1583ZM7.24194 19.2583C7.37555 19.2583 7.48387 19.1464 7.48387 19.0083C7.48387 18.8703 7.37555 18.7583 7.24194 18.7583C7.10832 18.7583 7 18.8703 7 19.0083C7 19.1464 7.10832 19.2583 7.24194 19.2583Z" fill="white"/>
<path fill-rule="evenodd" clip-rule="evenodd" d="M15.895 2.02942H16.095V2.24378H16.3406V2.44378H16.095V2.80783C16.3708 2.85442 16.5812 3.10178 16.5812 3.39994C16.5812 3.73131 16.3212 3.99994 16.0006 3.99994C15.6799 3.99994 15.4199 3.73131 15.4199 3.39994C15.4199 3.10583 15.6247 2.86115 15.895 2.80984V2.44378H15.6692V2.24378H15.895V2.02942Z" fill="#FFD018"/>
<path fill-rule="evenodd" clip-rule="evenodd" d="M13.7473 5.22583C13.4673 5.22583 12.877 5.5252 12.877 5.5252L13.336 6.54315L16.1046 6.43927L18.8733 6.54315L19.3323 5.5252C19.3323 5.5252 18.742 5.22583 18.462 5.22583C18.3391 5.22583 18.3235 5.15349 18.306 5.07235C18.2836 4.96871 18.2582 4.8507 18.002 4.8507C17.8207 4.8507 17.6927 4.88077 17.589 4.90512C17.4314 4.94212 17.3302 4.9659 17.1842 4.8507C17.1781 4.84589 17.172 4.84108 17.1659 4.83626C16.9296 4.64958 16.6841 4.45569 16.287 4.45569C16.2078 4.45569 16.1486 4.53059 16.1046 4.65126C16.0607 4.53059 16.0015 4.45569 15.9223 4.45569C15.5252 4.45569 15.2797 4.64958 15.0434 4.83626C15.0373 4.84108 15.0312 4.84589 15.0251 4.8507C14.8791 4.9659 14.7779 4.94212 14.6203 4.90512C14.5166 4.88077 14.3885 4.8507 14.2073 4.8507C13.9511 4.8507 13.9257 4.96871 13.9033 5.07235C13.8858 5.15349 13.8702 5.22583 13.7473 5.22583Z" fill="#E31D1C"/>
<path fill-rule="evenodd" clip-rule="evenodd" d="M15.6074 3.56836L15.413 3.63578C14.8995 3.81394 14.4547 3.8727 14.0791 3.81481C13.3057 3.69562 12.2965 4.09804 12.4229 4.68736C12.4783 4.94561 12.6401 5.43338 12.8083 5.84678C13.0417 6.42041 13.2051 6.70976 13.3962 6.70976C13.4209 6.70976 13.6803 6.72392 13.7668 6.72864C13.7824 6.72949 13.7923 6.73004 13.7943 6.73014C14.0754 6.74437 14.3231 6.75189 14.5614 6.75078C15.2505 6.74756 15.6777 6.6799 15.8302 6.47315L15.8751 6.41231L15.8538 6.33904C15.6728 5.71676 15.5891 4.8631 15.6044 3.78017L15.6074 3.56836ZM12.7064 4.62241C12.6444 4.33344 13.4337 4.01867 14.0363 4.11153C14.4116 4.16937 14.8369 4.12583 15.3123 3.98279C15.3098 4.94535 15.3883 5.72724 15.5492 6.32993C15.4114 6.40202 15.0493 6.4485 14.5601 6.45078C14.3278 6.45186 14.0849 6.44449 13.8085 6.4305C13.811 6.43062 13.5239 6.41471 13.4256 6.41068C13.4223 6.40736 13.4185 6.40319 13.4142 6.3982C13.3883 6.368 13.3559 6.31917 13.3194 6.25453C13.2474 6.12708 13.1634 5.94543 13.0759 5.7305C12.9139 5.33231 12.7575 4.86052 12.7064 4.62241Z" fill="#FFD018"/>
<path fill-rule="evenodd" clip-rule="evenodd" d="M16.4551 3.56836L16.6495 3.63578C17.163 3.81394 17.6078 3.8727 17.9834 3.81481C18.7568 3.69562 19.766 4.09804 19.6396 4.68736C19.5842 4.94561 19.4224 5.43338 19.2542 5.84678C19.0208 6.42041 18.8574 6.70976 18.6663 6.70976C18.6416 6.70976 18.3822 6.72392 18.2957 6.72864C18.2801 6.72949 18.2702 6.73004 18.2682 6.73014C17.9871 6.74437 17.7394 6.75189 17.5011 6.75078C16.812 6.74756 16.3848 6.6799 16.2323 6.47315L16.1874 6.41231L16.2087 6.33904C16.3897 5.71676 16.4734 4.8631 16.4581 3.78017L16.4551 3.56836ZM19.3561 4.62241C19.4181 4.33344 18.6288 4.01867 18.0262 4.11153C17.6509 4.16937 17.2256 4.12583 16.7502 3.98279C16.7527 4.94535 16.6742 5.72724 16.5133 6.32993C16.6511 6.40202 17.0132 6.4485 17.5024 6.45078C17.7347 6.45186 17.9776 6.44449 18.254 6.4305C18.2515 6.43062 18.5386 6.41471 18.6369 6.41068C18.6402 6.40736 18.644 6.40319 18.6483 6.3982C18.6742 6.368 18.7066 6.31917 18.7431 6.25453C18.8151 6.12708 18.8991 5.94543 18.9866 5.7305C19.1486 5.33231 19.305 4.86052 19.3561 4.62241Z" fill="#FFD018"/>
<path fill-rule="evenodd" clip-rule="evenodd" d="M12.836 6.47096C12.8363 6.41546 12.8043 6.31523 12.7344 6.12909C12.6381 5.87264 12.5723 5.79493 12.4323 5.70944C12.3615 5.66617 12.3338 5.62867 12.3005 5.49954C12.2738 5.39625 12.2467 5.31565 12.2156 5.24136C12.2093 5.22625 12.1958 5.19619 12.1828 5.16724L12.1828 5.16724C12.1695 5.13752 12.1567 5.10898 12.1527 5.09902C12.1311 5.04467 12.1222 4.99634 12.1222 4.91799C12.1222 4.82867 12.1455 4.75712 12.2072 4.62701C12.244 4.54931 12.2488 4.53899 12.2619 4.50622C12.2884 4.43973 12.3021 4.38225 12.3021 4.32355V3.9384C12.3021 3.71351 12.311 3.69981 12.4214 3.71472C12.4325 3.71622 12.4432 3.71793 12.4545 3.71996C12.4503 3.71922 12.5075 3.73036 12.5211 3.73196C12.5474 3.73507 12.569 3.73296 12.5908 3.72312C12.6304 3.70524 12.6595 3.67016 12.7291 3.56595C12.762 3.51686 12.7973 3.52167 12.9227 3.58276C12.9405 3.59144 12.951 3.59647 12.9625 3.60174C13.0907 3.66064 13.1798 3.66235 13.2555 3.56982C13.3719 3.42764 13.4488 3.43671 13.5899 3.57395C13.6597 3.64173 13.6949 3.66738 13.7395 3.67394L13.7432 3.67449C13.7902 3.68145 13.793 3.68188 13.9255 3.60072C13.9345 3.61949 13.9542 3.62675 13.986 3.63416C14.0284 3.64406 14.0915 3.64741 14.1337 3.64081C14.1689 3.63531 14.1939 3.62445 14.2104 3.59012C14.2663 3.58843 14.3326 3.58753 14.4091 3.58753V3.48753C14.311 3.48753 14.2293 3.48898 14.1634 3.49175C14.1582 3.48743 14.1519 3.48188 14.1449 3.47567L14.1448 3.47566C14.1086 3.44369 14.0522 3.39404 14.0255 3.40192C14.0219 3.40298 14.0113 3.41235 13.9968 3.42525L13.9968 3.42526C13.9736 3.44582 13.9403 3.47535 13.909 3.49454C13.7776 3.57519 13.7726 3.57779 13.7531 3.57493C13.7358 3.57239 13.711 3.55432 13.6563 3.50112C13.4791 3.32884 13.3395 3.31238 13.1816 3.50524C13.1416 3.55414 13.0952 3.55325 13.0018 3.51036C12.9911 3.50547 12.9811 3.50069 12.9639 3.49231C12.7965 3.41077 12.722 3.40062 12.6495 3.50911C12.592 3.59511 12.5678 3.62438 12.5521 3.63148L12.5499 3.63261L12.5486 3.63327C12.5452 3.63486 12.5406 3.63404 12.4973 3.62619L12.4711 3.62145C12.4585 3.61918 12.4465 3.61726 12.434 3.61557C12.2511 3.59087 12.2053 3.66139 12.2053 3.9384V4.32355C12.2053 4.36734 12.1945 4.41268 12.1724 4.46807C12.1605 4.49796 12.1559 4.50785 12.1203 4.58303C12.0525 4.72602 12.0254 4.80908 12.0254 4.91799C12.0254 5.00918 12.0367 5.07041 12.0632 5.13701C12.068 5.1492 12.0826 5.18162 12.0969 5.2134C12.1092 5.24092 12.1213 5.26795 12.1268 5.28098C12.1559 5.3508 12.1815 5.42678 12.207 5.52534C12.2469 5.67986 12.2905 5.73897 12.3831 5.79553C12.5048 5.86987 12.556 5.93027 12.6442 6.16526C12.6901 6.28735 12.7185 6.37301 12.7321 6.42658C12.7349 6.43766 12.737 6.44694 12.7384 6.4544C12.7244 6.46565 12.726 6.4736 12.7307 6.49576C12.734 6.50336 12.735 6.5057 12.7364 6.50781L12.7386 6.51093L12.7386 6.51093C12.7442 6.5177 12.7442 6.5177 12.7508 6.52326C12.7536 6.52534 12.7565 6.52722 12.7596 6.52884C12.7578 6.52857 12.7563 6.52799 12.7545 6.52676C12.7604 6.53357 12.7682 6.54327 12.7779 6.55599C12.8727 6.6799 12.9919 6.6799 13.1061 6.56004L13.0371 6.4899C12.9622 6.56859 12.9109 6.56859 12.8538 6.49396L12.836 6.47096ZM13.9983 3.53432L13.9964 3.53343L13.9972 3.53377L13.9983 3.53432ZM19.1146 6.47096C19.1143 6.41546 19.1463 6.31523 19.2162 6.12909C19.3125 5.87264 19.3783 5.79493 19.5183 5.70944C19.5891 5.66617 19.6168 5.62867 19.6502 5.49954C19.6769 5.39625 19.704 5.31565 19.735 5.24136C19.7413 5.22625 19.7548 5.19619 19.7678 5.16725C19.7812 5.13752 19.794 5.10898 19.7979 5.09902C19.8195 5.04467 19.8285 4.99634 19.8285 4.91799C19.8285 4.82867 19.8051 4.75712 19.7434 4.62701C19.7066 4.54931 19.7018 4.53899 19.6888 4.50622C19.6622 4.43973 19.6485 4.38225 19.6485 4.32355V3.9384C19.6485 3.71351 19.6396 3.69981 19.5292 3.71472C19.5181 3.71622 19.5074 3.71793 19.4962 3.71996C19.5003 3.71922 19.4431 3.73036 19.4295 3.73196C19.4033 3.73507 19.3817 3.73296 19.3599 3.72312C19.3202 3.70524 19.2911 3.67016 19.2215 3.56595C19.1887 3.51686 19.1534 3.52167 19.028 3.58276C19.0102 3.59144 18.9996 3.59647 18.9882 3.60174C18.8599 3.66064 18.7709 3.66235 18.6951 3.56982C18.5787 3.42764 18.5018 3.43671 18.3607 3.57395C18.291 3.64173 18.2558 3.66738 18.2112 3.67394L18.2074 3.67449C18.1605 3.68145 18.1576 3.68188 18.0251 3.60072C18.0161 3.61949 17.9965 3.62675 17.9647 3.63416C17.9222 3.64406 17.8592 3.64741 17.8169 3.64081C17.7817 3.63531 17.7567 3.62445 17.7403 3.59012C17.6843 3.58843 17.6181 3.58753 17.5415 3.58753V3.48753C17.6396 3.48753 17.7213 3.48898 17.7873 3.49175C17.7924 3.48742 17.7987 3.48188 17.8058 3.47566C17.8421 3.44369 17.8985 3.39404 17.9252 3.40192C17.9287 3.40298 17.9393 3.41234 17.9539 3.42524L17.9539 3.42525L17.9539 3.42526C17.9761 3.44499 18.0077 3.473 18.0379 3.49219L18.0416 3.49454C18.173 3.57519 18.1781 3.57779 18.1975 3.57493C18.2149 3.57239 18.2397 3.55432 18.2944 3.50112C18.4716 3.32884 18.6111 3.31238 18.769 3.50524C18.809 3.55414 18.8554 3.55325 18.9489 3.51036C18.9595 3.50547 18.9695 3.50069 18.9867 3.49231C19.1541 3.41077 19.2286 3.40062 19.3011 3.50911C19.3586 3.59511 19.3829 3.62438 19.3986 3.63148L19.4008 3.63261L19.402 3.63327C19.4054 3.63486 19.41 3.63404 19.4533 3.62619L19.4796 3.62145C19.4921 3.61918 19.5042 3.61726 19.5167 3.61557C19.6995 3.59087 19.7453 3.66139 19.7453 3.9384V4.32355C19.7453 4.36734 19.7561 4.41268 19.7782 4.46807C19.7901 4.49796 19.7947 4.50785 19.8303 4.58303C19.8981 4.72602 19.9252 4.80908 19.9252 4.91799C19.9252 5.00918 19.9139 5.07041 19.8874 5.13701C19.8826 5.1492 19.868 5.18161 19.8538 5.2134C19.8414 5.24091 19.8293 5.26795 19.8238 5.28098C19.7947 5.3508 19.7691 5.42678 19.7437 5.52534C19.7037 5.67986 19.6601 5.73897 19.5675 5.79553C19.4458 5.86987 19.3947 5.93027 19.3064 6.16526C19.2606 6.28735 19.2321 6.37301 19.2185 6.42658C19.2157 6.43766 19.2136 6.44694 19.2122 6.4544C19.2263 6.46565 19.2246 6.4736 19.22 6.49576C19.2166 6.50336 19.2156 6.5057 19.2143 6.50781L19.212 6.51093C19.2065 6.5177 19.2065 6.5177 19.1998 6.52326C19.197 6.52534 19.1941 6.52722 19.1911 6.52884C19.1929 6.52857 19.1943 6.52799 19.1961 6.52676C19.1903 6.53357 19.1825 6.54327 19.1727 6.55599C19.0779 6.6799 18.9587 6.6799 18.8445 6.56004L18.9135 6.4899C18.9885 6.56859 19.0397 6.56859 19.0968 6.49396L19.1146 6.47096Z" fill="#5E5E5E"/>
<path d="M13.7734 17.885L13.8342 17.3887C14.9088 17.5202 15.6262 17.586 15.9878 17.5862C16.533 17.6107 17.1828 17.5713 17.9362 17.4672L18.0046 17.9625C17.223 18.0704 16.5436 18.1117 15.9765 18.086C15.5991 18.086 14.8682 18.019 13.7734 17.885Z" fill="#272727"/>
</g>
</g>
<rect width="32" height="24" fill="url(#paint0_linear_230_23483)" style="mix-blend-mode:overlay"/>
</g>
<rect x="0.5" y="0.5" width="31" height="23" rx="1.5" stroke="black" stroke-opacity="0.1"/>
<defs>
<linearGradient id="paint0_linear_230_23483" x1="16" y1="0" x2="16" y2="24" gradientUnits="userSpaceOnUse">
<stop stop-color="white" stop-opacity="0.7"/>
<stop offset="1" stop-opacity="0.3"/>
</linearGradient>
<clipPath id="clip0_230_23483">
<rect width="32" height="24" rx="2" fill="white"/>
</clipPath>
</defs>
</svg>
