<svg width="32" height="24" viewBox="0 0 32 24" fill="none" xmlns="http://www.w3.org/2000/svg">
<g clip-path="url(#clip0_230_23325)">
<mask id="mask0_230_23325" style="mask-type:luminance" maskUnits="userSpaceOnUse" x="0" y="0" width="32" height="24">
<rect width="32" height="24" fill="white"/>
</mask>
<g mask="url(#mask0_230_23325)">
<path fill-rule="evenodd" clip-rule="evenodd" d="M0 0H32V24H0V0Z" fill="#3D58DB"/>
<path d="M0 5H-1V6V18V19H0H32H33V18V6V5H32H0Z" fill="#C51918" stroke="#FFD018" stroke-width="2"/>
<path d="M7.14884 9.33112C7.02888 9.33112 6.93164 9.05992 6.93164 8.72537C6.93164 8.39083 7.02888 8.11963 7.14884 8.11963H24.5596C24.6796 8.11963 24.7768 8.39083 24.7768 8.72537C24.7768 9.05992 24.6796 9.33112 24.5596 9.33112H7.14884Z" fill="#FFD018"/>
<path fill-rule="evenodd" clip-rule="evenodd" d="M24.0957 8.60229L25.1067 7.3125L26.8957 8.60229L25.1067 9.926L24.0957 8.60229Z" fill="#F7FCFF"/>
<path d="M7.14884 13.3311C7.02888 13.3311 6.93164 13.0599 6.93164 12.7254C6.93164 12.3908 7.02888 12.1196 7.14884 12.1196H24.5596C24.6796 12.1196 24.7768 12.3908 24.7768 12.7254C24.7768 13.0599 24.6796 13.3311 24.5596 13.3311H7.14884Z" fill="#FFD018"/>
<path fill-rule="evenodd" clip-rule="evenodd" d="M24.0957 12.6023L25.1067 11.3125L26.8957 12.6023L25.1067 13.926L24.0957 12.6023Z" fill="#F7FCFF"/>
<path d="M4.3459 15.8219C4.18507 15.8219 4.05469 15.5139 4.05469 15.1341C4.05469 14.7542 4.18507 14.4463 4.3459 14.4463H27.6901C27.8509 14.4463 27.9813 14.7542 27.9813 15.1341C27.9813 15.5139 27.8509 15.8219 27.6901 15.8219H4.3459Z" fill="#FFD018"/>
<path fill-rule="evenodd" clip-rule="evenodd" d="M8.81641 12.0528C8.81641 12.0528 11.6578 6.07275 15.7217 6.07275C19.7856 6.07275 22.7225 12.0528 22.7225 12.0528C22.7225 12.0528 19.1363 17.9542 15.7694 17.9542C12.4026 17.9542 8.81641 12.0528 8.81641 12.0528Z" fill="#F7FCFF"/>
<mask id="mask1_230_23325" style="mask-type:luminance" maskUnits="userSpaceOnUse" x="8" y="6" width="15" height="12">
<path fill-rule="evenodd" clip-rule="evenodd" d="M8.81641 12.0528C8.81641 12.0528 11.6578 6.07275 15.7217 6.07275C19.7856 6.07275 22.7225 12.0528 22.7225 12.0528C22.7225 12.0528 19.1363 17.9542 15.7694 17.9542C12.4026 17.9542 8.81641 12.0528 8.81641 12.0528Z" fill="white"/>
</mask>
<g mask="url(#mask1_230_23325)">
<path fill-rule="evenodd" clip-rule="evenodd" d="M15.9233 5.68018C15.9233 5.68018 14.9961 6.80638 15.3051 7.8803C15.6142 8.95421 16.3344 8.84078 16.3344 9.78655C16.3344 10.7323 16.0017 11.6969 16.3344 11.6969C16.6671 11.6969 16.7823 12.3495 16.4783 12.792C16.1742 13.2344 15.9053 13.2481 15.9233 13.9682C15.9413 14.6883 17.5154 15.3952 16.7529 15.3952C15.9904 15.3952 14.9854 16.1353 15.3051 16.1353C15.6249 16.1353 17.2978 16.7119 17.2978 17.4686C17.2978 18.2254 17.2978 18.831 17.2978 18.831H8.57031V5.68018H15.9233Z" fill="#272727"/>
<path fill-rule="evenodd" clip-rule="evenodd" d="M11.8172 9.9231H11.3828V11.6923H11.8172V9.9231ZM13.0986 9.9231H12.6643V11.6923H13.0986V9.9231ZM12.0235 9.9231H12.4579V11.6923H12.0235V9.9231ZM13.7394 9.9231H13.305V11.6923H13.7394V9.9231ZM13.9457 9.9231H14.3801V11.6923H13.9457V9.9231ZM15.0208 9.9231H14.5864V11.6923H15.0208V9.9231ZM11.3828 12.4616H11.8172V14.2308H11.3828V12.4616ZM13.0986 12.4616H12.6643V14.2308H13.0986V12.4616ZM12.0235 12.4616H12.4579V14.2308H12.0235V12.4616ZM13.7394 12.4616H13.305V14.2308H13.7394V12.4616ZM13.9457 12.4616H14.3801V14.2308H13.9457V12.4616ZM15.0208 12.4616H14.5864V14.2308H15.0208V12.4616Z" fill="#F7FCFF"/>
<path fill-rule="evenodd" clip-rule="evenodd" d="M16.9774 9.9231H16.543V11.6923H16.9774V9.9231ZM18.2588 9.9231H17.8244V11.6923H18.2588V9.9231ZM17.1837 9.9231H17.6181V11.6923H17.1837V9.9231ZM18.8995 9.9231H18.4651V11.6923H18.8995V9.9231ZM19.1059 9.9231H19.5403V11.6923H19.1059V9.9231ZM20.181 9.9231H19.7466V11.6923H20.181V9.9231ZM16.543 12.4616H16.9774V14.2308H16.543V12.4616ZM18.2588 12.4616H17.8244V14.2308H18.2588V12.4616ZM17.1837 12.4616H17.6181V14.2308H17.1837V12.4616ZM18.8995 12.4616H18.4651V14.2308H18.8995V12.4616ZM19.1059 12.4616H19.5403V14.2308H19.1059V12.4616ZM20.181 12.4616H19.7466V14.2308H20.181V12.4616Z" fill="#272727"/>
<path fill-rule="evenodd" clip-rule="evenodd" d="M13.2304 7.07157C12.6219 7.2601 12.3435 8.85591 12.4115 9.24164C12.4795 9.62737 12.6859 9.19324 12.6859 9.19324C12.6859 9.19324 13.107 10.1083 13.1504 10.3545C13.1938 10.6007 13.4155 9.98238 13.4155 9.98238C13.4155 9.98238 14.1459 10.4855 14.2447 11.0461C14.3436 11.6067 14.4922 10.4046 14.4922 10.4046L14.6577 10.3754L14.553 9.78182L14.8685 10.0516L14.7712 9.49956C14.7712 9.49956 15.0088 9.81008 14.9485 9.46829C14.8882 9.12651 14.8546 8.9357 14.8546 8.9357L14.7722 8.46854L15.0845 8.41348C15.0845 8.41348 13.8389 6.88304 13.2304 7.07157Z" fill="#3D58DB"/>
</g>
<path fill-rule="evenodd" clip-rule="evenodd" d="M26.0876 13.6959C25.4556 13.7759 24.9043 15.2991 24.9043 15.6908C24.9043 16.0825 25.183 15.6908 25.183 15.6908C25.183 15.6908 25.4387 16.6651 25.4387 16.9151C25.4387 17.1651 25.7645 16.5947 25.7645 16.5947C25.7645 16.5947 26.3963 17.217 26.3963 17.7862C26.3963 18.3555 26.7515 17.1974 26.7515 17.1974H26.9195V16.5947L27.1834 16.9151V16.3546C27.1834 16.3546 27.3634 16.7016 27.3634 16.3546C27.3634 16.0075 27.3634 15.8138 27.3634 15.8138V15.3394H27.6805C27.6805 15.3394 26.7196 13.6159 26.0876 13.6959Z" fill="#3D58DB"/>
<path fill-rule="evenodd" clip-rule="evenodd" d="M5.59206 13.4651C6.22406 13.5451 6.77539 15.0683 6.77539 15.46C6.77539 15.8517 6.49669 15.46 6.49669 15.46C6.49669 15.46 6.24094 16.4343 6.24094 16.6843C6.24094 16.9343 5.9152 16.3638 5.9152 16.3638C5.9152 16.3638 5.28334 16.9861 5.28334 17.5554C5.28334 18.1247 4.92818 16.9666 4.92818 16.9666H4.76019V16.3638L4.49633 16.6843V16.1238C4.49633 16.1238 4.31626 16.4708 4.31626 16.1238C4.31626 15.7767 4.31626 15.5829 4.31626 15.5829V15.1086H3.99916C3.99916 15.1086 4.96007 13.3851 5.59206 13.4651Z" fill="#3D58DB"/>
</g>
<rect width="32" height="24" fill="url(#paint0_linear_230_23325)" style="mix-blend-mode:overlay"/>
</g>
<rect x="0.5" y="0.5" width="31" height="23" rx="1.5" stroke="black" stroke-opacity="0.1"/>
<defs>
<linearGradient id="paint0_linear_230_23325" x1="16" y1="0" x2="16" y2="24" gradientUnits="userSpaceOnUse">
<stop stop-color="white" stop-opacity="0.7"/>
<stop offset="1" stop-opacity="0.3"/>
</linearGradient>
<clipPath id="clip0_230_23325">
<rect width="32" height="24" rx="2" fill="white"/>
</clipPath>
</defs>
</svg>
