<svg width="32" height="24" viewBox="0 0 32 24" fill="none" xmlns="http://www.w3.org/2000/svg">
<g clip-path="url(#clip0_230_28701)">
<rect width="32" height="24" fill="white"/>
<path d="M11.0904 21.2289C10.4245 21.4302 9.46517 21.8428 9.08144 22.0742C8.95729 22.1547 8.96858 22.2453 9.16044 22.5874C9.29587 22.8088 9.43131 23 9.45388 23C9.48774 23 9.86018 22.8491 10.2778 22.6579C10.6954 22.4767 11.2289 22.2377 11.4741 22.195C11.6616 22.1623 11.8328 22.1313 11.9388 22.092C11.9815 22.1845 11.9553 22.133 12.033 22.2781C12.1448 22.4867 12.0752 22.482 12.2686 22.5391C12.4724 22.5993 12.9752 22.356 12.9752 22.356C13.562 22.1748 13.8893 22.1547 15.9998 22.1547C18.1103 22.1547 18.4376 22.1748 19.0245 22.366C19.0245 22.366 19.4968 22.5093 19.5575 22.5266C19.6178 22.5438 19.6497 22.5574 19.7134 22.5438C19.7715 22.5313 19.8321 22.4521 19.8588 22.4042C19.8588 22.4042 19.9886 22.1262 20.022 22.0286C20.1344 22.0768 20.3394 22.1396 20.5369 22.195C20.7739 22.2654 21.3043 22.4767 21.7219 22.6579C22.1395 22.8491 22.5119 23 22.5458 23C22.5684 23 22.7038 22.8088 22.8392 22.5874C23.1101 22.1145 23.1327 22.1547 22.1508 21.7019C20.8416 21.0981 19.5324 20.8264 19.4082 21.1182C19.3857 21.1736 19.3665 21.206 19.3355 21.2778C19.2043 21.2508 18.8609 21.1786 18.5166 21.1283C17.4557 20.9572 14.5439 20.9572 13.483 21.1283C13.1388 21.1786 12.9061 21.2626 12.7116 21.3107C12.6015 21.1143 12.6245 21.1924 12.602 21.137C12.5117 20.9358 11.9142 20.9673 11.0904 21.2289H11.0904Z" fill="#DFDFDF"/>
<path d="M12.0495 8.793C12.0267 9.12092 12.0949 9.35287 12.2731 9.52882C12.3526 9.61281 12.4209 9.71278 12.4209 9.71278C12.4209 9.71278 12.3299 9.81276 12.2541 9.88874C12.076 10.0647 12.004 10.2926 12.004 10.5326C12.004 10.7805 12.076 10.9525 12.2693 11.1764C12.2693 11.1764 12.4324 11.2585 12.4284 11.3604C12.4245 11.4622 12.2541 11.5643 12.2541 11.5643C11.9054 11.9722 11.9168 12.4401 12.2806 12.828L12.436 13H16.006H19.5722L19.7466 12.804C20.0838 12.4241 20.0838 12.0122 19.7503 11.5763C19.7503 11.5763 19.5825 11.4566 19.5798 11.3564C19.5771 11.2561 19.739 11.1564 19.739 11.1564C20.0876 10.7165 20.0801 10.3126 19.72 9.88874C19.5571 9.70078 19.5533 9.66479 19.6821 9.57681C19.8906 9.42885 20.0194 8.92896 19.9247 8.62504C19.7845 8.16915 19.1819 7.86522 18.8143 8.06517C18.746 8.10116 18.6096 8.20114 18.5073 8.28512C18.405 8.37309 18.3102 8.44108 18.2913 8.44108C18.2761 8.44108 18.1852 8.3691 18.0904 8.28112C17.7228 7.9492 17.2801 7.90921 16.9125 8.28512C16.9125 8.28512 16.8601 8.48621 16.7829 8.49307C16.7057 8.49992 16.5972 8.31311 16.5972 8.31311C16.222 7.9412 15.7521 7.95719 15.3693 8.3491C15.3693 8.3491 15.3157 8.51282 15.2291 8.49307C15.1426 8.47332 15.0714 8.28112 15.0714 8.28112C14.8478 8.06517 14.7061 8.06917 14.4484 8.06517C14.3001 8.06276 14.0313 8.09885 13.869 8.2202C13.7067 8.34154 13.7353 8.48691 13.698 8.47707C13.6042 8.45233 13.501 8.30111 13.501 8.30111C13.1371 7.97319 12.8453 7.9172 12.4929 8.11316C12.2162 8.26512 12.0722 8.48907 12.0495 8.793Z" fill="#171796"/>
<path d="M12.2849 14.4919C12.2849 14.4919 12.4301 14.5627 12.4251 14.6533C12.4201 14.744 12.2659 14.8344 12.2659 14.8344C12.1787 14.9328 12.0839 15.0745 12.0536 15.1454C11.9323 15.4485 12.0233 15.8539 12.2621 16.0862C12.4062 16.2318 12.41 16.2909 12.2735 16.4641C12.2128 16.5389 12.1408 16.6451 12.1143 16.7003C11.8299 17.2592 12.2545 17.9599 12.8838 17.9599C13.134 17.9599 13.3236 17.8772 13.4942 17.6883C13.6307 17.5387 13.7027 17.5348 13.824 17.6686C14.0022 17.8733 14.2372 17.9993 14.4343 17.9993C14.6656 17.9993 14.8096 17.9245 15.0447 17.6922C15.0447 17.6922 15.1378 17.5102 15.2229 17.5112C15.3079 17.5121 15.3859 17.6962 15.3859 17.6962C15.7384 18.0898 16.0948 18.1016 16.5687 17.7277C16.5687 17.7277 16.6728 17.5761 16.762 17.5781C16.8512 17.58 16.9288 17.7355 16.9288 17.7355C17.1373 17.9245 17.2927 17.9993 17.4975 17.9993C17.7022 17.9993 17.8538 17.9166 18.0926 17.6726C18.0926 17.6726 18.2159 17.4874 18.2898 17.4757C18.3636 17.4641 18.4414 17.6174 18.4414 17.6174C18.7333 17.8891 18.8925 17.9757 19.1048 17.9757C19.3247 17.9757 19.4801 17.9009 19.7 17.6962C19.9047 17.5033 20.0147 17.2789 19.9881 17.0939C19.9616 16.8931 19.7872 16.5271 19.6583 16.4011C19.6583 16.4011 19.5291 16.3898 19.5484 16.2909C19.5677 16.1919 19.719 16.0901 19.719 16.0901C20.0905 15.6374 20.0943 15.2871 19.7266 14.8383C19.7266 14.8383 19.573 14.7496 19.5749 14.6494C19.5769 14.5491 19.7341 14.4486 19.7341 14.4486C20.0905 14.0117 20.0867 13.6062 19.7266 13.2086L19.5332 13L15.9849 13.0039L12.4365 13.0079L12.2773 13.1929C11.9058 13.622 11.9095 14.0589 12.2849 14.4919Z" fill="#D42E12"/>
<path fill-rule="evenodd" clip-rule="evenodd" d="M17.8198 13.6221C17.9917 13.6221 18.1346 13.7391 18.1642 13.8933L18.1698 13.9528V14.5676L18.9054 14.1771C19.0682 14.0907 19.2711 14.151 19.3585 14.3119C19.4363 14.455 19.3966 14.6293 19.2725 14.7269L19.2221 14.7598L18.6055 15.0871L19.2221 15.4145L19.2725 15.4473C19.3966 15.545 19.4363 15.7193 19.3585 15.8623C19.2711 16.0232 19.0682 16.0836 18.9054 15.9971L18.1698 15.6066V16.2914C18.1698 16.474 18.0131 16.6221 17.8198 16.6221C17.648 16.6221 17.5051 16.5051 17.4755 16.3508L17.4698 16.2914V15.6901L16.8915 15.9971C16.7287 16.0836 16.5258 16.0232 16.4383 15.8623C16.3606 15.7193 16.4002 15.545 16.5243 15.4473L16.5748 15.4145L17.1913 15.0871L16.5748 14.7598L16.5243 14.7269C16.4002 14.6293 16.3606 14.455 16.4383 14.3119C16.5258 14.151 16.7287 14.0907 16.8915 14.1771L17.4698 14.4842V13.9528C17.4698 13.7701 17.6265 13.6221 17.8198 13.6221Z" fill="#E9D315"/>
<path fill-rule="evenodd" clip-rule="evenodd" d="M14.4214 13.6221C14.5932 13.6221 14.7361 13.7391 14.7658 13.8933L14.7714 13.9528V14.5676L15.507 14.1771C15.6698 14.0907 15.8726 14.151 15.9601 14.3119C16.0378 14.455 15.9982 14.6293 15.8741 14.7269L15.8237 14.7598L15.2071 15.0871L15.8237 15.4145L15.8741 15.4473C15.9982 15.545 16.0378 15.7193 15.9601 15.8623C15.8726 16.0232 15.6698 16.0836 15.507 15.9971L14.7714 15.6066V16.2914C14.7714 16.474 14.6147 16.6221 14.4214 16.6221C14.2496 16.6221 14.1067 16.5051 14.077 16.3508L14.0714 16.2914V15.6901L13.493 15.9971C13.3302 16.0836 13.1274 16.0232 13.0399 15.8623C12.9622 15.7193 13.0018 15.545 13.1259 15.4473L13.1763 15.4145L13.7929 15.0871L13.1763 14.7598L13.1259 14.7269C13.0018 14.6293 12.9622 14.455 13.0399 14.3119C13.1274 14.151 13.3302 14.0907 13.493 14.1771L14.0714 14.4842V13.9528C14.0714 13.7701 14.2281 13.6221 14.4214 13.6221Z" fill="#E9D315"/>
<path d="M10.852 12.8565H11.002V12.8565C11.002 12.8572 11.002 12.8804 11.002 12.9231C10.9172 12.9205 10.854 12.8586 10.852 12.8567L10.852 12.8566L10.852 12.8568L10.852 12.8573L10.852 12.8597L10.852 12.8688L10.852 12.9047L10.8521 13.0419L10.8524 13.5411C10.8527 13.9597 10.8531 14.5306 10.8538 15.1405C10.8551 16.3571 10.8573 17.7289 10.8605 18.3532C10.8541 18.4802 10.8898 18.5758 10.9615 18.6556C10.9932 18.691 11.0295 18.7206 11.0625 18.7461C11.0781 18.7581 11.0918 18.7684 11.1053 18.7786C11.1246 18.7931 11.1435 18.8072 11.1667 18.8256L11.2598 18.708L11.1667 18.8256C11.2562 18.8966 11.4102 18.9527 11.5871 18.9985C11.7716 19.0461 12.0051 19.0882 12.2731 19.1199C12.8079 19.1833 13.4896 19.2071 14.2126 19.1503C14.5182 19.1533 14.7421 19.2126 14.9134 19.2955C15.0861 19.3789 15.2128 19.4899 15.3196 19.6054C15.3736 19.6638 15.4218 19.7226 15.4697 19.7811L15.4724 19.7845C15.5182 19.8405 15.5655 19.8983 15.6139 19.9488C15.7127 20.0521 15.8392 20.15 16.0177 20.15C16.1971 20.15 16.3221 20.0512 16.4183 19.9467C16.4662 19.8947 16.5123 19.8353 16.5567 19.7781L16.5597 19.7742C16.6043 19.7167 16.6488 19.6594 16.6986 19.6022C16.7993 19.4868 16.9182 19.3768 17.081 19.2942C17.2433 19.2119 17.4572 19.1526 17.753 19.1502C18.5715 19.1628 19.2688 19.1429 19.793 19.0937C20.055 19.0691 20.2772 19.0369 20.4511 18.9968C20.6152 18.9589 20.762 18.9086 20.8514 18.8323L20.8515 18.8321L20.8585 18.8265C20.8642 18.8217 20.8722 18.815 20.8817 18.8067C20.9007 18.7901 20.9266 18.7664 20.9542 18.7379C21.0051 18.6854 21.0791 18.5996 21.1125 18.5018C21.1435 18.4108 21.1516 18.3283 21.1519 18.2682C21.1521 18.2381 21.1503 18.213 21.1483 18.1947C21.1477 18.1884 21.147 18.1829 21.1463 18.1782V12.8565V7V6.85H20.9963H15.9991H11.002H10.852V7V12.8565Z" stroke="black" stroke-width="0.3"/>
<path d="M14.8678 9.86578C14.5994 10.3656 14.5881 10.5898 14.8111 10.9903C14.985 11.2978 15.1892 11.4933 15.4689 11.6182C16.1986 11.9482 17.1324 11.7047 17.4991 11.0896C17.7259 10.7116 17.6995 10.0804 17.45 9.80491L17.3819 9.73123L17.3176 9.94908C17.2269 10.2598 17.1362 10.4168 16.9547 10.5834C16.6145 10.8942 16.1457 10.9647 15.6618 10.7724C15.2875 10.6219 15.1363 10.4136 14.9964 9.83374L14.9624 9.68958L14.8678 9.86578L14.8678 9.86578Z" fill="white"/>
<path fill-rule="evenodd" clip-rule="evenodd" d="M18.4785 3.5C18.4785 4.36593 17.8551 5 16.9781 5C16.1011 5 15.483 4.36593 15.483 3.5C15.483 2.62934 16.1011 2 16.9781 2C17.8551 2 18.4785 2.62934 18.4785 3.5ZM6.52302 4.95224V2.93173L7.41585 4.95224H7.80679L8.67849 2.93173V4.95224H9.20679V2.04688H8.59396L7.6166 4.28031L6.62868 2.04688H6V4.95224H6.52302ZM10.2264 4.95224L10.5592 4.14782H11.8007L12.1336 4.95224H12.6936L11.4468 2.04688H10.9185L9.67169 4.95224H10.2264ZM11.1774 2.64827L10.7336 3.7224H11.6211L11.1774 2.64827ZM14.2521 4.95224V3.79293L15.4302 2.04688H14.8491L13.9932 3.34814L13.1321 2.04688H12.5351L13.7079 3.79293V4.95224H14.2521ZM16.9781 4.5603C16.4076 4.5603 16.0378 4.11551 16.0378 3.50037C16.0378 2.88522 16.4076 2.44043 16.9781 2.44043C17.5487 2.44043 17.9238 2.88522 17.9238 3.50037C17.9238 4.11551 17.5487 4.5603 16.9781 4.5603ZM20.2642 2.48221V4.95224H19.7147V2.48221H18.637V2.04688H21.3419V2.48221H20.2642ZM23.286 4.95224V2.48221H24.3638V2.04688H21.6589V2.48221H22.7366V4.95224H23.286ZM27 4.51217V4.95224H24.8815V2.04688H27V2.48221H25.4204V3.24877H26.8521V3.67937H25.4204V4.51217H27Z" fill="#FF2500"/>
<path fill-rule="evenodd" clip-rule="evenodd" d="M26.7765 18.8001C26.7765 18.8001 26.4364 18.1304 27.2963 17.7998C28.1562 17.4693 28.5765 17.9006 28.9553 18.3009C29.3341 18.7012 29.2925 19.9094 29.2925 19.9094L28.3565 21.4064L25.4854 22L24.3414 21.4064L23 18.8001L23.1002 16.2414C23.1002 16.2414 23.2359 15.2613 23.2359 15.0584C23.2359 14.8555 23.8591 13.2829 23.8591 13.2829L24.4492 12.6984L26.1181 11.8105L26.9039 11.418L27.8797 10.1846L27.7718 9.20275L26.6597 10.6193H25.7177L24.7372 11.03L24.3414 11.4032L23.8591 11.418L23.6701 11.03L24.1966 10.1846L24.9919 9.38392L24.6261 8.7068L25.1676 8.46013L25.0635 8.08688L25.6645 8.46013L26.1181 8.08688L26.2045 7.7436L25.1676 7.18794C25.1676 7.18794 26.1821 6.76227 26.6597 6.80669C27.1373 6.85111 27.5879 7.41306 27.5879 7.41306L28.9553 7.18794C28.9553 7.18794 28.5892 8.08688 28.7075 8.08688C28.8258 8.08688 29.5685 8.08688 29.5685 8.08688L29.2925 9.20275H30.3514L29.5685 10.0624L30.1797 10.3975L29.2498 11.03L30.1797 11.6557L29.3151 12.2236L29.8022 13.1653L30.5688 12.6984L31 13.2829L30.3514 14.7224L29.2925 15.4736L28.2837 15.7278L27.2963 15.9844L26.9039 16.2414L26.6597 15.2565L24.9919 16.4002L24.1256 18.1937L24.3806 19.8233L24.9919 20.6577L26.1181 21.061L27.5879 20.7848L28.3565 19.8496L28.5401 18.8952C28.5401 18.8952 28.0947 18.2471 27.7718 18.3009C27.4488 18.3547 26.7765 18.8001 26.7765 18.8001Z" fill="#DFDFDF" stroke="black" stroke-width="0.3"/>
<path d="M25.0821 12.2242L25.0452 12.6225C26.1994 12.7296 26.9631 12.6719 27.3621 12.4234L27.442 12.3673L27.1931 12.0542C26.9502 12.2473 26.317 12.3191 25.3189 12.2441L25.0821 12.2242Z" fill="black"/>
<path d="M23.7442 13.3785L23.7073 13.7768C24.8615 13.8838 25.6253 13.8262 26.0242 13.5777L26.1041 13.5216L25.8552 13.2085C25.6123 13.4016 24.9791 13.4734 23.981 13.3984L23.7442 13.3785Z" fill="black"/>
<path d="M23.4226 14.4547L23.3563 14.8491C24.0363 14.9635 24.463 14.911 24.6068 14.6135L24.6368 14.5339L24.252 14.4245C24.232 14.495 24.0163 14.537 23.5772 14.4781L23.4226 14.4547Z" fill="black"/>
<path fill-rule="evenodd" clip-rule="evenodd" d="M25.75 9.5C25.6119 9.5 25.5 9.38807 25.5 9.25C25.5 9.11193 25.6119 9 25.75 9C25.8881 9 26 9.11193 26 9.25C26 9.38807 25.8881 9.5 25.75 9.5Z" fill="black"/>
<path fill-rule="evenodd" clip-rule="evenodd" d="M5.22353 18.8001C5.22353 18.8001 5.56358 18.1304 4.70366 17.7998C3.84375 17.4693 3.42345 17.9006 3.04469 18.3009C2.66592 18.7012 2.70754 19.9094 2.70754 19.9094L3.64348 21.4064L6.51462 22L7.65865 21.4064L9 18.8001L8.89977 16.2414C8.89977 16.2414 8.76409 15.2613 8.76409 15.0584C8.76409 14.8555 8.14093 13.2829 8.14093 13.2829L7.55083 12.6984L5.88193 11.8105L5.09607 11.418L4.12029 10.1846L4.22825 9.20275L5.3403 10.6193H6.28226L7.26276 11.03L7.65865 11.4032L8.14093 11.418L8.32989 11.03L7.80336 10.1846L7.00806 9.38392L7.37387 8.7068L6.83237 8.46013L6.93655 8.08688L6.33551 8.46013L5.88193 8.08688L5.79552 7.7436L6.83237 7.18794C6.83237 7.18794 5.81789 6.76227 5.3403 6.80669C4.86272 6.85111 4.41214 7.41306 4.41214 7.41306L3.04469 7.18794C3.04469 7.18794 3.41078 8.08688 3.29247 8.08688C3.17416 8.08688 2.43146 8.08688 2.43146 8.08688L2.70754 9.20275H1.64862L2.43146 10.0624L1.82034 10.3975L2.75017 11.03L1.82034 11.6557L2.68488 12.2236L2.19779 13.1653L1.43118 12.6984L1 13.2829L1.64862 14.7224L2.70754 15.4736L3.71632 15.7278L4.70366 15.9844L5.09607 16.2414L5.3403 15.2565L7.00806 16.4002L7.87441 18.1937L7.61938 19.8233L7.00806 20.6577L5.88193 21.061L4.41214 20.7848L3.64348 19.8496L3.45994 18.8952C3.45994 18.8952 3.90528 18.2471 4.22825 18.3009C4.55122 18.3547 5.22353 18.8001 5.22353 18.8001Z" fill="#DFDFDF" stroke="black" stroke-width="0.3"/>
<path d="M6.91791 12.2242L6.95484 12.6225C5.80057 12.7296 5.03686 12.6719 4.63791 12.4234L4.55799 12.3673L4.80692 12.0542C5.04979 12.2473 5.68299 12.3191 6.68111 12.2441L6.91791 12.2242Z" fill="black"/>
<path d="M8.2558 13.3785L8.29273 13.7768C7.13846 13.8838 6.37475 13.8262 5.9758 13.5777L5.89589 13.5216L6.14481 13.2085C6.38768 13.4016 7.02088 13.4734 8.019 13.3984L8.2558 13.3785Z" fill="black"/>
<path d="M8.57743 14.4547L8.64375 14.8491C7.96375 14.9635 7.53699 14.911 7.39324 14.6135L7.36321 14.5339L7.74795 14.4245C7.768 14.495 7.98375 14.537 8.42278 14.4781L8.57743 14.4547Z" fill="black"/>
<path fill-rule="evenodd" clip-rule="evenodd" d="M6.25 9.5C6.38807 9.5 6.5 9.38807 6.5 9.25C6.5 9.11193 6.38807 9 6.25 9C6.11193 9 6 9.11193 6 9.25C6 9.38807 6.11193 9.5 6.25 9.5Z" fill="black"/>
<rect width="32" height="24" fill="url(#paint0_linear_230_28701)" style="mix-blend-mode:overlay"/>
</g>
<rect x="0.5" y="0.5" width="31" height="23" rx="1.5" stroke="black" stroke-opacity="0.1"/>
<defs>
<linearGradient id="paint0_linear_230_28701" x1="16" y1="0" x2="16" y2="24" gradientUnits="userSpaceOnUse">
<stop stop-color="white" stop-opacity="0.7"/>
<stop offset="1" stop-opacity="0.3"/>
</linearGradient>
<clipPath id="clip0_230_28701">
<rect width="32" height="24" rx="2" fill="white"/>
</clipPath>
</defs>
</svg>
