<svg width="32" height="24" viewBox="0 0 32 24" fill="none" xmlns="http://www.w3.org/2000/svg">
<g clip-path="url(#clip0_230_27592)">
<mask id="mask0_230_27592" style="mask-type:luminance" maskUnits="userSpaceOnUse" x="0" y="0" width="32" height="24">
<rect width="32" height="24" fill="white"/>
</mask>
<g mask="url(#mask0_230_27592)">
<path fill-rule="evenodd" clip-rule="evenodd" d="M0 0V24H32V0H0Z" fill="#2E42A5"/>
<mask id="mask1_230_27592" style="mask-type:luminance" maskUnits="userSpaceOnUse" x="0" y="0" width="32" height="24">
<path fill-rule="evenodd" clip-rule="evenodd" d="M0 0V24H32V0H0Z" fill="white"/>
</mask>
<g mask="url(#mask1_230_27592)">
<rect width="18" height="14" fill="#2B409A"/>
<mask id="mask2_230_27592" style="mask-type:luminance" maskUnits="userSpaceOnUse" x="0" y="0" width="18" height="14">
<rect width="18" height="14" fill="white"/>
</mask>
<g mask="url(#mask2_230_27592)">
<path d="M-2.00586 12.9998L1.95509 14.737L18.0883 1.88875L20.1776 -0.69278L15.9419 -1.2734L9.36159 4.26329L4.06508 7.99372L-2.00586 12.9998Z" fill="#F7FCFF"/>
<path d="M-1.46289 14.2169L0.555031 15.2251L19.428 -0.932648H16.5947L-1.46289 14.2169Z" fill="#F50100"/>
<path d="M20.0039 12.9998L16.043 14.737L-0.0902405 1.88875L-2.17955 -0.69278L2.05612 -1.2734L8.63646 4.26329L13.933 7.99372L20.0039 12.9998Z" fill="#F7FCFF"/>
<path d="M19.8691 13.8733L17.8512 14.8815L9.81489 7.96351L7.43229 7.19059L-2.3802 -0.683947H0.453194L10.2602 7.00368L12.8651 7.9305L19.8691 13.8733Z" fill="#F50100"/>
<mask id="path-12-outside-1_230_27592" maskUnits="userSpaceOnUse" x="-2" y="-2" width="22" height="18" fill="black">
<rect fill="white" x="-2" y="-2" width="22" height="18"/>
<path fill-rule="evenodd" clip-rule="evenodd" d="M9.98451 0H7.98451V6H0V8H7.98451V14H9.98451V8H18V6H9.98451V0Z"/>
</mask>
<path fill-rule="evenodd" clip-rule="evenodd" d="M9.98451 0H7.98451V6H0V8H7.98451V14H9.98451V8H18V6H9.98451V0Z" fill="#F50100"/>
<path d="M7.98451 0V-1.5H6.48451V0H7.98451ZM9.98451 0H11.4845V-1.5H9.98451V0ZM7.98451 6V7.5H9.48451V6H7.98451ZM0 6V4.5H-1.5V6H0ZM0 8H-1.5V9.5H0V8ZM7.98451 8H9.48451V6.5H7.98451V8ZM7.98451 14H6.48451V15.5H7.98451V14ZM9.98451 14V15.5H11.4845V14H9.98451ZM9.98451 8V6.5H8.48451V8H9.98451ZM18 8V9.5H19.5V8H18ZM18 6H19.5V4.5H18V6ZM9.98451 6H8.48451V7.5H9.98451V6ZM7.98451 1.5H9.98451V-1.5H7.98451V1.5ZM9.48451 6V0H6.48451V6H9.48451ZM0 7.5H7.98451V4.5H0V7.5ZM1.5 8V6H-1.5V8H1.5ZM7.98451 6.5H0V9.5H7.98451V6.5ZM9.48451 14V8H6.48451V14H9.48451ZM9.98451 12.5H7.98451V15.5H9.98451V12.5ZM8.48451 8V14H11.4845V8H8.48451ZM18 6.5H9.98451V9.5H18V6.5ZM16.5 6V8H19.5V6H16.5ZM9.98451 7.5H18V4.5H9.98451V7.5ZM8.48451 0V6H11.4845V0H8.48451Z" fill="#F7FCFF" mask="url(#path-12-outside-1_230_27592)"/>
</g>
<path fill-rule="evenodd" clip-rule="evenodd" d="M23.6673 13.8551L24.3932 13.3462L25.0955 13.8551L24.8771 12.9495L25.4412 12.3755H24.7233L24.3922 11.6365L24.1097 12.3755H23.2676L23.9124 12.9495L23.6673 13.8551ZM26.48 15.1134L27.2059 14.6045L27.9083 15.1134L27.6899 14.2078L28.2539 13.6339H27.5361L27.2049 12.8948L26.9225 13.6339H26.0804L26.7251 14.2078L26.48 15.1134ZM28.045 16.9854L27.3191 17.4943L27.5642 16.5887L26.9195 16.0148H27.7615L28.044 15.2757L28.3751 16.0148H29.093L28.529 16.5887L28.7473 17.4943L28.045 16.9854ZM26.3224 19.7692L27.0482 19.2603L27.7506 19.7692L27.5322 18.8636L28.0962 18.2897H27.3784L27.0472 17.5506L26.7648 18.2897H25.9227L26.5674 18.8636L26.3224 19.7692ZM24.5 20.5064L23.7741 21.0153L24.0192 20.1097L23.3745 19.5358H24.2165L24.499 18.7967L24.8301 19.5358H25.548L24.984 20.1097L25.2023 21.0153L24.5 20.5064ZM21.4004 19.8087L22.1263 19.2998L22.8286 19.8087L22.6102 18.9031L23.1743 18.3292H22.4564L22.1253 17.5901L21.8428 18.3292H21.0007L21.6455 18.9031L21.4004 19.8087ZM20.8599 17.0019L20.134 17.5108L20.3791 16.6052L19.7344 16.0312H20.5765L20.8589 15.2922L21.1901 16.0312H21.9079L21.3439 16.6052L21.5622 17.5108L20.8599 17.0019ZM21.0472 15.1598L21.7731 14.6509L22.4754 15.1598L22.2571 14.2542L22.8211 13.6803H22.1032L21.7721 12.9412L21.4896 13.6803H20.6476L21.2923 14.2542L21.0472 15.1598Z" fill="white"/>
</g>
</g>
<rect width="32" height="24" fill="url(#paint0_linear_230_27592)" style="mix-blend-mode:overlay"/>
</g>
<rect x="0.5" y="0.5" width="31" height="23" rx="1.5" stroke="black" stroke-opacity="0.1"/>
<defs>
<linearGradient id="paint0_linear_230_27592" x1="16" y1="0" x2="16" y2="24" gradientUnits="userSpaceOnUse">
<stop stop-color="white" stop-opacity="0.7"/>
<stop offset="1" stop-opacity="0.3"/>
</linearGradient>
<clipPath id="clip0_230_27592">
<rect width="32" height="24" rx="2" fill="white"/>
</clipPath>
</defs>
</svg>
