<svg width="32" height="24" viewBox="0 0 32 24" fill="none" xmlns="http://www.w3.org/2000/svg">
<g clip-path="url(#clip0_230_26370)">
<mask id="mask0_230_26370" style="mask-type:luminance" maskUnits="userSpaceOnUse" x="0" y="0" width="32" height="24">
<rect width="32" height="24" fill="white"/>
</mask>
<g mask="url(#mask0_230_26370)">
<path fill-rule="evenodd" clip-rule="evenodd" d="M16 0H32V12H16V0Z" fill="#FBCD17"/>
<path fill-rule="evenodd" clip-rule="evenodd" d="M16 12H32V24H16V12Z" fill="#0B9E7A"/>
<path fill-rule="evenodd" clip-rule="evenodd" d="M0 0H16V24H0V0Z" fill="#E11C1B"/>
<path fill-rule="evenodd" clip-rule="evenodd" d="M8.93065 14.6063L5.44503 17.024L6.55881 12.883L4 10.2378L7.46478 10.0948L8.93065 6L10.3965 10.0948H13.8554L11.3025 12.883L12.581 16.7796L8.93065 14.6063Z" fill="#1D1D1D"/>
</g>
<rect width="32" height="24" fill="url(#paint0_linear_230_26370)" style="mix-blend-mode:overlay"/>
</g>
<rect x="0.5" y="0.5" width="31" height="23" rx="1.5" stroke="black" stroke-opacity="0.1"/>
<defs>
<linearGradient id="paint0_linear_230_26370" x1="16" y1="0" x2="16" y2="24" gradientUnits="userSpaceOnUse">
<stop stop-color="white" stop-opacity="0.7"/>
<stop offset="1" stop-opacity="0.3"/>
</linearGradient>
<clipPath id="clip0_230_26370">
<rect width="32" height="24" rx="2" fill="white"/>
</clipPath>
</defs>
</svg>
