<svg width="32" height="24" viewBox="0 0 32 24" fill="none" xmlns="http://www.w3.org/2000/svg">
<g clip-path="url(#clip0_230_26547)">
<mask id="mask0_230_26547" style="mask-type:luminance" maskUnits="userSpaceOnUse" x="0" y="0" width="32" height="24">
<rect width="32" height="24" fill="white"/>
</mask>
<g mask="url(#mask0_230_26547)">
<path fill-rule="evenodd" clip-rule="evenodd" d="M0 0V24H32V0H0Z" fill="#F7FCFF"/>
<mask id="mask1_230_26547" style="mask-type:luminance" maskUnits="userSpaceOnUse" x="0" y="0" width="32" height="24">
<path fill-rule="evenodd" clip-rule="evenodd" d="M0 0V24H32V0H0Z" fill="white"/>
</mask>
<g mask="url(#mask1_230_26547)">
<path fill-rule="evenodd" clip-rule="evenodd" d="M0 0V8H32V0H0Z" fill="#009D00"/>
<path fill-rule="evenodd" clip-rule="evenodd" d="M0 8V16H32V8H0Z" fill="white"/>
<path fill-rule="evenodd" clip-rule="evenodd" d="M0 16V24H32V16H0Z" fill="#F80000"/>
</g>
<path fill-rule="evenodd" clip-rule="evenodd" d="M0 0V24L8 12.152L0 0Z" fill="#0075D5"/>
<mask id="mask2_230_26547" style="mask-type:luminance" maskUnits="userSpaceOnUse" x="0" y="0" width="8" height="24">
<path fill-rule="evenodd" clip-rule="evenodd" d="M0 0V24L8 12.152L0 0Z" fill="white"/>
</mask>
<g mask="url(#mask2_230_26547)">
</g>
<path d="M14.5693 8.8829L14.5565 8.8858L14.5468 8.87688L14.3402 8.68595L14.3143 8.96613L14.3131 8.97922L14.3016 8.98565L14.0562 9.12321L14.3147 9.23436L14.3268 9.23955L14.3293 9.25244L14.3843 9.5284L14.5699 9.3169L14.5786 9.30703L14.5916 9.30857L14.8711 9.34155L14.7273 9.09969L14.7205 9.08839L14.726 9.07646L14.8438 8.82089L14.5693 8.8829Z" fill="#FFD500" stroke="black" stroke-width="0.05"/>
<path d="M15.5693 8.8829L15.5565 8.8858L15.5468 8.87688L15.3402 8.68595L15.3143 8.96613L15.3131 8.97922L15.3016 8.98565L15.0562 9.12321L15.3147 9.23436L15.3268 9.23955L15.3293 9.25244L15.3843 9.5284L15.5699 9.3169L15.5786 9.30703L15.5916 9.30857L15.8711 9.34155L15.7273 9.09969L15.7205 9.08839L15.726 9.07646L15.8438 8.82089L15.5693 8.8829Z" fill="#FFD500" stroke="black" stroke-width="0.05"/>
<path d="M16.5693 8.8829L16.5565 8.8858L16.5468 8.87688L16.3402 8.68595L16.3143 8.96613L16.3131 8.97922L16.3016 8.98565L16.0562 9.12321L16.3147 9.23436L16.3268 9.23955L16.3293 9.25244L16.3843 9.5284L16.5699 9.3169L16.5786 9.30703L16.5916 9.30857L16.8711 9.34155L16.7273 9.09969L16.7205 9.08839L16.726 9.07646L16.8438 8.82089L16.5693 8.8829Z" fill="#FFD500" stroke="black" stroke-width="0.05"/>
<path d="M17.5693 8.8829L17.5565 8.8858L17.5468 8.87688L17.3402 8.68595L17.3143 8.96613L17.3131 8.97922L17.3016 8.98565L17.0562 9.12321L17.3147 9.23436L17.3268 9.23955L17.3293 9.25244L17.3843 9.5284L17.5699 9.3169L17.5786 9.30703L17.5916 9.30857L17.8711 9.34155L17.7273 9.09969L17.7205 9.08839L17.726 9.07646L17.8438 8.82089L17.5693 8.8829Z" fill="#FFD500" stroke="black" stroke-width="0.05"/>
<path d="M18.5693 8.8829L18.5565 8.8858L18.5468 8.87688L18.3402 8.68595L18.3143 8.96613L18.3131 8.97922L18.3016 8.98565L18.0562 9.12321L18.3147 9.23436L18.3268 9.23955L18.3293 9.25244L18.3843 9.5284L18.5699 9.3169L18.5786 9.30703L18.5916 9.30857L18.8711 9.34155L18.7273 9.09969L18.7205 9.08839L18.726 9.07646L18.8438 8.82089L18.5693 8.8829Z" fill="#FFD500" stroke="black" stroke-width="0.05"/>
<path d="M19.5693 8.8829L19.5565 8.8858L19.5468 8.87688L19.3402 8.68595L19.3143 8.96613L19.3131 8.97922L19.3016 8.98565L19.0562 9.12321L19.3147 9.23436L19.3268 9.23955L19.3293 9.25244L19.3843 9.5284L19.5699 9.3169L19.5786 9.30703L19.5916 9.30857L19.8711 9.34155L19.7273 9.09969L19.7205 9.08839L19.726 9.07646L19.8438 8.82089L19.5693 8.8829Z" fill="#FFD500" stroke="black" stroke-width="0.05"/>
<path d="M15.05 10.05H18.95V13C18.95 14.077 18.077 14.95 17 14.95C15.923 14.95 15.05 14.077 15.05 13V10.05Z" stroke="#373737" stroke-width="0.1"/>
<path fill-rule="evenodd" clip-rule="evenodd" d="M16.7272 11.9598C16.7272 11.9598 16.5254 14.3251 16.3241 14.4684C16.1227 14.6118 17.289 14.6834 17.4005 14.5759C17.5119 14.4684 16.8919 12.541 17.1052 11.9598C17.3185 11.3786 17.662 11.3315 17.662 11.3315C17.662 11.3315 17.2289 11.24 17.1052 11.4144C16.9814 11.5888 16.6123 11.3315 16.6123 11.3315L16.7272 11.9598Z" fill="#6F3E1D"/>
<path fill-rule="evenodd" clip-rule="evenodd" d="M16.6819 11.8261H16.5267C16.5267 11.8261 16.4216 12.2369 16.1806 12.0315C15.9396 11.8261 15.5996 11.8985 15.5996 11.8985C15.5996 11.8985 15.6301 11.6528 16.0001 11.555C16.3702 11.4573 16.5267 10.6639 16.5267 10.6639C16.5267 10.6639 17.0503 10.469 17.3689 10.8684C17.6874 11.2678 18.1362 11.0974 18.1362 11.0974C18.1362 11.0974 18.4642 11.2839 18.3002 11.555C18.1362 11.8261 17.8564 12.0245 17.6127 11.8261C17.3689 11.6278 16.6819 11.8261 16.6819 11.8261Z" fill="#009D29"/>
</g>
<rect width="32" height="24" fill="url(#paint0_linear_230_26547)" style="mix-blend-mode:overlay"/>
</g>
<rect x="0.5" y="0.5" width="31" height="23" rx="1.5" stroke="black" stroke-opacity="0.1"/>
<defs>
<linearGradient id="paint0_linear_230_26547" x1="16" y1="0" x2="16" y2="24" gradientUnits="userSpaceOnUse">
<stop stop-color="white" stop-opacity="0.7"/>
<stop offset="1" stop-opacity="0.3"/>
</linearGradient>
<clipPath id="clip0_230_26547">
<rect width="32" height="24" rx="2" fill="white"/>
</clipPath>
</defs>
</svg>
