<svg width="32" height="24" viewBox="0 0 32 24" fill="none" xmlns="http://www.w3.org/2000/svg">
<g clip-path="url(#clip0_230_26379)">
<mask id="mask0_230_26379" style="mask-type:luminance" maskUnits="userSpaceOnUse" x="0" y="0" width="32" height="24">
<rect width="32" height="24" fill="white"/>
</mask>
<g mask="url(#mask0_230_26379)">
<path fill-rule="evenodd" clip-rule="evenodd" d="M0 0H32V24H0V0Z" fill="#C51918"/>
<path fill-rule="evenodd" clip-rule="evenodd" d="M4 4H28V20H4V4Z" fill="#4564F9"/>
<path d="M5 5H27V19H5V5Z" stroke="#CBDAFF" stroke-opacity="0.1" stroke-width="2"/>
<mask id="mask1_230_26379" style="mask-type:luminance" maskUnits="userSpaceOnUse" x="4" y="4" width="24" height="16">
<path fill-rule="evenodd" clip-rule="evenodd" d="M4 4H28V20H4V4Z" fill="white"/>
<path d="M5 5H27V19H5V5Z" stroke="white" stroke-width="2"/>
</mask>
<g mask="url(#mask1_230_26379)">
<path d="M16.5 5.00006L17.1067 3.68308L16.4859 3.3971L15.8702 3.69399L16.5 5.00006ZM16.5 5.00006C17.1067 3.68308 17.1071 3.68327 17.1075 3.68348L17.1086 3.68394L17.1109 3.68505L17.1172 3.68798L17.1358 3.6967C17.1508 3.70378 17.1709 3.7134 17.1958 3.72552C17.2457 3.74976 17.3149 3.78408 17.4007 3.82831C17.5721 3.91666 17.8109 4.04511 18.0948 4.21221C18.6595 4.54451 19.4188 5.03915 20.1854 5.68632C21.6653 6.93573 23.45 8.99316 23.45 11.7531C23.45 14.4844 21.6952 16.6591 20.2398 18.0185C19.4831 18.7253 18.7325 19.2818 18.1734 19.661C17.8924 19.8516 17.6563 19.9998 17.4871 20.1022C17.4025 20.1534 17.3344 20.1933 17.2855 20.2215C17.2611 20.2355 17.2415 20.2467 17.227 20.2548L17.2091 20.2648L17.2032 20.2681L17.201 20.2694L17.2 20.2699C17.1996 20.2701 17.1992 20.2703 16.5 19.0001M16.5 5.00006C15.8702 3.69399 15.8698 3.69418 15.8693 3.69439L15.8684 3.69485L15.8661 3.69597L15.8599 3.69896L15.8418 3.7079C15.827 3.71518 15.8071 3.72509 15.7825 3.73761C15.7331 3.76263 15.6644 3.79811 15.5792 3.84376C15.4089 3.93495 15.1713 4.06735 14.8887 4.23874C14.3266 4.57963 13.5707 5.08429 12.8077 5.73669C11.3432 6.98891 9.55 9.04677 9.55 11.7531C9.55 14.43 11.3123 16.606 12.7542 17.9683C13.5078 18.6803 14.2553 19.2467 14.8121 19.6343C15.0918 19.8291 15.3268 19.9812 15.4949 20.0863C15.5791 20.1389 15.6467 20.1799 15.6951 20.2088C15.7193 20.2232 15.7387 20.2347 15.7529 20.243L15.7704 20.2532L15.7762 20.2565L15.7784 20.2577L15.7793 20.2583C15.7797 20.2585 15.78 20.2587 16.5 19.0001M16.5 19.0001L17.1992 20.2703L16.4864 20.6627L15.78 20.2587L16.5 19.0001Z" stroke="#C1C9F1" stroke-opacity="0.1182" stroke-width="2.9"/>
<path d="M16.4004 6.0368L17.0869 4.75962L16.3844 4.38201L15.6893 4.77312L16.4004 6.0368ZM16.4004 6.0368C17.0869 4.75962 17.0874 4.75986 17.0878 4.76011L17.0888 4.76066L17.0911 4.76189L17.0968 4.76499L17.1126 4.77362C17.125 4.78047 17.1411 4.78949 17.1608 4.80067C17.2002 4.82302 17.2538 4.85406 17.3196 4.89362C17.451 4.97264 17.632 5.08631 17.8462 5.23341C18.272 5.52583 18.8426 5.95962 19.418 6.52649C20.5418 7.63354 21.8504 9.41702 21.8504 11.7677C21.8504 14.0945 20.5642 15.9719 19.4688 17.1658C18.9044 17.781 18.3441 18.2658 17.9253 18.5973C17.7148 18.7639 17.5372 18.894 17.4088 18.9847C17.3445 19.0301 17.2923 19.0658 17.2542 19.0914C17.2352 19.1042 17.2196 19.1145 17.2079 19.1223L17.193 19.1319L17.1878 19.1353L17.1857 19.1367L17.1848 19.1372C17.1844 19.1375 17.184 19.1378 16.4004 17.9178M16.4004 6.0368C15.6893 4.77312 15.6889 4.77336 15.6885 4.77361L15.6875 4.77415L15.6853 4.77539L15.6798 4.7785L15.6645 4.78729C15.6524 4.79428 15.6365 4.80353 15.6171 4.81502C15.5783 4.83798 15.5253 4.86993 15.4602 4.91063C15.3301 4.99191 15.1505 5.10875 14.9378 5.25927C14.5149 5.55852 13.9481 6.00022 13.3763 6.57072C12.2663 7.67815 10.9504 9.46141 10.9504 11.7677C10.9504 14.0492 12.2429 15.9274 13.3264 17.1219C13.8877 17.7408 14.4449 18.2334 14.861 18.5715C15.0702 18.7415 15.2466 18.8747 15.3738 18.9676C15.4376 19.0141 15.4892 19.0506 15.5267 19.0768C15.5455 19.0898 15.5608 19.1003 15.5723 19.1082L15.5867 19.118L15.5918 19.1214L15.5938 19.1227L15.5946 19.1233C15.595 19.1235 15.5954 19.1238 16.4004 17.9178M16.4004 17.9178L17.184 19.1378L16.3851 19.6509L15.5954 19.1238L16.4004 17.9178Z" fill="#CCE0E5"/>
<path d="M16.4004 6.0368L17.0869 4.75962L16.3844 4.38201L15.6893 4.77312L16.4004 6.0368ZM16.4004 6.0368C17.0869 4.75962 17.0874 4.75986 17.0878 4.76011L17.0888 4.76066L17.0911 4.76189L17.0968 4.76499L17.1126 4.77362C17.125 4.78047 17.1411 4.78949 17.1608 4.80067C17.2002 4.82302 17.2538 4.85406 17.3196 4.89362C17.451 4.97264 17.632 5.08631 17.8462 5.23341C18.272 5.52583 18.8426 5.95962 19.418 6.52649C20.5418 7.63354 21.8504 9.41702 21.8504 11.7677C21.8504 14.0945 20.5642 15.9719 19.4688 17.1658C18.9044 17.781 18.3441 18.2658 17.9253 18.5973C17.7148 18.7639 17.5372 18.894 17.4088 18.9847C17.3445 19.0301 17.2923 19.0658 17.2542 19.0914C17.2352 19.1042 17.2196 19.1145 17.2079 19.1223L17.193 19.1319L17.1878 19.1353L17.1857 19.1367L17.1848 19.1372C17.1844 19.1375 17.184 19.1378 16.4004 17.9178M16.4004 6.0368C15.6893 4.77312 15.6889 4.77336 15.6885 4.77361L15.6875 4.77415L15.6853 4.77539L15.6798 4.7785L15.6645 4.78729C15.6524 4.79428 15.6365 4.80353 15.6171 4.81502C15.5783 4.83798 15.5253 4.86993 15.4602 4.91063C15.3301 4.99191 15.1505 5.10875 14.9378 5.25927C14.5149 5.55852 13.9481 6.00022 13.3763 6.57072C12.2663 7.67815 10.9504 9.46141 10.9504 11.7677C10.9504 14.0492 12.2429 15.9274 13.3264 17.1219C13.8877 17.7408 14.4449 18.2334 14.861 18.5715C15.0702 18.7415 15.2466 18.8747 15.3738 18.9676C15.4376 19.0141 15.4892 19.0506 15.5267 19.0768C15.5455 19.0898 15.5608 19.1003 15.5723 19.1082L15.5867 19.118L15.5918 19.1214L15.5938 19.1227L15.5946 19.1233C15.595 19.1235 15.5954 19.1238 16.4004 17.9178M16.4004 17.9178L17.184 19.1378L16.3851 19.6509L15.5954 19.1238L16.4004 17.9178Z" stroke="#C1C9F1" stroke-opacity="0.748217" stroke-width="2.9"/>
<path d="M16.4004 6.0368L17.0869 4.75962L16.3844 4.38201L15.6893 4.77312L16.4004 6.0368ZM16.4004 6.0368C17.0869 4.75962 17.0874 4.75986 17.0878 4.76011L17.0888 4.76066L17.0911 4.76189L17.0968 4.76499L17.1126 4.77362C17.125 4.78047 17.1411 4.78949 17.1608 4.80067C17.2002 4.82302 17.2538 4.85406 17.3196 4.89362C17.451 4.97264 17.632 5.08631 17.8462 5.23341C18.272 5.52583 18.8426 5.95962 19.418 6.52649C20.5418 7.63354 21.8504 9.41702 21.8504 11.7677C21.8504 14.0945 20.5642 15.9719 19.4688 17.1658C18.9044 17.781 18.3441 18.2658 17.9253 18.5973C17.7148 18.7639 17.5372 18.894 17.4088 18.9847C17.3445 19.0301 17.2923 19.0658 17.2542 19.0914C17.2352 19.1042 17.2196 19.1145 17.2079 19.1223L17.193 19.1319L17.1878 19.1353L17.1857 19.1367L17.1848 19.1372C17.1844 19.1375 17.184 19.1378 16.4004 17.9178M16.4004 6.0368C15.6893 4.77312 15.6889 4.77336 15.6885 4.77361L15.6875 4.77415L15.6853 4.77539L15.6798 4.7785L15.6645 4.78729C15.6524 4.79428 15.6365 4.80353 15.6171 4.81502C15.5783 4.83798 15.5253 4.86993 15.4602 4.91063C15.3301 4.99191 15.1505 5.10875 14.9378 5.25927C14.5149 5.55852 13.9481 6.00022 13.3763 6.57072C12.2663 7.67815 10.9504 9.46141 10.9504 11.7677C10.9504 14.0492 12.2429 15.9274 13.3264 17.1219C13.8877 17.7408 14.4449 18.2334 14.861 18.5715C15.0702 18.7415 15.2466 18.8747 15.3738 18.9676C15.4376 19.0141 15.4892 19.0506 15.5267 19.0768C15.5455 19.0898 15.5608 19.1003 15.5723 19.1082L15.5867 19.118L15.5918 19.1214L15.5938 19.1227L15.5946 19.1233C15.595 19.1235 15.5954 19.1238 16.4004 17.9178M16.4004 17.9178L17.184 19.1378L16.3851 19.6509L15.5954 19.1238L16.4004 17.9178Z" stroke="#C51918" stroke-width="2.9"/>
<mask id="mask2_230_26379" style="mask-type:luminance" maskUnits="userSpaceOnUse" x="12" y="6" width="9" height="12">
<path d="M17.332 15.2052C17.0129 15.553 16.6916 15.8506 16.4124 16.0879C16.1283 15.8417 15.8002 15.5328 15.4744 15.1736C14.5578 14.1631 13.8504 12.9662 13.8504 11.7677C13.8504 10.5938 14.5345 9.51165 15.4245 8.62368C15.7703 8.27866 16.1194 7.99149 16.4132 7.77181C16.7022 7.9828 17.0441 8.25873 17.3828 8.59241C18.259 9.45559 18.9504 10.5375 18.9504 11.7677C18.9504 13.0216 18.2366 14.2192 17.332 15.2052ZM15.7098 7.31177C15.7093 7.31153 15.7098 7.31179 15.7112 7.31254L15.7111 7.3125L15.7098 7.31177Z" fill="white"/>
<path d="M17.332 15.2052C17.0129 15.553 16.6916 15.8506 16.4124 16.0879C16.1283 15.8417 15.8002 15.5328 15.4744 15.1736C14.5578 14.1631 13.8504 12.9662 13.8504 11.7677C13.8504 10.5938 14.5345 9.51165 15.4245 8.62368C15.7703 8.27866 16.1194 7.99149 16.4132 7.77181C16.7022 7.9828 17.0441 8.25873 17.3828 8.59241C18.259 9.45559 18.9504 10.5375 18.9504 11.7677C18.9504 13.0216 18.2366 14.2192 17.332 15.2052ZM15.7098 7.31177C15.7093 7.31153 15.7098 7.31179 15.7112 7.31254L15.7111 7.3125L15.7098 7.31177Z" stroke="white" stroke-width="2.9"/>
</mask>
<g mask="url(#mask2_230_26379)">
<rect x="12.9336" y="14" width="7.46667" height="1.5" fill="#91CBCB"/>
<path fill-rule="evenodd" clip-rule="evenodd" d="M13.6016 15.198C13.6016 15.198 18.8956 15.1999 19.3822 15.0172C19.8688 14.8345 18.4687 18.5247 16.6799 18.5247C14.891 18.5247 13.6016 15.198 13.6016 15.198Z" fill="#FDF9A1"/>
<path d="M18.5932 14.7551L17.6422 15.4869C16.1433 13.5391 15.5146 11.524 15.783 9.46747L16.9729 9.62274C16.7481 11.3453 17.2792 13.0475 18.5932 14.7551Z" fill="#A68861"/>
<path fill-rule="evenodd" clip-rule="evenodd" d="M16.3934 9.63676L15.4861 10.6999C15.4521 10.7398 15.3874 10.707 15.3994 10.656L15.7115 9.33042H14.2922C14.238 9.33042 14.2225 9.25637 14.2721 9.23463L15.4849 8.70294L14.6241 7.56805C14.5936 7.52785 14.6351 7.47292 14.6821 7.49124L16.0357 8.01894L16.3448 6.7755C16.3574 6.72488 16.4293 6.72493 16.4418 6.77556L16.7493 8.01894L18.0912 7.49646C18.1392 7.47777 18.1807 7.5351 18.1479 7.57485L17.2183 8.70294L18.501 9.23423C18.5516 9.25517 18.5366 9.33042 18.4819 9.33042H17.2183L17.4106 10.6866C17.4176 10.7361 17.3556 10.7641 17.3231 10.7261L16.3934 9.63676Z" fill="#239E46"/>
<path fill-rule="evenodd" clip-rule="evenodd" d="M15.5996 13H20.3996V14.05H15.5996V13Z" fill="#239E46"/>
<path fill-rule="evenodd" clip-rule="evenodd" d="M14.873 12.3926H14.8681C14.8543 12.444 14.8204 12.4868 14.7666 12.521C14.7127 12.5551 14.6431 12.5721 14.5577 12.5721C14.4895 12.5721 14.4268 12.5598 14.3697 12.5351C14.3127 12.5105 14.2639 12.4742 14.2234 12.4265C14.1828 12.3787 14.1511 12.3194 14.1282 12.2485C14.1052 12.1776 14.0938 12.096 14.0938 12.0036C14.0938 11.9122 14.1049 11.8311 14.1273 11.7602C14.1498 11.6894 14.1817 11.63 14.2234 11.5823C14.265 11.5345 14.3151 11.498 14.3738 11.4728C14.4324 11.4476 14.4975 11.435 14.5689 11.435C14.6692 11.435 14.7529 11.457 14.8202 11.5011C14.8874 11.5452 14.9391 11.6035 14.9754 11.676L14.865 11.7421C14.8393 11.6833 14.8012 11.6371 14.7505 11.6035C14.6999 11.5699 14.6394 11.5531 14.5689 11.5531C14.5199 11.5531 14.4751 11.5618 14.4345 11.5791C14.394 11.5964 14.3591 11.6208 14.3298 11.6523C14.3004 11.6838 14.2778 11.7216 14.2617 11.7657C14.2457 11.8098 14.2377 11.8592 14.2377 11.9138V12.0918C14.2377 12.1464 14.2457 12.196 14.2617 12.2406C14.2778 12.2852 14.3004 12.3233 14.3298 12.3548C14.3591 12.3863 14.3951 12.4107 14.4378 12.428C14.4804 12.4454 14.5284 12.454 14.5818 12.454C14.6202 12.454 14.6567 12.449 14.6913 12.4391C14.726 12.4291 14.7564 12.4141 14.7825 12.3942C14.8087 12.3742 14.8292 12.3493 14.8442 12.3194C14.8591 12.2894 14.8666 12.254 14.8666 12.213V12.1044H14.6202V11.9878H14.9977V12.5532H14.873V12.3926ZM15.7082 11.4539V12.1343C15.7082 12.2393 15.7279 12.3188 15.7673 12.3729C15.8068 12.427 15.8761 12.454 15.9754 12.454C16.0746 12.454 16.1439 12.427 16.1834 12.3729C16.2228 12.3188 16.2425 12.2393 16.2425 12.1343V11.4539H16.377V12.1028C16.377 12.1826 16.3698 12.2519 16.3554 12.3107C16.341 12.3695 16.3178 12.4183 16.2857 12.4572C16.2537 12.496 16.2119 12.5249 16.1602 12.5438C16.1084 12.5627 16.0452 12.5721 15.9706 12.5721C15.8959 12.5721 15.8332 12.5627 15.7825 12.5438C15.7319 12.5249 15.6911 12.496 15.6602 12.4572C15.6292 12.4183 15.6071 12.3695 15.5938 12.3107C15.5804 12.2519 15.5738 12.1826 15.5738 12.1028V11.4539H15.7082ZM17.6649 12.5532L17.5529 12.2288H17.1017L16.9897 12.5532H16.8537L17.2441 11.4539H17.4153L17.8057 12.5532H17.6649ZM17.3305 11.5767H17.3226L17.1337 12.1122H17.5194L17.3305 11.5767ZM19.1817 11.6271H19.1737L19.0793 11.8114L18.8122 12.2902L18.545 11.8114L18.4506 11.6271H18.4425V12.5532H18.3113V11.4539H18.4906L18.8105 12.0461H18.8186L19.1402 11.4539H19.313V12.5532H19.1817V11.6271Z" fill="#C51918"/>
</g>
</g>
</g>
<rect width="32" height="24" fill="url(#paint0_linear_230_26379)" style="mix-blend-mode:overlay"/>
</g>
<rect x="0.5" y="0.5" width="31" height="23" rx="1.5" stroke="black" stroke-opacity="0.1"/>
<defs>
<linearGradient id="paint0_linear_230_26379" x1="16" y1="0" x2="16" y2="24" gradientUnits="userSpaceOnUse">
<stop stop-color="white" stop-opacity="0.7"/>
<stop offset="1" stop-opacity="0.3"/>
</linearGradient>
<clipPath id="clip0_230_26379">
<rect width="32" height="24" rx="2" fill="white"/>
</clipPath>
</defs>
</svg>
