<svg width="32" height="24" viewBox="0 0 32 24" fill="none" xmlns="http://www.w3.org/2000/svg">
<g clip-path="url(#clip0_230_23604)">
<mask id="mask0_230_23604" style="mask-type:luminance" maskUnits="userSpaceOnUse" x="0" y="0" width="32" height="24">
<rect width="32" height="24" fill="white"/>
</mask>
<g mask="url(#mask0_230_23604)">
<path fill-rule="evenodd" clip-rule="evenodd" d="M0 0V24H32V0H0Z" fill="#2E42A5"/>
<mask id="mask1_230_23604" style="mask-type:luminance" maskUnits="userSpaceOnUse" x="0" y="0" width="32" height="24">
<path fill-rule="evenodd" clip-rule="evenodd" d="M0 0V24H32V0H0Z" fill="white"/>
</mask>
<g mask="url(#mask1_230_23604)">
<path fill-rule="evenodd" clip-rule="evenodd" d="M0 0V8H32V0H0Z" fill="#F7FCFF"/>
<path fill-rule="evenodd" clip-rule="evenodd" d="M0 16V24H32V16H0Z" fill="#C51918"/>
<path fill-rule="evenodd" clip-rule="evenodd" d="M13.74 5.03629C13.74 5.03629 11.6353 4.04236 9.01746 4.04236C6.39966 4.04236 4.29492 5.03629 4.29492 5.03629C4.29492 5.03629 4.52915 9.03101 4.89935 11.1472C5.05741 12.0508 5.81715 13.3686 6.50495 13.9924C7.28892 14.7033 9.01746 15.5456 9.01746 15.5456C9.51767 15.2009 10.4529 15.0459 11.6484 13.9924C12.8438 12.9388 13.1409 11.1472 13.1409 11.1472L13.74 5.03629Z" fill="#2E42A5"/>
<path d="M13.4618 4.90576L14.3383 5.34348L13.7366 11.3661C13.5259 12.6408 12.9985 13.646 12.1553 14.3892C11.6978 14.7923 11.2513 15.0936 10.7725 15.3439C10.5023 15.4851 9.37197 16.0674 9.38182 16.0626C9.26857 16.1172 9.18268 16.165 9.11292 16.2131L9.00359 16.2884L8.88556 16.2309C7.7148 15.6604 6.62249 14.8927 6.07968 14.4004C5.3387 13.7285 4.55742 12.3534 4.39085 11.4013C4.1418 9.97761 3.91846 8.0167 3.76172 5.34348L4.54912 4.93155C4.70468 7.58463 4.89246 9.69954 5.13702 11.0975C5.2817 11.9246 6.00215 13.1926 6.65939 13.7886C7.14512 14.2291 7.92765 14.7175 9.00359 15.2487C9.06778 15.2111 9.1389 15.1739 9.22027 15.1347C9.22256 15.1336 9.95447 14.8085 10.2088 14.6756C10.655 14.4423 11.0697 14.1625 11.4966 13.7862C12.2452 13.1265 12.7124 12.238 12.9014 11.1094L13.4618 4.90576Z" fill="#C51918"/>
<path fill-rule="evenodd" clip-rule="evenodd" d="M5.54102 11.0242C5.54102 11.0242 5.7318 11.6079 6.0845 12.2633C6.60245 12.3999 6.91937 12.3928 7.01954 12.2806C7.30933 11.9563 8.34037 11.8177 8.53275 12.0948C8.65143 12.2657 9.06861 12.3839 9.52477 12.2275L9.47391 12.2365C9.55315 12.2077 9.73874 12.1341 9.85313 12.0888C9.90094 12.0699 9.93632 12.0558 9.94628 12.0521C10.118 11.9873 10.2442 11.9533 10.3728 11.9437C10.5339 11.9317 10.6884 11.9617 10.8521 12.0397C11.2121 12.2111 11.6561 12.2909 11.9585 12.239C12.3282 11.5952 12.5918 11.0242 12.5918 11.0242L10.8365 9.3396L10.1388 10.0967L8.97966 8.44409L8.0092 10.0967L7.26506 9.3396L5.54102 11.0242ZM6.55578 13.0145C6.47475 12.9052 6.39817 12.7924 6.32619 12.6784C6.77545 12.7604 7.08051 12.7173 7.25022 12.5273C7.33038 12.4376 7.56822 12.3506 7.83882 12.3142C7.96499 12.2973 8.08602 12.293 8.17883 12.3019C8.22141 12.306 8.25573 12.3126 8.27883 12.3206C8.28631 12.3232 8.28608 12.3229 8.27831 12.3117L8.27689 12.3097C8.4838 12.6056 9.04558 12.7642 9.57563 12.5715L9.52477 12.5805C9.66813 12.5364 9.92632 12.4349 10.0191 12.3984L10.0191 12.3984L10.0514 12.3857C10.1986 12.3302 10.3 12.3029 10.3946 12.2958C10.5037 12.2877 10.6066 12.3077 10.7234 12.3633C11.0421 12.5151 11.4126 12.6054 11.7391 12.6077C11.6695 12.7203 11.5977 12.8322 11.5243 12.941C11.2705 12.9999 10.8778 12.9225 10.561 12.7495C10.4129 12.6686 10.2715 12.6372 10.1241 12.6497C10.0075 12.6597 9.89446 12.6946 9.74175 12.7607C9.73283 12.7645 9.70147 12.7788 9.65922 12.798C9.55934 12.8434 9.39865 12.9164 9.33024 12.945L9.38768 12.9334C8.99123 13.0863 8.64421 12.9736 8.54514 12.8099C8.36833 12.5179 7.44172 12.6608 7.18102 12.9954C7.11152 13.0846 6.90177 13.1009 6.55578 13.0145ZM6.90077 13.4234C6.92031 13.4435 6.94003 13.4633 6.95994 13.4827C7.86313 14.3633 8.97966 14.795 8.97966 14.795C8.97966 14.795 10.3095 14.3926 11.0643 13.5453C11.1287 13.473 11.1932 13.3947 11.2574 13.312C10.9822 13.2983 10.6796 13.2087 10.417 13.0653C10.3204 13.0126 10.2373 12.9941 10.1491 13.0016C10.0712 13.0082 9.98574 13.0346 9.86039 13.0889C9.85701 13.0903 9.84881 13.094 9.83677 13.0995C9.76 13.134 9.5269 13.239 9.38768 13.2863L9.44511 13.2748C8.9779 13.4696 8.48184 13.3158 8.28836 13.024C8.27122 13.0173 8.24431 13.0113 8.21022 13.0076C8.1326 12.9991 8.03009 13.0032 7.92294 13.0197C7.69334 13.0551 7.49283 13.1392 7.42652 13.2243C7.31504 13.3674 7.14022 13.4306 6.90077 13.4234Z" fill="white"/>
<path fill-rule="evenodd" clip-rule="evenodd" d="M7.14648 5.88629H6.44336L6.9887 5.3754L6.44336 4.83555H7.14648L7.44336 4.31152L7.74143 4.83555H8.44336L7.92529 5.34298L8.3853 5.88629H7.74143L7.44336 6.43928L7.14648 5.88629Z" fill="#FECA00"/>
<path fill-rule="evenodd" clip-rule="evenodd" d="M10.4609 5.88629H9.75781L10.3032 5.3754L9.75781 4.83555H10.4609L10.7578 4.31152L11.0559 4.83555H11.7578L11.2397 5.34298L11.6998 5.88629H11.0559L10.7578 6.43928L10.4609 5.88629Z" fill="#FECA00"/>
<path fill-rule="evenodd" clip-rule="evenodd" d="M8.59961 7.56756H7.89648L8.44182 7.05668L7.89648 6.51682H8.59961L8.89648 5.9928L9.19456 6.51682H9.89648L9.37841 7.02425L9.83843 7.56756H9.19456L8.89648 8.12056L8.59961 7.56756Z" fill="#FECA00"/>
</g>
</g>
<rect width="32" height="24" fill="url(#paint0_linear_230_23604)" style="mix-blend-mode:overlay"/>
</g>
<rect x="0.5" y="0.5" width="31" height="23" rx="1.5" stroke="black" stroke-opacity="0.1"/>
<defs>
<linearGradient id="paint0_linear_230_23604" x1="16" y1="0" x2="16" y2="24" gradientUnits="userSpaceOnUse">
<stop stop-color="white" stop-opacity="0.7"/>
<stop offset="1" stop-opacity="0.3"/>
</linearGradient>
<clipPath id="clip0_230_23604">
<rect width="32" height="24" rx="2" fill="white"/>
</clipPath>
</defs>
</svg>
