<svg width="32" height="24" viewBox="0 0 32 24" fill="none" xmlns="http://www.w3.org/2000/svg">
<g clip-path="url(#clip0_230_22904)">
<mask id="mask0_230_22904" style="mask-type:luminance" maskUnits="userSpaceOnUse" x="0" y="0" width="32" height="24">
<rect width="32" height="24" fill="white"/>
</mask>
<g mask="url(#mask0_230_22904)">
<path fill-rule="evenodd" clip-rule="evenodd" d="M0 0V24H32V0H0Z" fill="#E31D1C"/>
<mask id="mask1_230_22904" style="mask-type:luminance" maskUnits="userSpaceOnUse" x="0" y="0" width="32" height="24">
<path fill-rule="evenodd" clip-rule="evenodd" d="M0 0V24H32V0H0Z" fill="white"/>
</mask>
<g mask="url(#mask1_230_22904)">
<path fill-rule="evenodd" clip-rule="evenodd" d="M16 20C20.4183 20 24 16.4183 24 12C24 7.58172 20.4183 4 16 4C11.5817 4 8 7.58172 8 12C8 16.4183 11.5817 20 16 20Z" fill="#F7FCFF"/>
<path fill-rule="evenodd" clip-rule="evenodd" d="M17.4025 17.6508C17.4025 17.6508 13.1861 16.5005 13.1861 11.9735C13.1861 7.4465 17.4025 6.19756 17.4025 6.19756C15.659 5.52276 10.5567 6.55814 10.5567 11.9735C10.5567 17.3888 15.8014 18.3641 17.4025 17.6508ZM17.1704 10.9884L15.0785 11.7527L17.3268 12.5386L17.4025 14.6435L18.7708 13.0083L21.0269 13.1684L19.4014 11.8422L20.3803 9.92714L18.4681 10.5708L17.1433 8.91487L17.1704 10.9884Z" fill="#E31D1C"/>
</g>
</g>
<rect width="32" height="24" fill="url(#paint0_linear_230_22904)" style="mix-blend-mode:overlay"/>
</g>
<rect x="0.5" y="0.5" width="31" height="23" rx="1.5" stroke="black" stroke-opacity="0.1"/>
<defs>
<linearGradient id="paint0_linear_230_22904" x1="16" y1="0" x2="16" y2="24" gradientUnits="userSpaceOnUse">
<stop stop-color="white" stop-opacity="0.7"/>
<stop offset="1" stop-opacity="0.3"/>
</linearGradient>
<clipPath id="clip0_230_22904">
<rect width="32" height="24" rx="2" fill="white"/>
</clipPath>
</defs>
</svg>
