<svg width="32" height="24" viewBox="0 0 32 24" fill="none" xmlns="http://www.w3.org/2000/svg">
<g clip-path="url(#clip0_230_25828)">
<mask id="mask0_230_25828" style="mask-type:luminance" maskUnits="userSpaceOnUse" x="0" y="0" width="32" height="24">
<rect width="32" height="24" fill="white"/>
</mask>
<g mask="url(#mask0_230_25828)">
<path fill-rule="evenodd" clip-rule="evenodd" d="M0 0V24H32V0H0Z" fill="#C51918"/>
<mask id="mask1_230_25828" style="mask-type:luminance" maskUnits="userSpaceOnUse" x="0" y="0" width="32" height="24">
<path fill-rule="evenodd" clip-rule="evenodd" d="M0 0V24H32V0H0Z" fill="white"/>
</mask>
<g mask="url(#mask1_230_25828)">
<path fill-rule="evenodd" clip-rule="evenodd" d="M15.9823 17.8668C16.0895 17.8668 16.196 17.864 16.3018 17.8585L16.9189 19.8262L17.0618 17.7705C17.2682 17.7331 17.471 17.6853 17.6695 17.6275L18.7274 19.4011L18.3884 17.3673C18.5795 17.2839 18.7655 17.1909 18.9455 17.0889L20.3884 18.5737L19.5849 16.6706C19.7508 16.5463 19.9099 16.4136 20.0617 16.2731L21.8122 17.3887L20.5877 15.7204C20.7202 15.562 20.8445 15.3967 20.9601 15.2251L22.9221 15.9099L21.3439 14.5677C21.436 14.3836 21.5188 14.1941 21.5916 13.9997L23.6583 14.2172L21.8113 13.2726C21.8578 13.073 21.894 12.8695 21.9196 12.6628L23.981 12.4016L21.9643 11.9049C21.9633 11.696 21.9514 11.4896 21.9292 11.2863L23.8729 10.5612L21.7983 10.5393C21.749 10.3364 21.6893 10.1377 21.6196 9.94358L23.3399 8.79511L21.318 9.24787C21.2228 9.06229 21.1181 8.88234 21.0046 8.70865L22.4105 7.19855L20.5494 8.10113C20.4139 7.94245 20.2702 7.79093 20.1189 7.64722L21.1351 5.8576L19.5359 7.15993C19.3673 7.03623 19.1919 6.92111 19.0104 6.81522L19.5822 4.84455L18.3311 6.47483C18.1382 6.39309 17.9402 6.32111 17.7376 6.25952L17.8356 4.21402L16.9979 6.08516C16.7919 6.05021 16.5822 6.02571 16.3696 6.01224L15.9895 4L15.6096 6.01133C15.3966 6.02432 15.1866 6.04836 14.9802 6.0829L14.1434 4.21402L14.2413 6.25522C14.0375 6.3166 13.8384 6.38848 13.6445 6.47022L12.3969 4.84455L12.9666 6.80805C12.7834 6.91432 12.6064 7.02999 12.4363 7.15437L10.844 5.8576L11.8551 7.63834C11.702 7.7832 11.5565 7.93604 11.4195 8.09619L9.56851 7.19855L10.966 8.69956C10.8507 8.87516 10.7446 9.05718 10.6482 9.24498L8.63919 8.79511L10.3478 9.93582C10.2769 10.1324 10.2162 10.3338 10.1663 10.5394L8.10612 10.5612L10.036 11.2811C10.0133 11.4873 10.0012 11.6966 10.0004 11.9085L7.99805 12.4016L10.0448 12.6609C10.0707 12.8706 10.1075 13.0768 10.1548 13.2791L8.3208 14.2172L10.3736 14.0012C10.4474 14.198 10.5314 14.39 10.6251 14.5763L9.05697 15.9099L11.0072 15.2292C11.1243 15.4026 11.2503 15.5697 11.3847 15.7296L10.1669 17.3887L11.9088 16.2786C12.0621 16.4201 12.223 16.5537 12.3907 16.6788L11.5907 18.5737L13.0284 17.0941C13.2098 17.1965 13.3971 17.2897 13.5897 17.3732L13.2516 19.4011L14.3075 17.6311C14.5067 17.6886 14.7102 17.7361 14.9175 17.7731L15.0602 19.8262L15.677 17.8592C15.7782 17.8643 15.8799 17.8668 15.9823 17.8668ZM20.4823 11.9157C20.4823 14.4005 18.4515 16.4148 15.9463 16.4148C13.4411 16.4148 11.4103 14.4005 11.4103 11.9157C11.4103 9.43088 13.4411 7.41654 15.9463 7.41654C18.4515 7.41654 20.4823 9.43088 20.4823 11.9157ZM19.1105 13.3813C19.2997 12.9558 19.4049 12.4846 19.4049 11.9888C19.4049 11.5045 19.3045 11.0437 19.1234 10.6259C18.3407 10.6816 17.6771 10.8876 17.1388 11.1513C18.3336 11.6739 18.8741 12.5342 19.1105 13.3813ZM18.7249 14.0389C18.6272 14.1698 18.5203 14.2935 18.4052 14.409C18.3413 13.2285 17.8363 12.3283 16.9306 11.3571C18.0519 11.8943 18.6844 13.1784 18.7249 14.0389ZM17.8667 14.85C17.8033 14.892 17.7384 14.932 17.6722 14.9697C17.403 13.6432 16.8933 12.5965 16.1837 11.76L16.3557 11.6304C16.3786 11.6131 16.4019 11.5959 16.4256 11.5787C17.3335 12.6228 17.9062 13.5186 17.8667 14.85ZM15.9757 15.4181C16.3781 15.4181 16.7644 15.3488 17.1231 15.2214C16.8625 13.9592 16.4084 12.7836 15.7512 11.9353C14.9658 12.8702 14.5662 13.9267 14.5515 15.1093C14.9853 15.3076 15.4676 15.4181 15.9757 15.4181ZM15.3156 11.529C15.343 11.5504 15.3691 11.5717 15.3939 11.5929C14.5574 12.5443 14.0998 13.6172 14.0219 14.8074C13.9191 14.736 13.8204 14.6592 13.7263 14.5773C14.0415 13.3189 14.5641 12.2807 15.3156 11.529ZM12.8181 10.6491C13.6041 10.7376 14.2246 10.9287 14.6895 11.15C13.5044 11.6536 13.0377 12.4649 12.8029 13.2924C12.6376 12.8906 12.5465 12.4504 12.5465 11.9888C12.5465 11.5135 12.6432 11.0607 12.8181 10.6491ZM13.2484 14.068C13.222 14.0334 13.1963 13.9983 13.1712 13.9628C13.2305 13.0938 13.7839 11.8607 14.9018 11.3523C14.1519 12.0801 13.5908 12.9085 13.2484 14.068ZM13.5022 9.61372C14.1262 8.96401 15.0037 8.55962 15.9757 8.55962C16.9325 8.55962 17.7978 8.95149 18.4199 9.58351C17.441 9.69703 16.611 9.94244 15.937 10.3242C15.3361 9.97946 14.5239 9.74642 13.5022 9.61372Z" fill="#FFDC17"/>
</g>
</g>
<rect width="32" height="24" fill="url(#paint0_linear_230_25828)" style="mix-blend-mode:overlay"/>
</g>
<rect x="0.5" y="0.5" width="31" height="23" rx="1.5" stroke="black" stroke-opacity="0.1"/>
<defs>
<linearGradient id="paint0_linear_230_25828" x1="16" y1="0" x2="16" y2="24" gradientUnits="userSpaceOnUse">
<stop stop-color="white" stop-opacity="0.7"/>
<stop offset="1" stop-opacity="0.3"/>
</linearGradient>
<clipPath id="clip0_230_25828">
<rect width="32" height="24" rx="2" fill="white"/>
</clipPath>
</defs>
</svg>
