<svg width="32" height="24" viewBox="0 0 32 24" fill="none" xmlns="http://www.w3.org/2000/svg">
<g clip-path="url(#clip0_230_25622)">
<mask id="mask0_230_25622" style="mask-type:luminance" maskUnits="userSpaceOnUse" x="0" y="0" width="32" height="24">
<rect width="32" height="24" fill="white"/>
</mask>
<g mask="url(#mask0_230_25622)">
<path fill-rule="evenodd" clip-rule="evenodd" d="M0 0V24H32V0H0Z" fill="#E31D1C"/>
<mask id="mask1_230_25622" style="mask-type:luminance" maskUnits="userSpaceOnUse" x="0" y="0" width="32" height="24">
<path fill-rule="evenodd" clip-rule="evenodd" d="M0 0V24H32V0H0Z" fill="white"/>
</mask>
<g mask="url(#mask1_230_25622)">
<path fill-rule="evenodd" clip-rule="evenodd" d="M16.0087 9.96085C16.0254 9.96235 16.042 9.96398 16.0585 9.96572C16.1156 9.76972 16.2168 9.44831 16.3466 9.14436C16.5524 8.6623 17.147 8.39169 17.147 8.39169C17.147 8.39169 16.8532 8.72311 16.776 9.24836C16.7288 9.56923 16.7122 9.89544 16.7064 10.1007L16.7478 10.1141C16.8513 9.93702 17.0244 9.65537 17.2202 9.39668C17.5366 8.97873 18.1789 8.86001 18.1789 8.86001C18.1789 8.86001 17.8137 9.1105 17.6117 9.60147C17.4944 9.8865 17.4028 10.1829 17.3465 10.3814C17.3671 10.3932 17.3876 10.4052 17.4079 10.4174C17.5501 10.2677 17.7718 10.0448 18.0088 9.84678C18.411 9.5107 19.0637 9.53953 19.0637 9.53953C19.0637 9.53953 18.6514 9.70143 18.3441 10.1344C18.1756 10.3719 18.027 10.6245 17.9272 10.8041C17.9491 10.8241 17.9708 10.8443 17.9922 10.8649C18.1643 10.7521 18.4141 10.5971 18.6721 10.4663C19.1396 10.2293 19.7691 10.4042 19.7691 10.4042C19.7691 10.4042 19.3309 10.4692 18.9342 10.822C18.7314 11.0023 18.5426 11.1992 18.4064 11.3486C18.4252 11.3754 18.4436 11.4026 18.4616 11.43C18.6534 11.3641 18.9154 11.2815 19.1792 11.2211C19.6901 11.1043 20.2586 11.4263 20.2586 11.4263C20.2586 11.4263 19.8177 11.3834 19.3474 11.6297C19.1277 11.7447 18.9159 11.8761 18.7526 11.9834C18.7696 12.025 18.7857 12.0671 18.801 12.1095C18.9962 12.0903 19.2464 12.0723 19.4939 12.0728C20.0181 12.0739 20.4995 12.5155 20.4995 12.5155C20.4995 12.5155 20.0796 12.3745 19.5659 12.5087C19.3454 12.5663 19.1283 12.6388 18.9524 12.7028C18.9605 12.755 18.9674 12.8077 18.973 12.8606C19.1585 12.8858 19.384 12.9225 19.6038 12.9738C20.1143 13.0928 20.4841 13.6313 20.4841 13.6313C20.4841 13.6313 20.1067 13.3995 19.576 13.4147C19.3668 13.4207 19.1576 13.4396 18.981 13.4603C18.9765 13.5179 18.9704 13.5751 18.9629 13.6319C19.1284 13.6988 19.3216 13.7829 19.5071 13.8779C19.9736 14.1169 20.2021 14.7289 20.2021 14.7289C20.2021 14.7289 19.8919 14.4127 19.3734 14.299C19.1871 14.2582 18.9983 14.2278 18.8328 14.2056C18.8117 14.2703 18.7886 14.3342 18.7636 14.3971C18.9008 14.4943 19.0549 14.6098 19.2007 14.7327C19.6015 15.0704 19.6865 15.7182 19.6865 15.7182C19.6865 15.7182 19.4555 15.3403 18.9757 15.1129C18.8155 15.0369 18.6511 14.9693 18.5032 14.9128C18.4642 14.9754 18.4232 15.0365 18.3802 15.0962C18.4853 15.2154 18.5998 15.3522 18.7058 15.4935C19.0204 15.9128 18.9574 16.563 18.9574 16.563C18.9574 16.563 18.8173 16.1428 18.4011 15.8134C18.27 15.7096 18.1336 15.6122 18.0083 15.5274C17.9543 15.58 17.8985 15.6308 17.8409 15.6796C17.9111 15.8158 17.985 15.9688 18.0505 16.1239C18.2543 16.6069 18.0359 17.2226 18.0359 17.2226C18.0359 17.2226 18.0016 16.781 17.6774 16.3606C17.5807 16.2352 17.4781 16.1142 17.3816 16.0061C17.3118 16.0472 17.2403 16.0858 17.1673 16.1218C17.2033 16.2651 17.2388 16.4233 17.2664 16.5818C17.3563 17.0982 17.005 17.649 17.005 17.649C17.005 17.649 17.071 17.211 16.8497 16.7284C16.7852 16.5879 16.7143 16.4502 16.6462 16.3256C16.5671 16.3489 16.4868 16.3694 16.4053 16.3869C16.4079 16.5316 16.4068 16.6898 16.3982 16.8465C16.3697 17.3699 15.9035 17.8275 15.9035 17.8275C15.9035 17.8275 16.0663 17.4156 15.9592 16.8956C15.928 16.7443 15.8899 16.5942 15.8515 16.4574C15.8039 16.4595 15.7559 16.4605 15.7077 16.4605C15.6751 16.4605 15.6426 16.46 15.6102 16.4591C15.5775 16.6015 15.5377 16.7565 15.491 16.9082C15.3367 17.4091 14.7736 17.7404 14.7736 17.7404C14.7736 17.7404 15.0312 17.3801 15.0531 16.8497C15.0595 16.6944 15.0588 16.5387 15.0546 16.3961C14.9739 16.3799 14.8942 16.3608 14.8158 16.3389C14.7513 16.4718 14.6768 16.6158 14.596 16.755C14.333 17.2083 13.7099 17.4045 13.7099 17.4045C13.7099 17.4045 14.0419 17.1113 14.1825 16.5994C14.2253 16.4438 14.2607 16.286 14.2892 16.1417C14.2174 16.1075 14.147 16.0708 14.0782 16.0317C13.9831 16.15 13.8746 16.2782 13.7608 16.3997C13.4025 16.7823 12.7512 16.8332 12.7512 16.8332C12.7512 16.8332 13.1407 16.6223 13.3929 16.1551C13.4741 16.0048 13.5477 15.8501 13.6104 15.7096C13.5543 15.6633 13.4997 15.6152 13.4469 15.5654C13.3202 15.6623 13.1752 15.7674 13.0262 15.8638C12.586 16.1483 11.9417 16.0402 11.9417 16.0402C11.9417 16.0402 12.3706 15.9297 12.7284 15.5374C12.8505 15.4035 12.9656 15.2629 13.0643 15.1358C13.0223 15.0793 12.9821 15.0215 12.9438 14.9624C12.7921 15.032 12.6167 15.1069 12.4391 15.1711C11.9462 15.3493 11.3428 15.099 11.3428 15.099C11.3428 15.099 11.7855 15.0879 12.2223 14.7862C12.384 14.6744 12.5395 14.5532 12.6712 14.4448C12.6466 14.3856 12.6237 14.3256 12.6026 14.2647C12.4309 14.3009 12.2292 14.3378 12.0277 14.3621C11.5073 14.4249 10.9756 14.0452 10.9756 14.0452C10.9756 14.0452 11.4096 14.134 11.903 13.9382C12.1031 13.8589 12.2985 13.7667 12.4601 13.6851C12.4522 13.6324 12.4456 13.5792 12.4403 13.5256C12.2547 13.5199 12.03 13.5069 11.8094 13.4793C11.2892 13.4144 10.8652 12.9174 10.8652 12.9174C10.8652 12.9174 11.2648 13.1085 11.791 13.0379C12.0225 13.0069 12.2523 12.9598 12.4371 12.9169C12.4414 12.8676 12.4468 12.8186 12.4534 12.77C12.2658 12.7215 12.0311 12.6543 11.8049 12.5714C11.3127 12.3911 11.0114 11.8115 11.0114 11.8115C11.0114 11.8115 11.3577 12.0875 11.8863 12.1371C12.1407 12.161 12.3974 12.1658 12.5953 12.1643C12.6087 12.125 12.6227 12.0861 12.6375 12.0475C12.4594 11.956 12.2277 11.8294 12.0097 11.6872C11.5707 11.4008 11.4075 10.7682 11.4075 10.7682C11.4075 10.7682 11.6829 11.1151 12.1867 11.2824C12.451 11.3701 12.7231 11.4363 12.9221 11.4795C12.9378 11.4546 12.9538 11.4299 12.9702 11.4054C12.8152 11.2713 12.6024 11.0779 12.4099 10.8706C12.0533 10.4865 12.0479 9.83325 12.0479 9.83325C12.0479 9.83325 12.2311 10.2365 12.6796 10.5207C12.9302 10.6794 13.1952 10.8167 13.3804 10.9069C13.3995 10.8878 13.4189 10.869 13.4385 10.8504C13.316 10.6842 13.1401 10.4333 12.9901 10.1722C12.729 9.71771 12.8707 9.07999 12.8707 9.07999C12.8707 9.07999 12.9586 9.51411 13.3316 9.89187C13.5528 10.1159 13.7954 10.32 13.9562 10.449C13.9745 10.4375 13.9929 10.4262 14.0114 10.4151C13.929 10.2262 13.8071 9.92866 13.7154 9.62652C13.5632 9.12494 13.8448 8.53544 13.8448 8.53544C13.8448 8.53544 13.8327 8.9782 14.1112 9.43019C14.2834 9.70965 14.483 9.97321 14.6104 10.1337C14.6228 10.1293 14.6352 10.125 14.6477 10.1208C14.6131 9.91945 14.5634 9.58728 14.5468 9.25824C14.5205 8.73474 14.9363 8.23087 14.9363 8.23087C14.9363 8.23087 14.8175 8.65756 14.9784 9.16349C15.0789 9.47966 15.2106 9.78685 15.2952 9.97281C15.3115 9.97079 15.3277 9.9689 15.344 9.96711C15.3553 9.76391 15.3816 9.42465 15.4402 9.09617C15.5323 8.58016 16.0508 8.18274 16.0508 8.18274C16.0508 8.18274 15.8391 8.57176 15.882 9.10092C15.9088 9.43164 15.9681 9.76062 16.0087 9.96085Z" fill="#FFC84A"/>
<path fill-rule="evenodd" clip-rule="evenodd" d="M-0.791889 13.9201L1.82296 12.8589C2.20411 12.7042 2.63088 12.7061 3.01065 12.8641L6.6414 14.3751C7.0522 14.546 7.5164 14.5337 7.91755 14.3412L10.8462 12.9357C11.2662 12.7341 11.7543 12.7306 12.1772 12.926L15.2447 14.343C15.6579 14.5339 16.1339 14.5351 16.5481 14.3462L19.6868 12.9148C20.1009 12.726 20.5766 12.7271 20.9898 12.9179L24.0887 14.3485C24.4954 14.5362 24.9631 14.5404 25.373 14.3598L28.7591 12.8689C29.1257 12.7074 29.5403 12.693 29.9173 12.8285L32.9531 13.9201V23.9337H-0.880859L-0.791889 13.9201Z" fill="#F7FCFF"/>
<mask id="mask2_230_25622" style="mask-type:luminance" maskUnits="userSpaceOnUse" x="-1" y="12" width="34" height="12">
<path fill-rule="evenodd" clip-rule="evenodd" d="M-0.791889 13.9201L1.82296 12.8589C2.20411 12.7042 2.63088 12.7061 3.01065 12.8641L6.6414 14.3751C7.0522 14.546 7.5164 14.5337 7.91755 14.3412L10.8462 12.9357C11.2662 12.7341 11.7543 12.7306 12.1772 12.926L15.2447 14.343C15.6579 14.5339 16.1339 14.5351 16.5481 14.3462L19.6868 12.9148C20.1009 12.726 20.5766 12.7271 20.9898 12.9179L24.0887 14.3485C24.4954 14.5362 24.9631 14.5404 25.373 14.3598L28.7591 12.8689C29.1257 12.7074 29.5403 12.693 29.9173 12.8285L32.9531 13.9201V23.9337H-0.880859L-0.791889 13.9201Z" fill="white"/>
</mask>
<g mask="url(#mask2_230_25622)">
<path d="M-0.791016 16.2457L1.82383 15.1845C2.20498 15.0298 2.63176 15.0317 3.01153 15.1897L6.64228 16.7007C7.05307 16.8716 7.51727 16.8593 7.91842 16.6668L10.847 15.2613C11.2671 15.0598 11.7552 15.0562 12.1781 15.2516L15.2456 16.6686C15.6588 16.8595 16.1348 16.8607 16.5489 16.6718L19.6877 15.2405C20.1017 15.0516 20.5775 15.0528 20.9907 15.2435L24.0895 16.6741C24.4962 16.8618 24.964 16.866 25.3739 16.6855L28.76 15.1945C29.1266 15.0331 29.5412 15.0186 29.9181 15.1541L32.9539 16.2457" stroke="#015989" stroke-width="2"/>
<path d="M-0.791016 19.5747L1.82383 18.5135C2.20498 18.3588 2.63176 18.3607 3.01153 18.5187L6.64228 20.0296C7.05307 20.2006 7.51727 20.1883 7.91842 19.9958L10.847 18.5903C11.2671 18.3887 11.7552 18.3852 12.1781 18.5805L15.2456 19.9976C15.6588 20.1885 16.1348 20.1897 16.5489 20.0008L19.6877 18.5694C20.1017 18.3806 20.5775 18.3817 20.9907 18.5725L24.0895 20.0031C24.4962 20.1908 24.964 20.195 25.3739 20.0144L28.76 18.5235C29.1266 18.362 29.5412 18.3476 29.9181 18.4831L32.9539 19.5747" stroke="#015989" stroke-width="2"/>
<path fill-rule="evenodd" clip-rule="evenodd" d="M-0.791016 22.2272L0.30065 21.7842C1.65765 21.2335 3.1771 21.2402 4.52919 21.8029L6.64228 22.6822C7.05307 22.8532 7.51727 22.8409 7.91842 22.6483L9.14893 22.0578C10.6444 21.3401 12.3821 21.3274 13.888 22.023L15.2456 22.6502C15.6588 22.8411 16.1348 22.8423 16.5489 22.6534L18.0179 21.9835C19.492 21.3113 21.186 21.3152 22.6569 21.9943L24.0895 22.6556C24.4962 22.8434 24.964 22.8475 25.3739 22.667L27.298 21.8198C28.6032 21.2451 30.0793 21.1937 31.4213 21.6762L32.9539 22.2272V25.5421H-0.607399L-0.791016 22.2272Z" fill="#015989"/>
</g>
<path fill-rule="evenodd" clip-rule="evenodd" d="M9.7793 3.41838C9.7793 3.41838 11.1712 3.41838 11.6398 3.41838C12.1084 3.41838 13.1656 2.70185 13.7771 2.9407C14.3886 3.17954 15.418 3.95065 15.418 3.95065C15.418 3.95065 17.1174 2.60913 18.1311 2.60913C19.1448 2.60913 20.9732 2.45996 20.9732 2.45996C20.9732 2.45996 20.5442 3.57343 19.3377 3.76204C18.1311 3.95065 16.6876 4.87437 16.6876 4.87437C16.6876 4.87437 18.3496 4.87437 18.6486 4.87437C18.9475 4.87437 19.3377 5.32516 19.3377 5.32516C19.3377 5.32516 18.5328 5.87201 18.1311 5.87201C17.7294 5.87201 17.2856 5.87201 17.2856 5.87201C17.2856 5.87201 16.4314 6.60498 15.3762 6.44902C14.321 6.29307 13.4744 5.32516 13.4744 5.32516C13.4744 5.32516 12.5512 5.19283 12.5512 5.0336C12.5512 5.0336 12.442 4.98338 12.3916 4.98475C12.1012 4.99267 11.9076 5.04485 11.8111 5.0336C12.342 4.82644 12.5512 4.64316 12.5512 4.64316C12.5512 4.64316 12.9166 4.30041 13.1955 4.30041C13.4744 4.30041 14.4058 4.87437 14.4058 4.87437L14.6282 4.64316L13.4744 3.76204C11.121 4.00862 9.7793 3.41838 9.7793 3.41838Z" fill="#FFC84A"/>
</g>
</g>
<rect width="32" height="24" fill="url(#paint0_linear_230_25622)" style="mix-blend-mode:overlay"/>
</g>
<rect x="0.5" y="0.5" width="31" height="23" rx="1.5" stroke="black" stroke-opacity="0.1"/>
<defs>
<linearGradient id="paint0_linear_230_25622" x1="16" y1="0" x2="16" y2="24" gradientUnits="userSpaceOnUse">
<stop stop-color="white" stop-opacity="0.7"/>
<stop offset="1" stop-opacity="0.3"/>
</linearGradient>
<clipPath id="clip0_230_25622">
<rect width="32" height="24" rx="2" fill="white"/>
</clipPath>
</defs>
</svg>
