<svg width="32" height="24" viewBox="0 0 32 24" fill="none" xmlns="http://www.w3.org/2000/svg">
<g clip-path="url(#clip0_230_22915)">
<mask id="mask0_230_22915" style="mask-type:luminance" maskUnits="userSpaceOnUse" x="0" y="0" width="32" height="24">
<rect width="32" height="24" fill="white"/>
</mask>
<g mask="url(#mask0_230_22915)">
<path fill-rule="evenodd" clip-rule="evenodd" d="M0 0V24H32V0H0Z" fill="#29C470"/>
<mask id="mask1_230_22915" style="mask-type:luminance" maskUnits="userSpaceOnUse" x="0" y="0" width="32" height="24">
<path fill-rule="evenodd" clip-rule="evenodd" d="M0 0V24H32V0H0Z" fill="white"/>
</mask>
<g mask="url(#mask1_230_22915)">
<rect x="2" y="-0.322876" width="10" height="26.3229" fill="#C51918"/>
<mask id="mask2_230_22915" style="mask-type:luminance" maskUnits="userSpaceOnUse" x="2" y="-1" width="10" height="27">
<rect x="2" y="-0.322876" width="10" height="26.3229" fill="white"/>
</mask>
<g mask="url(#mask2_230_22915)">
<path fill-rule="evenodd" clip-rule="evenodd" d="M2.59535 0.905626L2.04927 1.60734L2 1.55863L2.52982 0.87782V0.741155L2.53182 0.728459L2.59342 0.538775L2.55572 0.472698L2.24326 0.785112L2.84555 -0.152898V0.167626L2.96114 0.271955L3.23721 -0.210907L2.96021 -0.675624L2.76029 -0.521986L2.84136 -0.359119L2.78561 -0.32041L2.33431 -1.07543L2.62183 -0.878831L2.67248 -0.952274L2.39696 -1.23292L2.51883 -1.36713L2.11613 -1.95485L2.168 -2L2.60635 -1.36025L2.49264 -1.23502L2.76156 -0.961092L2.63775 -0.781553L2.55528 -0.837937L2.71261 -0.574742L2.9778 -0.77855L3.31566 -0.211753L2.97687 0.38079L2.78002 0.203106V0.0751505L2.58241 0.382915L2.66615 0.529695L2.59535 0.747702V0.905626ZM2.04927 6.63024L2.59535 5.92852V5.7706L2.66615 5.55259L2.58241 5.40581L2.78002 5.09804V5.226L2.97687 5.40368L3.31566 4.81114L2.9778 4.24434L2.71261 4.44815L2.55528 4.18496L2.63775 4.24134L2.76156 4.0618L2.49264 3.78787L2.60635 3.66265L2.168 3.02289L2.11613 3.06804L2.51883 3.65576L2.39696 3.78997L2.67248 4.07062L2.62183 4.14406L2.33431 3.94746L2.78561 4.70248L2.84136 4.66377L2.76029 4.50091L2.96021 4.34727L3.23721 4.81199L2.96114 5.29485L2.84555 5.19052V4.87L2.24326 5.80801L2.55572 5.49559L2.59342 5.56167L2.53182 5.75135L2.52982 5.76405V5.90071L2 6.58153L2.04927 6.63024ZM2.59535 10.5082L2.04927 11.2099L2 11.1612L2.52982 10.4804V10.3437L2.53182 10.3311L2.59342 10.1414L2.55572 10.0753L2.24326 10.3877L2.84555 9.44969V9.77022L2.96114 9.87455L3.23721 9.39168L2.96021 8.92697L2.76029 9.08061L2.84136 9.24347L2.78561 9.28218L2.33431 8.52716L2.62183 8.72376L2.67248 8.65032L2.39696 8.36967L2.51883 8.23546L2.11613 7.64774L2.168 7.60259L2.60635 8.24235L2.49264 8.36757L2.76156 8.6415L2.63775 8.82104L2.55528 8.76465L2.71261 9.02785L2.9778 8.82404L3.31566 9.39084L2.97687 9.98338L2.78002 9.8057V9.67774L2.58241 9.98551L2.66615 10.1323L2.59535 10.3503V10.5082ZM2.04927 15.8635L2.59535 15.1618V15.0039L2.66615 14.7859L2.58241 14.6391L2.78002 14.3313V14.4593L2.97687 14.6369L3.31566 14.0444L2.9778 13.4776L2.71261 13.6814L2.55528 13.4182L2.63775 13.4746L2.76156 13.2951L2.49264 13.0211L2.60635 12.8959L2.168 12.2562L2.11613 12.3013L2.51883 12.889L2.39696 13.0232L2.67248 13.3039L2.62183 13.3773L2.33431 13.1807L2.78561 13.9357L2.84136 13.897L2.76029 13.7342L2.96021 13.5805L3.23721 14.0452L2.96114 14.5281L2.84555 14.4238V14.1033L2.24326 15.0413L2.55572 14.7289L2.59342 14.7949L2.53182 14.9846L2.52982 14.9973V15.134L2 15.8148L2.04927 15.8635ZM2.04927 20L2.59535 19.2983V19.1404L2.66615 18.9224L2.58241 18.7756L2.78002 18.4678V18.5958L2.97687 18.7734L3.31566 18.1809L2.9778 17.6141L2.71261 17.8179L2.55528 17.5547L2.63775 17.6111L2.76156 17.4316L2.49264 17.1576L2.60635 17.0324L2.168 16.3927L2.11613 16.4378L2.51883 17.0255L2.39696 17.1597L2.67248 17.4404L2.62183 17.5138L2.33431 17.3172L2.78561 18.0722L2.84136 18.0335L2.76029 17.8707L2.96021 17.717L3.23721 18.1817L2.96114 18.6646L2.84555 18.5603V18.2398L2.24326 19.1778L2.55572 18.8654L2.59342 18.9314L2.53182 19.1211L2.52982 19.1338V19.2705L2 19.9513L2.04927 20ZM11.9507 20L11.4046 19.2983V19.1404L11.3338 18.9224L11.4176 18.7756L11.22 18.4678V18.5958L11.0231 18.7734L10.6843 18.1809L11.0222 17.6141L11.2874 17.8179L11.4447 17.5547L11.3623 17.6111L11.2384 17.4316L11.5074 17.1576L11.3937 17.0324L11.832 16.3927L11.8839 16.4378L11.4812 17.0255L11.603 17.1597L11.3275 17.4404L11.3782 17.5138L11.6657 17.3172L11.2144 18.0722L11.1586 18.0335L11.2397 17.8707L11.0398 17.717L10.7628 18.1817L11.0389 18.6646L11.1544 18.5603V18.2398L11.7567 19.1778L11.4443 18.8654L11.4066 18.9314L11.4682 19.1211L11.4702 19.1338V19.2705L12 19.9513L11.9507 20ZM11.4046 15.1618L11.9507 15.8635L12 15.8148L11.4702 15.134V14.9973L11.4682 14.9846L11.4066 14.7949L11.4443 14.7289L11.7567 15.0413L11.1544 14.1033V14.4238L11.0389 14.5281L10.7628 14.0452L11.0398 13.5805L11.2397 13.7342L11.1586 13.897L11.2144 13.9357L11.6657 13.1807L11.3782 13.3773L11.3275 13.3039L11.603 13.0232L11.4812 12.889L11.8839 12.3013L11.832 12.2562L11.3937 12.8959L11.5074 13.0211L11.2384 13.2951L11.3623 13.4746L11.4447 13.4182L11.2874 13.6814L11.0222 13.4776L10.6843 14.0444L11.0231 14.6369L11.22 14.4593V14.3313L11.4176 14.6391L11.3338 14.7859L11.4046 15.0039V15.1618ZM11.9507 11.2099L11.4046 10.5082V10.3503L11.3338 10.1323L11.4176 9.98551L11.22 9.67774V9.8057L11.0231 9.98338L10.6843 9.39084L11.0222 8.82404L11.2874 9.02785L11.4447 8.76465L11.3623 8.82104L11.2384 8.6415L11.5074 8.36757L11.3937 8.24235L11.832 7.60259L11.8839 7.64774L11.4812 8.23546L11.603 8.36967L11.3275 8.65032L11.3782 8.72376L11.6657 8.52716L11.2144 9.28218L11.1586 9.24347L11.2397 9.08061L11.0398 8.92697L10.7628 9.39168L11.0389 9.87455L11.1544 9.77022V9.44969L11.7567 10.3877L11.4443 10.0753L11.4066 10.1414L11.4682 10.3311L11.4702 10.3437V10.4804L12 11.1612L11.9507 11.2099ZM11.4046 5.92852L11.9507 6.63024L12 6.58153L11.4702 5.90071V5.76405L11.4682 5.75135L11.4066 5.56167L11.4443 5.49559L11.7567 5.80801L11.1544 4.87V5.19052L11.0389 5.29485L10.7628 4.81199L11.0398 4.34727L11.2397 4.50091L11.1586 4.66377L11.2144 4.70248L11.6657 3.94746L11.3782 4.14406L11.3275 4.07062L11.603 3.78997L11.4812 3.65576L11.8839 3.06804L11.832 3.02289L11.3937 3.66265L11.5074 3.78787L11.2384 4.0618L11.3623 4.24134L11.4447 4.18496L11.2874 4.44815L11.0222 4.24434L10.6843 4.81114L11.0231 5.40368L11.22 5.226V5.09804L11.4176 5.40581L11.3338 5.55259L11.4046 5.7706V5.92852ZM11.9507 1.60734L11.4046 0.905626V0.747702L11.3338 0.529695L11.4176 0.382915L11.22 0.0751505V0.203106L11.0231 0.38079L10.6843 -0.211753L11.0222 -0.77855L11.2874 -0.574742L11.4447 -0.837937L11.3623 -0.781553L11.2384 -0.961092L11.5074 -1.23502L11.3937 -1.36025L11.832 -2L11.8839 -1.95485L11.4812 -1.36713L11.603 -1.23292L11.3275 -0.952274L11.3782 -0.878831L11.6657 -1.07543L11.2144 -0.32041L11.1586 -0.359119L11.2397 -0.521986L11.0398 -0.675624L10.7628 -0.210907L11.0389 0.271955L11.1544 0.167626V-0.152898L11.7567 0.785112L11.4443 0.472698L11.4066 0.538775L11.4682 0.728459L11.4702 0.741155V0.87782L12 1.55863L11.9507 1.60734Z" fill="#E8AA00"/>
<path fill-rule="evenodd" clip-rule="evenodd" d="M7.30707 14.5647H8.86057V14.9293H9.21455V15.2209H9.63933V16.1688H9.21455V16.4605H8.86057V16.7522H7.34852L6.9302 17.1239L6.50988 16.7522H5.10836V16.4605H4.75437V16.1688H4.40039V15.2209H4.75437V14.9293H5.10836V14.5647H6.55153L6.9302 14.2297L7.30707 14.5647Z" fill="#389F5D"/>
<path d="M8.86057 14.5647H9.11057V14.3147H8.86057V14.5647ZM7.30707 14.5647L7.14099 14.7515L7.21203 14.8147H7.30707V14.5647ZM8.86057 14.9293H8.61057V15.1793H8.86057V14.9293ZM9.21455 14.9293H9.46455V14.6793H9.21455V14.9293ZM9.21455 15.2209H8.96455V15.4709H9.21455V15.2209ZM9.63933 15.2209H9.88933V14.9709H9.63933V15.2209ZM9.63933 16.1688V16.4188H9.88933V16.1688H9.63933ZM9.21455 16.1688V15.9188H8.96455V16.1688H9.21455ZM9.21455 16.4605V16.7105H9.46455V16.4605H9.21455ZM8.86057 16.4605V16.2105H8.61057V16.4605H8.86057ZM8.86057 16.7522V17.0022H9.11057V16.7522H8.86057ZM7.34852 16.7522V16.5022H7.25348L7.18244 16.5653L7.34852 16.7522ZM6.9302 17.1239L6.76456 17.3112L6.93059 17.4581L7.09627 17.3108L6.9302 17.1239ZM6.50988 16.7522L6.67552 16.5649L6.60458 16.5022H6.50988V16.7522ZM5.10836 16.7522H4.85836V17.0022H5.10836V16.7522ZM5.10836 16.4605H5.35836V16.2105H5.10836V16.4605ZM4.75437 16.4605H4.50437V16.7105H4.75437V16.4605ZM4.75437 16.1688H5.00437V15.9188H4.75437V16.1688ZM4.40039 16.1688H4.15039V16.4188H4.40039V16.1688ZM4.40039 15.2209V14.9709H4.15039V15.2209H4.40039ZM4.75437 15.2209V15.4709H5.00437V15.2209H4.75437ZM4.75437 14.9293V14.6793H4.50437V14.9293H4.75437ZM5.10836 14.9293V15.1793H5.35836V14.9293H5.10836ZM5.10836 14.5647V14.3147H4.85836V14.5647H5.10836ZM6.55153 14.5647V14.8147H6.64623L6.71716 14.7519L6.55153 14.5647ZM6.9302 14.2297L7.09627 14.0429L6.93059 13.8956L6.76456 14.0425L6.9302 14.2297ZM8.86057 14.3147H7.30707V14.8147H8.86057V14.3147ZM9.11057 14.9293V14.5647H8.61057V14.9293H9.11057ZM9.21455 14.6793H8.86057V15.1793H9.21455V14.6793ZM9.46455 15.2209V14.9293H8.96455V15.2209H9.46455ZM9.63933 14.9709H9.21455V15.4709H9.63933V14.9709ZM9.88933 16.1688V15.2209H9.38933V16.1688H9.88933ZM9.21455 16.4188H9.63933V15.9188H9.21455V16.4188ZM9.46455 16.4605V16.1688H8.96455V16.4605H9.46455ZM8.86057 16.7105H9.21455V16.2105H8.86057V16.7105ZM9.11057 16.7522V16.4605H8.61057V16.7522H9.11057ZM7.34852 17.0022H8.86057V16.5022H7.34852V17.0022ZM7.09627 17.3108L7.51459 16.939L7.18244 16.5653L6.76412 16.9371L7.09627 17.3108ZM6.34425 16.9394L6.76456 17.3112L7.09583 16.9367L6.67552 16.5649L6.34425 16.9394ZM5.10836 17.0022H6.50988V16.5022H5.10836V17.0022ZM4.85836 16.4605V16.7522H5.35836V16.4605H4.85836ZM4.75437 16.7105H5.10836V16.2105H4.75437V16.7105ZM4.50437 16.1688V16.4605H5.00437V16.1688H4.50437ZM4.40039 16.4188H4.75437V15.9188H4.40039V16.4188ZM4.15039 15.2209V16.1688H4.65039V15.2209H4.15039ZM4.75437 14.9709H4.40039V15.4709H4.75437V14.9709ZM4.50437 14.9293V15.2209H5.00437V14.9293H4.50437ZM5.10836 14.6793H4.75437V15.1793H5.10836V14.6793ZM4.85836 14.5647V14.9293H5.35836V14.5647H4.85836ZM6.55153 14.3147H5.10836V14.8147H6.55153V14.3147ZM6.71716 14.7519L7.09583 14.417L6.76456 14.0425L6.3859 14.3774L6.71716 14.7519ZM6.76412 14.4166L7.14099 14.7515L7.47314 14.3778L7.09627 14.0429L6.76412 14.4166Z" fill="#E8AA00"/>
<path fill-rule="evenodd" clip-rule="evenodd" d="M5.31641 15.4075V14.7633H6.06698L5.31641 15.4075ZM8.47406 15.4075V14.7633H7.72349L8.47406 15.4075ZM5.31641 16.5741V15.93L6.06698 16.5741H5.31641ZM8.47406 15.93V16.5741H7.72349L8.47406 15.93Z" fill="#C51918"/>
<path fill-rule="evenodd" clip-rule="evenodd" d="M6.64453 14.8187L6.90362 14.4794L7.15945 14.8187H6.64453ZM6.64453 15.1356L6.90362 15.4749L7.15945 15.1356H6.64453ZM6.90362 15.9377L6.64453 16.277H7.15945L6.90362 15.9377ZM6.64453 16.594L6.90362 16.9332L7.15945 16.594H6.64453Z" fill="#E8AA00"/>
<path fill-rule="evenodd" clip-rule="evenodd" d="M6.6507 14.7784V14.9243H6.50195V15.1243H6.6507V15.2701H7.16979V15.1243H7.31854V14.9243H7.16979V14.7784H6.6507ZM7.16979 16.3826V16.2368H6.6507V16.3826H6.50195V16.5826H6.6507V16.7284H7.16979V16.5826H7.31854V16.3826H7.16979Z" fill="#AF0100"/>
<path fill-rule="evenodd" clip-rule="evenodd" d="M5.6543 15.5494L5.90092 15.2086L6.14444 15.5494H5.6543ZM5.6543 15.8678L5.90092 16.2086L6.14444 15.8678H5.6543ZM7.95402 15.2086L7.70739 15.5494H8.19754L7.95402 15.2086ZM7.70739 15.8678L7.95402 16.2086L8.19754 15.8678H7.70739Z" fill="#AF0100"/>
<path fill-rule="evenodd" clip-rule="evenodd" d="M5.65331 15.5077V15.6564H5.51172V15.8604H5.65331V16.0092H6.14742V15.8604H6.28901V15.6564H6.14742V15.5077H5.65331ZM8.20052 15.6564V15.5077H7.70641V15.6564H7.56482V15.8604H7.70641V16.0092H8.20052V15.8604H8.34211V15.6564H8.20052Z" fill="#E8AA00"/>
<mask id="mask3_230_22915" style="mask-type:luminance" maskUnits="userSpaceOnUse" x="4" y="17" width="6" height="4">
<path fill-rule="evenodd" clip-rule="evenodd" d="M6.21688 17.251L4.44531 18.2499V19.9055L6.21688 20.9448H8.13567L9.94937 19.9055V18.2499L8.13567 17.251H6.21688Z" fill="white"/>
</mask>
<g mask="url(#mask3_230_22915)">
<path d="M4.4707 19.0959H7.23177V20.9189H4.4707V19.0959Z" fill="#E8AA00"/>
<rect x="4.1875" y="17.2729" width="3.04425" height="1.82292" fill="#F9E8E7"/>
<path d="M4.89453 18.3352L5.81105 17.7833V18.3352H4.89453Z" fill="#E8AA00"/>
<rect width="3.04425" height="1.82292" transform="matrix(-1 0 0 1 10.2754 17.2729)" fill="#E8AA00"/>
<path d="M9.35547 18.3352L8.43895 17.7833V18.3352H9.35547Z" fill="#F9E8E7"/>
<rect x="9.99219" y="20.9188" width="2.76106" height="1.82292" transform="rotate(180 9.99219 20.9188)" fill="#F9E8E7"/>
<path d="M9.28516 19.8565L8.36864 20.4084V19.8565H9.28516Z" fill="#E8AA00"/>
<path d="M4.89453 19.7413L5.81105 20.2932V19.7413H4.89453Z" fill="#FCFCFC"/>
</g>
<path fill-rule="evenodd" clip-rule="evenodd" d="M6.24023 18.3668H6.70041L7.16059 18.2209L7.62077 18.3668H8.08094V19.7522H7.62077L7.16059 19.9709L6.70041 19.7522H6.24023V18.3668Z" fill="#C51918"/>
<path fill-rule="evenodd" clip-rule="evenodd" d="M7.79817 17.5377H8.04817V17.8198H8.15062V18.0198H8.04817V18.1275H7.79817V17.5377ZM5.28711 18.4127H5.03711V19.0025H5.28711V18.8948H5.38955V18.6948H5.28711V18.4127ZM5.64109 18.4127H5.39109V19.0025H5.64109V18.4127ZM5.28711 19.1419H5.03711V19.7316H5.28711V19.624H5.38955V19.424H5.28711V19.1419ZM5.39109 19.1419H5.64109V19.7316H5.39109V19.1419ZM8.93091 18.4127H9.18091V18.6948H9.28336V18.8948H9.18091V19.0025H8.93091V18.4127ZM9.5349 18.4127H9.2849V19.0025H9.5349V18.4127ZM9.18091 19.1419H8.93091V19.7316H9.18091V19.624H9.28336V19.424H9.18091V19.1419ZM9.2849 19.1419H9.5349V19.7316H9.2849V19.1419ZM8.40215 17.5377H8.15215V18.1275H8.40215V17.5377ZM6.34906 17.5377H6.09906V18.1275H6.34906V18.0198H6.4515V17.8198H6.34906V17.5377ZM6.45304 17.5377H6.70304V18.1275H6.45304V17.5377ZM7.79817 20.0169H8.04817V20.299H8.15062V20.499H8.04817V20.6067H7.79817V20.0169ZM8.40215 20.0169H8.15215V20.6067H8.40215V20.0169ZM6.34906 20.0169H6.09906V20.6067H6.34906V20.499H6.4515V20.299H6.34906V20.0169ZM6.45304 20.0169H6.70304V20.6067H6.45304V20.0169Z" fill="#C9343F"/>
<path fill-rule="evenodd" clip-rule="evenodd" d="M7.02559 18.6664H7.09639V18.4681H6.74267V18.6948H6.45117V19.0197H6.72222V18.9468H6.52197V18.7677H6.76238L7.12425 19.0809L6.76238 19.394H6.52197V19.215H6.72222V19.1421H6.45117V19.4669H6.74267V19.6936H7.09639V19.4954H7.02559V19.6207H6.81346V19.4451L7.18146 19.1266L7.54946 19.4451V19.6207H7.33732V19.4954H7.26653V19.6936H7.62025V19.4669H7.91175V19.1421H7.6407V19.215H7.84095V19.394H7.60054L7.23867 19.0809L7.60054 18.7677H7.84095V18.9468H7.6407V19.0197H7.91175V18.6948H7.62025V18.4681H7.26653V18.6664H7.33732V18.5411H7.54946V18.7167L7.18146 19.0352L6.81346 18.7167V18.5411H7.02559V18.6664Z" fill="white"/>
<path fill-rule="evenodd" clip-rule="evenodd" d="M7.58449 4.80005H6.33774V8.80005H7.58449V4.80005ZM4.7793 5.6462H5.55852V7.80005H4.7793V5.6462ZM8.44163 5.6462H9.22086V7.80005H8.44163V5.6462Z" fill="#E8AA00"/>
<path fill-rule="evenodd" clip-rule="evenodd" d="M6.33766 5.10779H5.55844V8.18471H6.33766V5.10779ZM4.77922 5.95394H4V7.41548H4.77922V5.95394ZM9.22078 5.95394H10V7.41548H9.22078V5.95394ZM8.36364 5.10779H7.58442V8.18471H8.36364V5.10779Z" fill="#389F5D"/>
<path fill-rule="evenodd" clip-rule="evenodd" d="M6.18222 5.49237C6.18222 5.61982 6.07756 5.72314 5.94846 5.72314C5.81935 5.72314 5.71469 5.61982 5.71469 5.49237C5.71469 5.36492 5.81935 5.2616 5.94846 5.2616C6.07756 5.2616 6.18222 5.36492 6.18222 5.49237ZM4.62378 6.2616C4.62378 6.38905 4.51912 6.49237 4.39002 6.49237C4.26091 6.49237 4.15625 6.38905 4.15625 6.2616C4.15625 6.13415 4.26091 6.03083 4.39002 6.03083C4.51912 6.03083 4.62378 6.13415 4.62378 6.2616ZM4.62378 7.10775C4.62378 7.2352 4.51912 7.33852 4.39002 7.33852C4.26091 7.33852 4.15625 7.2352 4.15625 7.10775C4.15625 6.9803 4.26091 6.87698 4.39002 6.87698C4.51912 6.87698 4.62378 6.9803 4.62378 7.10775ZM5.94846 8.03083C6.07756 8.03083 6.18222 7.92751 6.18222 7.80006C6.18222 7.67261 6.07756 7.56929 5.94846 7.56929C5.81935 7.56929 5.71469 7.67261 5.71469 7.80006C5.71469 7.92751 5.81935 8.03083 5.94846 8.03083ZM9.6108 6.49237C9.7399 6.49237 9.84456 6.38905 9.84456 6.2616C9.84456 6.13415 9.7399 6.03083 9.6108 6.03083C9.48169 6.03083 9.37703 6.13415 9.37703 6.2616C9.37703 6.38905 9.48169 6.49237 9.6108 6.49237ZM9.84456 7.10775C9.84456 7.2352 9.7399 7.33852 9.6108 7.33852C9.48169 7.33852 9.37703 7.2352 9.37703 7.10775C9.37703 6.9803 9.48169 6.87698 9.6108 6.87698C9.7399 6.87698 9.84456 6.9803 9.84456 7.10775ZM7.97443 8.03083C8.10354 8.03083 8.2082 7.92751 8.2082 7.80006C8.2082 7.67261 8.10354 7.56929 7.97443 7.56929C7.84533 7.56929 7.74067 7.67261 7.74067 7.80006C7.74067 7.92751 7.84533 8.03083 7.97443 8.03083ZM8.2082 5.49237C8.2082 5.61982 8.10354 5.72314 7.97443 5.72314C7.84533 5.72314 7.74067 5.61982 7.74067 5.49237C7.74067 5.36492 7.84533 5.2616 7.97443 5.2616C8.10354 5.2616 8.2082 5.36492 8.2082 5.49237Z" fill="#E1E5E8"/>
<path fill-rule="evenodd" clip-rule="evenodd" d="M7.19529 5.18463C7.19529 5.31208 7.09063 5.4154 6.96152 5.4154C6.83242 5.4154 6.72775 5.31208 6.72775 5.18463C6.72775 5.05718 6.83242 4.95386 6.96152 4.95386C7.09063 4.95386 7.19529 5.05718 7.19529 5.18463ZM5.40308 6.03078C5.40308 6.15823 5.29842 6.26155 5.16931 6.26155C5.04021 6.26155 4.93555 6.15823 4.93555 6.03078C4.93555 5.90333 5.04021 5.80001 5.16931 5.80001C5.29842 5.80001 5.40308 5.90333 5.40308 6.03078ZM6.96152 8.72309C7.09063 8.72309 7.19529 8.61977 7.19529 8.49232C7.19529 8.36487 7.09063 8.26155 6.96152 8.26155C6.83242 8.26155 6.72775 8.36487 6.72775 8.49232C6.72775 8.61977 6.83242 8.72309 6.96152 8.72309ZM9.06542 6.03078C9.06542 6.15823 8.96076 6.26155 8.83165 6.26155C8.70255 6.26155 8.59788 6.15823 8.59788 6.03078C8.59788 5.90333 8.70255 5.80001 8.83165 5.80001C8.96076 5.80001 9.06542 5.90333 9.06542 6.03078ZM5.16931 7.64617C5.29842 7.64617 5.40308 7.54285 5.40308 7.4154C5.40308 7.28795 5.29842 7.18463 5.16931 7.18463C5.04021 7.18463 4.93555 7.28795 4.93555 7.4154C4.93555 7.54285 5.04021 7.64617 5.16931 7.64617ZM9.06542 7.4154C9.06542 7.54285 8.96076 7.64617 8.83165 7.64617C8.70255 7.64617 8.59788 7.54285 8.59788 7.4154C8.59788 7.28795 8.70255 7.18463 8.83165 7.18463C8.96076 7.18463 9.06542 7.28795 9.06542 7.4154Z" fill="#C51918"/>
<path fill-rule="evenodd" clip-rule="evenodd" d="M5.60734 6.3915L6.36591 5.70642H7.59759L8.46202 6.49238H9.6112V6.80008H8.49318V6.81613L7.59759 7.727H6.36591L5.60734 6.90491V6.80008H4.3125V6.49238H5.60734V6.3915Z" fill="#C51918"/>
<path fill-rule="evenodd" clip-rule="evenodd" d="M7.01068 6.27655L7.37905 6.64986L6.99233 7.01619L6.60561 6.64986L6.97398 6.27655L6.99233 6.25961L7.01068 6.27655ZM7.07776 7.17791L7.1209 7.13797L7.07674 7.09614L7.46061 6.73252L7.861 7.13829L7.68081 7.32832H7.57397L7.37524 7.45334L7.07776 7.17791ZM6.99233 7.25701L6.62316 7.59881L6.37662 7.4437H6.25316L5.96206 7.1367L6.43971 6.65263L5.95898 6.19726L6.27443 5.89116L6.38875 5.98097L6.55416 5.81389L6.50444 5.76349L6.58817 5.68298L6.99233 6.09258L7.3965 5.68298L7.48022 5.76349L7.4305 5.81389L7.59592 5.98097L7.71024 5.89116L8.02568 6.19726L7.54495 6.65263L8.0226 7.1367L7.7315 7.4437H7.60805L7.3615 7.59881L6.99233 7.25701ZM7.19834 6.30136L7.20319 6.29623L7.0925 6.1941L7.0786 6.18001L7.36652 5.91435L7.5861 6.13614L7.70207 6.04503L7.85792 6.19626L7.46339 6.56997L7.19834 6.30136ZM6.95107 7.13702L6.60942 7.45334L6.41069 7.32832H6.30385L6.12367 7.13829L6.52405 6.73252L6.95107 7.13702ZM6.12675 6.19626L6.52127 6.56997L6.90606 6.18001L6.61814 5.91435L6.39856 6.13614L6.28259 6.04503L6.12675 6.19626Z" fill="#E8AA00"/>
<path fill-rule="evenodd" clip-rule="evenodd" d="M4.44836 21.4417C4.23934 21.1764 4.09826 20.9973 4.0611 21C3.94444 21.0086 3.83503 22.2438 5.35145 23.1836C5.35145 23.1836 5.57528 23.308 5.70565 23.1836C5.83602 23.0591 5.70565 22.876 5.70565 22.876C5.21547 22.4153 4.75757 21.8341 4.44836 21.4417L4.44836 21.4417L4.44836 21.4417ZM9.55164 21.4417L9.55164 21.4417L9.55166 21.4416C9.76068 21.1764 9.90174 20.9973 9.9389 21C10.0556 21.0086 10.165 22.2438 8.64855 23.1836C8.64855 23.1836 8.42472 23.308 8.29435 23.1836C8.16398 23.0591 8.29435 22.876 8.29435 22.876C8.78453 22.4153 9.24243 21.8341 9.55164 21.4417ZM9.44071 23.1037C8.94241 23.2509 8.36529 23.2818 8.14461 23.1866C8.07422 23.1562 7.99949 23.1323 7.92096 23.1145C7.70143 23.0647 7.48745 23.0643 7.23351 23.0921C7.21197 23.0944 7.15882 23.1007 7.13999 23.1029L7.13983 23.1029L7.13329 23.1037C7.10938 23.1064 7.09557 23.1076 7.09293 23.1076C7.07805 23.1076 7.06173 23.1098 7.04384 23.1139C7.02595 23.1098 7.00964 23.1076 6.99475 23.1076C6.99212 23.1076 6.97831 23.1064 6.9544 23.1037C6.95404 23.1036 6.95167 23.1034 6.94786 23.1029C6.92917 23.1007 6.87578 23.0945 6.85417 23.0921C6.60024 23.0643 6.38626 23.0647 6.16673 23.1145C6.0882 23.1323 6.01346 23.1562 5.94307 23.1866C5.72239 23.2818 5.14527 23.2509 4.64698 23.1037C4.64698 23.1037 5.55375 23.4679 6.09229 23.3065C6.14451 23.284 6.19959 23.2664 6.25754 23.2532C6.41085 23.2184 6.56786 23.2153 6.75674 23.233C6.6773 23.27 6.58494 23.3123 6.47751 23.3559V23.4C6.68959 23.3139 6.93812 23.2732 7.04384 23.2607C7.14956 23.2732 7.39809 23.3139 7.61018 23.4V23.3559C7.50275 23.3123 7.41038 23.27 7.33095 23.233C7.51983 23.2153 7.67684 23.2184 7.83014 23.2532C7.8881 23.2664 7.94318 23.284 7.9954 23.3065C8.53394 23.4679 9.44071 23.1037 9.44071 23.1037Z" fill="#E8AA00"/>
<path fill-rule="evenodd" clip-rule="evenodd" d="M5.76365 9.97754L4.51172 11.0808V12.1316L5.6062 13.2314H7.84098L9.07314 12.0579V11.1633L7.84098 9.97754H5.76365Z" fill="#389F5D"/>
<path fill-rule="evenodd" clip-rule="evenodd" d="M6.19334 10.0942H5.91016V10.313H6.19334V10.0942ZM6.19334 12.9543H5.91016V13.173H6.19334V12.9543ZM6.61812 12.9543H6.90131V13.173H6.61812V12.9543ZM6.90131 10.0942H6.61812V10.313H6.90131V10.0942ZM7.32609 12.9543H7.60927V13.173H7.32609V12.9543ZM7.60927 10.0942H7.32609V10.313H7.60927V10.0942Z" fill="#C51918"/>
<path fill-rule="evenodd" clip-rule="evenodd" d="M6.55389 10.0376H6.26562V10.2563H6.55389V10.0376ZM6.55389 12.9543H6.26562V13.173H6.55389V12.9543ZM6.98629 10.0376H7.27455V10.2563H6.98629V10.0376ZM7.27455 12.9543H6.98629V13.173H7.27455V12.9543Z" fill="#E8AA00"/>
<path fill-rule="evenodd" clip-rule="evenodd" d="M4.91391 9.84204H8.69394V10.4262H9.23519V12.841H8.69394V13.3402H4.91391V12.841H4.32617V10.4262H4.91391V9.84204ZM5.12629 10.6449H4.53856V12.6222H5.12629V13.1214H8.48155V12.6222H9.0228V10.6449H8.48155V10.0608H5.12629V10.6449Z" fill="#750100"/>
<path fill-rule="evenodd" clip-rule="evenodd" d="M6.40652 9.6001H6.05254V9.96468H6.40652V9.6001ZM6.97289 9.6001H6.61891V9.96468H6.97289V9.6001ZM7.18528 9.6001H7.53926V9.96468H7.18528V9.6001ZM6.40652 13.2459H6.05254V13.6105H6.40652V13.2459ZM6.61891 13.2459H6.97289V13.6105H6.61891V13.2459ZM7.53926 13.2459H7.18528V13.6105H7.53926V13.2459ZM3.99414 12.4385V12.0846H4.35872V12.4385H3.99414ZM3.99414 11.5012V11.8552H4.35872V11.5012H3.99414ZM3.99414 11.2719V10.9179H4.35872V11.2719H3.99414ZM9.09149 12.0846V12.4385H9.45607V12.0846H9.09149ZM9.09149 11.8552V11.5012H9.45607V11.8552H9.09149ZM9.09149 10.9179V11.2719H9.45607V10.9179H9.09149Z" fill="#389F5D"/>
<path fill-rule="evenodd" clip-rule="evenodd" d="M5.7785 10.2847L5.16797 10.8157V12.534L5.67465 12.8925H7.87129L8.37723 12.534V10.8157L7.80622 10.2847H5.7785Z" fill="#C51918"/>
<path fill-rule="evenodd" clip-rule="evenodd" d="M6.80309 10.9969L6.06641 11.6264H6.80309V10.9969Z" fill="#E1E5E8"/>
<path d="M6.80309 12.1974L6.06641 11.568H6.80309V12.1974Z" fill="#E8AA00"/>
<path fill-rule="evenodd" clip-rule="evenodd" d="M6.73792 10.9969L7.47461 11.6264H6.73792V10.9969Z" fill="#E8AA00"/>
<path fill-rule="evenodd" clip-rule="evenodd" d="M6.77195 11.7963C6.89518 11.7963 6.99508 11.6965 6.99508 11.5732C6.99508 11.45 6.89518 11.3501 6.77195 11.3501C6.64872 11.3501 6.54883 11.45 6.54883 11.5732C6.54883 11.6965 6.64872 11.7963 6.77195 11.7963Z" fill="#29AE66"/>
<path d="M6.73792 12.1974L7.47461 11.568H6.73792V12.1974Z" fill="#E1E5E8"/>
<path fill-rule="evenodd" clip-rule="evenodd" d="M5.20357 11.3501H4.56641V11.5541H5.20357V11.3501ZM5.20357 11.722H4.56641V11.926H5.20357V11.722ZM8.38942 11.3501H9.02658V11.5541H8.38942V11.3501ZM9.02658 11.722H8.38942V11.926H9.02658V11.722Z" fill="#C51918"/>
<path fill-rule="evenodd" clip-rule="evenodd" d="M5.13278 11.1313H4.56641V11.3545H5.13278V11.1313ZM5.13278 11.5032H4.56641V11.7263H5.13278V11.5032ZM4.56641 11.8751H5.13278V12.0982H4.56641V11.8751ZM8.95579 11.1313H8.38942V11.3545H8.95579V11.1313ZM8.38942 11.5032H8.95579V11.7263H8.38942V11.5032ZM8.95579 11.8751H8.38942V12.0982H8.95579V11.8751Z" fill="#E8AA00"/>
<path fill-rule="evenodd" clip-rule="evenodd" d="M9.98509 1.59041L9.98293 1.99559H7.02401L7.02189 3.83559H6.09409C5.93214 3.83559 5.48808 3.5246 5.48808 3.5246H4.73473L4.38694 3.16929V2.81228L4.01367 2.36908L4.01582 1.9639H6.97475L6.97686 0.123901H7.90466C8.06662 0.123901 8.51068 0.434896 8.51068 0.434896H9.26403L9.61182 0.7902V1.14721L9.98509 1.59041Z" fill="#E8AA00"/>
<path fill-rule="evenodd" clip-rule="evenodd" d="M4.01296 1.59041L4.01511 1.99559H6.97404L6.97615 3.83559H7.90395C8.06591 3.83559 8.50997 3.5246 8.50997 3.5246H9.26332L9.61111 3.16929V2.81228L9.98438 2.36908L9.98222 1.9639H7.0233L7.02118 0.123901H6.09338C5.93143 0.123901 5.48737 0.434896 5.48737 0.434896H4.73402L4.38623 0.7902V1.14721L4.01296 1.59041Z" fill="#E1E5E8"/>
<path fill-rule="evenodd" clip-rule="evenodd" d="M6.00309 0.685425L5.97069 0.528931L6.60895 0.382159C6.68557 0.345161 6.81855 0.239758 7.0017 0.0684814L7.08751 0.165057L7.10224 0.148481C7.28539 0.319758 7.41837 0.425161 7.49499 0.462159L8.13325 0.608931L8.10085 0.765425L7.74689 0.692308L7.78076 0.722588C7.75643 0.737161 7.72997 0.758404 7.70162 0.78619L7.55218 0.764185L7.56608 0.713648L7.52856 0.707539C7.50107 0.759387 7.46963 0.833571 7.43606 0.92876L7.2866 0.884756L7.34712 0.594871L7.00932 0.278049L6.77267 0.500012C6.80212 0.526702 6.83147 0.557339 6.86087 0.591999C6.83576 0.601552 6.81175 0.609983 6.78884 0.617295L6.77871 0.619712L6.81734 0.804756L6.66788 0.84876C6.64837 0.793454 6.62959 0.745239 6.61188 0.704376L6.59956 0.70619C6.57121 0.678404 6.54475 0.657161 6.52042 0.642588L6.56273 0.604764C6.55579 0.592896 6.54915 0.582611 6.54283 0.573931L6.00309 0.685425ZM6.02935 1.25842L6.11457 1.12446L5.67376 0.828898L5.72278 0.760346L5.59716 0.665655L5.54308 0.741279L5.36814 0.623984L5.28292 0.757947L5.45071 0.870444L5.41615 0.918767L5.54177 1.01346L5.58139 0.958063L6.02935 1.25842ZM5.4839 1.41842L5.56912 1.28446L5.1283 0.988898L5.17733 0.920346L5.0517 0.825655L4.99762 0.901279L4.82268 0.783984L4.73747 0.917947L4.90525 1.03044L4.87069 1.07877L4.99632 1.17346L5.03593 1.11806L5.4839 1.41842ZM5.25013 1.89842L5.33535 1.76446L4.89454 1.4689L4.94356 1.40035L4.81794 1.30566L4.76386 1.38128L4.58892 1.26398L4.5037 1.39795L4.67149 1.51044L4.63693 1.55877L4.76255 1.65346L4.80217 1.59806L5.25013 1.89842ZM5.25743 2.28244L5.17221 2.14848L4.72424 2.44884L4.68463 2.39345L4.55901 2.48814L4.59356 2.53646L4.42578 2.64896L4.511 2.78292L4.68593 2.66563L4.74002 2.74125L4.86564 2.64656L4.81661 2.57801L5.25743 2.28244ZM5.40598 2.62848L5.49119 2.76244L5.05038 3.05801L5.0994 3.12656L4.97378 3.22125L4.9197 3.14563L4.74476 3.26292L4.65955 3.12896L4.82733 3.01646L4.79277 2.96814L4.91839 2.87345L4.95801 2.92884L5.40598 2.62848ZM5.95143 2.78848L6.03665 2.92244L5.59583 3.21801L5.64486 3.28656L5.51924 3.38125L5.46516 3.30563L5.29022 3.42292L5.205 3.28896L5.37279 3.17646L5.33823 3.12814L5.46385 3.03345L5.50346 3.08884L5.95143 2.78848ZM6.78294 3.55313C6.75784 3.54358 6.73383 3.53515 6.71092 3.52783L6.68126 3.52076L6.73942 3.24215L6.58996 3.19814C6.54222 3.3335 6.4988 3.42639 6.46491 3.47297L5.92517 3.36148L5.89277 3.51797L6.50796 3.65944L6.50778 3.66003L6.59675 3.71912L6.60846 3.71182C6.686 3.76589 6.79188 3.85508 6.92378 3.97842L6.97405 3.92185L7.02432 3.97842C7.20747 3.80715 7.34045 3.70174 7.41707 3.66475L7.43778 3.65998C7.46467 3.68294 7.49167 3.70264 7.51888 3.71912L7.60785 3.66003L7.59886 3.62953L7.60878 3.62066L8.05533 3.51797L8.02293 3.36148L7.48319 3.47297C7.4493 3.42639 7.40588 3.3335 7.35814 3.19814L7.20868 3.24215L7.26919 3.53203L6.97405 3.80886L6.74581 3.59479C6.75819 3.58161 6.77056 3.56773 6.78294 3.55313ZM8.69067 2.28244L8.77588 2.14848L9.22385 2.44884L9.26347 2.39345L9.38909 2.48814L9.35453 2.53646L9.52232 2.64896L9.4371 2.78292L9.26216 2.66563L9.20808 2.74125L9.08246 2.64656L9.13148 2.57801L8.69067 2.28244ZM8.4569 2.76244L8.54212 2.62848L8.99009 2.92884L9.0297 2.87345L9.15532 2.96814L9.12077 3.01646L9.28855 3.12896L9.20333 3.26292L9.0284 3.14563L8.97431 3.22125L8.84869 3.12656L8.89772 3.05801L8.4569 2.76244ZM7.91145 2.92244L7.99666 2.78848L8.44463 3.08884L8.48425 3.03345L8.60987 3.12814L8.57531 3.17646L8.74309 3.28896L8.65788 3.42292L8.48294 3.30563L8.42886 3.38125L8.30324 3.28656L8.35226 3.21801L7.91145 2.92244ZM8.76859 1.84446L8.85381 1.97842L9.30178 1.67806L9.34139 1.73346L9.46701 1.63877L9.43245 1.59044L9.60024 1.47795L9.51502 1.34398L9.34008 1.46128L9.286 1.38566L9.16038 1.48035L9.20941 1.5489L8.76859 1.84446ZM8.53483 1.36446L8.62004 1.49842L9.06801 1.19806L9.10762 1.25346L9.23325 1.15877L9.19869 1.11044L9.36647 0.997947L9.28126 0.863984L9.10632 0.981279L9.05224 0.905655L8.92662 1.00035L8.97564 1.0689L8.53483 1.36446ZM7.98937 1.20446L8.07459 1.33842L8.52255 1.03806L8.56217 1.09346L8.68779 0.998767L8.65323 0.950444L8.82102 0.837947L8.7358 0.703984L8.56086 0.821279L8.50678 0.745655L8.38116 0.840346L8.43018 0.908898L7.98937 1.20446Z" fill="#C51918"/>
<path fill-rule="evenodd" clip-rule="evenodd" d="M6.20795 1.15307L7.09049 0.685059V1.96506H9.27231L8.75243 2.33949V2.82937H7.92959L7.04705 3.29738V2.01738H4.86523L5.38512 1.64295V1.15307H6.20795Z" fill="#C51918"/>
<path fill-rule="evenodd" clip-rule="evenodd" d="M7.92876 1.15307L7.04623 0.685059V1.96506H4.86441L5.38429 2.33949V2.82937H6.20713L7.08967 3.29738V2.01738H9.27148L8.7516 1.64295V1.15307H7.92876Z" fill="#29AE66"/>
<path fill-rule="evenodd" clip-rule="evenodd" d="M5.7793 1.48472L5.92331 1.20093L6.28964 1.39687L6.39057 1.2467L6.64711 1.42845L6.5682 1.54585L7.6525 2.1258L7.71935 2.02635L7.97589 2.20809L7.93106 2.27479L8.04819 2.33744L7.90418 2.62123L7.75267 2.5402L7.62968 2.72318L7.37315 2.54143L7.47411 2.39121L6.38981 1.81126L6.3009 1.94354L6.04437 1.76179L6.11125 1.66227L5.7793 1.48472Z" fill="#29AE66"/>
<path fill-rule="evenodd" clip-rule="evenodd" d="M8.09011 1.40676L7.92666 1.1337L7.57488 1.35472L7.46372 1.21196L7.22049 1.41116L7.30739 1.52277L6.26619 2.17695L6.19256 2.0824L5.94933 2.28159L5.9987 2.345L5.88623 2.41567L6.04968 2.68873L6.19517 2.59732L6.33062 2.77128L6.57386 2.57208L6.46265 2.42927L7.50386 1.77509L7.60178 1.90084L7.84501 1.70164L7.77135 1.60704L8.09011 1.40676Z" fill="#C51918"/>
</g>
<path fill-rule="evenodd" clip-rule="evenodd" d="M19.0734 2C19.0734 2 21.4036 7.5216 19.3333 9.86652C17.263 12.2114 12 11.7593 12 11.7593C12 11.7593 18.7564 14.811 21.7001 10.6091C24.6439 6.40713 19.0734 2 19.0734 2Z" fill="#F7FCFF"/>
<path fill-rule="evenodd" clip-rule="evenodd" d="M14.8444 5.24848L14.2279 5.68245L14.4454 4.95522L13.8468 4.4962L14.5978 4.48072L14.8444 3.76306L15.0911 4.48072L15.842 4.4962L15.2435 4.95522L15.461 5.68245L14.8444 5.24848ZM14.9637 7.25381L14.3472 7.68778L14.5647 6.96056L13.9661 6.50154L14.7171 6.48606L14.9637 5.7684L15.2103 6.48606L15.9613 6.50154L15.3627 6.96056L15.5803 7.68778L14.9637 7.25381ZM12.4728 7.84266L13.0894 7.40869L13.7059 7.84266L13.4884 7.11543L14.087 6.65642L13.336 6.64094L13.0894 5.92327L12.8428 6.64094L12.0918 6.65642L12.6904 7.11543L12.4728 7.84266ZM14.9637 9.35728L14.3472 9.79125L14.5647 9.06402L13.9661 8.605L14.7171 8.58952L14.9637 7.87186L15.2103 8.58952L15.9613 8.605L15.3627 9.06402L15.5803 9.79125L14.9637 9.35728ZM16.3848 7.07491L17.0013 6.64094L17.6179 7.07491L17.4003 6.34768L17.9989 5.88866L17.2479 5.87318L17.0013 5.15552L16.7547 5.87318L16.0037 5.88866L16.6023 6.34768L16.3848 7.07491Z" fill="#F7FCFF"/>
</g>
</g>
<rect width="32" height="24" fill="url(#paint0_linear_230_22915)" style="mix-blend-mode:overlay"/>
</g>
<rect x="0.5" y="0.5" width="31" height="23" rx="1.5" stroke="black" stroke-opacity="0.1"/>
<defs>
<linearGradient id="paint0_linear_230_22915" x1="16" y1="0" x2="16" y2="24" gradientUnits="userSpaceOnUse">
<stop stop-color="white" stop-opacity="0.7"/>
<stop offset="1" stop-opacity="0.3"/>
</linearGradient>
<clipPath id="clip0_230_22915">
<rect width="32" height="24" rx="2" fill="white"/>
</clipPath>
</defs>
</svg>
