<svg width="32" height="24" viewBox="0 0 32 24" fill="none" xmlns="http://www.w3.org/2000/svg">
<g clip-path="url(#clip0_230_26578)">
<path d="M0 0V7H32V0L0 0Z" fill="#002488"/>
<path d="M0 7V24H32V7L0 7Z" fill="#DA121A"/>
<path d="M5.02848 0.789522C4.64629 1.41978 4.60069 1.92393 4.86153 2.79447C4.98713 3.20072 5.12509 3.80738 5.18305 4.13625C5.26034 4.60054 5.25224 4.64468 5.2631 4.74563C5.35971 4.74563 5.57925 4.746 5.68077 4.74539C5.69537 4.58465 5.70717 4.39911 5.74145 4.14398C5.78141 3.84651 5.89993 3.22436 6.0274 2.79223C6.28213 1.9287 6.26507 1.3989 5.86897 0.799195C5.72406 0.576724 5.53084 0.392944 5.4439 0.392944C5.35695 0.392944 5.16025 0.5628 5.02848 0.789522Z" fill="#FCDD09"/>
<path d="M5.86002 4.33319C5.8272 4.49949 5.81919 4.5582 5.80273 4.74563C5.91984 4.7461 5.96586 4.7469 6.08001 4.74622C6.105 4.62013 6.12299 4.55356 6.17806 4.37459C6.39639 3.68241 7.03942 3.40462 7.01044 4.05269C7.00078 4.23163 6.92535 4.33154 6.84139 4.42747C6.94518 4.40156 7.1656 4.29857 7.34433 4.197C8.3394 3.5973 7.94755 2.12783 6.90417 2.57277C6.36316 2.80492 6.03777 3.44756 5.86002 4.33319Z" fill="#FCDD09"/>
<path d="M4.69336 4.98966C5.12998 4.9919 5.8846 4.99591 6.24704 4.99368C6.24747 4.88617 6.24882 4.94103 6.24971 4.85416C5.98288 4.85159 4.9611 4.85583 4.69543 4.85583C4.69604 4.91203 4.69482 4.93925 4.69336 4.98966L4.69336 4.98966Z" fill="#FCDD09"/>
<path d="M4.41992 5.78025C4.41992 5.78025 4.63742 5.80473 4.84026 5.78992C5.04309 5.77511 5.15564 5.74976 5.27552 5.69146C5.24297 5.93346 5.2411 6.16715 5.2411 6.16715C5.2706 6.47858 5.30398 6.55829 5.37143 6.70986C5.46295 6.8363 5.51617 6.83699 5.58345 6.70348C5.65617 6.55399 5.70404 6.40024 5.71923 6.1657C5.71394 5.98991 5.70413 5.90936 5.66254 5.69448C5.80289 5.75528 5.89154 5.77104 6.10092 5.78992C6.31518 5.80923 6.51211 5.79976 6.51211 5.79976C6.51211 5.79976 6.22269 5.65434 6.09531 5.47599C5.96956 5.29994 5.99638 5.32987 5.90495 5.10307C5.79385 5.0978 5.23055 5.10299 5.05183 5.10299C4.95394 5.30975 4.94409 5.35293 4.82319 5.48341C4.66579 5.65326 4.41992 5.78025 4.41992 5.78025Z" fill="#FCDD09"/>
<path d="M4.02731 2.57247C4.56832 2.80461 4.89371 3.44726 5.07146 4.33289C5.10428 4.49919 5.11229 4.55789 5.12875 4.74532C5.01164 4.7458 4.96562 4.7466 4.85147 4.74591C4.82648 4.61982 4.80849 4.55326 4.75342 4.37429C4.53509 3.68211 3.89206 3.40431 3.92104 4.05238C3.9307 4.23132 4.00613 4.33124 4.09009 4.42717C3.9863 4.40126 3.76588 4.29826 3.58715 4.1967C2.59208 3.597 2.98393 2.12753 4.02731 2.57247V2.57247Z" fill="#FCDD09"/>
<path d="M15.0285 0.789522C14.6463 1.41978 14.6007 1.92393 14.8615 2.79447C14.9871 3.20072 15.1251 3.80738 15.1831 4.13625C15.2603 4.60054 15.2522 4.64468 15.2631 4.74563C15.3597 4.74563 15.5793 4.746 15.6808 4.74539C15.6954 4.58465 15.7072 4.39911 15.7414 4.14398C15.7814 3.84651 15.8999 3.22436 16.0274 2.79223C16.2821 1.9287 16.2651 1.3989 15.869 0.799195C15.7241 0.576724 15.5308 0.392944 15.4439 0.392944C15.3569 0.392944 15.1603 0.5628 15.0285 0.789522Z" fill="#FCDD09"/>
<path d="M16.9042 2.57277C16.3632 2.80492 16.0378 3.44756 15.86 4.33319C15.8272 4.49949 15.8192 4.5582 15.8027 4.74563C15.9198 4.7461 15.9659 4.7469 16.08 4.74622C16.105 4.62013 16.123 4.55356 16.1781 4.37459C16.3964 3.68241 17.0394 3.40462 17.0104 4.05269C17.0008 4.23163 16.9254 4.33154 16.8414 4.42747C16.9452 4.40156 17.1656 4.29857 17.3443 4.197C18.3394 3.5973 17.9475 2.12783 16.9042 2.57277V2.57277Z" fill="#FCDD09"/>
<path d="M14.6934 4.98966C15.13 4.9919 15.8846 4.99591 16.247 4.99368C16.2475 4.88617 16.2488 4.94103 16.2497 4.85416C15.9829 4.85159 14.9611 4.85583 14.6954 4.85583C14.696 4.91203 14.6948 4.93925 14.6934 4.98966L14.6934 4.98966Z" fill="#FCDD09"/>
<path d="M14.8232 5.48341C14.6658 5.65326 14.4199 5.78025 14.4199 5.78025C14.4199 5.78025 14.6374 5.80473 14.8403 5.78992C15.0431 5.77511 15.1556 5.74976 15.2755 5.69146C15.243 5.93346 15.2411 6.16715 15.2411 6.16715C15.2706 6.47858 15.304 6.55829 15.3714 6.70986C15.463 6.8363 15.5162 6.83699 15.5835 6.70348C15.6562 6.55399 15.704 6.40024 15.7192 6.1657C15.7139 5.98991 15.7041 5.90936 15.6625 5.69448C15.8029 5.75528 15.8915 5.77104 16.1009 5.78992C16.3152 5.80923 16.5121 5.79976 16.5121 5.79976C16.5121 5.79976 16.2227 5.65434 16.0953 5.47599C15.9696 5.29994 15.9964 5.32987 15.9049 5.10307C15.7938 5.0978 15.2306 5.10299 15.0518 5.10299C14.9539 5.30975 14.9441 5.35293 14.8232 5.48341V5.48341Z" fill="#FCDD09"/>
<path d="M14.0273 2.57247C14.5683 2.80461 14.8937 3.44726 15.0715 4.33289C15.1043 4.49919 15.1123 4.55789 15.1287 4.74532C15.0116 4.7458 14.9656 4.7466 14.8515 4.74591C14.8265 4.61982 14.8085 4.55326 14.7534 4.37429C14.5351 3.68211 13.8921 3.40431 13.921 4.05238C13.9307 4.23132 14.0061 4.33124 14.0901 4.42717C13.9863 4.40126 13.7659 4.29826 13.5872 4.1967C12.5921 3.597 12.9839 2.12753 14.0273 2.57247V2.57247Z" fill="#FCDD09"/>
<path d="M25.0285 0.789522C24.6463 1.41978 24.6007 1.92393 24.8615 2.79447C24.9871 3.20072 25.1251 3.80738 25.1831 4.13625C25.2603 4.60054 25.2522 4.64468 25.2631 4.74563C25.3597 4.74563 25.5793 4.746 25.6808 4.74539C25.6954 4.58465 25.7072 4.39911 25.7414 4.14398C25.7814 3.84651 25.8999 3.22436 26.0274 2.79223C26.2821 1.9287 26.2651 1.3989 25.869 0.799195C25.7241 0.576724 25.5308 0.392944 25.4439 0.392944C25.3569 0.392944 25.1603 0.5628 25.0285 0.789522Z" fill="#FCDD09"/>
<path d="M26.9042 2.57277C26.3632 2.80492 26.0378 3.44756 25.86 4.33319C25.8272 4.49949 25.8192 4.5582 25.8027 4.74563C25.9198 4.7461 25.9659 4.7469 26.08 4.74622C26.105 4.62013 26.123 4.55356 26.1781 4.37459C26.3964 3.68241 27.0394 3.40462 27.0104 4.05269C27.0008 4.23163 26.9254 4.33154 26.8414 4.42747C26.9452 4.40156 27.1656 4.29857 27.3443 4.197C28.3394 3.5973 27.9475 2.12783 26.9042 2.57277V2.57277Z" fill="#FCDD09"/>
<path d="M24.6934 4.98966C25.13 4.9919 25.8846 4.99591 26.247 4.99368C26.2475 4.88617 26.2488 4.94103 26.2497 4.85416C25.9829 4.85159 24.9611 4.85583 24.6954 4.85583C24.696 4.91203 24.6948 4.93925 24.6934 4.98966L24.6934 4.98966Z" fill="#FCDD09"/>
<path d="M24.8232 5.48341C24.6658 5.65326 24.4199 5.78025 24.4199 5.78025C24.4199 5.78025 24.6374 5.80473 24.8403 5.78992C25.0431 5.77511 25.1556 5.74976 25.2755 5.69146C25.243 5.93346 25.2411 6.16715 25.2411 6.16715C25.2706 6.47858 25.304 6.55829 25.3714 6.70986C25.463 6.8363 25.5162 6.83699 25.5835 6.70348C25.6562 6.55399 25.704 6.40024 25.7192 6.1657C25.7139 5.98991 25.7041 5.90936 25.6625 5.69448C25.8029 5.75528 25.8915 5.77104 26.1009 5.78992C26.3152 5.80923 26.5121 5.79976 26.5121 5.79976C26.5121 5.79976 26.2227 5.65434 26.0953 5.47599C25.9696 5.29994 25.9964 5.32987 25.9049 5.10307C25.7938 5.0978 25.2306 5.10299 25.0518 5.10299C24.9539 5.30975 24.9441 5.35293 24.8232 5.48341V5.48341Z" fill="#FCDD09"/>
<path d="M24.0273 2.57247C24.5683 2.80461 24.8937 3.44726 25.0715 4.33289C25.1043 4.49919 25.1123 4.55789 25.1287 4.74532C25.0116 4.7458 24.9656 4.7466 24.8515 4.74591C24.8265 4.61982 24.8085 4.55326 24.7534 4.37429C24.5351 3.68211 23.8921 3.40431 23.921 4.05238C23.9307 4.23132 24.0061 4.33124 24.0901 4.42717C23.9863 4.40126 23.7659 4.29826 23.5872 4.1967C22.5921 3.597 22.9839 2.12753 24.0273 2.57247V2.57247Z" fill="#FCDD09"/>
<path d="M11.2974 13.1284C11.5071 13.2263 11.775 13.3035 11.91 13.308C12.0696 13.3134 12.0273 13.2741 11.7293 13.1581C11.4961 13.067 11.2172 12.9138 11.0934 12.8187C10.8715 12.6372 10.8715 12.6372 10.8948 12.7969C10.908 12.8882 11.0753 13.0301 11.2974 13.1284Z" fill="#008000"/>
<path d="M9.9943 11.2412C10.1296 11.7829 10.6899 12.7792 10.8831 12.8179C11.057 12.8469 11.057 12.8372 10.9121 12.6728C10.6706 12.3923 10.1489 11.367 10.1489 11.1735C10.1489 11.0671 10.1006 10.9897 10.0426 10.9897C9.97498 10.9897 9.95566 11.0865 9.9943 11.2412Z" fill="#008000"/>
<path d="M4.18559 10.5621C4.18224 10.5811 4.36358 10.7212 4.59082 10.8792C4.81805 11.0371 5.08279 11.2607 5.17067 11.3744C5.32124 11.5778 6.17421 12.0819 6.25423 12.0175C6.33257 11.9626 5.23387 11.0713 4.76933 10.8124C4.21636 10.4987 4.19734 10.4954 4.18559 10.5621Z" fill="#008000"/>
<path d="M4.49805 11.3062C4.49805 11.3256 4.70093 11.4319 4.95211 11.548C5.20329 11.6641 5.50278 11.8382 5.60905 11.9349C5.79261 12.109 6.72005 12.4572 6.78768 12.3799C6.8553 12.3122 5.61871 11.6254 5.11634 11.4513C4.51737 11.2385 4.49805 11.2385 4.49805 11.3062Z" fill="#008000"/>
<path d="M9.28125 11.3836C9.28125 11.49 9.65803 12.2251 9.88022 12.5346C10.0058 12.7087 10.1507 12.8055 10.315 12.8055C10.5565 12.8055 10.5565 12.8055 10.1894 12.3895C9.97683 12.1671 9.69667 11.8285 9.55176 11.6448C9.40684 11.461 9.28125 11.3449 9.28125 11.3836H9.28125Z" fill="#008000"/>
<path d="M7.726 14.3613C7.08838 14.6128 6.95312 14.6998 6.95312 14.8353C6.95312 14.8933 7.02075 14.8836 7.12702 14.7966C7.21397 14.7095 7.53278 14.5934 7.82261 14.5257C8.11243 14.458 8.46022 14.342 8.59548 14.2742L8.837 14.1485H8.54717C8.3926 14.1582 8.01582 14.2549 7.726 14.3613Z" fill="#008000"/>
<path d="M6.46188 12.8455C6.29765 12.9712 6.30731 12.9809 6.66476 12.9228C6.8773 12.8938 7.18645 12.8358 7.34102 12.7971C7.5922 12.7294 7.57288 12.7197 7.13814 12.71C6.84832 12.7004 6.57781 12.7584 6.46188 12.8455Z" fill="#008000"/>
<path d="M4.06155 11.8285C5.6556 12.1187 8.85336 13.1923 8.66014 13.3761C8.61183 13.4245 7.71337 13.202 7.58778 13.115C7.53947 13.0666 7.06609 13.0859 6.5444 13.1536C5.56865 13.26 5.40442 13.3471 5.42374 13.7437C5.4334 13.9371 5.4334 13.9371 5.4817 13.7437C5.56865 13.3858 5.71357 13.3084 6.26424 13.3084C6.86321 13.3084 8.50556 13.5502 9.23013 13.7437C10.1962 14.0145 10.2252 14.0145 9.90639 13.8404C9.49097 13.6083 8.86302 13.1827 8.74709 13.0569C8.53455 12.8151 4.67985 11.7511 4.11952 11.7705C3.85867 11.7898 3.84901 11.7898 4.06155 11.8285Z" fill="#008000"/>
<path d="M4.79446 12.3439C4.67852 12.4309 4.55293 12.6341 4.52395 12.7985C4.46598 13.079 4.46598 13.079 4.62056 12.8952C5.02632 12.3826 5.0553 12.3632 5.55767 12.3535C5.96342 12.3439 6.02139 12.3245 5.82817 12.2665C5.42241 12.1408 5.01666 12.1698 4.79446 12.3439Z" fill="#008000"/>
<path d="M9.71907 12.9408C9.79636 13.0762 10.5499 13.4534 10.6079 13.3954C10.6369 13.3664 10.5499 13.289 10.434 13.2213C10.3084 13.1536 10.1441 13.0472 10.0765 12.9698C9.92195 12.8247 9.63212 12.7957 9.71907 12.9408Z" fill="#008000"/>
<path d="M9.77766 13.8598C9.85495 13.9952 10.6085 14.3724 10.6665 14.3144C10.6954 14.2854 10.6085 14.208 10.4926 14.1403C10.367 14.0726 10.2027 13.9662 10.1351 13.8888C9.98054 13.7437 9.69072 13.7147 9.77766 13.8598Z" fill="#008000"/>
<path d="M8.69756 12.7081C8.71146 12.6947 8.92883 12.7669 9.18671 12.8671C9.4446 12.9674 9.77772 13.0622 9.92104 13.0715C10.1736 13.0828 11.0681 13.5088 11.0595 13.6113C11.0578 13.707 9.70537 13.2935 9.23131 13.0526C8.66233 12.769 8.64891 12.7551 8.69756 12.7081Z" fill="#008000"/>
<path d="M10.2974 13.415C10.1171 13.4848 9.93589 13.6109 9.87958 13.7011C9.81302 13.8078 9.86935 13.8088 10.1018 13.6919C10.2841 13.6006 10.5472 13.5258 10.6916 13.5134C10.962 13.5001 10.962 13.5001 10.7899 13.3924C10.6916 13.3309 10.4827 13.3371 10.2974 13.415Z" fill="#008000"/>
<path d="M5.77508 10.1551C6.07456 10.7258 7.29184 12.0413 7.9681 12.5443C8.15166 12.6797 8.48013 12.8151 8.683 12.8441L9.05978 12.9022L8.77961 12.5926C8.32555 12.0993 7.62997 11.1514 7.40777 10.7355C7.16624 10.2809 7.13726 10.3969 7.34014 10.9773C7.41743 11.2094 7.72658 11.6737 8.02606 12.0026C8.32555 12.3411 8.51877 12.6217 8.47046 12.6217C8.34487 12.6217 7.53336 11.6641 6.9537 10.8322C6.32575 9.92299 6.29676 9.89397 6.47066 10.3969C6.55761 10.6388 6.75083 10.9966 6.91506 11.1901C7.06964 11.3932 7.16624 11.5577 7.11794 11.5577C7.02133 11.5577 6.59625 11.074 6.0649 10.3776C5.91999 10.1745 5.71711 9.91332 5.63016 9.79724C5.53355 9.6715 5.60118 9.83593 5.77508 10.1551Z" fill="#008000"/>
<path d="M6.34074 13.8984C5.92533 13.9951 5.70312 14.1402 5.70312 14.3143C5.70312 14.382 5.74177 14.3724 5.79007 14.295C5.86736 14.1692 6.65955 13.9371 6.73684 14.0145C6.75616 14.0338 6.72718 14.1789 6.66921 14.324C6.61125 14.4691 6.59193 14.6142 6.62091 14.6432C6.64989 14.6819 6.6982 14.6045 6.72718 14.4981C6.84311 14.0822 7.20056 13.9564 8.06038 14.0338C8.49512 14.0725 8.97817 14.1209 9.13274 14.1306C9.29698 14.1402 9.51918 14.1983 9.63511 14.266C9.88629 14.4014 10.862 14.4111 10.7751 14.2756C10.7461 14.2273 10.5626 14.1596 10.3597 14.1306C10.1665 14.1015 9.7607 14.0048 9.46121 13.9274C8.86224 13.7727 6.94938 13.7533 6.34074 13.8984Z" fill="#008000"/>
<path d="M9.87022 15.015C9.1421 14.8849 8.79582 15.0011 8.5013 15.4556L8.25 15.8459L8.5732 15.5391C9.01226 15.1123 9.33134 15.0711 10.1205 15.3007C10.4897 15.41 10.8028 15.4814 10.8136 15.4654C10.8731 15.3772 10.2504 15.0734 9.87022 15.015Z" fill="#008000"/>
<path d="M10.0688 15.2181C9.39253 15.5179 9.17033 15.8081 9.17999 16.3498L9.18965 16.814L9.28626 16.3788C9.41185 15.7791 9.65337 15.5663 10.4359 15.3148C10.803 15.1987 11.1025 15.0826 11.1025 15.0633C11.1025 14.9569 10.4166 15.0536 10.0688 15.2181Z" fill="#008000"/>
<path d="M9.93921 16.0485C9.82328 16.2032 9.73633 16.4063 9.73633 16.5127C9.73633 16.6385 9.78463 16.6095 9.91989 16.387C10.0262 16.2129 10.2097 16.0098 10.3256 15.9227C10.5478 15.7679 10.5478 15.7679 10.345 15.7679C10.229 15.7679 10.0551 15.884 9.93921 16.0485Z" fill="#008000"/>
<path d="M20.3843 17.6248C20.698 17.7609 22.3256 18.1719 23.4772 18.5095C24.6288 18.8472 25.9753 19.2359 26.2733 19.2778C26.6993 18.3482 25.9241 20.087 26.3665 19.0331C25.7913 18.8865 23.5243 18.3525 22.6145 18.0907C21.8302 17.8709 20.7176 17.5279 20.4327 17.4651C20.1477 17.4023 20.1438 17.5201 20.3843 17.6248Z" fill="#008000"/>
<path d="M20.5843 17.3834C20.9026 17.5085 22.5435 17.8623 23.7062 18.1596C24.8689 18.4568 26.2281 18.7982 26.5274 18.8296C26.9207 17.8857 26.2065 19.6505 26.612 18.5819C26.032 18.4555 23.7478 18.001 22.8294 17.7712C22.0379 17.5788 20.914 17.275 20.6271 17.2221C20.3401 17.1693 20.3403 17.2872 20.5843 17.3834Z" fill="#008000"/>
<path d="M20.1328 17.8001C20.439 17.9525 22.0428 18.4482 23.1752 18.8457C24.3076 19.2433 25.6319 19.702 25.9273 19.7594C26.4013 18.8534 25.5362 20.5492 26.0332 19.52C25.4665 19.3435 23.2305 18.6914 22.3356 18.3823C21.5639 18.1216 20.4707 17.7208 20.1894 17.6432C19.9081 17.5655 19.8981 17.683 20.1328 17.8001Z" fill="#008000"/>
<path d="M19.9375 17.9982C20.2353 18.1664 21.8111 18.7455 22.9212 19.2018C24.0312 19.6581 25.3297 20.1856 25.6217 20.2585C26.1424 19.3785 25.1899 21.0267 25.7399 20.0249C25.1832 19.8189 22.9844 19.0505 22.1069 18.695C21.3499 18.3943 20.2792 17.9367 20.0023 17.8444C19.7255 17.7521 19.7093 17.8689 19.9375 17.9982Z" fill="#008000"/>
<path d="M19.7545 18.2477C20.0462 18.4262 21.6008 19.06 22.6943 19.5548C23.7878 20.0497 25.0671 20.6222 25.3564 20.7052C25.9075 19.844 24.8981 21.4579 25.4827 20.4759C24.9335 20.2506 22.7628 19.4059 21.8982 19.0199C21.1521 18.6929 20.098 18.1982 19.8245 18.0963C19.5511 17.9944 19.5308 18.1105 19.7545 18.2477Z" fill="#008000"/>
<path d="M16.4952 20.755C16.9437 21.0679 17.1904 21.5027 17.166 21.9514L17.1494 22.3221L17.2967 21.9574C17.4577 21.5758 17.4356 20.998 17.2453 20.5701L17.1343 20.3205L17.4868 20.4742C17.9905 20.6869 18.3222 21.0608 18.3914 21.505L18.4522 21.8709L18.5205 21.4835C18.5988 21.0766 18.4572 20.5163 18.1821 20.1373L18.0217 19.9162L18.3984 19.9931C18.9353 20.0963 19.3373 20.3931 19.4974 20.8131L19.6328 21.1585L19.6191 20.7653C19.6112 20.351 19.3563 19.8323 19.0086 19.5189L18.8058 19.336L19.1902 19.3329C19.7368 19.3221 20.1917 19.5286 20.4354 19.9063L20.6395 20.2158L20.5445 19.8341C20.4508 19.4307 20.0938 18.9764 19.6886 18.7421L19.4522 18.6054L19.8277 18.5224C20.36 18.3979 20.8479 18.5054 21.1647 18.824L21.4286 19.0843L21.2564 18.7307C21.081 18.3555 20.6373 17.9854 20.1924 17.8406L19.9328 17.7563L20.2828 17.5969C20.7776 17.3644 21.2771 17.3679 21.6531 17.6135L21.9654 17.8132L21.7236 17.5031C21.474 17.1726 20.9633 16.903 20.4979 16.8541L20.2266 16.8256L20.5358 16.5968C20.9716 16.2664 21.4609 16.1657 21.8797 16.3278L22.2267 16.4581L21.9257 16.2052C21.613 15.9339 21.0574 15.7764 20.5921 15.8255L20.3207 15.854L20.5756 15.5658C20.9332 15.1519 21.391 14.9516 21.8343 15.023L22.2007 15.0782L21.8538 14.8935C21.4916 14.6933 20.9154 14.6549 20.4705 14.7996L20.2109 14.884L20.4003 14.5491C20.6642 14.0698 21.0704 13.7787 21.5188 13.7561L21.8887 13.7339L21.511 13.6255C21.1151 13.505 20.5436 13.5875 20.1384 13.8216L19.902 13.9582L20.0179 13.5911C20.1765 13.0674 20.5132 12.6981 20.9472 12.5827L21.3044 12.4839L20.9125 12.4565C20.5002 12.421 19.9583 12.6206 19.6106 12.934L19.4078 13.1169L19.4449 12.7338C19.4912 12.1883 19.744 11.7571 20.1445 11.5537L20.4734 11.3829L20.0843 11.4376C19.6737 11.4887 19.1851 11.7967 18.9101 12.1757L18.7497 12.3968L18.7064 12.0143C18.6385 11.4713 18.7961 10.9967 19.1457 10.7145L19.4318 10.4789L19.0626 10.6134C18.6716 10.7489 18.2577 11.1519 18.0673 11.5798L17.9563 11.8296L17.8345 11.4644C17.6553 10.9474 17.711 10.4503 17.9943 10.1016L18.2254 9.81156L17.8921 10.0199C17.5378 10.2338 17.2166 10.7142 17.1193 11.1724L17.0625 11.4397L16.8676 11.108C16.5849 10.6394 16.5362 10.1418 16.7409 9.74159L16.9066 9.40984L16.6239 9.68298C16.3217 9.96606 16.1073 10.5029 16.1073 10.9713V11.2445L15.8477 10.9605C15.474 10.5613 15.323 10.0845 15.4401 9.65047L15.5332 9.29138L15.3134 9.61759C15.0766 9.95722 14.9783 10.5269 15.0756 10.9852L15.1323 11.2525L14.8194 11.0287C14.3709 10.7159 14.1242 10.281 14.1486 9.83211L14.1651 9.4615L14.0179 9.82632C13.8569 10.2079 13.8791 10.7855 14.0693 11.2135L14.1803 11.4632L13.8278 11.3095C13.3241 11.0969 12.9924 10.7229 12.9231 10.2788L12.8624 9.91281L12.7942 10.3002C12.7159 10.7069 12.8574 11.2675 13.1325 11.6464L13.2929 11.8674L12.9162 11.7905C12.3793 11.6873 11.9773 11.3906 11.8173 10.9705L11.6818 10.6252L11.6955 11.0184C11.7034 11.4326 11.9584 11.9513 12.306 12.2647L12.5089 12.4476L12.1244 12.4507C11.5778 12.4615 11.1229 12.2549 10.8792 11.8774L10.675 11.5678L10.7701 11.9495C10.8638 12.353 11.2208 12.8074 11.626 13.0416L11.8623 13.1782L11.4869 13.2613C10.9546 13.3856 10.4667 13.2783 10.1499 12.9598L9.88597 12.6994L10.0582 13.053C10.2337 13.4282 10.6773 13.7982 11.1223 13.943L11.3819 14.0274L11.0319 14.1868C10.537 14.4194 10.0375 14.4158 9.66141 14.1702L9.34912 13.9705L9.59099 14.2804C9.84052 14.6109 10.3513 14.8805 10.8166 14.9295L11.088 14.9581L10.7788 15.1868C10.343 15.5173 9.85368 15.6178 9.43484 15.4558L9.08789 15.3256L9.38885 15.5784C9.70156 15.8498 10.2572 16.0072 10.7225 15.9582L10.9939 15.9297L10.7389 16.2178C10.3813 16.6318 9.92356 16.8319 9.48023 16.7607L9.11384 16.7054L9.4608 16.8902C9.82304 17.0905 10.3992 17.1288 10.8442 16.984L11.1037 16.8996L10.9142 17.2346C10.6504 17.7139 10.2442 18.0051 9.79575 18.0276L9.42589 18.0497L9.8036 18.1582C10.1995 18.2787 10.771 18.1962 11.1762 17.9621L11.4126 17.8254L11.2967 18.1924C11.1382 18.7163 10.8014 19.0856 10.3674 19.201L10.0102 19.2998L10.4022 19.3272C10.8144 19.3626 11.3563 19.163 11.704 18.8495L11.9068 18.6667L11.8697 19.05C11.8234 19.5952 11.5707 20.0266 11.1701 20.2298L10.8412 20.4008L11.2303 20.3461C11.641 20.295 12.1296 19.9868 12.4046 19.6079L12.565 19.3869L12.6083 19.7694C12.6762 20.3124 12.5185 20.7869 12.169 21.0691L11.8828 21.3048L12.252 21.1703C12.643 21.0349 13.057 20.6317 13.2473 20.2038L13.3582 19.9542L13.48 20.3192C13.6592 20.8364 13.6036 21.3333 13.3202 21.6821L13.0892 21.9722L13.4224 21.7637C13.7768 21.5498 14.098 21.0694 14.1953 20.6112L14.252 20.344L14.447 20.6758C14.7296 21.1442 14.7784 21.642 14.5737 22.0421L14.408 22.3739L14.6907 22.1006C14.9928 21.8177 15.2073 21.2809 15.2073 20.8124V20.5391L15.4669 20.8231C15.8406 21.2225 15.9916 21.6992 15.8746 22.1332L15.7813 22.4923L16.0011 22.1661C16.2379 21.8263 16.3362 21.2568 16.2389 20.7985L16.1822 20.5313L16.4952 20.755Z" fill="#FCDD09"/>
<rect width="32" height="24" fill="url(#paint0_linear_230_26578)" style="mix-blend-mode:overlay"/>
</g>
<rect x="0.5" y="0.5" width="31" height="23" rx="1.5" stroke="black" stroke-opacity="0.1"/>
<defs>
<linearGradient id="paint0_linear_230_26578" x1="16" y1="0" x2="16" y2="24" gradientUnits="userSpaceOnUse">
<stop stop-color="white" stop-opacity="0.7"/>
<stop offset="1" stop-opacity="0.3"/>
</linearGradient>
<clipPath id="clip0_230_26578">
<rect width="32" height="24" rx="2" fill="white"/>
</clipPath>
</defs>
</svg>
