<svg width="32" height="24" viewBox="0 0 32 24" fill="none" xmlns="http://www.w3.org/2000/svg">
<g clip-path="url(#clip0_230_24733)">
<mask id="mask0_230_24733" style="mask-type:luminance" maskUnits="userSpaceOnUse" x="0" y="0" width="32" height="24">
<rect width="32" height="24" fill="white"/>
</mask>
<g mask="url(#mask0_230_24733)">
<path fill-rule="evenodd" clip-rule="evenodd" d="M0 0V24H32V0H0Z" fill="#F7FCFF"/>
<mask id="mask1_230_24733" style="mask-type:luminance" maskUnits="userSpaceOnUse" x="0" y="0" width="32" height="24">
<path fill-rule="evenodd" clip-rule="evenodd" d="M0 0V24H32V0H0Z" fill="white"/>
</mask>
<g mask="url(#mask1_230_24733)">
<path fill-rule="evenodd" clip-rule="evenodd" d="M0 0V8H32V0H0Z" fill="#FECA00"/>
<path fill-rule="evenodd" clip-rule="evenodd" d="M0 16V24H32V16H0Z" fill="#009933"/>
<path d="M0 7H-1V8V16V17H0H32H33V16V8V7H32H0Z" fill="#272727" stroke="white" stroke-width="2"/>
</g>
<path fill-rule="evenodd" clip-rule="evenodd" d="M0 0V24L18 12L0 0Z" fill="#F50100"/>
<mask id="mask2_230_24733" style="mask-type:luminance" maskUnits="userSpaceOnUse" x="0" y="0" width="18" height="24">
<path fill-rule="evenodd" clip-rule="evenodd" d="M0 0V24L18 12L0 0Z" fill="white"/>
</mask>
<g mask="url(#mask2_230_24733)">
<path fill-rule="evenodd" clip-rule="evenodd" d="M8.0689 14.3532L4.28997 17.4037L6.02334 13.3271L3.04492 10.4588H6.56053L8.00311 7L9.5353 10.4588H13.0449L9.90917 13.3271L11.4785 17.4037L8.0689 14.3532Z" fill="#FECA00"/>
<path fill-rule="evenodd" clip-rule="evenodd" d="M6.15653 11.9842L5.51562 14.1246C5.51562 14.1246 7.67926 14.1032 7.93913 14.3218C8.72213 13.8336 10.3341 14.1246 10.3341 14.1246L9.47671 11.8339C9.47671 11.8339 8.38966 11.3413 7.93913 11.6114C6.83484 11.3619 6.15653 11.9842 6.15653 11.9842Z" fill="#F7FCFF"/>
<path d="M11.5639 15.2162C11.73 15.4368 11.6859 15.7503 11.4653 15.9164C11.2447 16.0825 10.9312 16.0383 10.7651 15.8177L6.58498 10.2665C6.41887 10.0459 6.46304 9.73241 6.68364 9.5663C6.90423 9.40019 7.21772 9.44436 7.38383 9.66496L11.5639 15.2162Z" fill="black"/>
<path d="M6.97422 9.83974L6.57422 9.35974" stroke="black" stroke-linecap="round" stroke-linejoin="round"/>
<path fill-rule="evenodd" clip-rule="evenodd" d="M5.60499 9.36255L4.39648 11.2979L5.00074 12.3446L6.38292 10.2903L6.63153 9.65514L6.38292 9.36255H5.60499Z" fill="black"/>
<path fill-rule="evenodd" clip-rule="evenodd" d="M4.03906 15.1085L4.62168 15.9303L9.1173 10.6112L9.30378 10.8196L10.3401 9.84465L11.9962 8.04297L10.3401 9.39656L9.80447 9.24805L9.30378 10.0346H8.80149L5.12941 14.1223L4.03906 15.1085Z" fill="black"/>
</g>
</g>
<rect width="32" height="24" fill="url(#paint0_linear_230_24733)" style="mix-blend-mode:overlay"/>
</g>
<rect x="0.5" y="0.5" width="31" height="23" rx="1.5" stroke="black" stroke-opacity="0.1"/>
<defs>
<linearGradient id="paint0_linear_230_24733" x1="16" y1="0" x2="16" y2="24" gradientUnits="userSpaceOnUse">
<stop stop-color="white" stop-opacity="0.7"/>
<stop offset="1" stop-opacity="0.3"/>
</linearGradient>
<clipPath id="clip0_230_24733">
<rect width="32" height="24" rx="2" fill="white"/>
</clipPath>
</defs>
</svg>
