<svg width="32" height="24" viewBox="0 0 32 24" fill="none" xmlns="http://www.w3.org/2000/svg">
<g clip-path="url(#clip0_230_26466)">
<mask id="mask0_230_26466" style="mask-type:luminance" maskUnits="userSpaceOnUse" x="0" y="0" width="32" height="24">
<rect width="32" height="24" fill="white"/>
</mask>
<g mask="url(#mask0_230_26466)">
<path fill-rule="evenodd" clip-rule="evenodd" d="M0 0.0999756H32V24.1H0V0.0999756Z" fill="#2B409A"/>
</g>
<rect width="18" height="14" fill="#2B409A"/>
<mask id="mask1_230_26466" style="mask-type:luminance" maskUnits="userSpaceOnUse" x="0" y="0" width="18" height="14">
<rect width="18" height="14" fill="white"/>
</mask>
<g mask="url(#mask1_230_26466)">
<path d="M-2.00586 12.9998L1.95509 14.737L18.0883 1.88872L20.1776 -0.69281L15.9419 -1.27343L9.36159 4.26326L4.06508 7.99369L-2.00586 12.9998Z" fill="#F7FCFF"/>
<path d="M-1.46289 14.2169L0.555031 15.225L19.428 -0.932678H16.5947L-1.46289 14.2169Z" fill="#F50100"/>
<path d="M20.0039 12.9998L16.043 14.737L-0.0902405 1.88872L-2.17955 -0.69281L2.05612 -1.27343L8.63646 4.26326L13.933 7.99369L20.0039 12.9998Z" fill="#F7FCFF"/>
<path d="M19.8691 13.8733L17.8512 14.8815L9.81489 7.96351L7.43229 7.19059L-2.3802 -0.683947H0.453194L10.2602 7.00368L12.8651 7.9305L19.8691 13.8733Z" fill="#F50100"/>
<mask id="path-11-outside-1_230_26466" maskUnits="userSpaceOnUse" x="-2" y="-2" width="22" height="18" fill="black">
<rect fill="white" x="-2" y="-2" width="22" height="18"/>
<path fill-rule="evenodd" clip-rule="evenodd" d="M9.98451 0H7.98451V6H0V8H7.98451V14H9.98451V8H18V6H9.98451V0Z"/>
</mask>
<path fill-rule="evenodd" clip-rule="evenodd" d="M9.98451 0H7.98451V6H0V8H7.98451V14H9.98451V8H18V6H9.98451V0Z" fill="#F50100"/>
<path d="M7.98451 0V-1.5H6.48451V0H7.98451ZM9.98451 0H11.4845V-1.5H9.98451V0ZM7.98451 6V7.5H9.48451V6H7.98451ZM0 6V4.5H-1.5V6H0ZM0 8H-1.5V9.5H0V8ZM7.98451 8H9.48451V6.5H7.98451V8ZM7.98451 14H6.48451V15.5H7.98451V14ZM9.98451 14V15.5H11.4845V14H9.98451ZM9.98451 8V6.5H8.48451V8H9.98451ZM18 8V9.5H19.5V8H18ZM18 6H19.5V4.5H18V6ZM9.98451 6H8.48451V7.5H9.98451V6ZM7.98451 1.5H9.98451V-1.5H7.98451V1.5ZM9.48451 6V0H6.48451V6H9.48451ZM0 7.5H7.98451V4.5H0V7.5ZM1.5 8V6H-1.5V8H1.5ZM7.98451 6.5H0V9.5H7.98451V6.5ZM9.48451 14V8H6.48451V14H9.48451ZM9.98451 12.5H7.98451V15.5H9.98451V12.5ZM8.48451 8V14H11.4845V8H8.48451ZM18 6.5H9.98451V9.5H18V6.5ZM16.5 6V8H19.5V6H16.5ZM9.98451 7.5H18V4.5H9.98451V7.5ZM8.48451 0V6H11.4845V0H8.48451Z" fill="#F7FCFF" mask="url(#path-11-outside-1_230_26466)"/>
</g>
<path d="M24.3195 18.5514C24.2581 18.5514 24.0351 18.4313 24.0351 18.4313C24.0351 18.4313 23.8736 18.687 23.789 18.7017C23.7043 18.7168 23.2661 18.5442 23.2661 18.5442C23.2661 18.5442 22.9585 18.7844 22.8893 18.7693C22.8201 18.7546 22.1127 18.6043 22.1127 18.6043L21.7283 18.3637C21.7283 18.3637 21.513 18.7093 21.5053 18.7017C21.4976 18.6942 20.8594 18.5741 20.8594 18.5741C20.8594 18.5741 21.0516 18.3112 21.0516 18.3037C21.0516 18.2961 20.9593 18.2659 20.9593 18.2659L20.821 18.3788L20.252 18.4313L20.3904 18.0405L20.6134 17.71L23.343 15.1176L24.6886 17.5446L24.4888 18.2735C24.4888 18.2735 24.381 18.5514 24.3195 18.5514Z" fill="#6A4C2D"/>
<path d="M21.7117 18.0609C21.8067 18.1758 23.0592 19.4561 23.2623 20.0618C23.4653 20.6675 21.6152 19.8938 21.6152 19.8938C21.6152 19.8938 23.9448 18.3807 25.1085 18.3807C26.2723 18.3807 28.5594 19.8938 28.5594 19.8938C28.5594 19.8938 27.0246 20.9747 27.0404 20.2932C27.0562 19.6116 27.7608 18.2691 28.6018 18.0609" stroke="#FFBB00" stroke-width="0.5" stroke-linecap="round" stroke-linejoin="round"/>
<path d="M29.5422 18.16L29.1596 18.0175L28.8208 17.5689L27.4179 17.4657L26.1389 17.1167L25.5996 17.4764L25.89 17.8556L26.5996 18.1167L29.5422 18.16Z" fill="#F7FCFF"/>
<path d="M23.939 9.8661C23.952 9.89886 24.2381 9.84077 24.2989 10.0121C24.6068 9.55747 24.9681 9.99107 24.9681 9.99107L25.2722 9.63104L25.6155 9.95616L25.9305 9.93164L26.2597 10.7042L23.6621 10.6555C23.6621 10.6555 23.926 9.83333 23.939 9.8661Z" fill="#656263"/>
<path d="M26.6323 13.1539C26.6114 12.9093 26.3945 12.8807 26.2735 12.8888C26.1522 12.897 26.0438 12.9989 26.0438 12.9989L25.6432 12.7502C25.6432 12.7502 25.8436 11.5145 26.0563 11.4371C26.2584 11.2947 26.2941 11.233 26.2941 11.2007C26.2941 11.168 26.2191 11.0356 26.2191 11.0356L24.9128 10.8846L23.6775 11.0274C23.6775 11.0274 23.5816 11.2208 23.5942 11.278C23.6067 11.3349 23.6109 11.3962 23.832 11.5635C24.0768 11.7475 24.2451 12.8033 24.2451 12.8033C24.2451 12.8033 23.8989 12.9703 23.878 12.9498C23.8571 12.9297 23.7528 12.9093 23.6984 12.9174C23.6444 12.9256 23.4648 13.0152 23.4648 13.2476C23.4648 13.4803 23.6444 13.6149 23.6444 13.6149C23.6444 13.6149 24.8253 14.4803 25.0006 14.7982C25.1718 14.4149 26.2941 13.5495 26.4276 13.484C26.482 13.4517 26.6532 13.3985 26.6323 13.1539Z" fill="#656263"/>
<path d="M27.8108 12.0015C27.9089 11.9377 28.5624 11.9056 28.7195 12.0015C28.8762 12.0974 28.935 12.57 28.935 12.57C28.935 12.57 29.0332 12.736 29.0396 12.8574C29.046 12.9788 29.0592 13.0618 29.0592 13.0618C29.0592 13.0618 29.5821 13.7262 29.5885 14.3264C29.6474 14.7352 29.6342 15.8272 29.4711 16.2423C29.4643 16.7598 29.2423 17.0981 29.2423 17.0981C29.2423 17.0981 29.2944 17.1874 29.288 17.2833C29.2813 17.3792 29.2291 17.4685 29.2291 17.4685L28.7391 17.6792L28.1966 17.5899L27.582 15.7951L27.7259 12.7615L27.7651 12.6084L27.6998 12.1996C27.6998 12.1996 27.713 12.0654 27.8108 12.0015Z" fill="black"/>
<path d="M24.2627 13.5941C24.2627 13.5941 24.9239 13.5941 24.9954 13.8038C25.1205 13.5243 25.6923 13.5419 25.6923 13.5419C26.0379 13.5303 26.3835 13.5187 26.7287 13.507C26.7348 14.322 26.7406 15.137 26.7467 15.952C26.5443 16.9007 25.8413 17.5704 25.0668 17.8556C24.1433 17.5644 23.5597 16.8019 23.3692 15.9344C23.3331 15.1603 23.2974 14.3859 23.2617 13.6117C23.5954 13.6058 23.9291 13.6001 24.2627 13.5941Z" fill="#F7FCFF"/>
<path d="M23.6191 13.6026L25.077 17.399L26.394 13.5199C25.9854 13.5457 25.1089 13.457 25.0001 13.8211C24.8315 13.4954 23.9094 13.6268 23.6191 13.6026V13.6026Z" fill="#006B00"/>
<path fill-rule="evenodd" clip-rule="evenodd" d="M25.3082 14.1979C25.3082 14.1979 25.4408 14.5439 25.3082 14.7151C25.1757 14.8863 25.3192 15.0266 25.3992 15.0266C25.4792 15.0266 25.7537 15.2985 25.531 15.2985C25.3082 15.2985 25.1825 15.2139 25.1825 15.4529C25.1825 15.6919 25.4902 16.7681 25.3992 17.0261C25.3082 17.2842 25.3309 17.4817 25.4614 17.4161C25.5919 17.3505 25.6734 17.1819 25.6022 16.8572C25.531 16.5326 25.4614 16.6092 25.4614 16.3286C25.4614 16.048 25.531 15.7357 25.531 15.7357C25.531 15.7357 25.648 15.8235 25.5648 16.1438C25.4815 16.4641 25.6679 16.906 25.6679 17.0261C25.6679 17.1463 25.6734 17.477 25.6022 17.5098C25.531 17.5426 25.4656 17.7423 25.3992 17.5901C25.3328 17.4379 25.2912 17.1869 25.2061 17.3596C25.121 17.5323 25.1374 17.9294 25.0489 17.9485C24.9604 17.9677 24.8282 18.1559 24.8282 18.0803C24.8282 18.0048 24.7036 17.8683 24.7415 17.7412C24.7795 17.614 24.8128 17.5991 24.8435 17.721C24.8743 17.8429 25.0036 17.8417 25.0036 17.7412C25.0036 17.6406 24.9583 17.6897 25.0036 17.4608C25.0489 17.2318 25.0993 16.9289 25.0036 16.9471C24.9079 16.9653 24.7611 17.1143 24.7415 16.8394C24.722 16.5644 24.6434 16.4357 24.7067 16.3821C24.7699 16.3286 24.8542 16.1373 24.8813 16.2877C24.9083 16.4382 24.7894 16.5819 24.8088 16.6361C24.8282 16.6903 24.839 16.8131 24.9213 16.7102C25.0036 16.6074 25.052 16.4378 25.1136 16.595C25.1752 16.7522 25.1765 16.6282 25.0489 16.3286C24.9213 16.0291 24.8129 15.8624 24.8282 15.5995C24.8435 15.3365 24.8229 15.238 24.8435 15.1535C24.8642 15.0689 24.615 14.6573 24.6783 14.5387C24.7415 14.4202 24.7658 14.0375 24.8435 14.1064C24.9213 14.1753 24.9613 14.2678 24.9213 14.3708C24.8813 14.4738 24.8412 14.5762 24.8813 14.6456C24.9213 14.7151 25.0587 14.9157 25.0862 14.8653C25.1136 14.8148 25.2061 14.8636 25.2061 14.5779C25.2061 14.2922 25.103 14.1917 25.168 14.1239C25.2329 14.0561 25.3082 14.1979 25.3082 14.1979Z" fill="#FFD100"/>
<path d="M26.4016 13.5205L26.5982 13.5158L26.2472 13.9504L26.6684 14.4308L25.8398 15.4508L26.6217 16.3702C26.5358 16.5762 26.4361 16.7636 26.3032 16.933L25.854 16.4479L26.6684 15.4555L25.9991 14.7144L26.4016 13.5205Z" fill="#1E5AA6"/>
<path d="M23.3829 13.612L23.776 14.028L23.3597 14.5358L24.2255 15.4555L23.5093 16.3932C23.5952 16.5991 23.7185 16.8277 23.851 16.9969L24.277 16.4708L23.4018 15.5194L24.0431 14.7235L23.5936 13.6073L23.3829 13.612Z" fill="#1E5AA6"/>
<path d="M24.5667 16.0775L24.2578 16.4799L25.3624 17.7289C25.5574 17.6327 25.7106 17.5229 25.8776 17.3905L25.3016 16.7409L25.5358 16.0684L25.8727 16.4479L24.8196 17.7609C24.6433 17.6877 24.4483 17.5732 24.272 17.4314L24.8289 16.7409L24.5667 16.0775Z" fill="#1E5AA6"/>
<path d="M28.3864 12.8511C28.3864 12.9149 28.456 16.6832 28.5323 16.6472C28.7218 16.5576 28.7655 16.7532 28.7655 16.7532C28.7655 16.7532 28.8308 17.3729 28.6673 17.4559C28.3732 17.609 28.2446 17.6428 28.2446 17.6428L27.9617 17.4367C27.9617 17.4367 27.674 17.0343 27.6087 16.8554C27.5434 16.6768 27.4649 15.8784 27.491 15.7058C27.517 15.5335 27.5367 14.5242 27.5238 14.4732C27.5106 14.422 27.4585 13.579 27.491 13.4513C27.5238 13.3237 27.7262 12.7615 27.7197 12.7615C27.7197 12.7615 28.3864 12.7873 28.3864 12.8511Z" fill="url(#paint0_linear_230_26466)"/>
<path d="M27.732 12.2059C27.8691 12.2059 27.9737 12.321 28.0065 12.4232C28.0129 12.4679 27.9933 12.4999 27.9997 12.5829C28.0065 12.6659 27.0064 12.6018 27 12.5955C27 12.5955 27.464 12.155 27.732 12.2059Z" fill="#FF7000"/>
<path d="M28.8301 17.6666C28.8301 17.6666 29.1438 17.5962 29.2287 17.4877C29.2812 17.4493 29.5557 17.8901 28.8301 17.6666Z" fill="white" stroke="black" stroke-width="0.5" stroke-linejoin="round"/>
<path d="M28.309 12.4603C28.309 12.488 28.2866 12.5103 28.259 12.5103C28.2314 12.5103 28.209 12.488 28.209 12.4603C28.209 12.4327 28.2314 12.4103 28.259 12.4103C28.2866 12.4103 28.309 12.4327 28.309 12.4603Z" fill="black"/>
<path d="M25.8207 11.9088C25.8207 11.9088 26.3413 12.4593 26.6782 12.4533C26.7393 12.615 26.525 12.7653 26.4395 12.837C26.268 12.7832 26.1129 12.8467 25.7148 12.3681C25.7396 12.0628 25.8268 11.9207 25.8207 11.9088Z" fill="#F7FCFF"/>
<path d="M27.8909 9.138C27.9399 9.49111 27.888 9.57309 27.865 9.72137C27.842 9.86964 28.7694 9.92439 29.0082 9.63103C28.9837 9.76277 28.7053 10.2989 27.4437 10.2929C27.9215 10.7359 27.2909 11.089 27.0212 10.9812C27.5174 10.6102 26.8806 10.3888 26.5254 10.6281C26.5926 10.4246 27.0888 9.40149 27.8909 9.138Z" fill="#F7FCFF"/>
<path fill-rule="evenodd" clip-rule="evenodd" d="M27.0514 11.6166C26.9568 11.2278 26.911 10.781 27.1201 10.6102C26.8444 10.4247 26.5445 10.6161 26.5445 10.6161C26.5425 10.6208 26.5368 10.6286 26.5288 10.6397C26.4647 10.7283 26.2505 11.0244 26.5445 11.5563C25.7607 11.3529 26.0886 12.0644 26.1465 12.1182C26.177 12.0043 26.5934 11.8968 26.6977 12.4773C26.7327 12.5949 26.5216 12.7645 26.4538 12.8189C26.4388 12.831 26.4308 12.8374 26.4341 12.8363C26.4341 12.8363 27.0974 12.971 27.1833 12.0946C27.2968 12.0271 27.847 11.6602 27.8303 10.9035C27.3247 10.9139 27.1013 11.4709 27.0514 11.6166Z" fill="#0000FF"/>
<path d="M24.0875 12.0644C24.0875 12.0644 23.5795 12.4952 23.2915 12.3574C23.0772 12.4832 22.8262 12.2619 22.8262 12.2619C22.8262 12.2619 23.12 13.3209 24.1735 12.5549C24.1551 12.3216 24.0998 12.0823 24.0875 12.0644Z" fill="#F7FCFF"/>
<path d="M23.2861 12.3396C23.3288 12.1182 23.5065 12.0103 23.6474 12.2198C23.8372 12.2559 24.0271 11.4959 23.3533 11.6214C23.5431 10.6281 22.9738 10.2571 22.9738 10.2571C22.9738 10.2571 22.7717 11.3582 22.8636 11.5617C22.9554 11.7651 22.7289 11.1846 22.0001 11.023C21.9879 11.855 22.8146 12.244 22.8146 12.244C22.8146 12.244 23.0473 12.4534 23.2861 12.3396Z" fill="#0000FF"/>
<path d="M22.5973 11.1388C22.3829 11.2045 21.8618 10.8903 22.1924 10.4831C21.1085 10.4592 20.5184 9.54352 20.8797 9.71813C21.2409 9.89274 21.4991 9.52066 21.7685 9.71813C21.4378 9.4191 21.8839 9.17981 21.8839 9.17981C21.8839 9.17981 22.8086 9.44928 22.9739 10.2511C22.9188 10.4067 22.8943 10.6818 22.8821 10.6699C22.8821 10.6639 22.3095 10.6599 22.5973 11.1388Z" fill="#F7FCFF"/>
<path d="M24.3285 7.43122C24.3333 7.40377 25.0261 7.16583 25.0728 6.77249C25.1194 6.37915 25.0634 6.64439 25.0634 6.64439C25.0634 6.64439 25.2555 6.46602 25.1854 6.36993C25.1149 6.27388 25.1384 6.49347 25.0261 6.48888C24.9138 6.48429 24.9746 6.25101 24.9746 6.25101C24.9746 6.25101 24.9653 6.22356 24.9325 6.20984C24.8855 6.21441 24.778 6.11377 24.778 6.11377C24.778 6.11377 24.7079 6.02229 24.6467 6.31047C24.6796 6.61697 24.881 6.55748 24.881 6.75879C24.881 6.96006 24.7031 7.11557 24.6516 7.12016C24.6001 7.12472 24.6187 6.95091 24.6187 6.95091C24.6187 6.95091 24.5908 6.86856 24.5721 6.86856C24.5534 6.86856 24.6751 6.85026 24.6564 6.62154C24.6142 6.34707 24.5814 6.68559 24.5065 6.67185C24.4315 6.65814 24.4878 6.42027 24.5158 6.39282C24.5438 6.36537 24.483 6.25102 24.3192 6.54378C24.305 6.68559 24.2864 6.50718 24.2535 6.51633C24.1976 6.63069 24.2069 6.71304 24.2864 6.81825C24.4035 6.92346 24.4785 7.02866 24.4736 7.08356C24.4691 7.13846 24.408 7.26197 24.324 7.26197C24.2397 7.26197 24.3285 7.11101 24.324 7.06067C24.3192 7.01036 24.1789 6.8274 24.1789 6.8274C24.1789 6.8274 24.0804 6.67185 24.0898 6.66729C24.0991 6.6627 23.8652 6.89142 24.0055 7.01036C23.898 6.99666 23.8887 7.03781 23.8887 7.03781C23.8887 7.09271 24.0338 7.11557 24.0524 7.21163C24.0711 7.30772 23.9025 7.36259 23.9025 7.36259C23.9025 7.36259 23.973 7.45865 24.1692 7.27112C24.1741 7.39004 24.0946 7.47239 24.0946 7.47239C24.1599 7.50135 24.2114 7.4983 24.2207 7.57304C24.2207 7.57303 24.324 7.45864 24.3285 7.43122Z" fill="#CDAD56"/>
<path d="M23.578 7.57301C23.578 7.57301 23.4905 7.44608 23.4866 7.42108C23.4824 7.39611 23.0561 7.45265 22.8544 6.94446C22.7232 6.70304 22.8544 6.84457 22.8544 6.84457L22.8624 6.72801C22.8624 6.72801 22.7228 6.56111 22.7824 6.4737C22.842 6.38629 22.8175 6.58608 22.8942 6.58649C22.9895 6.58233 22.9379 6.37003 22.9379 6.37003C22.9379 6.37003 22.9458 6.34507 22.9737 6.33258C23.0133 6.33673 23.0297 6.46197 23.0654 6.4703C23.1012 6.47864 23.1752 6.32293 23.1983 6.29091C23.2312 6.28633 23.2299 6.16192 23.2817 6.42414C23.254 6.70304 23.0175 6.64893 23.0175 6.83209C23.0175 7.01521 23.1684 7.15674 23.2122 7.16092C23.2559 7.16507 23.2402 7.00691 23.2402 7.00691C23.2402 7.00691 23.264 6.93198 23.2797 6.93198C23.2958 6.93198 23.1407 6.96107 23.1568 6.75294C23.1925 6.55809 23.2717 6.76549 23.3354 6.75298C23.3991 6.74049 23.328 6.54693 23.3463 6.51737C23.3505 6.48782 23.4442 6.36088 23.4805 6.64101C23.4924 6.77005 23.5645 6.52995 23.5922 6.53828C23.6401 6.64233 23.5713 6.78131 23.5037 6.87705C23.4043 6.97276 23.3592 7.07766 23.3634 7.12762C23.3673 7.17755 23.3907 7.23962 23.4625 7.23962C23.5339 7.23962 23.4866 7.15259 23.4905 7.1068C23.4944 7.06102 23.6137 6.9128 23.6137 6.9128C23.6372 6.87623 23.6176 6.80788 23.6424 6.77628C23.6813 6.77668 23.6974 6.72386 23.737 6.86954C23.7769 7.01521 23.8245 6.77379 23.8245 6.77379C23.8245 6.77379 23.8801 6.9528 23.7608 7.06102C23.8522 7.04854 23.8602 7.08599 23.8602 7.08599C23.8602 7.13595 23.8168 7.15674 23.8007 7.24415C23.7846 7.33156 23.8483 7.38152 23.8483 7.38152C23.8483 7.38152 23.7888 7.46893 23.6218 7.29826C23.6176 7.40649 23.6855 7.48142 23.6855 7.48142C23.6295 7.5078 23.5861 7.505 23.578 7.57301Z" fill="#CDAD56"/>
<path d="M24.6765 7.47449C24.5742 7.77342 24.2051 7.66 24.2051 7.66C24.2051 7.66 24.2173 7.80961 24.1807 7.88139C24.2109 7.90367 24.429 8.0715 24.6581 8.1148C24.9876 8.17705 25.6624 8.00673 25.8889 8.2584C26.1154 8.51006 26.1035 8.71319 26.1035 8.71319C26.1035 8.71319 25.8087 8.74685 25.8906 8.85065C25.9438 8.91805 26.0905 8.96813 26.1035 9.0378C26.1449 9.25952 25.9652 9.65848 26.0298 9.80835C25.9278 9.81747 25.9198 9.92186 25.9198 9.92186C25.914 10.0404 25.6196 9.96997 25.6196 9.96997C25.6196 9.96997 25.8033 9.50901 25.8155 9.40148C25.8278 9.29363 25.6868 9.10214 25.5768 9.10214C25.4664 9.10214 25.3869 9.4433 25.3869 9.4433C25.3869 9.4433 25.3319 9.7005 25.3503 9.7244C25.3686 9.74829 25.2766 9.64076 25.2766 9.64076C25.2766 9.64076 25.2477 9.74523 25.2003 9.80835C25.147 9.87934 25.0745 9.90991 25.0745 9.90991C25.0745 9.90991 25.0195 9.75427 25.0378 9.69453C25.0562 9.63478 25.338 9.40148 25.3136 9.23388C25.3026 9.15992 25.2929 9.03082 25.2003 8.98799C25.083 8.93376 24.8679 8.97331 24.7379 8.94656C24.6665 9.06818 24.6337 9.73634 24.6826 9.77848C24.7318 9.8203 24.5603 9.90991 24.5603 9.90991L24.3583 9.91588C24.355 9.82533 24.4773 9.57787 24.4773 9.36846C24.4773 9.15905 24.4928 8.93461 24.4928 8.93461C24.4928 8.93461 24.3569 8.9688 24.2846 9.10214C24.2239 9.21394 24.224 9.42527 24.2296 9.45524C24.2418 9.52096 24.3029 9.70647 24.2846 9.76056C24.2662 9.81432 23.948 9.88601 23.948 9.88601L23.9355 9.71245C23.9355 9.71245 24.0703 9.62881 24.0703 9.4194C24.0703 9.20999 24.0825 8.91065 24.0764 8.89273C24.0727 8.88196 23.9661 8.42369 23.8258 8.1148C23.7323 7.90878 23.5879 7.81439 23.5806 7.79763C23.5622 7.75575 23.5622 7.70786 23.5622 7.70786C23.5622 7.70786 23.3598 7.85149 23.1211 7.54631C23.3399 7.36384 23.5745 7.49842 23.5745 7.49842C23.5745 7.49842 23.6356 7.33086 23.9171 7.34284C24.199 7.35482 24.254 7.5104 24.2418 7.49244C24.2418 7.49244 24.45 7.3129 24.6765 7.47449Z" fill="#923F00"/>
<path d="M25.7811 10.5878C25.7859 10.5878 26.301 10.6029 26.3062 10.8721C26.3113 11.1409 26.1482 11.0714 26.1431 11.0714C26.1379 11.0714 25.7656 11.0265 25.7656 11.0265L25.7811 10.5878Z" fill="#0000FF"/>
<path d="M25.2812 10.513C25.2812 10.513 25.9238 10.5083 25.8881 10.7822C25.8524 11.0563 25.6892 11.0016 25.6892 11.0016L25.3781 10.9765L25.2812 10.513Z" fill="#F7FCFF"/>
<path d="M24.9192 10.4832L25.2915 10.513C25.2915 10.513 25.5158 10.5429 25.5058 10.7523C25.4955 10.9617 25.276 10.9667 25.276 10.9667L24.9141 10.9466L24.9192 10.4832Z" fill="#0000FF"/>
<path d="M24.049 10.5878C24.0438 10.5878 23.5287 10.6029 23.5235 10.8721C23.5187 11.1409 23.6818 11.0714 23.687 11.0714C23.6921 11.0714 24.0644 11.0265 24.0644 11.0265L24.049 10.5878Z" fill="#F7FCFF"/>
<path d="M24.5477 10.513C24.5477 10.513 23.9052 10.5083 23.9409 10.7822C23.9766 11.0563 24.1397 11.0016 24.1397 11.0016L24.4509 10.9765L24.5477 10.513Z" fill="#0000FF"/>
<path d="M24.9092 10.4832L24.5369 10.513C24.5369 10.513 24.3123 10.5429 24.3226 10.7523C24.3329 10.9617 24.552 10.9667 24.552 10.9667L24.914 10.9466L24.9092 10.4832Z" fill="#F7FCFF"/>
<path d="M26.2873 13.1646C26.3857 13.1966 26.3108 13.495 26.2638 13.5227L25.9066 13.5089C25.9066 13.5089 26.1743 13.1234 26.2873 13.1646Z" fill="#5E0043"/>
<path d="M24.0727 13.5778C23.9884 13.463 23.8661 13.1464 23.7535 13.2335C23.6547 13.2655 23.73 13.5639 23.777 13.5916L24.0727 13.5778Z" fill="#5E0043"/>
<path d="M23.6284 11.3636L24.9168 12.1874L26.077 11.4249C26.077 11.4249 26.319 11.2944 26.2981 11.2007C26.2775 11.1067 26.1938 11.1435 26.152 11.1598C26.1105 11.1762 24.9377 11.9877 24.9377 11.9877L23.6899 11.2167C23.6899 11.2167 23.5982 11.1884 23.5815 11.2453C23.5647 11.3026 23.6159 11.335 23.6284 11.3636Z" fill="#B4B6B9"/>
<path d="M27.9475 17.4273C27.9475 17.4273 27.3844 17.5973 27.5413 17.6021C27.6574 17.6057 28.2168 17.6021 28.2168 17.6021L27.9475 17.4273Z" fill="#FF7000"/>
<path d="M28.1754 17.6135L27.6753 17.6276C27.6753 17.6276 27.5495 17.7392 27.5415 17.766C27.5338 17.793 27.6242 17.8006 27.6242 17.8006C27.6242 17.8006 28.14 17.9317 28.5303 17.8468C28.7272 17.7795 28.7616 17.6987 28.6236 17.6496C28.4859 17.6006 28.1792 17.6154 28.1754 17.6135Z" fill="#FF7000"/>
<path d="M22.3913 12.9898C22.3913 12.9898 22.3262 13.1898 22.3913 13.2898C22.4564 13.3898 22.8657 14.1988 22.8657 14.1988C22.8657 14.1988 23.1449 13.8623 23.2472 13.8532C23.3495 13.8444 23.3028 14.7261 23.3028 14.7261C23.3028 14.7261 23.1355 14.8805 23.0332 14.8714C22.9308 14.8622 23.2842 15.2169 23.2749 15.5169C23.2655 15.8168 22.8099 17.3076 22.6425 17.3346C22.475 17.362 22.3305 17.0539 22.3305 16.7877C22.3305 16.5214 22.5029 16.0986 22.4936 15.9804C22.4843 15.8621 21.6616 17.2473 21.6118 17.4636C21.6024 17.5046 21.6565 17.6528 21.6565 17.6528C21.6565 17.6528 21.3341 17.6792 21.4054 18.0892C20.4566 17.7619 19.9915 17.1985 20.0008 16.6259C20.0044 16.4064 19.7951 15.89 20.0008 15.3199C20.332 14.4021 21.1392 13.3545 21.1449 13.2536C21.1542 13.0898 21.2193 13.0172 21.2286 12.9263C21.2379 12.8354 21.2007 12.3716 21.2937 12.2899C21.3868 12.2081 21.8704 12.0082 21.9913 12.0173C22.1123 12.0264 22.2146 12.1081 22.2146 12.1081C22.2146 12.1081 22.6704 12.1081 22.6983 12.2808C22.7262 12.4537 22.6053 12.5172 22.6053 12.5172C22.6053 12.5172 22.6704 12.7628 22.3913 12.9898Z" fill="#8A9396"/>
<path d="M22.6626 18.1455C22.8163 18.2518 23.1713 18.3147 23.1713 18.3147C23.1713 18.3147 22.2993 18.5496 21.4134 18.0936C21.3324 17.7386 21.6035 17.6594 21.6705 17.6566C21.827 17.6157 22.5089 18.0389 22.6626 18.1455Z" fill="#2B2B2B"/>
<path d="M23.7295 18.1079C24.6835 18.6122 24.7856 18.2727 25.4429 17.7934C25.4886 17.7601 25.7055 18.5632 26.6267 18.1079C27.9302 17.4636 25.5092 16.3898 25.167 16.413C24.8248 16.4369 22.7754 17.6036 23.7295 18.1079Z" fill="#00713D"/>
<rect width="32" height="24" fill="url(#paint1_linear_230_26466)" style="mix-blend-mode:overlay"/>
</g>
<rect x="0.5" y="0.5" width="31" height="23" rx="1.5" stroke="black" stroke-opacity="0.1"/>
<defs>
<linearGradient id="paint0_linear_230_26466" x1="28.2763" y1="15.6071" x2="29.0189" y2="15.5989" gradientUnits="userSpaceOnUse">
<stop stop-color="#D5DFFF"/>
<stop offset="1" stop-color="white"/>
</linearGradient>
<linearGradient id="paint1_linear_230_26466" x1="16" y1="0" x2="16" y2="24" gradientUnits="userSpaceOnUse">
<stop stop-color="white" stop-opacity="0.7"/>
<stop offset="1" stop-opacity="0.3"/>
</linearGradient>
<clipPath id="clip0_230_26466">
<rect width="32" height="24" rx="2" fill="white"/>
</clipPath>
</defs>
</svg>
