<svg width="32" height="24" viewBox="0 0 32 24" fill="none" xmlns="http://www.w3.org/2000/svg">
<g clip-path="url(#clip0_230_23435)">
<mask id="mask0_230_23435" style="mask-type:luminance" maskUnits="userSpaceOnUse" x="0" y="0" width="32" height="24">
<rect width="32" height="24" fill="white"/>
</mask>
<g mask="url(#mask0_230_23435)">
<path fill-rule="evenodd" clip-rule="evenodd" d="M0 0V24H32V0H0Z" fill="#FBCD17"/>
<path fill-rule="evenodd" clip-rule="evenodd" d="M0 0V8H32V0H0Z" fill="#73BE4A"/>
<path fill-rule="evenodd" clip-rule="evenodd" d="M0 16V24H32V16H0Z" fill="#73BE4A"/>
<path fill-rule="evenodd" clip-rule="evenodd" d="M0 0V24L10 12L0 0Z" fill="#C51918"/>
<path fill-rule="evenodd" clip-rule="evenodd" d="M17.0018 13.8707L15.1311 15L15.5578 12.7962L14 11.1469L16.1094 11.0578L17.0018 9L17.8942 11.0578H20L18.4458 12.7962L18.9137 15L17.0018 13.8707Z" fill="#272727"/>
<path fill-rule="evenodd" clip-rule="evenodd" d="M25.0018 13.8707L23.1311 15L23.5578 12.7962L22 11.1469L24.1094 11.0578L25.0018 9L25.8942 11.0578H28L26.4458 12.7962L26.9137 15L25.0018 13.8707Z" fill="#272727"/>
</g>
<rect width="32" height="24" fill="url(#paint0_linear_230_23435)" style="mix-blend-mode:overlay"/>
</g>
<rect x="0.5" y="0.5" width="31" height="23" rx="1.5" stroke="black" stroke-opacity="0.1"/>
<defs>
<linearGradient id="paint0_linear_230_23435" x1="16" y1="0" x2="16" y2="24" gradientUnits="userSpaceOnUse">
<stop stop-color="white" stop-opacity="0.7"/>
<stop offset="1" stop-opacity="0.3"/>
</linearGradient>
<clipPath id="clip0_230_23435">
<rect width="32" height="24" rx="2" fill="white"/>
</clipPath>
</defs>
</svg>
