<svg width="32" height="24" viewBox="0 0 32 24" fill="none" xmlns="http://www.w3.org/2000/svg">
<g clip-path="url(#clip0_230_26339)">
<mask id="mask0_230_26339" style="mask-type:luminance" maskUnits="userSpaceOnUse" x="0" y="0" width="32" height="24">
<rect width="32" height="24" fill="white"/>
</mask>
<g mask="url(#mask0_230_26339)">
<path fill-rule="evenodd" clip-rule="evenodd" d="M0 0V24H32V0H0Z" fill="#EA1A1A"/>
<mask id="mask1_230_26339" style="mask-type:luminance" maskUnits="userSpaceOnUse" x="0" y="0" width="32" height="24">
<path fill-rule="evenodd" clip-rule="evenodd" d="M0 0V24H32V0H0Z" fill="white"/>
</mask>
<g mask="url(#mask1_230_26339)">
<path fill-rule="evenodd" clip-rule="evenodd" d="M15.8692 11.5748C15.8692 11.5748 10.0795 6.41151 16.9884 3.40314C16.9884 3.40314 18.9976 5.61975 17.4903 8.10822C16.9958 8.92438 16.5787 9.5072 16.2653 9.94518C15.6231 10.8425 15.416 11.1319 15.8692 11.5748ZM7.32446 7.86752C6.92683 15.3924 14.1338 12.5221 14.1338 12.5221C13.5353 12.7294 13.369 12.4147 12.8536 11.4395L12.8536 11.4395C12.6019 10.9633 12.267 10.3296 11.7578 9.52232C10.2059 7.06136 7.32446 7.86752 7.32446 7.86752ZM18.2379 11.8271C18.2379 11.8271 25.6698 14.052 20.6857 19.7036C20.6857 19.7036 17.9264 18.5464 18.2379 15.654C18.3401 14.7056 18.4709 14.0011 18.5693 13.4717C18.7709 12.3865 18.8359 12.0364 18.2379 11.8271ZM16.2845 13.5617C16.2845 13.5617 17.6168 21.204 10.3334 19.2727C10.3334 19.2727 10.1351 16.2873 12.8616 15.2728C13.7559 14.94 14.4446 14.7421 14.9622 14.5933L14.9622 14.5933L14.9623 14.5933L14.9623 14.5933C16.0227 14.2885 16.3647 14.1902 16.2845 13.5617ZM25.4784 10.2753C20.9229 4.27314 17.2735 11.1185 17.2735 11.1185C17.5968 10.5737 17.9269 10.7065 18.95 11.1182C19.4497 11.3193 20.1148 11.587 21.0252 11.8747C23.7991 12.7514 25.4784 10.2753 25.4784 10.2753Z" fill="white"/>
<path d="M9.95117 10.3421L10.3732 10.074C11.2995 11.5319 12.5018 12.2492 14.0021 12.2492V12.7492C12.3236 12.7492 10.9659 11.9391 9.95117 10.3421Z" fill="#EA1A1A"/>
<path fill-rule="evenodd" clip-rule="evenodd" d="M21.75 10.75C22.1642 10.75 22.5 10.4142 22.5 10C22.5 9.58579 22.1642 9.25 21.75 9.25C21.3358 9.25 21 9.58579 21 10C21 10.4142 21.3358 10.75 21.75 10.75Z" fill="#EA1A1A"/>
<path fill-rule="evenodd" clip-rule="evenodd" d="M19.959 15.7281C20.3732 15.7281 20.709 15.3923 20.709 14.9781C20.709 14.5639 20.3732 14.2281 19.959 14.2281C19.5448 14.2281 19.209 14.5639 19.209 14.9781C19.209 15.3923 19.5448 15.7281 19.959 15.7281Z" fill="#EA1A1A"/>
<path fill-rule="evenodd" clip-rule="evenodd" d="M13.959 17.7281C14.3732 17.7281 14.709 17.3923 14.709 16.9781C14.709 16.5639 14.3732 16.2281 13.959 16.2281C13.5448 16.2281 13.209 16.5639 13.209 16.9781C13.209 17.3923 13.5448 17.7281 13.959 17.7281Z" fill="#EA1A1A"/>
<path fill-rule="evenodd" clip-rule="evenodd" d="M9.95898 10.7281C10.3732 10.7281 10.709 10.3923 10.709 9.97809C10.709 9.56387 10.3732 9.22809 9.95898 9.22809C9.54477 9.22809 9.20898 9.56387 9.20898 9.97809C9.20898 10.3923 9.54477 10.7281 9.95898 10.7281Z" fill="#EA1A1A"/>
<path fill-rule="evenodd" clip-rule="evenodd" d="M15.959 7.72809C16.3732 7.72809 16.709 7.3923 16.709 6.97809C16.709 6.56387 16.3732 6.22809 15.959 6.22809C15.5448 6.22809 15.209 6.56387 15.209 6.97809C15.209 7.3923 15.5448 7.72809 15.959 7.72809Z" fill="#EA1A1A"/>
<path d="M15.635 7.05273L16.0746 7.291C15.242 8.82699 15.1832 10.2437 15.8883 11.5698L15.4468 11.8045C14.6595 10.3238 14.7256 8.73039 15.635 7.05273Z" fill="#EA1A1A"/>
<path d="M22.0143 9.6858L21.9394 10.1802C19.9836 9.88365 18.5196 10.2963 17.5172 11.4096L17.1456 11.075C18.2702 9.82601 19.9032 9.36576 22.0143 9.6858Z" fill="#EA1A1A"/>
<path d="M20.3511 15.3649L19.8609 15.4635C19.4706 13.5243 18.5822 12.2897 17.1932 11.7285L17.3805 11.2649C18.9388 11.8945 19.9298 13.2716 20.3511 15.3649Z" fill="#EA1A1A"/>
<path d="M13.9058 17.15L13.6454 16.7232C15.3342 15.6931 16.1905 14.436 16.2428 12.9388L16.7425 12.9563C16.6838 14.636 15.7287 16.0382 13.9058 17.15Z" fill="#EA1A1A"/>
</g>
</g>
<rect width="32" height="24" fill="url(#paint0_linear_230_26339)" style="mix-blend-mode:overlay"/>
</g>
<rect x="0.5" y="0.5" width="31" height="23" rx="1.5" stroke="black" stroke-opacity="0.1"/>
<defs>
<linearGradient id="paint0_linear_230_26339" x1="16" y1="0" x2="16" y2="24" gradientUnits="userSpaceOnUse">
<stop stop-color="white" stop-opacity="0.7"/>
<stop offset="1" stop-opacity="0.3"/>
</linearGradient>
<clipPath id="clip0_230_26339">
<rect width="32" height="24" rx="2" fill="white"/>
</clipPath>
</defs>
</svg>
