<svg width="32" height="24" viewBox="0 0 32 24" fill="none" xmlns="http://www.w3.org/2000/svg">
<g clip-path="url(#clip0_230_23183)">
<mask id="mask0_230_23183" style="mask-type:luminance" maskUnits="userSpaceOnUse" x="0" y="0" width="32" height="24">
<rect width="32" height="24" fill="white"/>
</mask>
<g mask="url(#mask0_230_23183)">
<path d="M0 -1H-1V0V24V25H0H32H33V24V0V-1H32H0Z" fill="#E31D1C" stroke="#F7FCFF" stroke-width="2"/>
<path fill-rule="evenodd" clip-rule="evenodd" d="M0 0L24 12L0 24V0Z" fill="#FECA00"/>
<path fill-rule="evenodd" clip-rule="evenodd" d="M0 0L16 12L0 24V0Z" fill="#272727"/>
<path fill-rule="evenodd" clip-rule="evenodd" d="M6.64841 14.4087L4.62889 16.5087L4.41792 13.5232L1.84246 11.9367L4.52833 11.0939L4.96758 8.13574L6.82706 10.478L9.53909 9.75128L8.13734 12.5266L9.50046 15.2034L6.64841 14.4087Z" fill="#F7FCFF"/>
</g>
<rect width="32" height="24" fill="url(#paint0_linear_230_23183)" style="mix-blend-mode:overlay"/>
</g>
<rect x="0.5" y="0.5" width="31" height="23" rx="1.5" stroke="black" stroke-opacity="0.1"/>
<defs>
<linearGradient id="paint0_linear_230_23183" x1="16" y1="0" x2="16" y2="24" gradientUnits="userSpaceOnUse">
<stop stop-color="white" stop-opacity="0.7"/>
<stop offset="1" stop-opacity="0.3"/>
</linearGradient>
<clipPath id="clip0_230_23183">
<rect width="32" height="24" rx="2" fill="white"/>
</clipPath>
</defs>
</svg>
