<svg width="32" height="24" viewBox="0 0 32 24" fill="none" xmlns="http://www.w3.org/2000/svg">
<g clip-path="url(#clip0_230_28273)">
<mask id="mask0_230_28273" style="mask-type:luminance" maskUnits="userSpaceOnUse" x="0" y="0" width="32" height="24">
<rect width="32" height="24" fill="white"/>
</mask>
<g mask="url(#mask0_230_28273)">
<rect width="32" height="24" rx="2" fill="#5EAA22"/>
<mask id="path-5-outside-1_230_28273" maskUnits="userSpaceOnUse" x="-8" y="-3" width="48" height="30" fill="black">
<rect fill="white" x="-8" y="-3" width="48" height="30"/>
<path fill-rule="evenodd" clip-rule="evenodd" d="M16 12L32 0H0L16 12ZM16 12L0 24H32L16 12Z"/>
</mask>
<path fill-rule="evenodd" clip-rule="evenodd" d="M16 12L32 0H0L16 12ZM16 12L0 24H32L16 12Z" fill="#DD2C2B"/>
<path d="M32 0L33.5 2L39.5 -2.5H32V0ZM0 0V-2.5H-7.5L-1.5 2L0 0ZM0 24L-1.5 22L-7.5 26.5H0V24ZM32 24V26.5H39.5L33.5 22L32 24ZM30.5 -2L14.5 10L17.5 14L33.5 2L30.5 -2ZM0 2.5H32V-2.5H0V2.5ZM17.5 10L1.5 -2L-1.5 2L14.5 14L17.5 10ZM14.5 10L-1.5 22L1.5 26L17.5 14L14.5 10ZM0 26.5H32V21.5H0V26.5ZM33.5 22L17.5 10L14.5 14L30.5 26L33.5 22Z" fill="white" mask="url(#path-5-outside-1_230_28273)"/>
<path fill-rule="evenodd" clip-rule="evenodd" d="M16 18C19.3137 18 22 15.3137 22 12C22 8.68629 19.3137 6 16 6C12.6863 6 10 8.68629 10 12C10 15.3137 12.6863 18 16 18Z" fill="white"/>
<path fill-rule="evenodd" clip-rule="evenodd" d="M15.4296 10.3873L14.2676 10.4L14.8596 9.4L14.2676 8.4L15.4296 8.41274L15.9996 7.4L16.5696 8.41274L17.7317 8.4L17.1396 9.4L17.7317 10.4L16.5696 10.3873L15.9996 11.4L15.4296 10.3873Z" fill="#DD2C2B" stroke="#5EAA22" stroke-width="0.25"/>
<path fill-rule="evenodd" clip-rule="evenodd" d="M12.9296 14.4873L11.7676 14.5L12.3596 13.5L11.7676 12.5L12.9296 12.5127L13.4996 11.5L14.0696 12.5127L15.2317 12.5L14.6396 13.5L15.2317 14.5L14.0696 14.4873L13.4996 15.5L12.9296 14.4873Z" fill="#DD2C2B" stroke="#5EAA22" stroke-width="0.25"/>
<path fill-rule="evenodd" clip-rule="evenodd" d="M17.9296 14.4873L16.7676 14.5L17.3596 13.5L16.7676 12.5L17.9296 12.5127L18.4996 11.5L19.0696 12.5127L20.2317 12.5L19.6396 13.5L20.2317 14.5L19.0696 14.4873L18.4996 15.5L17.9296 14.4873Z" fill="#DD2C2B" stroke="#5EAA22" stroke-width="0.25"/>
</g>
<rect width="32" height="24" fill="url(#paint0_linear_230_28273)" style="mix-blend-mode:overlay"/>
</g>
<rect x="0.5" y="0.5" width="31" height="23" rx="1.5" stroke="black" stroke-opacity="0.1"/>
<defs>
<linearGradient id="paint0_linear_230_28273" x1="16" y1="0" x2="16" y2="24" gradientUnits="userSpaceOnUse">
<stop stop-color="white" stop-opacity="0.7"/>
<stop offset="1" stop-opacity="0.3"/>
</linearGradient>
<clipPath id="clip0_230_28273">
<rect width="32" height="24" rx="2" fill="white"/>
</clipPath>
</defs>
</svg>
