<svg width="32" height="24" viewBox="0 0 32 24" fill="none" xmlns="http://www.w3.org/2000/svg">
<g clip-path="url(#clip0_230_27674)">
<mask id="mask0_230_27674" style="mask-type:luminance" maskUnits="userSpaceOnUse" x="0" y="0" width="32" height="24">
<rect width="32" height="24" fill="white"/>
</mask>
<g mask="url(#mask0_230_27674)">
<path fill-rule="evenodd" clip-rule="evenodd" d="M0 0H32V24H0V0Z" fill="#5EAA22"/>
<path fill-rule="evenodd" clip-rule="evenodd" d="M24 7L23 7.73205L23.134 6.5L22 6L23.134 5.5L23 4.26795L24 5L25 4.26795L24.866 5.5L26 6L24.866 6.5L25 7.73205L24 7Z" fill="#FECA00"/>
<path fill-rule="evenodd" clip-rule="evenodd" d="M22.9629 13.6787L21.9629 14.4107L22.0969 13.1787L20.9629 12.6787L22.0969 12.1787L21.9629 10.9466L22.9629 11.6787L23.9629 10.9466L23.8289 12.1787L24.9629 12.6787L23.8289 13.1787L23.9629 14.4107L22.9629 13.6787Z" fill="#FECA00"/>
<path fill-rule="evenodd" clip-rule="evenodd" d="M26 19L25 19.7321L25.134 18.5L24 18L25.134 17.5L25 16.2679L26 17L27 16.2679L26.866 17.5L28 18L26.866 18.5L27 19.7321L26 19Z" fill="#FECA00"/>
<path fill-rule="evenodd" clip-rule="evenodd" d="M27 9.5L26.5 9.86603L26.567 9.25L26 9L26.567 8.75L26.5 8.13397L27 8.5L27.5 8.13397L27.433 8.75L28 9L27.433 9.25L27.5 9.86603L27 9.5Z" fill="#FECA00"/>
<path fill-rule="evenodd" clip-rule="evenodd" d="M7 14C9.76142 14 12 11.7614 12 9C12 6.23858 9.76142 4 7 4C4.23858 4 2 6.23858 2 9C2 11.7614 4.23858 14 7 14Z" fill="#FECA00"/>
<path fill-rule="evenodd" clip-rule="evenodd" d="M19.8977 14.945C19.2396 16.0745 18.1936 16.5872 16.7936 16.5872C14.6984 16.5872 13 14.8887 13 12.7936C13 10.6984 14.6984 9 16.7936 9C18.3921 9 19.6676 9.55928 20.2527 11.0826C19.7895 10.6232 19.0725 10.3081 18 10.3481C16.3431 10.3481 15.2653 11.6389 15.2653 12.7434C15.2653 13.848 16.3431 15.3495 18 15.3495C18.8333 15.337 19.4489 15.1846 19.8977 14.945Z" fill="#FECA00"/>
<path d="M7.58302 8.6937C7.58302 8.6937 6.60538 12.2746 6.20171 12.6135C6.02302 12.6923 7.82036 12.6135 7.82036 12.6135C7.82036 12.6135 7.14659 12.3187 7.38393 11.9263C7.62126 11.534 7.93131 9.00954 7.82036 8.14967C7.70941 7.2898 7.58302 8.6937 7.58302 8.6937Z" fill="#915E2B"/>
<path fill-rule="evenodd" clip-rule="evenodd" d="M7.79102 8.82668C7.79102 8.82668 8.83935 9.1415 8.83935 9.6772C8.83935 10.2129 9.71146 10.9659 9.71146 10.2528C9.71146 9.53974 9.54831 8.82668 9.19383 8.82668C8.83935 8.82668 9.36721 8.34729 9.67035 8.7454C9.9735 9.14351 11.0365 8.70796 10.8206 8.42857C10.6047 8.14918 9.83827 7.80102 9.71146 7.80102C9.58464 7.80102 10.5836 7.12046 9.71146 7.12046C8.83935 7.12046 9.3395 7.70178 8.74848 7.08461C8.15747 6.46744 9.0001 7.38587 9.0001 6.34946C9.0001 5.31304 8.76101 4.88957 7.97158 5.47133C7.18214 6.05309 7.3335 5.68411 7.05253 5.46476C6.77155 5.24541 6.52497 6.26785 6.83418 6.47656C7.14339 6.68527 7.48616 7.20256 7.17695 7.20256C6.86775 7.20256 6.64944 6.90406 6.64944 6.69031C6.64944 6.47656 5.80806 6.09903 5.00949 6.09903C4.21092 6.09903 4.7276 6.69031 5.00949 6.69031C5.29137 6.69031 6.55372 7.12046 5.92254 7.12046C5.29137 7.12046 5.9713 6.8022 5.17572 6.8022C4.38015 6.8022 3.45534 6.43991 3.45534 7.12046C3.45534 7.80102 4.25029 8.10251 4.49863 7.80102C4.74697 7.49953 5.03408 6.99127 5.03408 7.4987C5.03408 8.00613 4.40131 7.79896 3.45534 8.11376C2.50937 8.42857 2.78082 9.25852 3.90931 9.05583C5.03779 8.85314 4.91569 8.86418 5.36876 8.54937C5.82182 8.23457 6.38254 8.32233 5.92254 8.82668C5.46255 9.33103 5.00256 10.2528 5.46255 10.2528C5.92254 10.2528 6.21908 10.3782 6.21908 9.89095C6.21908 9.40368 6.4861 8.45503 6.4861 9.05583C6.4861 9.65663 6.83418 10.1095 7.14339 9.89095C7.4526 9.67241 7.07138 8.9886 7.42437 8.9886C7.77735 8.9886 7.79102 8.82668 7.79102 8.82668Z" fill="#5EAA22"/>
</g>
<rect width="32" height="24" fill="url(#paint0_linear_230_27674)" style="mix-blend-mode:overlay"/>
</g>
<rect x="0.5" y="0.5" width="31" height="23" rx="1.5" stroke="black" stroke-opacity="0.1"/>
<defs>
<linearGradient id="paint0_linear_230_27674" x1="16" y1="0" x2="16" y2="24" gradientUnits="userSpaceOnUse">
<stop stop-color="white" stop-opacity="0.7"/>
<stop offset="1" stop-opacity="0.3"/>
</linearGradient>
<clipPath id="clip0_230_27674">
<rect width="32" height="24" rx="2" fill="white"/>
</clipPath>
</defs>
</svg>
