<svg width="32" height="24" viewBox="0 0 32 24" fill="none" xmlns="http://www.w3.org/2000/svg">
<g clip-path="url(#clip0_230_22426)">
<mask id="mask0_230_22426" style="mask-type:luminance" maskUnits="userSpaceOnUse" x="0" y="0" width="32" height="24">
<rect width="32" height="24" fill="white"/>
</mask>
<g mask="url(#mask0_230_22426)">
<path fill-rule="evenodd" clip-rule="evenodd" d="M0 0V24H32V0H0Z" fill="#2E42A5"/>
<mask id="mask1_230_22426" style="mask-type:luminance" maskUnits="userSpaceOnUse" x="0" y="0" width="32" height="24">
<path fill-rule="evenodd" clip-rule="evenodd" d="M0 0V24H32V0H0Z" fill="white"/>
</mask>
<g mask="url(#mask1_230_22426)">
<rect width="18" height="14" fill="#2B409A"/>
<mask id="mask2_230_22426" style="mask-type:luminance" maskUnits="userSpaceOnUse" x="0" y="0" width="18" height="14">
<rect width="18" height="14" fill="white"/>
</mask>
<g mask="url(#mask2_230_22426)">
<path d="M-2.00586 12.9997L1.95509 14.7369L18.0883 1.88866L20.1776 -0.692871L15.9419 -1.27349L9.36159 4.2632L4.06508 7.99363L-2.00586 12.9997Z" fill="#F7FCFF"/>
<path d="M-1.46289 14.217L0.555031 15.2251L19.428 -0.932617H16.5947L-1.46289 14.217Z" fill="#F50100"/>
<path d="M20.0039 12.9997L16.043 14.7369L-0.0902405 1.88866L-2.17955 -0.692871L2.05612 -1.27349L8.63646 4.2632L13.933 7.99363L20.0039 12.9997Z" fill="#F7FCFF"/>
<path d="M19.8691 13.8733L17.8512 14.8815L9.81489 7.96351L7.43229 7.19059L-2.3802 -0.683947H0.453194L10.2602 7.00368L12.8651 7.9305L19.8691 13.8733Z" fill="#F50100"/>
<mask id="path-12-outside-1_230_22426" maskUnits="userSpaceOnUse" x="-2" y="-2" width="22" height="18" fill="black">
<rect fill="white" x="-2" y="-2" width="22" height="18"/>
<path fill-rule="evenodd" clip-rule="evenodd" d="M9.98451 0H7.98451V6H0V8H7.98451V14H9.98451V8H18V6H9.98451V0Z"/>
</mask>
<path fill-rule="evenodd" clip-rule="evenodd" d="M9.98451 0H7.98451V6H0V8H7.98451V14H9.98451V8H18V6H9.98451V0Z" fill="#F50100"/>
<path d="M7.98451 0V-1.5H6.48451V0H7.98451ZM9.98451 0H11.4845V-1.5H9.98451V0ZM7.98451 6V7.5H9.48451V6H7.98451ZM0 6V4.5H-1.5V6H0ZM0 8H-1.5V9.5H0V8ZM7.98451 8H9.48451V6.5H7.98451V8ZM7.98451 14H6.48451V15.5H7.98451V14ZM9.98451 14V15.5H11.4845V14H9.98451ZM9.98451 8V6.5H8.48451V8H9.98451ZM18 8V9.5H19.5V8H18ZM18 6H19.5V4.5H18V6ZM9.98451 6H8.48451V7.5H9.98451V6ZM7.98451 1.5H9.98451V-1.5H7.98451V1.5ZM9.48451 6V0H6.48451V6H9.48451ZM0 7.5H7.98451V4.5H0V7.5ZM1.5 8V6H-1.5V8H1.5ZM7.98451 6.5H0V9.5H7.98451V6.5ZM9.48451 14V8H6.48451V14H9.48451ZM9.98451 12.5H7.98451V15.5H9.98451V12.5ZM8.48451 8V14H11.4845V8H8.48451ZM18 6.5H9.98451V9.5H18V6.5ZM16.5 6V8H19.5V6H16.5ZM9.98451 7.5H18V4.5H9.98451V7.5ZM8.48451 0V6H11.4845V0H8.48451Z" fill="#F7FCFF" mask="url(#path-12-outside-1_230_22426)"/>
</g>
<path fill-rule="evenodd" clip-rule="evenodd" d="M20.246 10.0327V16.5619C20.246 16.5619 20.1492 21.964 25.128 21.964C30.1067 21.964 30.1067 16.5619 30.1067 16.5619V10.0327H20.246Z" fill="#3B7E05" stroke="#F7FCFF" stroke-width="0.5"/>
<path fill-rule="evenodd" clip-rule="evenodd" d="M20.2369 19.8887L21.0301 19.0924C22.2697 20.6233 23.5735 21.3684 24.9598 21.3684C26.346 21.3684 27.6487 20.6234 28.8863 19.0927L29.3378 19.5453L29.3569 19.5169C29.633 19.7506 29.8149 19.9692 29.9023 20.2225C30.0446 20.635 29.8926 21.0314 29.559 21.2411C29.4763 21.2931 29.4107 21.3306 29.3523 21.3577C29.2169 21.4208 29.1084 21.4482 28.9472 21.4027C28.7832 21.3565 28.6454 21.2303 28.5741 21.0566C27.4492 22.0516 26.2418 22.5576 24.9598 22.5576C23.6887 22.5576 22.4906 22.0602 21.3729 21.0821C21.2982 21.2529 21.1589 21.3755 20.9951 21.4186C20.8332 21.4612 20.7252 21.4319 20.5909 21.3665C20.533 21.3383 20.468 21.2997 20.3862 21.2463C20.0564 21.0308 19.9113 20.6318 20.0608 20.2218C20.1014 20.1103 20.1667 20.0069 20.2512 19.9063C20.2464 19.9004 20.2417 19.8946 20.2369 19.8887Z" fill="#FFD018"/>
<path d="M21.0301 19.0924L21.2244 18.9351L21.0493 18.7189L20.853 18.916L21.0301 19.0924ZM20.2369 19.8887L20.0598 19.7123L19.9013 19.8714L20.0426 20.046L20.2369 19.8887ZM28.8863 19.0927L29.0633 18.9162L28.8668 18.7192L28.6919 18.9355L28.8863 19.0927ZM29.3378 19.5453L29.1608 19.7219L29.3751 19.9368L29.545 19.6852L29.3378 19.5453ZM29.3569 19.5169L29.5185 19.3261L29.3057 19.146L29.1497 19.377L29.3569 19.5169ZM29.9023 20.2225L30.1386 20.1409V20.1409L29.9023 20.2225ZM29.559 21.2411L29.426 21.0294V21.0294L29.559 21.2411ZM29.3523 21.3577L29.2467 21.1311L29.3523 21.3577ZM28.9472 21.4027L28.8794 21.6434L28.9472 21.4027ZM28.5741 21.0566L28.8053 20.9616L28.6718 20.6364L28.4084 20.8693L28.5741 21.0566ZM21.3729 21.0821L21.5375 20.894L21.2806 20.6691L21.1438 20.9819L21.3729 21.0821ZM20.9951 21.4186L20.9314 21.1768H20.9314L20.9951 21.4186ZM20.5909 21.3665L20.7004 21.1418L20.7004 21.1418L20.5909 21.3665ZM20.3862 21.2463L20.2494 21.4556L20.2494 21.4556L20.3862 21.2463ZM20.0608 20.2218L20.2957 20.3075V20.3075L20.0608 20.2218ZM20.2512 19.9063L20.4426 20.0671L20.5755 19.9089L20.4452 19.7486L20.2512 19.9063ZM20.853 18.916L20.0598 19.7123L20.414 20.0651L21.2072 19.2688L20.853 18.916ZM24.9598 21.1184C23.6754 21.1184 22.4362 20.4317 21.2244 18.9351L20.8358 19.2497C22.1031 20.8149 23.4715 21.6184 24.9598 21.6184V21.1184ZM28.6919 18.9355C27.4821 20.4319 26.244 21.1184 24.9598 21.1184V21.6184C26.448 21.6184 27.8153 20.815 29.0807 19.2499L28.6919 18.9355ZM29.5148 19.3687L29.0633 18.9162L28.7093 19.2693L29.1608 19.7219L29.5148 19.3687ZM29.1497 19.377L29.1306 19.4054L29.545 19.6852L29.5641 19.6568L29.1497 19.377ZM30.1386 20.1409C30.03 19.8261 29.8091 19.5722 29.5185 19.3261L29.1954 19.7077C29.4568 19.929 29.5998 20.1123 29.666 20.304L30.1386 20.1409ZM29.6921 21.4527C30.1248 21.1807 30.3185 20.6625 30.1386 20.1409L29.666 20.304C29.7706 20.6075 29.6604 20.882 29.426 21.0294L29.6921 21.4527ZM29.4578 21.5844C29.53 21.5508 29.6058 21.507 29.6921 21.4527L29.426 21.0294C29.3469 21.0792 29.2914 21.1103 29.2467 21.1311L29.4578 21.5844ZM28.8794 21.6434C28.9888 21.6742 29.0913 21.683 29.1943 21.6685C29.294 21.6544 29.3808 21.6202 29.4578 21.5844L29.2467 21.1311C29.1883 21.1583 29.1532 21.1693 29.1245 21.1734C29.0991 21.1769 29.0668 21.1767 29.0151 21.1621L28.8794 21.6434ZM28.3428 21.1516C28.4407 21.39 28.6351 21.5745 28.8794 21.6434L29.0151 21.1621C28.9314 21.1385 28.8501 21.0705 28.8053 20.9616L28.3428 21.1516ZM24.9598 22.8076C26.3139 22.8076 27.5781 22.2713 28.7397 21.2439L28.4084 20.8693C27.3202 21.8319 26.1698 22.3076 24.9598 22.3076V22.8076ZM21.2083 21.2702C22.3627 22.2805 23.6174 22.8076 24.9598 22.8076V22.3076C23.7601 22.3076 22.6185 21.8399 21.5375 20.894L21.2083 21.2702ZM21.0587 21.6604C21.3027 21.5961 21.4994 21.4168 21.602 21.1823L21.1438 20.9819C21.097 21.0889 21.015 21.1548 20.9314 21.1768L21.0587 21.6604ZM20.4815 21.5913C20.5578 21.6285 20.644 21.6642 20.7434 21.68C20.8461 21.6963 20.9488 21.6893 21.0587 21.6604L20.9314 21.1768C20.8794 21.1905 20.8472 21.1902 20.8218 21.1861C20.7932 21.1816 20.7583 21.17 20.7004 21.1418L20.4815 21.5913ZM20.2494 21.4556C20.3348 21.5114 20.4099 21.5564 20.4815 21.5913L20.7004 21.1418C20.6561 21.1202 20.6011 21.0881 20.5229 21.037L20.2494 21.4556ZM19.8259 20.1362C19.6369 20.6545 19.8216 21.176 20.2494 21.4556L20.5229 21.037C20.2911 20.8855 20.1857 20.6091 20.2957 20.3075L19.8259 20.1362ZM20.0597 19.7455C19.9621 19.8618 19.8791 19.9902 19.8259 20.1362L20.2957 20.3075C20.3238 20.2304 20.3714 20.1519 20.4426 20.0671L20.0597 19.7455ZM20.0426 20.046C20.0475 20.052 20.0523 20.058 20.0572 20.064L20.4452 19.7486C20.4405 19.7429 20.4359 19.7371 20.4312 19.7314L20.0426 20.046Z" fill="white"/>
<path fill-rule="evenodd" clip-rule="evenodd" d="M21.9556 11.4603L22.0668 11.5011C22.1577 11.2932 22.1728 11.1347 22.0668 11.033L22.0638 11.0284C22.0391 10.9898 21.9953 10.9213 22.0668 10.7749L22.0158 10.6703C21.9122 10.8822 21.8656 11.0351 21.9466 11.1382L21.9507 11.1435L21.9556 11.1479C22.0024 11.1901 22.0221 11.3081 21.9556 11.4603ZM21.9556 12.9738L22.0668 13.0146C22.1577 12.8067 22.1728 12.6483 22.0668 12.5466L22.0638 12.5419C22.0391 12.5033 21.9953 12.4348 22.0668 12.2884L22.0158 12.1838C21.9122 12.3957 21.8656 12.5486 21.9466 12.6517L21.9507 12.657L21.9556 12.6614C22.0024 12.7036 22.0221 12.8216 21.9556 12.9738ZM22.0668 14.3659L21.9556 14.3252C22.0221 14.1729 22.0024 14.055 21.9556 14.0128L21.9507 14.0084L21.9466 14.0031C21.8656 13.9 21.9122 13.7471 22.0158 13.5352L22.0668 13.6398C21.9953 13.7862 22.0391 13.8546 22.0638 13.8932L22.0668 13.8979C22.1728 13.9996 22.1577 14.158 22.0668 14.3659ZM22.7323 15.9468L22.8435 15.9876C22.9344 15.7796 22.9495 15.6212 22.8435 15.5195L22.8405 15.5148C22.8158 15.4763 22.772 15.4078 22.8435 15.2614L22.7925 15.1568C22.6889 15.3687 22.6423 15.5216 22.7233 15.6247L22.7274 15.63L22.7323 15.6344C22.7791 15.6766 22.7988 15.7946 22.7323 15.9468ZM21.9212 17.2849L21.8099 17.2441C21.8765 17.0919 21.8568 16.9739 21.8099 16.9317L21.8051 16.9273L21.8009 16.922C21.7199 16.8189 21.7666 16.666 21.8702 16.4541L21.9212 16.5587C21.8497 16.7051 21.8935 16.7736 21.9182 16.8121L21.9212 16.8168C22.0271 16.9185 22.0121 17.0769 21.9212 17.2849ZM21.8099 18.7576L21.9212 18.7984C22.0121 18.5905 22.0271 18.432 21.9212 18.3303L21.9182 18.3257C21.8935 18.2871 21.8497 18.2186 21.9212 18.0722L21.8702 17.9676C21.7666 18.1795 21.7199 18.3324 21.8009 18.4355L21.8051 18.4408L21.8099 18.4452C21.8568 18.4874 21.8765 18.6054 21.8099 18.7576ZM26.727 18.7984L26.6158 18.7576C26.6823 18.6054 26.6626 18.4874 26.6158 18.4452L26.6109 18.4408L26.6067 18.4355C26.5258 18.3324 26.5724 18.1795 26.676 17.9676L26.727 18.0722C26.6555 18.2186 26.6993 18.2871 26.724 18.3257L26.727 18.3303C26.833 18.432 26.8179 18.5905 26.727 18.7984ZM26.6158 17.2981L26.727 17.3389C26.8179 17.131 26.833 16.9726 26.727 16.8709L26.724 16.8662C26.6993 16.8276 26.6555 16.7591 26.727 16.6128L26.676 16.5081C26.5724 16.72 26.5258 16.873 26.6067 16.9761L26.6109 16.9813L26.6158 16.9857C26.6626 17.0279 26.6823 17.1459 26.6158 17.2981ZM26.727 15.8795L26.6158 15.8387C26.6823 15.6865 26.6626 15.5685 26.6158 15.5263L26.6109 15.5219L26.6067 15.5166C26.5258 15.4135 26.5724 15.2606 26.676 15.0487L26.727 15.1533C26.6555 15.2997 26.6993 15.3682 26.724 15.4067L26.727 15.4114C26.833 15.5131 26.8179 15.6715 26.727 15.8795ZM26.5672 14.4333L26.6785 14.4741C26.7694 14.2661 26.7844 14.1077 26.6785 14.006L26.6755 14.0013C26.6508 13.9628 26.6069 13.8943 26.6785 13.7479L26.6275 13.6433C26.5239 13.8552 26.4772 14.0081 26.5582 14.1112L26.5623 14.1165L26.5672 14.1209C26.6141 14.1631 26.6338 14.2811 26.5672 14.4333ZM26.6785 12.9605L26.5672 12.9198C26.6338 12.7675 26.6141 12.6496 26.5672 12.6073L26.5623 12.6029L26.5582 12.5977C26.4772 12.4946 26.5239 12.3417 26.6275 12.1297L26.6785 12.2344C26.6069 12.3807 26.6508 12.4492 26.6755 12.4878L26.6785 12.4925C26.7844 12.5942 26.7694 12.7526 26.6785 12.9605ZM26.5672 11.5143L26.6785 11.5551C26.7694 11.3472 26.7844 11.1888 26.6785 11.0871C26.6775 11.0856 26.6765 11.084 26.6755 11.0824C26.6508 11.0438 26.6069 10.9753 26.6785 10.829L26.6275 10.7243C26.5239 10.9363 26.4772 11.0892 26.5582 11.1923L26.5623 11.1975L26.5672 11.2019C26.6141 11.2441 26.6338 11.3621 26.5672 11.5143Z" fill="#F50100"/>
<path fill-rule="evenodd" clip-rule="evenodd" d="M22.7605 10.8148C22.7685 10.7992 22.7731 10.7813 22.7731 10.7622C22.7731 10.7025 22.7283 10.6541 22.6731 10.6541C22.6179 10.6541 22.5731 10.7025 22.5731 10.7622C22.5731 10.7879 22.5814 10.8115 22.5953 10.8301L22.2169 11.416L22.2564 11.4476L22.6346 10.8619C22.6464 10.8673 22.6594 10.8703 22.6731 10.8703C22.6926 10.8703 22.7107 10.8643 22.7261 10.8539L23.1241 11.448L23.163 11.4156L22.7605 10.8148ZM22.7469 11.3217C22.7632 11.3024 22.7731 11.2768 22.7731 11.2486C22.7731 11.1889 22.7283 11.1405 22.6731 11.1405C22.6179 11.1405 22.5731 11.1889 22.5731 11.2486C22.5731 11.2851 22.5898 11.3173 22.6153 11.3369L22.5205 11.4509H21.8781C21.8781 11.4509 21.9484 11.6119 22.1675 11.6544C22.2344 11.718 22.4055 11.8363 22.4055 11.8363L22.3079 11.9549H23.0005V11.8363C23.1692 11.8351 23.2326 11.7018 23.2552 11.6542C23.2646 11.6346 23.2669 11.6296 23.2669 11.6544C23.2669 11.7395 23.3901 11.6544 23.3901 11.6544C23.3901 11.6544 23.5946 11.4509 23.5946 11.2569C23.5946 11.0629 23.167 11.4509 23.167 11.4509H22.8769L22.7469 11.3217ZM21.8781 12.9644H22.5205L22.6153 12.8504C22.5898 12.8308 22.5731 12.7986 22.5731 12.7622C22.5731 12.7025 22.6179 12.6541 22.6731 12.6541C22.7283 12.6541 22.7731 12.7025 22.7731 12.7622C22.7731 12.7903 22.7632 12.8159 22.7469 12.8352L22.8769 12.9644H23.167C23.167 12.9644 23.5946 12.5764 23.5946 12.7704C23.5946 12.9644 23.3901 13.1679 23.3901 13.1679C23.3901 13.1679 23.2669 13.253 23.2669 13.1679C23.2669 13.1431 23.2646 13.1481 23.2552 13.1678C23.2326 13.2153 23.1692 13.3486 23.0005 13.3498V13.4684H22.3079L22.4055 13.3498C22.4055 13.3498 22.2344 13.2315 22.1675 13.1679C21.9484 13.1254 21.8781 12.9644 21.8781 12.9644ZM22.7605 12.3283C22.7685 12.3127 22.7731 12.2948 22.7731 12.2757C22.7731 12.216 22.7283 12.1676 22.6731 12.1676C22.6179 12.1676 22.5731 12.216 22.5731 12.2757C22.5731 12.3014 22.5814 12.3251 22.5953 12.3436L22.2169 12.9295L22.2564 12.9611L22.6346 12.3755C22.6464 12.3808 22.6594 12.3838 22.6731 12.3838C22.6926 12.3838 22.7107 12.3778 22.7261 12.3674L23.1241 12.9615L23.163 12.9291L22.7605 12.3283ZM21.8781 14.3157H22.5205L22.6153 14.2017C22.5898 14.1821 22.5731 14.1499 22.5731 14.1135C22.5731 14.0538 22.6179 14.0054 22.6731 14.0054C22.7283 14.0054 22.7731 14.0538 22.7731 14.1135C22.7731 14.1417 22.7632 14.1673 22.7469 14.1865L22.8769 14.3157H23.167C23.167 14.3157 23.5946 13.9278 23.5946 14.1218C23.5946 14.3157 23.3901 14.5193 23.3901 14.5193C23.3901 14.5193 23.2669 14.6043 23.2669 14.5193C23.2669 14.4944 23.2646 14.4995 23.2552 14.5191C23.2326 14.5667 23.1692 14.6999 23.0005 14.7012V14.8197H22.3079L22.4055 14.7012C22.4055 14.7012 22.2344 14.5829 22.1675 14.5193C21.9484 14.4768 21.8781 14.3157 21.8781 14.3157ZM22.7605 13.6797C22.7685 13.6641 22.7731 13.6461 22.7731 13.627C22.7731 13.5673 22.7283 13.5189 22.6731 13.5189C22.6179 13.5189 22.5731 13.5673 22.5731 13.627C22.5731 13.6528 22.5814 13.6764 22.5953 13.695L22.2169 14.2809L22.2564 14.3124L22.6346 13.7268C22.6464 13.7322 22.6594 13.7351 22.6731 13.7351C22.6926 13.7351 22.7107 13.7291 22.7261 13.7187L23.1241 14.3128L23.163 14.2805L22.7605 13.6797ZM22.6548 15.9374H23.2972L23.392 15.8233C23.3665 15.8037 23.3498 15.7715 23.3498 15.7351C23.3498 15.6754 23.3946 15.627 23.4498 15.627C23.505 15.627 23.5498 15.6754 23.5498 15.7351C23.5498 15.7633 23.5399 15.7889 23.5236 15.8081L23.6536 15.9374H23.9437C23.9437 15.9374 24.3713 15.5494 24.3713 15.7434C24.3713 15.9374 24.1668 16.1409 24.1668 16.1409C24.1668 16.1409 24.0436 16.226 24.0436 16.1409C24.0436 16.1161 24.0413 16.1211 24.0319 16.1407C24.0093 16.1883 23.9459 16.3215 23.7772 16.3228V16.4414H23.0846L23.1822 16.3228C23.1822 16.3228 23.011 16.2045 22.9442 16.1409C22.7251 16.0984 22.6548 15.9374 22.6548 15.9374ZM23.5372 15.3013C23.5452 15.2857 23.5498 15.2678 23.5498 15.2486C23.5498 15.1889 23.505 15.1405 23.4498 15.1405C23.3946 15.1405 23.3498 15.1889 23.3498 15.2486C23.3498 15.2744 23.3581 15.298 23.372 15.3166L22.9936 15.9025L23.0331 15.9341L23.4113 15.3484C23.4231 15.3538 23.4361 15.3568 23.4498 15.3568C23.4693 15.3568 23.4874 15.3507 23.5028 15.3404L23.9008 15.9344L23.9397 15.9021L23.5372 15.3013ZM21.7324 17.2347H22.3749L22.4696 17.1206C22.4441 17.101 22.4275 17.0688 22.4275 17.0324C22.4275 16.9727 22.4723 16.9243 22.5275 16.9243C22.5827 16.9243 22.6275 16.9727 22.6275 17.0324C22.6275 17.0606 22.6175 17.0862 22.6012 17.1054L22.7312 17.2347H23.0214C23.0214 17.2347 23.449 16.8467 23.449 17.0407C23.449 17.2347 23.2445 17.4382 23.2445 17.4382C23.2445 17.4382 23.1213 17.5233 23.1213 17.4382C23.1213 17.4134 23.1189 17.4184 23.1096 17.438C23.087 17.4856 23.0236 17.6188 22.8548 17.6201V17.7386H22.1623L22.2598 17.6201C22.2598 17.6201 22.0887 17.5018 22.0219 17.4382C21.8028 17.3957 21.7324 17.2347 21.7324 17.2347ZM22.6148 16.5986C22.6229 16.583 22.6275 16.5651 22.6275 16.5459C22.6275 16.4862 22.5827 16.4378 22.5275 16.4378C22.4723 16.4378 22.4275 16.4862 22.4275 16.5459C22.4275 16.5717 22.4358 16.5953 22.4497 16.6139L22.0713 17.1998L22.1107 17.2314L22.4889 16.6457C22.5008 16.6511 22.5138 16.6541 22.5275 16.6541C22.5469 16.6541 22.5651 16.648 22.5805 16.6377L22.9784 17.2317L23.0173 17.1994L22.6148 16.5986ZM21.7324 18.7482H22.3749L22.4696 18.6341C22.4441 18.6146 22.4275 18.5824 22.4275 18.5459C22.4275 18.4862 22.4723 18.4378 22.5275 18.4378C22.5827 18.4378 22.6275 18.4862 22.6275 18.5459C22.6275 18.5741 22.6175 18.5997 22.6012 18.6189L22.7312 18.7482H23.0214C23.0214 18.7482 23.449 18.3602 23.449 18.5542C23.449 18.7482 23.2445 18.9517 23.2445 18.9517C23.2445 18.9517 23.1213 19.0368 23.1213 18.9517C23.1213 18.9269 23.1189 18.9319 23.1096 18.9515C23.087 18.9991 23.0236 19.1324 22.8548 19.1336V19.2522H22.1623L22.2598 19.1336C22.2598 19.1336 22.0887 19.0153 22.0219 18.9517C21.8028 18.9092 21.7324 18.7482 21.7324 18.7482ZM22.6148 18.1121C22.6229 18.0965 22.6275 18.0786 22.6275 18.0595C22.6275 17.9998 22.5827 17.9514 22.5275 17.9514C22.4723 17.9514 22.4275 17.9998 22.4275 18.0595C22.4275 18.0852 22.4358 18.1088 22.4497 18.1274L22.0713 18.7133L22.1107 18.7449L22.4889 18.1592C22.5008 18.1646 22.5138 18.1676 22.5275 18.1676C22.5469 18.1676 22.5651 18.1616 22.5805 18.1512L22.9784 18.7453L23.0173 18.7129L22.6148 18.1121ZM26.5382 18.7482H27.1807L27.2755 18.6341C27.25 18.6146 27.2333 18.5824 27.2333 18.5459C27.2333 18.4862 27.2781 18.4378 27.3333 18.4378C27.3885 18.4378 27.4333 18.4862 27.4333 18.5459C27.4333 18.5741 27.4234 18.5997 27.4071 18.6189L27.5371 18.7482H27.8272C27.8272 18.7482 28.2548 18.3602 28.2548 18.5542C28.2548 18.7482 28.0503 18.9517 28.0503 18.9517C28.0503 18.9517 27.9271 19.0368 27.9271 18.9517C27.9271 18.9269 27.9247 18.9319 27.9154 18.9515C27.8928 18.9991 27.8294 19.1324 27.6607 19.1336V19.2522H26.9681L27.0657 19.1336C27.0657 19.1336 26.8945 19.0153 26.8277 18.9517C26.6086 18.9092 26.5382 18.7482 26.5382 18.7482ZM27.4207 18.1121C27.4287 18.0965 27.4333 18.0786 27.4333 18.0595C27.4333 17.9998 27.3885 17.9514 27.3333 17.9514C27.2781 17.9514 27.2333 17.9998 27.2333 18.0595C27.2333 18.0852 27.2416 18.1088 27.2555 18.1274L26.8771 18.7133L26.9166 18.7449L27.2948 18.1592C27.3066 18.1646 27.3196 18.1676 27.3333 18.1676C27.3528 18.1676 27.3709 18.1616 27.3863 18.1512L27.7842 18.7453L27.8232 18.7129L27.4207 18.1121ZM26.5382 17.2887H27.1807L27.2755 17.1747C27.25 17.1551 27.2333 17.1229 27.2333 17.0865C27.2333 17.0268 27.2781 16.9784 27.3333 16.9784C27.3885 16.9784 27.4333 17.0268 27.4333 17.0865C27.4333 17.1146 27.4234 17.1403 27.4071 17.1595L27.5371 17.2887H27.8272C27.8272 17.2887 28.2548 16.9008 28.2548 17.0947C28.2548 17.2887 28.0503 17.4923 28.0503 17.4923C28.0503 17.4923 27.9271 17.5773 27.9271 17.4923C27.9271 17.4674 27.9247 17.4725 27.9154 17.4921C27.8928 17.5396 27.8294 17.6729 27.6607 17.6742V17.7927H26.9681L27.0657 17.6742C27.0657 17.6742 26.8945 17.5558 26.8277 17.4923C26.6086 17.4497 26.5382 17.2887 26.5382 17.2887ZM27.4207 16.6526C27.4287 16.6371 27.4333 16.6191 27.4333 16.6C27.4333 16.5403 27.3885 16.4919 27.3333 16.4919C27.2781 16.4919 27.2333 16.5403 27.2333 16.6C27.2333 16.6257 27.2416 16.6494 27.2555 16.6679L26.8771 17.2539L26.9166 17.2854L27.2948 16.6998C27.3066 16.7051 27.3196 16.7081 27.3333 16.7081C27.3528 16.7081 27.3709 16.7021 27.3863 16.6917L27.7842 17.2858L27.8232 17.2535L27.4207 16.6526ZM26.5382 15.8293H27.1807L27.2755 15.7152C27.25 15.6956 27.2333 15.6634 27.2333 15.627C27.2333 15.5673 27.2781 15.5189 27.3333 15.5189C27.3885 15.5189 27.4333 15.5673 27.4333 15.627C27.4333 15.6552 27.4234 15.6808 27.4071 15.7L27.5371 15.8293H27.8272C27.8272 15.8293 28.2548 15.4413 28.2548 15.6353C28.2548 15.8293 28.0503 16.0328 28.0503 16.0328C28.0503 16.0328 27.9271 16.1178 27.9271 16.0328C27.9271 16.008 27.9247 16.013 27.9154 16.0326C27.8928 16.0802 27.8294 16.2134 27.6607 16.2147V16.3332H26.9681L27.0657 16.2147C27.0657 16.2147 26.8945 16.0964 26.8277 16.0328C26.6086 15.9903 26.5382 15.8293 26.5382 15.8293ZM27.4207 15.1932C27.4287 15.1776 27.4333 15.1597 27.4333 15.1405C27.4333 15.0808 27.3885 15.0324 27.3333 15.0324C27.2781 15.0324 27.2333 15.0808 27.2333 15.1405C27.2333 15.1663 27.2416 15.1899 27.2555 15.2085L26.8771 15.7944L26.9166 15.826L27.2948 15.2403C27.3066 15.2457 27.3196 15.2486 27.3333 15.2486C27.3528 15.2486 27.3709 15.2426 27.3863 15.2322L27.7842 15.8263L27.8232 15.794L27.4207 15.1932ZM26.4897 14.4239H27.1321L27.2269 14.3098C27.2014 14.2902 27.1848 14.258 27.1848 14.2216C27.1848 14.1619 27.2295 14.1135 27.2848 14.1135C27.34 14.1135 27.3848 14.1619 27.3848 14.2216C27.3848 14.2498 27.3748 14.2754 27.3585 14.2946L27.4885 14.4239H27.7787C27.7787 14.4239 28.2062 14.0359 28.2062 14.2299C28.2062 14.4239 28.0018 14.6274 28.0018 14.6274C28.0018 14.6274 27.8786 14.7124 27.8786 14.6274C27.8786 14.6026 27.8762 14.6076 27.8669 14.6272C27.8443 14.6748 27.7809 14.808 27.6121 14.8093V14.9278H26.9195L27.0171 14.8093C27.0171 14.8093 26.846 14.691 26.7792 14.6274C26.5601 14.5849 26.4897 14.4239 26.4897 14.4239ZM27.3721 13.7878C27.3802 13.7722 27.3848 13.7542 27.3848 13.7351C27.3848 13.6754 27.34 13.627 27.2848 13.627C27.2295 13.627 27.1848 13.6754 27.1848 13.7351C27.1848 13.7609 27.1931 13.7845 27.207 13.8031L26.8286 14.389L26.868 14.4205L27.2462 13.8349C27.2581 13.8403 27.2711 13.8432 27.2848 13.8432C27.3042 13.8432 27.3224 13.8372 27.3377 13.8268L27.7357 14.4209L27.7746 14.3886L27.3721 13.7878ZM26.4897 12.9103H27.1321L27.2269 12.7963C27.2014 12.7767 27.1848 12.7445 27.1848 12.7081C27.1848 12.6484 27.2295 12.6 27.2848 12.6C27.34 12.6 27.3848 12.6484 27.3848 12.7081C27.3848 12.7362 27.3748 12.7619 27.3585 12.7811L27.4885 12.9103H27.7787C27.7787 12.9103 28.2062 12.5224 28.2062 12.7164C28.2062 12.9103 28.0018 13.1139 28.0018 13.1139C28.0018 13.1139 27.8786 13.1989 27.8786 13.1139C27.8786 13.089 27.8762 13.0941 27.8669 13.1137C27.8443 13.1613 27.7809 13.2945 27.6121 13.2958V13.4143H26.9195L27.0171 13.2958C27.0171 13.2958 26.846 13.1775 26.7792 13.1139C26.5601 13.0714 26.4897 12.9103 26.4897 12.9103ZM27.3721 12.2743C27.3802 12.2587 27.3848 12.2407 27.3848 12.2216C27.3848 12.1619 27.34 12.1135 27.2848 12.1135C27.2295 12.1135 27.1848 12.1619 27.1848 12.2216C27.1848 12.2474 27.1931 12.271 27.207 12.2896L26.8286 12.8755L26.868 12.907L27.2462 12.3214C27.2581 12.3268 27.2711 12.3297 27.2848 12.3297C27.3042 12.3297 27.3224 12.3237 27.3377 12.3133L27.7357 12.9074L27.7746 12.8751L27.3721 12.2743Z" fill="#FFD018"/>
<path fill-rule="evenodd" clip-rule="evenodd" d="M24.6396 12.5857L24.3032 13.6792C24.3032 13.6792 23.7397 14.4082 23.6358 14.7654C23.5319 15.1227 23.4749 15.3601 23.5034 15.3601C23.5319 15.3601 23.7621 15.2583 23.7621 15.0119C23.7621 14.7654 24.6396 13.9729 24.6396 13.9729L24.9015 12.5857H24.6396Z" fill="#FFC6B5"/>
<path fill-rule="evenodd" clip-rule="evenodd" d="M27.3727 10.8689C27.3807 10.8533 27.3853 10.8353 27.3853 10.8162C27.3853 10.7565 27.3405 10.7081 27.2853 10.7081C27.2301 10.7081 27.1853 10.7565 27.1853 10.8162C27.1853 10.842 27.1936 10.8656 27.2075 10.8842L26.8291 11.4701L26.8685 11.5017L27.2467 10.916C27.2586 10.9214 27.2716 10.9243 27.2853 10.9243C27.3047 10.9243 27.3229 10.9183 27.3383 10.9079L27.7362 11.502L27.7751 11.4697L27.3727 10.8689ZM27.359 11.3757C27.3753 11.3565 27.3853 11.3309 27.3853 11.3027C27.3853 11.243 27.3405 11.1946 27.2853 11.1946C27.2301 11.1946 27.1853 11.243 27.1853 11.3027C27.1853 11.3391 27.2019 11.3713 27.2275 11.3909L27.1327 11.505H26.4902C26.4902 11.505 26.5606 11.666 26.7797 11.7085C26.8465 11.7721 27.0177 11.8904 27.0177 11.8904L26.9201 12.0089H27.6126V11.8904C27.7814 11.8891 27.8448 11.7559 27.8674 11.7083C27.8767 11.6887 27.8791 11.6837 27.8791 11.7085C27.8791 11.7935 28.0023 11.7085 28.0023 11.7085C28.0023 11.7085 28.2068 11.505 28.2068 11.311C28.2068 11.117 27.7792 11.505 27.7792 11.505H27.489L27.359 11.3757Z" fill="#FFD018"/>
<path fill-rule="evenodd" clip-rule="evenodd" d="M25.4592 12.148C25.4687 12.1679 25.4758 12.1829 25.4758 12.204C25.4758 12.2671 25.2085 12.3597 25.0157 12.3597C24.823 12.3597 24.8985 12.204 25.0157 12.1177C25.1329 12.0314 25.0063 11.8828 24.8985 11.8828C24.7962 11.8828 24.7966 11.7383 24.7969 11.6222C24.7969 11.616 24.7969 11.61 24.7969 11.604V11.1515C24.7969 10.97 24.8461 10.9913 24.9401 11.0319C24.9954 11.0558 25.0662 11.0864 25.1516 11.0864C25.2951 11.0864 25.3031 11.1195 25.3246 11.209C25.3377 11.2634 25.3558 11.3386 25.4124 11.4399C25.5024 11.6012 25.4841 11.6383 25.4552 11.6967C25.4361 11.7354 25.4124 11.7834 25.4124 11.8828C25.4124 12.049 25.4405 12.1083 25.4592 12.148ZM25.6973 13.3086L25.7541 12.6936C25.7541 12.6936 25.6973 12.4686 25.8302 12.4686C25.9631 12.4686 26.1694 13.5442 26.244 13.9754C26.2917 14.2512 26.2479 14.3024 26.1213 14.4502C26.05 14.5335 25.9524 14.6475 25.8302 14.8497C25.6268 15.1861 25.6399 15.3829 25.6499 15.5329C25.6566 15.6331 25.6619 15.7124 25.6004 15.7984C25.4574 15.9983 25.3988 15.8091 25.3416 15.6245C25.3373 15.6108 25.3331 15.5971 25.3288 15.5836C25.2742 15.411 25.5234 14.8877 25.6926 14.5322C25.7147 14.4857 25.7355 14.4421 25.7541 14.4025C25.9144 14.0603 25.8993 13.9408 25.8302 13.7975C25.7611 13.6541 25.6973 13.3086 25.6973 13.3086Z" fill="#FFC6B5"/>
<path fill-rule="evenodd" clip-rule="evenodd" d="M26.0201 19.3697C26.0201 19.5261 25.9005 19.6528 25.7531 19.6528C25.6056 19.6528 25.4861 19.5261 25.4861 19.3697C25.4861 19.2133 25.6056 19.0865 25.7531 19.0865C25.9005 19.0865 26.0201 19.2133 26.0201 19.3697ZM24.6002 19.4484C24.4804 19.5489 24.3344 19.5721 24.274 19.5002C24.2137 19.4283 24.2619 19.2886 24.3817 19.1881C24.5015 19.0875 24.6475 19.0643 24.7078 19.1362C24.7682 19.2081 24.7199 19.3478 24.6002 19.4484Z" fill="#FFD018"/>
<path fill-rule="evenodd" clip-rule="evenodd" d="M24.9504 10.7847C24.9504 10.7847 24.6728 10.841 24.7653 10.9801C24.8579 11.1191 24.6447 11.0831 24.9504 11.1011C25.2561 11.1191 25.3398 11.2304 25.298 11.3126C25.2561 11.3948 25.2233 11.599 25.298 11.722C25.3727 11.845 25.3964 12.0591 25.5283 11.952C25.6603 11.845 25.9138 11.698 25.8362 11.5053C25.7585 11.3126 25.8675 11.0885 25.6979 10.9801C25.5283 10.8717 25.4905 10.938 25.3934 10.7847C25.2964 10.6314 25.1535 10.5892 25.0519 10.6869C24.9504 10.7847 24.9504 10.7847 24.9504 10.7847Z" fill="#A95601"/>
<path fill-rule="evenodd" clip-rule="evenodd" d="M24.8959 12.1775C24.8959 12.1775 24.3378 12.8494 24.4292 13.0861C24.5206 13.3229 24.6571 13.3353 24.5889 13.6719C24.5206 14.0085 24.6304 14.5289 24.4292 15.1909C24.228 15.8529 24.0958 17.4061 24.1619 17.4061C24.228 17.4061 24.3198 18.2641 24.2409 18.649C24.1619 19.0339 23.6111 19.3559 24.1619 19.3559C24.7127 19.3559 24.778 19.4322 24.9981 19.3559C25.2183 19.2796 25.5306 19.5755 25.5306 19.3559C25.5306 19.1364 25.5541 19.0914 25.7219 19.0914C25.8897 19.0914 25.8812 19.0914 26.0298 19.0914C26.1783 19.0914 26.373 19.2297 26.373 18.9017C26.373 18.5737 26.4093 17.8689 26.2195 17.3216C26.0298 16.7743 26.0942 17.1238 25.9081 16.392C25.7978 15.9585 25.7126 15.7864 25.6456 15.635C25.5994 15.5308 25.4677 15.7137 25.4364 15.5505C25.4258 15.4952 25.516 15.1706 25.5169 15.1289C25.5228 14.8691 25.7219 14.8249 25.7219 14.3779C25.7219 13.8592 25.5976 13.2894 25.7219 13.0043C25.8462 12.7192 26.1515 12.8906 26.0298 12.6133C25.9081 12.3361 25.8684 12.1775 25.6394 12.1775C25.4104 12.1775 24.8959 12.1775 24.8959 12.1775Z" fill="#F7FCFF"/>
<path d="M20.9863 20.1454L21.0798 20.0211C22.4158 21.2655 23.651 21.8856 24.7846 21.8856C25.9194 21.8856 27.301 21.2274 28.9268 19.9075L29.0126 20.0385C27.3642 21.3768 25.9558 22.0478 24.7846 22.0478C23.6122 22.0478 22.3464 21.4122 20.9863 20.1454Z" fill="#272727"/>
</g>
</g>
<rect width="32" height="24" fill="url(#paint0_linear_230_22426)" style="mix-blend-mode:overlay"/>
</g>
<rect x="0.5" y="0.5" width="31" height="23" rx="1.5" stroke="black" stroke-opacity="0.1"/>
<defs>
<linearGradient id="paint0_linear_230_22426" x1="16" y1="0" x2="16" y2="24" gradientUnits="userSpaceOnUse">
<stop stop-color="white" stop-opacity="0.7"/>
<stop offset="1" stop-opacity="0.3"/>
</linearGradient>
<clipPath id="clip0_230_22426">
<rect width="32" height="24" rx="2" fill="white"/>
</clipPath>
</defs>
</svg>
