<svg width="32" height="24" viewBox="0 0 32 24" fill="none" xmlns="http://www.w3.org/2000/svg">
<g clip-path="url(#clip0_230_27015)">
<mask id="mask0_230_27015" style="mask-type:luminance" maskUnits="userSpaceOnUse" x="0" y="0" width="32" height="24">
<rect width="32" height="24" fill="white"/>
</mask>
<g mask="url(#mask0_230_27015)">
<path fill-rule="evenodd" clip-rule="evenodd" d="M0 0V24H32V0H0Z" fill="#FFB400"/>
<mask id="mask1_230_27015" style="mask-type:luminance" maskUnits="userSpaceOnUse" x="0" y="0" width="32" height="24">
<path fill-rule="evenodd" clip-rule="evenodd" d="M0 0V24H32V0H0Z" fill="white"/>
</mask>
<g mask="url(#mask1_230_27015)">
<path fill-rule="evenodd" clip-rule="evenodd" d="M0 0V6H32V0H0Z" fill="#C51918"/>
<path fill-rule="evenodd" clip-rule="evenodd" d="M0 18V24H32V18H0Z" fill="#C51918"/>
<rect x="5.00781" y="10.272" width="1.12" height="5.824" fill="#F1F9FF"/>
<path fill-rule="evenodd" clip-rule="evenodd" d="M6.57655 9.26401H4.56055V9.82401H4.89655V10.272H6.24055V9.82401H6.57655V9.26401Z" fill="#C88A02"/>
<path fill-rule="evenodd" clip-rule="evenodd" d="M6.24055 16.432H6.57655V16.992H4.56055V16.432H4.89655V15.984H6.24055V16.432Z" fill="#C88A02"/>
<path fill-rule="evenodd" clip-rule="evenodd" d="M5.56916 9.37601C5.81289 9.37601 5.83766 9.28424 5.98146 9.14716C6.09311 9.04072 6.35316 8.90872 6.35316 8.76001C6.35316 8.41981 6.00215 8.14401 5.56916 8.14401C5.13616 8.14401 4.78516 8.41981 4.78516 8.76001C4.78516 8.92568 4.96424 9.03645 5.09964 9.14716C5.2423 9.2638 5.34701 9.37601 5.56916 9.37601Z" fill="#AD1619"/>
<path fill-rule="evenodd" clip-rule="evenodd" d="M4.56055 16.992H6.57655V17.888C6.57655 17.888 6.32455 17.776 6.07255 17.776C5.82055 17.776 5.56855 17.888 5.56855 17.888C5.56855 17.888 5.31655 17.776 5.06455 17.776C4.81255 17.776 4.56055 17.888 4.56055 17.888V16.992Z" fill="#005BBF"/>
<mask id="mask2_230_27015" style="mask-type:luminance" maskUnits="userSpaceOnUse" x="4" y="16" width="3" height="2">
<path fill-rule="evenodd" clip-rule="evenodd" d="M4.56055 16.992H6.57655V17.888C6.57655 17.888 6.32455 17.776 6.07255 17.776C5.82055 17.776 5.56855 17.888 5.56855 17.888C5.56855 17.888 5.31655 17.776 5.06455 17.776C4.81255 17.776 4.56055 17.888 4.56055 17.888V16.992Z" fill="white"/>
</mask>
<g mask="url(#mask2_230_27015)">
<path d="M4.54205 17.7119L4.49805 17.6046C4.67963 17.5238 4.86185 17.4833 5.04435 17.4833C5.16226 17.4833 5.22383 17.4997 5.3285 17.5463C5.42044 17.5872 5.4681 17.5999 5.56865 17.5999C5.6692 17.5999 5.71686 17.5872 5.8088 17.5463C5.91348 17.4997 5.97505 17.4833 6.09296 17.4833C6.27546 17.4833 6.45768 17.5238 6.63926 17.6046L6.59526 17.7119C6.4273 17.6372 6.25999 17.5999 6.09296 17.5999C5.99241 17.5999 5.94475 17.6127 5.85281 17.6536C5.74813 17.7002 5.68656 17.7166 5.56865 17.7166C5.45075 17.7166 5.38917 17.7002 5.2845 17.6536C5.19256 17.6127 5.1449 17.5999 5.04435 17.5999C4.87732 17.5999 4.71001 17.6372 4.54205 17.7119Z" fill="white"/>
<path d="M4.54205 17.3759L4.49805 17.2686C4.67963 17.1878 4.86185 17.1473 5.04435 17.1473C5.16226 17.1473 5.22383 17.1637 5.3285 17.2103C5.42044 17.2512 5.4681 17.2639 5.56865 17.2639C5.6692 17.2639 5.71686 17.2512 5.8088 17.2103C5.91348 17.1637 5.97505 17.1473 6.09296 17.1473C6.27546 17.1473 6.45768 17.1878 6.63926 17.2686L6.59526 17.3759C6.4273 17.3012 6.25999 17.2639 6.09296 17.2639C5.99241 17.2639 5.94475 17.2767 5.85281 17.3176C5.74813 17.3642 5.68656 17.3806 5.56865 17.3806C5.45075 17.3806 5.38917 17.3642 5.2845 17.3176C5.19256 17.2767 5.1449 17.2639 5.04435 17.2639C4.87732 17.2639 4.71001 17.3012 4.54205 17.3759Z" fill="white"/>
</g>
<rect x="15.9844" y="10.272" width="1.12" height="5.824" fill="#F1F9FF"/>
<path fill-rule="evenodd" clip-rule="evenodd" d="M17.5531 9.26401H15.5371V9.82401H15.8731V10.272H17.2171V9.82401H17.5531V9.26401Z" fill="#C88A02"/>
<path fill-rule="evenodd" clip-rule="evenodd" d="M17.2171 16.432H17.5531V16.992H15.5371V16.432H15.8731V15.984H17.2171V16.432Z" fill="#C88A02"/>
<path fill-rule="evenodd" clip-rule="evenodd" d="M16.5457 9.37601C16.7895 9.37601 16.8142 9.28424 16.958 9.14716C17.0697 9.04072 17.3297 8.90872 17.3297 8.76001C17.3297 8.41981 16.9787 8.14401 16.5457 8.14401C16.1127 8.14401 15.7617 8.41981 15.7617 8.76001C15.7617 8.92568 15.9408 9.03645 16.0762 9.14716C16.2189 9.2638 16.3236 9.37601 16.5457 9.37601Z" fill="#AD1619"/>
<path fill-rule="evenodd" clip-rule="evenodd" d="M15.5371 16.992H17.5531V17.888C17.5531 17.888 17.3011 17.776 17.0491 17.776C16.7971 17.776 16.5451 17.888 16.5451 17.888C16.5451 17.888 16.2931 17.776 16.0411 17.776C15.7891 17.776 15.5371 17.888 15.5371 17.888V16.992Z" fill="#005BBF"/>
<mask id="mask3_230_27015" style="mask-type:luminance" maskUnits="userSpaceOnUse" x="15" y="16" width="3" height="2">
<path fill-rule="evenodd" clip-rule="evenodd" d="M15.5371 16.992H17.5531V17.888C17.5531 17.888 17.3011 17.776 17.0491 17.776C16.7971 17.776 16.5451 17.888 16.5451 17.888C16.5451 17.888 16.2931 17.776 16.0411 17.776C15.7891 17.776 15.5371 17.888 15.5371 17.888V16.992Z" fill="white"/>
</mask>
<g mask="url(#mask3_230_27015)">
<path d="M15.5186 17.7119L15.4746 17.6046C15.6562 17.5238 15.8384 17.4833 16.0209 17.4833C16.1388 17.4833 16.2004 17.4997 16.3051 17.5463C16.397 17.5872 16.4447 17.5999 16.5452 17.5999C16.6458 17.5999 16.6934 17.5872 16.7854 17.5463C16.89 17.4997 16.9516 17.4833 17.0695 17.4833C17.252 17.4833 17.4342 17.5238 17.6158 17.6046L17.5718 17.7119C17.4039 17.6372 17.2366 17.5999 17.0695 17.5999C16.969 17.5999 16.9213 17.6127 16.8294 17.6536C16.7247 17.7002 16.6631 17.7166 16.5452 17.7166C16.4273 17.7166 16.3657 17.7002 16.2611 17.6536C16.1691 17.6127 16.1215 17.5999 16.0209 17.5999C15.8539 17.5999 15.6866 17.6372 15.5186 17.7119Z" fill="white"/>
<path d="M15.5186 17.3759L15.4746 17.2686C15.6562 17.1878 15.8384 17.1473 16.0209 17.1473C16.1388 17.1473 16.2004 17.1637 16.3051 17.2103C16.397 17.2512 16.4447 17.2639 16.5452 17.2639C16.6458 17.2639 16.6934 17.2512 16.7854 17.2103C16.89 17.1637 16.9516 17.1473 17.0695 17.1473C17.252 17.1473 17.4342 17.1878 17.6158 17.2686L17.5718 17.3759C17.4039 17.3012 17.2366 17.2639 17.0695 17.2639C16.969 17.2639 16.9213 17.2767 16.8294 17.3176C16.7247 17.3642 16.6631 17.3806 16.5452 17.3806C16.4273 17.3806 16.3657 17.3642 16.2611 17.3176C16.1691 17.2767 16.1215 17.2639 16.0209 17.2639C15.8539 17.2639 15.6866 17.3012 15.5186 17.3759Z" fill="white"/>
</g>
<path fill-rule="evenodd" clip-rule="evenodd" d="M4.98874 15.6799C5.19066 15.4351 5.30358 15.2124 5.30358 14.9759C5.30358 14.8267 5.25919 14.6979 5.18143 14.5927L5.19457 14.5868C5.19336 14.5873 5.41609 14.4902 5.49364 14.4531C5.63779 14.3839 5.76478 14.3107 5.88861 14.2207C5.96766 14.1632 6.07358 14.1006 6.23504 14.0139C6.26294 13.9989 6.33856 13.9588 6.3868 13.9332L6.42774 13.9114C6.50621 13.8695 6.56465 13.8375 6.61894 13.806C6.7881 13.7078 6.8999 13.6267 6.9854 13.5183C7.18792 13.2615 7.14587 12.9134 6.86208 12.7202C6.72304 12.6255 6.53542 12.5712 6.26039 12.5284L6.20351 12.5196C6.10956 12.5051 5.92903 12.4772 5.86703 12.4674C5.73542 12.4468 5.61798 12.4275 5.51328 12.4092C6.20184 12.2946 7.18508 12.3367 7.61758 12.56L8.02863 11.7639C7.14729 11.3088 5.13916 11.3553 4.38903 11.8719C3.83883 12.2508 3.91266 12.8236 4.48511 13.0702C4.72432 13.1733 5.03614 13.2417 5.61319 13.3344C5.51649 13.3905 5.43632 13.4417 5.36162 13.496C5.28586 13.5511 5.2047 13.5979 5.10625 13.6451C5.05917 13.6677 4.91978 13.7289 4.85586 13.757L4.85581 13.757L4.85581 13.757L4.82369 13.7711C4.35741 13.9832 4.13111 14.2765 4.19874 14.8059L4.23534 15.0925L4.301 15.1127L4.98874 15.6799ZM4.41235 14.9393L4.41093 14.9434L4.41202 14.9405L4.41235 14.9393ZM16.7067 14.9759C16.7067 15.2124 16.8196 15.4351 17.0216 15.6799L17.7093 15.1127L17.775 15.0925L17.8116 14.8059C17.8792 14.2765 17.6529 13.9832 17.1866 13.7711L17.1545 13.757C17.0906 13.7289 16.9511 13.6677 16.9041 13.6451C16.8056 13.5979 16.7244 13.5511 16.6487 13.496C16.574 13.4417 16.4938 13.3905 16.3971 13.3344C16.9742 13.2417 17.286 13.1733 17.5252 13.0702C18.0976 12.8236 18.1715 12.2508 17.6213 11.8719C16.8711 11.3553 14.863 11.3088 13.9817 11.7639L14.3927 12.56C14.8252 12.3367 15.8085 12.2946 16.497 12.4092C16.3923 12.4275 16.2749 12.4468 16.1433 12.4674C16.0813 12.4772 15.9009 12.5051 15.8069 12.5196L15.8065 12.5197L15.7499 12.5284C15.4749 12.5712 15.2873 12.6255 15.1482 12.7202C14.8644 12.9134 14.8224 13.2615 15.0249 13.5183C15.1104 13.6267 15.2222 13.7078 15.3914 13.806C15.4457 13.8375 15.5041 13.8695 15.5826 13.9114L15.6233 13.9331C15.6716 13.9587 15.7473 13.9989 15.7753 14.0139C15.9367 14.1006 16.0426 14.1632 16.1217 14.2207C16.2455 14.3107 16.3725 14.3839 16.5167 14.4531C16.5942 14.4902 16.8169 14.5873 16.8157 14.5868L16.8289 14.5927C16.7511 14.6979 16.7067 14.8267 16.7067 14.9759Z" fill="#AD1619"/>
<path d="M5.92317 12.4L6.25375 12.4684V12.9612C5.90166 13.2421 5.00781 13.7156 5.00781 13.7156V12.4H5.92317Z" fill="#F1F9FF"/>
<path d="M16.3151 12.4L15.9845 12.4684V12.9612C16.3366 13.2421 17.2305 13.7156 17.2305 13.7156V12.4H16.3151Z" fill="#F1F9FF"/>
<path fill-rule="evenodd" clip-rule="evenodd" d="M14.7771 7.20597V7.04198C14.201 6.62854 13.5978 6.42181 12.9673 6.42181C12.3629 6.15434 11.7511 6.05051 11.1319 6.11034C11.1321 6.10843 11.1322 6.10745 11.1322 6.10745C10.2012 6.01636 9.26295 6.42181 9.26295 6.42181C8.31725 6.42181 7.45312 7.04198 7.45312 7.04198V7.20597L8.58275 8.34049C8.58275 8.34049 8.90072 9.43249 11.1276 9.17584V9.17861C11.1276 9.17861 12.6019 9.13837 12.7055 9.10391C12.7466 9.09024 12.7892 9.0778 12.8328 9.06508C13.1216 8.98077 13.4513 8.88452 13.6475 8.34049L14.7771 7.20597ZM11.1276 6.16051C11.0954 6.53822 10.9118 8.81515 11.1276 9.16816V6.16051Z" fill="#AD1619"/>
<path fill-rule="evenodd" clip-rule="evenodd" d="M8.31545 8.14957L8.3162 8.14612L7.52148 7.39843L7.59823 7.31686L8.34395 8.01846L8.36304 7.93068C8.48504 7.95721 8.57421 7.96696 8.62618 7.96144V7.80924L8.79149 7.8987C8.8728 7.9427 8.98924 7.95454 9.14261 7.92958C9.25525 7.91125 9.33126 7.78043 9.35611 7.50167L9.40628 6.9389L9.57458 7.47825C9.65074 7.72231 9.76692 7.8299 9.93232 7.8299C10.0939 7.8299 10.1588 7.77067 10.166 7.62139L10.1863 7.19801L10.3778 7.57617C10.4467 7.71241 10.5419 7.77422 10.6771 7.77422C10.8706 7.77422 10.9998 7.61294 10.9998 7.3599H11.0034H11.2238H11.2274C11.2274 7.61294 11.3567 7.77422 11.5501 7.77422C11.6854 7.77422 11.7805 7.71241 11.8495 7.57617L12.0409 7.19801L12.0613 7.62139C12.0684 7.77067 12.1334 7.8299 12.2949 7.8299C12.4603 7.8299 12.5765 7.72231 12.6527 7.47825L12.821 6.9389L12.8711 7.50167C12.896 7.78043 12.972 7.91125 13.0846 7.92958C13.238 7.95454 13.3544 7.9427 13.4357 7.8987L13.6011 7.80924V7.96144C13.653 7.96696 13.7422 7.95721 13.8642 7.93068L13.8996 8.09355L14.7251 7.31686L14.8019 7.39843L13.7746 8.36494C13.6247 8.64097 13.5492 8.82316 13.5492 8.89884C13.5492 9.0143 13.2488 9.08283 12.6626 9.15322C12.2033 9.20837 11.6613 9.24538 11.2179 9.25091V9.25163L11.1617 9.25145L11.1055 9.25163V9.25091C10.6621 9.24538 10.1201 9.20837 9.66079 9.15322C9.07453 9.08283 8.77415 9.0143 8.77415 8.89884C8.77415 8.88453 8.77144 8.8664 8.76605 8.84454C8.70693 8.76926 8.66537 8.6461 8.63771 8.535C8.61176 8.48305 8.58211 8.42632 8.54879 8.36494L8.32119 8.15081L8.31545 8.14957ZM13.8209 8.1676C13.6375 8.20007 13.505 8.19679 13.4347 8.13957C13.3248 8.17156 13.1959 8.17463 13.0487 8.15067C12.8914 8.12509 12.7819 8.0205 12.716 7.847C12.63 7.95659 12.5213 8.02423 12.391 8.04611C13.1077 8.14775 13.6098 8.29063 13.6098 8.29063C13.6098 8.29063 13.5974 8.39677 13.5673 8.52157C13.5991 8.45624 13.6369 8.38364 13.6805 8.30352L13.6913 8.28952L13.8209 8.1676ZM12.0528 8.00353C11.9904 7.97256 11.9407 7.92765 11.9047 7.86977C11.8512 7.91696 11.7905 7.95148 11.723 7.97277C11.8357 7.98139 11.9458 7.9918 12.0528 8.00353ZM11.3276 7.95098C11.2403 7.91066 11.1678 7.8461 11.1136 7.76337C11.0598 7.84552 10.9879 7.90975 10.9015 7.95012C10.9527 7.9486 11.0042 7.94752 11.0559 7.94694V7.94644L11.1008 7.94656L11.1458 7.94644V7.94694C11.2067 7.94763 11.2674 7.949 11.3276 7.95098ZM8.62392 8.28186L8.5195 8.18361C8.64485 8.19604 8.73763 8.18425 8.7925 8.13957C8.90243 8.17156 9.03136 8.17463 9.17858 8.15067C9.33582 8.12509 9.44532 8.0205 9.5112 7.847C9.59473 7.95341 9.6997 8.02028 9.82499 8.04409C9.20705 8.13091 8.746 8.24903 8.62392 8.28186ZM10.4994 7.97121C10.3909 7.97928 10.2847 7.98902 10.1814 8.00003C10.2405 7.96921 10.2879 7.92551 10.3226 7.86977C10.3747 7.91583 10.4339 7.94981 10.4994 7.97121ZM13.2548 8.90104C13.3332 8.93776 13.3961 8.90113 13.4459 8.83081C13.4416 8.85023 13.4389 8.86779 13.4378 8.88351C13.4312 8.88782 13.4211 8.89299 13.4079 8.89855C13.371 8.91406 13.3147 8.93058 13.2414 8.9473C13.0973 8.98017 12.8923 9.01284 12.6492 9.04202C12.1746 9.099 11.6103 9.1365 11.1617 9.13945C10.7131 9.1365 10.1487 9.099 9.67415 9.04202C9.43111 9.01284 9.22605 8.98017 9.08198 8.9473C9.02054 8.93329 8.97102 8.91941 8.93487 8.90615C8.93885 8.90464 8.94287 8.90294 8.94693 8.90104C9.1916 8.78655 10.8095 8.67911 11.1008 8.66057C11.3922 8.67911 13.0101 8.78655 13.2548 8.90104ZM13.5627 8.88113L13.5618 8.88218L13.5626 8.88106L13.5633 8.88052L13.5627 8.88113Z" fill="#C88A02"/>
<path fill-rule="evenodd" clip-rule="evenodd" d="M11.1133 5.34708C11.2989 5.34708 11.4493 5.19665 11.4493 5.01108C11.4493 4.82551 11.2989 4.67508 11.1133 4.67508C10.9278 4.67508 10.7773 4.82551 10.7773 5.01108C10.7773 5.19665 10.9278 5.34708 11.1133 5.34708Z" fill="#005BBF"/>
<path fill-rule="evenodd" clip-rule="evenodd" d="M10.8945 6.99679C10.9017 7.03367 10.9129 7.068 10.927 7.09859C10.8836 7.08202 10.8321 7.07241 10.7768 7.07241C10.6222 7.07241 10.4968 7.14763 10.4968 7.24041C10.4968 7.3332 10.6222 7.40841 10.7768 7.40841C10.9315 7.40841 11.0568 7.3332 11.0568 7.24041C11.0568 7.3332 11.1822 7.40841 11.3368 7.40841C11.4915 7.40841 11.6168 7.3332 11.6168 7.24041C11.6168 7.14763 11.4915 7.07241 11.3368 7.07241C11.2979 7.07241 11.2608 7.07718 11.2271 7.08579C11.2353 7.03986 11.2349 6.9872 11.2243 6.93268C11.1948 6.78088 11.0971 6.67217 11.006 6.68988C10.9149 6.70758 10.865 6.84499 10.8945 6.99679ZM11.0568 7.24041L11.0567 7.23529L11.057 7.23537L11.0568 7.24041ZM9.247 7.21059C9.23285 7.18 9.22165 7.14567 9.21449 7.10879C9.18498 6.95699 9.23489 6.81958 9.32597 6.80188C9.41705 6.78417 9.51481 6.89288 9.54431 7.04468C9.55491 7.0992 9.55526 7.15186 9.54714 7.19779C9.58083 7.18918 9.6179 7.18441 9.65683 7.18441C9.81147 7.18441 9.93683 7.25963 9.93683 7.35241C9.93683 7.4452 9.81147 7.52041 9.65683 7.52041C9.50219 7.52041 9.37683 7.4452 9.37683 7.35241L9.37695 7.34737L9.3767 7.34729L9.37683 7.35241C9.37683 7.4452 9.25147 7.52041 9.09683 7.52041C8.94219 7.52041 8.81683 7.4452 8.81683 7.35241C8.81683 7.25963 8.94219 7.18441 9.09683 7.18441C9.15208 7.18441 9.2036 7.19402 9.247 7.21059ZM12.7548 7.31297C12.7418 7.40485 12.6072 7.46189 12.4541 7.44037C12.301 7.41885 12.1873 7.32692 12.2002 7.23504C12.2131 7.14316 12.3477 7.08612 12.5009 7.10764C12.5556 7.11533 12.6053 7.13201 12.6459 7.15447C12.6362 7.1222 12.6299 7.08664 12.6279 7.04913C12.6198 6.8947 12.6884 6.76557 12.781 6.76072C12.8737 6.75586 12.9553 6.87711 12.9634 7.03154C12.9664 7.08701 12.9594 7.13921 12.9449 7.18356C12.9795 7.17972 13.0169 7.18016 13.0554 7.18558C13.2085 7.2071 13.3222 7.29903 13.3093 7.39091C13.2964 7.48279 13.1618 7.53983 13.0087 7.51831C12.8555 7.49678 12.7418 7.40485 12.7548 7.31297ZM12.7548 7.31297L12.7553 7.30788L12.7556 7.308L12.7548 7.31297ZM13.8212 7.75723C13.9577 7.82983 14.1037 7.82227 14.1473 7.74034L14.1496 7.73576C14.163 7.74999 14.1789 7.76036 14.1971 7.76591C14.2858 7.79304 14.3944 7.69514 14.4396 7.54726C14.4848 7.39938 14.4496 7.2575 14.3608 7.23038C14.2721 7.20325 14.1635 7.30114 14.1183 7.44902C14.1073 7.48495 14.1011 7.52052 14.0992 7.55418C14.0687 7.51917 14.0277 7.4865 13.9789 7.46056C13.8424 7.38796 13.6964 7.39552 13.6528 7.47744C13.6093 7.55936 13.6846 7.68463 13.8212 7.75723ZM8.32564 7.79154C8.18911 7.86414 8.04311 7.85658 7.99955 7.77465C7.99874 7.77314 7.99798 7.77161 7.99725 7.77007C7.9838 7.7843 7.96788 7.79466 7.94972 7.80022C7.86099 7.82734 7.75241 7.72945 7.70719 7.58157C7.66198 7.43369 7.69726 7.29181 7.78599 7.26469C7.87472 7.23756 7.9833 7.33545 8.02851 7.48333C8.03949 7.51926 8.04573 7.55483 8.0476 7.58849C8.07813 7.55347 8.11911 7.52081 8.1679 7.49487C8.30444 7.42227 8.45044 7.42983 8.494 7.51175C8.53756 7.59367 8.46218 7.71894 8.32564 7.79154Z" fill="#C88A02"/>
<path fill-rule="evenodd" clip-rule="evenodd" d="M10.9888 4.0766H11.2221V4.224H11.3746V4.45734H11.2221V4.924H11.3746V5.15734H10.834V4.924H10.9888V4.45734H10.834V4.224H10.9888V4.0766Z" fill="#C88A02"/>
<rect x="10.9453" y="5.34399" width="0.448" height="1.456" fill="#C88A02"/>
<path d="M9.14214 5.58782L9.14018 5.6998C8.14708 5.68247 7.57743 5.82739 7.43282 6.11624C7.28332 6.41487 7.31112 6.77789 7.5206 7.20912L7.41986 7.25806C7.19636 6.79796 7.16583 6.39937 7.33267 6.06611C7.50441 5.72306 8.10703 5.56975 9.14214 5.58782Z" fill="white"/>
<path d="M9.33506 6.58098L9.27764 6.67714C9.06137 6.54801 8.95312 6.32763 8.95312 6.02393C8.95312 5.58745 9.17797 5.3315 9.67532 5.15634C9.99274 5.04455 10.4264 5.09038 10.9774 5.29016L10.9392 5.39545C10.4102 5.20367 10.0009 5.16041 9.71253 5.26198C9.25634 5.42264 9.06513 5.64031 9.06513 6.02393C9.06513 6.29044 9.15503 6.47349 9.33506 6.58098Z" fill="white"/>
<path d="M7.66177 7.03739L7.45042 7.11162C7.23114 6.48727 7.29376 6.06326 7.66846 5.88035C7.99863 5.71918 8.47981 5.65359 9.1144 5.67931L9.10533 5.90313C8.5045 5.87878 8.0575 5.93971 7.76672 6.08165C7.52047 6.20185 7.47543 6.50684 7.66177 7.03739Z" fill="#C88A02"/>
<path d="M10.1309 5.43869C9.61874 5.43869 9.40843 5.56343 9.28827 5.93171C9.2117 6.16641 9.28597 6.36673 9.52676 6.55371L9.38937 6.73063C9.07763 6.48855 8.96772 6.19207 9.07532 5.86224C9.22844 5.39289 9.5289 5.21469 10.1309 5.21469C10.5254 5.21469 10.8328 5.31835 11.0468 5.52931L11.0802 5.56221V6.64217H10.8562V5.65795C10.689 5.51277 10.4489 5.43869 10.1309 5.43869Z" fill="#C88A02"/>
<path d="M13.0512 5.69982L13.0532 5.8118C14.0463 5.79447 14.6159 5.93939 14.7605 6.22824C14.91 6.52687 14.8822 6.88989 14.6728 7.32112L14.7735 7.37006C14.997 6.90996 15.0275 6.51137 14.8607 6.17811C14.689 5.83506 14.0863 5.68175 13.0512 5.69982Z" fill="white"/>
<path d="M12.7001 6.60426L12.7575 6.70043C12.9738 6.57129 13.082 6.35092 13.082 6.04722C13.082 5.61074 12.8572 5.35478 12.3598 5.17962C12.0424 5.06783 11.6088 5.11367 11.0578 5.31345L11.096 5.41874C11.6249 5.22696 12.0342 5.18369 12.3226 5.28526C12.7788 5.44592 12.97 5.6636 12.97 6.04722C12.97 6.31373 12.8801 6.49677 12.7001 6.60426Z" fill="white"/>
<path d="M14.6 7.14939L14.8113 7.22362C15.0306 6.59927 14.968 6.17526 14.5933 5.99235C14.2631 5.83118 13.7819 5.76559 13.1473 5.79131L13.1564 6.01513C13.7572 5.99078 14.2042 6.05171 14.495 6.19365C14.7412 6.31385 14.7863 6.61884 14.6 7.14939Z" fill="#C88A02"/>
<path d="M12.1191 5.45599C12.6313 5.45599 12.8416 5.58073 12.9617 5.94902C13.0383 6.18372 12.964 6.38403 12.7232 6.57102L12.8606 6.74794C13.1724 6.50586 13.2823 6.20937 13.1747 5.87954C13.0216 5.41019 12.7211 5.23199 12.1191 5.23199C11.7246 5.23199 11.4172 5.33565 11.2032 5.54661L11.1698 5.57951V6.65948H11.3938V5.67525C11.561 5.53008 11.8011 5.45599 12.1191 5.45599Z" fill="#C88A02"/>
<path opacity="0.3" fill-rule="evenodd" clip-rule="evenodd" d="M7.47266 9.26401H14.7527V15.8048C14.7527 15.8048 14.2119 18 11.1127 18C8.01343 18 7.47266 15.747 7.47266 15.747V9.26401Z" fill="#E1E5E8"/>
<mask id="mask4_230_27015" style="mask-type:luminance" maskUnits="userSpaceOnUse" x="7" y="9" width="8" height="9">
<path fill-rule="evenodd" clip-rule="evenodd" d="M7.47266 9.26401H14.7527V15.8048C14.7527 15.8048 14.2119 18 11.1127 18C8.01343 18 7.47266 15.747 7.47266 15.747V9.26401Z" fill="white"/>
</mask>
<g mask="url(#mask4_230_27015)">
<rect x="7.47266" y="13.296" width="3.696" height="4.368" fill="#FFC034"/>
<rect x="7.91992" y="13.52" width="0.448" height="4.144" fill="#AD1619"/>
<rect x="9.48828" y="13.52" width="0.448" height="4.144" fill="#AD1619"/>
<rect x="8.70508" y="13.52" width="0.448" height="4.144" fill="#AD1619"/>
<rect x="10.2734" y="13.52" width="0.448" height="4.144" fill="#AD1619"/>
<rect x="7.47266" y="9.15201" width="3.696" height="4.256" fill="#AD1619"/>
<rect x="11.0566" y="13.184" width="3.696" height="4.256" fill="#AD1619"/>
<rect x="11.0566" y="9.26401" width="3.92" height="4.144" fill="#F1F9FF"/>
<path fill-rule="evenodd" clip-rule="evenodd" d="M9.03986 9.60001H9.37586V10.5292H9.59986V10.0646H9.93586V10.5292H10.2719V11.1099H9.93586V12.1553H10.2719V12.736H8.25586V12.1553H8.59186V11.1099H8.25586V10.5292H8.47986V10.0646H8.81586V10.5292H9.03986V9.60001Z" fill="#C88A02"/>
<path d="M12.9785 9.79504L13.2079 9.5495L13.6894 9.99932L13.4601 10.2449L12.9785 9.79504Z" fill="#C88A02"/>
<path fill-rule="evenodd" clip-rule="evenodd" d="M14.3605 16.1401V13.688H11.5605V16.1196L11.565 16.1385C11.7067 16.7425 12.1894 17.048 12.9605 17.048C13.7309 17.048 14.2136 16.7503 14.3559 16.1595L14.3605 16.1401ZM12.9605 16.712C12.3418 16.712 12.004 16.5036 11.8965 16.0799V14.024H14.0245V16.0994C13.9174 16.5093 13.5795 16.712 12.9605 16.712Z" fill="#FFC034"/>
<path fill-rule="evenodd" clip-rule="evenodd" d="M13.0759 13.8929H12.8425V15.0046L11.9227 14.0042L11.7578 14.1558L12.5897 15.0605H11.836V15.3965H12.4149H12.608L11.7578 16.3212L11.9227 16.4728L12.8425 15.4724V16.7718H13.0759V15.5893L13.8882 16.4728L14.0531 16.3212L13.2029 15.3965H14.1519V15.0605H13.2212L14.0531 14.1558L13.8882 14.0042L13.0759 14.8877V13.8929Z" fill="#FFC034"/>
<path fill-rule="evenodd" clip-rule="evenodd" d="M13.4831 17.4427C13.4831 17.4427 11.1109 17.6292 11.1109 16.0992C11.1109 16.0992 11.0883 17.4427 8.61133 17.4427V18.6505H13.4831V17.4427Z" fill="#F1F9FF"/>
<path fill-rule="evenodd" clip-rule="evenodd" d="M11.1134 14.192C11.5774 14.192 11.9534 13.7908 11.9534 13.296C11.9534 12.8011 11.5774 12.4 11.1134 12.4C10.6495 12.4 10.2734 12.8011 10.2734 13.296C10.2734 13.7908 10.6495 14.192 11.1134 14.192Z" fill="#005BBF" stroke="#AD1619" stroke-width="1.16667"/>
</g>
</g>
</g>
<rect width="32" height="24" fill="url(#paint0_linear_230_27015)" style="mix-blend-mode:overlay"/>
</g>
<rect x="0.5" y="0.5" width="31" height="23" rx="1.5" stroke="black" stroke-opacity="0.1"/>
<defs>
<linearGradient id="paint0_linear_230_27015" x1="16" y1="0" x2="16" y2="24" gradientUnits="userSpaceOnUse">
<stop stop-color="white" stop-opacity="0.7"/>
<stop offset="1" stop-opacity="0.3"/>
</linearGradient>
<clipPath id="clip0_230_27015">
<rect width="32" height="24" rx="2" fill="white"/>
</clipPath>
</defs>
</svg>
