<svg width="32" height="24" viewBox="0 0 32 24" fill="none" xmlns="http://www.w3.org/2000/svg">
<g clip-path="url(#clip0_230_23192)">
<mask id="mask0_230_23192" style="mask-type:luminance" maskUnits="userSpaceOnUse" x="0" y="0" width="32" height="24">
<rect width="32" height="24" fill="white"/>
</mask>
<g mask="url(#mask0_230_23192)">
<path fill-rule="evenodd" clip-rule="evenodd" d="M0 0V24H32V0H0Z" fill="#2E42A5"/>
<mask id="mask1_230_23192" style="mask-type:luminance" maskUnits="userSpaceOnUse" x="0" y="0" width="32" height="24">
<path fill-rule="evenodd" clip-rule="evenodd" d="M0 0V24H32V0H0Z" fill="white"/>
</mask>
<g mask="url(#mask1_230_23192)">
<path fill-rule="evenodd" clip-rule="evenodd" d="M3.29448 10.0634L2.40892 10.6114L2.75272 9.69146L2 8.99504H2.913L3.29448 8L3.58559 8.99504H4.5L3.84101 9.69146L4.16365 10.6114L3.29448 10.0634Z" fill="#F7FCFF"/>
<path fill-rule="evenodd" clip-rule="evenodd" d="M7.29448 6.06339L6.40892 6.61135L6.75272 5.69146L6 4.99504H6.913L7.29448 4L7.58559 4.99504H8.5L7.84101 5.69146L8.16365 6.61135L7.29448 6.06339Z" fill="#F7FCFF"/>
<path fill-rule="evenodd" clip-rule="evenodd" d="M11.2945 10.0634L10.4089 10.6114L10.7527 9.69146L10 8.99504H10.913L11.2945 8L11.5856 8.99504H12.5L11.841 9.69146L12.1637 10.6114L11.2945 10.0634Z" fill="#F7FCFF"/>
<path fill-rule="evenodd" clip-rule="evenodd" d="M7.29448 14.0634L6.40892 14.6114L6.75272 13.6915L6 12.995H6.913L7.29448 12L7.58559 12.995H8.5L7.84101 13.6915L8.16365 14.6114L7.29448 14.0634Z" fill="#F7FCFF"/>
<path fill-rule="evenodd" clip-rule="evenodd" d="M24.8425 5.46313C20.759 7.4803 7.34172 16.5452 7.34172 16.5452H29.6929C29.4696 16.4953 29.2614 16.4539 29.065 16.4148C27.4242 16.0881 26.6143 15.9268 24.8425 12.3971C22.8586 8.44501 24.8425 5.46313 24.8425 5.46313ZM6.61618 17.9652L6.31055 18.7251L6.61618 19.5601L29.3699 20.0001L30.0005 18.8403L29.3699 18.0053L6.61618 17.9652Z" fill="#FECA00"/>
</g>
</g>
<rect width="32" height="24" fill="url(#paint0_linear_230_23192)" style="mix-blend-mode:overlay"/>
</g>
<rect x="0.5" y="0.5" width="31" height="23" rx="1.5" stroke="black" stroke-opacity="0.1"/>
<defs>
<linearGradient id="paint0_linear_230_23192" x1="16" y1="0" x2="16" y2="24" gradientUnits="userSpaceOnUse">
<stop stop-color="white" stop-opacity="0.7"/>
<stop offset="1" stop-opacity="0.3"/>
</linearGradient>
<clipPath id="clip0_230_23192">
<rect width="32" height="24" rx="2" fill="white"/>
</clipPath>
</defs>
</svg>
