<svg width="32" height="24" viewBox="0 0 32 24" fill="none" xmlns="http://www.w3.org/2000/svg">
<g clip-path="url(#clip0_230_26033)">
<mask id="mask0_230_26033" style="mask-type:luminance" maskUnits="userSpaceOnUse" x="0" y="0" width="32" height="24">
<rect width="32" height="24" fill="white"/>
</mask>
<g mask="url(#mask0_230_26033)">
<path fill-rule="evenodd" clip-rule="evenodd" d="M0 0V24H32V0H0Z" fill="#F7FCFF"/>
<mask id="mask1_230_26033" style="mask-type:luminance" maskUnits="userSpaceOnUse" x="0" y="0" width="32" height="24">
<path fill-rule="evenodd" clip-rule="evenodd" d="M0 0V24H32V0H0Z" fill="white"/>
</mask>
<g mask="url(#mask1_230_26033)">
<path fill-rule="evenodd" clip-rule="evenodd" d="M-1.50586 3.29149L-0.0187147 4.70851C1.20931 3.54766 2.36803 3 3.46919 3C4.00122 3 4.22779 3.1285 4.84136 3.70851C5.8146 4.6285 6.46959 5 7.70068 5C8.93177 5 9.58676 4.6285 10.56 3.70851C11.1736 3.1285 11.4001 3 11.9322 3C12.4642 3 12.6908 3.1285 13.3043 3.70851C14.2776 4.6285 14.9326 5 16.1636 5C17.3947 5 18.0497 4.6285 19.023 3.70851C19.6365 3.1285 19.8631 3 20.3951 3C20.9271 3 21.1537 3.1285 21.7673 3.70851C22.7405 4.6285 23.3955 5 24.6266 5C25.8577 5 26.5127 4.6285 27.4859 3.70851C28.0995 3.1285 28.3261 3 28.8581 3C29.9593 3 31.118 3.54766 32.346 4.70851L33.8331 3.29149C32.2402 1.78567 30.5779 1 28.8581 1C27.627 1 26.972 1.3715 25.9988 2.29149C25.3852 2.8715 25.1586 3 24.6266 3C24.0946 3 23.868 2.8715 23.2544 2.29149C22.2812 1.3715 21.6262 1 20.3951 1C19.164 1 18.509 1.3715 17.5358 2.29149C16.9222 2.8715 16.6957 3 16.1636 3C15.6316 3 15.405 2.8715 14.7915 2.29149C13.8182 1.3715 13.1632 1 11.9322 1C10.7011 1 10.0461 1.3715 9.07285 2.29149C8.45927 2.8715 8.2327 3 7.70068 3C7.16865 3 6.94208 2.8715 6.32851 2.29149C5.35528 1.3715 4.70029 1 3.46919 1C1.74937 1 0.0871022 1.78567 -1.50586 3.29149ZM-0.0187147 8.70851L-1.50586 7.29149C0.0871022 5.78567 1.74937 5 3.46919 5C4.70029 5 5.35528 5.3715 6.32851 6.29149C6.94208 6.8715 7.16865 7 7.70068 7C8.2327 7 8.45927 6.8715 9.07285 6.29149C10.0461 5.3715 10.7011 5 11.9322 5C13.1632 5 13.8182 5.3715 14.7915 6.29149C15.405 6.8715 15.6316 7 16.1636 7C16.6957 7 16.9222 6.8715 17.5358 6.29149C18.509 5.3715 19.164 5 20.3951 5C21.6262 5 22.2812 5.3715 23.2544 6.29149C23.868 6.8715 24.0946 7 24.6266 7C25.1586 7 25.3852 6.8715 25.9988 6.29149C26.972 5.3715 27.627 5 28.8581 5C30.5779 5 32.2402 5.78567 33.8331 7.29149L32.346 8.70851C31.118 7.54766 29.9593 7 28.8581 7C28.3261 7 28.0995 7.1285 27.4859 7.70851C26.5127 8.6285 25.8577 9 24.6266 9C23.3955 9 22.7405 8.6285 21.7673 7.70851C21.1537 7.1285 20.9271 7 20.3951 7C19.8631 7 19.6365 7.1285 19.023 7.70851C18.0497 8.6285 17.3947 9 16.1636 9C14.9326 9 14.2776 8.6285 13.3043 7.70851C12.6908 7.1285 12.4642 7 11.9322 7C11.4001 7 11.1736 7.1285 10.56 7.70851C9.58676 8.6285 8.93177 9 7.70068 9C6.46959 9 5.8146 8.6285 4.84136 7.70851C4.22779 7.1285 4.00122 7 3.46919 7C2.36803 7 1.20931 7.54766 -0.0187147 8.70851ZM-0.0187147 12.7085L-1.50586 11.2915C0.0871022 9.78567 1.74937 9 3.46919 9C4.70029 9 5.35528 9.3715 6.32851 10.2915C6.94208 10.8715 7.16865 11 7.70068 11C8.2327 11 8.45927 10.8715 9.07285 10.2915C10.0461 9.3715 10.7011 9 11.9322 9C13.1632 9 13.8182 9.3715 14.7915 10.2915C15.405 10.8715 15.6316 11 16.1636 11C16.6957 11 16.9222 10.8715 17.5358 10.2915C18.509 9.3715 19.164 9 20.3951 9C21.6262 9 22.2812 9.3715 23.2544 10.2915C23.868 10.8715 24.0946 11 24.6266 11C25.1586 11 25.3852 10.8715 25.9988 10.2915C26.972 9.3715 27.627 9 28.8581 9C30.5779 9 32.2402 9.78567 33.8331 11.2915L32.346 12.7085C31.118 11.5477 29.9593 11 28.8581 11C28.3261 11 28.0995 11.1285 27.4859 11.7085C26.5127 12.6285 25.8577 13 24.6266 13C23.3955 13 22.7405 12.6285 21.7673 11.7085C21.1537 11.1285 20.9271 11 20.3951 11C19.8631 11 19.6365 11.1285 19.023 11.7085C18.0497 12.6285 17.3947 13 16.1636 13C14.9326 13 14.2776 12.6285 13.3043 11.7085C12.6908 11.1285 12.4642 11 11.9322 11C11.4001 11 11.1736 11.1285 10.56 11.7085C9.58676 12.6285 8.93177 13 7.70068 13C6.46959 13 5.8146 12.6285 4.84136 11.7085C4.22779 11.1285 4.00122 11 3.46919 11C2.36803 11 1.20931 11.5477 -0.0187147 12.7085ZM-0.0187147 16.7085L-1.50586 15.2915C0.0871022 13.7857 1.74937 13 3.46919 13C4.70029 13 5.35528 13.3715 6.32851 14.2915C6.94208 14.8715 7.16865 15 7.70068 15C8.2327 15 8.45927 14.8715 9.07285 14.2915C10.0461 13.3715 10.7011 13 11.9322 13C13.1632 13 13.8182 13.3715 14.7915 14.2915C15.405 14.8715 15.6316 15 16.1636 15C16.6957 15 16.9222 14.8715 17.5358 14.2915C18.509 13.3715 19.164 13 20.3951 13C21.6262 13 22.2812 13.3715 23.2544 14.2915C23.868 14.8715 24.0946 15 24.6266 15C25.1586 15 25.3852 14.8715 25.9988 14.2915C26.972 13.3715 27.627 13 28.8581 13C30.5779 13 32.2402 13.7857 33.8331 15.2915L32.346 16.7085C31.118 15.5477 29.9593 15 28.8581 15C28.3261 15 28.0995 15.1285 27.4859 15.7085C26.5127 16.6285 25.8577 17 24.6266 17C23.3955 17 22.7405 16.6285 21.7673 15.7085C21.1537 15.1285 20.9271 15 20.3951 15C19.8631 15 19.6365 15.1285 19.023 15.7085C18.0497 16.6285 17.3947 17 16.1636 17C14.9326 17 14.2776 16.6285 13.3043 15.7085C12.6908 15.1285 12.4642 15 11.9322 15C11.4001 15 11.1736 15.1285 10.56 15.7085C9.58676 16.6285 8.93177 17 7.70068 17C6.46959 17 5.8146 16.6285 4.84136 15.7085C4.22779 15.1285 4.00122 15 3.46919 15C2.36803 15 1.20931 15.5477 -0.0187147 16.7085ZM-0.0187147 20.7085L-1.50586 19.2915C0.0871022 17.7857 1.74937 17 3.46919 17C4.70029 17 5.35528 17.3715 6.32851 18.2915C6.94208 18.8715 7.16865 19 7.70068 19C8.2327 19 8.45927 18.8715 9.07285 18.2915C10.0461 17.3715 10.7011 17 11.9322 17C13.1632 17 13.8182 17.3715 14.7915 18.2915C15.405 18.8715 15.6316 19 16.1636 19C16.6957 19 16.9222 18.8715 17.5358 18.2915C18.509 17.3715 19.164 17 20.3951 17C21.6262 17 22.2812 17.3715 23.2544 18.2915C23.868 18.8715 24.0946 19 24.6266 19C25.1586 19 25.3852 18.8715 25.9988 18.2915C26.972 17.3715 27.627 17 28.8581 17C30.5779 17 32.2402 17.7857 33.8331 19.2915L32.346 20.7085C31.118 19.5477 29.9593 19 28.8581 19C28.3261 19 28.0995 19.1285 27.4859 19.7085C26.5127 20.6285 25.8577 21 24.6266 21C23.3955 21 22.7405 20.6285 21.7673 19.7085C21.1537 19.1285 20.9271 19 20.3951 19C19.8631 19 19.6365 19.1285 19.023 19.7085C18.0497 20.6285 17.3947 21 16.1636 21C14.9326 21 14.2776 20.6285 13.3043 19.7085C12.6908 19.1285 12.4642 19 11.9322 19C11.4001 19 11.1736 19.1285 10.56 19.7085C9.58676 20.6285 8.93177 21 7.70068 21C6.46959 21 5.8146 20.6285 4.84136 19.7085C4.22779 19.1285 4.00122 19 3.46919 19C2.36803 19 1.20931 19.5477 -0.0187147 20.7085ZM-0.0187147 24.7085L-1.50586 23.2915C0.0871022 21.7857 1.74937 21 3.46919 21C4.70029 21 5.35528 21.3715 6.32851 22.2915C6.94208 22.8715 7.16865 23 7.70068 23C8.2327 23 8.45927 22.8715 9.07285 22.2915C10.0461 21.3715 10.7011 21 11.9322 21C13.1632 21 13.8182 21.3715 14.7915 22.2915C15.405 22.8715 15.6316 23 16.1636 23C16.6957 23 16.9222 22.8715 17.5358 22.2915C18.509 21.3715 19.164 21 20.3951 21C21.6262 21 22.2812 21.3715 23.2544 22.2915C23.868 22.8715 24.0946 23 24.6266 23C25.1586 23 25.3852 22.8715 25.9988 22.2915C26.972 21.3715 27.627 21 28.8581 21C30.5779 21 32.2402 21.7857 33.8331 23.2915L32.346 24.7085C31.118 23.5477 29.9593 23 28.8581 23C28.3261 23 28.0995 23.1285 27.4859 23.7085C26.5127 24.6285 25.8577 25 24.6266 25C23.3955 25 22.7405 24.6285 21.7673 23.7085C21.1537 23.1285 20.9271 23 20.3951 23C19.8631 23 19.6365 23.1285 19.023 23.7085C18.0497 24.6285 17.3947 25 16.1636 25C14.9326 25 14.2776 24.6285 13.3043 23.7085C12.6908 23.1285 12.4642 23 11.9322 23C11.4001 23 11.1736 23.1285 10.56 23.7085C9.58676 24.6285 8.93177 25 7.70068 25C6.46959 25 5.8146 24.6285 4.84136 23.7085C4.22779 23.1285 4.00122 23 3.46919 23C2.36803 23 1.20931 23.5477 -0.0187147 24.7085Z" fill="#2E42A5"/>
<mask id="mask2_230_26033" style="mask-type:luminance" maskUnits="userSpaceOnUse" x="0" y="0" width="14" height="10">
<rect width="14" height="10" fill="white"/>
</mask>
<g mask="url(#mask2_230_26033)">
<rect width="14" height="12" fill="#2E42A5"/>
<path d="M-2.15625 11.3332L1.50001 12.8774L16.3922 1.45669L18.3208 -0.838006L14.4109 -1.35412L8.33678 3.56739L3.4477 6.88333L-2.15625 11.3332Z" fill="white"/>
<path d="M-1.65625 12.4151L0.206447 13.3112L17.6277 -1.0512H15.0123L-1.65625 12.4151Z" fill="#F50100"/>
<path d="M18.1582 11.3332L14.5019 12.8774L-0.39024 1.45669L-2.31883 -0.838006L1.59101 -1.35412L7.66518 3.56739L12.5543 6.88333L18.1582 11.3332Z" fill="white"/>
<path d="M18.0332 12.1096L16.1705 13.0057L8.75236 6.85644L6.55304 6.1694L-2.50465 -0.830188H0.110792L9.16339 6.00326L11.568 6.8271L18.0332 12.1096Z" fill="#F50100"/>
<mask id="path-13-outside-1_230_26033" maskUnits="userSpaceOnUse" x="-0.984375" y="-1" width="16" height="12" fill="black">
<rect fill="white" x="-0.984375" y="-1" width="16" height="12"/>
<path fill-rule="evenodd" clip-rule="evenodd" d="M8.00014 0H6.00014V4H0.015625V6H6.00014V10H8.00014V6H14.0156V4H8.00014V0Z"/>
</mask>
<path fill-rule="evenodd" clip-rule="evenodd" d="M8.00014 0H6.00014V4H0.015625V6H6.00014V10H8.00014V6H14.0156V4H8.00014V0Z" fill="#F50100"/>
<path d="M6.00014 0V-1H5.00014V0H6.00014ZM8.00014 0H9.00014V-1H8.00014V0ZM6.00014 4V5H7.00014V4H6.00014ZM0.015625 4V3H-0.984375V4H0.015625ZM0.015625 6H-0.984375V7H0.015625V6ZM6.00014 6H7.00014V5H6.00014V6ZM6.00014 10H5.00014V11H6.00014V10ZM8.00014 10V11H9.00014V10H8.00014ZM8.00014 6V5H7.00014V6H8.00014ZM14.0156 6V7H15.0156V6H14.0156ZM14.0156 4H15.0156V3H14.0156V4ZM8.00014 4H7.00014V5H8.00014V4ZM6.00014 1H8.00014V-1H6.00014V1ZM7.00014 4V0H5.00014V4H7.00014ZM0.015625 5H6.00014V3H0.015625V5ZM1.01562 6V4H-0.984375V6H1.01562ZM6.00014 5H0.015625V7H6.00014V5ZM7.00014 10V6H5.00014V10H7.00014ZM8.00014 9H6.00014V11H8.00014V9ZM7.00014 6V10H9.00014V6H7.00014ZM14.0156 5H8.00014V7H14.0156V5ZM13.0156 4V6H15.0156V4H13.0156ZM8.00014 5H14.0156V3H8.00014V5ZM7.00014 0V4H9.00014V0H7.00014Z" fill="#F7FCFF" mask="url(#path-13-outside-1_230_26033)"/>
</g>
<rect x="20.3984" y="9.3786" width="1" height="12.6214" rx="0.5" fill="#D86D00"/>
<mask id="path-16-outside-2_230_26033" maskUnits="userSpaceOnUse" x="14.5117" y="0.0574951" width="12" height="12" fill="black">
<rect fill="white" x="14.5117" y="0.0574951" width="12" height="12"/>
<path fill-rule="evenodd" clip-rule="evenodd" d="M20.4035 2.0575C21.2308 3.192 21.57 4.53268 21.6005 5.8967C22.5343 4.6312 24.0921 3.5974 24.8205 3.1553C24.1521 3.62274 23.8049 4.31572 23.4143 5.09549C23.2226 5.47816 23.0204 5.88174 22.7647 6.28982C24.3562 5.71805 25.9372 5.57125 25.9372 5.57125C24.8766 5.8722 23.8982 6.48665 22.9475 7.0837L22.9475 7.08371L22.9475 7.08376L22.9474 7.08382L22.9472 7.0839C22.6004 7.30169 22.2573 7.51717 21.9153 7.71427C24.987 8.87125 25.4596 10.5444 25.4596 10.5444C25.083 10.212 24.2706 9.85632 22.7365 9.1846L22.7362 9.18445C22.4423 9.05578 22.1219 8.91552 21.7731 8.7616C22.0022 9.60532 22.2801 10.2653 22.5454 10.8954L22.6244 11.0831C22.6244 11.0831 20.4987 10.5092 20.095 8.86129C18.9025 9.81889 17.6141 10.364 17.0097 10.5799C17.0097 10.5799 18.4489 9.01751 19.506 7.98065C18.1181 7.82421 15.5117 7.69612 15.5117 7.69612L15.697 7.65206C16.745 7.40236 18.3664 7.01605 19.8523 7.03627C18.2589 6.14345 17.279 4.93485 16.9779 4.52867C17.2316 4.75286 17.938 5.03355 18.9018 5.41656C19.3086 5.57821 19.7613 5.75809 20.2451 5.95963C20.3372 4.27569 20.4035 2.0575 20.4035 2.0575ZM16.8784 4.38902C16.8885 4.43318 16.9224 4.47957 16.9779 4.52867C16.9118 4.43951 16.8784 4.38902 16.8784 4.38902ZM25.2188 2.92371C25.0739 2.99291 24.9419 3.07039 24.8205 3.1553C25.0672 3.00557 25.2188 2.92371 25.2188 2.92371ZM20.6889 7.01627C20.7508 6.98879 20.8193 6.97353 20.8915 6.97353C20.9294 6.97353 20.9663 6.97774 21.0018 6.98574C21.0122 6.95619 21.0231 6.9267 21.0344 6.89728L20.7032 6.92008L20.6889 7.01627Z"/>
</mask>
<path fill-rule="evenodd" clip-rule="evenodd" d="M20.4035 2.0575C21.2308 3.192 21.57 4.53268 21.6005 5.8967C22.5343 4.6312 24.0921 3.5974 24.8205 3.1553C24.1521 3.62274 23.8049 4.31572 23.4143 5.09549C23.2226 5.47816 23.0204 5.88174 22.7647 6.28982C24.3562 5.71805 25.9372 5.57125 25.9372 5.57125C24.8766 5.8722 23.8982 6.48665 22.9475 7.0837L22.9475 7.08371L22.9475 7.08376L22.9474 7.08382L22.9472 7.0839C22.6004 7.30169 22.2573 7.51717 21.9153 7.71427C24.987 8.87125 25.4596 10.5444 25.4596 10.5444C25.083 10.212 24.2706 9.85632 22.7365 9.1846L22.7362 9.18445C22.4423 9.05578 22.1219 8.91552 21.7731 8.7616C22.0022 9.60532 22.2801 10.2653 22.5454 10.8954L22.6244 11.0831C22.6244 11.0831 20.4987 10.5092 20.095 8.86129C18.9025 9.81889 17.6141 10.364 17.0097 10.5799C17.0097 10.5799 18.4489 9.01751 19.506 7.98065C18.1181 7.82421 15.5117 7.69612 15.5117 7.69612L15.697 7.65206C16.745 7.40236 18.3664 7.01605 19.8523 7.03627C18.2589 6.14345 17.279 4.93485 16.9779 4.52867C17.2316 4.75286 17.938 5.03355 18.9018 5.41656C19.3086 5.57821 19.7613 5.75809 20.2451 5.95963C20.3372 4.27569 20.4035 2.0575 20.4035 2.0575ZM16.8784 4.38902C16.8885 4.43318 16.9224 4.47957 16.9779 4.52867C16.9118 4.43951 16.8784 4.38902 16.8784 4.38902ZM25.2188 2.92371C25.0739 2.99291 24.9419 3.07039 24.8205 3.1553C25.0672 3.00557 25.2188 2.92371 25.2188 2.92371ZM20.6889 7.01627C20.7508 6.98879 20.8193 6.97353 20.8915 6.97353C20.9294 6.97353 20.9663 6.97774 21.0018 6.98574C21.0122 6.95619 21.0231 6.9267 21.0344 6.89728L20.7032 6.92008L20.6889 7.01627Z" fill="#449A01"/>
<path d="M21.6005 5.8967L21.2505 5.90451L21.2734 6.92931L21.8821 6.10452L21.6005 5.8967ZM20.4035 2.0575L20.6863 1.85128L20.0842 1.02554L20.0537 2.04704L20.4035 2.0575ZM23.4143 5.09549L23.1014 4.93872V4.93872L23.4143 5.09549ZM22.7647 6.28982L22.4681 6.10395L21.9308 6.96129L22.883 6.61921L22.7647 6.28982ZM25.9372 5.57125L26.0327 5.90796L25.9048 5.22275L25.9372 5.57125ZM22.9475 7.0837L22.7614 6.78731L22.754 6.79196L22.7468 6.79697L22.9475 7.0837ZM22.9475 7.08371L23.1351 7.37923L23.1418 7.37498L23.1482 7.37044L22.9475 7.08371ZM22.9475 7.08376L23.1348 7.37938L23.135 7.37927L22.9475 7.08376ZM22.9474 7.08382L23.1332 7.38042L23.1347 7.37945L22.9474 7.08382ZM22.9472 7.0839L22.7614 6.7873L22.7611 6.7875L22.9472 7.0839ZM21.9153 7.71427L21.7405 7.411L21.0988 7.78075L21.7919 8.0418L21.9153 7.71427ZM25.4596 10.5444L25.228 10.8068L26.1197 11.594L25.7964 10.4493L25.4596 10.5444ZM22.7365 9.1846L22.8769 8.86398L22.8767 8.86389L22.7365 9.1846ZM22.7362 9.18445L22.5958 9.50507L22.596 9.50516L22.7362 9.18445ZM21.7731 8.7616L21.9144 8.44139L21.2431 8.14517L21.4353 8.85332L21.7731 8.7616ZM22.5454 10.8954L22.8681 10.7598L22.868 10.7596L22.5454 10.8954ZM22.6244 11.0831L22.5331 11.421L23.2246 11.6077L22.947 10.9475L22.6244 11.0831ZM20.095 8.86129L20.4349 8.778L20.3042 8.2444L19.8758 8.5884L20.095 8.86129ZM17.0097 10.5799L16.7522 10.3428L17.1274 10.9095L17.0097 10.5799ZM19.506 7.98065L19.751 8.23051L20.2763 7.71527L19.5452 7.63286L19.506 7.98065ZM15.5117 7.69612L15.4307 7.35562L15.4945 8.0457L15.5117 7.69612ZM15.697 7.65206L15.778 7.99256L15.7781 7.99253L15.697 7.65206ZM19.8523 7.03627L19.8475 7.38624L20.0234 6.73094L19.8523 7.03627ZM18.9018 5.41656L19.0311 5.0913H19.0311L18.9018 5.41656ZM20.2451 5.95963L20.1106 6.28272L20.5676 6.47309L20.5946 5.97874L20.2451 5.95963ZM16.8784 4.38902L17.1704 4.19595L16.5372 4.4669L16.8784 4.38902ZM25.2188 2.92371L25.3851 3.23168L25.0679 2.60791L25.2188 2.92371ZM20.6889 7.01627L20.3427 6.9646L20.2487 7.59452L20.8308 7.33619L20.6889 7.01627ZM21.0018 6.98574L20.9249 7.32719L21.2285 7.39557L21.3319 7.10199L21.0018 6.98574ZM21.0344 6.89728L21.361 7.02324L21.5588 6.51034L21.0104 6.5481L21.0344 6.89728ZM20.7032 6.92008L20.6792 6.57091L20.3986 6.59023L20.3571 6.86841L20.7032 6.92008ZM21.9504 5.88888C21.9188 4.47307 21.5659 3.05758 20.6863 1.85128L20.1207 2.26371C20.8956 3.32641 21.2213 4.59229 21.2505 5.90451L21.9504 5.88888ZM24.6389 2.8561C23.9058 3.30101 22.2963 4.3643 21.3188 5.68887L21.8821 6.10452C22.7723 4.89811 24.2783 3.8938 25.0021 3.45451L24.6389 2.8561ZM23.7272 5.25225C24.1253 4.45757 24.4374 3.85032 25.0211 3.44213L24.6199 2.86848C23.8668 3.39516 23.4845 4.17387 23.1014 4.93872L23.7272 5.25225ZM23.0612 6.47569C23.3271 6.05139 23.5363 5.63335 23.7272 5.25225L23.1014 4.93872C22.9089 5.32298 22.7137 5.71209 22.4681 6.10395L23.0612 6.47569ZM25.9372 5.57125C25.9048 5.22275 25.9048 5.22276 25.9047 5.22276C25.9047 5.22276 25.9046 5.22277 25.9046 5.22277C25.9044 5.22278 25.9043 5.2228 25.9042 5.22281C25.9038 5.22284 25.9034 5.22288 25.9029 5.22293C25.9019 5.22302 25.9005 5.22316 25.8988 5.22333C25.8952 5.22367 25.8902 5.22417 25.8837 5.22483C25.8707 5.22615 25.8519 5.22812 25.8276 5.2308C25.7791 5.23617 25.7088 5.24442 25.6198 5.25609C25.4418 5.27943 25.1887 5.31651 24.8851 5.37178C24.2793 5.48207 23.4661 5.66594 22.6463 5.96043L22.883 6.61921C23.6548 6.34193 24.4279 6.16652 25.0104 6.06046C25.301 6.00756 25.5426 5.97221 25.7108 5.95015C25.7949 5.93913 25.8605 5.93144 25.9046 5.92655C25.9267 5.92411 25.9434 5.92236 25.9544 5.92125C25.9598 5.9207 25.9639 5.9203 25.9664 5.92005C25.9677 5.91993 25.9686 5.91984 25.9691 5.91979C25.9694 5.91977 25.9695 5.91975 25.9696 5.91975C25.9696 5.91974 25.9697 5.91974 25.9696 5.91974C25.9696 5.91974 25.9696 5.91975 25.9696 5.91975C25.9696 5.91975 25.9695 5.91975 25.9372 5.57125ZM23.1337 7.3801C24.093 6.77761 25.0288 6.19282 26.0327 5.90796L25.8416 5.23454C24.7244 5.55158 23.7034 6.19569 22.7614 6.78731L23.1337 7.3801ZM23.1482 7.37044L23.1483 7.37043L22.7468 6.79697L22.7468 6.79698L23.1482 7.37044ZM23.135 7.37927L23.1351 7.37923L22.76 6.7882L22.7599 6.78824L23.135 7.37927ZM23.1347 7.37945L23.1348 7.37938L22.7601 6.78813L22.76 6.7882L23.1347 7.37945ZM23.1331 7.3805L23.1332 7.38042L22.7615 6.78722L22.7614 6.7873L23.1331 7.3805ZM22.09 8.01753C22.4388 7.81653 22.7876 7.59742 23.1334 7.38029L22.7611 6.7875C22.4132 7.00597 22.0758 7.21781 21.7405 7.411L22.09 8.01753ZM25.4596 10.5444C25.7964 10.4493 25.7963 10.4491 25.7963 10.4488C25.7962 10.4487 25.7962 10.4484 25.7961 10.4482C25.796 10.4478 25.7959 10.4474 25.7958 10.447C25.7955 10.4461 25.7952 10.4451 25.7949 10.4441C25.7943 10.4419 25.7935 10.4394 25.7926 10.4364C25.7908 10.4305 25.7884 10.423 25.7853 10.4139C25.7793 10.3958 25.7706 10.3717 25.7589 10.342C25.7355 10.2825 25.6997 10.2009 25.6473 10.1016C25.5424 9.90279 25.3714 9.63388 25.1005 9.33024C24.5575 8.7215 23.6227 7.98336 22.0386 7.38673L21.7919 8.0418C23.2796 8.60216 24.1169 9.2791 24.5781 9.7962C24.8094 10.0555 24.9485 10.2772 25.0282 10.4282C25.0681 10.5039 25.0932 10.562 25.1077 10.5986C25.1149 10.6169 25.1194 10.6298 25.1218 10.6368C25.1229 10.6403 25.1236 10.6423 25.1237 10.6428C25.1238 10.6431 25.1237 10.6429 25.1236 10.6424C25.1235 10.6421 25.1234 10.6417 25.1233 10.6413C25.1232 10.641 25.1231 10.6408 25.123 10.6405C25.123 10.6404 25.1229 10.6401 25.1229 10.6401C25.1228 10.6398 25.1228 10.6396 25.4596 10.5444ZM22.5961 9.50521C23.3658 9.84224 23.945 10.0959 24.3793 10.3066C24.8196 10.5203 25.0786 10.6749 25.228 10.8068L25.6912 10.282C25.4641 10.0815 25.1285 9.89211 24.6849 9.67687C24.2354 9.45873 23.6413 9.19868 22.8769 8.86398L22.5961 9.50521ZM22.596 9.50516L22.5963 9.50531L22.8767 8.86389L22.8763 8.86374L22.596 9.50516ZM21.6318 9.08182C21.9812 9.23596 22.302 9.37641 22.5958 9.50507L22.8765 8.86384C22.5826 8.73515 22.2627 8.59508 21.9144 8.44139L21.6318 9.08182ZM22.868 10.7596C22.6027 10.1294 22.3332 9.48866 22.1109 8.66989L21.4353 8.85332C21.6712 9.72198 21.9576 10.4012 22.2229 11.0313L22.868 10.7596ZM22.947 10.9475L22.8681 10.7598L22.2228 11.0311L22.3017 11.2188L22.947 10.9475ZM19.755 8.94459C19.9893 9.90081 20.7153 10.5205 21.3309 10.8902C21.6432 11.0778 21.9405 11.2094 22.1596 11.2941C22.2695 11.3366 22.3606 11.3678 22.4252 11.3885C22.4576 11.3989 22.4834 11.4067 22.5017 11.4121C22.5108 11.4148 22.5181 11.4168 22.5234 11.4183C22.526 11.4191 22.5281 11.4197 22.5298 11.4201C22.5306 11.4203 22.5313 11.4205 22.5318 11.4207C22.5321 11.4208 22.5324 11.4208 22.5326 11.4209C22.5327 11.4209 22.5328 11.421 22.5329 11.421C22.533 11.421 22.5331 11.421 22.6244 11.0831C22.7156 10.7452 22.7157 10.7453 22.7158 10.7453C22.7158 10.7453 22.7159 10.7453 22.7159 10.7453C22.716 10.7454 22.7161 10.7454 22.7161 10.7454C22.7161 10.7454 22.7161 10.7454 22.7158 10.7453C22.7154 10.7452 22.7145 10.7449 22.7131 10.7445C22.7103 10.7438 22.7056 10.7424 22.6991 10.7405C22.686 10.7367 22.6658 10.7305 22.6392 10.722C22.586 10.7049 22.5079 10.6783 22.4122 10.6413C22.2201 10.567 21.9608 10.452 21.6913 10.2901C21.1432 9.96093 20.6044 9.46969 20.4349 8.778L19.755 8.94459ZM17.1274 10.9095C17.7528 10.6861 19.0805 10.1249 20.3141 9.13419L19.8758 8.5884C18.7246 9.51294 17.4754 10.0419 16.8919 10.2503L17.1274 10.9095ZM19.2609 7.73079C18.7275 8.25394 18.0998 8.90759 17.6071 9.42864C17.3604 9.68954 17.1468 9.91793 16.9949 10.0811C16.9189 10.1627 16.8583 10.2281 16.8167 10.273C16.7959 10.2955 16.7798 10.3129 16.7689 10.3247C16.7635 10.3306 16.7593 10.3351 16.7565 10.3381C16.7551 10.3397 16.7541 10.3408 16.7533 10.3416C16.753 10.342 16.7527 10.3423 16.7525 10.3425C16.7524 10.3426 16.7524 10.3427 16.7523 10.3427C16.7523 10.3427 16.7523 10.3428 16.7523 10.3428C16.7522 10.3428 16.7522 10.3428 17.0097 10.5799C17.2671 10.8171 17.2671 10.8171 17.2671 10.8171C17.2671 10.8171 17.2671 10.817 17.2671 10.817C17.2672 10.817 17.2672 10.8169 17.2673 10.8168C17.2675 10.8166 17.2677 10.8164 17.2681 10.816C17.2687 10.8153 17.2698 10.8142 17.2711 10.8127C17.2738 10.8098 17.2779 10.8054 17.2832 10.7996C17.2939 10.788 17.3098 10.7708 17.3304 10.7485C17.3716 10.704 17.4318 10.6392 17.5072 10.5581C17.6582 10.3959 17.8705 10.1689 18.1157 9.9096C18.6069 9.39022 19.2273 8.74423 19.751 8.23051L19.2609 7.73079ZM15.5117 7.69612C15.4945 8.0457 15.4945 8.0457 15.4946 8.0457C15.4946 8.0457 15.4946 8.0457 15.4946 8.0457C15.4947 8.04571 15.4948 8.04571 15.495 8.04572C15.4953 8.04573 15.4957 8.04576 15.4963 8.04579C15.4976 8.04585 15.4994 8.04594 15.5019 8.04606C15.5068 8.04631 15.5141 8.04667 15.5238 8.04716C15.5431 8.04813 15.5716 8.04957 15.6084 8.05147C15.6821 8.05526 15.789 8.06086 15.9217 8.06806C16.187 8.08248 16.5552 8.10332 16.9665 8.12904C17.7915 8.18061 18.7823 8.2513 19.4667 8.32845L19.5452 7.63286C18.8417 7.55356 17.8354 7.48199 17.0102 7.4304C16.5965 7.40454 16.2264 7.38358 15.9596 7.36909C15.8263 7.36185 15.7187 7.35622 15.6444 7.35239C15.6073 7.35048 15.5785 7.34902 15.5589 7.34804C15.5491 7.34755 15.5416 7.34717 15.5366 7.34692C15.5341 7.3468 15.5322 7.3467 15.5309 7.34664C15.5302 7.34661 15.5298 7.34658 15.5294 7.34657C15.5293 7.34656 15.5291 7.34655 15.529 7.34655C15.529 7.34655 15.529 7.34655 15.5289 7.34654C15.5289 7.34654 15.5289 7.34654 15.5117 7.69612ZM15.616 7.31155L15.4307 7.35562L15.5927 8.03663L15.778 7.99256L15.616 7.31155ZM19.8571 6.6863C18.3205 6.66539 16.6569 7.06357 15.6159 7.31159L15.7781 7.99253C16.8332 7.74116 18.4124 7.36671 19.8475 7.38624L19.8571 6.6863ZM16.6968 4.73711C17.013 5.16376 18.0278 6.41516 19.6812 7.34161L20.0234 6.73094C18.4899 5.87174 17.545 4.70593 17.2591 4.32024L16.6968 4.73711ZM19.0311 5.0913C18.5468 4.89886 18.1367 4.73581 17.8157 4.5932C17.4816 4.4448 17.2904 4.33771 17.2097 4.26641L16.7462 4.79094C16.9192 4.94382 17.2079 5.08917 17.5315 5.23291C17.868 5.38245 18.293 5.55125 18.7726 5.74182L19.0311 5.0913ZM20.3797 5.63654C19.8928 5.43374 19.4376 5.25286 19.0311 5.0913L18.7726 5.74182C19.1796 5.90356 19.6297 6.08244 20.1106 6.28272L20.3797 5.63654ZM20.4035 2.0575C20.0537 2.04704 20.0537 2.04704 20.0537 2.04706C20.0537 2.04707 20.0537 2.0471 20.0537 2.04713C20.0537 2.04719 20.0537 2.04729 20.0537 2.04742C20.0537 2.04768 20.0536 2.04807 20.0536 2.0486C20.0536 2.04966 20.0536 2.05124 20.0535 2.05335C20.0534 2.05756 20.0532 2.06386 20.0529 2.07215C20.0524 2.08873 20.0517 2.1133 20.0507 2.14519C20.0487 2.20898 20.0457 2.30203 20.0419 2.41897C20.0343 2.65287 20.0231 2.98228 20.0091 3.36424C19.981 4.12858 19.9415 5.10167 19.8957 5.94052L20.5946 5.97874C20.6408 5.13365 20.6805 4.15567 20.7086 3.38992C20.7227 3.00684 20.7339 2.67647 20.7415 2.44183C20.7454 2.3245 20.7483 2.2311 20.7503 2.167C20.7513 2.13495 20.7521 2.11022 20.7526 2.09349C20.7528 2.08512 20.753 2.07875 20.7532 2.07447C20.7532 2.07233 20.7533 2.07071 20.7533 2.06962C20.7533 2.06907 20.7533 2.06866 20.7534 2.06838C20.7534 2.06824 20.7534 2.06814 20.7534 2.06807C20.7534 2.06803 20.7534 2.068 20.7534 2.06798C20.7534 2.06796 20.7534 2.06795 20.4035 2.0575ZM16.5372 4.4669C16.5717 4.61806 16.6715 4.725 16.7462 4.79094L17.2097 4.26641C17.1955 4.25383 17.1928 4.2492 17.1956 4.2531C17.1984 4.25696 17.2118 4.27658 17.2197 4.31113L16.5372 4.4669ZM17.2591 4.32024C17.2281 4.27839 17.2051 4.24613 17.1903 4.22492C17.1829 4.21432 17.1775 4.20648 17.1742 4.20159C17.1725 4.19914 17.1714 4.19743 17.1707 4.19649C17.1704 4.19601 17.1702 4.19573 17.1702 4.19564C17.1701 4.1956 17.1701 4.1956 17.1702 4.19565C17.1702 4.19568 17.1702 4.19571 17.1702 4.19577C17.1703 4.19579 17.1703 4.19582 17.1703 4.19585C17.1703 4.19587 17.1703 4.19588 17.1703 4.1959C17.1703 4.19591 17.1703 4.19592 17.1703 4.19592C17.1704 4.19594 17.1704 4.19595 16.8784 4.38902C16.5865 4.58208 16.5865 4.58209 16.5865 4.58211C16.5865 4.58211 16.5865 4.58213 16.5865 4.58214C16.5865 4.58216 16.5866 4.58218 16.5866 4.5822C16.5866 4.58224 16.5866 4.58229 16.5867 4.58234C16.5867 4.58244 16.5868 4.58255 16.5869 4.58268C16.5871 4.58292 16.5873 4.58322 16.5875 4.58357C16.5879 4.58426 16.5885 4.58515 16.5893 4.58623C16.5907 4.5884 16.5927 4.59133 16.5952 4.59501C16.6002 4.60238 16.6073 4.61273 16.6165 4.6259C16.6349 4.65222 16.6617 4.68979 16.6968 4.73711L17.2591 4.32024ZM25.0679 2.60791C24.9059 2.68532 24.7572 2.77247 24.6199 2.86848L25.0211 3.44213C25.1266 3.36831 25.242 3.3005 25.3697 3.23952L25.0679 2.60791ZM25.0021 3.45451C25.1224 3.38145 25.2192 3.32517 25.2855 3.28743C25.3186 3.26856 25.344 3.25433 25.3609 3.24496C25.3694 3.24028 25.3757 3.23681 25.3797 3.23459C25.3818 3.23347 25.3832 3.23267 25.3841 3.23219C25.3846 3.23194 25.3849 3.23178 25.385 3.23169C25.3851 3.23165 25.3852 3.23163 25.3852 3.23163C25.3852 3.23162 25.3852 3.23163 25.3851 3.23164C25.3851 3.23164 25.3851 3.23165 25.3851 3.23165C25.3851 3.23166 25.3851 3.23166 25.3851 3.23166C25.3851 3.23167 25.3851 3.23168 25.2188 2.92371C25.0525 2.61575 25.0524 2.61576 25.0524 2.61577C25.0524 2.61577 25.0524 2.61578 25.0524 2.61578C25.0524 2.61579 25.0523 2.61581 25.0523 2.61582C25.0523 2.61585 25.0522 2.61588 25.0521 2.61592C25.052 2.616 25.0518 2.61609 25.0516 2.61621C25.0512 2.61644 25.0506 2.61676 25.0499 2.61715C25.0484 2.61794 25.0464 2.61904 25.0438 2.62046C25.0386 2.6233 25.0312 2.6274 25.0215 2.63273C25.0023 2.64339 24.9744 2.65898 24.9388 2.67929C24.8676 2.71991 24.7652 2.77943 24.6389 2.8561L25.0021 3.45451ZM20.8915 6.62353C20.7695 6.62353 20.6527 6.64943 20.5469 6.69636L20.8308 7.33619C20.8489 7.32816 20.8692 7.32353 20.8915 7.32353V6.62353ZM21.0787 6.64429C21.0181 6.63065 20.9554 6.62353 20.8915 6.62353V7.32353C20.9033 7.32353 20.9145 7.32484 20.9249 7.32719L21.0787 6.64429ZM21.3319 7.10199C21.3412 7.07575 21.3508 7.0495 21.361 7.02324L20.7079 6.77132C20.6953 6.8039 20.6832 6.83662 20.6717 6.86949L21.3319 7.10199ZM21.0104 6.5481L20.6792 6.57091L20.7273 7.26926L21.0585 7.24645L21.0104 6.5481ZM20.3571 6.86841L20.3427 6.9646L21.035 7.06795L21.0494 6.97176L20.3571 6.86841Z" fill="white" mask="url(#path-16-outside-2_230_26033)"/>
<path fill-rule="evenodd" clip-rule="evenodd" d="M24.2841 15.8189V15.6384C23.7574 15.1835 23.2058 14.9561 22.6294 14.9561C22.0768 14.6617 21.5174 14.5475 20.9513 14.6133C20.9515 14.6112 20.9516 14.6102 20.9516 14.6102C20.1004 14.5099 19.2426 14.9561 19.2426 14.9561C18.3779 14.9561 17.5879 15.6384 17.5879 15.6384V15.8189L18.6207 17.0672C18.6207 17.0672 18.9114 18.2688 20.9474 17.9864V17.9894C20.9474 17.9894 22.2954 17.9451 22.3901 17.9072C22.4276 17.8922 22.4666 17.8785 22.5065 17.8645C22.7705 17.7717 23.0719 17.6658 23.2513 17.0672L24.2841 15.8189ZM20.9474 14.6685C20.918 15.0841 20.7502 17.5895 20.9474 17.9779V14.6685Z" fill="#F50100"/>
<path fill-rule="evenodd" clip-rule="evenodd" d="M19.2664 14.4168C19.3763 14.0115 19.5686 13.8743 20.0368 13.8743C20.3276 13.8743 20.5471 13.9558 20.6999 14.1155V15.1985H20.7817V15.3269C20.7167 15.3745 20.6835 15.4783 20.705 15.5887C20.7123 15.6265 20.7254 15.6612 20.7424 15.6913C20.708 15.6789 20.6692 15.6719 20.6281 15.6719C20.4867 15.6719 20.3721 15.7547 20.3721 15.8568C20.3721 15.9589 20.4867 16.0416 20.6281 16.0416C20.7695 16.0416 20.8841 15.9589 20.8841 15.8568C20.8841 15.9082 20.9132 15.9547 20.9601 15.9882H20.8344H20.8311C20.8311 16.2667 20.713 16.4441 20.5361 16.4441C20.4124 16.4441 20.3255 16.3761 20.2624 16.2262L20.0873 15.8101L20.0688 16.276C20.0622 16.4402 20.0028 16.5054 19.8551 16.5054C19.7117 16.5054 19.6088 16.3989 19.5391 16.1589C19.5599 16.1628 19.5816 16.1649 19.6041 16.1649C19.7455 16.1649 19.8601 16.0821 19.8601 15.98C19.8601 15.8779 19.7455 15.7951 19.6041 15.7951C19.5758 15.7951 19.5486 15.7985 19.5232 15.8046C19.5393 15.757 19.5433 15.7002 19.5319 15.6414C19.5049 15.5026 19.4018 15.4059 19.3016 15.4254C19.2014 15.4449 19.142 15.5732 19.169 15.7119C19.1763 15.7498 19.1894 15.7845 19.2064 15.8146C19.172 15.8021 19.1332 15.7951 19.0921 15.7951C18.9507 15.7951 18.8361 15.8779 18.8361 15.98C18.8361 16.0821 18.9507 16.1649 19.0921 16.1649C19.2067 16.1649 19.3037 16.1105 19.3364 16.0355L19.3283 16.1442C19.3056 16.451 19.2361 16.5949 19.1331 16.6151C18.9929 16.6425 18.8864 16.6295 18.8121 16.5811L18.6609 16.4827V16.6501C18.6134 16.6562 18.5319 16.6455 18.4204 16.6163L18.4029 16.7129L18.2151 16.5002C18.272 16.5083 18.3388 16.4966 18.4017 16.4632C18.5265 16.3968 18.5889 16.2699 18.5409 16.1798C18.493 16.0896 18.353 16.0704 18.2281 16.1367C18.2019 16.1507 18.1785 16.1673 18.1582 16.1856C18.1558 16.1654 18.1516 16.1447 18.1452 16.1241C18.1039 15.9889 17.9912 15.9034 17.8936 15.9333C17.8499 15.9467 17.8166 15.9809 17.7969 16.0267L17.7211 15.9409L17.6509 16.0306L17.7794 16.1761C17.7819 16.1946 17.7859 16.2133 17.7917 16.2322C17.8274 16.3489 17.9162 16.4285 18.0027 16.4289L18.3775 16.8533L18.3768 16.8571L18.3821 16.8585L18.5902 17.0941C18.6207 17.1616 18.6478 17.2241 18.6715 17.2812C18.6968 17.4035 18.7348 17.539 18.7888 17.6218C18.7938 17.6459 18.7962 17.6658 18.7962 17.6816C18.7962 17.8086 19.0709 17.884 19.6069 17.9615C20.0268 18.0221 20.5224 18.0629 20.9277 18.069V18.0698L20.9791 18.0696L21.0305 18.0698V18.069C21.4359 18.0629 21.9315 18.0221 22.3514 17.9615C22.8874 17.884 23.162 17.8086 23.162 17.6816C23.162 17.5983 23.231 17.3978 23.3681 17.0941L24.3073 16.0306L24.2371 15.9409L24.0031 16.2059L24.0068 16.1944C24.0482 16.0592 24.0025 15.9254 23.9049 15.8955C23.8073 15.8657 23.6946 15.9511 23.6533 16.0863C23.647 16.107 23.6427 16.1276 23.6403 16.1479C23.62 16.1295 23.5966 16.1129 23.5704 16.099C23.4456 16.0326 23.3055 16.0519 23.2576 16.142C23.2096 16.2322 23.272 16.3591 23.3968 16.4254C23.5217 16.4918 23.6617 16.4725 23.7096 16.3824C23.7124 16.3772 23.7148 16.3719 23.7168 16.3664C23.7285 16.3746 23.7413 16.3809 23.7552 16.3852C23.7855 16.3944 23.8173 16.3926 23.8479 16.3816L23.4824 16.7955L23.45 16.6163C23.3384 16.6455 23.2569 16.6562 23.2094 16.6501V16.4827L23.0583 16.5811C22.9839 16.6295 22.8775 16.6425 22.7372 16.6151C22.6343 16.5949 22.5648 16.451 22.542 16.1442L22.5402 16.1198C22.5755 16.1408 22.6178 16.156 22.6643 16.1625C22.8043 16.1822 22.9293 16.1162 22.9435 16.0151C22.9577 15.914 22.8557 15.8161 22.7157 15.7964C22.6835 15.7919 22.6521 15.7919 22.6227 15.7958C22.6481 15.7496 22.6618 15.6906 22.6585 15.6269C22.6511 15.4858 22.5625 15.3756 22.4605 15.381C22.3585 15.3863 22.2819 15.5051 22.2893 15.6463C22.291 15.6795 22.2973 15.7111 22.3072 15.7398C22.2777 15.7258 22.2444 15.7157 22.2087 15.7107C22.0687 15.691 21.9437 15.757 21.9295 15.8581C21.9153 15.9592 22.0172 16.0571 22.1573 16.0768C22.2366 16.0879 22.3112 16.0716 22.3634 16.0369L22.3423 16.1185C22.2727 16.387 22.1664 16.5054 22.0152 16.5054C21.8675 16.5054 21.8082 16.4402 21.8016 16.276L21.783 15.8101L21.608 16.2262C21.5449 16.3761 21.4579 16.4441 21.3343 16.4441C21.1657 16.4441 21.0505 16.283 21.04 16.027C21.0708 16.0364 21.1046 16.0416 21.1401 16.0416C21.2815 16.0416 21.3961 15.9589 21.3961 15.8568C21.3961 15.7547 21.2815 15.6719 21.1401 15.6719C21.1118 15.6719 21.0846 15.6752 21.0592 15.6813C21.0753 15.6338 21.0793 15.5769 21.0679 15.5182C21.0567 15.4604 21.0323 15.41 21.0004 15.3722H21.1913V15.2175V14.1346C21.3441 13.9748 21.5636 13.8933 21.8544 13.8933C22.3227 13.8933 22.5149 14.0306 22.6248 14.4358C22.6948 14.6941 22.6269 14.9145 22.4068 15.1202L22.5324 15.3149C22.7783 15.085 22.8868 14.8106 22.8488 14.5065C23.3755 14.4855 23.7691 14.5531 24.0277 14.705C24.2528 14.8372 24.294 15.1728 24.1236 15.7566L24.3169 15.8383C24.5173 15.1513 24.4601 14.6847 24.1175 14.4835C23.8156 14.3061 23.3757 14.234 22.7955 14.2623L22.7961 14.28C22.6496 13.8227 22.3756 13.6469 21.8544 13.6469C21.5897 13.6469 21.3679 13.7083 21.1913 13.8327V13.7701H20.7817V13.8786C20.5936 13.7106 20.3441 13.6278 20.0368 13.6278C19.5262 13.6278 19.2529 13.7966 19.1043 14.2333L19.1074 14.139C18.5272 14.1107 18.0873 14.1829 17.7854 14.3602C17.4429 14.5615 17.3856 15.028 17.5861 15.715L17.7793 15.6334C17.609 15.0496 17.6501 14.714 17.8753 14.5817C18.1349 14.4292 18.5308 14.3617 19.0609 14.3836C18.9817 14.7292 19.0852 15.0401 19.3589 15.2958L19.4845 15.1012C19.2643 14.8954 19.1964 14.675 19.2664 14.4168ZM20.8841 15.8568C20.8841 15.8393 20.8875 15.8224 20.8937 15.8063C20.8867 15.8055 20.8798 15.8042 20.8728 15.8024C20.8802 15.8196 20.8841 15.8378 20.8841 15.8568ZM19.3432 15.9437C19.3415 15.9376 19.3394 15.9315 19.3368 15.9256L19.3444 15.9274L19.3432 15.9437ZM23.4104 16.877C23.2427 16.9127 23.1216 16.9091 23.0573 16.8461C22.9568 16.8813 22.8389 16.8847 22.7043 16.8583C22.5606 16.8302 22.4605 16.7151 22.4002 16.5242C22.3216 16.6448 22.2222 16.7192 22.103 16.7433C22.7583 16.8551 23.2174 17.0123 23.2174 17.0123C23.2174 17.0123 23.206 17.1291 23.1785 17.2665C23.2076 17.1946 23.2421 17.1147 23.282 17.0265L23.2919 17.0111L23.4104 16.877ZM21.7938 16.6964C21.7368 16.6624 21.6913 16.6129 21.6584 16.5493C21.6096 16.6012 21.554 16.6392 21.4923 16.6626C21.5953 16.6721 21.6961 16.6835 21.7938 16.6964ZM21.1308 16.6386C21.051 16.5943 20.9847 16.5232 20.9352 16.4322C20.886 16.5226 20.8203 16.5933 20.7412 16.6377C20.7881 16.636 20.8351 16.6348 20.8824 16.6342V16.6336L20.9235 16.6338L20.9646 16.6336V16.6342C21.0203 16.6349 21.0757 16.6364 21.1308 16.6386ZM18.6589 17.0027L18.5634 16.8946C18.678 16.9083 18.7628 16.8953 18.813 16.8461C18.9135 16.8813 19.0314 16.8847 19.166 16.8583C19.3098 16.8302 19.4099 16.7151 19.4701 16.5242C19.5465 16.6413 19.6424 16.7149 19.757 16.7411C19.192 16.8366 18.7705 16.9666 18.6589 17.0027ZM20.3736 16.6609C20.2744 16.6697 20.1773 16.6805 20.0828 16.6926C20.1369 16.6587 20.1802 16.6106 20.2119 16.5493C20.2596 16.5999 20.3137 16.6373 20.3736 16.6609ZM22.8928 17.684C22.9645 17.7244 23.022 17.6841 23.0675 17.6067C23.0636 17.6281 23.0611 17.6474 23.0601 17.6647C23.0541 17.6694 23.0449 17.6751 23.0328 17.6812C22.9991 17.6983 22.9476 17.7165 22.8806 17.7349C22.7489 17.7711 22.5614 17.807 22.3392 17.8391C21.9053 17.9018 21.3893 17.9431 20.9791 17.9463C20.5689 17.9431 20.053 17.9018 19.6191 17.8391C19.3969 17.807 19.2094 17.7711 19.0777 17.7349C19.0215 17.7195 18.9762 17.7042 18.9432 17.6896C18.9468 17.688 18.9505 17.6861 18.9542 17.684C19.1779 17.558 20.6571 17.4398 20.9235 17.4194C21.1899 17.4398 22.6691 17.558 22.8928 17.684ZM23.1901 17.6614C23.1897 17.6617 23.1892 17.6623 23.1887 17.6632L23.1895 17.662L23.1901 17.6614Z" fill="#FECA00"/>
<path d="M19.1322 14.0384L19.1305 14.1616C18.2225 14.1425 17.7016 14.302 17.5694 14.6198C17.4328 14.9484 17.4582 15.3478 17.6497 15.8223L17.5576 15.8762C17.3532 15.3699 17.3253 14.9313 17.4779 14.5646C17.6349 14.1872 18.1859 14.0185 19.1322 14.0384Z" fill="white"/>
<path d="M19.3082 15.1312L19.2557 15.237C19.0579 15.0949 18.959 14.8524 18.959 14.5182C18.959 14.038 19.1646 13.7563 19.6193 13.5636C19.9095 13.4406 20.3059 13.491 20.8097 13.7108L20.7748 13.8267C20.2912 13.6157 19.917 13.5681 19.6533 13.6798C19.2362 13.8566 19.0614 14.0961 19.0614 14.5182C19.0614 14.8115 19.1436 15.0129 19.3082 15.1312Z" fill="white"/>
<path d="M22.7056 14.1616L22.7074 14.2848C23.6154 14.2657 24.1362 14.4252 24.2684 14.743C24.4051 15.0716 24.3797 15.4711 24.1882 15.9456L24.2803 15.9994C24.4846 15.4931 24.5126 15.0546 24.36 14.6879C24.203 14.3104 23.652 14.1417 22.7056 14.1616Z" fill="white"/>
<path d="M22.3852 15.1568L22.4377 15.2626C22.6354 15.1205 22.7344 14.878 22.7344 14.5439C22.7344 14.0636 22.5288 13.782 22.0741 13.5892C21.7839 13.4662 21.3874 13.5167 20.8836 13.7365L20.9185 13.8523C21.4022 13.6413 21.7764 13.5937 22.0401 13.7055C22.4571 13.8822 22.632 14.1218 22.632 14.5439C22.632 14.8371 22.5498 15.0385 22.3852 15.1568Z" fill="white"/>
</g>
</g>
<rect width="32" height="24" fill="url(#paint0_linear_230_26033)" style="mix-blend-mode:overlay"/>
</g>
<rect x="0.5" y="0.5" width="31" height="23" rx="1.5" stroke="black" stroke-opacity="0.1"/>
<defs>
<linearGradient id="paint0_linear_230_26033" x1="16" y1="0" x2="16" y2="24" gradientUnits="userSpaceOnUse">
<stop stop-color="white" stop-opacity="0.7"/>
<stop offset="1" stop-opacity="0.3"/>
</linearGradient>
<clipPath id="clip0_230_26033">
<rect width="32" height="24" rx="2" fill="white"/>
</clipPath>
</defs>
</svg>
