<svg width="32" height="24" viewBox="0 0 32 24" fill="none" xmlns="http://www.w3.org/2000/svg">
<g clip-path="url(#clip0_230_25310)">
<mask id="mask0_230_25310" style="mask-type:luminance" maskUnits="userSpaceOnUse" x="0" y="0" width="32" height="24">
<rect width="32" height="24" fill="white"/>
</mask>
<g mask="url(#mask0_230_25310)">
<path fill-rule="evenodd" clip-rule="evenodd" d="M32 0H0V6H32V0ZM32 18H0V24H32V18Z" fill="#F50101"/>
<path fill-rule="evenodd" clip-rule="evenodd" d="M0 6H32V18H0V6Z" fill="#F7FCFF"/>
<path fill-rule="evenodd" clip-rule="evenodd" d="M21.5151 12.5132C21.5897 13.3806 18.3889 12.1534 18.3889 12.5007C18.3889 12.8479 21.8178 13.4577 21.812 14.2351C21.8063 15.0125 17.7463 14.0133 18.6567 14.3629C19.5672 14.7125 21.522 15.5494 21.2998 16.0709C20.8253 17.1844 17.6737 15.2983 17.4116 15.6702C16.9886 16.2699 19.7372 17.6688 19.714 17.8025C19.6692 18.0589 17.8367 17.3996 17.4116 17.9319C17.0675 17.8349 16.9084 17.3715 16.8015 17.31L16.1252 8.58661C16.1252 8.58661 16.7325 16.8 15.9566 17.0362C15.1806 17.2725 13.0252 17.9907 12.9625 17.632C12.9391 17.4983 15.5578 16.2699 15.1347 15.6702C14.8232 15.2282 11.663 16.7955 11.4614 15.8879C10.5632 15.2405 14.3701 14.6802 14.3701 14.0181C14.3701 13.3559 10.8875 14.8018 11.3041 13.8801C11.7208 12.9583 14.5089 12.6283 14.5609 12.5007C14.656 12.2672 11.4614 12.8641 11.4614 12.5007C11.4614 11.813 13.3735 11.6777 14.5609 11.0588C14.631 10.3526 11.6805 11.754 11.4614 11.1879C11.2422 10.6218 15.2325 9.15516 15.1347 9.04091C14.9803 8.86047 11.7644 9.67464 12.2948 9.24709C13.3241 8.41729 15.3332 7.28891 15.7955 6.98793C15.7955 6.98793 15.8512 6.87436 15.9107 6.9129C15.9703 6.87436 16.0359 6.83215 16.0359 6.83215C16.0359 6.83215 16.0359 7.54218 16.026 6.98793C16.0161 6.43367 20.7356 8.85893 20.7892 9.47373C20.8516 10.192 17.8731 8.93227 17.9431 9.63848C18.5486 10.0136 20.2707 10.7396 20.9822 11.0588C21.3049 11.2036 18.6044 10.7523 18.6615 10.9739C18.8068 11.5385 21.4374 11.6086 21.5151 12.5132Z" fill="#52AB0B"/>
</g>
<rect width="32" height="24" fill="url(#paint0_linear_230_25310)" style="mix-blend-mode:overlay"/>
</g>
<rect x="0.5" y="0.5" width="31" height="23" rx="1.5" stroke="black" stroke-opacity="0.1"/>
<defs>
<linearGradient id="paint0_linear_230_25310" x1="16" y1="0" x2="16" y2="24" gradientUnits="userSpaceOnUse">
<stop stop-color="white" stop-opacity="0.7"/>
<stop offset="1" stop-opacity="0.3"/>
</linearGradient>
<clipPath id="clip0_230_25310">
<rect width="32" height="24" rx="2" fill="white"/>
</clipPath>
</defs>
</svg>
