<svg width="32" height="24" viewBox="0 0 32 24" fill="none" xmlns="http://www.w3.org/2000/svg">
<g clip-path="url(#clip0_230_22562)">
<mask id="mask0_230_22562" style="mask-type:luminance" maskUnits="userSpaceOnUse" x="0" y="0" width="32" height="24">
<rect width="32" height="24" fill="white"/>
</mask>
<g mask="url(#mask0_230_22562)">
<path fill-rule="evenodd" clip-rule="evenodd" d="M0 0H32V24H0V0Z" fill="#F7FCFF"/>
<path fill-rule="evenodd" clip-rule="evenodd" d="M0 0H14V24H0V0Z" fill="#FFDC17"/>
<path d="M22.7827 12.7511L22.4375 12.7736C22.52 13.9594 22.7747 14.8753 23.207 15.5217C23.9042 16.5642 24.8243 17.3702 25.44 17.3702C25.5798 17.3702 25.6123 17.4221 25.5662 17.5503C25.5006 17.7326 25.2932 17.9119 25.0264 17.9807C24.5826 18.0951 23.5733 18.1544 22.0156 18.1544V18.4893C23.6045 18.4893 24.6321 18.429 25.1155 18.3043C25.4909 18.2075 25.7888 17.95 25.8929 17.6604C26.0134 17.3256 25.8316 17.0353 25.44 17.0353C24.9827 17.0353 24.1344 16.2922 23.4974 15.3397C23.1015 14.7478 22.8615 13.8848 22.7827 12.7511Z" fill="#AF0100"/>
<path d="M21.147 12.7511L21.4921 12.7736C21.4097 13.9594 21.155 14.8753 20.7226 15.5217C20.0255 16.5642 19.1054 17.3702 18.4897 17.3702C18.3499 17.3702 18.3174 17.4221 18.3635 17.5503C18.4291 17.7326 18.6365 17.9119 18.9033 17.9807C19.3471 18.0951 20.3564 18.1544 21.914 18.1544V18.4893C20.3252 18.4893 19.2976 18.429 18.8142 18.3043C18.4388 18.2075 18.1409 17.95 18.0368 17.6604C17.9163 17.3256 18.0981 17.0353 18.4897 17.0353C18.947 17.0353 19.7952 16.2922 20.4322 15.3397C20.8282 14.7478 21.0682 13.8848 21.147 12.7511Z" fill="#AF0100"/>
<path fill-rule="evenodd" clip-rule="evenodd" d="M28.0672 6.7981L18.9258 13.9241C18.6057 13.8198 18.2563 13.7628 17.8923 13.7628C16.4092 13.7628 15.168 14.7101 15.168 15.9395C15.168 17.1689 16.4092 18.1162 17.8923 18.1162C18.0624 18.1162 18.2293 18.1038 18.3915 18.0799C18.2415 17.9627 18.1294 17.8162 18.0734 17.6604C18.0059 17.473 18.0332 17.2996 18.1389 17.1832C18.0585 17.1912 17.9762 17.1953 17.8923 17.1953C16.8916 17.1953 16.1193 16.6058 16.1193 15.9395C16.1193 15.2731 16.8916 14.6837 17.8923 14.6837C18.893 14.6837 19.6653 15.2731 19.6653 15.9395C19.6653 16.1434 19.593 16.34 19.464 16.5148C19.4883 16.4932 19.5126 16.4709 19.5371 16.4482C19.8539 16.1532 19.142 17.3702 18.5263 17.3702C18.3865 17.3702 18.3539 17.4221 18.4001 17.5503C18.4615 17.7211 18.6473 17.8892 18.8899 17.9663C19.8927 17.6528 20.6166 16.8784 20.6166 15.9395C20.6166 15.5554 20.4955 15.1989 20.2837 14.8902L25.1965 10.7206L25.5254 11.0603L25.7621 10.8456L26.5828 11.4538L26.2396 11.7183L26.94 12.5697L28.353 11.4804L28.377 11.468L28.3728 11.4652L28.4604 11.3976L27.76 10.5463L27.4213 10.8073L26.5038 10.1729L26.6113 10.0754L26.3161 9.77038L26.76 9.39361L26.9957 9.63705L27.2487 9.40757L28.0443 10.0373L27.7099 10.2951L28.4103 11.1465L29.6207 10.2133L29.7594 10.1374L29.7392 10.122L29.9307 9.97438L29.2303 9.123L28.8347 9.42798L27.9633 8.75944L28.0816 8.65213L27.8796 8.44343L28.784 7.6758L28.0672 6.7981Z" fill="#F4B300"/>
<path fill-rule="evenodd" clip-rule="evenodd" d="M15.6866 14.7255C15.9493 14.7255 16.1623 14.5569 16.1623 14.3488C16.1623 14.1407 15.9493 13.972 15.6866 13.972C15.4239 13.972 15.2109 14.1407 15.2109 14.3488C15.2109 14.5569 15.4239 14.7255 15.6866 14.7255ZM15.8596 18.1581C16.1223 18.1581 16.3353 17.9894 16.3353 17.7813C16.3353 17.5733 16.1223 17.4046 15.8596 17.4046C15.5969 17.4046 15.3839 17.5733 15.3839 17.7813C15.3839 17.9894 15.5969 18.1581 15.8596 18.1581ZM20.5731 17.7813C20.5731 17.9894 20.3601 18.1581 20.0974 18.1581C19.8347 18.1581 19.6217 17.9894 19.6217 17.7813C19.6217 17.5733 19.8347 17.4046 20.0974 17.4046C20.3601 17.4046 20.5731 17.5733 20.5731 17.7813Z" fill="#BFBFBF"/>
<path fill-rule="evenodd" clip-rule="evenodd" d="M23.3853 15.9395C23.3853 15.3869 23.6361 14.8913 24.0469 14.5131L18.7973 10.4478L18.7375 10.4938L18.8905 10.6326L18.4766 11.0603L18.2586 10.8626L17.4551 11.4815L17.7623 11.7183L17.0619 12.5697L15.664 11.492L15.625 11.468L15.6291 11.4651L15.5415 11.3976L16.242 10.5462L16.5806 10.8073L17.4982 10.1729L17.3906 10.0754L17.7873 9.66557L17.3251 9.30765L17.0063 9.63703L16.7628 9.41616L15.9774 10.0525L16.2921 10.2951L15.5917 11.1465L14.4197 10.243L14.2426 10.1374L14.2627 10.122L14.0713 9.97436L14.7717 9.12299L15.1673 9.42797L16.0387 8.75943L15.9204 8.65211L16.1595 8.40501L15.2179 7.67579L15.8122 6.95667L24.894 13.9898C25.2617 13.844 25.6753 13.7627 26.1097 13.7627C27.5928 13.7627 28.834 14.7101 28.834 15.9395C28.834 17.1689 27.5928 18.1162 26.1097 18.1162C25.9396 18.1162 25.7727 18.1038 25.6104 18.0799C25.7605 17.9627 25.8726 17.8162 25.9286 17.6604C25.996 17.473 25.9688 17.2996 25.863 17.1832C25.9434 17.1912 26.0257 17.1953 26.1097 17.1953C27.1103 17.1953 27.8826 16.6058 27.8826 15.9395C27.8826 15.2731 27.1103 14.6837 26.1097 14.6837C25.109 14.6837 24.3367 15.2731 24.3367 15.9395C24.3367 16.1433 24.409 16.34 24.538 16.5148C24.5137 16.4931 24.4893 16.4709 24.4649 16.4482C24.1481 16.1532 24.86 17.3702 25.4757 17.3702C25.6155 17.3702 25.648 17.4221 25.6019 17.5503C25.5405 17.7211 25.3546 17.8892 25.112 17.9663C24.1093 17.6528 23.3853 16.8784 23.3853 15.9395Z" fill="#BFBFBF"/>
<path fill-rule="evenodd" clip-rule="evenodd" d="M28.3153 14.7255C28.0526 14.7255 27.8397 14.5569 27.8397 14.3488C27.8397 14.1407 28.0526 13.972 28.3153 13.972C28.578 13.972 28.791 14.1407 28.791 14.3488C28.791 14.5569 28.578 14.7255 28.3153 14.7255ZM28.1424 18.1581C27.8797 18.1581 27.6667 17.9894 27.6667 17.7813C27.6667 17.5733 27.8797 17.4046 28.1424 17.4046C28.4051 17.4046 28.618 17.5733 28.618 17.7813C28.618 17.9894 28.4051 18.1581 28.1424 18.1581ZM23.4289 17.7813C23.4289 17.9894 23.6418 18.1581 23.9045 18.1581C24.1672 18.1581 24.3802 17.9894 24.3802 17.7813C24.3802 17.5733 24.1672 17.4046 23.9045 17.4046C23.6418 17.4046 23.4289 17.5733 23.4289 17.7813Z" fill="#F4B300"/>
<path fill-rule="evenodd" clip-rule="evenodd" d="M21.741 11.7953C21.6693 11.7953 21.6113 11.8534 21.6113 11.925V12.4651H21.1314C21.0621 12.4651 21.0059 12.5213 21.0059 12.5906C21.0059 12.66 21.0621 12.7162 21.1314 12.7162H21.6113V19.8702C21.6113 19.9419 21.6693 19.9999 21.741 19.9999H22.0005C22.0721 19.9999 22.1302 19.9419 22.1302 19.8702V12.7162H22.8695C22.9388 12.7162 22.995 12.66 22.995 12.5906C22.995 12.5213 22.9388 12.4651 22.8695 12.4651H22.1302V11.925C22.1302 11.8534 22.0721 11.7953 22.0005 11.7953H21.741Z" fill="#AF0100"/>
<path fill-rule="evenodd" clip-rule="evenodd" d="M16.7559 7.5937L16.9675 7.73895C17.4608 7.06531 17.9048 6.93 18.3563 7.28355C19.1359 7.89393 19.2035 9.38315 18.3697 9.88176C17.3754 10.4764 16.8714 11.6361 17.3123 12.2673C17.7192 12.8497 18.7 12.6293 19.6683 11.8978C19.8403 11.7679 20.0041 11.6292 20.1582 11.4836L19.9536 11.3256C19.8133 11.4568 19.6645 11.5821 19.5087 11.6998C18.645 12.3523 17.8152 12.5387 17.5273 12.1266C17.1836 11.6346 17.6229 10.6236 18.5061 10.0954C19.5052 9.49794 19.4282 7.7997 18.5195 7.08827C17.9334 6.6294 17.3266 6.81436 16.7559 7.5937ZM20.5638 10.645L20.7749 10.7914C21.1421 10.2958 21.393 9.75913 21.4762 9.23055L21.2197 9.19269C21.143 9.67951 20.9085 10.1798 20.5638 10.645Z" fill="#979797"/>
<path fill-rule="evenodd" clip-rule="evenodd" d="M27.2695 7.5937L27.0579 7.73895C26.5645 7.06531 26.1206 6.93 25.669 7.28355C24.8895 7.89393 24.8219 9.38315 25.6556 9.88176C26.65 10.4764 27.154 11.6361 26.7131 12.2673C26.3062 12.8497 25.3254 12.6293 24.357 11.8978C24.1851 11.7679 24.0213 11.6292 23.8672 11.4836L24.0718 11.3256C24.2121 11.4568 24.3609 11.5821 24.5167 11.6998C25.3804 12.3523 26.2102 12.5387 26.4981 12.1266C26.8418 11.6346 26.4025 10.6236 25.5193 10.0954C24.5202 9.49794 24.5972 7.7997 25.5059 7.08827C26.0919 6.6294 26.6988 6.81436 27.2695 7.5937ZM23.4616 10.645L23.2505 10.7914C22.8833 10.2958 22.6324 9.75913 22.5492 9.23055L22.8057 9.19269C22.8823 9.67951 23.1169 10.1798 23.4616 10.645Z" fill="#979797"/>
<path fill-rule="evenodd" clip-rule="evenodd" d="M21.8705 20.0166C22.1571 20.0166 22.3894 19.9004 22.3894 19.7571C22.3894 19.6138 22.1571 19.4977 21.8705 19.4977C21.5839 19.4977 21.3516 19.6138 21.3516 19.7571C21.3516 19.9004 21.5839 20.0166 21.8705 20.0166Z" fill="#AF0100"/>
<path fill-rule="evenodd" clip-rule="evenodd" d="M21.785 9.2193C22.788 9.2193 23.6012 9.08377 23.6012 8.91659C23.6012 8.74942 22.788 8.61389 21.785 8.61389C20.7819 8.61389 19.9688 8.74942 19.9688 8.91659C19.9688 9.08377 20.7819 9.2193 21.785 9.2193Z" fill="#AF0100"/>
<path fill-rule="evenodd" clip-rule="evenodd" d="M21.8859 2.03833H21.6264V2.33746H21.3807V2.58862H21.6264V3.32161H21.8859V2.58862H22.1853V2.33746H21.8859V2.03833ZM19.9349 5.65665L19.8191 5.46156C19.8825 5.43496 19.9473 5.40986 20.0134 5.38625L19.6758 4.64602L19.9131 4.54459L20.2607 5.30664C20.3343 5.28541 20.4095 5.26587 20.4861 5.24801C20.4328 5.18763 20.3999 5.10502 20.3999 5.01391C20.3999 4.82896 20.5354 4.67903 20.7026 4.67903C20.8697 4.67903 21.0053 4.82896 21.0053 5.01391C21.0053 5.06611 20.9945 5.11551 20.9752 5.15955C21.1807 5.13229 21.3954 5.11542 21.6192 5.10889V4.8251H21.2942V4.6231H21.6192V4.38252H21.9623V4.6231H22.3583V4.8251H21.9623V5.10691C22.2172 5.11134 22.4561 5.12908 22.6789 5.16021C22.6594 5.11601 22.6485 5.06637 22.6485 5.01391C22.6485 4.82896 22.784 4.67903 22.9512 4.67903C23.1184 4.67903 23.2539 4.82896 23.2539 5.01391C23.2539 5.10863 23.2184 5.19416 23.1612 5.25508C23.258 5.2803 23.3509 5.30873 23.4399 5.34038L23.6883 4.79575L23.9256 4.89719L23.6792 5.43747C23.6987 5.44644 23.718 5.4556 23.7371 5.46494L23.6064 5.65327L23.5854 5.64315L23.5456 5.73058L23.3082 5.62915L23.347 5.54411C22.9685 5.40826 22.5071 5.33487 21.9623 5.32499V5.41464H21.6192V5.32706C20.9724 5.34677 20.4113 5.45689 19.9349 5.65665ZM19.8191 5.88017L19.8796 5.98216L19.6758 6.06928L20.0134 6.8095C19.9473 6.83311 19.8825 6.85822 19.8191 6.88482L19.9349 7.0799C20.4113 6.88015 20.9724 6.77002 21.6192 6.75031V6.83789H21.9623V6.74824C22.5071 6.75813 22.9685 6.83152 23.347 6.96737L23.3082 7.0524L23.5456 7.15384L23.5854 7.06641L23.6064 7.07653L23.7371 6.88819C23.718 6.87885 23.6987 6.8697 23.6792 6.86073L23.9256 6.32044L23.6883 6.21901L23.4399 6.76364C23.3509 6.73199 23.258 6.70356 23.1612 6.67833C23.2184 6.61742 23.2539 6.53189 23.2539 6.43717C23.2539 6.25222 23.1184 6.10228 22.9512 6.10228C22.784 6.10228 22.6485 6.25222 22.6485 6.43717C22.6485 6.48963 22.6594 6.53927 22.6789 6.58347C22.4561 6.55234 22.2172 6.5346 21.9623 6.53017V6.24836H22.3583V6.04635H21.9623V5.80577H21.6192V6.04635H21.2942V6.24836H21.6192V6.53215C21.3954 6.53868 21.1807 6.55555 20.9752 6.5828C20.9945 6.53877 21.0053 6.48936 21.0053 6.43717C21.0053 6.25222 20.8697 6.10228 20.7026 6.10228C20.5354 6.10228 20.3999 6.25222 20.3999 6.43717C20.3999 6.52828 20.4328 6.61089 20.4861 6.67127C20.4095 6.68912 20.3343 6.70866 20.2607 6.72989L19.9578 6.06576C20.4814 5.85055 21.1063 5.74244 21.8336 5.74244C22.5693 5.74244 23.1598 5.85304 23.6064 6.07188L23.7371 5.88354C23.2469 5.64333 22.6121 5.52441 21.8336 5.52441C21.0575 5.52441 20.3855 5.64264 19.8191 5.88017ZM19.8191 7.30342L19.8796 7.40541L19.6758 7.49254L20.0134 8.23276C19.9473 8.25637 19.8825 8.28147 19.8191 8.30807L19.9349 8.50316C20.4113 8.3034 20.9724 8.19328 21.6192 8.17357V8.26115H21.9623V8.1715C22.5071 8.18139 22.9685 8.25477 23.347 8.39062L23.3082 8.47566L23.5456 8.57709L23.5854 8.48967L23.6064 8.49978L23.7371 8.31145C23.718 8.30211 23.6987 8.29295 23.6792 8.28398L23.9256 7.7437L23.6883 7.64226L23.4399 8.18689C23.3509 8.15524 23.258 8.12681 23.1612 8.10159C23.2184 8.04068 23.2539 7.95514 23.2539 7.86042C23.2539 7.67547 23.1184 7.52554 22.9512 7.52554C22.784 7.52554 22.6485 7.67547 22.6485 7.86042C22.6485 7.91288 22.6594 7.96252 22.6789 8.00673C22.4561 7.97559 22.2172 7.95785 21.9623 7.95343V7.67162H22.3583V7.46961H21.9623V7.22903H21.6192V7.46961H21.2942V7.67162H21.6192V7.95541C21.3954 7.96193 21.1807 7.97881 20.9752 8.00606C20.9945 7.96202 21.0053 7.91262 21.0053 7.86042C21.0053 7.67547 20.8697 7.52554 20.7026 7.52554C20.5354 7.52554 20.3999 7.67547 20.3999 7.86042C20.3999 7.95153 20.4328 8.03415 20.4861 8.09452C20.4095 8.11238 20.3343 8.13192 20.2607 8.15315L19.9578 7.48902C20.4814 7.27381 21.1063 7.16569 21.8336 7.16569C22.5693 7.16569 23.1598 7.2763 23.6064 7.49513L23.7371 7.3068C23.2469 7.06659 22.6121 6.94767 21.8336 6.94767C21.0575 6.94767 20.3855 7.0659 19.8191 7.30342ZM19.8191 8.72668L19.9349 8.92176C20.4632 8.70024 21.0957 8.58895 21.8336 8.58895C22.5693 8.58895 23.1598 8.69956 23.6064 8.91839L23.7371 8.73005C23.2469 8.48984 22.6121 8.37092 21.8336 8.37092C21.0575 8.37092 20.3855 8.48916 19.8191 8.72668Z" fill="#F4B300"/>
</g>
<rect width="32" height="24" fill="url(#paint0_linear_230_22562)" style="mix-blend-mode:overlay"/>
</g>
<rect x="0.5" y="0.5" width="31" height="23" rx="1.5" stroke="black" stroke-opacity="0.1"/>
<defs>
<linearGradient id="paint0_linear_230_22562" x1="16" y1="0" x2="16" y2="24" gradientUnits="userSpaceOnUse">
<stop stop-color="white" stop-opacity="0.7"/>
<stop offset="1" stop-opacity="0.3"/>
</linearGradient>
<clipPath id="clip0_230_22562">
<rect width="32" height="24" rx="2" fill="white"/>
</clipPath>
</defs>
</svg>
