<svg width="32" height="24" viewBox="0 0 32 24" fill="none" xmlns="http://www.w3.org/2000/svg">
<g clip-path="url(#clip0_230_22260)">
<mask id="mask0_230_22260" style="mask-type:luminance" maskUnits="userSpaceOnUse" x="0" y="0" width="32" height="24">
<rect width="32" height="24" fill="white"/>
</mask>
<g mask="url(#mask0_230_22260)">
<path fill-rule="evenodd" clip-rule="evenodd" d="M0 0V24H32V0H0Z" fill="#F7FCFF"/>
<mask id="mask1_230_22260" style="mask-type:luminance" maskUnits="userSpaceOnUse" x="0" y="0" width="32" height="24">
<path fill-rule="evenodd" clip-rule="evenodd" d="M0 0V24H32V0H0Z" fill="white"/>
</mask>
<g mask="url(#mask1_230_22260)">
<path fill-rule="evenodd" clip-rule="evenodd" d="M0 2V22H32V2H0Z" fill="#FECA00"/>
<path d="M0 8.25H-1.75V10V14V15.75H0H32H33.75V14V10V8.25H32H0Z" fill="#272727" stroke="#E31D1C" stroke-width="3.5"/>
<path fill-rule="evenodd" clip-rule="evenodd" d="M0 4V0H32V4H0ZM0 24V20H32V24H0Z" fill="#5EAA22"/>
</g>
<path d="M0.596961 -0.80227L-1 -1.99055V0V24V25.9609L0.587223 24.8094L16.9185 12.9614L18.0202 12.1622L16.9283 11.3497L0.596961 -0.80227Z" fill="#F7FCFF" stroke="#272727" stroke-width="2"/>
<mask id="mask2_230_22260" style="mask-type:luminance" maskUnits="userSpaceOnUse" x="-2" y="-4" width="22" height="32">
<path d="M0.596961 -0.80227L-1 -1.99055V0V24V25.9609L0.587223 24.8094L16.9185 12.9614L18.0202 12.1622L16.9283 11.3497L0.596961 -0.80227Z" fill="white" stroke="white" stroke-width="2"/>
</mask>
<g mask="url(#mask2_230_22260)">
<path fill-rule="evenodd" clip-rule="evenodd" d="M7.47906 14.2783L3.70012 17.3287L5.4335 13.2521L2.45508 10.3839H5.97068L7.41327 6.92505L8.94545 10.3839H12.4551L9.31933 13.2521L10.8887 17.3287L7.47906 14.2783Z" fill="#E31D1C"/>
<path fill-rule="evenodd" clip-rule="evenodd" d="M5.01771 8.42151C5.01771 8.42151 4.96285 8.28925 5.28668 8.17231C5.6105 8.05537 5.70928 7.80758 5.96312 7.98995C6.21697 8.17231 6.37577 7.80567 6.44861 8.33153C6.52144 8.8574 6.72219 9.68662 6.72219 9.68662L10.0098 12.1573H9.39208C9.39208 12.1573 8.43024 13.5705 8.58904 14.8104C8.58904 14.8104 7.9254 14.7095 7.02589 14.7095C6.12638 14.7095 5.53722 14.925 5.53722 14.925L5.01771 13.0014C5.01771 13.0014 5.20582 12.6782 5.28668 12.4177C5.36753 12.1573 5.70235 12.1092 5.70235 11.902C5.70235 11.6948 5.3721 11.5211 5.53722 10.9848C5.70235 10.4484 5.70235 8.84406 5.70235 8.84406C5.70235 8.84406 5.18048 8.61457 5.28668 8.61457C5.39288 8.61457 5.63496 8.42151 5.46082 8.42151C5.28668 8.42151 5.01771 8.42151 5.01771 8.42151Z" fill="#FECA00"/>
<path d="M6.72219 9.68662L6.6007 9.71603L6.61125 9.75961L6.64709 9.78655L9.63537 12.0323H9.39208H9.32595L9.28874 12.0869L9.39208 12.1573L9.2887 12.087L9.28863 12.0871L9.28844 12.0874L9.28778 12.0884L9.28545 12.0918L9.27688 12.1048C9.26949 12.116 9.25884 12.1324 9.24544 12.1536C9.21864 12.1959 9.1808 12.2574 9.13602 12.335C9.04655 12.4899 8.92896 12.7096 8.81634 12.9691C8.61096 13.4423 8.41583 14.0618 8.45033 14.6662C8.37557 14.6572 8.2761 14.6463 8.15607 14.6355C7.87483 14.61 7.48019 14.5845 7.02589 14.5845C6.56624 14.5845 6.18548 14.6395 5.91884 14.6949C5.79482 14.7206 5.69536 14.7464 5.62398 14.7668L5.15174 13.0182C5.1537 13.0147 5.15576 13.0109 5.1579 13.007C5.17736 12.9716 5.20412 12.9218 5.23349 12.8635C5.29157 12.7483 5.36252 12.595 5.40605 12.4548C5.43265 12.3691 5.50068 12.3144 5.59992 12.2398L5.60302 12.2375C5.64692 12.2045 5.70124 12.1637 5.74327 12.1152C5.78947 12.0618 5.82735 11.9921 5.82735 11.902C5.82735 11.8178 5.7938 11.7451 5.76389 11.6884C5.7514 11.6647 5.73968 11.6439 5.72841 11.6239C5.70871 11.5889 5.69037 11.5563 5.67168 11.5151C5.62106 11.4037 5.58401 11.2576 5.65669 11.0216C5.70183 10.8749 5.7337 10.6637 5.75703 10.4368C5.7806 10.2076 5.79621 9.95414 5.80659 9.7188C5.81697 9.48325 5.82216 9.26473 5.82475 9.10515C5.82605 9.02533 5.8267 8.96019 5.82702 8.91494L5.82731 8.86263L5.82735 8.84888L5.82735 8.84532L5.82735 8.8444L5.82735 8.84415V8.84409L5.70235 8.84406H5.82735V8.76247L5.75267 8.72963L5.75267 8.72963L5.75266 8.72963L5.75261 8.7296L5.75236 8.72949L5.75131 8.72903L5.74712 8.72718L5.73107 8.72004L5.67425 8.69443C5.63544 8.67676 5.58697 8.65435 5.53893 8.63125C5.54764 8.62421 5.556 8.617 5.56389 8.60968C5.58133 8.5935 5.5995 8.57403 5.61422 8.55197C5.62709 8.53268 5.64734 8.49673 5.647 8.45075C5.64656 8.39137 5.61268 8.34428 5.56679 8.31965C5.53008 8.29996 5.49035 8.29651 5.46082 8.29651H5.4598H5.45877H5.45775H5.45672H5.45569H5.45466H5.45362H5.45259H5.45155H5.45051H5.44947H5.44842H5.44737H5.44633H5.44528H5.44422H5.44317H5.44211H5.44106H5.44H5.43894H5.43787H5.43681H5.43574H5.43467H5.4336H5.43253H5.43146H5.43038H5.4293H5.42822H5.42714H5.42606H5.42498H5.42389H5.4228H5.42172H5.42063H5.41953H5.41844H5.41734H5.41625H5.41515H5.41405H5.41295H5.41185H5.41074H5.40964H5.40853H5.40742H5.40632H5.40521H5.40409H5.40298H5.40187H5.40075H5.39963H5.39851H5.3974H5.39627H5.39515H5.39403H5.39291H5.39178H5.39065H5.38953H5.3884H5.38727H5.38614H5.385H5.38387H5.38274H5.3816H5.38047H5.37933H5.37819H5.37705H5.37591H5.37477H5.37363H5.37249H5.37135H5.3702H5.36906H5.36791H5.36676H5.36562H5.36447H5.36332H5.36217H5.36102H5.35987H5.35872H5.35757H5.35641H5.35526H5.35411H5.35295H5.3518H5.35064H5.34948H5.34833H5.34717H5.34601H5.34485H5.34369H5.34254H5.34138H5.34022H5.33905H5.33789H5.33673H5.33557H5.33441H5.33325H5.33208H5.33092H5.32976H5.32859H5.32743H5.32627H5.3251H5.32394H5.32277H5.32161H5.32045H5.31928H5.31812H5.31695H5.31579H5.31462H5.31346H5.31229H5.31128C5.31704 8.29431 5.32299 8.2921 5.32913 8.28988C5.42163 8.25648 5.49689 8.21409 5.55966 8.17476C5.58768 8.1572 5.61055 8.14212 5.63091 8.1287C5.66052 8.10917 5.6848 8.09317 5.71179 8.07819C5.75195 8.05591 5.77573 8.04984 5.79441 8.05005C5.81157 8.05026 5.84086 8.05603 5.89019 8.09147C6.03837 8.19792 6.19323 8.17102 6.25546 8.16021C6.26508 8.15854 6.27249 8.15726 6.27731 8.15691C6.28901 8.17698 6.30817 8.2287 6.32479 8.34868C6.3619 8.6166 6.43116 8.95927 6.49056 9.2328C6.52036 9.37003 6.54786 9.49072 6.56792 9.57711C6.57795 9.62032 6.58613 9.65497 6.59181 9.67886L6.59837 9.70634L6.60009 9.71352L6.60054 9.71537L6.60065 9.71585L6.60068 9.71598L6.60069 9.71601L6.72219 9.68662Z" stroke="#0A0A0A" stroke-width="0.25"/>
</g>
</g>
<rect width="32" height="24" fill="url(#paint0_linear_230_22260)" style="mix-blend-mode:overlay"/>
</g>
<rect x="0.5" y="0.5" width="31" height="23" rx="1.5" stroke="black" stroke-opacity="0.1"/>
<defs>
<linearGradient id="paint0_linear_230_22260" x1="16" y1="0" x2="16" y2="24" gradientUnits="userSpaceOnUse">
<stop stop-color="white" stop-opacity="0.7"/>
<stop offset="1" stop-opacity="0.3"/>
</linearGradient>
<clipPath id="clip0_230_22260">
<rect width="32" height="24" rx="2" fill="white"/>
</clipPath>
</defs>
</svg>
