<svg width="32" height="24" viewBox="0 0 32 24" fill="none" xmlns="http://www.w3.org/2000/svg">
<g clip-path="url(#clip0_230_23581)">
<mask id="mask0_230_23581" style="mask-type:luminance" maskUnits="userSpaceOnUse" x="0" y="0" width="32" height="24">
<rect width="32" height="24" fill="white"/>
</mask>
<g mask="url(#mask0_230_23581)">
<path fill-rule="evenodd" clip-rule="evenodd" d="M0 0V24H32V0H0Z" fill="#3D58DB"/>
<mask id="mask1_230_23581" style="mask-type:luminance" maskUnits="userSpaceOnUse" x="0" y="0" width="32" height="24">
<path fill-rule="evenodd" clip-rule="evenodd" d="M0 0V24H32V0H0Z" fill="white"/>
</mask>
<g mask="url(#mask1_230_23581)">
<path fill-rule="evenodd" clip-rule="evenodd" d="M0 0V8H32V0H0Z" fill="#F7FCFF"/>
<path fill-rule="evenodd" clip-rule="evenodd" d="M0 16V24H32V16H0Z" fill="#E31D1C"/>
<path d="M15.6033 6.0304L16.1005 5.9775L16.0529 5.5304H15.6033H6.34422H5.8768L5.84535 5.99676L6.34422 6.0304L5.84534 5.99685L5.84533 5.99706L5.84528 5.99786L5.84507 6.00093L5.84427 6.01285L5.84122 6.05911L5.82989 6.2353C5.82023 6.38768 5.80669 6.60693 5.7911 6.87489C5.75993 7.41063 5.72054 8.14185 5.68773 8.92302C5.62305 10.4626 5.58016 12.265 5.69217 13.1067C5.91075 14.7492 6.91088 18.4363 10.7792 20.1073L10.981 20.1944L11.1816 20.1047C14.8558 18.4618 16.0847 15.1532 16.3681 13.1095C16.5112 12.078 16.4385 10.2732 16.338 8.77338C16.2872 8.01336 16.2278 7.31501 16.1812 6.80682C16.1579 6.55263 16.1378 6.34575 16.1235 6.20223C16.1163 6.13046 16.1106 6.07452 16.1066 6.0364L16.1021 5.99283L16.1009 5.98154L16.1006 5.9786L16.1005 5.97782L16.1005 5.9776C16.1005 5.97754 16.1005 5.9775 15.6033 6.0304Z" fill="#E31D1C" stroke="white"/>
<mask id="mask2_230_23581" style="mask-type:luminance" maskUnits="userSpaceOnUse" x="5" y="5" width="12" height="16">
<path d="M15.6033 6.0304L16.1005 5.9775L16.0529 5.5304H15.6033H6.34422H5.8768L5.84535 5.99676L6.34422 6.0304L5.84534 5.99685L5.84533 5.99706L5.84528 5.99786L5.84507 6.00093L5.84427 6.01285L5.84122 6.05911L5.82989 6.2353C5.82023 6.38768 5.80669 6.60693 5.7911 6.87489C5.75993 7.41063 5.72054 8.14185 5.68773 8.92302C5.62305 10.4626 5.58016 12.265 5.69217 13.1067C5.91075 14.7492 6.91088 18.4363 10.7792 20.1073L10.981 20.1944L11.1816 20.1047C14.8558 18.4618 16.0847 15.1532 16.3681 13.1095C16.5112 12.078 16.4385 10.2732 16.338 8.77338C16.2872 8.01336 16.2278 7.31501 16.1812 6.80682C16.1579 6.55263 16.1378 6.34575 16.1235 6.20223C16.1163 6.13046 16.1106 6.07452 16.1066 6.0364L16.1021 5.99283L16.1009 5.98154L16.1006 5.9786L16.1005 5.97782L16.1005 5.9776C16.1005 5.97754 16.1005 5.9775 15.6033 6.0304Z" fill="white" stroke="white"/>
</mask>
<g mask="url(#mask2_230_23581)">
<path fill-rule="evenodd" clip-rule="evenodd" d="M10.2564 6.58984C10.2564 6.58984 10.4629 6.90446 10.5553 7.38555C10.6478 7.86663 10.6637 8.70955 10.6637 8.70955L8.70481 8.46836V9.95365L10.7075 9.69861L10.6749 11.1083C10.6749 11.1083 10.0758 11.1705 9.58441 11.1083C9.09303 11.0462 8.125 10.786 8.125 10.786V12.4864C8.125 12.4864 9.1085 12.1718 9.58441 12.0996C10.0603 12.0274 10.6749 12.0996 10.6749 12.0996V14.1879H11.4879V12.0996C11.4879 12.0996 12.3767 12.0223 12.9069 12.106C13.437 12.1896 13.94 12.4864 13.94 12.4864V10.786C13.94 10.786 13.4305 11.0399 12.9499 11.103C12.4694 11.1662 11.4879 11.1083 11.4879 11.1083L11.5205 9.69861C11.5205 9.69861 12.1857 9.62974 12.5589 9.6804C12.9322 9.73106 13.3993 9.95365 13.3993 9.95365V8.46836C13.3993 8.46836 12.944 8.71611 12.5858 8.76105C12.2275 8.80599 11.4767 8.70955 11.4767 8.70955C11.4767 8.70955 11.49 7.83968 11.5671 7.41612C11.6441 6.99256 11.8622 6.58984 11.8622 6.58984H10.2564Z" fill="#F7FCFF"/>
<path fill-rule="evenodd" clip-rule="evenodd" d="M6.89648 16.2454C6.89648 16.2454 7.33598 15.3021 8.05111 15.1227C8.76625 14.9434 9.51613 15.6841 9.51613 15.6841C9.51613 15.6841 9.97403 14.1876 11.0901 14.1876C12.2062 14.1876 12.5979 15.6841 12.5979 15.6841C12.5979 15.6841 13.0741 15.1227 13.7589 15.1227C14.4437 15.1227 15.0781 16.2454 15.0781 16.2454C15.0781 16.2454 13.0327 19.9588 10.9873 19.9588C8.94189 19.9588 6.89648 16.2454 6.89648 16.2454Z" fill="#2E42A5"/>
</g>
</g>
</g>
<rect width="32" height="24" fill="url(#paint0_linear_230_23581)" style="mix-blend-mode:overlay"/>
</g>
<rect x="0.5" y="0.5" width="31" height="23" rx="1.5" stroke="black" stroke-opacity="0.1"/>
<defs>
<linearGradient id="paint0_linear_230_23581" x1="16" y1="0" x2="16" y2="24" gradientUnits="userSpaceOnUse">
<stop stop-color="white" stop-opacity="0.7"/>
<stop offset="1" stop-opacity="0.3"/>
</linearGradient>
<clipPath id="clip0_230_23581">
<rect width="32" height="24" rx="2" fill="white"/>
</clipPath>
</defs>
</svg>
