<svg width="32" height="24" viewBox="0 0 32 24" fill="none" xmlns="http://www.w3.org/2000/svg">
<g clip-path="url(#clip0_230_25183)">
<mask id="mask0_230_25183" style="mask-type:luminance" maskUnits="userSpaceOnUse" x="0" y="0" width="32" height="24">
<rect width="32" height="24" fill="white"/>
</mask>
<g mask="url(#mask0_230_25183)">
<path fill-rule="evenodd" clip-rule="evenodd" d="M0 18H32V24H0V18Z" fill="#55BA07"/>
<path fill-rule="evenodd" clip-rule="evenodd" d="M0 6H32V18H0V6Z" fill="#1D1D1D"/>
<path fill-rule="evenodd" clip-rule="evenodd" d="M0 0H32V6H0V0Z" fill="#E11C1B"/>
<path fill-rule="evenodd" clip-rule="evenodd" d="M15.7966 15.0659C14.0045 14.6955 13.5396 13.7578 13.5588 12.3114C13.5588 10.7808 14.3647 9.23167 15.7784 9.06231C17.192 8.89295 18.3498 9.42027 18.9567 10.1561C18.4491 8.15862 16.7675 7.94015 15.4765 7.94015C13.5327 7.92316 11.5391 9.4002 11.5391 12.1787C11.5391 14.5994 13.2963 16.4194 15.5326 16.4644C18.3284 16.4644 18.7659 14.5338 18.8463 13.8761C18.6846 13.9921 18.5342 14.1305 18.3798 14.2727C17.8177 14.7902 17.2025 15.3565 15.7966 15.0659ZM20.2621 11.2912L18.9382 11.7078L20.4208 12.2879L20.2144 13.8419L21.2191 12.7726L22.677 13.0728L21.6919 11.921L22.564 10.744L21.3464 11.0009L20.4861 10.0287L20.2621 11.2912Z" fill="white"/>
</g>
<rect width="32" height="24" fill="url(#paint0_linear_230_25183)" style="mix-blend-mode:overlay"/>
</g>
<rect x="0.5" y="0.5" width="31" height="23" rx="1.5" stroke="black" stroke-opacity="0.1"/>
<defs>
<linearGradient id="paint0_linear_230_25183" x1="16" y1="0" x2="16" y2="24" gradientUnits="userSpaceOnUse">
<stop stop-color="white" stop-opacity="0.7"/>
<stop offset="1" stop-opacity="0.3"/>
</linearGradient>
<clipPath id="clip0_230_25183">
<rect width="32" height="24" rx="2" fill="white"/>
</clipPath>
</defs>
</svg>
