<svg width="32" height="24" viewBox="0 0 32 24" fill="none" xmlns="http://www.w3.org/2000/svg">
<g clip-path="url(#clip0_230_24718)">
<mask id="mask0_230_24718" style="mask-type:luminance" maskUnits="userSpaceOnUse" x="0" y="0" width="32" height="24">
<rect width="32" height="24" fill="white"/>
</mask>
<g mask="url(#mask0_230_24718)">
<path fill-rule="evenodd" clip-rule="evenodd" d="M0 0V24H32V0H0Z" fill="#009933"/>
<mask id="mask1_230_24718" style="mask-type:luminance" maskUnits="userSpaceOnUse" x="0" y="0" width="32" height="24">
<path fill-rule="evenodd" clip-rule="evenodd" d="M0 0V24H32V0H0Z" fill="white"/>
</mask>
<g mask="url(#mask1_230_24718)">
<path fill-rule="evenodd" clip-rule="evenodd" d="M0 0V24L32 0H0Z" fill="#3195F9"/>
<path d="M-1.01174 27.0936L-0.481183 28.0548L0.426451 27.437L35.2583 3.72766L35.9604 3.24976L35.6025 2.47955L33.2606 -2.55963L32.7694 -3.61671L31.7993 -2.97039L-3.55643 20.5861L-4.32197 21.0962L-3.87745 21.9015L-1.01174 27.0936Z" fill="#E31D1C" stroke="#F7FCFF" stroke-width="2"/>
<path fill-rule="evenodd" clip-rule="evenodd" d="M6.23002 9.2447L4.93592 10.8592L4.62246 8.81396L2.69449 9.56511L3.44564 7.63714L1.40039 7.32368L3.0149 6.02958L1.40039 4.73549L3.44564 4.42202L2.69449 2.49405L4.62246 3.2452L4.93592 1.19995L6.23002 2.81446L7.52411 1.19995L7.83758 3.2452L9.76555 2.49405L9.0144 4.42202L11.0596 4.73549L9.44514 6.02958L11.0596 7.32368L9.0144 7.63714L9.76555 9.56511L7.83758 8.81396L7.52411 10.8592L6.23002 9.2447ZM6.23002 8.52958C7.61073 8.52958 8.73002 7.41029 8.73002 6.02958C8.73002 4.64887 7.61073 3.52958 6.23002 3.52958C4.84931 3.52958 3.73002 4.64887 3.73002 6.02958C3.73002 7.41029 4.84931 8.52958 6.23002 8.52958ZM8.23002 6.02958C8.23002 7.13415 7.33459 8.02958 6.23002 8.02958C5.12545 8.02958 4.23002 7.13415 4.23002 6.02958C4.23002 4.92501 5.12545 4.02958 6.23002 4.02958C7.33459 4.02958 8.23002 4.92501 8.23002 6.02958Z" fill="#FECA00"/>
</g>
</g>
<rect width="32" height="24" fill="url(#paint0_linear_230_24718)" style="mix-blend-mode:overlay"/>
</g>
<rect x="0.5" y="0.5" width="31" height="23" rx="1.5" stroke="black" stroke-opacity="0.1"/>
<defs>
<linearGradient id="paint0_linear_230_24718" x1="16" y1="0" x2="16" y2="24" gradientUnits="userSpaceOnUse">
<stop stop-color="white" stop-opacity="0.7"/>
<stop offset="1" stop-opacity="0.3"/>
</linearGradient>
<clipPath id="clip0_230_24718">
<rect width="32" height="24" rx="2" fill="white"/>
</clipPath>
</defs>
</svg>
