<svg width="32" height="24" viewBox="0 0 32 24" fill="none" xmlns="http://www.w3.org/2000/svg">
<g clip-path="url(#clip0_230_26234)">
<mask id="mask0_230_26234" style="mask-type:luminance" maskUnits="userSpaceOnUse" x="0" y="0" width="32" height="24">
<rect width="32" height="24" fill="white"/>
</mask>
<g mask="url(#mask0_230_26234)">
<path fill-rule="evenodd" clip-rule="evenodd" d="M0 0V24H32V0H0Z" fill="#F7FCFF"/>
<mask id="mask1_230_26234" style="mask-type:luminance" maskUnits="userSpaceOnUse" x="0" y="0" width="32" height="24">
<path fill-rule="evenodd" clip-rule="evenodd" d="M0 0V24H32V0H0Z" fill="white"/>
</mask>
<g mask="url(#mask1_230_26234)">
<path fill-rule="evenodd" clip-rule="evenodd" d="M0 0V8H32V0H0Z" fill="#E31D1C"/>
<path fill-rule="evenodd" clip-rule="evenodd" d="M0 16V24H32V16H0Z" fill="#3D58DB"/>
<rect x="10.0762" y="6.39734" width="11.4" height="4" fill="#E31D1C"/>
<path d="M10.6513 8.95984H20.7799C20.797 9.7288 20.8021 11.0702 20.802 12.3615C20.802 13.1955 20.7998 13.9983 20.7976 14.5927C20.7965 14.8899 20.7954 15.135 20.7946 15.3057L20.7936 15.5033L20.7934 15.5318C20.7933 15.5329 20.7931 15.5339 20.7929 15.535C20.7885 15.5616 20.781 15.6035 20.7695 15.6584C20.7465 15.7685 20.7077 15.9301 20.646 16.126C20.5222 16.5193 20.3092 17.0408 19.9543 17.5589C19.2599 18.5728 17.999 19.6153 15.6489 19.6153C13.302 19.6153 12.1021 18.5742 11.4634 17.5701C11.1355 17.0544 10.9482 16.5347 10.8434 16.1417C10.7912 15.9462 10.7602 15.7847 10.7425 15.6748C10.7336 15.6198 10.7281 15.578 10.725 15.5514C10.7242 15.545 10.7236 15.5395 10.7231 15.5349L10.7225 15.4902L10.7201 15.2939L10.7117 14.5853C10.7046 13.9944 10.6953 13.1958 10.6859 12.3648C10.6716 11.095 10.6573 9.75337 10.6513 8.95984ZM10.7214 15.5186C10.7214 15.5183 10.7214 15.5183 10.7214 15.5185L10.7214 15.5186Z" fill="#F7FCFF" stroke="#E31D1C" stroke-width="1.125"/>
<mask id="mask2_230_26234" style="mask-type:luminance" maskUnits="userSpaceOnUse" x="10" y="8" width="12" height="13">
<path d="M10.6513 8.95984H20.7799C20.797 9.7288 20.8021 11.0702 20.802 12.3615C20.802 13.1955 20.7998 13.9983 20.7976 14.5927C20.7965 14.8899 20.7954 15.135 20.7946 15.3057L20.7936 15.5033L20.7934 15.5318C20.7933 15.5329 20.7931 15.5339 20.7929 15.535C20.7885 15.5616 20.781 15.6035 20.7695 15.6584C20.7465 15.7685 20.7077 15.9301 20.646 16.126C20.5222 16.5193 20.3092 17.0408 19.9543 17.5589C19.2599 18.5728 17.999 19.6153 15.6489 19.6153C13.302 19.6153 12.1021 18.5742 11.4634 17.5701C11.1355 17.0544 10.9482 16.5347 10.8434 16.1417C10.7912 15.9462 10.7602 15.7847 10.7425 15.6748C10.7336 15.6198 10.7281 15.578 10.725 15.5514C10.7242 15.545 10.7236 15.5395 10.7231 15.5349L10.7225 15.4902L10.7201 15.2939L10.7117 14.5853C10.7046 13.9944 10.6953 13.1958 10.6859 12.3648C10.6716 11.095 10.6573 9.75337 10.6513 8.95984ZM10.7214 15.5186C10.7214 15.5183 10.7214 15.5183 10.7214 15.5185L10.7214 15.5186Z" fill="white" stroke="white" stroke-width="1.125"/>
</mask>
<g mask="url(#mask2_230_26234)">
<path fill-rule="evenodd" clip-rule="evenodd" d="M10.498 9.03992H12.6074V11.1818H10.498V9.03992ZM14.7168 11.1818H12.6074V13.3237H10.498V15.4656H12.6074V17.6075H10.498V19.7494H12.6074V17.6075H14.7168V19.7494H16.8262V17.6075H18.9355V19.7494H21.0449V17.6075H18.9355V15.4656H21.0449V13.3237H18.9355V11.1818H21.0449V9.03992H18.9355V11.1818H16.8262V9.03992H14.7168V11.1818ZM14.7168 13.3237V11.1818H16.8262V13.3237H14.7168ZM14.7168 15.4656V13.3237H12.6074V15.4656H14.7168ZM16.8262 15.4656V17.6075H14.7168V15.4656H16.8262ZM16.8262 15.4656V13.3237H18.9355V15.4656H16.8262Z" fill="#F50100"/>
</g>
<path fill-rule="evenodd" clip-rule="evenodd" d="M10.4527 8.16267C10.4527 8.16267 11.1051 7.81418 11.6616 7.63458C12.2181 7.45498 12.6579 7.35685 12.6579 7.35685L11.83 4.30476L10.1716 3.68518L9.23242 5.23328L10.4527 8.16267Z" fill="#56C6F5" stroke="white" stroke-width="0.5"/>
<path d="M10.1816 6.49082L10.3722 6.39896C10.569 6.81988 10.8284 6.94989 11.1839 6.81721C11.5471 6.68167 11.6951 6.42538 11.6429 6.01907L11.8521 5.99133C11.9169 6.4957 11.7135 6.84775 11.2567 7.01825C10.7922 7.19159 10.4227 7.00638 10.1816 6.49082Z" fill="white"/>
<path fill-rule="evenodd" clip-rule="evenodd" d="M10.6318 5.54189L10.4496 5.65224C10.4093 5.67666 10.3592 5.64157 10.3684 5.59534L10.4097 5.3864L10.2231 5.28381C10.1818 5.26111 10.1871 5.20015 10.2317 5.18497L10.4334 5.11635L10.4289 4.9034C10.4279 4.85628 10.4834 4.83042 10.5188 4.86147L10.6791 5.00178L10.8612 4.89142C10.9015 4.867 10.9517 4.9021 10.9425 4.94833L10.9011 5.15727L11.0878 5.25986C11.1291 5.28256 11.1238 5.34352 11.0791 5.3587L10.8775 5.42732L10.882 5.64027C10.883 5.68739 10.8275 5.71325 10.7921 5.6822L10.6318 5.54189Z" fill="#FECA00"/>
<path fill-rule="evenodd" clip-rule="evenodd" d="M14.5408 7.07581C14.5408 7.07581 15.0972 7.02616 15.6818 7.03752C16.2665 7.04887 16.7611 7.05303 16.7611 7.05303L17.0466 4.04355L15.7943 2.91216L14.4022 4.07014L14.5408 7.07581Z" fill="#56C6F5" stroke="white" stroke-width="0.5"/>
<path fill-rule="evenodd" clip-rule="evenodd" d="M15.7516 6.58481C16.2339 6.58481 16.2801 6.06385 16.2801 5.70897C16.1568 5.51213 16.1816 5.37128 15.7863 5.37128C15.3909 5.37128 15.3458 5.49074 15.2305 5.70897C15.2305 6.06385 15.2692 6.58481 15.7516 6.58481Z" fill="#FECA00"/>
<path fill-rule="evenodd" clip-rule="evenodd" d="M16.2926 5.11289C16.7749 5.11289 16.8211 4.59192 16.8211 4.23704C16.6978 4.04021 16.7226 3.89935 16.3273 3.89935C15.932 3.89935 15.8868 4.01882 15.7715 4.23704C15.7715 4.59192 15.8102 5.11289 16.2926 5.11289Z" fill="#FECA00"/>
<path fill-rule="evenodd" clip-rule="evenodd" d="M15.2379 5.11289C15.7202 5.11289 15.7664 4.59192 15.7664 4.23704C15.6431 4.04021 15.668 3.89935 15.2726 3.89935C14.8773 3.89935 14.8321 4.01882 14.7168 4.23704C14.7168 4.59192 14.7556 5.11289 15.2379 5.11289Z" fill="#FECA00"/>
<path d="M12.4449 7.6049L12.3728 7.3602L11.5063 4.41646L11.4652 4.27696L11.5662 4.1723L12.8046 2.88839L12.954 2.73358L13.1293 2.85812L14.4921 3.82593L14.5864 3.89295L14.5964 4.00827L14.8486 6.93269L14.8711 7.19323L14.6098 7.20396L14.6098 7.20396L14.6098 7.20396L14.6096 7.20397L14.6085 7.20402L14.604 7.20421L14.586 7.20501L14.5182 7.20831C14.4602 7.21128 14.3788 7.21579 14.2856 7.22196C14.0976 7.2344 13.8666 7.25324 13.6814 7.27898C13.5044 7.30356 13.2594 7.36424 13.0504 7.42177C12.9477 7.45005 12.8567 7.47671 12.7915 7.49629C12.7589 7.50607 12.7328 7.51406 12.715 7.51958L12.6946 7.52589L12.6896 7.52749L12.6883 7.52787L12.6881 7.52795L12.6881 7.52796L12.4449 7.6049ZM12.4449 7.6049L12.688 7.52797L12.4449 7.6049Z" fill="#2E42A5" stroke="white" stroke-width="0.5"/>
<mask id="mask3_230_26234" style="mask-type:luminance" maskUnits="userSpaceOnUse" x="11" y="2" width="5" height="6">
<path d="M12.4449 7.6049L12.3728 7.3602L11.5063 4.41646L11.4652 4.27696L11.5662 4.1723L12.8046 2.88839L12.954 2.73358L13.1293 2.85812L14.4921 3.82593L14.5864 3.89295L14.5964 4.00827L14.8486 6.93269L14.8711 7.19323L14.6098 7.20396L14.6098 7.20396L14.6098 7.20396L14.6096 7.20397L14.6085 7.20402L14.604 7.20421L14.586 7.20501L14.5182 7.20831C14.4602 7.21128 14.3788 7.21579 14.2856 7.22196C14.0976 7.2344 13.8666 7.25324 13.6814 7.27898C13.5044 7.30356 13.2594 7.36424 13.0504 7.42177C12.9477 7.45005 12.8567 7.47671 12.7915 7.49629C12.7589 7.50607 12.7328 7.51406 12.715 7.51958L12.6946 7.52589L12.6896 7.52749L12.6883 7.52787L12.6881 7.52795L12.6881 7.52796L12.4449 7.6049ZM12.4449 7.6049L12.688 7.52797L12.4449 7.6049Z" fill="white" stroke="white" stroke-width="0.5"/>
</mask>
<g mask="url(#mask3_230_26234)">
<path d="M12.436 6.6379L12.1855 6.04782C12.7236 5.81233 13.6324 5.66783 14.5888 5.61133L14.6255 6.25281C13.7364 6.30534 12.8954 6.43682 12.436 6.6379Z" fill="#C51918"/>
<path d="M12.0142 5.21048L11.7637 4.6204C12.3017 4.3849 13.4581 4.19426 14.4145 4.13776L14.4512 4.77924C13.5621 4.83177 12.4736 5.00939 12.0142 5.21048Z" fill="#C51918"/>
</g>
<path d="M18.9694 7.60666L19.0374 7.35474L19.8332 4.40616L19.8689 4.27375L19.7764 4.17246L18.6087 2.89339L18.4596 2.73008L18.2793 2.85812L16.9166 3.82593L16.8223 3.89295L16.8123 4.00827L16.56 6.93269L16.5376 7.19323L16.7988 7.20396L16.7988 7.20396L16.7989 7.20396L16.7991 7.20397L16.8002 7.20402L16.8047 7.20421L16.8227 7.20501L16.8905 7.20831C16.9485 7.21128 17.0298 7.21579 17.1231 7.22196C17.3111 7.2344 17.5421 7.25324 17.7273 7.27898C17.9042 7.30356 18.1493 7.36424 18.3583 7.42177C18.461 7.45005 18.552 7.47671 18.6172 7.49629C18.6498 7.50607 18.6759 7.51406 18.6937 7.51958L18.714 7.52589L18.7191 7.52749L18.7203 7.52787L18.7206 7.52795L18.7206 7.52796L18.9694 7.60666ZM18.9694 7.60666L18.7206 7.52797L18.9694 7.60666Z" fill="#2E42A5" stroke="white" stroke-width="0.5"/>
<mask id="mask4_230_26234" style="mask-type:luminance" maskUnits="userSpaceOnUse" x="16" y="2" width="5" height="6">
<path d="M18.9694 7.60666L19.0374 7.35474L19.8332 4.40616L19.8689 4.27375L19.7764 4.17246L18.6087 2.89339L18.4596 2.73008L18.2793 2.85812L16.9166 3.82593L16.8223 3.89295L16.8123 4.00827L16.56 6.93269L16.5376 7.19323L16.7988 7.20396L16.7988 7.20396L16.7989 7.20396L16.7991 7.20397L16.8002 7.20402L16.8047 7.20421L16.8227 7.20501L16.8905 7.20831C16.9485 7.21128 17.0298 7.21579 17.1231 7.22196C17.3111 7.2344 17.5421 7.25324 17.7273 7.27898C17.9042 7.30356 18.1493 7.36424 18.3583 7.42177C18.461 7.45005 18.552 7.47671 18.6172 7.49629C18.6498 7.50607 18.6759 7.51406 18.6937 7.51958L18.714 7.52589L18.7191 7.52749L18.7203 7.52787L18.7206 7.52795L18.7206 7.52796L18.9694 7.60666ZM18.9694 7.60666L18.7206 7.52797L18.9694 7.60666Z" fill="white" stroke="white" stroke-width="0.5"/>
</mask>
<g mask="url(#mask4_230_26234)">
<path fill-rule="evenodd" clip-rule="evenodd" d="M18.3972 6.46654C18.3972 6.46654 18.6912 6.30291 18.7336 6.02703C18.776 5.75115 19.2307 5.41135 19.0033 5.45179C18.776 5.49224 18.906 5.52383 18.5767 5.45179C18.2475 5.37976 17.8214 5.33212 17.8214 5.12973C17.8214 4.92735 18.0332 4.76671 17.8601 4.76671C17.6869 4.76671 17.3176 4.57516 17.3917 4.72157C17.4659 4.86798 17.2211 4.70243 17.3435 5.0064C17.4659 5.31036 17.3176 5.61658 17.3917 5.69716C17.4659 5.77773 17.3435 6.17292 17.3435 6.17292C17.3435 6.17292 17.3885 6.3197 17.4671 6.09986C17.5458 5.88001 17.7179 5.72591 17.6318 5.91288C17.5458 6.09986 17.436 6.54458 17.5339 6.46654C17.6318 6.3885 17.7292 6.17268 17.7292 6.09986C17.7292 6.02703 17.9763 5.74117 17.9763 5.95705C17.9763 6.17292 17.7438 6.34293 17.8601 6.34293C17.9763 6.34293 18.0415 6.3888 18.1145 6.17292C18.1876 5.95705 18.3651 5.81424 18.4379 5.95705C18.5107 6.09986 18.4946 6.09223 18.3972 6.27938C18.2999 6.46654 18.3972 6.46654 18.3972 6.46654Z" fill="#FECA00"/>
<path fill-rule="evenodd" clip-rule="evenodd" d="M17.7069 4.86656L17.5974 4.68346C17.7938 4.56244 17.9741 4.53019 18.1325 4.59766C18.2045 4.62834 18.2587 4.66329 18.4001 4.76274L18.4186 4.77572C18.5658 4.87897 18.6438 4.92103 18.6917 4.92103V5.13522C18.5819 5.13522 18.4869 5.08396 18.2987 4.95196L18.28 4.93881C18.1528 4.8493 18.1036 4.81764 18.0509 4.79517C17.9633 4.75785 17.8506 4.778 17.7069 4.86656ZM17.3605 6.2635C17.4227 6.2635 17.473 6.21376 17.473 6.15239C17.473 6.09103 17.4227 6.04128 17.3605 6.04128C17.2984 6.04128 17.248 6.09103 17.248 6.15239C17.248 6.21376 17.2984 6.2635 17.3605 6.2635ZM17.684 6.36658C17.684 6.42795 17.6336 6.47769 17.5715 6.47769C17.5094 6.47769 17.459 6.42795 17.459 6.36658C17.459 6.30522 17.5094 6.25547 17.5715 6.25547C17.6336 6.25547 17.684 6.30522 17.684 6.36658ZM17.9504 6.46943C18.0125 6.46943 18.0629 6.41969 18.0629 6.35832C18.0629 6.29696 18.0125 6.24721 17.9504 6.24721C17.8883 6.24721 17.8379 6.29696 17.8379 6.35832C17.8379 6.41969 17.8883 6.46943 17.9504 6.46943ZM18.4154 6.53614C18.4154 6.5975 18.365 6.64725 18.3029 6.64725C18.2407 6.64725 18.1904 6.5975 18.1904 6.53614C18.1904 6.47477 18.2407 6.42503 18.3029 6.42503C18.365 6.42503 18.4154 6.47477 18.4154 6.53614Z" fill="#C51918"/>
</g>
<path d="M21.3524 8.18599L21.2444 8.43473L21.0053 8.30699L21.0053 8.30699L21.0052 8.30698L21.005 8.30685L21.0039 8.30623L20.9988 8.30355L20.9782 8.29276C20.9601 8.28327 20.9332 8.26939 20.8992 8.25211C20.8311 8.21752 20.7344 8.16947 20.6207 8.11594C20.3917 8.00806 20.1006 7.88125 19.8373 7.79629C19.5645 7.70825 19.3201 7.64011 19.144 7.59401C19.056 7.57099 18.9852 7.55351 18.9368 7.54186L18.8814 7.52878L18.8675 7.52558L18.8642 7.52483L18.8635 7.52467L18.8634 7.52465L18.8633 7.52464L18.8633 7.52464L18.8633 7.52464L18.6049 7.46699L18.6773 7.21228L19.5233 4.2364L19.5579 4.11481L19.6763 4.07057L21.3346 3.45099L21.5285 3.37855L21.6359 3.55551L22.5751 5.10361L22.6421 5.21418L22.5907 5.33281L21.3524 8.18599Z" fill="#56C6F5" stroke="white" stroke-width="0.5"/>
<mask id="mask5_230_26234" style="mask-type:luminance" maskUnits="userSpaceOnUse" x="18" y="3" width="5" height="6">
<path d="M21.3524 8.18599L21.2444 8.43473L21.0053 8.30699L21.0053 8.30699L21.0052 8.30698L21.005 8.30685L21.0039 8.30623L20.9988 8.30355L20.9782 8.29276C20.9601 8.28327 20.9332 8.26939 20.8992 8.25211C20.8311 8.21752 20.7344 8.16947 20.6207 8.11594C20.3917 8.00806 20.1006 7.88125 19.8373 7.79629C19.5645 7.70825 19.3201 7.64011 19.144 7.59401C19.056 7.57099 18.9852 7.55351 18.9368 7.54186L18.8814 7.52878L18.8675 7.52558L18.8642 7.52483L18.8635 7.52467L18.8634 7.52465L18.8633 7.52464L18.8633 7.52464L18.8633 7.52464L18.6049 7.46699L18.6773 7.21228L19.5233 4.2364L19.5579 4.11481L19.6763 4.07057L21.3346 3.45099L21.5285 3.37855L21.6359 3.55551L22.5751 5.10361L22.6421 5.21418L22.5907 5.33281L21.3524 8.18599Z" fill="white" stroke="white" stroke-width="0.5"/>
</mask>
<g mask="url(#mask5_230_26234)">
<path fill-rule="evenodd" clip-rule="evenodd" d="M21.1281 5.08918L20.9862 5.24798C20.9548 5.28312 20.8966 5.26421 20.8918 5.21732L20.8703 5.00541L20.6618 4.96187C20.6157 4.95224 20.603 4.89239 20.6412 4.86483L20.814 4.74025L20.7474 4.53791C20.7327 4.49314 20.7782 4.4522 20.8211 4.47153L21.0154 4.55886L21.1574 4.40006C21.1888 4.36492 21.247 4.38383 21.2517 4.43072L21.2732 4.64263L21.4817 4.68616C21.5279 4.6958 21.5406 4.75565 21.5024 4.78321L21.3296 4.90779L21.3961 5.11012C21.4109 5.15489 21.3654 5.19584 21.3224 5.17651L21.1281 5.08918Z" fill="#FECA00"/>
<path d="M18.9961 6.48767L19.2085 5.65851C20.1493 5.90701 21.13 6.22549 21.8494 6.53347L21.5216 7.32294C20.842 7.032 19.8995 6.72629 18.9961 6.48767Z" fill="#E31D1C"/>
<path d="M19.2832 5.72198L19.3333 5.51392C20.2352 5.73773 21.1938 6.09486 21.8904 6.42748L21.8006 6.62131C21.1174 6.29508 20.172 5.94256 19.2832 5.72198Z" fill="white"/>
<path d="M19.0156 6.57654L19.0657 6.36847C19.9676 6.59229 20.8012 6.89598 21.4978 7.22861L21.4081 7.42243C20.7248 7.0962 19.9045 6.79711 19.0156 6.57654Z" fill="white"/>
<path d="M19.4238 6.17504L19.617 6.08783C19.6983 6.27814 19.7987 6.32007 19.9666 6.2385C20.3631 6.04584 21.3467 6.31507 21.3467 6.67811C21.3467 6.81974 21.2646 6.9056 21.1393 6.90063C21.0685 6.89782 20.993 6.86987 20.8823 6.81511C20.8688 6.80847 20.86 6.80402 20.8382 6.79295C20.7157 6.73048 20.7065 6.72592 20.6739 6.71418L20.7437 6.50952C20.7888 6.5258 20.7959 6.52929 20.932 6.59867C20.9529 6.60933 20.9611 6.61346 20.9737 6.61966C21.0586 6.66164 21.1153 6.68265 21.1474 6.68392C21.1504 6.68404 21.1358 6.69934 21.1358 6.67811C21.1358 6.51838 20.3352 6.29925 20.0567 6.43457C19.7789 6.56953 19.5519 6.47472 19.4238 6.17504Z" fill="#272727"/>
</g>
</g>
</g>
<rect width="32" height="24" fill="url(#paint0_linear_230_26234)" style="mix-blend-mode:overlay"/>
</g>
<rect x="0.5" y="0.5" width="31" height="23" rx="1.5" stroke="black" stroke-opacity="0.1"/>
<defs>
<linearGradient id="paint0_linear_230_26234" x1="16" y1="0" x2="16" y2="24" gradientUnits="userSpaceOnUse">
<stop stop-color="white" stop-opacity="0.7"/>
<stop offset="1" stop-opacity="0.3"/>
</linearGradient>
<clipPath id="clip0_230_26234">
<rect width="32" height="24" rx="2" fill="white"/>
</clipPath>
</defs>
</svg>
