<svg width="32" height="24" viewBox="0 0 32 24" fill="none" xmlns="http://www.w3.org/2000/svg">
<g clip-path="url(#clip0_230_22379)">
<mask id="mask0_230_22379" style="mask-type:luminance" maskUnits="userSpaceOnUse" x="0" y="0" width="32" height="24">
<rect width="32" height="24" fill="white"/>
</mask>
<g mask="url(#mask0_230_22379)">
<path fill-rule="evenodd" clip-rule="evenodd" d="M0 0V24H32V0H0Z" fill="#F7FCFF"/>
<mask id="mask1_230_22379" style="mask-type:luminance" maskUnits="userSpaceOnUse" x="0" y="0" width="32" height="24">
<path fill-rule="evenodd" clip-rule="evenodd" d="M0 0V24H32V0H0Z" fill="white"/>
</mask>
<g mask="url(#mask1_230_22379)">
<path fill-rule="evenodd" clip-rule="evenodd" d="M17.6017 8.21483C17.8437 8.35253 17.9888 8.70507 17.9888 8.70507H13.9009L14.1831 8.21483C14.1831 8.21483 13.9009 8.08673 14.0428 8.08673C14.1848 8.08673 14.5897 7.51861 14.5897 7.51861H14.4208C14.4208 7.51861 14.3339 7.37728 14.5897 7.37728C14.8456 7.37728 15.0499 6.46282 15.0499 6.46282C15.0499 6.46282 15.2178 6.03497 14.8069 5.92699C14.396 5.81901 13.9009 6.28467 13.9009 6.28467C13.9009 6.28467 14.0216 5.53967 14.1831 5.3783C14.2581 5.30331 14.3981 5.29139 14.5265 5.28046C14.6744 5.26786 14.8069 5.25658 14.8069 5.15175C14.8069 4.9559 15.288 4.80322 16.0744 4.80322C16.8608 4.80322 17.1465 5.74248 17.1465 5.92699C17.1465 6.1115 17.4154 7.0922 17.4154 7.0922C17.4154 7.0922 17.1465 7.0922 17.1465 7.21871C17.1465 7.34522 17.9888 7.89194 17.9888 7.89194C17.9888 7.89194 17.3598 8.07713 17.6017 8.21483ZM2.77644 4.86953C3.09008 4.73495 6.27738 5.68474 8.66495 6.39622L8.66498 6.39622L8.665 6.39623L8.66501 6.39623C10.038 6.80536 11.1465 7.13569 11.292 7.13569C11.6906 7.13569 12.4404 8.10079 12.0655 8.50701C11.6906 8.91323 11.5637 9.15062 11.8146 9.15062C12.0655 9.15062 13.3309 8.82223 13.3309 8.82223V12.594C13.3309 12.594 12.1182 12.8818 11.8146 12.594C11.6676 12.4546 11.4434 12.4462 11.2513 12.4391C11.0466 12.4314 10.8783 12.4251 10.8783 12.2634C10.8783 11.9497 10.1795 11.9004 10.1795 11.9004C10.1795 11.9004 9.53284 11.6872 9.53284 11.4865C9.53284 11.2859 9.10966 10.7188 9.10966 10.7188C9.10966 10.7188 7.49688 9.80571 6.12562 8.80372C5.8486 8.60129 5.57482 8.41058 5.3127 8.22798C4.27733 7.50675 3.42382 6.91219 3.27044 6.22299C2.55427 5.5138 2.28244 5.0815 2.77644 4.86953ZM12.843 12.8319C12.843 12.8319 12.3 13.206 11.6993 14.2079C11.4037 14.7008 11.3799 15.1349 11.3627 15.4489C11.345 15.7731 11.3342 15.9692 11.0384 15.9692C10.6931 15.9692 10.4426 16.0438 10.2387 16.1046C10.0988 16.1464 9.98083 16.1815 9.86927 16.1815C9.59513 16.1815 9.06876 17.2164 9.33194 17.4558C9.59513 17.6953 10.6979 18.077 10.6979 17.4558C10.6979 16.8347 10.9945 16.4818 11.5334 16.4818C12.0723 16.4818 13.0356 16.1249 13.0356 15.342C13.0356 14.559 14.086 14.6149 14.086 14.6149L12.843 12.8319ZM23.5605 6.39622C25.9481 5.68474 29.1354 4.73495 29.449 4.86953C29.943 5.0815 29.6712 5.5138 28.955 6.22299C28.8016 6.91219 27.9481 7.50674 26.9128 8.22798C26.6506 8.41058 26.3769 8.60129 26.0998 8.80372C24.7286 9.80571 23.1158 10.7188 23.1158 10.7188C23.1158 10.7188 22.6926 11.2859 22.6926 11.4865C22.6926 11.6872 22.046 11.9004 22.046 11.9004C22.046 11.9004 21.3472 11.9497 21.3472 12.2634C21.3472 12.4251 21.1789 12.4314 20.9742 12.4391C20.782 12.4462 20.5578 12.4546 20.4109 12.594C20.1073 12.8818 18.8946 12.594 18.8946 12.594V8.82223C18.8946 8.82223 20.16 9.15062 20.4109 9.15062C20.6617 9.15062 20.5349 8.91323 20.16 8.50701C19.785 8.10079 20.5349 7.13569 20.9335 7.13569C21.079 7.13569 22.1874 6.80539 23.5603 6.39629L23.5603 6.39627L23.5605 6.39622L23.5605 6.39622ZM19.3824 12.8319C19.3824 12.8319 19.9254 13.206 20.5262 14.2079C20.8217 14.7008 20.8455 15.1349 20.8627 15.4489C20.8805 15.7731 20.8912 15.9692 21.187 15.9692C21.5323 15.9692 21.7829 16.0438 21.9868 16.1046C22.1267 16.1464 22.2446 16.1815 22.3562 16.1815C22.6303 16.1815 23.1567 17.2164 22.8935 17.4558C22.6303 17.6953 21.5276 18.077 21.5276 17.4558C21.5276 16.8347 21.231 16.4818 20.6921 16.4818C20.1531 16.4818 19.1898 16.1249 19.1898 15.342C19.1898 14.559 18.1395 14.6149 18.1395 14.6149L19.3824 12.8319ZM13.5402 15.4423C13.5402 15.0974 14.1497 14.8373 14.1497 14.8373L15.9844 14.0631C15.9844 14.0631 15.9938 14.2378 16.0079 14.5279C16.0219 14.2378 16.0313 14.0631 16.0313 14.0631L17.866 14.8373C17.866 14.8373 18.4755 15.0974 18.4755 15.4423C18.4755 15.6152 18.7348 15.9208 18.9935 16.2258L18.9935 16.2258C19.251 16.5294 19.508 16.8324 19.508 17.003C19.508 17.3039 18.812 17.9806 18.3917 18.3892C18.3344 18.445 18.2822 18.4957 18.2376 18.5398C18.1413 18.6351 18.0373 18.7531 17.9292 18.8756C17.62 19.2261 17.2779 19.6141 16.9909 19.6141C16.7891 19.6141 16.6259 19.7545 16.4696 19.8891C16.326 20.0128 16.1881 20.1315 16.0313 20.1315C16.0231 20.1315 16.0153 20.1276 16.0079 20.1202C16.0004 20.1276 15.9926 20.1315 15.9844 20.1315C15.8276 20.1315 15.6897 20.0128 15.5461 19.8891C15.3898 19.7545 15.2266 19.6141 15.0248 19.6141C14.7378 19.6141 14.3957 19.2261 14.0865 18.8756C13.9784 18.7531 13.8744 18.6351 13.7781 18.5398C13.7335 18.4957 13.6814 18.445 13.6241 18.3893L13.624 18.3892C13.2037 17.9806 12.5077 17.3039 12.5077 17.003C12.5077 16.8324 12.7647 16.5294 13.0222 16.2258C13.2809 15.9208 13.5402 15.6152 13.5402 15.4423Z" fill="#E8AA00"/>
<path fill-rule="evenodd" clip-rule="evenodd" d="M7.00893 10.6732C7.04891 11.1358 7.18046 11.4086 7.18046 11.4086C7.18046 11.4086 7.41197 11.7728 7.54328 11.7771C7.61072 11.9447 7.68419 12.1165 7.76275 12.2914C8.12311 13.2515 8.61415 14.5131 9.11704 15.6621C9.08476 15.6376 9.0381 15.6107 8.97435 15.5809C8.55367 15.3842 8.25164 15.3617 8.25164 15.3617C8.25164 15.3617 7.68776 15.3858 7.74598 15.5458C7.8042 15.7057 8.5033 16.0532 8.78716 15.9499C8.8188 15.9383 8.85094 15.9273 8.88249 15.9164C9.01306 15.8713 9.13356 15.8297 9.16695 15.7757C9.2338 15.9272 9.30078 16.0765 9.36763 16.2226C8.948 16.0267 8.64694 16.0043 8.64694 16.0043C8.64694 16.0043 8.08306 16.0284 8.14128 16.1884C8.1995 16.3483 8.8986 16.6957 9.18246 16.5924C9.2141 16.5809 9.24623 16.5698 9.27778 16.5589C9.35641 16.5318 9.43138 16.5059 9.48588 16.4779C9.9926 17.5582 10.4818 18.4207 10.831 18.6385H11.5355C11.5355 18.6385 10.9266 17.7779 10.1592 16.5731C10.3904 16.409 10.7125 16.0466 10.7125 15.8186C10.7125 15.7849 10.7131 15.751 10.7137 15.7176C10.7182 15.4516 10.722 15.2251 10.4299 15.5165C10.1012 15.8446 9.97673 16.1207 9.97673 16.1207C9.97673 16.1207 9.96177 16.168 9.94515 16.2346C9.88348 16.1363 9.82109 16.0362 9.75821 15.9345C9.98979 15.7724 10.3172 15.4059 10.3172 15.176C10.3172 15.1424 10.3178 15.1084 10.3184 15.075C10.3229 14.809 10.3267 14.5825 10.0346 14.874C9.70586 15.202 9.58144 15.4781 9.58144 15.4781C9.58144 15.4781 9.56616 15.5264 9.54934 15.594C9.46058 15.4481 9.3713 15.2997 9.28208 15.1494C9.50836 15.0299 9.92195 14.599 9.92195 14.3407C9.92195 14.307 9.92252 14.273 9.92308 14.2397C9.92756 13.9737 9.93138 13.7472 9.63929 14.0386C9.31056 14.3667 9.18614 14.6428 9.18614 14.6428C9.18614 14.6428 9.14894 14.7604 9.12671 14.8856C9.00999 14.6859 8.89394 14.4837 8.77986 14.2805C8.78335 14.281 8.78701 14.2813 8.79085 14.2813C8.96107 14.2813 9.52665 13.7432 9.52665 13.4411C9.52665 13.4074 9.52723 13.3734 9.52779 13.3401C9.53227 13.0741 9.53608 12.8476 9.244 13.139C8.91527 13.4671 8.79085 13.7432 8.79085 13.7432C8.79085 13.7432 8.70714 14.0078 8.71583 14.1659C8.55846 13.8832 8.40537 13.599 8.26002 13.3173L8.26379 13.3174C8.43401 13.3174 8.9996 12.7793 8.9996 12.4773C8.9996 12.4436 9.00017 12.4096 9.00073 12.3762C9.00521 12.1102 9.00902 11.8837 8.71694 12.1752C8.38821 12.5032 8.26379 12.7793 8.26379 12.7793C8.26379 12.7793 8.18842 13.0176 8.18814 13.177C8.03538 12.8765 7.89217 12.5797 7.76275 12.2914C7.69321 12.1062 7.62855 11.9322 7.5696 11.7723C7.57799 11.7687 7.58572 11.7628 7.59267 11.7545C7.70209 11.6241 7.65343 10.845 7.42202 10.6508C7.39623 10.6292 7.37056 10.6069 7.34536 10.585C7.14445 10.4106 6.9734 10.2621 7.00893 10.6732ZM7.79106 11.8568C7.79106 11.8568 7.81354 11.5547 8.01025 11.1341C8.18503 10.7603 8.25891 10.9744 8.34569 11.2259C8.35657 11.2575 8.36766 11.2896 8.37918 11.3212C8.48249 11.6051 8.13506 12.3042 7.9751 12.3624C7.81515 12.4206 7.79106 11.8568 7.79106 11.8568ZM8.57905 14.7456C8.15837 14.5489 7.85635 14.5264 7.85635 14.5264C7.85635 14.5264 7.29247 14.5505 7.35069 14.7104C7.40891 14.8704 8.10801 15.2178 8.39187 15.1145C8.42351 15.103 8.45565 15.0919 8.48719 15.081C8.7387 14.9943 8.95284 14.9204 8.57905 14.7456ZM7.46105 13.6268C7.46105 13.6268 7.76308 13.6493 8.18376 13.846C8.55755 14.0208 8.34341 14.0947 8.0919 14.1814C8.06035 14.1923 8.02821 14.2034 7.99657 14.2149C7.71272 14.3182 7.01361 13.9708 6.9554 13.8108C6.89718 13.6509 7.46105 13.6268 7.46105 13.6268ZM7.85435 12.9464C7.43367 12.7497 7.13164 12.7272 7.13164 12.7272C7.13164 12.7272 6.56776 12.7513 6.62598 12.9112C6.6842 13.0712 7.3833 13.4186 7.66716 13.3153C7.69875 13.3038 7.73084 13.2928 7.76235 13.2819L7.76245 13.2818L7.76249 13.2818C8.014 13.1951 8.22814 13.1212 7.85435 12.9464ZM6.97366 11.6448C6.97366 11.6448 7.24978 11.7692 7.57781 12.0979C7.86928 12.39 7.64279 12.3862 7.37677 12.3817H7.37676C7.34339 12.3811 7.3094 12.3806 7.27573 12.3806C6.97366 12.3806 6.43555 11.815 6.43555 11.6448C6.43555 11.4745 6.97366 11.6448 6.97366 11.6448Z" fill="#46A000"/>
<path fill-rule="evenodd" clip-rule="evenodd" d="M28.6901 10.3386H26.5528C26.5528 10.3386 27.0059 10.3386 27.0557 10.7763C27.0557 10.7763 27.0661 14.4703 27.0557 14.7605C27.0452 15.0507 26.5528 15.1495 26.5528 15.1495C26.5528 15.1495 29.1456 15.1574 28.6901 15.1495C28.2346 15.1415 28.1341 14.7605 28.1341 14.7605V10.7763C28.1341 10.4391 28.6901 10.3386 28.6901 10.3386ZM4.56375 14.8533C4.32183 14.2287 2.82812 10.4042 2.82812 10.4042H4.30686C4.04997 10.4042 3.95459 10.7312 3.95459 10.7312L4.99037 13.6844C4.99037 13.6844 5.99198 11.2733 5.99198 10.8457C5.99198 10.4181 5.57152 10.4042 5.57152 10.4042H7.49938L7.03363 10.5597C7.03363 10.5597 5.49104 14.0962 5.49104 14.8533C5.41754 15.0211 6.20126 15.1327 6.20126 15.1327H4.13107L4.56375 14.8533ZM22.265 13.4567L23.4107 11.3458L23.4443 13.6944L23.0895 13.5793L22.8378 15.1476L24.1048 12.718L23.683 12.5595L25.2513 10.8618L24.7171 13.1563L24.4133 12.8887L22.6167 16.241L24.622 13.9433L24.2354 13.7502L26.2157 12.4537L25.3536 14.5665L24.8726 14.2203L22.8378 16.782L21.9938 16.4574L22.8378 13.4567H22.265ZM21.6034 17.46H20.97V17.9419H20.4713L19.0588 19.5803H19.8384L20.1092 20.5029L20.4713 20.1773V20.5029L21.1793 20.1773L21.8561 20.7634L22.3613 18.5104L22.0213 18.2608L22.1959 18.1081L22.0213 17.46H21.6034Z" fill="#0093E1"/>
<path fill-rule="evenodd" clip-rule="evenodd" d="M12.3419 8.01282C12.3419 8.01282 13.2725 8.65539 14.2031 8.65539C15.1337 8.65539 16.0643 8.01282 16.0643 8.01282C16.0643 8.01282 16.9949 8.65539 17.9255 8.65539C18.8561 8.65539 19.7866 8.01282 19.7866 8.01282V10.9137C19.7866 13.9131 16.0643 16.2377 16.0643 16.2377C16.0643 16.2377 12.1617 14.1033 12.3419 10.8781V8.01282Z" fill="#F7FCFF"/>
<mask id="mask2_230_22379" style="mask-type:luminance" maskUnits="userSpaceOnUse" x="12" y="8" width="8" height="9">
<path fill-rule="evenodd" clip-rule="evenodd" d="M12.3419 8.01282C12.3419 8.01282 13.2725 8.65539 14.2031 8.65539C15.1337 8.65539 16.0643 8.01282 16.0643 8.01282C16.0643 8.01282 16.9949 8.65539 17.9255 8.65539C18.8561 8.65539 19.7866 8.01282 19.7866 8.01282V10.9137C19.7866 13.9131 16.0643 16.2377 16.0643 16.2377C16.0643 16.2377 12.1617 14.1033 12.3419 10.8781V8.01282Z" fill="white"/>
</mask>
<g mask="url(#mask2_230_22379)">
<path fill-rule="evenodd" clip-rule="evenodd" d="M12.0781 7.82007H19.9181V10.8401H12.0781V7.82007Z" fill="#2E42A5"/>
<path fill-rule="evenodd" clip-rule="evenodd" d="M13.5944 10.8401H12.9355V16.9445H13.5944V10.8401ZM14.7144 10.8401H14.0555V16.9445H14.7144V10.8401ZM15.1755 10.8401H15.8344V16.9445H15.1755V10.8401ZM16.9544 10.8401H16.2955V16.9445H16.9544V10.8401ZM17.4155 10.8401H18.0744V16.9445H17.4155V10.8401ZM19.1944 10.8401H18.5355V16.9445H19.1944V10.8401Z" fill="#AF0100"/>
</g>
</g>
</g>
<rect width="32" height="24" fill="url(#paint0_linear_230_22379)" style="mix-blend-mode:overlay"/>
</g>
<rect x="0.5" y="0.5" width="31" height="23" rx="1.5" stroke="black" stroke-opacity="0.1"/>
<defs>
<linearGradient id="paint0_linear_230_22379" x1="16" y1="0" x2="16" y2="24" gradientUnits="userSpaceOnUse">
<stop stop-color="white" stop-opacity="0.7"/>
<stop offset="1" stop-opacity="0.3"/>
</linearGradient>
<clipPath id="clip0_230_22379">
<rect width="32" height="24" rx="2" fill="white"/>
</clipPath>
</defs>
</svg>
