<svg width="32" height="24" viewBox="0 0 32 24" fill="none" xmlns="http://www.w3.org/2000/svg">
<g clip-path="url(#clip0_230_26402)">
<mask id="mask0_230_26402" style="mask-type:luminance" maskUnits="userSpaceOnUse" x="0" y="0" width="32" height="24">
<rect width="32" height="24" fill="white"/>
</mask>
<g mask="url(#mask0_230_26402)">
<path fill-rule="evenodd" clip-rule="evenodd" d="M22 0H32V24H22V0Z" fill="#58A5FF"/>
<path fill-rule="evenodd" clip-rule="evenodd" d="M0 0H12V24H0V0Z" fill="#58A5FF"/>
<path fill-rule="evenodd" clip-rule="evenodd" d="M10 0H22V24H10V0Z" fill="white"/>
<path fill-rule="evenodd" clip-rule="evenodd" d="M11.7695 15.7185L12.2913 16.4015L14.6606 13.1896V12.621L11.7695 15.7185Z" fill="#6C301F"/>
<path d="M13.4043 12.1357L13.5775 11.8971C15.8213 13.5842 17.411 14.8793 18.2998 15.9585L17.7448 16.4157C16.9 15.3899 15.6064 13.7914 13.4043 12.1357Z" fill="#979797"/>
<path d="M17.0218 10.7256L16.7637 10.4753L18.1784 9.01615L18.4884 9.31728L19.9572 7.94958L20.2022 8.2127L18.4831 9.81343L18.186 9.5248L17.0218 10.7256Z" fill="#979797"/>
<path fill-rule="evenodd" clip-rule="evenodd" d="M12.5063 8.4454C12.4308 8.11708 12.3456 7.71161 12.3456 7.71161C12.1562 8.14376 12.0965 8.53692 12.1726 8.88849C12.0921 8.9993 12.0191 9.1031 11.9538 9.19993C11.7501 8.93083 11.4959 8.42753 11.4959 8.42753C11.5048 8.57407 11.5007 8.72358 11.4968 8.86876C11.4877 9.20987 11.4792 9.52708 11.6393 9.72572L11.6374 9.72968C11.6054 9.79549 11.5752 9.86118 11.5465 9.92674C11.3258 9.70661 10.9594 9.30969 10.9594 9.30969C10.9881 9.78566 11.1198 10.1607 11.3592 10.4284C11.3158 10.5679 11.2801 10.7066 11.2518 10.8445C11.0667 10.653 10.8881 10.4638 10.8881 10.4638C10.9143 10.8982 10.987 11.1851 11.1757 11.4262C11.1719 11.4948 11.1699 11.5631 11.1698 11.6311C10.9743 11.4294 10.7754 11.2186 10.7754 11.2186C10.803 11.677 10.9817 11.9786 11.2171 12.2297C11.2405 12.3748 11.2724 12.5184 11.3127 12.6602L11.3342 12.7351C11.068 12.6065 10.7771 12.4604 10.7771 12.4604C10.9508 12.8609 11.2044 13.0816 11.4928 13.2359C11.5545 13.4153 11.6195 13.5888 11.6877 13.7558C11.3755 13.671 10.9092 13.5314 10.9092 13.5314C11.1857 13.9501 11.525 14.1164 11.8894 14.2121C11.9639 14.3677 12.0412 14.5164 12.1211 14.6575C11.8253 14.5745 11.478 14.4706 11.478 14.4706C11.7466 14.8772 12.0743 15.0458 12.4269 15.1428C12.6594 15.4734 12.9084 15.745 13.1682 15.9484C12.8819 16.0784 12.5214 16.234 12.5214 16.234C12.9285 16.355 13.2538 16.3086 13.5507 16.1939C13.5623 16.1998 13.574 16.2055 13.5857 16.2111C13.7138 16.2725 13.8573 16.3304 14.0192 16.3868C13.7844 16.4913 13.5608 16.5878 13.5608 16.5878C13.9585 16.706 14.2781 16.6645 14.5694 16.5556L14.601 16.5642C14.744 16.6032 14.8894 16.6405 15.081 16.6879C14.9543 16.6565 15.4221 16.7719 15.5172 16.7961C15.8213 16.8735 15.9946 16.9279 16.0777 16.9747C16.0854 16.9791 16.0911 16.9827 16.0947 16.985L16.0947 16.985C16.0984 16.9873 16.0999 16.9882 16.0991 16.9871L16.3318 16.8181C16.3048 16.781 16.2673 16.7514 16.2189 16.7241C16.1048 16.6598 15.9196 16.6017 15.5881 16.5174C15.4938 16.4934 15.0406 16.3816 15.1433 16.407C14.957 16.3609 14.8153 16.3245 14.6766 16.2867C14.6353 16.2755 14.5949 16.2642 14.5554 16.2531C14.5886 15.9472 14.55 15.6303 14.3415 15.2771C14.3415 15.2771 14.2508 15.8287 14.1892 16.1409C14.0052 16.0795 13.8468 16.0173 13.7099 15.9517C13.6637 15.9296 13.6176 15.9048 13.5716 15.8776C13.5532 15.5656 13.4616 15.2552 13.1905 14.9385C13.1905 14.9385 13.1946 15.2891 13.193 15.593C13.004 15.4204 12.8204 15.2058 12.6455 14.9538L12.768 15.0187C12.7815 14.6296 12.7216 14.2461 12.3849 13.8527C12.3849 13.8527 12.3893 14.232 12.3872 14.5435C12.2779 14.3526 12.1732 14.1464 12.0739 13.9262C12.1661 13.6237 12.1883 13.2977 12.0402 12.9027C12.0402 12.9027 11.9522 13.1535 11.8599 13.4066C11.8328 13.3346 11.8063 13.2615 11.7804 13.1873C11.969 12.8708 12.09 12.5202 12.0001 12.0376C12.0001 12.0376 11.7857 12.419 11.6223 12.6955C11.6112 12.6578 11.6002 12.6199 11.5893 12.5817C11.555 12.4606 11.5272 12.3382 11.5061 12.2144C11.7749 11.9867 11.9921 11.703 12.0692 11.2396C12.0692 11.2396 11.7098 11.5483 11.4594 11.753C11.4559 11.6501 11.4571 11.5464 11.4629 11.4419C11.7522 11.2662 12.0014 11.0264 12.1518 10.6005C12.1518 10.6005 11.7974 10.8106 11.5207 10.9671C11.5404 10.8625 11.5646 10.7571 11.5936 10.6512L11.594 10.6614C11.9377 10.4785 12.2399 10.2348 12.4122 9.7466C12.4122 9.7466 12.0561 9.95772 11.7792 10.1144C11.815 10.0284 11.854 9.94202 11.8961 9.85534C11.9462 9.75229 12.0172 9.62933 12.1092 9.48665C12.416 9.38944 12.7017 9.2209 12.9446 8.86671C12.9446 8.86671 12.6992 8.9355 12.4447 9.0036C12.5923 8.80265 12.7654 8.57781 12.9638 8.32938L12.7391 8.14987C12.6573 8.25224 12.5797 8.35075 12.5063 8.4454Z" fill="#5AB92D"/>
<path fill-rule="evenodd" clip-rule="evenodd" d="M19.6343 8.4454C19.7098 8.11708 19.795 7.71161 19.795 7.71161C19.9844 8.14376 20.0441 8.53692 19.968 8.88849C20.0486 8.9993 20.1215 9.1031 20.1868 9.19993C20.3905 8.93083 20.6447 8.42753 20.6447 8.42753C20.6359 8.57407 20.6399 8.72358 20.6438 8.86876C20.6529 9.20987 20.6615 9.52708 20.5013 9.72572L20.5032 9.72968C20.5352 9.79549 20.5655 9.86118 20.5941 9.92674C20.8148 9.70661 21.1812 9.30969 21.1812 9.30969C21.1525 9.78566 21.0208 10.1607 20.7815 10.4284C20.8248 10.5679 20.8605 10.7066 20.8888 10.8445C21.074 10.653 21.2525 10.4638 21.2525 10.4638C21.2263 10.8982 21.1537 11.1851 20.9649 11.4262C20.9687 11.4948 20.9707 11.5631 20.9708 11.6311C21.1664 11.4294 21.3652 11.2186 21.3652 11.2186C21.3376 11.677 21.1589 11.9786 20.9235 12.2297C20.9002 12.3748 20.8682 12.5184 20.828 12.6602L20.8065 12.7351C21.0726 12.6065 21.3635 12.4604 21.3635 12.4604C21.1899 12.8609 20.9363 13.0816 20.6478 13.2359C20.5862 13.4153 20.5211 13.5888 20.4529 13.7558C20.7652 13.671 21.2314 13.5314 21.2314 13.5314C20.9549 13.9501 20.6157 14.1164 20.2512 14.2121C20.1768 14.3677 20.0994 14.5164 20.0195 14.6575C20.3153 14.5745 20.6626 14.4706 20.6626 14.4706C20.394 14.8772 20.0663 15.0458 19.7138 15.1428C19.4812 15.4734 19.2322 15.745 18.9725 15.9484C19.2587 16.0784 19.6192 16.234 19.6192 16.234C19.2122 16.355 18.8869 16.3086 18.5899 16.1939C18.5783 16.1998 18.5666 16.2055 18.5549 16.2111C18.4268 16.2725 18.2833 16.3304 18.1214 16.3868C18.3562 16.4913 18.5798 16.5878 18.5798 16.5878C18.1822 16.706 17.8625 16.6645 17.5712 16.5556L17.5396 16.5642C17.3967 16.6032 17.2512 16.6405 17.0596 16.6879C17.1863 16.6565 16.7185 16.7719 16.6235 16.7961C16.3193 16.8735 16.1461 16.9279 16.0629 16.9747C16.0552 16.9791 16.0495 16.9827 16.0459 16.985L16.0459 16.985C16.0422 16.9873 16.0408 16.9882 16.0416 16.9871L15.8089 16.8181C15.8358 16.781 15.8733 16.7514 15.9217 16.7241C16.0359 16.6598 16.221 16.6017 16.5525 16.5174C16.6468 16.4934 17.1 16.3816 16.9974 16.407C17.1836 16.3609 17.3253 16.3245 17.464 16.2867C17.5053 16.2755 17.5457 16.2642 17.5852 16.2531C17.552 15.9472 17.5906 15.6303 17.7991 15.2771C17.7991 15.2771 17.8898 15.8287 17.9515 16.1409C18.1354 16.0795 18.2938 16.0173 18.4307 15.9517C18.4769 15.9296 18.5231 15.9048 18.569 15.8776C18.5874 15.5656 18.6791 15.2552 18.9501 14.9385C18.9501 14.9385 18.9461 15.2891 18.9476 15.593C19.1366 15.4204 19.3202 15.2058 19.4952 14.9538L19.3726 15.0187C19.3591 14.6296 19.4191 14.2461 19.7557 13.8527C19.7557 13.8527 19.7513 14.232 19.7534 14.5435C19.8627 14.3526 19.9675 14.1464 20.0667 13.9262C19.9745 13.6237 19.9523 13.2977 20.1004 12.9027C20.1004 12.9027 20.1884 13.1535 20.2808 13.4066C20.3078 13.3346 20.3343 13.2615 20.3602 13.1873C20.1717 12.8708 20.0506 12.5202 20.1406 12.0376C20.1406 12.0376 20.3549 12.419 20.5183 12.6955C20.5295 12.6578 20.5404 12.6199 20.5513 12.5817C20.5857 12.4606 20.6134 12.3382 20.6345 12.2144C20.3658 11.9867 20.1485 11.703 20.0714 11.2396C20.0714 11.2396 20.4308 11.5483 20.6812 11.753C20.6847 11.6501 20.6836 11.5464 20.6778 11.4419C20.3884 11.2662 20.1392 11.0264 19.9888 10.6005C19.9888 10.6005 20.3432 10.8106 20.6199 10.9671C20.6003 10.8625 20.576 10.7571 20.547 10.6512L20.5466 10.6614C20.2029 10.4785 19.9008 10.2348 19.7284 9.7466C19.7284 9.7466 20.0845 9.95772 20.3615 10.1144C20.3256 10.0284 20.2866 9.94202 20.2445 9.85534C20.1945 9.75229 20.1234 9.62933 20.0315 9.48665C19.7246 9.38944 19.439 9.2209 19.196 8.86671C19.196 8.86671 19.4414 8.9355 19.6959 9.0036C19.5483 8.80265 19.3752 8.57781 19.1768 8.32938L19.4015 8.14987C19.4833 8.25224 19.5609 8.35075 19.6343 8.4454Z" fill="#5AB92D"/>
<path fill-rule="evenodd" clip-rule="evenodd" d="M13.418 9.32297L14.6251 12.5222H13.7378C13.7378 12.5222 13.418 13.5318 14.0215 13.5318C14.6251 13.5318 17.7356 13.5318 17.7356 13.5318C17.7356 13.5318 18.1399 13.2787 17.9377 12.5222C17.7356 11.7657 16.714 9.67747 16.714 9.67747C16.714 9.67747 17.1505 9.3309 17.1505 9.07401C17.1505 8.81711 16.714 8.78882 16.714 8.78882H13.9584C13.6067 8.84582 13.418 9.32297 13.418 9.32297Z" fill="#EFE298"/>
<path d="M14.4453 10.5007L16.3202 10.3843L14.4453 10.5007Z" fill="#C5A042"/>
<path d="M14.4453 10.5007L16.3202 10.3843" stroke="#B47D00" stroke-width="0.5"/>
<path d="M14.9004 11.5211L16.7753 11.4047L14.9004 11.5211Z" fill="#C5A042"/>
<path d="M14.9004 11.5211L16.7753 11.4047" stroke="#B47D00" stroke-width="0.5"/>
<path d="M15.2578 12.5414L17.1327 12.425L15.2578 12.5414Z" fill="#C5A042"/>
<path d="M15.2578 12.5414L17.1327 12.425" stroke="#B47D00" stroke-width="0.5"/>
<path fill-rule="evenodd" clip-rule="evenodd" d="M15.8805 7.58765C15.8805 7.58765 15.5917 7.6463 15.5917 7.82871C15.5917 8.01112 15.5137 8.16665 15.5137 8.16665C15.5137 8.16665 15.6018 8.99862 16.2601 9.19168C16.9185 9.38474 17.3044 9.4311 17.5816 9.81837C17.8587 10.2056 18.7089 11.299 18.3679 12.2419C18.027 13.1848 17.7593 13.666 17.7593 13.666C17.7593 13.666 19.0029 12.4946 19.0029 11.9392C19.0029 11.3838 18.8191 10.8457 18.2682 10.1405C17.7172 9.43531 17.4609 9.02307 17.0505 8.70534C16.64 8.38761 16.0519 8.09442 16.0519 8.09442C16.0519 8.09442 16.2612 7.87059 16.1565 7.76535C16.0519 7.66011 15.8805 7.58765 15.8805 7.58765Z" fill="#5AB92D"/>
</g>
<rect width="32" height="24" fill="url(#paint0_linear_230_26402)" style="mix-blend-mode:overlay"/>
</g>
<rect x="0.5" y="0.5" width="31" height="23" rx="1.5" stroke="black" stroke-opacity="0.1"/>
<defs>
<linearGradient id="paint0_linear_230_26402" x1="16" y1="0" x2="16" y2="24" gradientUnits="userSpaceOnUse">
<stop stop-color="white" stop-opacity="0.7"/>
<stop offset="1" stop-opacity="0.3"/>
</linearGradient>
<clipPath id="clip0_230_26402">
<rect width="32" height="24" rx="2" fill="white"/>
</clipPath>
</defs>
</svg>
