<svg width="32" height="24" viewBox="0 0 32 24" fill="none" xmlns="http://www.w3.org/2000/svg">
<g clip-path="url(#clip0_230_24845)">
<mask id="mask0_230_24845" style="mask-type:luminance" maskUnits="userSpaceOnUse" x="0" y="0" width="32" height="24">
<rect width="32" height="24" fill="white"/>
</mask>
<g mask="url(#mask0_230_24845)">
<path fill-rule="evenodd" clip-rule="evenodd" d="M0 0V24H32V0H0Z" fill="#2E42A5"/>
<mask id="mask1_230_24845" style="mask-type:luminance" maskUnits="userSpaceOnUse" x="0" y="0" width="32" height="24">
<path fill-rule="evenodd" clip-rule="evenodd" d="M0 0V24H32V0H0Z" fill="white"/>
</mask>
<g mask="url(#mask1_230_24845)">
<path d="M25.9285 21.714C24.6329 21.714 23.7226 21.4192 23.0723 20.8991C22.4209 20.378 21.9985 19.6054 21.7296 18.5867C21.4602 17.5658 21.3503 16.3187 21.3094 14.8735C21.2806 13.8576 21.2859 12.755 21.2916 11.5733C21.2936 11.153 21.2957 10.7227 21.2963 10.2827H30.6714C30.8387 13.191 30.9024 16.0355 30.3091 18.1685C30.0058 19.2588 29.5363 20.141 28.8408 20.7507C28.1497 21.3565 27.2118 21.714 25.9285 21.714Z" fill="#6DC2FF" stroke="#F7FCFF" stroke-width="0.5"/>
<mask id="mask2_230_24845" style="mask-type:luminance" maskUnits="userSpaceOnUse" x="21" y="10" width="11" height="12">
<path d="M25.9285 21.714C24.6329 21.714 23.7226 21.4192 23.0723 20.8991C22.4209 20.378 21.9985 19.6054 21.7296 18.5867C21.4602 17.5658 21.3503 16.3187 21.3094 14.8735C21.2806 13.8576 21.2859 12.755 21.2916 11.5733C21.2936 11.153 21.2957 10.7227 21.2963 10.2827H30.6714C30.8387 13.191 30.9024 16.0355 30.3091 18.1685C30.0058 19.2588 29.5363 20.141 28.8408 20.7507C28.1497 21.3565 27.2118 21.714 25.9285 21.714Z" fill="white" stroke="white" stroke-width="0.5"/>
</mask>
<g mask="url(#mask2_230_24845)">
<rect x="20.9336" y="10" width="10.07" height="7.97838" fill="#2EBED7"/>
<rect x="20.8008" y="17.9135" width="10.6" height="4.08649" fill="#A95601"/>
<path d="M26.7474 13.4639C26.7474 13.4639 24.8803 13.8873 25.0608 13.4639C25.2413 13.0404 25.7242 11.5133 25.7242 11.5133" stroke="#FFC6B5"/>
<path fill-rule="evenodd" clip-rule="evenodd" d="M27.3084 13.7658C27.3084 13.7658 26.9678 13.557 26.9678 13.1769C26.9678 12.7968 26.1371 12.6546 26.7227 12.0606C27.3084 11.4667 27.5611 11.7283 27.5611 12.0606C27.5611 12.393 28.0319 13.1769 28.0319 13.1769L27.3084 13.7658Z" fill="#FFC6B5"/>
<path fill-rule="evenodd" clip-rule="evenodd" d="M26.3665 10.3243H25.439V11.2324H23.584V12.1406H25.439V20.0541H26.3665V12.1406H28.2215V11.2324H26.3665V10.3243Z" fill="#272727"/>
<path fill-rule="evenodd" clip-rule="evenodd" d="M28.3634 20.3212C28.3634 20.3212 28.026 18.7597 28.026 17.6908C28.026 16.6219 27.4606 15.8574 27.6221 15.2921C27.7837 14.7268 28.1728 14.1018 27.9783 13.7149C27.7837 13.328 28.1681 13.1396 27.6221 13.328C27.0762 13.5164 26.9295 13.1396 26.4024 13.328C25.8753 13.5164 25.8086 14.4058 25.8086 14.6595C25.8086 14.9132 26.043 16.6239 26.043 17.1573C26.043 17.6908 25.8499 20.971 26.4024 20.971C26.955 20.971 27.5574 20.1174 27.7678 20.1174C27.9783 20.1174 28.3634 20.3212 28.3634 20.3212Z" fill="#0C7C38"/>
<path fill-rule="evenodd" clip-rule="evenodd" d="M25.0311 16.1414C24.6943 16.1414 25.0041 16.9238 24.147 17.2668C23.2899 17.6099 23.1217 18.093 23.3917 18.093C23.6617 18.093 25.7964 20.4915 25.7964 20.4915L26.3199 19.6822V17.1267C26.3199 17.1267 25.3679 16.1414 25.0311 16.1414Z" stroke="#FF9A06"/>
<path d="M27.5449 20.1578C27.5449 20.1578 27.9449 21.0161 27.5449 21.0161" stroke="#979797"/>
<path d="M27.4163 13.7903C27.4163 13.7903 27.2406 14.7531 26.906 14.9547C26.5714 15.1563 25.197 15.5465 25.197 15.8797C25.197 16.213 25.0605 16.3321 25.0605 16.3321" stroke="#FFC6B5"/>
<path fill-rule="evenodd" clip-rule="evenodd" d="M26.75 11.8026C26.75 11.8026 27.0863 12.2023 27.2746 12.8611C27.463 13.52 28.0085 13.7444 28.0085 13.436C28.0085 13.1277 28.4117 11.8026 28.0085 11.8026C27.6052 11.8026 26.75 11.8026 26.75 11.8026Z" fill="#FF9A06"/>
</g>
<rect width="18" height="14" fill="#2B409A"/>
<mask id="mask3_230_24845" style="mask-type:luminance" maskUnits="userSpaceOnUse" x="0" y="0" width="18" height="14">
<rect width="18" height="14" fill="white"/>
</mask>
<g mask="url(#mask3_230_24845)">
<path d="M-2.00586 12.9998L1.95509 14.737L18.0883 1.88872L20.1776 -0.69281L15.9419 -1.27343L9.36159 4.26326L4.06508 7.99369L-2.00586 12.9998Z" fill="#F7FCFF"/>
<path d="M-1.46289 14.2169L0.555031 15.225L19.428 -0.932678H16.5947L-1.46289 14.2169Z" fill="#F50100"/>
<path d="M20.0039 12.9998L16.043 14.737L-0.0902405 1.88872L-2.17955 -0.69281L2.05612 -1.27343L8.63646 4.26326L13.933 7.99369L20.0039 12.9998Z" fill="#F7FCFF"/>
<path d="M19.8691 13.8733L17.8512 14.8815L9.81489 7.96351L7.43229 7.19059L-2.3802 -0.683947H0.453194L10.2602 7.00368L12.8651 7.9305L19.8691 13.8733Z" fill="#F50100"/>
<mask id="path-24-outside-1_230_24845" maskUnits="userSpaceOnUse" x="-2" y="-2" width="22" height="18" fill="black">
<rect fill="white" x="-2" y="-2" width="22" height="18"/>
<path fill-rule="evenodd" clip-rule="evenodd" d="M9.98451 0H7.98451V6H0V8H7.98451V14H9.98451V8H18V6H9.98451V0Z"/>
</mask>
<path fill-rule="evenodd" clip-rule="evenodd" d="M9.98451 0H7.98451V6H0V8H7.98451V14H9.98451V8H18V6H9.98451V0Z" fill="#F50100"/>
<path d="M7.98451 0V-1.5H6.48451V0H7.98451ZM9.98451 0H11.4845V-1.5H9.98451V0ZM7.98451 6V7.5H9.48451V6H7.98451ZM0 6V4.5H-1.5V6H0ZM0 8H-1.5V9.5H0V8ZM7.98451 8H9.48451V6.5H7.98451V8ZM7.98451 14H6.48451V15.5H7.98451V14ZM9.98451 14V15.5H11.4845V14H9.98451ZM9.98451 8V6.5H8.48451V8H9.98451ZM18 8V9.5H19.5V8H18ZM18 6H19.5V4.5H18V6ZM9.98451 6H8.48451V7.5H9.98451V6ZM7.98451 1.5H9.98451V-1.5H7.98451V1.5ZM9.48451 6V0H6.48451V6H9.48451ZM0 7.5H7.98451V4.5H0V7.5ZM1.5 8V6H-1.5V8H1.5ZM7.98451 6.5H0V9.5H7.98451V6.5ZM9.48451 14V8H6.48451V14H9.48451ZM9.98451 12.5H7.98451V15.5H9.98451V12.5ZM8.48451 8V14H11.4845V8H8.48451ZM18 6.5H9.98451V9.5H18V6.5ZM16.5 6V8H19.5V6H16.5ZM9.98451 7.5H18V4.5H9.98451V7.5ZM8.48451 0V6H11.4845V0H8.48451Z" fill="#F7FCFF" mask="url(#path-24-outside-1_230_24845)"/>
</g>
</g>
</g>
<rect width="32" height="24" fill="url(#paint0_linear_230_24845)" style="mix-blend-mode:overlay"/>
</g>
<rect x="0.5" y="0.5" width="31" height="23" rx="1.5" stroke="black" stroke-opacity="0.1"/>
<defs>
<linearGradient id="paint0_linear_230_24845" x1="16" y1="0" x2="16" y2="24" gradientUnits="userSpaceOnUse">
<stop stop-color="white" stop-opacity="0.7"/>
<stop offset="1" stop-opacity="0.3"/>
</linearGradient>
<clipPath id="clip0_230_24845">
<rect width="32" height="24" rx="2" fill="white"/>
</clipPath>
</defs>
</svg>
