<svg width="32" height="24" viewBox="0 0 32 24" fill="none" xmlns="http://www.w3.org/2000/svg">
<g clip-path="url(#clip0_230_25265)">
<mask id="mask0_230_25265" style="mask-type:luminance" maskUnits="userSpaceOnUse" x="0" y="0" width="32" height="24">
<rect width="32" height="24" fill="white"/>
</mask>
<g mask="url(#mask0_230_25265)">
<path fill-rule="evenodd" clip-rule="evenodd" d="M0 0H32V24H0V0Z" fill="#FECA00"/>
<rect x="2" y="2" width="6" height="20" fill="#1F8A6E"/>
<rect x="8" y="2" width="6" height="20" fill="#F56800"/>
<rect x="14" y="2" width="16" height="20" fill="#B01D00"/>
<rect x="12" y="2" width="2" height="20" fill="#E8AA00"/>
<path fill-rule="evenodd" clip-rule="evenodd" d="M17.1007 6.17346C17.1007 6.17346 15.827 6.16976 15.827 8.38757V11.6397C15.827 11.6397 15.2207 11.7478 15.2207 12.1245C15.2207 12.5011 15.3492 12.8307 15.5881 12.8307C15.827 12.8307 16.066 13.9356 15.827 13.9356C15.5881 13.9356 15.3492 14.4097 15.5881 14.4097C15.6453 14.4097 15.6888 14.402 15.7218 14.3961C15.7566 14.3899 15.7799 14.3857 15.7955 14.3948C15.827 14.4132 15.827 14.4857 15.827 14.7049C15.827 15.1354 15.5881 15.3095 15.5881 15.3095C15.5881 15.3095 15.3631 15.2468 15.3631 15.5001C15.3631 15.7535 15.5881 15.8177 15.5881 15.8177C15.5881 15.8177 15.7169 15.8733 15.4688 15.9933C15.2207 16.1133 15.2207 16.1713 15.2207 16.1713H15.827L16.1307 16.7269L16.4204 16.1713H17.019C17.019 16.1713 16.7176 15.9785 16.6822 15.9381C16.6469 15.8977 16.6042 15.8387 16.6822 15.7712C16.705 15.7515 16.7383 15.7364 16.7741 15.7202C16.8611 15.681 16.9626 15.6351 16.9626 15.5001C16.9626 15.3095 16.5806 15.3095 16.5806 15.3095C16.5806 15.3095 16.3475 14.8887 16.4204 14.7049C16.4409 14.6535 16.4525 14.6078 16.4625 14.5685C16.4882 14.4675 16.5029 14.4097 16.6282 14.4097C16.8022 14.4097 16.9021 14.1901 16.6822 13.9356C16.6822 13.9356 16.9342 14.2065 16.8602 14.5581C16.7861 14.9096 16.9372 15.0688 17.019 15.0688C17.1007 15.0688 17.2309 14.9479 17.2309 14.9479C17.2309 14.9479 17.9103 15.5554 18.2089 15.5554C18.5076 15.5554 18.9357 15.0688 18.9357 15.0688L19.5503 15.414C19.5503 15.414 20.0003 16.0443 19.934 16.4776C19.8676 16.9109 19.6112 17.1523 19.3094 17.0853C19.0076 17.0183 18.5167 17.1558 18.4793 17.3427C18.4736 17.371 18.4652 17.4055 18.456 17.4433C18.4043 17.6554 18.327 17.973 18.5635 17.8946C18.8423 17.8023 18.8969 17.7315 18.8969 17.7315C18.8969 17.7315 18.8603 17.8946 19.0848 17.8946C19.3094 17.8946 19.3743 17.7315 19.3743 17.7315C19.3743 17.7315 19.6071 17.8946 19.7705 17.8946C19.934 17.8946 20.117 17.7689 20.117 17.7689C20.117 17.7689 20.2375 17.9557 20.5041 17.8946C20.7706 17.8336 20.972 17.138 20.7781 16.9822C20.7781 16.9822 21.4211 16.8889 21.5861 16.33C21.5861 16.33 20.9641 16.3208 21.0283 15.9381C21.0924 15.5554 21.4208 15.3095 21.4208 15.3095C21.4208 15.3095 22.3666 14.8517 22.7735 14.7049C23.1804 14.5581 23.8567 14.4097 24.0243 14.4097C24.0925 14.4097 24.1412 14.5689 24.2073 14.7847C24.3035 15.0992 24.4364 15.5339 24.7201 15.7712C25.1984 16.1713 24.8723 17.0853 24.8723 17.0853C24.8723 17.0853 23.8078 17.1926 23.8078 17.4808C23.8078 17.7689 23.825 17.8946 24.0243 17.8946C24.2237 17.8946 24.2196 17.7315 24.2196 17.7315C24.2196 17.7315 24.338 17.8946 24.529 17.8946C24.7201 17.8946 24.8723 17.7315 24.8723 17.7315C24.8723 17.7315 24.9231 17.8946 25.1734 17.8946C25.4236 17.8946 25.4219 17.7315 25.4219 17.7315C25.4219 17.7315 25.4669 17.8946 25.6875 17.8946C25.9082 17.8946 26.361 17.7315 26.361 17.7315C26.361 17.7315 26.4319 17.8946 26.661 17.8946C26.8901 17.8946 26.8955 17.7315 26.8955 17.7315C26.8955 17.7315 27.0179 17.8946 27.2163 17.8946C27.4147 17.8946 27.5311 17.7315 27.5311 17.7315C27.5311 17.7315 27.8163 17.8946 28.0132 17.8946C28.21 17.8946 28.1393 17.6001 28.0132 17.3427C27.9813 17.2776 27.9443 17.222 27.9106 17.1712C27.8109 17.0211 27.7391 16.9131 27.9079 16.7269C27.9558 16.6741 28.0106 16.6208 28.0655 16.5674L28.0655 16.5674C28.27 16.3685 28.4756 16.1685 28.325 15.9933C28.2803 15.9413 28.228 15.905 28.1753 15.8684C28.0029 15.7486 27.8274 15.6267 27.9079 14.9479C27.9562 14.5414 28.0479 14.211 28.1331 13.9042L28.1331 13.9041C28.2336 13.5421 28.325 13.213 28.325 12.8307C28.325 12.1245 27.9079 11.3169 27.9079 11.3169C27.9079 11.3169 28.4695 10.925 28.4695 10.1277C28.4695 9.33042 27.2163 9.24347 27.2163 9.24347C27.2163 9.24347 25.9715 9.56389 25.4219 9.40368C25.2978 9.36753 25.1941 9.34153 25.1077 9.31989L25.1077 9.31989C24.8113 9.24566 24.7201 9.2228 24.7201 9.01739C24.7201 8.75211 24.32 9.24347 24.32 9.24347C24.32 9.24347 24.0065 9.11761 24.2196 8.85718C24.4328 8.59676 24.529 8.49466 24.529 8.49466C24.529 8.49466 24.3412 8.28048 24.0243 8.38757C23.7074 8.49466 23.6509 8.67212 23.6509 8.67212C23.6509 8.67212 23.2896 8.30227 23.5147 8.03373C23.7399 7.76519 24.0243 8.03373 24.0243 8.03373C24.0243 8.03373 24.3479 8.20271 24.374 7.98091C24.4001 7.75911 24.374 7.58223 24.374 7.58223C24.374 7.58223 25.186 7.81512 24.9566 8.17735C24.7271 8.53958 24.8723 8.67212 24.8723 8.67212C24.8723 8.67212 25.4303 8.70646 25.5312 8.32148C25.5693 8.17587 25.563 8.03467 25.5351 7.9237C25.6959 7.99944 25.878 8.08918 25.8272 8.23807C25.7338 8.51161 25.5312 8.85718 25.5312 8.85718C25.5312 8.85718 26.0888 8.82459 26.255 8.38757C26.4212 7.95055 26.361 8.49466 26.361 8.49466C26.361 8.49466 26.5747 8.48705 26.8955 8.67212C27.2163 8.85718 26.8955 8.38757 26.8955 8.38757C26.8955 8.38757 27.5614 9.21318 28.1912 9.11529C28.821 9.01739 28.7861 8.49466 28.7861 8.49466C28.7861 8.49466 28.6369 8.23807 28.325 8.23807C28.0132 8.23807 28.1912 8.49466 28.1912 8.49466C28.1912 8.49466 28.4952 8.66784 28.0132 8.49466C27.8735 8.4445 27.6652 8.28258 27.4066 8.08167C26.7725 7.58891 25.8366 6.86159 24.8723 6.97298C23.5147 7.12978 23.0411 7.73643 23.0411 7.73643V7.2313C23.0411 7.2313 22.813 7.58223 22.6003 7.58223C22.3876 7.58223 21.7971 7.2313 21.7971 7.2313L21.4208 7.58223C21.4208 7.58223 21.2784 7.2313 21.0283 7.2313C20.7781 7.2313 20.7781 7.58223 20.7781 7.58223C20.7781 7.58223 20.4636 7.42753 20.117 7.42753C19.9751 7.42753 19.8543 7.37568 19.7612 7.33571C19.6271 7.27812 19.5503 7.24517 19.5503 7.42753C19.5503 7.46453 19.5512 7.49986 19.552 7.53346V7.53348C19.5581 7.78036 19.5619 7.93442 19.2027 7.98091C18.7945 8.03373 18.4793 8.03373 18.4793 8.03373C18.4793 8.03373 18.235 7.73643 18.0449 7.73643C17.8548 7.73643 17.6347 7.96713 17.6347 8.17735C17.6347 8.38757 17.8809 8.9871 18.0449 9.11529C18.0881 9.14905 18.0801 9.14536 18.0449 9.12912C17.9463 9.08371 17.6347 8.94018 17.6347 9.24347C17.6347 9.45257 17.6868 9.50484 17.725 9.54302C17.7619 9.58002 17.7856 9.60378 17.7358 9.74418C17.7151 9.8026 17.6867 9.87018 17.657 9.9407C17.5417 10.2145 17.4077 10.5328 17.6347 10.5328C17.7572 10.5328 17.8732 10.5058 17.9557 10.4866L17.9557 10.4866C18.0654 10.4611 18.1162 10.4493 18.0449 10.5328C18.0165 10.5661 17.9783 10.6062 17.9398 10.6467C17.809 10.784 17.6743 10.9254 17.9073 10.8181C18.0298 10.7617 18.1333 10.6799 18.2186 10.6125C18.3433 10.5138 18.4293 10.4459 18.4793 10.5328C18.5109 10.5878 18.4856 10.6613 18.4639 10.7243C18.4277 10.8291 18.4016 10.9048 18.6642 10.8181C18.7563 10.7877 18.8103 10.764 18.8403 10.747C18.8415 10.764 18.8556 10.7878 18.8969 10.8181C18.9851 10.8828 18.9682 10.9441 18.9553 10.991C18.9407 11.044 18.9312 11.0785 19.0848 11.0785C19.2319 11.0785 19.4394 10.9646 19.5624 10.897C19.6815 10.8316 19.7214 10.8097 19.5503 10.977C19.4426 11.0824 19.2866 11.1526 19.1135 11.2306C18.7283 11.4042 18.2582 11.6161 18.0449 12.3387C17.757 13.3142 17.8861 13.5152 17.9051 13.5382L17.019 12.568C17.019 12.568 17.2309 12.4024 17.2309 12.1245C17.2309 11.8466 16.6822 11.6397 16.6822 11.6397C16.6822 11.6397 16.7014 8.18199 16.8602 7.42753C17.019 6.67306 17.1007 6.17346 17.1007 6.17346ZM17.9051 13.5382L17.9073 13.5406C17.9073 13.5406 17.907 13.5403 17.9063 13.5396C17.906 13.5392 17.9056 13.5388 17.9051 13.5382ZM18.8679 10.7143C18.8579 10.7143 18.8387 10.7252 18.8403 10.747C18.8787 10.7252 18.8779 10.7143 18.8679 10.7143ZM25.5351 7.9237L25.5234 7.91817C25.3936 7.85714 25.282 7.80464 25.3249 7.73643C25.3852 7.64055 25.4893 7.74125 25.5351 7.9237ZM26.1215 15.4056C26.1215 15.4056 25.7016 15.8175 25.9682 15.908C26.0491 15.9355 26.1474 15.9508 26.2389 15.965C26.449 15.9977 26.6225 16.0247 26.4633 16.1802C26.2348 16.4034 26.0415 16.705 26.0415 16.9796C26.0415 17.2543 26.048 17.4861 26.1215 17.3702C26.1618 17.3066 26.3277 17.24 26.5063 17.1682C26.6531 17.1092 26.8086 17.0467 26.9101 16.9796C27.1021 16.8528 27.0993 16.7156 27.0943 16.4691C27.0934 16.4265 27.0925 16.3806 27.0925 16.3309C27.0925 15.994 26.1215 15.4056 26.1215 15.4056ZM22.8633 9.88958C22.9612 9.81179 22.9674 8.85162 22.9674 8.85162C22.9674 8.85162 23.3108 8.96593 23.3108 9.11592C23.3108 9.20933 23.2848 9.26276 23.2456 9.3434C23.2218 9.39225 23.1932 9.45108 23.1626 9.53482C23.0871 9.74109 23.2924 9.87032 23.4831 9.99035C23.4976 9.99951 23.5121 10.0086 23.5263 10.0177C23.6556 10.1001 23.692 9.92128 23.72 9.78324C23.7355 9.70672 23.7485 9.64273 23.7734 9.64273C23.8432 9.64273 24.3635 9.7607 24.7552 9.95973C25.0969 10.1334 25.4322 10.0481 26.2002 9.85287C26.3124 9.82434 26.4339 9.79347 26.5659 9.7607C27.6018 9.50372 27.7378 9.88958 27.8439 10.1934C27.9501 10.4972 27.146 10.9181 26.5659 10.9944C26.3111 11.0279 26.0903 11.0173 25.8872 11.0074C25.628 10.9949 25.3976 10.9838 25.1619 11.0676C24.7924 11.199 23.6368 11.1859 23.1857 11.1808C23.1234 11.1801 23.0745 11.1796 23.043 11.1796C22.836 11.1796 22.7968 11.1142 22.7182 10.983C22.6982 10.9497 22.6757 10.9121 22.6472 10.8703C22.5067 10.6638 22.6772 10.5288 22.7877 10.5288C22.8982 10.5288 22.8633 10.2872 22.7877 10.1934C22.7122 10.0995 22.7654 9.96737 22.8633 9.88958Z" fill="#FECA00"/>
<path fill-rule="evenodd" clip-rule="evenodd" d="M14.1716 2.12233V2.48337C14.1716 2.52783 14.1524 2.58846 14.1309 2.65643C14.0627 2.87188 13.9712 3.16101 14.3935 3.24227C14.9491 3.34917 15.3583 3.5921 15.4828 3.82144C15.5625 3.96841 15.54 3.72351 15.5136 3.43545V3.43545C15.4988 3.27402 15.4828 3.09904 15.4828 2.97188C15.4828 2.61784 15.0862 1.92794 14.8052 2.12233C14.5241 2.31672 14.1716 2.12233 14.1716 2.12233ZM14.1716 21.5073V21.8684C14.1716 21.8684 14.5241 21.674 14.8052 21.8684C15.0862 22.0627 15.4828 21.3728 15.4828 21.0188C15.4828 20.8916 15.4988 20.7167 15.5136 20.5552C15.54 20.2672 15.5625 20.0223 15.4828 20.1692C15.3583 20.3986 14.9491 20.6415 14.3935 20.7484C13.9712 20.8297 14.0627 21.1188 14.1309 21.3342C14.1524 21.4022 14.1716 21.4629 14.1716 21.5073ZM29.836 21.5073V21.8684C29.836 21.8684 29.4834 21.674 29.2024 21.8684C28.9214 22.0627 28.5248 21.3728 28.5248 21.0188C28.5248 20.8917 28.5088 20.7167 28.494 20.5553L28.494 20.5552C28.4676 20.2672 28.4451 20.0223 28.5248 20.1692C28.6493 20.3986 29.0585 20.6415 29.614 20.7484C30.0364 20.8297 29.9449 21.1188 29.8767 21.3342C29.8552 21.4022 29.836 21.4629 29.836 21.5073ZM29.836 2.48337V2.12233C29.836 2.12233 29.4834 2.31672 29.2024 2.12233C28.9214 1.92794 28.5248 2.61784 28.5248 2.97188C28.5248 3.09904 28.5088 3.27402 28.494 3.43545C28.4676 3.72351 28.4451 3.96841 28.5248 3.82144C28.6493 3.5921 29.0585 3.34917 29.614 3.24227C30.0364 3.16101 29.9449 2.87188 29.8767 2.65643C29.8552 2.58846 29.836 2.52783 29.836 2.48337Z" fill="#FECA00"/>
</g>
<rect width="32" height="24" fill="url(#paint0_linear_230_25265)" style="mix-blend-mode:overlay"/>
</g>
<rect x="0.5" y="0.5" width="31" height="23" rx="1.5" stroke="black" stroke-opacity="0.1"/>
<defs>
<linearGradient id="paint0_linear_230_25265" x1="16" y1="0" x2="16" y2="24" gradientUnits="userSpaceOnUse">
<stop stop-color="white" stop-opacity="0.7"/>
<stop offset="1" stop-opacity="0.3"/>
</linearGradient>
<clipPath id="clip0_230_25265">
<rect width="32" height="24" rx="2" fill="white"/>
</clipPath>
</defs>
</svg>
