<svg width="32" height="24" viewBox="0 0 32 24" fill="none" xmlns="http://www.w3.org/2000/svg">
<g clip-path="url(#clip0_230_23727)">
<mask id="mask0_230_23727" style="mask-type:luminance" maskUnits="userSpaceOnUse" x="0" y="0" width="32" height="24">
<rect width="32" height="24" fill="white"/>
</mask>
<g mask="url(#mask0_230_23727)">
<path fill-rule="evenodd" clip-rule="evenodd" d="M0 0V24H32V0H0Z" fill="#2E42A5"/>
<mask id="mask1_230_23727" style="mask-type:luminance" maskUnits="userSpaceOnUse" x="0" y="0" width="32" height="24">
<path fill-rule="evenodd" clip-rule="evenodd" d="M0 0V24H32V0H0Z" fill="white"/>
</mask>
<g mask="url(#mask1_230_23727)">
<path fill-rule="evenodd" clip-rule="evenodd" d="M0 23.9966L16.151 -2H32.302L0 23.9966Z" fill="#FFD018"/>
<path d="M0 23.9966L34.4632 10.9983V-5.10327L0 23.9966Z" fill="#E31D1C"/>
<path d="M0 23.9966L34.4632 18.9983V10.8967L0 23.9966Z" fill="#F7FCFF"/>
<path fill-rule="evenodd" clip-rule="evenodd" d="M0 23.9966H34.4632V16.8967L0 23.9966Z" fill="#5EAA22"/>
</g>
</g>
<rect width="32" height="24" fill="url(#paint0_linear_230_23727)" style="mix-blend-mode:overlay"/>
</g>
<rect x="0.5" y="0.5" width="31" height="23" rx="1.5" stroke="black" stroke-opacity="0.1"/>
<defs>
<linearGradient id="paint0_linear_230_23727" x1="16" y1="0" x2="16" y2="24" gradientUnits="userSpaceOnUse">
<stop stop-color="white" stop-opacity="0.7"/>
<stop offset="1" stop-opacity="0.3"/>
</linearGradient>
<clipPath id="clip0_230_23727">
<rect width="32" height="24" rx="2" fill="white"/>
</clipPath>
</defs>
</svg>
