<svg width="32" height="24" viewBox="0 0 32 24" fill="none" xmlns="http://www.w3.org/2000/svg">
<g clip-path="url(#clip0_230_25880)">
<mask id="mask0_230_25880" style="mask-type:luminance" maskUnits="userSpaceOnUse" x="0" y="0" width="32" height="24">
<rect width="32" height="24" fill="white"/>
</mask>
<g mask="url(#mask0_230_25880)">
<path fill-rule="evenodd" clip-rule="evenodd" d="M0 0H32V24H0V0Z" fill="#F7FCFF"/>
<path d="M-2.70185 1.2448L-4.75039 0.00609732V2.40002V22.4V24.794L-2.70185 23.5553L13.8359 13.5553L15.7464 12.4L13.8359 11.2448L-2.70185 1.2448Z" fill="#F7FCFF" stroke="#E31D1C" stroke-width="2.7"/>
<path d="M34.9197 1.23262L36.9477 0.0548477V2.40002V22.4V24.7452L34.9197 23.5674L17.7008 13.5674L15.6907 12.4L17.7008 11.2326L34.9197 1.23262Z" fill="#F7FCFF" stroke="#E31D1C" stroke-width="2.7"/>
<path fill-rule="evenodd" clip-rule="evenodd" d="M13.6753 4.70302C13.6753 4.70302 12.8166 8.50133 15.7814 9.96014C15.7814 9.96014 18.6275 8.40881 17.9883 4.70302C17.9883 4.70302 16.7659 4.29413 15.794 4.29413C14.822 4.29413 13.6753 4.70302 13.6753 4.70302Z" fill="#E31D1C"/>
<path fill-rule="evenodd" clip-rule="evenodd" d="M13.9821 5.49858C13.9821 5.49858 14.2992 5.3582 14.4562 5.49858C14.6131 5.63895 14.7417 5.48694 14.7417 5.40226C14.7417 5.31758 14.991 5.02689 14.991 5.26273C14.991 5.49858 14.9134 5.63174 15.1324 5.63174C15.3515 5.63174 16.338 5.30595 16.5745 5.40226C16.8111 5.49858 16.9921 5.47462 16.932 5.33643C16.8718 5.19824 16.7173 5.11187 16.4197 5.1873C16.1221 5.26273 16.1924 5.33643 15.9352 5.33643C15.678 5.33643 15.3917 5.26273 15.3917 5.26273C15.3917 5.26273 15.4721 5.1388 15.7657 5.22695C16.0594 5.31511 16.4644 5.11778 16.5745 5.11778C16.6847 5.11778 16.9878 5.11187 17.0179 5.1873C17.0479 5.26273 17.231 5.33195 17.0915 5.40226C16.9519 5.47258 16.7219 5.51663 16.8802 5.60672C17.0385 5.69682 17.4025 5.67945 17.42 5.77317C17.4376 5.86688 17.6101 6.00683 17.5409 6.00683C17.4716 6.00683 17.3465 6.13881 17.23 6.09862C17.1134 6.05843 17.0997 6.02315 17.2115 5.99059C17.3232 5.95804 17.3221 5.82113 17.23 5.82113C17.1378 5.82113 17.1828 5.8691 16.9729 5.82113C16.7631 5.77317 16.4854 5.71985 16.5021 5.82113C16.5188 5.92242 16.6554 6.0779 16.4033 6.09862C16.1513 6.11934 16.0333 6.20254 15.9842 6.13554C15.9352 6.06854 15.7598 5.97927 15.8977 5.95065C16.0356 5.92202 16.1673 6.04795 16.217 6.02739C16.2667 6.00683 16.3793 5.99538 16.285 5.90826C16.1907 5.82113 16.0352 5.76984 16.1793 5.70463C16.3235 5.63942 16.2097 5.63808 15.9352 5.77317C15.6606 5.90826 15.5079 6.02306 15.2668 6.00683C15.0257 5.99059 14.9354 6.01249 14.858 5.99059C14.7805 5.9687 14.4031 6.23254 14.2945 6.16558C14.1858 6.09862 13.835 6.07293 13.8982 5.99059C13.9613 5.90826 14.0461 5.86587 14.1405 5.90826C14.235 5.95065 14.3288 5.99304 14.3925 5.95065C14.4562 5.90826 14.6401 5.7628 14.5938 5.73371C14.5475 5.70463 14.5923 5.60672 14.3304 5.60672C14.0685 5.60672 13.9764 5.71584 13.9142 5.64709C13.852 5.57834 13.9821 5.49858 13.9821 5.49858Z" fill="#FFD100"/>
<path fill-rule="evenodd" clip-rule="evenodd" d="M14.2445 6.74668C14.2445 6.74668 14.5233 6.62326 14.6613 6.74668C14.7993 6.87009 14.9123 6.73645 14.9123 6.662C14.9123 6.58756 15.1314 6.33198 15.1314 6.53933C15.1314 6.74668 15.0632 6.86375 15.2558 6.86375C15.4484 6.86375 16.3157 6.57733 16.5237 6.662C16.7316 6.74668 16.8908 6.72562 16.8379 6.60413C16.785 6.48263 16.6492 6.4067 16.3875 6.47302C16.1259 6.53933 16.1877 6.60413 15.9615 6.60413C15.7354 6.60413 15.4837 6.53933 15.4837 6.53933C15.4837 6.53933 15.5544 6.43038 15.8126 6.50788C16.0707 6.58538 16.4268 6.4119 16.5237 6.4119C16.6205 6.4119 16.887 6.4067 16.9134 6.47302C16.9399 6.53933 17.1008 6.60018 16.9781 6.662C16.8555 6.72383 16.6532 6.76255 16.7924 6.84176C16.9315 6.92096 17.2516 6.9057 17.267 6.98809C17.2824 7.07048 17.4341 7.19351 17.3732 7.19351C17.3123 7.19351 17.2023 7.30954 17.0999 7.27421C16.9974 7.23888 16.9854 7.20786 17.0836 7.17924C17.1819 7.15062 17.1809 7.03026 17.0999 7.03026C17.0189 7.03026 17.0584 7.07243 16.8739 7.03026C16.6894 6.98809 16.4453 6.94121 16.4599 7.03026C16.4746 7.11931 16.5947 7.256 16.3731 7.27421C16.1515 7.29243 16.0478 7.36557 16.0047 7.30667C15.9615 7.24777 15.8074 7.16929 15.9286 7.14412C16.0498 7.11895 16.1657 7.22966 16.2093 7.21159C16.253 7.19351 16.352 7.18345 16.2691 7.10685C16.1862 7.03026 16.0495 6.98516 16.1762 6.92783C16.3029 6.8705 16.2029 6.86932 15.9615 6.98809C15.7201 7.10685 15.5859 7.20778 15.3739 7.19351C15.162 7.17924 15.0826 7.19849 15.0145 7.17924C14.9464 7.15999 14.6146 7.39195 14.5191 7.33308C14.4236 7.27421 14.1152 7.25163 14.1707 7.17924C14.2262 7.10685 14.3008 7.06958 14.3838 7.10685C14.4668 7.14412 14.5493 7.18139 14.6053 7.14412C14.6613 7.10685 14.8229 6.97897 14.7823 6.9534C14.7416 6.92783 14.7809 6.84176 14.5507 6.84176C14.3204 6.84176 14.2395 6.93769 14.1848 6.87724C14.1301 6.8168 14.2445 6.74668 14.2445 6.74668Z" fill="#FFD100"/>
<path fill-rule="evenodd" clip-rule="evenodd" d="M14.6157 8.01352C14.6157 8.01352 14.8271 7.91993 14.9317 8.01352C15.0363 8.1071 15.1221 8.00576 15.1221 7.94931C15.1221 7.89285 15.2882 7.69906 15.2882 7.85629C15.2882 8.01352 15.2365 8.10229 15.3826 8.10229C15.5286 8.10229 16.1863 7.8851 16.344 7.94931C16.5017 8.01352 16.6223 7.99755 16.5823 7.90542C16.5422 7.81329 16.4391 7.75571 16.2407 7.806C16.0424 7.85629 16.0892 7.90542 15.9177 7.90542C15.7462 7.90542 15.5554 7.85629 15.5554 7.85629C15.5554 7.85629 15.609 7.77367 15.8048 7.83243C16.0005 7.8912 16.2705 7.75965 16.344 7.75965C16.4174 7.75965 16.6195 7.75571 16.6395 7.806C16.6596 7.85629 16.7816 7.90243 16.6886 7.94931C16.5956 7.99619 16.4422 8.02555 16.5477 8.08561C16.6532 8.14568 16.8959 8.1341 16.9076 8.19658C16.9193 8.25905 17.0343 8.35235 16.9882 8.35235C16.942 8.35235 16.8586 8.44034 16.7809 8.41355C16.7032 8.38675 16.6941 8.36323 16.7686 8.34153C16.8431 8.31982 16.8423 8.22855 16.7809 8.22855C16.7195 8.22855 16.7495 8.26053 16.6096 8.22855C16.4697 8.19658 16.2845 8.16103 16.2957 8.22855C16.3068 8.29608 16.3979 8.39973 16.2298 8.41355C16.0618 8.42736 15.9831 8.48282 15.9504 8.43816C15.9177 8.39349 15.8008 8.33398 15.8927 8.3149C15.9847 8.29581 16.0725 8.37976 16.1056 8.36606C16.1387 8.35235 16.2138 8.34472 16.1509 8.28664C16.0881 8.22855 15.9844 8.19436 16.0805 8.15089C16.1766 8.10741 16.1008 8.10652 15.9177 8.19658C15.7347 8.28664 15.6328 8.36317 15.4721 8.35235C15.3114 8.34153 15.2512 8.35613 15.1996 8.34153C15.1479 8.32693 14.8964 8.50283 14.8239 8.45819C14.7515 8.41355 14.5176 8.39642 14.5597 8.34153C14.6018 8.28664 14.6583 8.25838 14.7213 8.28664C14.7842 8.3149 14.8468 8.34316 14.8893 8.3149C14.9317 8.28664 15.0543 8.18966 15.0235 8.17027C14.9926 8.15089 15.0225 8.08561 14.8479 8.08561C14.6733 8.08561 14.6119 8.15836 14.5704 8.11252C14.529 8.06669 14.6157 8.01352 14.6157 8.01352Z" fill="#FFD100"/>
</g>
<rect width="32" height="24" fill="url(#paint0_linear_230_25880)" style="mix-blend-mode:overlay"/>
</g>
<rect x="0.5" y="0.5" width="31" height="23" rx="1.5" stroke="black" stroke-opacity="0.1"/>
<defs>
<linearGradient id="paint0_linear_230_25880" x1="16" y1="0" x2="16" y2="24" gradientUnits="userSpaceOnUse">
<stop stop-color="white" stop-opacity="0.7"/>
<stop offset="1" stop-opacity="0.3"/>
</linearGradient>
<clipPath id="clip0_230_25880">
<rect width="32" height="24" rx="2" fill="white"/>
</clipPath>
</defs>
</svg>
