<svg width="32" height="24" viewBox="0 0 32 24" fill="none" xmlns="http://www.w3.org/2000/svg">
<g clip-path="url(#clip0_230_23385)">
<mask id="mask0_230_23385" style="mask-type:luminance" maskUnits="userSpaceOnUse" x="0" y="0" width="32" height="24">
<rect width="32" height="24" fill="white"/>
</mask>
<g mask="url(#mask0_230_23385)">
<path fill-rule="evenodd" clip-rule="evenodd" d="M0 0V24H32V0H0Z" fill="#E31D1C"/>
<mask id="mask1_230_23385" style="mask-type:luminance" maskUnits="userSpaceOnUse" x="0" y="0" width="32" height="24">
<path fill-rule="evenodd" clip-rule="evenodd" d="M0 0V24H32V0H0Z" fill="white"/>
</mask>
<g mask="url(#mask1_230_23385)">
<path fill-rule="evenodd" clip-rule="evenodd" d="M0 12V24H32V12H0Z" fill="#2E42A5"/>
</g>
<path fill-rule="evenodd" clip-rule="evenodd" d="M0 -2V26L20 12L0 -2Z" fill="#F7FCFF"/>
<mask id="mask2_230_23385" style="mask-type:luminance" maskUnits="userSpaceOnUse" x="0" y="-2" width="20" height="28">
<path fill-rule="evenodd" clip-rule="evenodd" d="M0 -2V26L20 12L0 -2Z" fill="white"/>
</mask>
<g mask="url(#mask2_230_23385)">
<path fill-rule="evenodd" clip-rule="evenodd" d="M8.12484 10.1888C9.56155 10.1888 10.7262 9.25111 10.7262 8.09441C10.7262 6.9377 9.56155 6 8.12484 6C6.68812 6 5.52344 6.9377 5.52344 8.09441C5.52344 9.25111 6.68812 10.1888 8.12484 10.1888Z" fill="#FBCD17"/>
<path fill-rule="evenodd" clip-rule="evenodd" d="M8.35256 6.38538C8.14019 6.38538 7.98929 6.52219 7.98929 6.72813L7.98948 6.75084C7.97808 6.78516 7.97167 6.8234 7.97052 6.86621C7.96757 6.97577 8.00837 7.06716 8.094 7.15098C8.09926 7.17518 8.102 7.19523 8.10123 7.20661C8.09603 7.18873 8.07536 7.17375 8.036 7.14522C7.98005 7.10465 7.88633 7.03671 7.74558 6.89414C7.54287 6.68881 7.38989 6.60844 7.19972 6.64038C7.14206 6.65006 7.08563 6.67037 7.01788 6.69751C6.90985 6.73641 6.81041 6.74544 6.62681 6.71039C6.1166 6.613 5.557 6.70856 4.95117 6.9893L5.1614 7.44295C5.67844 7.20336 6.1346 7.12547 6.53306 7.20152C6.80678 7.25377 6.99684 7.23651 7.18728 7.16793C7.26934 7.13707 7.27652 7.13448 7.28254 7.13347C7.2765 7.13449 7.28037 7.1382 7.30573 7.16258C7.32281 7.17899 7.34964 7.20478 7.38977 7.24542C7.44691 7.30331 7.50666 7.35571 7.56767 7.40337C7.45039 7.43489 7.45646 7.45652 7.47798 7.53328C7.48676 7.56455 7.49809 7.60498 7.5047 7.65896C7.51928 7.77813 7.49506 7.83959 7.51595 7.86902C7.53926 7.90186 7.61873 7.89483 7.8709 7.88359C7.93878 7.88056 8.03057 7.87355 8.13649 7.86354C8.34422 7.84389 8.57931 7.81526 8.72376 7.79158C8.86409 7.76858 8.90138 7.76018 8.96023 7.71735L8.96025 7.71733C8.98059 7.69239 8.998 7.67104 9.01243 7.65203C9.49225 7.58153 9.91892 7.53145 10.2986 7.4969C10.4347 7.48451 10.5441 7.47601 10.6501 7.46823C10.6626 7.46812 10.6626 7.46812 10.7241 7.45525L10.7241 7.45525C10.751 7.4438 10.7622 7.43908 10.7659 7.4375L10.7659 7.4376C10.7676 7.43684 10.7686 7.43639 10.7659 7.4375L10.8885 7.14721L10.7619 6.9941C10.6864 6.97039 10.6781 6.96777 10.6697 6.96741C10.6686 6.96736 10.6676 6.96735 10.6664 6.96734C10.6565 6.96676 10.6529 6.96654 10.6493 6.96643C10.6472 6.96636 10.6452 6.96633 10.6419 6.96628C10.6279 6.96619 10.6188 6.96614 10.6096 6.9661C10.5927 6.96605 10.5757 6.96607 10.5273 6.96612C10.4442 6.96612 10.3786 6.9591 10.2838 6.94225L10.1957 6.92605C9.80587 6.85453 9.44432 6.85453 8.67754 6.96886C8.66309 6.95768 8.64873 6.94665 8.63469 6.93612C8.75818 6.91466 8.90857 6.90009 9.06751 6.89162L9.06752 6.89162C9.16359 6.88714 9.16359 6.88714 9.21723 6.88571L9.2407 6.88516L9.23777 6.38541L9.19983 6.38538H8.35256ZM7.93838 7.83291C7.95298 7.82977 7.96892 7.82646 7.9862 7.82297L8.03329 7.81292C8.02466 7.81475 8.0151 7.81675 8.00452 7.81895C7.98578 7.82286 7.96387 7.82743 7.93838 7.83291Z" fill="#DA610A"/>
<path d="M7.92452 8.5807L8.00541 8.59397L8.08631 8.5807C9.07933 8.4179 9.73321 8.4369 10.1121 8.56398C10.5485 8.71037 11.031 8.66893 11.5383 8.49808C11.3772 9.21585 11.2948 9.89425 11.2948 10.5318C11.2948 11.2586 11.4354 11.8458 11.563 12.3609C11.5664 12.3747 11.5698 12.3885 11.5732 12.4022C11.6982 12.9066 11.8018 13.3247 11.8018 13.8044C11.8018 14.235 11.659 14.4612 11.4594 14.6025C11.2282 14.7662 10.8427 14.8704 10.2711 14.8704C9.46506 14.8704 8.71103 15.0875 8.01675 15.5122L8.00541 15.504L7.99408 15.5122C7.29979 15.0875 6.54576 14.8704 5.73975 14.8704C5.16808 14.8704 4.78258 14.7662 4.55144 14.6025C4.35181 14.4612 4.20898 14.235 4.20898 13.8044C4.20898 13.3247 4.31259 12.9066 4.43761 12.4022C4.44101 12.3885 4.44442 12.3747 4.44784 12.3609C4.57542 11.8458 4.71602 11.2586 4.71602 10.5318C4.71602 9.89425 4.63358 9.21585 4.47256 8.49808C4.97987 8.66893 5.46231 8.71037 5.89875 8.56398C6.27761 8.4369 6.93149 8.4179 7.92452 8.5807Z" fill="#56C6F5" stroke="#E31D1C"/>
<path fill-rule="evenodd" clip-rule="evenodd" d="M8.78387 10.6242L8.01244 9.93848L7.24102 10.6242H7.46959V11.0195L6.26959 11.767V13.5956H6.04102V13.9385H6.26959H9.7553H10.041V13.5956H9.7553V11.767L8.49816 10.9839V10.6242H8.78387Z" fill="#F7FCFF"/>
<path d="M8.01244 9.93848L8.09549 9.84505L8.01244 9.77123L7.9294 9.84505L8.01244 9.93848ZM8.78387 10.6242V10.7492H9.11265L8.86692 10.5308L8.78387 10.6242ZM7.24102 10.6242L7.15797 10.5308L6.91224 10.7492H7.24102V10.6242ZM7.46959 10.6242H7.59459V10.4992H7.46959V10.6242ZM7.46959 11.0195L7.53568 11.1256L7.59459 11.0889V11.0195H7.46959ZM6.26959 11.767L6.20349 11.661L6.14459 11.6976V11.767H6.26959ZM6.26959 13.5956V13.7206H6.39459V13.5956H6.26959ZM6.04102 13.5956V13.4706H5.91602V13.5956H6.04102ZM6.04102 13.9385H5.91602V14.0635H6.04102V13.9385ZM10.041 13.9385V14.0635H10.166V13.9385H10.041ZM10.041 13.5956H10.166V13.4706H10.041V13.5956ZM9.7553 13.5956H9.6303V13.7206H9.7553V13.5956ZM9.7553 11.767H9.8803V11.6976L9.82139 11.661L9.7553 11.767ZM8.49816 10.9839H8.37316V11.0533L8.43207 11.09L8.49816 10.9839ZM8.49816 10.6242V10.4992H8.37316V10.6242H8.49816ZM7.9294 10.0319L8.70083 10.7176L8.86692 10.5308L8.09549 9.84505L7.9294 10.0319ZM7.32406 10.7176L8.09549 10.0319L7.9294 9.84505L7.15797 10.5308L7.32406 10.7176ZM7.46959 10.4992H7.24102V10.7492H7.46959V10.4992ZM7.34459 10.6242V11.0195H7.59459V10.6242H7.34459ZM7.40349 10.9134L6.20349 11.661L6.33568 11.8731L7.53568 11.1256L7.40349 10.9134ZM6.14459 11.767V13.5956H6.39459V11.767H6.14459ZM6.26959 13.4706H6.04102V13.7206H6.26959V13.4706ZM5.91602 13.5956V13.9385H6.16602V13.5956H5.91602ZM6.04102 14.0635H6.26959V13.8135H6.04102V14.0635ZM6.26959 14.0635H9.7553V13.8135H6.26959V14.0635ZM9.7553 14.0635H10.041V13.8135H9.7553V14.0635ZM10.166 13.9385V13.5956H9.91602V13.9385H10.166ZM10.041 13.4706H9.7553V13.7206H10.041V13.4706ZM9.8803 13.5956V11.767H9.6303V13.5956H9.8803ZM9.82139 11.661L8.56425 10.8778L8.43207 11.09L9.68921 11.8731L9.82139 11.661ZM8.62316 10.9839V10.6242H8.37316V10.9839H8.62316ZM8.78387 10.4992H8.49816V10.7492H8.78387V10.4992Z" fill="#3B3B3B"/>
<path d="M7.95142 17.0204C9.01246 17.0204 9.74291 16.9046 10.119 16.7071C10.2177 16.5395 10.3906 16.4448 10.5746 16.4516C11.4011 16.4822 12.0411 16.134 12.5443 15.3688C13.088 14.542 13.1973 13.3675 12.8429 11.8259L13.7425 11.6191C14.1485 13.3855 14.016 14.8109 13.3156 15.876C12.688 16.8303 11.8324 17.3401 10.7881 17.3747C10.2547 17.7696 9.32007 17.9435 7.95142 17.9435C6.62736 17.9435 5.64565 17.6864 5.01602 17.1402C3.58613 16.8024 2.67747 16.2321 2.32018 15.3867C1.93932 14.4856 1.93932 13.2346 2.29459 11.6232L3.19602 11.8219C2.87814 13.2638 2.87814 14.3358 3.17043 15.0274C3.3744 15.5099 3.96704 15.9038 4.97108 16.1768L5.90389 16.3763L5.85911 16.6118C6.31417 16.8778 7.00966 17.0204 7.95142 17.0204Z" fill="#FBCD17"/>
<path fill-rule="evenodd" clip-rule="evenodd" d="M4.76673 9.17619C4.66367 9.43238 4.7878 9.72361 5.04399 9.82667L5.05987 9.83306L5.03569 9.88333C4.86048 10.2476 5.16032 10.6235 5.51415 10.6013L5.50263 10.6579C5.39998 11.1621 5.9819 11.4142 6.30369 11.1576C6.50931 11.1526 6.71145 11.0296 6.77221 10.7725L6.82904 10.532L6.85198 10.5389C7.32354 10.6811 7.64252 10.161 7.43447 9.80946C7.4973 9.69517 7.51564 9.55658 7.47441 9.42204C7.39351 9.15801 7.1139 9.00956 6.84987 9.09046L6.33397 9.24853C6.26519 9.22924 6.19145 9.22454 6.11707 9.23771C6.06723 9.18109 6.00366 9.13486 5.92857 9.10465L5.41722 8.89893C5.16103 8.79587 4.8698 8.92 4.76673 9.17619ZM6.82904 10.532L6.95125 10.0148L6.32028 10.3786L6.82904 10.532Z" fill="#73BE4A"/>
<path fill-rule="evenodd" clip-rule="evenodd" d="M6.20508 10.476C6.48122 10.476 6.70508 10.2521 6.70508 9.97595C6.70508 9.69981 6.48122 9.47595 6.20508 9.47595C5.92894 9.47595 5.70508 9.69981 5.70508 9.97595C5.70508 10.2521 5.92894 10.476 6.20508 10.476Z" fill="#FBCD17"/>
<path fill-rule="evenodd" clip-rule="evenodd" d="M10.2397 10.0733C10.2315 9.73704 10.1942 8.96924 10.0236 8.96924C9.85194 8.96924 9.82584 9.74605 9.82254 10.0792C9.52709 10.1757 9.30469 10.43 9.30469 10.43H10.7762C10.7762 10.43 10.5444 10.165 10.2397 10.0733Z" fill="#F7FCFF"/>
<path d="M2.55058 12.5685L2.79688 12.6113C2.5975 13.7574 2.5975 14.5791 2.79007 15.0693C3.0142 15.6397 4.33647 16.4049 4.71052 16.4049V16.6549C4.24008 16.6549 2.82205 15.8343 2.55738 15.1607C2.344 14.6176 2.344 13.7559 2.55058 12.5685Z" fill="#73BE4A"/>
<path d="M13.3798 12.5088L13.1332 12.5502C13.3137 13.6255 13.2732 14.4645 13.0169 15.066C12.7079 15.791 11.5147 16.7148 11.2017 16.7148V16.9648C11.623 16.9648 12.9011 15.9753 13.2469 15.164C13.5248 14.5119 13.5674 13.6271 13.3798 12.5088Z" fill="#73BE4A"/>
<path d="M6.39258 17.4239L6.43967 17.1783C7.23625 17.3311 7.78041 17.4075 8.0655 17.4075C8.34999 17.4075 8.8647 17.3313 9.60351 17.1787L9.65409 17.4235C8.89941 17.5794 8.37192 17.6575 8.0655 17.6575C7.75968 17.6575 7.20425 17.5796 6.39258 17.4239Z" fill="#73BE4A"/>
</g>
</g>
<rect width="32" height="24" fill="url(#paint0_linear_230_23385)" style="mix-blend-mode:overlay"/>
</g>
<rect x="0.5" y="0.5" width="31" height="23" rx="1.5" stroke="black" stroke-opacity="0.1"/>
<defs>
<linearGradient id="paint0_linear_230_23385" x1="16" y1="0" x2="16" y2="24" gradientUnits="userSpaceOnUse">
<stop stop-color="white" stop-opacity="0.7"/>
<stop offset="1" stop-opacity="0.3"/>
</linearGradient>
<clipPath id="clip0_230_23385">
<rect width="32" height="24" rx="2" fill="white"/>
</clipPath>
</defs>
</svg>
