<svg width="32" height="24" viewBox="0 0 32 24" fill="none" xmlns="http://www.w3.org/2000/svg">
<g clip-path="url(#clip0_230_25034)">
<mask id="mask0_230_25034" style="mask-type:luminance" maskUnits="userSpaceOnUse" x="0" y="0" width="32" height="24">
<rect width="32" height="24" fill="white"/>
</mask>
<g mask="url(#mask0_230_25034)">
<path fill-rule="evenodd" clip-rule="evenodd" d="M0 0V24H32V0H0Z" fill="#F50100"/>
<mask id="mask1_230_25034" style="mask-type:luminance" maskUnits="userSpaceOnUse" x="0" y="0" width="32" height="24">
<path fill-rule="evenodd" clip-rule="evenodd" d="M0 0V24H32V0H0Z" fill="white"/>
</mask>
<g mask="url(#mask1_230_25034)">
<path fill-rule="evenodd" clip-rule="evenodd" d="M0 -0.0419312V4.04199L14 9.99324L3.25523 -0.0419312H0ZM16 12L19 2.90088e-05H13L16 12ZM16 12L13 24H19L16 12ZM0 19.9513V24.0352H3.25523L14 14L0 19.9513ZM32 4.06637V-0.0175544L28.7448 -0.0175545L18 10.0176L32 4.06637ZM32 24.0596V19.9757L18 14.0244L28.7448 24.0596H32ZM32 9.00003L20 12L32 15V9.00003ZM12 12L0 9.00003V15L12 12Z" fill="#FFD018"/>
<path d="M16 17C18.7614 17 21 14.7614 21 12C21 9.23858 18.7614 7 16 7C13.2386 7 11 9.23858 11 12C11 14.7614 13.2386 17 16 17Z" fill="#FFD018" stroke="#F50100" stroke-width="2"/>
</g>
</g>
<rect width="32" height="24" fill="url(#paint0_linear_230_25034)" style="mix-blend-mode:overlay"/>
</g>
<rect x="0.5" y="0.5" width="31" height="23" rx="1.5" stroke="black" stroke-opacity="0.1"/>
<defs>
<linearGradient id="paint0_linear_230_25034" x1="16" y1="0" x2="16" y2="24" gradientUnits="userSpaceOnUse">
<stop stop-color="white" stop-opacity="0.7"/>
<stop offset="1" stop-opacity="0.3"/>
</linearGradient>
<clipPath id="clip0_230_25034">
<rect width="32" height="24" rx="2" fill="white"/>
</clipPath>
</defs>
</svg>
