<svg width="32" height="24" viewBox="0 0 32 24" fill="none" xmlns="http://www.w3.org/2000/svg">
<g clip-path="url(#clip0_230_24570)">
<mask id="mask0_230_24570" style="mask-type:luminance" maskUnits="userSpaceOnUse" x="0" y="0" width="32" height="24">
<rect width="32" height="24" fill="white"/>
</mask>
<g mask="url(#mask0_230_24570)">
<path fill-rule="evenodd" clip-rule="evenodd" d="M0 0V24H32V0H0Z" fill="#2E42A5"/>
<mask id="mask1_230_24570" style="mask-type:luminance" maskUnits="userSpaceOnUse" x="0" y="0" width="32" height="24">
<path fill-rule="evenodd" clip-rule="evenodd" d="M0 0V24H32V0H0Z" fill="white"/>
</mask>
<g mask="url(#mask1_230_24570)">
<path fill-rule="evenodd" clip-rule="evenodd" d="M0 16V24H32V16H0Z" fill="#FECA00"/>
<mask id="mask2_230_24570" style="mask-type:luminance" maskUnits="userSpaceOnUse" x="0" y="0" width="32" height="16">
<rect width="32" height="16" fill="white"/>
</mask>
<g mask="url(#mask2_230_24570)">
<path d="M-2.26172 15.1294L4.081 16.5967L17.6021 9.12575L19.0328 8.28913L31.8764 1.57348L34.9191 -0.547552L27.9594 -1.18941L16.7378 5.1406L8.62844 9.12575L-2.26172 15.1294Z" fill="white"/>
<path d="M-1.70508 16.0185L1.70987 17.1387L33.6488 -0.814344H28.8538L-1.70508 16.0185Z" fill="#F50100"/>
<path d="M34.3712 14.7308L34.623 16.2408L27.9199 16.5967L17.1138 10.2673L16.0949 10.6154L-4.07997 0.410646L4.24986 -1.19269L15.3858 4.95919L24.0973 9.16845L34.3712 14.7308Z" fill="white"/>
<path d="M34.3945 15.6369L30.9796 16.7571L17.3797 9.07046L13.3476 8.21165L-3.2582 -0.537827H1.53678L18.1332 8.00398L22.5416 9.03378L34.3945 15.6369Z" fill="#F50100"/>
<path d="M13.189 -1.25V-2.5H11.939V-1.25H13.189ZM13.189 4.75V6H14.439V4.75H13.189ZM-1.25 4.75V3.5H-2.5V4.75H-1.25ZM-1.25 11.25H-2.5V12.5H-1.25V11.25ZM13.189 11.25H14.439V10H13.189V11.25ZM13.189 19.25H11.939V20.5H13.189V19.25ZM18.8775 19.25V20.5H20.1275V19.25H18.8775ZM18.8775 11.25V10H17.6275V11.25H18.8775ZM33.25 11.25V12.5H34.5V11.25H33.25ZM33.25 4.75H34.5V3.5H33.25V4.75ZM18.8775 4.75H17.6275V6H18.8775V4.75ZM18.8775 -1.25H20.1275V-2.5H18.8775V-1.25ZM16.3775 4.75V6H17.6275V4.75H16.3775ZM16.3775 1.25H17.6275V0H16.3775V1.25ZM15.689 1.25V0H14.439V1.25H15.689ZM15.689 4.75H14.439V6H15.689V4.75ZM16.3775 7.25H17.6275V6H16.3775V7.25ZM15.689 7.25V6H14.439V7.25H15.689ZM16.3775 8.75V10H17.6275V8.75H16.3775ZM15.689 8.75H14.439V10H15.689V8.75ZM13.189 7.25H14.439V6H13.189V7.25ZM1.25 7.25V6H0V7.25H1.25ZM1.25 8.75H0V10H1.25V8.75ZM13.189 8.75V10H14.439V8.75H13.189ZM15.689 11.25V10H14.439V11.25H15.689ZM15.689 16.75H14.439V18H15.689V16.75ZM16.3775 16.75V18H17.6275V16.75H16.3775ZM16.3775 11.25H17.6275V10H16.3775V11.25ZM18.8775 7.25V6H17.6275V7.25H18.8775ZM18.8775 8.75H17.6275V10H18.8775V8.75ZM30.75 7.25H32V6H30.75V7.25ZM30.75 8.75V10H32V8.75H30.75ZM13.189 0H14.439V-2.5H13.189V0ZM14.439 0V-1.25H11.939V0H14.439ZM14.439 4.75V0H11.939V4.75H14.439ZM0 6H13.189V3.5H0V6ZM-1.25 6H0V3.5H-1.25V6ZM0 6V4.75H-2.5V6H0ZM0 10V6H-2.5V10H0ZM0 11.25V10H-2.5V11.25H0ZM0 10H-1.25V12.5H0V10ZM13.189 10H0V12.5H13.189V10ZM14.439 18V11.25H11.939V18H14.439ZM14.439 19.25V18H11.939V19.25H14.439ZM14.439 18H13.189V20.5H14.439V18ZM17.6275 18H14.439V20.5H17.6275V18ZM18.8775 18H17.6275V20.5H18.8775V18ZM17.6275 18V19.25H20.1275V18H17.6275ZM17.6275 11.25V18H20.1275V11.25H17.6275ZM32 10H18.8775V12.5H32V10ZM33.25 10H32V12.5H33.25V10ZM32 10V11.25H34.5V10H32ZM32 6V10H34.5V6H32ZM32 4.75V6H34.5V4.75H32ZM32 6H33.25V3.5H32V6ZM18.8775 6H32V3.5H18.8775V6ZM17.6275 0V4.75H20.1275V0H17.6275ZM17.6275 -1.25V0H20.1275V-1.25H17.6275ZM17.6275 0H18.8775V-2.5H17.6275V0ZM14.439 0H17.6275V-2.5H14.439V0ZM17.6275 4.75V1.25H15.1275V4.75H17.6275ZM16.3775 0H15.689V2.5H16.3775V0ZM14.439 1.25V4.75H16.939V1.25H14.439ZM15.689 6H16.3775V3.5H15.689V6ZM16.3775 6H15.689V8.5H16.3775V6ZM17.6275 8.75V7.25H15.1275V8.75H17.6275ZM15.689 10H16.3775V7.5H15.689V10ZM14.439 7.25V8.75H16.939V7.25H14.439ZM13.189 6H1.25V8.5H13.189V6ZM0 7.25V8.75H2.5V7.25H0ZM1.25 10H13.189V7.5H1.25V10ZM14.439 8.75V7.25H11.939V8.75H14.439ZM14.439 11.25V16.75H16.939V11.25H14.439ZM15.689 18H16.3775V15.5H15.689V18ZM17.6275 16.75V11.25H15.1275V16.75H17.6275ZM16.3775 10H15.689V12.5H16.3775V10ZM17.6275 7.25V8.75H20.1275V7.25H17.6275ZM30.75 6H18.8775V8.5H30.75V6ZM32 8.75V7.25H29.5V8.75H32ZM18.8775 10H30.75V7.5H18.8775V10Z" fill="white"/>
<path fill-rule="evenodd" clip-rule="evenodd" d="M17.6923 -1.33337H14.3077V5.99996H0V9.99996H14.3077V19.3333H17.6923V9.99996H34V5.99996H17.6923V-1.33337Z" fill="#F50100"/>
</g>
<path fill-rule="evenodd" clip-rule="evenodd" d="M16.0488 10.6C17.5676 10.6 18.7988 9.36876 18.7988 7.84998C18.7988 6.33119 17.5676 5.09998 16.0488 5.09998C14.53 5.09998 13.2988 6.33119 13.2988 7.84998C13.2988 9.36876 14.53 10.6 16.0488 10.6Z" fill="#2E42A5"/>
<path fill-rule="evenodd" clip-rule="evenodd" d="M16.1 8.69127L14.8021 9.59441L15.26 8.08098L14 7.12571L15.5809 7.0935L16.1 5.59998L16.6191 7.0935L18.2 7.12571L16.94 8.08098L17.3979 9.59441L16.1 8.69127Z" fill="#FECA00"/>
<path fill-rule="evenodd" clip-rule="evenodd" d="M7.09961 8.57608L6.01805 9.3287L6.39961 8.0675L5.34961 7.27145L6.66699 7.2446L7.09961 6L7.53223 7.2446L8.84961 7.27145L7.79961 8.0675L8.18117 9.3287L7.09961 8.57608Z" fill="#FECA00"/>
<path fill-rule="evenodd" clip-rule="evenodd" d="M25.0996 8.57608L24.018 9.3287L24.3996 8.0675L23.3496 7.27145L24.667 7.2446L25.0996 6L25.5322 7.2446L26.8496 7.27145L25.7996 8.0675L26.1812 9.3287L25.0996 8.57608Z" fill="#FECA00"/>
<path fill-rule="evenodd" clip-rule="evenodd" d="M16.0996 3.77603L15.018 4.52865L15.3996 3.26745L14.3496 2.4714L15.667 2.44455L16.0996 1.19995L16.5322 2.44455L17.8496 2.4714L16.7996 3.26745L17.1812 4.52865L16.0996 3.77603Z" fill="#FECA00"/>
<path fill-rule="evenodd" clip-rule="evenodd" d="M16.0996 14.376L15.018 15.1286L15.3996 13.8674L14.3496 13.0714L15.667 13.0445L16.0996 11.7999L16.5322 13.0445L17.8496 13.0714L16.7996 13.8674L17.1812 15.1286L16.0996 14.376Z" fill="#FECA00"/>
</g>
</g>
<rect width="32" height="24" fill="url(#paint0_linear_230_24570)" style="mix-blend-mode:overlay"/>
</g>
<rect x="0.5" y="0.5" width="31" height="23" rx="1.5" stroke="black" stroke-opacity="0.1"/>
<defs>
<linearGradient id="paint0_linear_230_24570" x1="16" y1="0" x2="16" y2="24" gradientUnits="userSpaceOnUse">
<stop stop-color="white" stop-opacity="0.7"/>
<stop offset="1" stop-opacity="0.3"/>
</linearGradient>
<clipPath id="clip0_230_24570">
<rect width="32" height="24" rx="2" fill="white"/>
</clipPath>
</defs>
</svg>
