<svg width="32" height="24" viewBox="0 0 32 24" fill="none" xmlns="http://www.w3.org/2000/svg">
<g clip-path="url(#clip0_230_25120)">
<mask id="mask0_230_25120" style="mask-type:luminance" maskUnits="userSpaceOnUse" x="0" y="0" width="32" height="24">
<rect width="32" height="24" fill="white"/>
</mask>
<g mask="url(#mask0_230_25120)">
<path fill-rule="evenodd" clip-rule="evenodd" d="M22 0H32V24H22V0Z" fill="#D9071E"/>
<path fill-rule="evenodd" clip-rule="evenodd" d="M0 0H12V24H0V0Z" fill="#3D58DB"/>
<path fill-rule="evenodd" clip-rule="evenodd" d="M10 0H22V24H10V0Z" fill="#FBCD17"/>
<path fill-rule="evenodd" clip-rule="evenodd" d="M21.7186 19.6141L20.6655 20.1895L17.175 13.8007L18.2281 13.2253L21.7186 19.6141ZM10.5137 19.7678L11.5667 20.3431L15.0573 13.9543L14.0042 13.379L10.5137 19.7678Z" fill="#FD1900"/>
<path fill-rule="evenodd" clip-rule="evenodd" d="M11.3782 9.38903V14.9404C11.3782 16.1735 10.3163 17.7807 9.7808 18.3786C9.24527 18.9765 8.18164 20.3462 8.18164 20.3462V5.40833C8.18164 3.73276 9.7808 3.15718 9.7808 3.15718C9.7808 3.15718 11.1086 3.41987 11.3782 5.40833V7.34629C11.7892 7.66994 13.1615 8.66252 14.0481 8.24352C15.1007 7.74601 15.4643 6.31905 15.4643 6.31905C15.4643 6.31905 15.3658 4.87916 14.9338 4.87916C14.5017 4.87916 14.4672 2.85089 16.1218 2.85089C17.7764 2.85089 17.9693 3.63271 17.9693 4.25594C17.9693 4.58263 17.7075 5.10692 17.4582 5.60585C17.232 6.05872 17.0163 6.49069 17.0163 6.73502C17.0163 7.24851 17.4032 8.24352 17.9693 8.24352C18.3664 8.24352 20.2763 7.50151 21.3816 7.05831V5.40833C21.6512 3.41987 22.979 3.15718 22.979 3.15718C22.979 3.15718 24.5782 3.73276 24.5782 5.40833V20.3462C24.5782 20.3462 23.5146 18.9765 22.979 18.3786C22.4435 17.7807 21.3816 16.1735 21.3816 14.9404V9.38903H11.3782ZM13.1503 19.8322C14.2319 19.128 15.814 15.9702 15.814 15.9702L16.3393 16.0922C16.3393 16.0922 17.1414 18.1838 19.4998 19.8322C16.986 20.5031 16.3393 21.8502 16.3393 21.8502C16.3393 20.7725 13.1503 19.8322 13.1503 19.8322ZM12.9761 17.8333C13.7051 17.8333 14.2961 17.2737 14.2961 16.5833C14.2961 15.893 13.7051 15.3333 12.9761 15.3333C12.2471 15.3333 11.6561 15.893 11.6561 16.5833C11.6561 17.2737 12.2471 17.8333 12.9761 17.8333ZM20.7201 16.5833C20.7201 17.2737 20.1291 17.8333 19.4001 17.8333C18.6711 17.8333 18.0801 17.2737 18.0801 16.5833C18.0801 15.893 18.6711 15.3333 19.4001 15.3333C20.1291 15.3333 20.7201 15.893 20.7201 16.5833Z" fill="#A77B3B"/>
<path d="M25.14 10.4077L26.0579 10.8044L22.3183 19.4563L21.4004 19.0596L25.14 10.4077Z" fill="#FDFF00"/>
<path opacity="0.3" fill-rule="evenodd" clip-rule="evenodd" d="M11.0391 7.83331H21.5991V15.4722C21.5991 15.4722 18.912 16.2816 16.3191 17.6097C14.405 16.1898 11.0391 15.4722 11.0391 15.4722V7.83331Z" fill="#E1E5E8"/>
<mask id="mask1_230_25120" style="mask-type:luminance" maskUnits="userSpaceOnUse" x="11" y="7" width="11" height="11">
<path fill-rule="evenodd" clip-rule="evenodd" d="M11.0391 7.83331H21.5991V15.4722C21.5991 15.4722 18.912 16.2816 16.3191 17.6097C14.405 16.1898 11.0391 15.4722 11.0391 15.4722V7.83331Z" fill="white"/>
</mask>
<g mask="url(#mask1_230_25120)">
<rect x="11.0391" y="12.8333" width="10.56" height="5" fill="#3D58DB"/>
<rect x="11.0391" y="7.83331" width="10.56" height="5" fill="#FD1900"/>
<path fill-rule="evenodd" clip-rule="evenodd" d="M15.7855 10.0821L14.9851 10.1484L15.4467 9.5257L14.9548 8.88086L15.7592 8.98444L16.0677 8.27336L16.4105 8.99959L17.2108 8.93336L16.7492 9.55601L17.2411 10.2009L16.4367 10.0973L16.1283 10.8084L15.7855 10.0821Z" fill="#FDFF00"/>
<path fill-rule="evenodd" clip-rule="evenodd" d="M14.3488 8.67169C14.3488 8.67169 12.1988 9.97969 12.9155 10.9186C13.6321 11.8576 14.5342 11.9778 14.5342 11.9778C14.5342 11.9778 12.335 15.2771 16.2057 17.1619C20.3497 15.3423 18.1703 11.9778 18.1703 11.9778C18.1703 11.9778 19.446 11.6955 19.7014 10.6803C19.9568 9.6651 18.034 8.50067 18.034 8.50067C18.034 8.50067 19.2336 10.2395 18.9598 10.6803C18.6859 11.1212 17.2188 11.57 16.2057 11.57C15.1926 11.57 13.6282 11.2855 13.3757 10.5152C13.1232 9.74485 14.3488 8.67169 14.3488 8.67169Z" fill="#FDFF00"/>
<path fill-rule="evenodd" clip-rule="evenodd" d="M12.3591 12L13.6791 12.8333L12.3591 13.6667L11.0391 12.8333L12.3591 12Z" fill="#FDFF00"/>
<path fill-rule="evenodd" clip-rule="evenodd" d="M20.279 12L21.599 12.8333L20.279 13.6667L18.959 12.8333L20.279 12Z" fill="#FDFF00"/>
<path fill-rule="evenodd" clip-rule="evenodd" d="M12.3199 15.3C12.5408 15.3 12.7199 15.1209 12.7199 14.9C12.7199 14.6791 12.5408 14.5 12.3199 14.5C12.099 14.5 11.9199 14.6791 11.9199 14.9C11.9199 15.1209 12.099 15.3 12.3199 15.3Z" fill="#FDFF00"/>
<path fill-rule="evenodd" clip-rule="evenodd" d="M20.8289 14.5428C20.4856 14.2647 19.9593 14.3455 19.6534 14.7232C19.3476 15.1009 19.378 15.6325 19.7213 15.9106C19.9079 16.0617 19.8106 15.4612 20.093 15.0792C20.3303 14.7583 20.9857 14.6697 20.8289 14.5428Z" fill="#FDFF00"/>
</g>
<path fill-rule="evenodd" clip-rule="evenodd" d="M4.73633 11.529C4.73633 11.529 5.79045 12.7752 6.78302 12.3677C7.77558 11.9603 7.53494 10.4995 7.53494 10.4995L6.78302 11.1816H6.14296V11.529L5.64306 11.1816V11.529H4.73633ZM5.44925 13.444C5.44925 13.444 6.73404 14.5646 7.59963 14.2479C8.46522 13.9313 8.24786 12.4145 8.24786 12.4145L7.49594 13.0966H6.85588V13.444L6.35598 13.0966V13.444H5.44925ZM8.90906 15.9869C8.04347 16.3036 6.75868 15.183 6.75868 15.183H7.66541V14.8356L8.16531 15.183V14.8356H8.80537L9.55729 14.1535C9.55729 14.1535 9.77465 15.6703 8.90906 15.9869Z" fill="#048F02"/>
<path fill-rule="evenodd" clip-rule="evenodd" d="M13.9785 2.24847H12.9785V2.84406H12.5078V3.84406H12.9785V5.58869H13.9785V3.84406H14.5507V2.84406H13.9785V2.24847Z" fill="#FDFF00"/>
<path fill-rule="evenodd" clip-rule="evenodd" d="M15.1579 3.38452L12.8418 3.98117L15.1579 4.71305V3.38452Z" fill="#DB4400"/>
</g>
<rect width="32" height="24" fill="url(#paint0_linear_230_25120)" style="mix-blend-mode:overlay"/>
</g>
<rect x="0.5" y="0.5" width="31" height="23" rx="1.5" stroke="black" stroke-opacity="0.1"/>
<defs>
<linearGradient id="paint0_linear_230_25120" x1="16" y1="0" x2="16" y2="24" gradientUnits="userSpaceOnUse">
<stop stop-color="white" stop-opacity="0.7"/>
<stop offset="1" stop-opacity="0.3"/>
</linearGradient>
<clipPath id="clip0_230_25120">
<rect width="32" height="24" rx="2" fill="white"/>
</clipPath>
</defs>
</svg>
