<svg width="32" height="24" viewBox="0 0 32 24" fill="none" xmlns="http://www.w3.org/2000/svg">
<g clip-path="url(#clip0_230_23738)">
<mask id="mask0_230_23738" style="mask-type:luminance" maskUnits="userSpaceOnUse" x="0" y="0" width="32" height="24">
<rect width="32" height="24" fill="white"/>
</mask>
<g mask="url(#mask0_230_23738)">
<path fill-rule="evenodd" clip-rule="evenodd" d="M0 0V24H32V0H0Z" fill="#3D58DB"/>
<mask id="mask1_230_23738" style="mask-type:luminance" maskUnits="userSpaceOnUse" x="0" y="0" width="32" height="24">
<path fill-rule="evenodd" clip-rule="evenodd" d="M0 0V24H32V0H0Z" fill="white"/>
</mask>
<g mask="url(#mask1_230_23738)">
<path fill-rule="evenodd" clip-rule="evenodd" d="M0 24H32V0L0 24Z" fill="#579D20"/>
<path d="M-0.782189 24.7452L-2.58594 22.2491L33.675 -1.95435L35.4787 0.541743L-0.782189 24.7452Z" fill="#FECA00"/>
<path fill-rule="evenodd" clip-rule="evenodd" d="M3.65318 6.54657L5.01675 5.60077L6.44477 6.45095L5.94461 4.92664L6.9433 3.83588H5.5902L5.01675 2.23401L4.4433 3.83588L3.08789 3.89183L4.08889 4.92664L3.65318 6.54657ZM9.31136 6.54657L10.6749 5.60077L12.103 6.45095L11.6028 4.92664L12.6015 3.83588H11.2484L10.6749 2.23401L10.1015 3.83588L8.74607 3.89183L9.74707 4.92664L9.31136 6.54657Z" fill="#F7FCFF"/>
<path fill-rule="evenodd" clip-rule="evenodd" d="M6.64789 9.45452L8.01146 8.50873L9.43948 9.35891L8.93931 7.8346L9.93801 6.74383H8.5849L8.01146 5.14197L7.43801 6.74383L6.0826 6.79979L7.0836 7.8346L6.64789 9.45452ZM5.01675 11.6008L3.65318 12.5466L4.08889 10.9266L3.08789 9.89182L4.4433 9.83587L5.01675 8.234L5.5902 9.83587H6.9433L5.94461 10.9266L6.44477 12.4509L5.01675 11.6008ZM10.6749 11.6008L9.31136 12.5466L9.74707 10.9266L8.74607 9.89182L10.1015 9.83587L10.6749 8.234L11.2484 9.83587H12.6015L11.6028 10.9266L12.103 12.4509L10.6749 11.6008Z" fill="#F7FCFF"/>
</g>
</g>
<rect width="32" height="24" fill="url(#paint0_linear_230_23738)" style="mix-blend-mode:overlay"/>
</g>
<rect x="0.5" y="0.5" width="31" height="23" rx="1.5" stroke="black" stroke-opacity="0.1"/>
<defs>
<linearGradient id="paint0_linear_230_23738" x1="16" y1="0" x2="16" y2="24" gradientUnits="userSpaceOnUse">
<stop stop-color="white" stop-opacity="0.7"/>
<stop offset="1" stop-opacity="0.3"/>
</linearGradient>
<clipPath id="clip0_230_23738">
<rect width="32" height="24" rx="2" fill="white"/>
</clipPath>
</defs>
</svg>
