<svg width="32" height="24" viewBox="0 0 32 24" fill="none" xmlns="http://www.w3.org/2000/svg">
<g clip-path="url(#clip0_230_24964)">
<mask id="mask0_230_24964" style="mask-type:luminance" maskUnits="userSpaceOnUse" x="0" y="0" width="32" height="24">
<rect width="32" height="24" fill="white"/>
</mask>
<g mask="url(#mask0_230_24964)">
<path fill-rule="evenodd" clip-rule="evenodd" d="M0 0V24H32V0H0Z" fill="#1C9975"/>
<mask id="mask1_230_24964" style="mask-type:luminance" maskUnits="userSpaceOnUse" x="0" y="0" width="32" height="24">
<path fill-rule="evenodd" clip-rule="evenodd" d="M0 0V24H32V0H0Z" fill="white"/>
</mask>
<g mask="url(#mask1_230_24964)">
<path fill-rule="evenodd" clip-rule="evenodd" d="M16.02 6.8537L14.3863 7.83998L14.7589 5.91536L13.3984 4.47497L15.2406 4.39709L16.02 2.59998L16.7994 4.39709H18.6384L17.2811 5.91536L17.6897 7.83998L16.02 6.8537Z" fill="#FECA00"/>
<path fill-rule="evenodd" clip-rule="evenodd" d="M11.3827 7.58445L10.3725 8.19428L10.6029 7.00426L9.76172 6.11364L10.9008 6.06548L11.3827 4.95428L11.8646 6.06548H13.0017L12.1624 7.00426L12.4151 8.19428L11.3827 7.58445Z" fill="#FECA00"/>
<path fill-rule="evenodd" clip-rule="evenodd" d="M20.58 7.58445L19.5698 8.19428L19.8002 7.00426L18.959 6.11364L20.098 6.06548L20.58 4.95428L21.0619 6.06548H22.199L21.3597 7.00426L21.6124 8.19428L20.58 7.58445Z" fill="#FECA00"/>
<path fill-rule="evenodd" clip-rule="evenodd" d="M8.76562 9.61063L7.955 10.1L8.1399 9.14504L7.46484 8.43034L8.3789 8.3917L8.76562 7.5L9.15234 8.3917H10.0648L9.39135 9.14504L9.59411 10.1L8.76562 9.61063Z" fill="#FECA00"/>
<path fill-rule="evenodd" clip-rule="evenodd" d="M23.5605 9.61063L22.7499 10.1L22.9348 9.14504L22.2598 8.43034L23.1738 8.3917L23.5605 7.5L23.9473 8.3917H24.8598L24.1863 9.14504L24.389 10.1L23.5605 9.61063Z" fill="#FECA00"/>
<mask id="mask2_230_24964" style="mask-type:luminance" maskUnits="userSpaceOnUse" x="8" y="6" width="16" height="16">
<path fill-rule="evenodd" clip-rule="evenodd" d="M16 22C20.4183 22 24 18.4183 24 14C24 9.58172 20.4183 6 16 6C11.5817 6 8 9.58172 8 14C8 18.4183 11.5817 22 16 22Z" fill="white"/>
</mask>
<g mask="url(#mask2_230_24964)">
<path fill-rule="evenodd" clip-rule="evenodd" d="M12.6816 21.0638H19.3199V22.1362H12.6816V21.0638Z" fill="#F7FCFF"/>
<path fill-rule="evenodd" clip-rule="evenodd" d="M9.95703 19.46H22.723V20.4429H9.95703V19.46Z" fill="#F7FCFF"/>
<path d="M12.6196 19.0206H8.71484V18.0206L12.6125 18.0206C13.9932 18.0012 15.0021 17.6069 15.6753 16.8482L16.0107 16.4701L16.3852 16.8096C17.2842 17.6248 18.1823 18.0206 19.0907 18.0206H23.395V19.0206H19.0907C18.0471 19.0206 17.0394 18.628 16.076 17.8592C15.2227 18.6156 14.0641 19.0003 12.6196 19.0206Z" fill="#F7FCFF"/>
</g>
<path fill-rule="evenodd" clip-rule="evenodd" d="M16.0353 7.60779C16.0353 7.60779 14.3265 9.29579 14.3265 11.6124C14.3265 12.1081 14.4048 12.5765 14.5278 13.0064C13.9773 11.7863 13.9391 10.4632 14.4142 9.02003L13.7675 8.80713C13.2842 10.2753 13.2821 11.6556 13.762 12.9348C12.7694 12.3368 11.6273 11.9349 10.4551 11.8054L10.3803 12.4821C11.4047 12.5953 12.4046 12.9369 13.2825 13.4426C13.0657 13.3552 12.8385 13.2792 12.6014 13.2186C10.4384 12.6666 8.31641 13.4494 8.31641 13.4494C8.31641 13.4494 9.5405 16.1956 11.9114 16.6006C12.0296 16.6208 12.1464 16.6365 12.2618 16.6481L12.2439 16.6482C11.1135 16.6482 10.0623 16.186 9.0779 15.247L8.60796 15.7397C9.71363 16.7944 10.9297 17.329 12.2439 17.329C13.5291 17.329 14.7228 16.8176 15.8134 15.8086C15.9884 15.7029 16.0908 15.6273 16.1072 15.615L16.1501 15.6515C16.1276 15.6901 16.1163 15.7112 16.1163 15.7112C16.1163 15.7112 16.2238 15.7763 16.4178 15.868C17.4947 16.7027 18.842 17.329 19.9081 17.329C21.2222 17.329 22.4383 16.7944 23.544 15.7397L23.0741 15.247C22.0897 16.186 21.0385 16.6482 19.9081 16.6482C19.4951 16.6482 19.0904 16.5818 18.6935 16.4483C19.2493 16.4782 19.8617 16.4281 20.4955 16.2344C22.831 15.5203 23.8045 13.3607 23.8045 13.3607C23.8045 13.3607 22.5618 12.6902 20.9836 12.6827C21.3372 12.5915 21.7062 12.5246 22.091 12.4821L22.0162 11.8054C20.536 11.969 19.2553 12.4686 18.181 13.3023C18.8091 11.9211 18.8578 10.4169 18.3278 8.80713L17.6811 9.02003C18.1142 10.3355 18.1208 11.5511 17.7017 12.68C17.7735 12.3462 17.8159 11.9894 17.8159 11.6124C17.8159 9.17022 16.0353 7.60779 16.0353 7.60779ZM16.787 14.7554L16.7616 14.7919L16.7926 14.7551L16.787 14.7554ZM15.1354 14.596L15.2023 14.5344C15.2632 14.6355 15.3239 14.7307 15.3832 14.8195C15.3063 14.747 15.2236 14.6721 15.1354 14.596Z" fill="#F7FCFF"/>
</g>
</g>
<rect width="32" height="24" fill="url(#paint0_linear_230_24964)" style="mix-blend-mode:overlay"/>
</g>
<rect x="0.5" y="0.5" width="31" height="23" rx="1.5" stroke="black" stroke-opacity="0.1"/>
<defs>
<linearGradient id="paint0_linear_230_24964" x1="16" y1="0" x2="16" y2="24" gradientUnits="userSpaceOnUse">
<stop stop-color="white" stop-opacity="0.7"/>
<stop offset="1" stop-opacity="0.3"/>
</linearGradient>
<clipPath id="clip0_230_24964">
<rect width="32" height="24" rx="2" fill="white"/>
</clipPath>
</defs>
</svg>
