<svg width="32" height="24" viewBox="0 0 32 24" fill="none" xmlns="http://www.w3.org/2000/svg">
<g clip-path="url(#clip0_230_23820)">
<mask id="mask0_230_23820" style="mask-type:luminance" maskUnits="userSpaceOnUse" x="0" y="0" width="32" height="24">
<rect width="32" height="24" fill="white"/>
</mask>
<g mask="url(#mask0_230_23820)">
<path fill-rule="evenodd" clip-rule="evenodd" d="M0 0V24H32V0H0Z" fill="#4857A1"/>
<mask id="mask1_230_23820" style="mask-type:luminance" maskUnits="userSpaceOnUse" x="0" y="0" width="32" height="24">
<path fill-rule="evenodd" clip-rule="evenodd" d="M0 0V24H32V0H0Z" fill="white"/>
</mask>
<g mask="url(#mask1_230_23820)">
<path fill-rule="evenodd" clip-rule="evenodd" d="M0 0V8H32V0H0Z" fill="#C51918"/>
<path fill-rule="evenodd" clip-rule="evenodd" d="M0 16V24H32V16H0Z" fill="#F7FCFF"/>
<path fill-rule="evenodd" clip-rule="evenodd" d="M11.456 3.8032L11.3428 3.34973C11.4393 3.37936 11.5441 3.40976 11.6546 3.44102L11.6536 3.43522C12.9736 3.55496 15.0142 4.23825 15.394 4.96399C15.5408 5.2445 15.3948 5.48363 15.2035 5.797C15.1749 5.84383 15.1453 5.89231 15.1155 5.94284C15.0193 6.10601 14.9321 6.262 14.8499 6.40901C14.5534 6.93939 14.3222 7.35288 13.9703 7.56527L13.9773 8.76626L8.08178 8.71557L8.07414 7.50246C7.77276 7.27677 7.55718 6.89119 7.28759 6.40901C7.20539 6.262 7.11818 6.10601 7.02199 5.94284C6.9922 5.89231 6.96259 5.84383 6.934 5.797C6.74268 5.48363 6.59668 5.2445 6.7435 4.96399C7.02909 4.41834 8.32296 3.88767 9.50855 3.60701C9.74183 3.52406 9.98563 3.44654 10.2273 3.37231L10.3352 3.4504C10.429 3.43761 10.5198 3.42718 10.6069 3.41927L10.7427 3.72216H11.2228C11.2228 3.72216 11.5126 4.58271 11.5126 5.06062C11.5126 5.53853 11.2228 5.93373 11.2228 5.93373V6.26363C11.2731 6.26782 11.3259 6.27294 11.3808 6.27886C11.3812 6.25024 11.384 6.2201 11.3894 6.18926C11.4172 6.03161 11.5036 5.91507 11.5825 5.92897C11.6613 5.94287 11.7027 6.08194 11.6749 6.23959C11.6703 6.26522 11.6643 6.28977 11.6569 6.31284C11.968 6.35514 12.3165 6.41419 12.6466 6.47493C12.7724 6.23124 12.9256 5.99048 13.072 5.76059C13.4503 5.16639 13.7823 4.64489 13.4725 4.33359C13.4137 4.27455 13.3074 4.21963 13.1702 4.16876C12.7169 4.05597 12.2233 3.96896 11.7436 3.92545L11.7292 3.84664C11.6335 3.83109 11.5416 3.81661 11.456 3.8032ZM13.6962 6.68268C13.8638 6.71799 13.9655 6.74045 13.9655 6.74045L13.9665 6.91231C14.5506 6.46213 14.9638 5.46463 15.0011 5.13787C15.0235 4.94087 14.7111 4.71374 14.2213 4.50796C14.4531 4.94762 14.1427 5.38392 13.753 5.93147C13.6066 6.13725 13.449 6.35874 13.3048 6.60203L13.4478 6.63108C13.4466 6.5859 13.4525 6.5351 13.4665 6.48287C13.5079 6.32825 13.6042 6.21969 13.6815 6.24041C13.7588 6.26112 13.7879 6.40327 13.7465 6.55789C13.734 6.60441 13.7166 6.64676 13.6962 6.68268ZM10.6837 6.26586V5.89846C10.6837 5.89846 10.4328 5.61797 10.3939 5.03383C10.366 4.61597 10.4522 4.12475 10.5035 3.87894C10.129 3.92642 9.73429 4.00017 9.35207 4.09074C9.09846 4.16214 8.89635 4.24302 8.80621 4.33359C8.49635 4.64489 8.82836 5.16639 9.20666 5.76059L9.20666 5.76059L9.20667 5.7606L9.20668 5.76061C9.34804 5.98266 9.49587 6.21485 9.61908 6.45002C9.83217 6.40388 10.0463 6.36118 10.2462 6.3272C10.2376 6.29629 10.2314 6.26256 10.2283 6.22706C10.2144 6.06758 10.2677 5.93265 10.3475 5.92567C10.4272 5.9187 10.5031 6.04232 10.5171 6.20179C10.5196 6.2307 10.5199 6.2588 10.5183 6.28547C10.5757 6.27778 10.631 6.27118 10.6837 6.26586ZM8.52564 5.93148L8.52564 5.93147L8.52564 5.93147C8.12719 5.37154 7.81153 4.92795 8.07389 4.47814C7.50039 4.70021 7.11402 4.94139 7.13642 5.13787C7.17162 5.44661 7.54247 6.35409 8.07594 6.833C8.1131 6.82264 8.31938 6.76541 8.61053 6.69056C8.58819 6.65567 8.56846 6.61413 8.55352 6.56814C8.50405 6.41589 8.52566 6.27242 8.60178 6.24768C8.6779 6.22295 8.77972 6.32632 8.82918 6.47856C8.84626 6.53111 8.85486 6.58261 8.85569 6.62854L8.97253 6.59971C8.82869 6.35734 8.67162 6.13661 8.52565 5.93149L8.52565 5.93149L8.52564 5.93148Z" fill="#F6C540"/>
<path fill-rule="evenodd" clip-rule="evenodd" d="M11.6525 3.50591C11.6525 3.85739 11.3605 4.14232 11.0003 4.14232C10.6401 4.14232 10.3481 3.85739 10.3481 3.50591C10.3481 3.15444 10.6401 2.86951 11.0003 2.86951C11.3605 2.86951 11.6525 3.15444 11.6525 3.50591ZM11.0003 8.23183C11.2805 8.23183 11.5076 8.10205 11.5076 7.94197C11.5076 7.78189 11.2805 7.65212 11.0003 7.65212C10.7202 7.65212 10.4931 7.78189 10.4931 7.94197C10.4931 8.10205 10.7202 8.23183 11.0003 8.23183ZM8.46408 8.15936C8.46408 8.27942 8.36675 8.37675 8.24669 8.37675C8.12663 8.37675 8.0293 8.27942 8.0293 8.15936C8.0293 8.0393 8.12663 7.94197 8.24669 7.94197C8.36675 7.94197 8.46408 8.0393 8.46408 8.15936ZM14.2612 8.15936C14.2612 8.27942 14.1639 8.37675 14.0438 8.37675C13.9237 8.37675 13.8264 8.27942 13.8264 8.15936C13.8264 8.0393 13.9237 7.94197 14.0438 7.94197C14.1639 7.94197 14.2612 8.0393 14.2612 8.15936Z" fill="#2E42A5"/>
<path fill-rule="evenodd" clip-rule="evenodd" d="M9.91409 8.01439C9.91409 8.13445 9.75188 8.23178 9.55177 8.23178C9.35167 8.23178 9.18945 8.13445 9.18945 8.01439C9.18945 7.89433 9.35167 7.797 9.55177 7.797C9.75188 7.797 9.91409 7.89433 9.91409 8.01439ZM12.9576 8.01439C12.9576 8.13445 12.7954 8.23178 12.5953 8.23178C12.3951 8.23178 12.2329 8.13445 12.2329 8.01439C12.2329 7.89433 12.3951 7.797 12.5953 7.797C12.7954 7.797 12.9576 7.89433 12.9576 8.01439Z" fill="#C5363C"/>
<path fill-rule="evenodd" clip-rule="evenodd" d="M12.2317 6.20282C12.2317 6.3629 12.1668 6.49267 12.0868 6.49267C12.0067 6.49267 11.9418 6.3629 11.9418 6.20282C11.9418 6.04274 12.0067 5.91296 12.0868 5.91296C12.1668 5.91296 12.2317 6.04274 12.2317 6.20282ZM10.0507 6.15803C10.1002 6.31028 10.0785 6.45375 10.0024 6.47849C9.9263 6.50322 9.82448 6.39985 9.77502 6.2476C9.72555 6.09536 9.74716 5.95188 9.82328 5.92715C9.8994 5.90242 10.0012 6.00579 10.0507 6.15803ZM8.34577 6.94387C8.42189 6.91913 8.4435 6.77566 8.39403 6.62341C8.34456 6.47117 8.24275 6.3678 8.16663 6.39253C8.0905 6.41727 8.06889 6.56074 8.11836 6.71299C8.16783 6.86523 8.26964 6.9686 8.34577 6.94387ZM14.0804 6.74716C13.9955 6.88291 13.8718 6.95858 13.8039 6.91617C13.736 6.87375 13.7497 6.72932 13.8346 6.59356C13.9194 6.4578 14.0432 6.38213 14.1111 6.42455C14.179 6.46696 14.1652 6.6114 14.0804 6.74716Z" fill="#F7FCFF"/>
<path fill-rule="evenodd" clip-rule="evenodd" d="M9.7698 3.79232C9.81022 3.82174 9.85998 3.8391 9.9138 3.8391C10.0491 3.8391 10.1587 3.72944 10.1587 3.59417C10.1587 3.4589 10.0491 3.34924 9.9138 3.34924C9.81787 3.34924 9.73482 3.40439 9.69463 3.48472C9.65422 3.45529 9.60445 3.43793 9.55063 3.43793C9.46433 3.43793 9.38846 3.48256 9.34484 3.55C9.30252 3.51512 9.24829 3.49417 9.18916 3.49417C9.05389 3.49417 8.94424 3.60383 8.94424 3.7391C8.94424 3.74664 8.94458 3.7541 8.94524 3.76147C8.90035 3.70572 8.83153 3.67005 8.75438 3.67005C8.63178 3.67005 8.53022 3.76013 8.51227 3.87772C8.46743 3.82067 8.39779 3.78403 8.3196 3.78403C8.20205 3.78403 8.10385 3.86683 8.08013 3.97729C8.03991 3.94834 7.99055 3.93129 7.93722 3.93129C7.82868 3.93129 7.73663 4.00189 7.70449 4.09967C7.67153 4.08317 7.63433 4.07388 7.59496 4.07388C7.47411 4.07388 7.3737 4.16141 7.35367 4.27653C7.33797 4.27337 7.32173 4.27172 7.30511 4.27172C7.17113 4.27172 7.06227 4.37929 7.06021 4.51278C7.04564 4.51008 7.03061 4.50866 7.01525 4.50866C6.87998 4.50866 6.77032 4.61832 6.77032 4.75359C6.77032 4.77074 6.77209 4.78748 6.77544 4.80364C6.75929 4.80028 6.74255 4.79852 6.7254 4.79852C6.59013 4.79852 6.48047 4.90818 6.48047 5.04345C6.48047 5.14622 6.54377 5.23421 6.63351 5.27055C6.62822 5.29058 6.6254 5.31161 6.6254 5.3333C6.6254 5.43607 6.6887 5.52406 6.77844 5.56041C6.77314 5.58044 6.77032 5.60147 6.77032 5.62316C6.77032 5.75521 6.87483 5.86286 7.00565 5.8679C6.95049 5.91281 6.91525 5.98126 6.91525 6.05794C6.91525 6.19321 7.02491 6.30287 7.16018 6.30287C7.29545 6.30287 7.40511 6.19321 7.40511 6.05794C7.40511 5.92588 7.3006 5.81824 7.16978 5.8132C7.22494 5.76829 7.26018 5.69984 7.26018 5.62316C7.26018 5.52038 7.19688 5.43239 7.10714 5.39605C7.11243 5.37602 7.11525 5.35499 7.11525 5.3333C7.11525 5.23053 7.05195 5.14254 6.96221 5.10619C6.9675 5.08617 6.97032 5.06514 6.97032 5.04345C6.97032 5.0263 6.96856 5.00956 6.96521 4.9934C6.98136 4.99676 6.9981 4.99852 7.01525 4.99852C7.14923 4.99852 7.25808 4.89094 7.26015 4.75746C7.27472 4.76016 7.28975 4.76157 7.30511 4.76157C7.42596 4.76157 7.52637 4.67404 7.5464 4.55892C7.5621 4.56208 7.57833 4.56374 7.59496 4.56374C7.7035 4.56374 7.79555 4.49314 7.82769 4.39535C7.86065 4.41186 7.89785 4.42114 7.93722 4.42114C7.99095 4.42114 8.04065 4.40384 8.08103 4.3745C8.08865 4.40725 8.10284 4.43749 8.12213 4.46374C8.0923 4.50432 8.07467 4.55443 8.07467 4.60866C8.07467 4.74072 8.17918 4.84837 8.31 4.85341C8.25484 4.89832 8.2196 4.96677 8.2196 5.04345C8.2196 5.14622 8.2829 5.23421 8.37264 5.27055C8.36735 5.29058 8.36453 5.31161 8.36453 5.3333C8.36453 5.43607 8.42783 5.52406 8.51757 5.56041C8.51227 5.58044 8.50945 5.60147 8.50945 5.62316C8.50945 5.75843 8.61911 5.86808 8.75438 5.86808C8.88965 5.86808 8.99931 5.75843 8.99931 5.62316C8.99931 5.52038 8.93601 5.43239 8.84627 5.39605C8.85156 5.37602 8.85438 5.35499 8.85438 5.3333C8.85438 5.23053 8.79108 5.14254 8.70134 5.10619C8.70663 5.08617 8.70945 5.06514 8.70945 5.04345C8.70945 4.91139 8.60495 4.80374 8.47412 4.7987C8.52929 4.75379 8.56453 4.68534 8.56453 4.60866C8.56453 4.55443 8.5469 4.50432 8.51707 4.46374C8.5469 4.42315 8.56453 4.37304 8.56453 4.31881C8.56453 4.26458 8.5469 4.21446 8.51707 4.17388C8.53993 4.14278 8.55563 4.10608 8.56171 4.06621C8.60655 4.12326 8.67619 4.1599 8.75438 4.1599C8.88965 4.1599 8.99931 4.05025 8.99931 3.91498C8.99931 3.90744 8.99897 3.89997 8.9983 3.89261C9.0432 3.94836 9.11201 3.98403 9.18916 3.98403C9.27546 3.98403 9.35133 3.9394 9.39496 3.87196C9.43728 3.90684 9.49151 3.92779 9.55063 3.92779C9.64656 3.92779 9.72961 3.87264 9.7698 3.79232ZM8.3196 4.27388C8.40064 4.27388 8.47248 4.23452 8.51707 4.17388C8.47248 4.11324 8.40064 4.07388 8.3196 4.07388C8.34441 4.07388 8.36453 4.05377 8.36453 4.02895C8.36453 4.00414 8.34441 3.98403 8.3196 3.98403C8.29479 3.98403 8.27467 4.00414 8.27467 4.02895C8.27467 4.05377 8.29479 4.07388 8.3196 4.07388C8.26586 4.07388 8.21617 4.09119 8.17578 4.12053C8.16215 4.0619 8.12747 4.01135 8.08013 3.97729C8.07655 3.99394 8.07467 4.01123 8.07467 4.02895C8.07467 4.08318 8.0923 4.1333 8.12213 4.17388C8.0923 4.21446 8.07467 4.26458 8.07467 4.31881C8.07467 4.33796 8.07687 4.35661 8.08103 4.3745C8.12898 4.33966 8.16381 4.28785 8.17668 4.22788C8.2169 4.25683 8.26626 4.27388 8.3196 4.27388ZM8.3196 4.36374C8.23856 4.36374 8.16671 4.40309 8.12213 4.46374C8.16671 4.52438 8.23856 4.56374 8.3196 4.56374C8.29479 4.56374 8.27467 4.58385 8.27467 4.60866C8.27467 4.63348 8.29479 4.65359 8.3196 4.65359C8.34441 4.65359 8.36453 4.63348 8.36453 4.60866C8.36453 4.58385 8.34441 4.56374 8.3196 4.56374C8.40064 4.56374 8.47248 4.52438 8.51707 4.46374C8.47248 4.40309 8.40064 4.36374 8.3196 4.36374ZM8.3196 4.36374C8.34441 4.36374 8.36453 4.34362 8.36453 4.31881C8.36453 4.294 8.34441 4.27388 8.3196 4.27388C8.29479 4.27388 8.27467 4.294 8.27467 4.31881C8.27467 4.34362 8.29479 4.36374 8.3196 4.36374ZM8.17668 4.22788C8.15579 4.21285 8.13737 4.19461 8.12213 4.17388C8.13715 4.15345 8.15527 4.13544 8.17578 4.12053C8.17994 4.13842 8.18214 4.15706 8.18214 4.17622C8.18214 4.19394 8.18026 4.21123 8.17668 4.22788ZM8.84627 5.39605C8.8179 5.38456 8.78688 5.37823 8.75438 5.37823C8.6408 5.37823 8.54528 5.45554 8.51757 5.56041C8.54594 5.5719 8.57696 5.57823 8.60945 5.57823C8.72303 5.57823 8.81856 5.50092 8.84627 5.39605ZM8.70134 5.10619C8.67297 5.0947 8.64195 5.08837 8.60945 5.08837C8.49587 5.08837 8.40035 5.16568 8.37264 5.27055C8.40101 5.28205 8.43203 5.28837 8.46453 5.28837C8.57811 5.28837 8.67363 5.21106 8.70134 5.10619ZM8.47412 4.7987L8.46453 4.79852C8.40594 4.79852 8.35215 4.81909 8.31 4.85341L8.3196 4.85359C8.37819 4.85359 8.43197 4.83302 8.47412 4.7987ZM7.16978 5.8132L7.16018 5.81301C7.10159 5.81301 7.0478 5.83358 7.00565 5.8679L7.01525 5.86808C7.07384 5.86808 7.12763 5.84751 7.16978 5.8132ZM7.10714 5.39605C7.07943 5.50092 6.9839 5.57823 6.87032 5.57823C6.83783 5.57823 6.80681 5.5719 6.77844 5.56041C6.80615 5.45554 6.90167 5.37823 7.01525 5.37823C7.04775 5.37823 7.07877 5.38456 7.10714 5.39605ZM6.96221 5.10619C6.9345 5.21106 6.83898 5.28837 6.7254 5.28837C6.6929 5.28837 6.66188 5.28205 6.63351 5.27055C6.66122 5.16568 6.75674 5.08837 6.87032 5.08837C6.90282 5.08837 6.93384 5.0947 6.96221 5.10619ZM6.77544 4.80364C6.79519 4.89875 6.87009 4.97365 6.96521 4.9934C6.94546 4.89829 6.87055 4.82338 6.77544 4.80364ZM7.26015 4.75746C7.14635 4.73634 7.06018 4.63656 7.06018 4.51664L7.06021 4.51278C7.17401 4.53389 7.26018 4.63368 7.26018 4.75359L7.26015 4.75746ZM7.5464 4.55892C7.43439 4.53639 7.35003 4.43745 7.35003 4.31881C7.35003 4.30439 7.35128 4.29026 7.35367 4.27653C7.46568 4.29906 7.55003 4.398 7.55003 4.51664C7.55003 4.53106 7.54879 4.54519 7.5464 4.55892ZM7.82769 4.39535C7.74741 4.35515 7.69229 4.27212 7.69229 4.17622C7.69229 4.14949 7.69657 4.12376 7.70449 4.09967C7.78477 4.13988 7.83989 4.22291 7.83989 4.31881C7.83989 4.34554 7.83561 4.37127 7.82769 4.39535ZM8.56171 4.06621C8.52898 4.02457 8.50945 3.97205 8.50945 3.91498C8.50945 3.90231 8.51042 3.88987 8.51227 3.87772C8.545 3.91936 8.56453 3.97188 8.56453 4.02895C8.56453 4.04162 8.56356 4.05406 8.56171 4.06621ZM8.94524 3.76147C8.94972 3.81088 8.96887 3.85606 8.9983 3.89261C8.99383 3.84319 8.97468 3.79801 8.94524 3.76147ZM9.39496 3.87196C9.34045 3.82704 9.3057 3.75901 9.3057 3.68286C9.3057 3.63389 9.32008 3.58827 9.34484 3.55C9.39934 3.59492 9.43409 3.66295 9.43409 3.7391C9.43409 3.78807 9.41972 3.83369 9.39496 3.87196ZM9.7698 3.79232C9.70863 3.74778 9.66887 3.67562 9.66887 3.59417C9.66887 3.55483 9.67815 3.51766 9.69463 3.48472C9.7558 3.52925 9.79556 3.60141 9.79556 3.68286C9.79556 3.7222 9.78628 3.75937 9.7698 3.79232ZM7.30511 4.56157C7.32992 4.56157 7.35003 4.54146 7.35003 4.51664C7.35003 4.49183 7.32992 4.47172 7.30511 4.47172C7.28029 4.47172 7.26018 4.49183 7.26018 4.51664C7.26018 4.54146 7.28029 4.56157 7.30511 4.56157ZM7.01525 4.79852C7.04006 4.79852 7.06018 4.7784 7.06018 4.75359C7.06018 4.72878 7.04006 4.70866 7.01525 4.70866C6.99044 4.70866 6.97032 4.72878 6.97032 4.75359C6.97032 4.7784 6.99044 4.79852 7.01525 4.79852ZM6.7254 5.08837C6.75021 5.08837 6.77032 5.06826 6.77032 5.04345C6.77032 5.01863 6.75021 4.99852 6.7254 4.99852C6.70058 4.99852 6.68047 5.01863 6.68047 5.04345C6.68047 5.06826 6.70058 5.08837 6.7254 5.08837ZM6.87032 5.37823C6.89514 5.37823 6.91525 5.35811 6.91525 5.3333C6.91525 5.30849 6.89514 5.28837 6.87032 5.28837C6.84551 5.28837 6.8254 5.30849 6.8254 5.3333C6.8254 5.35811 6.84551 5.37823 6.87032 5.37823ZM7.01525 5.66808C7.04006 5.66808 7.06018 5.64797 7.06018 5.62316C7.06018 5.59834 7.04006 5.57823 7.01525 5.57823C6.99044 5.57823 6.97032 5.59834 6.97032 5.62316C6.97032 5.64797 6.99044 5.66808 7.01525 5.66808ZM7.20511 6.05794C7.20511 6.08275 7.18499 6.10287 7.16018 6.10287C7.13537 6.10287 7.11525 6.08275 7.11525 6.05794C7.11525 6.03313 7.13537 6.01301 7.16018 6.01301C7.18499 6.01301 7.20511 6.03313 7.20511 6.05794ZM7.59496 4.36374C7.61977 4.36374 7.63989 4.34362 7.63989 4.31881C7.63989 4.294 7.61977 4.27388 7.59496 4.27388C7.57015 4.27388 7.55003 4.294 7.55003 4.31881C7.55003 4.34362 7.57015 4.36374 7.59496 4.36374ZM7.93722 4.22114C7.96203 4.22114 7.98214 4.20103 7.98214 4.17622C7.98214 4.1514 7.96203 4.13129 7.93722 4.13129C7.9124 4.13129 7.89229 4.1514 7.89229 4.17622C7.89229 4.20103 7.9124 4.22114 7.93722 4.22114ZM8.75438 3.9599C8.77919 3.9599 8.79931 3.93979 8.79931 3.91498C8.79931 3.89016 8.77919 3.87005 8.75438 3.87005C8.72957 3.87005 8.70945 3.89016 8.70945 3.91498C8.70945 3.93979 8.72957 3.9599 8.75438 3.9599ZM9.18916 3.78403C9.21398 3.78403 9.23409 3.76391 9.23409 3.7391C9.23409 3.71429 9.21398 3.69417 9.18916 3.69417C9.16435 3.69417 9.14424 3.71429 9.14424 3.7391C9.14424 3.76391 9.16435 3.78403 9.18916 3.78403ZM9.55063 3.72779C9.57544 3.72779 9.59556 3.70767 9.59556 3.68286C9.59556 3.65805 9.57544 3.63793 9.55063 3.63793C9.52582 3.63793 9.5057 3.65805 9.5057 3.68286C9.5057 3.70767 9.52582 3.72779 9.55063 3.72779ZM9.9138 3.6391C9.93861 3.6391 9.95873 3.61898 9.95873 3.59417C9.95873 3.56936 9.93861 3.54924 9.9138 3.54924C9.88899 3.54924 9.86887 3.56936 9.86887 3.59417C9.86887 3.61898 9.88899 3.6391 9.9138 3.6391ZM8.46453 5.08837C8.48934 5.08837 8.50945 5.06826 8.50945 5.04345C8.50945 5.01863 8.48934 4.99852 8.46453 4.99852C8.43971 4.99852 8.4196 5.01863 8.4196 5.04345C8.4196 5.06826 8.43971 5.08837 8.46453 5.08837ZM8.60945 5.37823C8.63427 5.37823 8.65438 5.35811 8.65438 5.3333C8.65438 5.30849 8.63427 5.28837 8.60945 5.28837C8.58464 5.28837 8.56453 5.30849 8.56453 5.3333C8.56453 5.35811 8.58464 5.37823 8.60945 5.37823ZM8.75438 5.66808C8.77919 5.66808 8.79931 5.64797 8.79931 5.62316C8.79931 5.59834 8.77919 5.57823 8.75438 5.57823C8.72957 5.57823 8.70945 5.59834 8.70945 5.62316C8.70945 5.64797 8.72957 5.66808 8.75438 5.66808ZM15.1312 6.10287C15.156 6.10287 15.1761 6.08275 15.1761 6.05794C15.1761 6.03313 15.156 6.01301 15.1312 6.01301C15.1064 6.01301 15.0863 6.03313 15.0863 6.05794C15.0863 6.08275 15.1064 6.10287 15.1312 6.10287ZM14.8863 6.05794C14.8863 6.19321 14.9959 6.30287 15.1312 6.30287C15.2665 6.30287 15.3761 6.19321 15.3761 6.05794C15.3761 5.98126 15.3409 5.91281 15.2857 5.8679C15.4165 5.86286 15.521 5.75521 15.521 5.62316C15.521 5.60147 15.5182 5.58043 15.5129 5.56041C15.6027 5.52406 15.666 5.43608 15.666 5.3333C15.666 5.31161 15.6632 5.29058 15.6579 5.27055C15.7476 5.23421 15.8109 5.14622 15.8109 5.04345C15.8109 4.90818 15.7012 4.79852 15.566 4.79852C15.5488 4.79852 15.5321 4.80028 15.5159 4.80364C15.5193 4.78748 15.521 4.77074 15.521 4.75359C15.521 4.61832 15.4114 4.50866 15.2761 4.50866C15.2608 4.50866 15.2457 4.51008 15.2312 4.51278C15.2291 4.37929 15.1202 4.27172 14.9863 4.27172C14.9696 4.27172 14.9534 4.27337 14.9377 4.27653C14.9177 4.16141 14.8173 4.07388 14.6964 4.07388C14.657 4.07388 14.6198 4.08317 14.5869 4.09967C14.5547 4.00189 14.4627 3.93129 14.3542 3.93129C14.3008 3.93129 14.2515 3.94834 14.2112 3.97729C14.1875 3.86683 14.0893 3.78403 13.9718 3.78403C13.8936 3.78403 13.8239 3.82067 13.7791 3.87772C13.7612 3.76013 13.6596 3.67005 13.537 3.67005C13.4598 3.67005 13.391 3.70572 13.3461 3.76147C13.3468 3.7541 13.3471 3.74664 13.3471 3.7391C13.3471 3.60383 13.2375 3.49417 13.1022 3.49417C13.0431 3.49417 12.9889 3.51512 12.9465 3.55C12.9029 3.48256 12.827 3.43793 12.7407 3.43793C12.6869 3.43793 12.6372 3.45529 12.5967 3.48472C12.5565 3.40439 12.4735 3.34924 12.3776 3.34924C12.2423 3.34924 12.1326 3.4589 12.1326 3.59417C12.1326 3.72944 12.2423 3.8391 12.3776 3.8391C12.4314 3.8391 12.4812 3.82174 12.5216 3.79231C12.5618 3.87264 12.6448 3.92779 12.7407 3.92779C12.7999 3.92779 12.8541 3.90684 12.8964 3.87196C12.94 3.9394 13.0159 3.98403 13.1022 3.98403C13.1794 3.98403 13.2482 3.94836 13.2931 3.89261C13.2924 3.89997 13.2921 3.90744 13.2921 3.91498C13.2921 4.05025 13.4017 4.1599 13.537 4.1599C13.6152 4.1599 13.6848 4.12326 13.7297 4.06621C13.7357 4.10608 13.7514 4.14278 13.7743 4.17388C13.7445 4.21446 13.7268 4.26458 13.7268 4.31881C13.7268 4.37304 13.7445 4.42315 13.7743 4.46374C13.7445 4.50432 13.7268 4.55443 13.7268 4.60866C13.7268 4.68534 13.7621 4.75379 13.8172 4.7987C13.6864 4.80374 13.5819 4.91139 13.5819 5.04345C13.5819 5.06514 13.5847 5.08617 13.59 5.10619C13.5003 5.14254 13.437 5.23053 13.437 5.3333C13.437 5.35499 13.4398 5.37602 13.4451 5.39605C13.3554 5.43239 13.2921 5.52038 13.2921 5.62316C13.2921 5.75843 13.4017 5.86808 13.537 5.86808C13.6723 5.86808 13.7819 5.75843 13.7819 5.62316C13.7819 5.60147 13.7791 5.58043 13.7738 5.56041C13.8635 5.52406 13.9268 5.43607 13.9268 5.3333C13.9268 5.31161 13.924 5.29058 13.9187 5.27055C14.0085 5.23421 14.0718 5.14622 14.0718 5.04345C14.0718 4.96677 14.0365 4.89832 13.9814 4.85341C14.1122 4.84837 14.2167 4.74072 14.2167 4.60866C14.2167 4.55443 14.1991 4.50432 14.1692 4.46374C14.1885 4.43749 14.2027 4.40725 14.2103 4.3745C14.2507 4.40384 14.3004 4.42114 14.3542 4.42114C14.3935 4.42114 14.4307 4.41186 14.4637 4.39535C14.4958 4.49314 14.5879 4.56374 14.6964 4.56374C14.713 4.56374 14.7293 4.56208 14.745 4.55892C14.765 4.67404 14.8654 4.76157 14.9863 4.76157C15.0016 4.76157 15.0166 4.76015 15.0312 4.75745C15.0333 4.89094 15.1421 4.99852 15.2761 4.99852C15.2933 4.99852 15.31 4.99675 15.3262 4.9934C15.3228 5.00955 15.321 5.02629 15.321 5.04345C15.321 5.06514 15.3239 5.08616 15.3292 5.10619C15.2394 5.14253 15.1761 5.23053 15.1761 5.3333C15.1761 5.35499 15.1789 5.37602 15.1842 5.39605C15.0945 5.43239 15.0312 5.52038 15.0312 5.62316C15.0312 5.69984 15.0664 5.76829 15.1216 5.8132C14.9908 5.81823 14.8863 5.92588 14.8863 6.05794ZM14.1147 4.22788C14.1276 4.28785 14.1624 4.33966 14.2103 4.3745C14.2145 4.35661 14.2167 4.33796 14.2167 4.31881C14.2167 4.26458 14.1991 4.21446 14.1692 4.17388C14.1991 4.1333 14.2167 4.08318 14.2167 4.02895C14.2167 4.01123 14.2148 3.99394 14.2112 3.97729C14.1639 4.01135 14.1292 4.0619 14.1156 4.12053C14.0752 4.09119 14.0255 4.07388 13.9718 4.07388C13.9966 4.07388 14.0167 4.05377 14.0167 4.02895C14.0167 4.00414 13.9966 3.98403 13.9718 3.98403C13.947 3.98403 13.9268 4.00414 13.9268 4.02895C13.9268 4.05377 13.947 4.07388 13.9718 4.07388C13.8907 4.07388 13.8189 4.11324 13.7743 4.17388C13.8189 4.23452 13.8907 4.27388 13.9718 4.27388C13.947 4.27388 13.9268 4.294 13.9268 4.31881C13.9268 4.34362 13.947 4.36374 13.9718 4.36374C13.8907 4.36374 13.8189 4.40309 13.7743 4.46374C13.8189 4.52438 13.8907 4.56374 13.9718 4.56374C13.947 4.56374 13.9268 4.58385 13.9268 4.60866C13.9268 4.63348 13.947 4.65359 13.9718 4.65359C13.9966 4.65359 14.0167 4.63348 14.0167 4.60866C14.0167 4.58385 13.9966 4.56374 13.9718 4.56374C14.0528 4.56374 14.1247 4.52438 14.1692 4.46374C14.1247 4.40309 14.0528 4.36374 13.9718 4.36374C13.9966 4.36374 14.0167 4.34362 14.0167 4.31881C14.0167 4.294 13.9966 4.27388 13.9718 4.27388C14.0251 4.27388 14.0745 4.25683 14.1147 4.22788ZM14.1147 4.22788C14.1356 4.21285 14.154 4.19461 14.1692 4.17388C14.1542 4.15345 14.1361 4.13544 14.1156 4.12053C14.1114 4.13842 14.1092 4.15706 14.1092 4.17622C14.1092 4.19394 14.1111 4.21123 14.1147 4.22788ZM13.7738 5.56041C13.7461 5.45554 13.6506 5.37823 13.537 5.37823C13.5045 5.37823 13.4735 5.38456 13.4451 5.39605C13.4728 5.50092 13.5683 5.57823 13.6819 5.57823C13.7144 5.57823 13.7454 5.5719 13.7738 5.56041ZM13.9187 5.27055C13.891 5.16568 13.7955 5.08837 13.6819 5.08837C13.6494 5.08837 13.6184 5.0947 13.59 5.10619C13.6177 5.21106 13.7133 5.28837 13.8268 5.28837C13.8593 5.28837 13.8904 5.28205 13.9187 5.27055ZM13.9814 4.85341C13.9392 4.81909 13.8854 4.79852 13.8268 4.79852L13.8172 4.7987C13.8594 4.83302 13.9132 4.85359 13.9718 4.85359L13.9814 4.85341ZM12.5216 3.79231C12.5827 3.74778 12.6225 3.67562 12.6225 3.59417C12.6225 3.55483 12.6132 3.51766 12.5967 3.48472C12.5356 3.52925 12.4958 3.60141 12.4958 3.68286C12.4958 3.7222 12.5051 3.75937 12.5216 3.79231ZM12.8964 3.87196C12.9509 3.82704 12.9857 3.75901 12.9857 3.68286C12.9857 3.63389 12.9713 3.58827 12.9465 3.55C12.892 3.59492 12.8573 3.66295 12.8573 3.7391C12.8573 3.78807 12.8717 3.83369 12.8964 3.87196ZM13.3461 3.76147C13.3417 3.81088 13.3225 3.85606 13.2931 3.89261C13.2975 3.84319 13.3167 3.79801 13.3461 3.76147ZM13.7297 4.06621C13.7624 4.02457 13.7819 3.97205 13.7819 3.91498C13.7819 3.90231 13.781 3.88987 13.7791 3.87772C13.7464 3.91936 13.7268 3.97188 13.7268 4.02895C13.7268 4.04162 13.7278 4.05406 13.7297 4.06621ZM14.4637 4.39535C14.544 4.35515 14.5991 4.27212 14.5991 4.17622C14.5991 4.14949 14.5948 4.12376 14.5869 4.09967C14.5066 4.13988 14.4515 4.22291 14.4515 4.31881C14.4515 4.34554 14.4558 4.37127 14.4637 4.39535ZM14.745 4.55892C14.857 4.53639 14.9413 4.43745 14.9413 4.31881C14.9413 4.30439 14.9401 4.29026 14.9377 4.27653C14.8257 4.29906 14.7413 4.398 14.7413 4.51664C14.7413 4.53106 14.7426 4.54519 14.745 4.55892ZM15.3262 4.9934C15.4213 4.97365 15.4962 4.89875 15.5159 4.80364C15.4208 4.82338 15.3459 4.89829 15.3262 4.9934ZM15.2312 4.51278L15.2312 4.51664C15.2312 4.63656 15.145 4.73634 15.0312 4.75745L15.0312 4.75359C15.0312 4.63368 15.1174 4.53389 15.2312 4.51278ZM15.3292 5.10619C15.3575 5.0947 15.3886 5.08837 15.421 5.08837C15.5346 5.08837 15.6301 5.16568 15.6579 5.27055C15.6295 5.28204 15.5985 5.28837 15.566 5.28837C15.4524 5.28837 15.3569 5.21106 15.3292 5.10619ZM15.1842 5.39605C15.2126 5.38456 15.2436 5.37823 15.2761 5.37823C15.3897 5.37823 15.4852 5.45554 15.5129 5.56041C15.4846 5.5719 15.4535 5.57823 15.421 5.57823C15.3075 5.57823 15.212 5.50091 15.1842 5.39605ZM15.2761 5.86808C15.2175 5.86808 15.1638 5.84751 15.1216 5.8132L15.1312 5.81301C15.1898 5.81301 15.2436 5.83358 15.2857 5.8679L15.2761 5.86808ZM15.2761 5.66808C15.3009 5.66808 15.321 5.64797 15.321 5.62316C15.321 5.59834 15.3009 5.57823 15.2761 5.57823C15.2513 5.57823 15.2312 5.59834 15.2312 5.62316C15.2312 5.64797 15.2513 5.66808 15.2761 5.66808ZM15.421 5.37823C15.4459 5.37823 15.466 5.35811 15.466 5.3333C15.466 5.30849 15.4459 5.28837 15.421 5.28837C15.3962 5.28837 15.3761 5.30849 15.3761 5.3333C15.3761 5.35811 15.3962 5.37823 15.421 5.37823ZM15.566 5.08837C15.5908 5.08837 15.6109 5.06826 15.6109 5.04345C15.6109 5.01863 15.5908 4.99852 15.566 4.99852C15.5412 4.99852 15.521 5.01863 15.521 5.04345C15.521 5.06826 15.5412 5.08837 15.566 5.08837ZM15.2761 4.79852C15.3009 4.79852 15.321 4.7784 15.321 4.75359C15.321 4.72878 15.3009 4.70866 15.2761 4.70866C15.2513 4.70866 15.2312 4.72878 15.2312 4.75359C15.2312 4.7784 15.2513 4.79852 15.2761 4.79852ZM14.9863 4.56157C15.0111 4.56157 15.0312 4.54146 15.0312 4.51664C15.0312 4.49183 15.0111 4.47172 14.9863 4.47172C14.9615 4.47172 14.9413 4.49183 14.9413 4.51664C14.9413 4.54146 14.9615 4.56157 14.9863 4.56157ZM14.6964 4.36374C14.7212 4.36374 14.7413 4.34362 14.7413 4.31881C14.7413 4.294 14.7212 4.27388 14.6964 4.27388C14.6716 4.27388 14.6515 4.294 14.6515 4.31881C14.6515 4.34362 14.6716 4.36374 14.6964 4.36374ZM14.3542 4.22114C14.379 4.22114 14.3991 4.20103 14.3991 4.17622C14.3991 4.1514 14.379 4.13129 14.3542 4.13129C14.3293 4.13129 14.3092 4.1514 14.3092 4.17622C14.3092 4.20103 14.3293 4.22114 14.3542 4.22114ZM13.537 3.9599C13.5618 3.9599 13.5819 3.93979 13.5819 3.91498C13.5819 3.89016 13.5618 3.87005 13.537 3.87005C13.5122 3.87005 13.4921 3.89016 13.4921 3.91498C13.4921 3.93979 13.5122 3.9599 13.537 3.9599ZM13.1022 3.78403C13.127 3.78403 13.1471 3.76391 13.1471 3.7391C13.1471 3.71429 13.127 3.69417 13.1022 3.69417C13.0774 3.69417 13.0573 3.71429 13.0573 3.7391C13.0573 3.76391 13.0774 3.78403 13.1022 3.78403ZM12.7407 3.72779C12.7656 3.72779 12.7857 3.70767 12.7857 3.68286C12.7857 3.65805 12.7656 3.63793 12.7407 3.63793C12.7159 3.63793 12.6958 3.65805 12.6958 3.68286C12.6958 3.70767 12.7159 3.72779 12.7407 3.72779ZM12.3776 3.6391C12.4024 3.6391 12.4225 3.61898 12.4225 3.59417C12.4225 3.56936 12.4024 3.54924 12.3776 3.54924C12.3528 3.54924 12.3326 3.56936 12.3326 3.59417C12.3326 3.61898 12.3528 3.6391 12.3776 3.6391ZM13.8268 5.08837C13.8517 5.08837 13.8718 5.06826 13.8718 5.04345C13.8718 5.01863 13.8517 4.99852 13.8268 4.99852C13.802 4.99852 13.7819 5.01863 13.7819 5.04345C13.7819 5.06826 13.802 5.08837 13.8268 5.08837ZM13.6819 5.37823C13.7067 5.37823 13.7268 5.35811 13.7268 5.3333C13.7268 5.30849 13.7067 5.28837 13.6819 5.28837C13.6571 5.28837 13.637 5.30849 13.637 5.3333C13.637 5.35811 13.6571 5.37823 13.6819 5.37823ZM13.537 5.66808C13.5618 5.66808 13.5819 5.64797 13.5819 5.62316C13.5819 5.59834 13.5618 5.57823 13.537 5.57823C13.5122 5.57823 13.4921 5.59834 13.4921 5.62316C13.4921 5.64797 13.5122 5.66808 13.537 5.66808Z" fill="white"/>
<path fill-rule="evenodd" clip-rule="evenodd" d="M11.1032 2.15411L10.8884 2.15763L10.8888 2.51075L10.4922 2.51053L10.497 2.72491L10.889 2.72513L10.8894 3.1276L11.1043 3.12409L11.1038 2.72525L11.4939 2.72547L11.4892 2.51109L11.1036 2.51087L11.1032 2.15411Z" fill="#F6C540"/>
<path fill-rule="evenodd" clip-rule="evenodd" d="M5.78516 8.73413H16.1852V17.5676C16.1852 17.5676 15.8707 21.9677 10.9852 21.9677C6.09966 21.9677 5.78516 17.5676 5.78516 17.5676V8.73413Z" fill="#C51918"/>
<path fill-rule="evenodd" clip-rule="evenodd" d="M8.925 9.03979C8.82964 9.03979 8.68284 9.10829 8.48825 9.18585C8.29365 9.2634 8.0893 9.43085 8.28877 9.59857C8.48825 9.76629 8.7738 10.1344 8.7738 9.99677C8.7738 9.85914 9.11493 9.72569 9.11493 9.79241C9.11493 9.85914 9.00932 9.99677 9.28635 9.99677C9.56338 9.99677 9.7061 10.0786 9.41052 10.0786C9.11493 10.0786 9.08281 10.2138 8.89071 10.2138C8.69861 10.2138 8.28877 10.0776 8.28877 9.99677C8.28877 9.91594 8.52611 10.3942 8.7738 10.3942C9.02149 10.3942 9.16218 10.6268 9.28635 10.5105C9.41052 10.3942 9.39582 10.3942 9.59642 10.3942C9.79702 10.3942 9.7238 9.9243 9.7238 9.9243C9.7238 9.9243 9.02037 9.03979 8.925 9.03979Z" fill="#E8AA00"/>
<path fill-rule="evenodd" clip-rule="evenodd" d="M12.9383 9.03979C13.0336 9.03979 13.1804 9.10829 13.375 9.18585C13.5696 9.2634 13.774 9.43085 13.5745 9.59857C13.375 9.76629 13.0895 10.1344 13.0895 9.99677C13.0895 9.85914 12.7484 9.72569 12.7484 9.79241C12.7484 9.85914 12.854 9.99677 12.5769 9.99677C12.2999 9.99677 12.1572 10.0786 12.4528 10.0786C12.7484 10.0786 12.7805 10.2138 12.9726 10.2138C13.1647 10.2138 13.5745 10.0776 13.5745 9.99677C13.5745 9.91594 13.3372 10.3942 13.0895 10.3942C12.8418 10.3942 12.7011 10.6268 12.5769 10.5105C12.4528 10.3942 12.4675 10.3942 12.2669 10.3942C12.0663 10.3942 12.1395 9.9243 12.1395 9.9243C12.1395 9.9243 12.8429 9.03979 12.9383 9.03979Z" fill="#E8AA00"/>
<path fill-rule="evenodd" clip-rule="evenodd" d="M14.2124 10.0001C14.4117 10.4651 12.8838 12.1922 12.8838 12.1922H12.7127C12.6408 12.1922 12.5071 12.0153 12.3457 11.8017C12.235 11.6553 12.1113 11.4916 11.9856 11.3559C11.749 11.1006 11.8744 10.8861 11.9913 10.6861C12.0272 10.6247 12.0623 10.5646 12.0858 10.5052C12.1369 10.3764 12.1441 10.3251 12.1524 10.2664C12.1604 10.2098 12.1694 10.1463 12.2195 10.0001C12.2931 9.7853 12.5498 9.50809 12.7279 9.31588C12.7966 9.24165 12.8536 9.18011 12.8838 9.13971C12.9791 9.01221 12.9068 9.01295 12.7078 9.01498C12.6805 9.01526 12.6509 9.01557 12.6189 9.01557C12.354 9.01557 11.848 9.13971 11.6967 9.28471C11.5455 9.42971 11.3869 9.46064 11.1538 9.46064C10.9208 9.46064 11.0645 9.61758 11.2768 9.72356C11.0483 9.76725 10.9018 10.1482 10.8157 10.4864C10.7687 10.1482 10.6651 9.76725 10.4366 9.72356C10.6489 9.61758 10.7926 9.46064 10.5596 9.46064C10.3265 9.46064 10.1679 9.42971 10.0167 9.28471C9.8654 9.13971 9.35938 9.01557 9.09449 9.01557C9.06253 9.01557 9.03285 9.01526 9.00555 9.01498C8.8066 9.01295 8.73429 9.01221 8.8296 9.13971C8.85979 9.18011 8.91679 9.24165 8.98553 9.31588C9.16355 9.50809 9.42028 9.7853 9.49392 10.0001C9.54403 10.1463 9.55299 10.2098 9.56099 10.2664C9.56928 10.3251 9.57655 10.3764 9.62758 10.5052C9.65114 10.5646 9.68623 10.6247 9.72214 10.6861C9.839 10.8861 9.96437 11.1006 9.72782 11.3559C9.60208 11.4916 9.4784 11.6553 9.36774 11.8017C9.20629 12.0153 9.07257 12.1922 9.00068 12.1922H8.8296C8.8296 12.1922 7.30168 10.4651 7.50104 10.0001C7.57809 9.82044 7.70238 9.65111 7.80524 9.51098C7.96849 9.28857 8.07775 9.13971 7.85847 9.13971C7.50104 9.13971 6.07617 10.0432 6.07617 12.0804C6.07617 14.1177 6.20779 15.2763 6.51331 16.088C6.7218 16.642 6.53083 17.1799 6.3885 17.5809C6.32227 17.7674 6.26657 17.9243 6.26657 18.0394C6.26657 18.4016 6.82757 18.0842 6.82757 17.8574C6.82757 17.7495 6.90439 17.9102 6.98496 18.0786C7.07379 18.2644 7.16718 18.4597 7.16718 18.3151C7.16718 18.1608 7.25662 17.9979 7.33541 17.8543C7.39745 17.7413 7.45288 17.6403 7.45288 17.565C7.45288 17.4898 7.53158 17.4925 7.61965 17.4957C7.7315 17.4996 7.85847 17.5041 7.85847 17.3498C7.85847 17.2458 7.89887 17.225 7.94916 17.1991C8.0321 17.1564 8.14196 17.0999 8.14196 16.6331C8.14196 16.2871 8.21123 16.4097 8.29068 16.5503C8.3638 16.6797 8.44555 16.8244 8.48987 16.6331C8.49419 16.6145 8.54009 16.5343 8.59683 16.4351C8.67941 16.2908 8.78495 16.1063 8.81871 16.0132C8.71463 16.4206 8.46493 16.8452 8.30636 17.0475C8.14196 17.2572 7.85847 17.7125 7.85847 17.7125C7.85847 17.7125 8.12285 17.8599 8.30636 17.7125C8.40886 17.6301 8.41578 17.7076 8.42333 17.7921C8.42929 17.8588 8.43564 17.9299 8.48987 17.9299C8.52393 17.9299 8.55599 17.9355 8.58455 17.9404C8.60568 17.9441 8.62489 17.9474 8.64156 17.9479C8.5803 18.104 8.52535 18.3535 8.70965 18.1868C8.84127 18.0677 8.93356 18.0194 8.9947 17.9874C9.06545 17.9503 9.09449 17.9351 9.09449 17.8574C9.09449 17.7798 9.12324 17.8061 9.16828 17.8472C9.20736 17.883 9.25871 17.9299 9.31418 17.9299C9.38566 17.9299 9.40055 17.8304 9.42219 17.6856C9.4367 17.5886 9.45425 17.4712 9.49392 17.3498C9.50316 17.3216 9.51184 17.2944 9.52007 17.2686C9.59988 17.0189 9.6371 16.9024 9.72782 17.2175C9.77022 17.3647 9.84511 17.469 9.91033 17.5598C9.99906 17.6833 10.0699 17.7819 10.0167 17.9299C9.99581 17.9879 9.96967 18.0534 9.94168 18.1235C9.84563 18.3641 9.72782 18.6592 9.72782 18.8916C9.72782 19.0298 9.60206 19.2181 9.48387 19.395C9.34533 19.6024 9.21719 19.7943 9.31418 19.8716C9.49392 20.0148 9.27642 20.4971 9.09449 20.7445C8.91256 20.9919 8.94265 21.294 9.21828 21.294C9.36913 21.294 9.45098 21.3487 9.52509 21.3983C9.5864 21.4393 9.64242 21.4767 9.72782 21.4767C9.91646 21.4767 10.0167 21.3837 10.0167 21.3837C10.0167 21.3837 10.1331 21.5598 10.3265 21.5598C10.5199 21.5598 10.5596 21.3837 10.5596 21.3837L10.7028 21.5598L10.7139 20.789V21.5598L11.1538 21.3837C11.1538 21.3837 11.1935 21.5598 11.3869 21.5598C11.5803 21.5598 11.6967 21.3837 11.6967 21.3837C11.6967 21.3837 11.7969 21.4767 11.9856 21.4767C12.071 21.4767 12.127 21.4393 12.1883 21.3983C12.2624 21.3487 12.3443 21.294 12.4951 21.294C12.7707 21.294 12.8008 20.9919 12.6189 20.7445C12.437 20.4971 12.2195 20.0148 12.3992 19.8716C12.4962 19.7943 12.3681 19.6024 12.2295 19.395C12.1113 19.2181 11.9856 19.0298 11.9856 18.8916C11.9856 18.6592 11.8678 18.3641 11.7717 18.1235C11.7437 18.0534 11.7176 17.9879 11.6967 17.9299C11.6435 17.7819 11.7143 17.6833 11.8031 17.5598C11.8683 17.469 11.9432 17.3647 11.9856 17.2175C12.0763 16.9024 12.1135 17.0189 12.1933 17.2686C12.2016 17.2944 12.2102 17.3216 12.2195 17.3498C12.2591 17.4712 12.2767 17.5886 12.2912 17.6856C12.3129 17.8304 12.3277 17.9299 12.3992 17.9299C12.4547 17.9299 12.506 17.883 12.5451 17.8472C12.5902 17.8061 12.6189 17.7798 12.6189 17.8574C12.6189 17.9351 12.6479 17.9503 12.7187 17.9874C12.7798 18.0194 12.8721 18.0677 13.0037 18.1868C13.188 18.3535 13.1331 18.104 13.0718 17.9479C13.0885 17.9474 13.1077 17.9441 13.1288 17.9404C13.1574 17.9355 13.1895 17.9299 13.2235 17.9299C13.2778 17.9299 13.2841 17.8588 13.2901 17.7921C13.2976 17.7076 13.3045 17.6301 13.407 17.7125C13.5905 17.8599 13.8549 17.7125 13.8549 17.7125C13.8549 17.7125 13.5714 17.2572 13.407 17.0475C13.2485 16.8452 12.9988 16.4206 12.8947 16.0132C12.9284 16.1063 13.034 16.2908 13.1166 16.4351C13.1733 16.5343 13.2192 16.6145 13.2235 16.6331C13.2678 16.8244 13.3496 16.6797 13.4227 16.5503C13.5022 16.4097 13.5714 16.2871 13.5714 16.6331C13.5714 17.0999 13.6813 17.1564 13.7642 17.1991C13.8145 17.225 13.8549 17.2458 13.8549 17.3498C13.8549 17.5041 13.9819 17.4996 14.0937 17.4957C14.1818 17.4925 14.2605 17.4898 14.2605 17.565C14.2605 17.6403 14.3159 17.7413 14.378 17.8543C14.4568 17.9979 14.5462 18.1608 14.5462 18.3151C14.5462 18.4597 14.6396 18.2644 14.7284 18.0786C14.809 17.9102 14.8858 17.7495 14.8858 17.8574C14.8858 18.0842 15.4468 18.4016 15.4468 18.0394C15.4468 17.9243 15.3911 17.7674 15.3249 17.5809C15.1826 17.1799 14.9916 16.642 15.2001 16.088C15.5056 15.2763 15.6372 14.1177 15.6372 12.0804C15.6372 10.0432 14.2124 9.13971 13.8549 9.13971C13.6356 9.13971 13.7449 9.28857 13.9082 9.51098C14.011 9.65111 14.1353 9.82044 14.2124 10.0001ZM12.8838 15.9682C12.8872 15.9832 12.8909 15.9982 12.8947 16.0132C12.8877 15.9939 12.8838 15.9785 12.8838 15.9682ZM13.0037 17.8574C13.0037 17.8065 13.0387 17.8636 13.0718 17.9479C13.0297 17.9492 13.0037 17.9324 13.0037 17.8574ZM8.64156 17.9479C8.68367 17.9492 8.70965 17.9324 8.70965 17.8574C8.70965 17.8065 8.67469 17.8636 8.64156 17.9479ZM8.81871 16.0132C8.82569 15.9939 8.8296 15.9785 8.8296 15.9682C8.82617 15.9832 8.82254 15.9982 8.81871 16.0132Z" fill="#F7FCFF"/>
<path fill-rule="evenodd" clip-rule="evenodd" d="M8.18822 19.2018C8.18822 19.0613 8.54776 18.7354 8.54776 18.7354V18.763C8.59819 18.8038 8.91951 19.0687 8.91951 19.1982C8.91951 19.2786 8.87791 19.3951 8.84229 19.4949C8.81564 19.5695 8.79234 19.6347 8.79234 19.6684C8.79234 19.691 8.80175 19.6748 8.81966 19.6439C8.86404 19.5673 8.96059 19.4007 9.09544 19.5121C9.27407 19.6596 9.27299 19.8772 9.2723 20.0151C9.27226 20.0234 9.27222 20.0313 9.27222 20.0389C9.27222 20.0819 9.27214 20.0816 9.26641 20.0611C9.25408 20.017 9.21559 19.8794 9.09544 19.8794C8.91951 19.8794 8.79234 20.0389 8.79234 20.0389V20.311C8.79234 20.311 8.81465 20.5356 8.91951 20.4233C9.02437 20.311 9.04668 20.5619 8.91951 20.5619C8.85459 20.5619 8.78782 20.6308 8.72244 20.6982C8.65976 20.7629 8.59836 20.8263 8.54113 20.8263V20.8037C8.48691 20.7994 8.44224 20.7436 8.39666 20.6867C8.34722 20.625 8.29671 20.5619 8.23179 20.5619C8.10462 20.5619 8.12693 20.311 8.23179 20.4233C8.33664 20.5356 8.35896 20.311 8.35896 20.311V20.0389C8.35896 20.0389 8.23179 19.8794 8.05586 19.8794C7.93571 19.8794 7.89722 20.017 7.88489 20.0611C7.87916 20.0816 7.87908 20.0819 7.87908 20.0389C7.87908 20.0313 7.87904 20.0234 7.879 20.0151C7.87831 19.8772 7.87723 19.6596 8.05586 19.5121C8.19071 19.4007 8.28726 19.5673 8.33164 19.6439C8.34955 19.6748 8.35896 19.691 8.35896 19.6684C8.35896 19.6347 8.32768 19.5701 8.2919 19.4963C8.24408 19.3975 8.18822 19.2822 8.18822 19.2018Z" fill="#E8AA00"/>
<path fill-rule="evenodd" clip-rule="evenodd" d="M12.9714 19.2018C12.9714 19.0613 13.331 18.7354 13.331 18.7354V18.763C13.3814 18.8038 13.7027 19.0687 13.7027 19.1982C13.7027 19.2786 13.6611 19.3951 13.6255 19.4949C13.5988 19.5695 13.5755 19.6347 13.5755 19.6684C13.5755 19.691 13.585 19.6748 13.6029 19.6439C13.6472 19.5673 13.7438 19.4007 13.8786 19.5121C14.0573 19.6596 14.0562 19.8772 14.0555 20.0151C14.0555 20.0234 14.0554 20.0313 14.0554 20.0389C14.0554 20.0819 14.0553 20.0816 14.0496 20.0611C14.0373 20.017 13.9988 19.8794 13.8786 19.8794C13.7027 19.8794 13.5755 20.0389 13.5755 20.0389V20.311C13.5755 20.311 13.5979 20.5356 13.7027 20.4233C13.8076 20.311 13.8299 20.5619 13.7027 20.5619C13.6378 20.5619 13.571 20.6308 13.5056 20.6982C13.443 20.7629 13.3816 20.8263 13.3243 20.8263V20.8037C13.2701 20.7994 13.2254 20.7436 13.1799 20.6867C13.1304 20.625 13.0799 20.5619 13.015 20.5619C12.8878 20.5619 12.9101 20.311 13.015 20.4233C13.1198 20.5356 13.1422 20.311 13.1422 20.311V20.0389C13.1422 20.0389 13.015 19.8794 12.8391 19.8794C12.7189 19.8794 12.6804 20.017 12.6681 20.0611C12.6624 20.0816 12.6623 20.0819 12.6623 20.0389C12.6623 20.0313 12.6622 20.0234 12.6622 20.0151C12.6615 19.8772 12.6604 19.6596 12.8391 19.5121C12.9739 19.4007 13.0705 19.5673 13.1148 19.6439C13.1327 19.6748 13.1422 19.691 13.1422 19.6684C13.1422 19.6347 13.1109 19.5701 13.0751 19.4963C13.0273 19.3975 12.9714 19.2822 12.9714 19.2018Z" fill="#E8AA00"/>
<path fill-rule="evenodd" clip-rule="evenodd" d="M7.83025 18.3592C8.15073 18.3592 8.21552 17.7497 8.21552 17.7497C8.21552 17.7497 8.4844 17.471 8.4844 17.6766C8.4844 17.7861 8.40795 17.9242 8.3498 18.0292C8.2989 18.1212 8.26202 18.1878 8.30273 18.1878H8.74651C9.11242 18.1878 8.68226 18.3592 8.4844 18.4357C8.39464 18.4703 8.33098 18.4885 8.26991 18.5058C8.19637 18.5268 8.12659 18.5467 8.01948 18.5931C7.82344 18.678 7.73934 19.2373 7.83025 19.4169C7.92117 19.5964 7.73934 19.5207 7.6642 19.4169C7.62245 19.3592 7.59197 19.4386 7.54947 19.5493C7.51547 19.6379 7.47377 19.7465 7.41245 19.8211C7.29399 19.9651 7.29526 19.8378 7.29799 19.5638C7.29844 19.5186 7.29894 19.4695 7.29894 19.4169C7.29894 19.1741 7.3474 19.1719 7.41948 19.1687C7.45772 19.1669 7.50261 19.1649 7.55043 19.1265C7.65372 19.0436 7.66612 19.001 7.69734 18.8935C7.70783 18.8574 7.72044 18.814 7.73934 18.7594C7.81448 18.5419 7.41245 18.8857 7.29894 19.0485C7.22982 19.1477 7.18167 19.1585 7.10966 19.1747C7.06341 19.185 7.00732 19.1977 6.92949 19.2373C6.803 19.3017 6.83732 19.1751 6.87912 19.0209C6.90308 18.9325 6.92949 18.8351 6.92949 18.7594C6.92949 18.6288 7.00805 18.6623 7.10873 18.7052C7.16829 18.7306 7.23558 18.7594 7.29894 18.7594C7.46083 18.7594 7.54444 18.691 7.64765 18.6066C7.6531 18.6021 7.65861 18.5976 7.6642 18.5931C7.74701 18.5257 7.56662 18.546 7.35182 18.5702C7.27835 18.5785 7.20085 18.5872 7.12848 18.5931C6.9633 18.6064 6.95227 18.5965 6.91102 18.5594C6.88137 18.5327 6.83609 18.4919 6.70663 18.4357C6.39715 18.3011 6.90557 18.3592 7.12848 18.4357C7.25243 18.4782 7.35644 18.4498 7.47945 18.4162C7.57766 18.3894 7.68798 18.3592 7.83025 18.3592ZM14.0451 18.3592C13.7247 18.3592 13.6599 17.7497 13.6599 17.7497C13.6599 17.7497 13.391 17.471 13.391 17.6766C13.391 17.7861 13.4675 17.9242 13.5256 18.0292C13.5765 18.1212 13.6134 18.1878 13.5727 18.1878H13.1289C12.763 18.1878 13.1931 18.3592 13.391 18.4357C13.4808 18.4703 13.5444 18.4885 13.6055 18.5058C13.679 18.5268 13.7488 18.5467 13.8559 18.5931C14.052 18.678 14.1361 19.2373 14.0451 19.4169C13.9542 19.5964 14.1361 19.5207 14.2112 19.4169C14.253 19.3592 14.2834 19.4386 14.3259 19.5493C14.3599 19.6379 14.4016 19.7465 14.463 19.8211C14.5814 19.9651 14.5801 19.8378 14.5774 19.5638C14.577 19.5186 14.5765 19.4695 14.5765 19.4169C14.5765 19.1741 14.528 19.1719 14.4559 19.1687C14.4177 19.1669 14.3728 19.1649 14.325 19.1265C14.2217 19.0436 14.2093 19.001 14.1781 18.8935C14.1676 18.8574 14.155 18.814 14.1361 18.7594C14.0609 18.5419 14.463 18.8857 14.5765 19.0485C14.6456 19.1477 14.6937 19.1585 14.7657 19.1747C14.812 19.185 14.8681 19.1977 14.9459 19.2373C15.0724 19.3017 15.0381 19.1751 14.9963 19.0209C14.9723 18.9325 14.9459 18.8351 14.9459 18.7594C14.9459 18.6288 14.8674 18.6623 14.7667 18.7052C14.7071 18.7306 14.6398 18.7594 14.5765 18.7594C14.4146 18.7594 14.331 18.691 14.2278 18.6066C14.2223 18.6021 14.2168 18.5976 14.2112 18.5931C14.1284 18.5257 14.3088 18.546 14.5236 18.5702C14.5971 18.5785 14.6746 18.5872 14.7469 18.5931C14.9121 18.6064 14.9231 18.5965 14.9644 18.5594C14.994 18.5327 15.0393 18.4919 15.1688 18.4357C15.4782 18.3011 14.9698 18.3592 14.7469 18.4357C14.623 18.4782 14.519 18.4498 14.396 18.4162C14.2977 18.3894 14.1874 18.3592 14.0451 18.3592Z" fill="#E8AA00"/>
<path fill-rule="evenodd" clip-rule="evenodd" d="M9.04688 12.3411H12.9224V15.8754C12.9224 15.8754 12.5063 17.6359 10.9846 17.6359C9.46292 17.6359 9.04688 15.8754 9.04688 15.8754V12.3411Z" fill="#C51918"/>
<path fill-rule="evenodd" clip-rule="evenodd" d="M11.5067 12.2898H10.4922V14.3188H9.04297V15.0434H10.4922V17.6521H11.5067V15.0434H12.956V14.3188H11.5067V12.2898Z" fill="#F7FCFF"/>
<path fill-rule="evenodd" clip-rule="evenodd" d="M9.69953 13.3088C9.79681 13.3088 9.84322 13.2268 9.79176 13.1545C9.76472 13.1165 9.70867 13.1055 9.66659 13.13C9.66281 13.1321 9.65928 13.1345 9.65599 13.1371C9.6405 13.1333 9.62156 13.128 9.59973 13.1213C9.58014 13.1153 9.55887 13.1155 9.53945 13.122C9.51592 13.1298 9.50257 13.1057 9.51391 12.9558C9.52474 12.914 9.58205 12.8881 9.71557 12.8881C9.95954 12.8881 10.0598 12.9142 10.0598 12.9371V13.2956L9.94137 13.4025C9.88431 13.454 9.92472 13.542 10.0054 13.542H10.0598V13.8165C9.98533 13.8746 9.91878 13.9017 9.86049 13.9017C9.64225 13.9017 9.51963 13.8204 9.51625 13.7243C9.51718 13.6961 9.51845 13.6754 9.51938 13.6612C9.525 13.663 9.53127 13.665 9.53818 13.6674C9.55815 13.6743 9.58019 13.6746 9.6004 13.6683L9.6087 13.6656C9.61651 13.6629 9.62104 13.6614 9.62357 13.663C9.62708 13.6652 9.62674 13.6735 9.62593 13.6933L9.62593 13.6933L9.62593 13.6933C9.62563 13.7006 9.62527 13.7094 9.62501 13.7201C9.62392 13.7652 9.66358 13.8026 9.71359 13.8036C9.76361 13.8046 9.80503 13.7688 9.80612 13.7237C9.80995 13.5653 9.72114 13.4743 9.57372 13.5052C9.48673 13.4792 9.42587 13.4822 9.37841 13.5358C9.34354 13.5752 9.33887 13.6076 9.33517 13.7243C9.34188 13.9249 9.55338 14.0652 9.86049 14.0652C9.97888 14.0652 10.0962 14.0123 10.2129 13.9118C10.2308 13.8964 10.2409 13.875 10.2409 13.8527V13.4603C10.2409 13.4338 10.227 13.4103 10.2054 13.3954L10.2144 13.3873C10.2314 13.372 10.2409 13.3512 10.2409 13.3295V12.9371C10.2409 12.7696 10.0681 12.7246 9.71557 12.7246C9.50779 12.7246 9.37186 12.7859 9.33538 12.931C9.31483 13.1789 9.38827 13.3268 9.56983 13.2845C9.62599 13.3006 9.66758 13.3088 9.69953 13.3088ZM12.245 13.1545C12.1935 13.2268 12.2399 13.3088 12.3372 13.3088C12.3692 13.3088 12.4107 13.3006 12.4669 13.2845C12.6485 13.3268 12.7219 13.1789 12.7013 12.931C12.6649 12.7859 12.5289 12.7246 12.3212 12.7246C11.9686 12.7246 11.7958 12.7696 11.7958 12.9371V13.3295C11.7958 13.3512 11.8053 13.372 11.8223 13.3873L11.8313 13.3954C11.8097 13.4103 11.7958 13.4338 11.7958 13.4603V13.8527C11.7958 13.875 11.8059 13.8964 11.8239 13.9118C11.9406 14.0123 12.0578 14.0652 12.1762 14.0652C12.4834 14.0652 12.6948 13.9249 12.7016 13.7243C12.6979 13.6076 12.6932 13.5752 12.6583 13.5358C12.6109 13.4822 12.55 13.4792 12.463 13.5052C12.3156 13.4743 12.2268 13.5653 12.2306 13.7237C12.2317 13.7688 12.2731 13.8046 12.3231 13.8036C12.3732 13.8026 12.4128 13.7652 12.4117 13.7201C12.4115 13.7094 12.4111 13.7005 12.4108 13.6933C12.41 13.6735 12.4096 13.6652 12.4132 13.663C12.4157 13.6614 12.4202 13.6629 12.428 13.6656L12.4363 13.6683C12.4565 13.6746 12.4786 13.6743 12.4985 13.6674C12.5055 13.665 12.5117 13.663 12.5174 13.6612C12.5183 13.6754 12.5195 13.6961 12.5205 13.7243C12.5171 13.8204 12.3945 13.9017 12.1762 13.9017C12.1179 13.9017 12.0514 13.8746 11.977 13.8165V13.542H12.0313C12.112 13.542 12.1524 13.454 12.0954 13.4025L11.977 13.2956V12.9371C11.977 12.9142 12.0772 12.8881 12.3212 12.8881C12.4547 12.8881 12.512 12.914 12.5228 12.9558C12.5342 13.1057 12.5208 13.1298 12.4973 13.122C12.4779 13.1155 12.4566 13.1153 12.437 13.1213C12.4152 13.128 12.3962 13.1333 12.3807 13.1371C12.3775 13.1345 12.3739 13.1321 12.3701 13.13C12.3281 13.1055 12.272 13.1165 12.245 13.1545ZM12.5502 13.6539L12.5463 13.6538L12.5489 13.654L12.5502 13.6539ZM12.3372 15.9175C12.2399 15.9175 12.1935 15.8355 12.245 15.7632C12.272 15.7252 12.3281 15.7142 12.3701 15.7386C12.3739 15.7408 12.3775 15.7432 12.3807 15.7458C12.3962 15.7419 12.4152 15.7367 12.437 15.73C12.4566 15.724 12.4779 15.7242 12.4973 15.7307C12.5208 15.7385 12.5342 15.7144 12.5228 15.5644C12.512 15.5226 12.4547 15.4968 12.3212 15.4968C12.0772 15.4968 11.977 15.5229 11.977 15.5458V15.9043L12.0954 16.0112C12.1524 16.0627 12.112 16.1507 12.0313 16.1507H11.977V16.4252C12.0514 16.4833 12.1179 16.5104 12.1762 16.5104C12.3945 16.5104 12.5171 16.4291 12.5205 16.333C12.5195 16.3048 12.5183 16.2841 12.5174 16.2699C12.5117 16.2716 12.5055 16.2737 12.4985 16.2761C12.4786 16.283 12.4565 16.2833 12.4363 16.277L12.428 16.2743C12.4202 16.2716 12.4157 16.2701 12.4132 16.2717C12.4096 16.2739 12.41 16.2822 12.4108 16.302C12.4111 16.3092 12.4115 16.3181 12.4117 16.3288C12.4128 16.3739 12.3732 16.4113 12.3231 16.4123C12.2731 16.4133 12.2317 16.3775 12.2306 16.3323C12.2268 16.174 12.3156 16.083 12.463 16.1139C12.55 16.0879 12.6109 16.0909 12.6583 16.1445C12.6932 16.1839 12.6979 16.2163 12.7016 16.333C12.6948 16.5336 12.4834 16.6739 12.1762 16.6739C12.0578 16.6739 11.9406 16.621 11.8239 16.5205C11.8059 16.5051 11.7958 16.4837 11.7958 16.4614V16.069C11.7958 16.0425 11.8097 16.019 11.8313 16.0041L11.8223 15.996C11.8053 15.9807 11.7958 15.9599 11.7958 15.9382V15.5458C11.7958 15.3783 11.9686 15.3333 12.3212 15.3333C12.5289 15.3333 12.6649 15.3946 12.7013 15.5397C12.7219 15.7876 12.6485 15.9355 12.4669 15.8932C12.4107 15.9093 12.3692 15.9175 12.3372 15.9175ZM9.69953 15.9175C9.79681 15.9175 9.84322 15.8355 9.79176 15.7632C9.76472 15.7252 9.70867 15.7142 9.66659 15.7386C9.66281 15.7408 9.65928 15.7432 9.65599 15.7458C9.6405 15.7419 9.62156 15.7367 9.59973 15.73C9.58014 15.724 9.55887 15.7242 9.53945 15.7307C9.51592 15.7385 9.50257 15.7144 9.51391 15.5644C9.52474 15.5226 9.58205 15.4968 9.71557 15.4968C9.95954 15.4968 10.0598 15.5229 10.0598 15.5458V15.9043L9.94137 16.0112C9.88431 16.0627 9.92472 16.1507 10.0054 16.1507H10.0598V16.4252C9.98533 16.4833 9.91878 16.5104 9.86049 16.5104C9.64225 16.5104 9.51963 16.4291 9.51625 16.333C9.51718 16.3048 9.51845 16.2841 9.51938 16.2699C9.525 16.2716 9.53127 16.2737 9.53818 16.2761C9.55815 16.283 9.58019 16.2833 9.6004 16.277C9.60351 16.276 9.60626 16.2751 9.6087 16.2743C9.61651 16.2716 9.62104 16.2701 9.62357 16.2717C9.62708 16.2739 9.62674 16.2822 9.62593 16.302C9.62563 16.3092 9.62527 16.3181 9.62501 16.3288C9.62392 16.3739 9.66358 16.4113 9.71359 16.4123C9.76361 16.4133 9.80503 16.3775 9.80612 16.3323C9.80995 16.174 9.72114 16.083 9.57372 16.1139C9.48673 16.0879 9.42587 16.0909 9.37841 16.1445C9.34354 16.1839 9.33887 16.2163 9.33517 16.333C9.34188 16.5336 9.55338 16.6739 9.86049 16.6739C9.97888 16.6739 10.0962 16.621 10.2129 16.5205C10.2308 16.5051 10.2409 16.4837 10.2409 16.4614V16.069C10.2409 16.0425 10.227 16.019 10.2054 16.0041L10.2144 15.996C10.2314 15.9807 10.2409 15.9599 10.2409 15.9382V15.5458C10.2409 15.3783 10.0681 15.3333 9.71557 15.3333C9.50779 15.3333 9.37186 15.3946 9.33538 15.5397C9.31483 15.7876 9.38827 15.9355 9.56983 15.8932C9.62599 15.9093 9.66758 15.9175 9.69953 15.9175Z" fill="#F7FCFF"/>
</g>
</g>
<rect width="32" height="24" fill="url(#paint0_linear_230_23820)" style="mix-blend-mode:overlay"/>
</g>
<rect x="0.5" y="0.5" width="31" height="23" rx="1.5" stroke="black" stroke-opacity="0.1"/>
<defs>
<linearGradient id="paint0_linear_230_23820" x1="16" y1="0" x2="16" y2="24" gradientUnits="userSpaceOnUse">
<stop stop-color="white" stop-opacity="0.7"/>
<stop offset="1" stop-opacity="0.3"/>
</linearGradient>
<clipPath id="clip0_230_23820">
<rect width="32" height="24" rx="2" fill="white"/>
</clipPath>
</defs>
</svg>
