<svg width="32" height="24" viewBox="0 0 32 24" fill="none" xmlns="http://www.w3.org/2000/svg">
<g clip-path="url(#clip0_230_27370)">
<mask id="mask0_230_27370" style="mask-type:luminance" maskUnits="userSpaceOnUse" x="0" y="0" width="32" height="24">
<rect width="32" height="24" fill="white"/>
</mask>
<g mask="url(#mask0_230_27370)">
<path fill-rule="evenodd" clip-rule="evenodd" d="M0 0V24H32V0H0Z" fill="#279E19"/>
<mask id="mask1_230_27370" style="mask-type:luminance" maskUnits="userSpaceOnUse" x="0" y="0" width="32" height="24">
<path fill-rule="evenodd" clip-rule="evenodd" d="M0 0V24H32V0H0Z" fill="white"/>
</mask>
<g mask="url(#mask1_230_27370)">
<path fill-rule="evenodd" clip-rule="evenodd" d="M17 0H19V13H32V15H19V24H17V15H0V13H17V0Z" fill="#F7FCFF"/>
<path fill-rule="evenodd" clip-rule="evenodd" d="M15 0H17V11H32V13H17V24H15V13H0V11H15V0Z" fill="#272727"/>
<path fill-rule="evenodd" clip-rule="evenodd" d="M13 0H15V9H32V11H15V24H13V11H0V9H13V0Z" fill="#FECA00"/>
<path fill-rule="evenodd" clip-rule="evenodd" d="M16 20C20.4183 20 24 16.4183 24 12C24 7.58172 20.4183 4 16 4C11.5817 4 8 7.58172 8 12C8 16.4183 11.5817 20 16 20Z" fill="#C51918"/>
<path fill-rule="evenodd" clip-rule="evenodd" d="M14.7271 8.41295C14.7271 8.41295 15.1071 7.18003 15.9897 7.81697C17.3738 8.49867 17.8303 9.28184 18.3646 10.1688C18.899 11.0557 17.0545 10.4061 16.7104 9.90694C16.3663 9.40777 14.4577 9.24592 14.7271 8.82944C14.9966 8.41295 14.7271 8.41295 14.7271 8.41295Z" fill="#804BFF"/>
<path fill-rule="evenodd" clip-rule="evenodd" d="M14.4132 14.7255C14.4132 14.7255 13.4735 16.011 14.4132 16.011C15.3529 16.011 19.1626 15.7344 18.706 15.3682C18.2493 15.002 14.8647 15.3682 14.8647 15.3682L14.4132 14.7255Z" fill="#A95601"/>
<path fill-rule="evenodd" clip-rule="evenodd" d="M15.8186 14.685C15.761 14.62 14.9033 14.0567 14.569 12.7686C14.3378 11.8781 14.4796 10.2124 14.805 9.88234C15.6011 9.07484 16.0676 9.54934 16.0676 10.7602C16.0676 11.971 16.1154 14.9842 15.8186 14.685Z" fill="#804BFF"/>
<path fill-rule="evenodd" clip-rule="evenodd" d="M15.7182 14.0545C15.7182 14.0545 15.6194 14.9988 16.1051 16.1013C16.5907 17.2038 17.5717 17.1825 17.5717 16.2802C17.5717 15.3778 18.2877 16.2246 18.5626 16.8269C18.8375 17.4291 18.1256 11.4792 17.1153 10.1481C16.1051 8.81693 15.1303 8.73146 15.4243 9.59165C15.7182 10.4518 15.7182 14.0545 15.7182 14.0545Z" fill="#279E19"/>
<path fill-rule="evenodd" clip-rule="evenodd" d="M15.1285 7.60001C15.1285 7.60001 14.7012 7.87405 14.7012 8.62885C14.7012 9.38366 15.713 8.39515 15.713 8.39515L15.1285 7.60001Z" fill="#FECA00"/>
<mask id="path-15-inside-1_230_27370" fill="white">
<path fill-rule="evenodd" clip-rule="evenodd" d="M15.2186 7.31353L16.1003 6.68501L16.982 7.31353L16.6567 6.28078L17.5269 5.63648L16.4442 5.62673L16.1003 4.60001L15.7565 5.62673L14.6737 5.63648L15.5439 6.28078L15.2186 7.31353ZM18.1417 7.69033L19.2244 7.70008L19.5682 8.7268L19.9121 7.70008L20.9948 7.69033L20.1246 7.04603L20.4499 6.01328L19.5682 6.6418L18.6866 6.01328L19.0119 7.04603L18.1417 7.69033ZM21.1552 10.3576L20.285 9.71328L21.3677 9.70353L21.7115 8.6768L22.0554 9.70353L23.1381 9.71328L22.2679 10.3576L22.5932 11.3903L21.7115 10.7618L20.8299 11.3903L21.1552 10.3576ZM20.8299 12.6097L21.1552 13.6424L20.285 14.2867L21.3677 14.2965L21.7115 15.3232L22.0554 14.2965L23.1381 14.2867L22.2679 13.6424L22.5932 12.6097L21.7115 13.2382L20.8299 12.6097ZM19.2244 16.2999L19.5682 15.2732L19.9121 16.2999L20.9948 16.3097L20.1246 16.954L20.4499 17.9867L19.5682 17.3582L18.6866 17.9867L19.0119 16.954L18.1417 16.3097L19.2244 16.2999ZM16.982 16.6865L16.1003 17.315L15.2186 16.6865L15.5439 17.7192L14.6737 18.3635L15.7565 18.3733L16.1003 19.4L16.4442 18.3733L17.5269 18.3635L16.6567 17.7192L16.982 16.6865ZM12.9762 16.2999L14.059 16.3097L13.1888 16.954L13.5141 17.9867L12.6324 17.3582L11.7507 17.9867L12.076 16.954L11.2058 16.3097L12.2885 16.2999L12.6324 15.2732L12.9762 16.2999ZM11.9157 14.2867L11.0455 13.6424L11.3708 12.6097L10.4891 13.2382L9.60741 12.6097L9.93272 13.6424L9.0625 14.2867L10.1452 14.2965L10.4891 15.3232L10.8329 14.2965L11.9157 14.2867ZM11.0455 10.3576L11.3708 11.3903L10.4891 10.7618L9.60741 11.3903L9.93272 10.3576L9.0625 9.71328L10.1452 9.70353L10.4891 8.6768L10.8329 9.70353L11.9157 9.71328L11.0455 10.3576ZM12.6324 8.7268L12.9762 7.70008L14.059 7.69033L13.1888 7.04603L13.5141 6.01328L12.6324 6.6418L11.7507 6.01328L12.076 7.04603L11.2058 7.69033L12.2885 7.70008L12.6324 8.7268Z"/>
</mask>
<path fill-rule="evenodd" clip-rule="evenodd" d="M15.2186 7.31353L16.1003 6.68501L16.982 7.31353L16.6567 6.28078L17.5269 5.63648L16.4442 5.62673L16.1003 4.60001L15.7565 5.62673L14.6737 5.63648L15.5439 6.28078L15.2186 7.31353ZM18.1417 7.69033L19.2244 7.70008L19.5682 8.7268L19.9121 7.70008L20.9948 7.69033L20.1246 7.04603L20.4499 6.01328L19.5682 6.6418L18.6866 6.01328L19.0119 7.04603L18.1417 7.69033ZM21.1552 10.3576L20.285 9.71328L21.3677 9.70353L21.7115 8.6768L22.0554 9.70353L23.1381 9.71328L22.2679 10.3576L22.5932 11.3903L21.7115 10.7618L20.8299 11.3903L21.1552 10.3576ZM20.8299 12.6097L21.1552 13.6424L20.285 14.2867L21.3677 14.2965L21.7115 15.3232L22.0554 14.2965L23.1381 14.2867L22.2679 13.6424L22.5932 12.6097L21.7115 13.2382L20.8299 12.6097ZM19.2244 16.2999L19.5682 15.2732L19.9121 16.2999L20.9948 16.3097L20.1246 16.954L20.4499 17.9867L19.5682 17.3582L18.6866 17.9867L19.0119 16.954L18.1417 16.3097L19.2244 16.2999ZM16.982 16.6865L16.1003 17.315L15.2186 16.6865L15.5439 17.7192L14.6737 18.3635L15.7565 18.3733L16.1003 19.4L16.4442 18.3733L17.5269 18.3635L16.6567 17.7192L16.982 16.6865ZM12.9762 16.2999L14.059 16.3097L13.1888 16.954L13.5141 17.9867L12.6324 17.3582L11.7507 17.9867L12.076 16.954L11.2058 16.3097L12.2885 16.2999L12.6324 15.2732L12.9762 16.2999ZM11.9157 14.2867L11.0455 13.6424L11.3708 12.6097L10.4891 13.2382L9.60741 12.6097L9.93272 13.6424L9.0625 14.2867L10.1452 14.2965L10.4891 15.3232L10.8329 14.2965L11.9157 14.2867ZM11.0455 10.3576L11.3708 11.3903L10.4891 10.7618L9.60741 11.3903L9.93272 10.3576L9.0625 9.71328L10.1452 9.70353L10.4891 8.6768L10.8329 9.70353L11.9157 9.71328L11.0455 10.3576ZM12.6324 8.7268L12.9762 7.70008L14.059 7.69033L13.1888 7.04603L13.5141 6.01328L12.6324 6.6418L11.7507 6.01328L12.076 7.04603L11.2058 7.69033L12.2885 7.70008L12.6324 8.7268Z" fill="#279E19"/>
<path d="M16.1003 6.68501L16.1584 6.60358L16.1003 6.5622L16.0423 6.60358L16.1003 6.68501ZM15.2186 7.31353L15.1233 7.28349L15.0335 7.56829L15.2767 7.39496L15.2186 7.31353ZM16.982 7.31353L16.9239 7.39496L17.1671 7.56829L17.0774 7.28349L16.982 7.31353ZM16.6567 6.28078L16.5972 6.20041L16.5399 6.24283L16.5613 6.31083L16.6567 6.28078ZM17.5269 5.63648L17.5864 5.71685L17.8264 5.53917L17.5278 5.53648L17.5269 5.63648ZM16.4442 5.62673L16.3493 5.65849L16.372 5.72609L16.4433 5.72673L16.4442 5.62673ZM16.1003 4.60001L16.1951 4.56825L16.1003 4.28511L16.0055 4.56825L16.1003 4.60001ZM15.7565 5.62673L15.7574 5.72673L15.8286 5.72609L15.8513 5.65849L15.7565 5.62673ZM14.6737 5.63648L14.6728 5.53648L14.3742 5.53917L14.6142 5.71685L14.6737 5.63648ZM15.5439 6.28078L15.6393 6.31083L15.6607 6.24283L15.6034 6.20041L15.5439 6.28078ZM19.2244 7.70008L19.3192 7.66832L19.2966 7.60073L19.2253 7.60008L19.2244 7.70008ZM18.1417 7.69033L18.0822 7.60996L17.8422 7.78764L18.1408 7.79033L18.1417 7.69033ZM19.5682 8.7268L19.4734 8.75856L19.5682 9.0417L19.6631 8.75856L19.5682 8.7268ZM19.9121 7.70008L19.9112 7.60008L19.8399 7.60073L19.8173 7.66832L19.9121 7.70008ZM20.9948 7.69033L20.9957 7.79033L21.2943 7.78764L21.0543 7.60996L20.9948 7.69033ZM20.1246 7.04603L20.0292 7.01599L20.0078 7.08398L20.0651 7.1264L20.1246 7.04603ZM20.4499 6.01328L20.5453 6.04332L20.635 5.75853L20.3919 5.93185L20.4499 6.01328ZM19.5682 6.6418L19.5102 6.72323L19.5682 6.76461L19.6263 6.72323L19.5682 6.6418ZM18.6866 6.01328L18.7446 5.93185L18.5015 5.75853L18.5912 6.04332L18.6866 6.01328ZM19.0119 7.04603L19.0714 7.1264L19.1287 7.08398L19.1073 7.01599L19.0119 7.04603ZM20.285 9.71328L20.2841 9.61328L19.9855 9.61597L20.2255 9.79365L20.285 9.71328ZM21.1552 10.3576L21.2506 10.3876L21.272 10.3196L21.2147 10.2772L21.1552 10.3576ZM21.3677 9.70353L21.3686 9.80352L21.4399 9.80288L21.4625 9.73528L21.3677 9.70353ZM21.7115 8.6768L21.8064 8.64504L21.7115 8.36191L21.6167 8.64504L21.7115 8.6768ZM22.0554 9.70353L21.9606 9.73528L21.9832 9.80288L22.0545 9.80352L22.0554 9.70353ZM23.1381 9.71328L23.1976 9.79365L23.4376 9.61597L23.139 9.61328L23.1381 9.71328ZM22.2679 10.3576L22.2084 10.2772L22.1511 10.3196L22.1725 10.3876L22.2679 10.3576ZM22.5932 11.3903L22.5352 11.4718L22.7783 11.6451L22.6886 11.3603L22.5932 11.3903ZM21.7115 10.7618L21.7696 10.6804L21.7115 10.639L21.6535 10.6804L21.7115 10.7618ZM20.8299 11.3903L20.7345 11.3603L20.6448 11.6451L20.8879 11.4718L20.8299 11.3903ZM21.1552 13.6424L21.2147 13.7228L21.272 13.6804L21.2506 13.6124L21.1552 13.6424ZM20.8299 12.6097L20.8879 12.5282L20.6448 12.3549L20.7345 12.6397L20.8299 12.6097ZM20.285 14.2867L20.2255 14.2064L19.9855 14.384L20.2841 14.3867L20.285 14.2867ZM21.3677 14.2965L21.4625 14.2647L21.4399 14.1971L21.3686 14.1965L21.3677 14.2965ZM21.7115 15.3232L21.6167 15.355L21.7115 15.6381L21.8064 15.355L21.7115 15.3232ZM22.0554 14.2965L22.0545 14.1965L21.9832 14.1971L21.9606 14.2647L22.0554 14.2965ZM23.1381 14.2867L23.139 14.3867L23.4376 14.384L23.1976 14.2064L23.1381 14.2867ZM22.2679 13.6424L22.1725 13.6124L22.1511 13.6804L22.2084 13.7228L22.2679 13.6424ZM22.5932 12.6097L22.6886 12.6397L22.7783 12.3549L22.5352 12.5282L22.5932 12.6097ZM21.7115 13.2382L21.6535 13.3196L21.7115 13.361L21.7696 13.3196L21.7115 13.2382ZM19.5682 15.2732L19.6631 15.2414L19.5682 14.9583L19.4734 15.2414L19.5682 15.2732ZM19.2244 16.2999L19.2253 16.3999L19.2966 16.3993L19.3192 16.3317L19.2244 16.2999ZM19.9121 16.2999L19.8173 16.3317L19.8399 16.3993L19.9112 16.3999L19.9121 16.2999ZM20.9948 16.3097L21.0543 16.39L21.2943 16.2124L20.9957 16.2097L20.9948 16.3097ZM20.1246 16.954L20.0651 16.8736L20.0078 16.916L20.0292 16.984L20.1246 16.954ZM20.4499 17.9867L20.3919 18.0681L20.635 18.2415L20.5453 17.9567L20.4499 17.9867ZM19.5682 17.3582L19.6263 17.2768L19.5682 17.2354L19.5102 17.2768L19.5682 17.3582ZM18.6866 17.9867L18.5912 17.9567L18.5015 18.2415L18.7446 18.0681L18.6866 17.9867ZM19.0119 16.954L19.1073 16.984L19.1287 16.916L19.0714 16.8736L19.0119 16.954ZM18.1417 16.3097L18.1408 16.2097L17.8422 16.2124L18.0822 16.39L18.1417 16.3097ZM16.1003 17.315L16.0423 17.3964L16.1003 17.4378L16.1584 17.3964L16.1003 17.315ZM16.982 16.6865L17.0774 16.7165L17.1671 16.4317L16.9239 16.605L16.982 16.6865ZM15.2186 16.6865L15.2767 16.605L15.0335 16.4317L15.1233 16.7165L15.2186 16.6865ZM15.5439 17.7192L15.6034 17.7996L15.6607 17.7572L15.6393 17.6892L15.5439 17.7192ZM14.6737 18.3635L14.6142 18.2832L14.3742 18.4608L14.6728 18.4635L14.6737 18.3635ZM15.7565 18.3733L15.8513 18.3415L15.8286 18.2739L15.7574 18.2733L15.7565 18.3733ZM16.1003 19.4L16.0055 19.4318L16.1003 19.7149L16.1951 19.4318L16.1003 19.4ZM16.4442 18.3733L16.4433 18.2733L16.372 18.2739L16.3493 18.3415L16.4442 18.3733ZM17.5269 18.3635L17.5278 18.4635L17.8264 18.4608L17.5864 18.2832L17.5269 18.3635ZM16.6567 17.7192L16.5613 17.6892L16.5399 17.7572L16.5972 17.7996L16.6567 17.7192ZM14.059 16.3097L14.1185 16.39L14.3584 16.2124L14.0599 16.2097L14.059 16.3097ZM12.9762 16.2999L12.8814 16.3317L12.9041 16.3993L12.9753 16.3999L12.9762 16.2999ZM13.1888 16.954L13.1292 16.8736L13.072 16.916L13.0934 16.984L13.1888 16.954ZM13.5141 17.9867L13.456 18.0681L13.6992 18.2415L13.6094 17.9567L13.5141 17.9867ZM12.6324 17.3582L12.6904 17.2768L12.6324 17.2354L12.5743 17.2768L12.6324 17.3582ZM11.7507 17.9867L11.6553 17.9567L11.5656 18.2415L11.8088 18.0681L11.7507 17.9867ZM12.076 16.954L12.1714 16.984L12.1928 16.916L12.1355 16.8736L12.076 16.954ZM11.2058 16.3097L11.2049 16.2097L10.9063 16.2124L11.1463 16.39L11.2058 16.3097ZM12.2885 16.2999L12.2894 16.3999L12.3607 16.3993L12.3834 16.3317L12.2885 16.2999ZM12.6324 15.2732L12.7272 15.2414L12.6324 14.9583L12.5376 15.2414L12.6324 15.2732ZM11.0455 13.6424L10.9501 13.6124L10.9287 13.6804L10.9859 13.7228L11.0455 13.6424ZM11.9157 14.2867L11.9166 14.3867L12.2152 14.384L11.9752 14.2064L11.9157 14.2867ZM11.3708 12.6097L11.4661 12.6397L11.5559 12.3549L11.3127 12.5282L11.3708 12.6097ZM10.4891 13.2382L10.431 13.3196L10.4891 13.361L10.5471 13.3196L10.4891 13.2382ZM9.60741 12.6097L9.66545 12.5282L9.42232 12.3549L9.51203 12.6397L9.60741 12.6097ZM9.93272 13.6424L9.99222 13.7228L10.0495 13.6804L10.0281 13.6124L9.93272 13.6424ZM9.0625 14.2867L9.003 14.2064L8.76302 14.384L9.0616 14.3867L9.0625 14.2867ZM10.1452 14.2965L10.2401 14.2647L10.2174 14.1971L10.1461 14.1965L10.1452 14.2965ZM10.4891 15.3232L10.3943 15.355L10.4891 15.6381L10.5839 15.355L10.4891 15.3232ZM10.8329 14.2965L10.832 14.1965L10.7608 14.1971L10.7381 14.2647L10.8329 14.2965ZM11.3708 11.3903L11.3127 11.4718L11.5559 11.6451L11.4661 11.3603L11.3708 11.3903ZM11.0455 10.3576L10.9859 10.2772L10.9287 10.3196L10.9501 10.3876L11.0455 10.3576ZM10.4891 10.7618L10.5471 10.6804L10.4891 10.639L10.431 10.6804L10.4891 10.7618ZM9.60741 11.3903L9.51203 11.3603L9.42232 11.6451L9.66545 11.4718L9.60741 11.3903ZM9.93272 10.3576L10.0281 10.3876L10.0495 10.3196L9.99222 10.2772L9.93272 10.3576ZM9.0625 9.71328L9.0616 9.61328L8.76302 9.61597L9.003 9.79365L9.0625 9.71328ZM10.1452 9.70353L10.1461 9.80352L10.2174 9.80288L10.2401 9.73528L10.1452 9.70353ZM10.4891 8.6768L10.5839 8.64504L10.4891 8.36191L10.3943 8.64504L10.4891 8.6768ZM10.8329 9.70353L10.7381 9.73528L10.7608 9.80288L10.832 9.80352L10.8329 9.70353ZM11.9157 9.71328L11.9752 9.79365L12.2152 9.61597L11.9166 9.61328L11.9157 9.71328ZM12.9762 7.70008L12.9753 7.60008L12.9041 7.60073L12.8814 7.66832L12.9762 7.70008ZM12.6324 8.7268L12.5376 8.75856L12.6324 9.0417L12.7272 8.75856L12.6324 8.7268ZM14.059 7.69033L14.0599 7.79033L14.3584 7.78764L14.1185 7.60996L14.059 7.69033ZM13.1888 7.04603L13.0934 7.01599L13.072 7.08398L13.1292 7.1264L13.1888 7.04603ZM13.5141 6.01328L13.6094 6.04332L13.6992 5.75853L13.456 5.93185L13.5141 6.01328ZM12.6324 6.6418L12.5743 6.72323L12.6324 6.76461L12.6904 6.72323L12.6324 6.6418ZM11.7507 6.01328L11.8088 5.93185L11.5656 5.75853L11.6553 6.04332L11.7507 6.01328ZM12.076 7.04603L12.1355 7.1264L12.1928 7.08398L12.1714 7.01599L12.076 7.04603ZM11.2058 7.69033L11.1463 7.60996L10.9063 7.78764L11.2049 7.79033L11.2058 7.69033ZM12.2885 7.70008L12.3834 7.66832L12.3607 7.60073L12.2894 7.60008L12.2885 7.70008ZM16.0423 6.60358L15.1606 7.2321L15.2767 7.39496L16.1584 6.76643L16.0423 6.60358ZM17.04 7.2321L16.1584 6.60358L16.0423 6.76643L16.9239 7.39496L17.04 7.2321ZM16.5613 6.31083L16.8866 7.34358L17.0774 7.28349L16.7521 6.25074L16.5613 6.31083ZM17.4674 5.55611L16.5972 6.20041L16.7162 6.36115L17.5864 5.71685L17.4674 5.55611ZM16.4433 5.72673L17.526 5.73648L17.5278 5.53648L16.4451 5.52674L16.4433 5.72673ZM16.0055 4.63176L16.3493 5.65849L16.539 5.59497L16.1951 4.56825L16.0055 4.63176ZM15.8513 5.65849L16.1951 4.63176L16.0055 4.56825L15.6616 5.59497L15.8513 5.65849ZM14.6746 5.73648L15.7574 5.72673L15.7556 5.52674L14.6728 5.53648L14.6746 5.73648ZM15.6034 6.20041L14.7332 5.55611L14.6142 5.71685L15.4844 6.36115L15.6034 6.20041ZM15.314 7.34358L15.6393 6.31083L15.4486 6.25074L15.1233 7.28349L15.314 7.34358ZM19.2253 7.60008L18.1426 7.59033L18.1408 7.79033L19.2235 7.80008L19.2253 7.60008ZM19.6631 8.69505L19.3192 7.66832L19.1296 7.73184L19.4734 8.75856L19.6631 8.69505ZM19.8173 7.66832L19.4734 8.69505L19.6631 8.75856L20.0069 7.73184L19.8173 7.66832ZM20.9939 7.59033L19.9112 7.60008L19.913 7.80008L20.9957 7.79033L20.9939 7.59033ZM20.0651 7.1264L20.9353 7.7707L21.0543 7.60996L20.1841 6.96566L20.0651 7.1264ZM20.3545 5.98324L20.0292 7.01599L20.22 7.07607L20.5453 6.04332L20.3545 5.98324ZM19.6263 6.72323L20.508 6.09471L20.3919 5.93185L19.5102 6.56038L19.6263 6.72323ZM18.6285 6.09471L19.5102 6.72323L19.6263 6.56038L18.7446 5.93185L18.6285 6.09471ZM19.1073 7.01599L18.7819 5.98324L18.5912 6.04332L18.9165 7.07607L19.1073 7.01599ZM18.2012 7.7707L19.0714 7.1264L18.9524 6.96566L18.0822 7.60996L18.2012 7.7707ZM20.2255 9.79365L21.0957 10.4379L21.2147 10.2772L20.3445 9.63291L20.2255 9.79365ZM21.3668 9.60353L20.2841 9.61328L20.2859 9.81327L21.3686 9.80352L21.3668 9.60353ZM21.6167 8.64504L21.2729 9.67177L21.4625 9.73528L21.8064 8.70856L21.6167 8.64504ZM22.1502 9.67177L21.8064 8.64504L21.6167 8.70856L21.9606 9.73528L22.1502 9.67177ZM23.139 9.61328L22.0563 9.60353L22.0545 9.80352L23.1372 9.81327L23.139 9.61328ZM22.3274 10.4379L23.1976 9.79365L23.0786 9.63291L22.2084 10.2772L22.3274 10.4379ZM22.6886 11.3603L22.3633 10.3275L22.1725 10.3876L22.4978 11.4204L22.6886 11.3603ZM21.6535 10.8432L22.5352 11.4718L22.6513 11.3089L21.7696 10.6804L21.6535 10.8432ZM20.8879 11.4718L21.7696 10.8432L21.6535 10.6804L20.7718 11.3089L20.8879 11.4718ZM21.0598 10.3275L20.7345 11.3603L20.9252 11.4204L21.2506 10.3876L21.0598 10.3275ZM21.2506 13.6124L20.9252 12.5796L20.7345 12.6397L21.0598 13.6725L21.2506 13.6124ZM20.3445 14.3671L21.2147 13.7228L21.0957 13.5621L20.2255 14.2064L20.3445 14.3671ZM21.3686 14.1965L20.2859 14.1867L20.2841 14.3867L21.3668 14.3965L21.3686 14.1965ZM21.8064 15.2914L21.4625 14.2647L21.2729 14.3282L21.6167 15.355L21.8064 15.2914ZM21.9606 14.2647L21.6167 15.2914L21.8064 15.355L22.1502 14.3282L21.9606 14.2647ZM23.1372 14.1867L22.0545 14.1965L22.0563 14.3965L23.139 14.3867L23.1372 14.1867ZM22.2084 13.7228L23.0786 14.3671L23.1976 14.2064L22.3274 13.5621L22.2084 13.7228ZM22.4978 12.5796L22.1725 13.6124L22.3633 13.6725L22.6886 12.6397L22.4978 12.5796ZM21.7696 13.3196L22.6513 12.6911L22.5352 12.5282L21.6535 13.1568L21.7696 13.3196ZM20.7718 12.6911L21.6535 13.3196L21.7696 13.1568L20.8879 12.5282L20.7718 12.6911ZM19.4734 15.2414L19.1296 16.2682L19.3192 16.3317L19.6631 15.305L19.4734 15.2414ZM20.0069 16.2682L19.6631 15.2414L19.4734 15.305L19.8173 16.3317L20.0069 16.2682ZM20.9957 16.2097L19.913 16.1999L19.9112 16.3999L20.9939 16.4097L20.9957 16.2097ZM20.1841 17.0343L21.0543 16.39L20.9353 16.2293L20.0651 16.8736L20.1841 17.0343ZM20.5453 17.9567L20.22 16.9239L20.0292 16.984L20.3545 18.0168L20.5453 17.9567ZM19.5102 17.4396L20.3919 18.0681L20.508 17.9053L19.6263 17.2768L19.5102 17.4396ZM18.7446 18.0681L19.6263 17.4396L19.5102 17.2768L18.6285 17.9053L18.7446 18.0681ZM18.9165 16.9239L18.5912 17.9567L18.7819 18.0168L19.1073 16.984L18.9165 16.9239ZM18.0822 16.39L18.9524 17.0343L19.0714 16.8736L18.2012 16.2293L18.0822 16.39ZM19.2235 16.1999L18.1408 16.2097L18.1426 16.4097L19.2253 16.3999L19.2235 16.1999ZM16.1584 17.3964L17.04 16.7679L16.9239 16.605L16.0423 17.2336L16.1584 17.3964ZM15.1606 16.7679L16.0423 17.3964L16.1584 17.2336L15.2767 16.605L15.1606 16.7679ZM15.6393 17.6892L15.314 16.6564L15.1233 16.7165L15.4486 17.7493L15.6393 17.6892ZM14.7332 18.4439L15.6034 17.7996L15.4844 17.6389L14.6142 18.2832L14.7332 18.4439ZM15.7574 18.2733L14.6746 18.2635L14.6728 18.4635L15.7556 18.4733L15.7574 18.2733ZM16.1951 19.3682L15.8513 18.3415L15.6616 18.405L16.0055 19.4318L16.1951 19.3682ZM16.3493 18.3415L16.0055 19.3682L16.1951 19.4318L16.539 18.405L16.3493 18.3415ZM17.526 18.2635L16.4433 18.2733L16.4451 18.4733L17.5278 18.4635L17.526 18.2635ZM16.5972 17.7996L17.4674 18.4439L17.5864 18.2832L16.7162 17.6389L16.5972 17.7996ZM16.8866 16.6564L16.5613 17.6892L16.7521 17.7493L17.0774 16.7165L16.8866 16.6564ZM14.0599 16.2097L12.9771 16.1999L12.9753 16.3999L14.0581 16.4097L14.0599 16.2097ZM13.2483 17.0343L14.1185 16.39L13.9995 16.2293L13.1292 16.8736L13.2483 17.0343ZM13.6094 17.9567L13.2841 16.9239L13.0934 16.984L13.4187 18.0168L13.6094 17.9567ZM12.5743 17.4396L13.456 18.0681L13.5721 17.9053L12.6904 17.2768L12.5743 17.4396ZM11.8088 18.0681L12.6904 17.4396L12.5743 17.2768L11.6927 17.9053L11.8088 18.0681ZM11.9806 16.9239L11.6553 17.9567L11.8461 18.0168L12.1714 16.984L11.9806 16.9239ZM11.1463 16.39L12.0165 17.0343L12.1355 16.8736L11.2653 16.2293L11.1463 16.39ZM12.2876 16.1999L11.2049 16.2097L11.2067 16.4097L12.2894 16.3999L12.2876 16.1999ZM12.5376 15.2414L12.1937 16.2682L12.3834 16.3317L12.7272 15.305L12.5376 15.2414ZM13.0711 16.2682L12.7272 15.2414L12.5376 15.305L12.8814 16.3317L13.0711 16.2682ZM10.9859 13.7228L11.8562 14.3671L11.9752 14.2064L11.105 13.5621L10.9859 13.7228ZM11.2754 12.5796L10.9501 13.6124L11.1408 13.6725L11.4661 12.6397L11.2754 12.5796ZM10.5471 13.3196L11.4288 12.6911L11.3127 12.5282L10.431 13.1568L10.5471 13.3196ZM9.54936 12.6911L10.431 13.3196L10.5471 13.1568L9.66545 12.5282L9.54936 12.6911ZM10.0281 13.6124L9.70279 12.5796L9.51203 12.6397L9.83734 13.6725L10.0281 13.6124ZM9.122 14.3671L9.99222 13.7228L9.87321 13.5621L9.003 14.2064L9.122 14.3671ZM10.1461 14.1965L9.0634 14.1867L9.0616 14.3867L10.1443 14.3965L10.1461 14.1965ZM10.5839 15.2914L10.2401 14.2647L10.0504 14.3282L10.3943 15.355L10.5839 15.2914ZM10.7381 14.2647L10.3943 15.2914L10.5839 15.355L10.9278 14.3282L10.7381 14.2647ZM11.9148 14.1867L10.832 14.1965L10.8338 14.3965L11.9166 14.3867L11.9148 14.1867ZM11.4661 11.3603L11.1408 10.3275L10.9501 10.3876L11.2754 11.4204L11.4661 11.3603ZM10.431 10.8432L11.3127 11.4718L11.4288 11.3089L10.5471 10.6804L10.431 10.8432ZM9.66545 11.4718L10.5471 10.8432L10.431 10.6804L9.54936 11.3089L9.66545 11.4718ZM9.83734 10.3275L9.51203 11.3603L9.70279 11.4204L10.0281 10.3876L9.83734 10.3275ZM9.003 9.79365L9.87321 10.4379L9.99222 10.2772L9.122 9.63291L9.003 9.79365ZM10.1443 9.60353L9.0616 9.61328L9.0634 9.81327L10.1461 9.80352L10.1443 9.60353ZM10.3943 8.64504L10.0504 9.67177L10.2401 9.73528L10.5839 8.70856L10.3943 8.64504ZM10.9278 9.67177L10.5839 8.64504L10.3943 8.70856L10.7381 9.73528L10.9278 9.67177ZM11.9166 9.61328L10.8338 9.60353L10.832 9.80352L11.9148 9.81327L11.9166 9.61328ZM11.105 10.4379L11.9752 9.79365L11.8562 9.63291L10.9859 10.2772L11.105 10.4379ZM12.8814 7.66832L12.5376 8.69505L12.7272 8.75856L13.0711 7.73184L12.8814 7.66832ZM14.0581 7.59033L12.9753 7.60008L12.9771 7.80008L14.0599 7.79033L14.0581 7.59033ZM13.1292 7.1264L13.9995 7.7707L14.1185 7.60996L13.2483 6.96566L13.1292 7.1264ZM13.4187 5.98324L13.0934 7.01599L13.2841 7.07607L13.6094 6.04332L13.4187 5.98324ZM12.6904 6.72323L13.5721 6.09471L13.456 5.93185L12.5743 6.56038L12.6904 6.72323ZM11.6927 6.09471L12.5743 6.72323L12.6904 6.56038L11.8088 5.93185L11.6927 6.09471ZM12.1714 7.01599L11.8461 5.98324L11.6553 6.04332L11.9806 7.07607L12.1714 7.01599ZM11.2653 7.7707L12.1355 7.1264L12.0165 6.96566L11.1463 7.60996L11.2653 7.7707ZM12.2894 7.60008L11.2067 7.59033L11.2049 7.79033L12.2876 7.80008L12.2894 7.60008ZM12.7272 8.69505L12.3834 7.66832L12.1937 7.73184L12.5376 8.75856L12.7272 8.69505Z" fill="#FECA00" mask="url(#path-15-inside-1_230_27370)"/>
</g>
</g>
<rect width="32" height="24" fill="url(#paint0_linear_230_27370)" style="mix-blend-mode:overlay"/>
</g>
<rect x="0.5" y="0.5" width="31" height="23" rx="1.5" stroke="black" stroke-opacity="0.1"/>
<defs>
<linearGradient id="paint0_linear_230_27370" x1="16" y1="0" x2="16" y2="24" gradientUnits="userSpaceOnUse">
<stop stop-color="white" stop-opacity="0.7"/>
<stop offset="1" stop-opacity="0.3"/>
</linearGradient>
<clipPath id="clip0_230_27370">
<rect width="32" height="24" rx="2" fill="white"/>
</clipPath>
</defs>
</svg>
