<svg width="32" height="24" viewBox="0 0 32 24" fill="none" xmlns="http://www.w3.org/2000/svg">
<g clip-path="url(#clip0_230_28554)">
<mask id="mask0_230_28554" style="mask-type:luminance" maskUnits="userSpaceOnUse" x="0" y="0" width="32" height="24">
<rect width="32" height="24" fill="white"/>
</mask>
<g mask="url(#mask0_230_28554)">
<path fill-rule="evenodd" clip-rule="evenodd" d="M0 0V24H32V0H0Z" fill="#2E42A5"/>
<mask id="mask1_230_28554" style="mask-type:luminance" maskUnits="userSpaceOnUse" x="0" y="0" width="32" height="24">
<path fill-rule="evenodd" clip-rule="evenodd" d="M0 0V24H32V0H0Z" fill="white"/>
</mask>
<g mask="url(#mask1_230_28554)">
<path fill-rule="evenodd" clip-rule="evenodd" d="M20.9434 11.8562L20.9466 12.2067C20.9735 15.1566 21.0823 17.0865 21.2759 18.011C21.4368 18.7788 22.0212 20.0518 22.7086 21.0726C23.5728 22.3561 24.4949 23.1368 25.3774 23.1368C26.2631 23.1368 27.1859 22.4108 28.0464 21.2011C28.7527 20.2082 29.3577 18.9486 29.5985 18.0204C29.8966 16.8714 30.0355 14.9356 30.0187 12.2036L30.0165 11.8556L29.6986 12.0202C29.0579 12.3519 28.3681 12.5174 27.626 12.5174C26.8925 12.5174 26.1846 12.2982 25.498 11.8563L25.3803 11.7805L25.2608 11.8538C24.5363 12.2979 23.8554 12.5174 23.2172 12.5174C22.5709 12.5174 21.9208 12.3521 21.265 12.0194L20.9434 11.8562ZM21.4889 17.9695C21.299 17.0627 21.1906 15.1411 21.1638 12.2048C21.8499 12.5529 22.5344 12.7269 23.2172 12.7269C23.9 12.7269 24.6201 12.4948 25.3774 12.0306C26.0987 12.4948 26.8483 12.7269 27.626 12.7269C28.4038 12.7269 29.1289 12.5529 29.8014 12.2048C29.8182 14.9205 29.6803 16.8421 29.3877 17.9695C28.9489 19.6607 27.1086 22.9273 25.3774 22.9273C23.6462 22.9273 21.7739 19.3298 21.4889 17.9695Z" fill="#FBE625"/>
<path fill-rule="evenodd" clip-rule="evenodd" d="M21.1641 12.2048C21.1641 12.2048 21.2042 16.6093 21.4892 17.9695C21.7741 19.3298 23.6464 22.9273 25.3776 22.9273C27.1089 22.9273 28.9491 19.6607 29.388 17.9695C29.8268 16.2783 29.8016 12.2048 29.8016 12.2048C29.8016 12.2048 28.7929 12.7269 27.6263 12.7269C26.4596 12.7269 25.3776 12.0306 25.3776 12.0306C25.3776 12.0306 24.2417 12.7269 23.2174 12.7269C22.1932 12.7269 21.1641 12.2048 21.1641 12.2048Z" fill="#F5FBFF"/>
<mask id="mask2_230_28554" style="mask-type:luminance" maskUnits="userSpaceOnUse" x="21" y="12" width="9" height="11">
<path fill-rule="evenodd" clip-rule="evenodd" d="M21.1641 12.2048C21.1641 12.2048 21.2042 16.6093 21.4892 17.9695C21.7741 19.3298 23.6464 22.9273 25.3776 22.9273C27.1089 22.9273 28.9491 19.6607 29.388 17.9695C29.8268 16.2783 29.8016 12.2048 29.8016 12.2048C29.8016 12.2048 28.7929 12.7269 27.6263 12.7269C26.4596 12.7269 25.3776 12.0306 25.3776 12.0306C25.3776 12.0306 24.2417 12.7269 23.2174 12.7269C22.1932 12.7269 21.1641 12.2048 21.1641 12.2048Z" fill="white"/>
</mask>
<g mask="url(#mask2_230_28554)">
<path fill-rule="evenodd" clip-rule="evenodd" d="M24.6407 15.4883C24.6407 15.776 24.2296 16.6134 23.9915 16.8277C23.8152 16.9863 23.8697 16.6179 23.9098 16.3459L23.9098 16.3459C23.9239 16.2504 23.9363 16.1668 23.9363 16.1221L23.9363 16.1025C23.9364 16.046 23.9364 16.0152 23.9307 15.9855C23.924 15.9499 23.909 15.9159 23.8762 15.8411L23.8762 15.8411C23.8638 15.8131 23.849 15.7793 23.8311 15.7376C23.4496 14.9237 23.7196 14.534 23.8395 14.3609C23.8578 14.3344 23.8726 14.313 23.8811 14.2959C23.8992 14.2593 23.9333 14.2264 23.9713 14.1897C24.0671 14.0974 24.1879 13.9808 24.1423 13.7195C24.0787 13.3544 24.4648 12.886 24.4648 12.886C24.4648 12.886 24.3711 13.7944 24.8148 13.5718C25.1033 13.4272 25.626 13.6347 26.0909 13.8193C26.3412 13.9187 26.5748 14.0114 26.746 14.039C27.0919 14.0946 27.2813 13.9493 27.3985 13.8594C27.4471 13.8221 27.4833 13.7944 27.5131 13.7944C27.6148 13.7944 27.7348 13.8147 27.7348 13.889C27.7348 13.9632 27.2793 14.1805 27.0503 14.2483C26.8778 14.2994 27.0549 14.4402 27.2032 14.5581C27.2517 14.5967 27.2972 14.6328 27.3263 14.6626C27.4445 14.7833 27.5529 15.4416 27.2793 15.0275C27.0058 14.6133 26.4235 14.3364 25.9286 14.2959C25.4337 14.2553 24.8097 14.631 24.7348 15.0275C24.6598 15.424 25.3202 15.3513 25.3202 15.3513C25.3202 15.3513 25.272 15.4131 25.059 15.4883C24.846 15.5634 24.6407 15.4883 24.6407 15.4883ZM24.1428 15.4571C24.1428 15.515 24.0941 15.5619 24.0341 15.5619C23.9741 15.5619 23.9255 15.515 23.9255 15.4571C23.9255 15.3993 23.9741 15.3524 24.0341 15.3524C24.0941 15.3524 24.1428 15.3993 24.1428 15.4571ZM26.5828 17.4011C26.28 17.2967 25.3482 17.3432 25.0966 17.4827C25.0966 17.4827 25.0627 17.2666 24.8938 17.1168C24.7248 16.9669 24.6474 16.9547 24.6474 16.9547C24.6474 16.9547 25.0311 17.4971 24.648 17.6238C24.2648 17.7504 23.6337 17.3868 23.4293 16.9343C23.2248 16.4818 23.1847 15.8382 23.4143 15.3982C23.6439 14.9582 23.1207 15.3721 23.0724 15.5341C23.0605 15.574 23.0509 15.6312 23.0407 15.6923C23.0095 15.8793 22.9722 16.1024 22.8439 15.9762C22.6736 15.8088 22.2627 15.5159 22.1978 15.5518C22.1328 15.5878 22.1732 15.7026 22.2225 15.7916C22.2369 15.8176 22.2788 15.8358 22.3349 15.8603C22.4704 15.9192 22.6893 16.0145 22.8083 16.3439C22.8673 16.507 22.8994 16.7563 22.9338 17.0234C22.9978 17.5195 23.0696 18.0773 23.336 18.2594C23.7458 18.5396 22.9058 18.8981 22.9058 18.8981C22.9058 18.8981 23.5027 19.0087 23.7912 18.776C23.9977 18.6095 24.1582 18.6587 24.2853 18.6976L24.2854 18.6976C24.3359 18.7131 24.3812 18.727 24.4219 18.7251C24.441 18.7242 24.4669 18.7268 24.499 18.73C24.7085 18.7509 25.1802 18.7981 25.7071 18.0698C25.7349 18.034 25.7573 18.0046 25.7758 17.9802L25.7758 17.9802C25.8253 17.9153 25.8478 17.8857 25.8756 17.8625C25.8989 17.8432 25.9258 17.8283 25.9753 17.8009L25.9924 17.7914C26.0315 17.7697 26.1106 17.74 26.201 17.7061L26.201 17.7061L26.201 17.7061C26.4584 17.6094 26.807 17.4783 26.5828 17.4011ZM25.3296 17.8816C25.3802 17.8536 25.4448 17.8734 25.4739 17.9259C25.503 17.9783 25.4855 18.0436 25.4349 18.0717C25.3843 18.0997 25.3197 18.0799 25.2906 18.0274C25.2615 17.975 25.279 17.9097 25.3296 17.8816ZM25.8426 14.8743C25.92 15.1852 26.4665 15.9412 26.7205 16.0763C26.7205 16.0763 26.5577 16.2224 26.5241 16.4457C26.4905 16.669 26.5224 16.7406 26.5224 16.7406C26.5224 16.7406 26.7683 16.1234 27.0832 16.3757C27.3981 16.628 27.4368 17.3554 27.1687 17.7733C26.9005 18.1912 26.3827 18.5754 25.8886 18.6224C25.3945 18.6695 26.0266 18.8829 26.1887 18.8352C26.2287 18.8235 26.2819 18.8003 26.3387 18.7756C26.5125 18.7 26.7199 18.6097 26.684 18.7861C26.6364 19.0201 26.6144 19.5242 26.68 19.5591C26.7455 19.5939 26.8198 19.4976 26.8676 19.4078C26.8816 19.3815 26.8741 19.3365 26.864 19.2761C26.8396 19.1303 26.8003 18.8949 27.0117 18.6156C27.1164 18.4774 27.308 18.3147 27.5133 18.1403C27.8945 17.8165 28.3231 17.4524 28.3308 17.1298C28.3427 16.6335 29.1008 17.1427 29.1008 17.1427C29.1008 17.1427 28.8685 16.5819 28.5162 16.4667C28.264 16.3842 28.2179 16.2228 28.1813 16.095C28.1668 16.0441 28.1537 15.9986 28.1299 15.9654C28.1188 15.95 28.1068 15.9268 28.0921 15.8982C27.9955 15.711 27.7781 15.2897 26.8804 15.2445C26.8352 15.2407 26.7984 15.2379 26.7679 15.2357C26.6864 15.2296 26.6494 15.2268 26.6148 15.2161C26.5859 15.2071 26.5587 15.1926 26.5089 15.1661C26.5034 15.1631 26.4976 15.1601 26.4916 15.1568C26.4521 15.1358 26.3841 15.0857 26.3064 15.0284L26.3064 15.0284C26.0851 14.8652 25.7853 14.6442 25.8426 14.8743ZM26.9627 15.7034C26.9116 15.6762 26.893 15.6112 26.9212 15.5583C26.9494 15.5053 27.0136 15.4844 27.0647 15.5115C27.1158 15.5387 27.1344 15.6037 27.1062 15.6566C27.078 15.7096 27.0138 15.7305 26.9627 15.7034Z" fill="#FF9800"/>
<path fill-rule="evenodd" clip-rule="evenodd" d="M21.4258 19.7524H28.7048V23.2095H21.4258V19.7524Z" fill="#36C6FF"/>
</g>
<rect width="18" height="14" fill="#2B409A"/>
<mask id="mask3_230_28554" style="mask-type:luminance" maskUnits="userSpaceOnUse" x="0" y="0" width="18" height="14">
<rect width="18" height="14" fill="white"/>
</mask>
<g mask="url(#mask3_230_28554)">
<path d="M-2.00586 12.9998L1.95509 14.737L18.0883 1.88874L20.1776 -0.692787L15.9419 -1.27341L9.36159 4.26328L4.06508 7.99372L-2.00586 12.9998Z" fill="#F7FCFF"/>
<path d="M-1.46289 14.2169L0.555031 15.2251L19.428 -0.93264H16.5947L-1.46289 14.2169Z" fill="#F50100"/>
<path d="M20.0039 12.9998L16.043 14.737L-0.0902405 1.88874L-2.17955 -0.692787L2.05612 -1.27341L8.63646 4.26328L13.933 7.99372L20.0039 12.9998Z" fill="#F7FCFF"/>
<path d="M19.8691 13.8733L17.8512 14.8815L9.81489 7.96351L7.43229 7.19059L-2.3802 -0.683947H0.453194L10.2602 7.00368L12.8651 7.9305L19.8691 13.8733Z" fill="#F50100"/>
<mask id="path-17-outside-1_230_28554" maskUnits="userSpaceOnUse" x="-2" y="-2" width="22" height="18" fill="black">
<rect fill="white" x="-2" y="-2" width="22" height="18"/>
<path fill-rule="evenodd" clip-rule="evenodd" d="M9.98451 0H7.98451V6H0V8H7.98451V14H9.98451V8H18V6H9.98451V0Z"/>
</mask>
<path fill-rule="evenodd" clip-rule="evenodd" d="M9.98451 0H7.98451V6H0V8H7.98451V14H9.98451V8H18V6H9.98451V0Z" fill="#F50100"/>
<path d="M7.98451 0V-1.5H6.48451V0H7.98451ZM9.98451 0H11.4845V-1.5H9.98451V0ZM7.98451 6V7.5H9.48451V6H7.98451ZM0 6V4.5H-1.5V6H0ZM0 8H-1.5V9.5H0V8ZM7.98451 8H9.48451V6.5H7.98451V8ZM7.98451 14H6.48451V15.5H7.98451V14ZM9.98451 14V15.5H11.4845V14H9.98451ZM9.98451 8V6.5H8.48451V8H9.98451ZM18 8V9.5H19.5V8H18ZM18 6H19.5V4.5H18V6ZM9.98451 6H8.48451V7.5H9.98451V6ZM7.98451 1.5H9.98451V-1.5H7.98451V1.5ZM9.48451 6V0H6.48451V6H9.48451ZM0 7.5H7.98451V4.5H0V7.5ZM1.5 8V6H-1.5V8H1.5ZM7.98451 6.5H0V9.5H7.98451V6.5ZM9.48451 14V8H6.48451V14H9.48451ZM9.98451 12.5H7.98451V15.5H9.98451V12.5ZM8.48451 8V14H11.4845V8H8.48451ZM18 6.5H9.98451V9.5H18V6.5ZM16.5 6V8H19.5V6H16.5ZM9.98451 7.5H18V4.5H9.98451V7.5ZM8.48451 0V6H11.4845V0H8.48451Z" fill="#F7FCFF" mask="url(#path-17-outside-1_230_28554)"/>
</g>
</g>
</g>
<rect width="32" height="24" fill="url(#paint0_linear_230_28554)" style="mix-blend-mode:overlay"/>
</g>
<rect x="0.5" y="0.5" width="31" height="23" rx="1.5" stroke="black" stroke-opacity="0.1"/>
<defs>
<linearGradient id="paint0_linear_230_28554" x1="16" y1="0" x2="16" y2="24" gradientUnits="userSpaceOnUse">
<stop stop-color="white" stop-opacity="0.7"/>
<stop offset="1" stop-opacity="0.3"/>
</linearGradient>
<clipPath id="clip0_230_28554">
<rect width="32" height="24" rx="2" fill="white"/>
</clipPath>
</defs>
</svg>
