<svg width="32" height="24" viewBox="0 0 32 24" fill="none" xmlns="http://www.w3.org/2000/svg">
<g clip-path="url(#clip0_230_25221)">
<mask id="mask0_230_25221" style="mask-type:luminance" maskUnits="userSpaceOnUse" x="0" y="0" width="32" height="24">
<rect width="32" height="24" fill="white"/>
</mask>
<g mask="url(#mask0_230_25221)">
<path fill-rule="evenodd" clip-rule="evenodd" d="M0 16H32V24H0V16Z" fill="#55BA07"/>
<path fill-rule="evenodd" clip-rule="evenodd" d="M0 8H32V16H0V8Z" fill="#F7FCFF"/>
<path fill-rule="evenodd" clip-rule="evenodd" d="M0 0H32V8H0V0Z" fill="#3D58DB"/>
<path fill-rule="evenodd" clip-rule="evenodd" d="M15.25 8.24027C14.7273 8.38061 14.4513 8.74183 14.4513 9.38094C14.4513 10.1113 14.8099 10.7969 15.25 11.1505V8.24027ZM16.5 11.1309C16.9278 10.7725 17.2718 10.0997 17.2718 9.38281C17.2718 8.76207 17 8.40247 16.5 8.25325V11.1309ZM16.4579 7.73226C17.2763 7.91405 17.8686 8.47142 17.8686 9.37697C17.8686 10.0356 17.5552 10.8363 17.0695 11.3857L19.5032 13.7728L20.1035 13.5751L21 14.9348C21 14.9348 18.7341 16 15.9334 16C13.1328 16 11 14.9348 11 14.9348L11.7632 13.7728L12.3795 13.9748L14.6374 11.4271C14.1304 10.8771 13.801 10.0523 13.801 9.37697C13.801 8.43939 14.4359 7.87505 15.2994 7.71437C15.3944 7.4904 15.6164 7.33331 15.875 7.33331C16.1405 7.33331 16.3673 7.49881 16.4579 7.73226ZM12.0017 14.2963L11.7481 14.6488H12.2416L12.0017 14.2963ZM12.2908 14.7879L11.8549 14.8756L12.2908 15.0274V14.7879ZM12.5131 14.2803L12.7359 14.8005L13.2894 14.6496L13.1796 14.4404L12.5131 14.2803ZM13.7168 15.3179L12.904 15.1576L12.8109 15.0014L13.424 14.868L13.7168 15.3179ZM13.7642 14.5733L14.0169 15.0279L14.5724 14.8587L14.4179 14.655L13.7642 14.5733ZM14.2197 15.4086L14.1203 15.2205L14.7351 15.0564L15.0888 15.4887L14.2197 15.4086ZM15.3677 15.0965L16.16 14.887L16.0625 14.7071H15.0342L15.3677 15.0965ZM15.6518 15.497L15.5259 15.3024L16.2868 15.0532L16.6905 15.497H15.6518ZM16.6145 14.7208L16.8579 15.019L17.5169 14.7906L17.4342 14.6349L16.6145 14.7208ZM18.0446 15.3406L17.1588 15.4391L17.0284 15.2191L17.6984 14.9991L18.0446 15.3406ZM17.9885 14.5769L18.2366 14.882L18.8314 14.5769L18.6663 14.4853L17.9885 14.5769ZM18.503 15.2586L18.3953 15.0936L18.9613 14.754L19.2489 15.0936L18.503 15.2586ZM19.0649 14.3097L19.4242 14.6526L19.7738 14.3097L19.6632 14.1701L19.0649 14.3097ZM19.6345 14.7703L19.9275 14.4805L20.138 14.7703L19.6345 14.9323V14.7703Z" fill="#1D1D1D"/>
</g>
<rect width="32" height="24" fill="url(#paint0_linear_230_25221)" style="mix-blend-mode:overlay"/>
</g>
<rect x="0.5" y="0.5" width="31" height="23" rx="1.5" stroke="black" stroke-opacity="0.1"/>
<defs>
<linearGradient id="paint0_linear_230_25221" x1="16" y1="0" x2="16" y2="24" gradientUnits="userSpaceOnUse">
<stop stop-color="white" stop-opacity="0.7"/>
<stop offset="1" stop-opacity="0.3"/>
</linearGradient>
<clipPath id="clip0_230_25221">
<rect width="32" height="24" rx="2" fill="white"/>
</clipPath>
</defs>
</svg>
