<svg width="32" height="24" viewBox="0 0 32 24" fill="none" xmlns="http://www.w3.org/2000/svg">
<g clip-path="url(#clip0_230_27278)">
<mask id="mask0_230_27278" style="mask-type:luminance" maskUnits="userSpaceOnUse" x="0" y="0" width="32" height="24">
<rect width="32" height="24" fill="white"/>
</mask>
<g mask="url(#mask0_230_27278)">
<path fill-rule="evenodd" clip-rule="evenodd" d="M0 0V24H32V0H0Z" fill="#C51918"/>
<mask id="mask1_230_27278" style="mask-type:luminance" maskUnits="userSpaceOnUse" x="0" y="0" width="32" height="24">
<path fill-rule="evenodd" clip-rule="evenodd" d="M0 0V24H32V0H0Z" fill="white"/>
</mask>
<g mask="url(#mask1_230_27278)">
<rect width="14" height="10" fill="#4257BF"/>
<rect x="18" y="14" width="14" height="10" fill="#4257BF"/>
<path fill-rule="evenodd" clip-rule="evenodd" d="M13 0H19V9H32V15H19V24H13V15H0V9H13V0Z" fill="#F7FCFF"/>
<path fill-rule="evenodd" clip-rule="evenodd" d="M13.867 10.5247C13.8292 10.3496 13.7867 10.1333 13.7867 10.1333C13.6919 10.3638 13.6621 10.5735 13.7001 10.761C13.6599 10.8201 13.6234 10.8755 13.5908 10.9271C13.4889 10.7836 13.3618 10.5152 13.3618 10.5152C13.3662 10.5933 13.3642 10.6731 13.3623 10.7505C13.3577 10.9324 13.3534 11.1016 13.4335 11.2075L13.4325 11.2096C13.4166 11.2447 13.4014 11.2798 13.3871 11.3147C13.2767 11.1973 13.0936 10.9856 13.0936 10.9856C13.1079 11.2395 13.1737 11.4395 13.2934 11.5823C13.2718 11.6567 13.2539 11.7307 13.2397 11.8042C13.1472 11.7021 13.0579 11.6012 13.0579 11.6012C13.071 11.8328 13.1073 11.9859 13.2017 12.1144C13.1998 12.151 13.1988 12.1875 13.1988 12.2238C13.101 12.1162 13.0015 12.0038 13.0015 12.0038C13.0153 12.2482 13.1047 12.4091 13.2224 12.543C13.2341 12.6204 13.25 12.6969 13.2702 12.7726L13.2815 12.8145C13.1455 12.7434 12.9961 12.6622 12.9961 12.6622C13.0867 12.8734 13.2148 12.9926 13.3595 13.0772C13.391 13.1752 13.4243 13.2699 13.4593 13.361C13.2993 13.312 13.0593 13.2316 13.0593 13.2316C13.2036 13.452 13.3753 13.5448 13.5587 13.6006C13.5964 13.6846 13.6355 13.7647 13.676 13.8408C13.5238 13.7928 13.3437 13.7325 13.3437 13.7325C13.4838 13.9465 13.6498 14.0402 13.8272 14.0965C13.9445 14.2744 14.0702 14.4203 14.2014 14.5291C14.0505 14.592 13.8572 14.6681 13.8572 14.6681C14.0714 14.7326 14.2416 14.714 14.3961 14.6609L14.4067 14.6664C14.4701 14.6988 14.5409 14.7293 14.6208 14.7591C14.4964 14.8098 14.377 14.8568 14.377 14.8568C14.5871 14.9201 14.7549 14.9034 14.907 14.8526L14.9144 14.8547C14.9858 14.8755 15.0586 14.8954 15.1544 14.9207C15.091 14.904 15.3249 14.9655 15.3724 14.9784C15.5245 15.0197 15.6111 15.0487 15.6527 15.0737C15.6566 15.076 15.6594 15.0779 15.6612 15.0791C15.663 15.0804 15.6638 15.0809 15.6634 15.0803L15.7797 14.9901C15.7662 14.9703 15.7475 14.9546 15.7233 14.94C15.6662 14.9057 15.5737 14.8747 15.4079 14.8297C15.3607 14.8169 15.1342 14.7573 15.1855 14.7709C15.0924 14.7463 15.0215 14.7269 14.9522 14.7067L14.8984 14.6908C14.9111 14.5306 14.8868 14.3635 14.7743 14.1745C14.7743 14.1745 14.7357 14.4679 14.709 14.6291C14.6168 14.5963 14.5374 14.5631 14.4688 14.528C14.4489 14.5179 14.429 14.5067 14.4092 14.4945C14.3954 14.3305 14.3436 14.1662 14.1963 13.9954C14.1963 13.9954 14.2043 14.1776 14.2085 14.335C14.1107 14.2393 14.0157 14.1196 13.9255 13.9787L14.0107 14.0258C14.0111 13.8248 13.9738 13.6254 13.7935 13.4163C13.7935 13.4163 13.8021 13.6134 13.8062 13.7747C13.7532 13.6757 13.7023 13.569 13.654 13.4552C13.6988 13.2944 13.7076 13.1204 13.6265 12.9064C13.6265 12.9064 13.5857 13.0357 13.5425 13.1671C13.5299 13.1311 13.5175 13.0946 13.5053 13.0576C13.5991 12.8895 13.6588 12.703 13.6094 12.4432C13.6094 12.4432 13.5046 12.6446 13.4247 12.7903C13.4192 12.7706 13.4138 12.7507 13.4085 12.7307C13.3913 12.6658 13.3773 12.6002 13.3668 12.5339C13.5013 12.4118 13.6103 12.2601 13.6504 12.0138C13.6504 12.0138 13.4696 12.1795 13.3436 12.2894C13.3418 12.2337 13.3424 12.1775 13.3454 12.121C13.4906 12.0254 13.6162 11.8962 13.6948 11.671C13.6948 11.671 13.5144 11.786 13.3739 11.8715C13.3835 11.8168 13.3953 11.7617 13.4093 11.7063C13.5822 11.6065 13.7347 11.4745 13.825 11.2156C13.825 11.2156 13.6433 11.3314 13.5025 11.4171C13.5207 11.3704 13.5405 11.3236 13.5619 11.2767C13.5871 11.2213 13.623 11.1551 13.6695 11.0782C13.8241 11.0224 13.969 10.9297 14.0956 10.7436C14.0956 10.7436 13.9671 10.7842 13.8351 10.8241C13.9091 10.7165 13.996 10.596 14.0958 10.4628L13.9834 10.3671C13.9425 10.4217 13.9037 10.4742 13.867 10.5247Z" fill="#5AB92D"/>
<path fill-rule="evenodd" clip-rule="evenodd" d="M17.9142 10.5247C17.952 10.3496 17.9946 10.1333 17.9946 10.1333C18.0893 10.3638 18.1191 10.5735 18.0811 10.761C18.1214 10.8201 18.1578 10.8755 18.1905 10.9271C18.2923 10.7836 18.4194 10.5152 18.4194 10.5152C18.415 10.5933 18.417 10.6731 18.419 10.7505C18.4236 10.9324 18.4278 11.1016 18.3477 11.2075L18.3487 11.2096C18.3647 11.2447 18.3798 11.2798 18.3941 11.3147C18.5045 11.1973 18.6877 10.9856 18.6877 10.9856C18.6734 11.2395 18.6075 11.4395 18.4878 11.5823C18.5095 11.6567 18.5274 11.7307 18.5415 11.8042C18.6341 11.7021 18.7233 11.6012 18.7233 11.6012C18.7103 11.8328 18.6739 11.9859 18.5796 12.1144C18.5815 12.151 18.5824 12.1875 18.5825 12.2238C18.6803 12.1162 18.7797 12.0038 18.7797 12.0038C18.7659 12.2482 18.6765 12.4091 18.5588 12.543C18.5472 12.6204 18.5312 12.6969 18.5111 12.7726L18.4998 12.8145C18.6357 12.7434 18.7852 12.6622 18.7852 12.6622C18.6945 12.8734 18.5665 12.9926 18.4218 13.0772C18.3902 13.1752 18.3569 13.2699 18.322 13.361C18.4819 13.312 18.722 13.2316 18.722 13.2316C18.5777 13.452 18.406 13.5448 18.2226 13.6006C18.1849 13.6846 18.1457 13.7647 18.1052 13.8408C18.2574 13.7928 18.4376 13.7325 18.4376 13.7325C18.2974 13.9465 18.1315 14.0402 17.9541 14.0965C17.8368 14.2744 17.711 14.4203 17.5799 14.5291C17.7308 14.592 17.924 14.6681 17.924 14.6681C17.7098 14.7326 17.5396 14.714 17.3851 14.6609L17.3746 14.6664C17.3112 14.6988 17.2403 14.7293 17.1605 14.7591C17.2849 14.8098 17.4043 14.8568 17.4043 14.8568C17.1942 14.9201 17.0264 14.9034 16.8742 14.8526L16.8669 14.8547C16.7954 14.8755 16.7227 14.8954 16.6269 14.9207C16.6902 14.904 16.4563 14.9655 16.4088 14.9784C16.2567 15.0197 16.1701 15.0487 16.1285 15.0737C16.1247 15.076 16.1218 15.0779 16.12 15.0791C16.1182 15.0804 16.1175 15.0809 16.1179 15.0803L16.0015 14.9901C16.015 14.9703 16.0337 14.9546 16.058 14.94C16.115 14.9057 16.2076 14.8747 16.3734 14.8297C16.4205 14.8169 16.6471 14.7573 16.5958 14.7709C16.6889 14.7463 16.7597 14.7269 16.8291 14.7067L16.8829 14.6908C16.8702 14.5306 16.8944 14.3635 17.0069 14.1745C17.0069 14.1745 17.0456 14.4679 17.0722 14.6291C17.1644 14.5963 17.2439 14.5631 17.3124 14.528C17.3323 14.5179 17.3522 14.5067 17.372 14.4945C17.3858 14.3305 17.4377 14.1662 17.5849 13.9954C17.5849 13.9954 17.577 14.1776 17.5727 14.335C17.6706 14.2393 17.7655 14.1196 17.8557 13.9787L17.7706 14.0258C17.7701 13.8248 17.8074 13.6254 17.9877 13.4163C17.9877 13.4163 17.9791 13.6134 17.975 13.7747C18.0281 13.6757 18.079 13.569 18.1273 13.4552C18.0825 13.2944 18.0737 13.1204 18.1548 12.9064C18.1548 12.9064 18.1955 13.0357 18.2387 13.1671C18.2514 13.1311 18.2638 13.0946 18.2759 13.0576C18.1821 12.8895 18.1224 12.703 18.1718 12.4432C18.1718 12.4432 18.2766 12.6446 18.3566 12.7903C18.362 12.7706 18.3674 12.7507 18.3727 12.7307C18.39 12.6658 18.4039 12.6002 18.4145 12.5339C18.2799 12.4118 18.1709 12.2601 18.1309 12.0138C18.1309 12.0138 18.3117 12.1795 18.4377 12.2894C18.4395 12.2337 18.4389 12.1775 18.4359 12.121C18.2907 12.0254 18.165 11.8962 18.0864 11.671C18.0864 11.671 18.2669 11.786 18.4074 11.8715C18.3978 11.8168 18.386 11.7617 18.3719 11.7063C18.199 11.6065 18.0465 11.4745 17.9562 11.2156C17.9562 11.2156 18.138 11.3314 18.2787 11.4171C18.2605 11.3704 18.2407 11.3236 18.2193 11.2767C18.1941 11.2213 18.1582 11.1551 18.1117 11.0782C17.9572 11.0224 17.8122 10.9297 17.6856 10.7436C17.6856 10.7436 17.8142 10.7842 17.9462 10.8241C17.8721 10.7165 17.7852 10.596 17.6855 10.4628L17.7979 10.3671C17.8387 10.4217 17.8775 10.4742 17.9142 10.5247Z" fill="#5AB92D"/>
<path d="M13.2524 9.31576C13.6521 9.03475 14.3848 8.79214 14.7618 8.79214C14.7637 8.79214 14.7677 8.79124 14.7783 8.78685C14.8096 8.7739 15.0161 8.64601 15.029 8.63861C15.2955 8.48611 15.5742 8.40585 15.9539 8.40585V9.07252C15.6813 9.07252 15.5031 9.12381 15.3245 9.22605C15.3556 9.20826 15.0891 9.37331 15.0043 9.40841C14.9253 9.44111 14.8459 9.45881 14.7618 9.45881C14.5093 9.45881 13.8957 9.66197 13.5964 9.87238C13.4889 9.94801 13.4988 9.92492 13.5021 9.97C13.5141 10.1339 13.5018 10.2342 13.4009 10.3621C13.3878 10.3788 13.367 10.4705 13.3652 10.6313L12.7402 10.6234C12.7431 10.3609 12.783 10.1538 12.8775 9.99811C12.8638 9.72894 12.9584 9.52252 13.2524 9.31576Z" fill="#003994"/>
<path d="M13.5866 9.56534L13.5176 9.45414C13.8384 9.22772 14.1375 9.11348 14.4152 9.11348C14.5071 9.11348 14.612 9.08902 14.7339 9.04192C14.8157 9.01036 14.8993 8.97136 15.0117 8.91423C15.4188 8.70726 15.4305 8.702 15.538 8.702H15.9066V8.83533H15.538C15.4602 8.83533 15.435 8.84675 15.0655 9.03459C14.9498 9.09342 14.8628 9.13395 14.7765 9.16729C14.6421 9.21922 14.5237 9.24682 14.4152 9.24682C14.1646 9.24682 13.8884 9.35231 13.5866 9.56534Z" fill="#EBCA5E"/>
<path d="M18.4995 9.31576C18.0998 9.03475 17.3671 8.79214 16.9902 8.79214C16.9883 8.79214 16.9842 8.79124 16.9736 8.78685C16.9423 8.7739 16.7359 8.64601 16.7229 8.63861C16.4565 8.48611 16.1778 8.40585 15.798 8.40585V9.07252C16.0707 9.07252 16.2488 9.12381 16.4274 9.22605C16.3963 9.20826 16.6628 9.37331 16.7477 9.40841C16.8267 9.44111 16.9061 9.45881 16.9902 9.45881C17.2427 9.45881 17.8563 9.66197 18.1555 9.87238C18.2631 9.94801 18.2532 9.92492 18.2499 9.97C18.2378 10.1339 18.2502 10.2342 18.351 10.3621C18.3641 10.3788 18.385 10.4705 18.3868 10.6313L19.0117 10.6234C19.0088 10.3609 18.969 10.1538 18.8744 9.99811C18.8882 9.72894 18.7936 9.52252 18.4995 9.31576Z" fill="#003994"/>
<path d="M18.1146 9.56534L18.1836 9.45414C17.8628 9.22772 17.5636 9.11348 17.286 9.11348C17.194 9.11348 17.0892 9.08902 16.9672 9.04192C16.8855 9.01036 16.8018 8.97136 16.6895 8.91423C16.2823 8.70726 16.2707 8.702 16.1632 8.702H15.7946V8.83533H16.1632C16.241 8.83533 16.2662 8.84675 16.6357 9.03459C16.7514 9.09342 16.8384 9.13395 16.9247 9.16729C17.0591 9.21922 17.1774 9.24682 17.286 9.24682C17.5365 9.24682 17.8128 9.35231 18.1146 9.56534Z" fill="#EBCA5E"/>
<path d="M13.8233 10.0193L14.1494 10.3739V11.8467H14.4787V11.9404L14.9606 12.1721C14.9606 12.1721 15.0334 11.1978 14.8067 10.9411C14.5801 10.6844 14.9606 10.6212 14.9606 10.6212L15.5391 11.2004V10.0193H13.8233Z" fill="#003994"/>
<path d="M17.7392 10.0193L17.4131 10.3739V11.8467H17.0838V11.9404L16.6019 12.1721C16.6019 12.1721 16.5291 11.1978 16.7558 10.9411C16.9824 10.6844 16.6019 10.6212 16.6019 10.6212L16.0234 11.2004V10.0193H17.7392Z" fill="#D62818"/>
<path d="M14.877 10.5966L14.8279 10.657L15.7896 11.5461L15.8413 11.5434L16.6367 10.6544L16.5825 10.5992L15.8118 11.4606L14.877 10.5966Z" fill="#FFC300"/>
<path d="M14.7422 10.9699L14.6795 11.0304L15.9071 11.9194L15.973 11.9168L16.9883 11.0278L16.919 10.9726L15.9353 11.834L14.7422 10.9699Z" fill="#FFC300"/>
<path d="M14.1777 12.4219H14.5999L14.888 12.5099C14.888 12.5099 14.9806 13.1709 15.4434 13.1709L15.5193 14.0172L15.1606 13.8235C15.1606 13.8235 14.9274 13.9264 14.888 13.9264C14.8485 13.9264 14.5161 14.1129 14.5161 13.9264C14.5161 13.74 14.1777 13.4383 14.1777 13.4383V12.4219Z" fill="#D62818"/>
<path d="M17.5195 12.4219H17.0973L16.8093 12.5099C16.8093 12.5099 16.7167 13.1709 16.2538 13.1709L16.178 14.0172L16.5367 13.8235C16.5367 13.8235 16.7698 13.9264 16.8093 13.9264C16.8488 13.9264 17.1812 14.1129 17.1812 13.9264C17.1812 13.74 17.5195 13.4383 17.5195 13.4383V12.4219Z" fill="#003994"/>
<path d="M16.6152 12.5019L17.1152 12.5021C17.115 12.8761 16.9831 13.1792 16.723 13.3843L16.4258 12.9554C16.5532 12.8549 16.6151 12.7128 16.6152 12.5019Z" fill="#D62818"/>
<path d="M15.3047 11.4733V12.1746H15.886C15.886 12.1746 15.8314 12.7005 15.8314 13.0322C15.8314 13.364 15.886 13.7945 15.886 13.7945C15.886 13.7945 16.0283 13.7234 16.0283 13.2748C16.0283 12.8262 16.0283 12.126 16.0283 12.126L16.4876 12.1746L16.4391 11.5422H16.2454C16.2454 11.5422 16.5432 11.9363 16.2454 11.9363C15.9476 11.9363 15.6053 12.0133 15.5403 12.0133C15.4754 12.0133 15.3047 11.4733 15.3047 11.4733Z" fill="#D62818"/>
<path d="M15.811 12.3209C15.811 12.3209 15.4844 12.5132 15.4844 12.8261C15.4844 13.1391 15.6477 13.4959 15.6477 13.4959C15.6477 13.4959 15.5702 12.7911 15.6906 12.6037C15.811 12.4163 15.811 12.3209 15.811 12.3209Z" fill="#003994"/>
<path d="M15.2796 12.5525C15.2796 12.5525 15.2611 12.779 15.3953 12.779C15.5295 12.779 15.2796 12.5525 15.2796 12.5525Z" fill="#003994"/>
<path d="M16.4284 11.944L16.4797 12.1224L15.6252 12.4022L15.4336 11.6065L15.6031 11.5601L15.7491 12.1664L16.4284 11.944Z" fill="#373737"/>
<path fill-rule="evenodd" clip-rule="evenodd" d="M14.0363 15.4086L13.9614 15.4723C13.9363 15.4387 13.9148 15.4049 13.8969 15.3711C13.8217 15.3451 13.7506 15.3105 13.692 15.2693C13.6108 15.2122 13.5271 15.2122 13.4211 15.2747L13.3002 15.0413C13.4844 14.9327 13.6675 14.9327 13.8296 15.0467C13.8316 15.0481 13.8336 15.0494 13.8357 15.0508C13.8582 14.919 13.9445 14.8018 14.0931 14.7172C14.348 14.572 15.4631 14.4192 15.802 14.4192V14.8459C15.527 14.8459 14.4596 14.9922 14.2815 15.0936C14.2762 15.0966 14.2714 15.0993 14.2669 15.1018C14.2434 15.1149 14.2308 15.1219 14.2285 15.1315C14.2265 15.1395 14.2319 15.1494 14.2442 15.1664C14.2538 15.1655 14.2603 15.1638 14.2629 15.161L14.4402 15.3489C14.3667 15.4278 14.2037 15.4411 14.0363 15.4086ZM12.8418 15.4161C12.8418 15.4161 13.2114 15.7409 13.4783 15.6622C13.7451 15.5834 13.8278 15.4948 13.8278 15.4948C13.8278 15.4948 13.5614 15.4593 13.2786 15.4161C12.9958 15.373 12.8418 15.4161 12.8418 15.4161Z" fill="#D62818"/>
<path fill-rule="evenodd" clip-rule="evenodd" d="M14.0665 15.1794L14.1115 15.1154C13.9795 15.0098 14.0138 14.9508 14.2667 14.894C14.2888 14.8891 14.3111 14.8842 14.3336 14.8794L14.3336 14.8794C14.5666 14.8298 14.821 14.7876 15.0748 14.757C15.354 14.7234 15.6335 14.7037 15.882 14.7037C15.6335 14.7037 15.3545 14.7233 15.0748 14.757C14.8196 14.7877 14.5645 14.83 14.3336 14.8794L14.3189 14.8009C14.5542 14.7508 14.8111 14.7082 15.0674 14.6774C15.3489 14.6436 15.6309 14.6237 15.882 14.6237C15.6308 14.6237 15.3494 14.6434 15.0674 14.6774C14.7845 14.7114 14.5019 14.7595 14.2513 14.8157C13.9463 14.8842 13.8673 15.0201 14.0665 15.1794Z" fill="#EBCA5E"/>
<path fill-rule="evenodd" clip-rule="evenodd" d="M17.4656 15.4086L17.5406 15.4723C17.5657 15.4387 17.5871 15.4049 17.605 15.3711C17.6803 15.3451 17.7514 15.3105 17.8099 15.2693C17.8911 15.2122 17.9749 15.2122 18.0809 15.2747L18.2018 15.0413C18.0175 14.9327 17.8345 14.9327 17.6723 15.0467C17.6703 15.0481 17.6683 15.0494 17.6663 15.0508C17.6438 14.919 17.5575 14.8018 17.4088 14.7172C17.1539 14.572 16.0388 14.4192 15.7 14.4192V14.8459C15.975 14.8459 17.0424 14.9922 17.2205 15.0936C17.2257 15.0966 17.2306 15.0993 17.235 15.1018C17.2585 15.1149 17.2711 15.1219 17.2734 15.1315C17.2754 15.1395 17.2701 15.1494 17.2578 15.1664C17.2481 15.1655 17.2417 15.1638 17.2391 15.161L17.0617 15.3489C17.1352 15.4278 17.2983 15.4411 17.4656 15.4086ZM18.6602 15.4161C18.6602 15.4161 18.2905 15.7409 18.0237 15.6622C17.7568 15.5834 17.6742 15.4948 17.6742 15.4948C17.6742 15.4948 17.9406 15.4593 18.2234 15.4161C18.5062 15.373 18.6602 15.4161 18.6602 15.4161Z" fill="#D62818"/>
<path fill-rule="evenodd" clip-rule="evenodd" d="M17.4354 15.1794L17.3904 15.1154C17.5224 15.0098 17.4881 14.9508 17.2352 14.894C17.2132 14.8891 17.1909 14.8842 17.1683 14.8794L17.1683 14.8794C16.9354 14.8298 16.6809 14.7876 16.4272 14.757C16.1479 14.7234 15.8684 14.7037 15.6199 14.7037C15.8685 14.7037 16.1474 14.7233 16.4272 14.757C16.6824 14.7877 16.9374 14.83 17.1683 14.8794L17.183 14.8009C16.9477 14.7508 16.6909 14.7082 16.4346 14.6774C16.153 14.6436 15.8711 14.6237 15.6199 14.6237C15.8711 14.6237 16.1525 14.6434 16.4346 14.6774C16.7175 14.7114 17.0001 14.7595 17.2507 14.8157C17.5556 14.8842 17.6346 15.0201 17.4354 15.1794Z" fill="#EBCA5E"/>
<path d="M15.3662 15.5105L15.1719 15.1685C15.3489 15.054 15.5761 14.9995 15.852 14.9995C16.1292 14.9995 16.3539 15.0545 16.5246 15.171L16.3225 15.508C16.2196 15.4378 16.0633 15.3995 15.852 15.3995C15.6395 15.3995 15.4781 15.4382 15.3662 15.5105Z" fill="#D62818"/>
</g>
</g>
<rect width="32" height="24" fill="url(#paint0_linear_230_27278)" style="mix-blend-mode:overlay"/>
</g>
<rect x="0.5" y="0.5" width="31" height="23" rx="1.5" stroke="black" stroke-opacity="0.1"/>
<defs>
<linearGradient id="paint0_linear_230_27278" x1="16" y1="0" x2="16" y2="24" gradientUnits="userSpaceOnUse">
<stop stop-color="white" stop-opacity="0.7"/>
<stop offset="1" stop-opacity="0.3"/>
</linearGradient>
<clipPath id="clip0_230_27278">
<rect width="32" height="24" rx="2" fill="white"/>
</clipPath>
</defs>
</svg>
