<svg width="32" height="24" viewBox="0 0 32 24" fill="none" xmlns="http://www.w3.org/2000/svg">
<g clip-path="url(#clip0_230_22338)">
<mask id="mask0_230_22338" style="mask-type:luminance" maskUnits="userSpaceOnUse" x="0" y="0" width="32" height="24">
<rect width="32" height="24" fill="white"/>
</mask>
<g mask="url(#mask0_230_22338)">
<path fill-rule="evenodd" clip-rule="evenodd" d="M0 0H32V24H0V0Z" fill="#F7FCFF"/>
<path fill-rule="evenodd" clip-rule="evenodd" d="M0 0V8H32V0H0Z" fill="#C51918"/>
<path fill-rule="evenodd" clip-rule="evenodd" d="M0 16V24H32V16H0Z" fill="#5EAA22"/>
<path fill-rule="evenodd" clip-rule="evenodd" d="M0 -2L16.6696 12L0 26V-2Z" fill="#272727"/>
<mask id="path-8-outside-1_230_22338" maskUnits="userSpaceOnUse" x="-2" y="-8.35498" width="36" height="40" fill="black">
<rect fill="white" x="-2" y="-8.35498" width="36" height="40"/>
<path fill-rule="evenodd" clip-rule="evenodd" d="M0 -3.35498L17.4083 9.99997H32V14H17.1694L0 26.8115V22.3399L14 11.9997L0 1.53418V-3.35498Z"/>
</mask>
<path fill-rule="evenodd" clip-rule="evenodd" d="M0 -3.35498L17.4083 9.99997H32V14H17.1694L0 26.8115V22.3399L14 11.9997L0 1.53418V-3.35498Z" fill="#FFD018"/>
<path d="M17.4083 9.99997L16.1909 11.5868L16.7295 12H17.4083V9.99997ZM0 -3.35498L1.21736 -4.94182L-2 -7.41004V-3.35498H0ZM32 9.99997H34V7.99997H32V9.99997ZM32 14V16H34V14H32ZM17.1694 14V12H16.5054L15.9733 12.397L17.1694 14ZM0 26.8115H-2V30.7993L1.19608 28.4144L0 26.8115ZM0 22.3399L-1.18821 20.7311L-2 21.3307V22.3399H0ZM14 11.9997L15.1882 13.6084L17.3533 12.0093L15.1975 10.3978L14 11.9997ZM0 1.53418H-2V2.53615L-1.19747 3.13607L0 1.53418ZM18.6257 8.41313L1.21736 -4.94182L-1.21736 -1.76815L16.1909 11.5868L18.6257 8.41313ZM32 7.99997H17.4083V12H32V7.99997ZM34 14V9.99997H30V14H34ZM17.1694 16H32V12H17.1694V16ZM1.19608 28.4144L18.3655 15.6029L15.9733 12.397L-1.19608 25.2086L1.19608 28.4144ZM-2 22.3399V26.8115H2V22.3399H-2ZM12.8118 10.3909L-1.18821 20.7311L1.18821 23.9486L15.1882 13.6084L12.8118 10.3909ZM-1.19747 3.13607L12.8025 13.6016L15.1975 10.3978L1.19747 -0.0677135L-1.19747 3.13607ZM-2 -3.35498V1.53418H2V-3.35498H-2Z" fill="#272727" mask="url(#path-8-outside-1_230_22338)"/>
<path d="M4.87435 16.768L4.87635 15.1877C6.28468 14.877 7.21763 14.4729 7.67175 13.9869C8.78998 12.6087 8.04662 9.37983 5.74925 9.40094C4.61107 9.40094 3.43408 9.94333 3.43408 11.2199C3.43408 12.8053 3.76034 13.483 4.87635 13.483C5.9854 13.483 6.39201 13.5423 7.12256 12.5466L7.91534 12.7916C7.1325 13.8586 6.07725 14.7014 4.87435 14.7014C2.89281 14.7014 1.81445 13.2074 1.81445 11.4795C1.81445 9.34636 3.54613 7.85242 5.63408 7.85242C7.19199 7.85242 9.65613 9.76062 9.65613 11.4795C9.65613 13.1983 9.65613 13.9869 8.30497 15.1877C7.76074 15.6714 6.41228 16.5351 4.87435 16.768Z" fill="#FFD018"/>
<path fill-rule="evenodd" clip-rule="evenodd" d="M4.99217 9.87977C4.91589 9.85963 4.83772 9.90514 4.81758 9.98142L4.76296 10.1882C4.76023 10.1847 4.75749 10.1812 4.75475 10.1776C4.70653 10.1152 4.61681 10.1036 4.55437 10.1519C4.49192 10.2001 4.4804 10.2898 4.52862 10.3522C4.56172 10.3951 4.59438 10.4375 4.62659 10.4793L4.46196 10.6313C4.40399 10.6848 4.40039 10.7752 4.45392 10.8332C4.50744 10.8912 4.59782 10.8948 4.65579 10.8412L4.80126 10.7069C4.88812 10.8204 4.97135 10.9298 5.05088 11.0348L4.77702 11.1818C4.7075 11.2192 4.6814 11.3058 4.71872 11.3753C4.75604 11.4448 4.84265 11.4709 4.91216 11.4336L5.22494 11.2657C5.29992 11.3655 5.37102 11.4609 5.43815 11.5514L5.06274 11.753C4.99323 11.7903 4.96713 11.8769 5.00445 11.9464C5.04176 12.0159 5.12837 12.042 5.19788 12.0047L5.60926 11.7839C5.71868 11.9336 5.81461 12.067 5.89652 12.1834L5.63415 12.3243C5.56464 12.3616 5.53854 12.4482 5.57586 12.5177C5.61318 12.5872 5.69978 12.6133 5.76929 12.576L6.05971 12.4201C6.18072 12.6004 6.24337 12.7086 6.24337 12.737C6.24337 12.8159 6.30733 12.8799 6.38623 12.8799C6.46513 12.8799 6.52909 12.8159 6.52909 12.737C6.52909 12.6647 6.45383 12.5125 6.29656 12.2687C6.29888 12.2647 6.30101 12.2605 6.30294 12.2563L6.51433 11.7908C6.54696 11.719 6.51517 11.6343 6.44334 11.6017C6.3715 11.5691 6.28682 11.6008 6.25419 11.6727L6.10966 11.9909C6.01945 11.8611 5.91415 11.7141 5.79325 11.5491L5.94292 11.2195C5.97555 11.1477 5.94376 11.063 5.87193 11.0304C5.80009 10.9978 5.71541 11.0296 5.68278 11.1014L5.59884 11.2862C5.55264 11.2243 5.50464 11.1602 5.45481 11.094L5.6572 10.6484C5.68982 10.5766 5.65804 10.4919 5.5862 10.4593C5.51437 10.4266 5.42968 10.4584 5.39706 10.5302L5.25872 10.8348C5.17159 10.7202 5.07972 10.6 4.98301 10.474L5.09382 10.0544C5.11396 9.97808 5.06845 9.89991 4.99217 9.87977Z" fill="#FFD018"/>
<path fill-rule="evenodd" clip-rule="evenodd" d="M5.95314 9.87977C6.02942 9.85963 6.10759 9.90514 6.12774 9.98142L6.18235 10.1882C6.18508 10.1847 6.18782 10.1812 6.19056 10.1776C6.23879 10.1152 6.3285 10.1036 6.39094 10.1519C6.45339 10.2001 6.46492 10.2898 6.41669 10.3522C6.38359 10.3951 6.35094 10.4375 6.31872 10.4793L6.48335 10.6313C6.54132 10.6848 6.54492 10.7752 6.49139 10.8332C6.43787 10.8912 6.34749 10.8948 6.28952 10.8412L6.14405 10.7069C6.05719 10.8204 5.97396 10.9298 5.89444 11.0348L6.1683 11.1818C6.23781 11.2192 6.26391 11.3058 6.22659 11.3753C6.18927 11.4448 6.10267 11.4709 6.03315 11.4336L5.72038 11.2657C5.64539 11.3655 5.57429 11.4609 5.50716 11.5514L5.88257 11.753C5.95209 11.7903 5.97819 11.8769 5.94087 11.9464C5.90355 12.0159 5.81694 12.042 5.74743 12.0047L5.33605 11.7839C5.22663 11.9336 5.1307 12.067 5.04879 12.1834L5.31116 12.3243C5.38068 12.3616 5.40677 12.4482 5.36946 12.5177C5.33214 12.5872 5.24553 12.6133 5.17602 12.576L4.8856 12.4201C4.76459 12.6004 4.70194 12.7086 4.70194 12.737C4.70194 12.8159 4.63798 12.8799 4.55908 12.8799C4.48018 12.8799 4.41622 12.8159 4.41622 12.737C4.41622 12.6647 4.49148 12.5125 4.64876 12.2687C4.64644 12.2647 4.6443 12.2605 4.64237 12.2563L4.43098 11.7908C4.39835 11.719 4.43014 11.6343 4.50198 11.6017C4.57381 11.5691 4.65849 11.6008 4.69112 11.6727L4.83565 11.9909C4.92586 11.8611 5.03117 11.7141 5.15206 11.5491L5.00239 11.2195C4.96976 11.1477 5.00155 11.063 5.07339 11.0304C5.14522 10.9978 5.22991 11.0296 5.26253 11.1014L5.34648 11.2862C5.39267 11.2243 5.44067 11.1602 5.4905 11.094L5.28811 10.6484C5.25549 10.5766 5.28727 10.4919 5.35911 10.4593C5.43095 10.4266 5.51563 10.4584 5.54826 10.5302L5.68659 10.8348C5.77372 10.7202 5.8656 10.6 5.9623 10.474L5.85149 10.0544C5.83135 9.97808 5.87686 9.89991 5.95314 9.87977Z" fill="#FFD018"/>
</g>
<rect width="32" height="24" fill="url(#paint0_linear_230_22338)" style="mix-blend-mode:overlay"/>
</g>
<rect x="0.5" y="0.5" width="31" height="23" rx="1.5" stroke="black" stroke-opacity="0.1"/>
<defs>
<linearGradient id="paint0_linear_230_22338" x1="16" y1="0" x2="16" y2="24" gradientUnits="userSpaceOnUse">
<stop stop-color="white" stop-opacity="0.7"/>
<stop offset="1" stop-opacity="0.3"/>
</linearGradient>
<clipPath id="clip0_230_22338">
<rect width="32" height="24" rx="2" fill="white"/>
</clipPath>
</defs>
</svg>
