<svg width="32" height="24" viewBox="0 0 32 24" fill="none" xmlns="http://www.w3.org/2000/svg">
<g clip-path="url(#clip0_230_26877)">
<mask id="mask0_230_26877" style="mask-type:luminance" maskUnits="userSpaceOnUse" x="0" y="0" width="32" height="24">
<rect width="32" height="24" fill="white"/>
</mask>
<g mask="url(#mask0_230_26877)">
<path fill-rule="evenodd" clip-rule="evenodd" d="M0 0V24H32V0H0Z" fill="#63B3E1"/>
<mask id="mask1_230_26877" style="mask-type:luminance" maskUnits="userSpaceOnUse" x="0" y="0" width="32" height="24">
<path fill-rule="evenodd" clip-rule="evenodd" d="M0 0V24H32V0H0Z" fill="white"/>
</mask>
<g mask="url(#mask1_230_26877)">
<path fill-rule="evenodd" clip-rule="evenodd" d="M16 7.29999L14.2366 8.22704L14.5734 6.26351L13.1468 4.87294L15.1183 4.58646L16 2.79999L16.8817 4.58646L18.8532 4.87294L17.4266 6.26351L17.7634 8.22704L16 7.29999Z" fill="#F7FCFF"/>
<path fill-rule="evenodd" clip-rule="evenodd" d="M16.0016 19.3L14.2383 20.227L14.575 18.2635L13.1484 16.8729L15.1199 16.5865L16.0016 14.8L16.8833 16.5865L18.8548 16.8729L17.4282 18.2635L17.765 20.227L16.0016 19.3Z" fill="#F7FCFF"/>
<path fill-rule="evenodd" clip-rule="evenodd" d="M9.80078 13.5L8.03743 14.4271L8.3742 12.4635L6.94761 11.0729L8.9191 10.7865L9.80078 9L10.6825 10.7865L12.654 11.0729L11.2274 12.4635L11.5641 14.4271L9.80078 13.5Z" fill="#F7FCFF"/>
<path fill-rule="evenodd" clip-rule="evenodd" d="M22 13.5L20.2366 14.4271L20.5734 12.4635L19.1468 11.0729L21.1183 10.7865L22 9L22.8817 10.7865L24.8532 11.0729L23.4266 12.4635L23.7634 14.4271L22 13.5Z" fill="#F7FCFF"/>
</g>
</g>
<rect width="32" height="24" fill="url(#paint0_linear_230_26877)" style="mix-blend-mode:overlay"/>
</g>
<rect x="0.5" y="0.5" width="31" height="23" rx="1.5" stroke="black" stroke-opacity="0.1"/>
<defs>
<linearGradient id="paint0_linear_230_26877" x1="16" y1="0" x2="16" y2="24" gradientUnits="userSpaceOnUse">
<stop stop-color="white" stop-opacity="0.7"/>
<stop offset="1" stop-opacity="0.3"/>
</linearGradient>
<clipPath id="clip0_230_26877">
<rect width="32" height="24" rx="2" fill="white"/>
</clipPath>
</defs>
</svg>
