<svg width="32" height="24" viewBox="0 0 32 24" fill="none" xmlns="http://www.w3.org/2000/svg">
<g clip-path="url(#clip0_230_28065)">
<mask id="mask0_230_28065" style="mask-type:luminance" maskUnits="userSpaceOnUse" x="0" y="0" width="32" height="24">
<rect width="32" height="24" fill="white"/>
</mask>
<g mask="url(#mask0_230_28065)">
<path fill-rule="evenodd" clip-rule="evenodd" d="M0 0V24H32V0H0Z" fill="#FECA00"/>
<mask id="mask1_230_28065" style="mask-type:luminance" maskUnits="userSpaceOnUse" x="0" y="0" width="32" height="24">
<path fill-rule="evenodd" clip-rule="evenodd" d="M0 0V24H32V0H0Z" fill="white"/>
</mask>
<g mask="url(#mask1_230_28065)">
<path fill-rule="evenodd" clip-rule="evenodd" d="M0 0V8H32V0H0Z" fill="#DB501C"/>
<path fill-rule="evenodd" clip-rule="evenodd" d="M0 16V24H32V16H0Z" fill="#5EAA22"/>
<path d="M12.4453 9.95905L12.4817 9.9238L19.7013 16.8685L19.6649 16.9038L12.4453 9.95905Z" fill="#864C26"/>
<path d="M20.2213 16.4173L20.1901 16.4569L11.791 10.2874L11.8222 10.2478L20.2213 16.4173Z" fill="#864C26"/>
<path d="M20.3975 15.8016L20.3722 15.845L11.0293 10.7594L11.0546 10.7161L20.3975 15.8016Z" fill="#A05A2C"/>
<path fill-rule="evenodd" clip-rule="evenodd" d="M11.6018 9.11221L12.3093 9.58029L12.2698 9.60726C12.2859 9.61653 12.3026 9.62648 12.3197 9.63709C12.3396 9.64943 12.3536 9.6643 12.3618 9.68139C12.3761 9.63913 12.3758 9.58781 12.3605 9.52663L12.3233 9.37759L12.4072 9.50823C12.5405 9.71582 12.5604 9.86435 12.4567 9.9484C12.3554 10.0305 12.196 10.0091 11.9806 9.89074L11.8931 9.84265L11.9929 9.84416C12.075 9.8454 12.1453 9.83572 12.2041 9.81531L12.1633 9.80437C12.1287 9.7951 12.1031 9.77088 12.0857 9.73292L12.0163 9.78027L11.6018 9.11221ZM10.7533 9.64129L11.5314 9.97939L11.4963 10.0137C11.5144 10.0202 11.5333 10.0274 11.5528 10.0352C11.5745 10.0439 11.5909 10.0561 11.6019 10.0715C11.6086 10.0275 11.5993 9.97708 11.5737 9.91961L11.5112 9.7793L11.6165 9.89338C11.7839 10.0747 11.8292 10.2175 11.7417 10.3183C11.6562 10.4167 11.4955 10.4233 11.2628 10.3442L11.1683 10.312L11.2669 10.2961C11.3481 10.2831 11.4158 10.2613 11.4703 10.2308L11.4278 10.2271C11.3915 10.2239 11.3617 10.2039 11.3378 10.1684L11.2776 10.2272L10.7533 9.64129ZM10.8046 10.4531L10 10.1841L10.5733 10.7221L10.628 10.6584C10.6551 10.6922 10.6867 10.7098 10.7235 10.7098H10.7662C10.7146 10.7449 10.649 10.7726 10.5691 10.7927L10.4723 10.8171L10.5693 10.8409C10.8079 10.8995 10.9674 10.8789 11.044 10.7734C11.1224 10.6654 11.0648 10.5271 10.8823 10.361L10.7674 10.2566L10.8419 10.3909C10.8724 10.4458 10.8861 10.4952 10.8833 10.5396C10.8709 10.5252 10.8536 10.5145 10.8312 10.5078C10.8107 10.5016 10.791 10.496 10.772 10.491L10.8046 10.4531ZM10.7166 10.4775L10.7174 10.4766L10.202 10.3042L10.5693 10.6489L10.5995 10.6137C10.5941 10.6033 10.5889 10.592 10.5839 10.58L10.5873 10.5787L10.5628 10.5523L10.6614 10.4669L10.6738 10.4691C10.6875 10.4715 10.7018 10.4743 10.7166 10.4775Z" fill="#E7E7E7"/>
<path fill-rule="evenodd" clip-rule="evenodd" d="M13.4707 16.2132L14.3054 14.7244L15.4763 15.0397L14.6337 16.3985H14.3054V16.5467L13.4707 16.2132Z" fill="#925229"/>
<path fill-rule="evenodd" clip-rule="evenodd" d="M13.1129 10.4886L12.5604 11.0628L12.3594 14.857L14.3502 15.1472C14.3502 15.1472 13.4827 14.3855 13.3548 13.9155C13.2269 13.4454 13.1861 11.6906 13.428 11.4238L13.617 11.5341L13.769 11.0826" fill="#FFE000"/>
<path fill-rule="evenodd" clip-rule="evenodd" d="M11.1886 10.7474C11.1886 10.7474 10.9746 13.71 10.9746 14.2304C10.9746 14.7507 11.4164 15.9897 12.4234 15.9897C13.4303 15.9897 14.8121 15.4353 14.8121 15.2092C14.8121 14.9831 14.3996 14.8212 14.3996 14.8212C14.3996 14.8212 12.5477 14.9478 12.5477 14.2304C12.5477 13.5129 12.6735 11.3892 12.7834 11.1388C12.8934 10.8884 13.2744 10.5108 13.2744 10.5108L12.5477 9.97069L12.4234 10.5108L11.9574 10.3522L11.8152 11.1388L11.1886 10.7474Z" fill="#D52C1E"/>
<path fill-rule="evenodd" clip-rule="evenodd" d="M13.7765 11.0761L13.6426 11.4952L13.3721 11.381C13.3721 11.381 12.9677 13.2772 13.3721 14.0716C13.7765 14.8659 14.7948 14.9235 14.7948 14.9235L14.3646 11.4952L13.7765 11.0761Z" fill="#027934"/>
<path fill-rule="evenodd" clip-rule="evenodd" d="M13.7168 13.6382L12.7464 14.4057C12.7464 14.4057 12.4802 14.7872 12.7464 15.076C13.0125 15.3648 13.7505 15.6593 13.9246 15.3107C14.0987 14.962 14.6159 14.5537 14.6159 14.5537L13.7168 13.6382Z" fill="#E8A30C"/>
<path fill-rule="evenodd" clip-rule="evenodd" d="M14.4786 10.7425C14.7147 10.5372 14.8331 10.2868 14.7429 10.1831C14.6528 10.0794 14.3883 10.1618 14.1522 10.367C13.916 10.5723 13.7977 10.8227 13.8878 10.9264C13.9779 11.0301 14.2424 10.9478 14.4786 10.7425Z" fill="#E1E5E8"/>
<path fill-rule="evenodd" clip-rule="evenodd" d="M13.8817 9.30331C13.8817 9.30331 13.7867 9.28385 13.7437 9.27733C13.4367 9.2308 13.2832 9.2934 13.2832 9.46512C13.2832 9.75879 13.4789 10.0759 13.4789 10.2977C13.4789 10.5195 13.4884 10.8648 13.5825 10.6922C13.6766 10.5195 14.1552 10.0007 14.1552 10.0007L13.8817 9.55058C13.8817 9.55058 14.5605 9.62693 14.2625 9.46512" fill="#D52C1E"/>
<path fill-rule="evenodd" clip-rule="evenodd" d="M15.9704 15.3782L15.4613 15.3731C15.0833 15.7468 15.0485 16.2496 15.3461 16.857C15.3461 16.857 15.4437 16.9981 15.4779 16.985C15.5258 16.9665 15.5924 16.762 15.5924 16.762C15.5697 16.1689 15.9477 15.7761 15.9704 15.3782Z" fill="#D52C1E"/>
<path fill-rule="evenodd" clip-rule="evenodd" d="M15.3261 15.3935L15.5091 15.3084C15.6896 15.6833 15.5991 16.0714 15.2511 16.4568L15.0996 16.3247C15.2511 15.8826 15.2511 15.6995 15.3261 15.3935Z" fill="#FFE000"/>
<path d="M15.0925 15.3816L15.2835 15.3257C15.3753 15.6396 15.3294 15.9634 15.1491 16.292L14.9746 16.1963C15.1306 15.9122 15.1688 15.6423 15.0925 15.3816Z" fill="#027934"/>
<path d="M19.5547 9.95905L19.5183 9.9238L12.2987 16.8685L12.3351 16.9038L19.5547 9.95905Z" fill="#864C26"/>
<path d="M11.7787 16.4173L11.8099 16.4569L20.209 10.2874L20.1778 10.2478L11.7787 16.4173Z" fill="#864C26"/>
<path d="M11.6025 15.8016L11.6278 15.845L20.9707 10.7594L20.9454 10.7161L11.6025 15.8016Z" fill="#A05A2C"/>
<path fill-rule="evenodd" clip-rule="evenodd" d="M20.3982 9.11221L19.6907 9.58029L19.7302 9.60726C19.7141 9.61653 19.6974 9.62648 19.6803 9.63709C19.6604 9.64943 19.6464 9.6643 19.6382 9.68139C19.6239 9.63913 19.6242 9.58781 19.6395 9.52663L19.6767 9.37759L19.5928 9.50823C19.4595 9.71582 19.4396 9.86435 19.5433 9.9484C19.6446 10.0305 19.804 10.0091 20.0194 9.89074L20.1069 9.84265L20.0071 9.84416C19.925 9.8454 19.8547 9.83572 19.7959 9.81531L19.8367 9.80437C19.8713 9.7951 19.8969 9.77088 19.9143 9.73292L19.9837 9.78027L20.3982 9.11221ZM21.2467 9.64129L20.4686 9.97939L20.5037 10.0137C20.4856 10.0202 20.4667 10.0274 20.4472 10.0352C20.4255 10.0439 20.4091 10.0561 20.3981 10.0715C20.3914 10.0275 20.4007 9.97708 20.4263 9.91961L20.4888 9.7793L20.3835 9.89338C20.2161 10.0747 20.1708 10.2175 20.2583 10.3183C20.3438 10.4167 20.5045 10.4233 20.7372 10.3442L20.8317 10.312L20.7331 10.2961C20.6519 10.2831 20.5842 10.2613 20.5297 10.2308L20.5722 10.2271C20.6085 10.2239 20.6383 10.2039 20.6622 10.1684L20.7224 10.2272L21.2467 9.64129ZM21.1954 10.4531L22 10.1841L21.4267 10.7221L21.372 10.6584C21.3449 10.6922 21.3133 10.7098 21.2765 10.7098H21.2338C21.2854 10.7449 21.351 10.7726 21.4309 10.7927L21.5277 10.8171L21.4307 10.8409C21.1921 10.8995 21.0326 10.8789 20.956 10.7734C20.8776 10.6654 20.9352 10.5271 21.1177 10.361L21.2326 10.2566L21.1581 10.3909C21.1276 10.4458 21.1139 10.4952 21.1167 10.5396C21.1291 10.5252 21.1464 10.5145 21.1688 10.5078C21.1893 10.5016 21.209 10.496 21.228 10.491L21.1954 10.4531ZM21.2834 10.4775L21.2826 10.4766L21.798 10.3042L21.4307 10.6489L21.4005 10.6137C21.4059 10.6033 21.4111 10.592 21.4161 10.58L21.4127 10.5787L21.4372 10.5523L21.3386 10.4669L21.3262 10.4691C21.3125 10.4715 21.2982 10.4743 21.2834 10.4775Z" fill="#E7E7E7"/>
<path fill-rule="evenodd" clip-rule="evenodd" d="M18.5293 16.2132L17.6946 14.7244L16.5237 15.0397L17.3663 16.3985H17.6946V16.5467L18.5293 16.2132Z" fill="#925229"/>
<path fill-rule="evenodd" clip-rule="evenodd" d="M18.8871 10.4886L19.4396 11.0628L19.6406 14.857L17.6498 15.1472C17.6498 15.1472 18.5173 14.3855 18.6452 13.9155C18.7731 13.4454 18.8139 11.6906 18.572 11.4238L18.383 11.5341L18.231 11.0826" fill="#FFE000"/>
<path fill-rule="evenodd" clip-rule="evenodd" d="M20.8114 10.7474C20.8114 10.7474 21.0254 13.71 21.0254 14.2304C21.0254 14.7507 20.5836 15.9897 19.5766 15.9897C18.5697 15.9897 17.1879 15.4353 17.1879 15.2092C17.1879 14.9831 17.6004 14.8212 17.6004 14.8212C17.6004 14.8212 19.4523 14.9478 19.4523 14.2304C19.4523 13.5129 19.3265 11.3892 19.2166 11.1388C19.1066 10.8884 18.7256 10.5108 18.7256 10.5108L19.4523 9.97069L19.5766 10.5108L20.0426 10.3522L20.1848 11.1388L20.8114 10.7474Z" fill="#D52C1E"/>
<path fill-rule="evenodd" clip-rule="evenodd" d="M18.2235 11.0761L18.3574 11.4952L18.6279 11.381C18.6279 11.381 19.0323 13.2772 18.6279 14.0715C18.2235 14.8659 17.2052 14.9235 17.2052 14.9235L17.6354 11.4952L18.2235 11.0761Z" fill="#027934"/>
<path fill-rule="evenodd" clip-rule="evenodd" d="M18.2832 13.6382L19.2536 14.4057C19.2536 14.4057 19.5198 14.7872 19.2536 15.076C18.9875 15.3648 18.2495 15.6593 18.0754 15.3107C17.9013 14.962 17.3841 14.5537 17.3841 14.5537L18.2832 13.6382Z" fill="#E8A30C"/>
<path fill-rule="evenodd" clip-rule="evenodd" d="M17.5214 10.7425C17.2853 10.5372 17.1669 10.2868 17.2571 10.1831C17.3472 10.0794 17.6117 10.1617 17.8478 10.367C18.084 10.5723 18.2023 10.8227 18.1122 10.9264C18.0221 11.0301 17.7576 10.9478 17.5214 10.7425Z" fill="#E1E5E8"/>
<path fill-rule="evenodd" clip-rule="evenodd" d="M16.0296 15.3782L16.5387 15.3731C16.9167 15.7468 16.9515 16.2496 16.6539 16.857C16.6539 16.857 16.5563 16.9981 16.5221 16.985C16.4742 16.9665 16.4076 16.762 16.4076 16.762C16.4303 16.1689 16.0523 15.7761 16.0296 15.3782Z" fill="#D52C1E"/>
<path fill-rule="evenodd" clip-rule="evenodd" d="M16.6739 15.3935L16.4909 15.3084C16.3104 15.6833 16.4009 16.0714 16.7489 16.4568L16.9004 16.3247C16.7489 15.8826 16.7489 15.6995 16.6739 15.3935Z" fill="#FFE000"/>
<path d="M16.9075 15.3816L16.7165 15.3257C16.6247 15.6396 16.6706 15.9634 16.8509 16.292L17.0254 16.1963C16.8694 15.9122 16.8312 15.6423 16.9075 15.3816Z" fill="#027934"/>
<path fill-rule="evenodd" clip-rule="evenodd" d="M13.5527 12.8209C13.5527 14.2601 14.6154 15.4577 15.9733 15.4577C17.3312 15.4577 18.3939 14.2601 18.3939 12.8209C18.3939 11.3817 17.3312 10.1841 15.9733 10.1841C14.6154 10.1841 13.5527 11.3817 13.5527 12.8209ZM17.8274 12.8209C17.8274 13.9749 16.9973 14.9104 15.9733 14.9104C14.9494 14.9104 14.1193 13.9749 14.1193 12.8209C14.1193 11.6669 14.9494 10.7313 15.9733 10.7313C16.9973 10.7313 17.8274 11.6669 17.8274 12.8209Z" fill="#00A6DE"/>
<path fill-rule="evenodd" clip-rule="evenodd" d="M15.9732 14.9104C16.9972 14.9104 17.8273 13.9749 17.8273 12.8209C17.8273 11.6669 16.9972 10.7313 15.9732 10.7313C14.9492 10.7313 14.1191 11.6669 14.1191 12.8209C14.1191 13.9749 14.9492 14.9104 15.9732 14.9104Z" fill="#FFC036"/>
<mask id="mask2_230_28065" style="mask-type:luminance" maskUnits="userSpaceOnUse" x="14" y="10" width="4" height="5">
<path fill-rule="evenodd" clip-rule="evenodd" d="M15.9732 14.9104C16.9972 14.9104 17.8273 13.9749 17.8273 12.8209C17.8273 11.6669 16.9972 10.7313 15.9732 10.7313C14.9492 10.7313 14.1191 11.6669 14.1191 12.8209C14.1191 13.9749 14.9492 14.9104 15.9732 14.9104Z" fill="white"/>
</mask>
<g mask="url(#mask2_230_28065)">
<path fill-rule="evenodd" clip-rule="evenodd" d="M15.9741 12.4477L15.7335 12.9439L15.7395 12.396L15.2998 12.7422L15.5513 12.2511L14.9997 12.3787L15.4469 12.0416L14.8926 11.9254L15.4469 11.8091L14.9997 11.472L15.5513 11.5997L15.2998 11.1085L15.7395 11.4547L15.7335 10.9068L15.9741 11.403L16.2148 10.9068L16.2088 11.4547L16.6485 11.1085L16.3969 11.5997L16.9486 11.472L16.5013 11.8091L17.0557 11.9254L16.5013 12.0416L16.9486 12.3787L16.3969 12.2511L16.6485 12.7422L16.2088 12.396L16.2148 12.9439L15.9741 12.4477Z" fill="#D52C1E"/>
<path fill-rule="evenodd" clip-rule="evenodd" d="M14.0401 12.941C14.0401 12.941 15.4901 11.9201 15.8462 11.9201C16.2024 11.9201 17.722 12.9466 18.0328 13.0863C18.3437 13.2259 18.0328 15.9642 18.0328 15.9642H13.9199L14.0401 12.941Z" fill="#027934"/>
</g>
<path fill-rule="evenodd" clip-rule="evenodd" d="M14.0293 11.7258L14.1187 11.7752C14.6072 10.9507 15.2289 10.5418 15.9871 10.5418C16.836 10.5891 17.4718 11.0524 17.8962 11.9384L17.9896 11.8966C17.55 10.9789 16.8819 10.492 15.99 10.4424C15.1888 10.4423 14.535 10.8724 14.0293 11.7258ZM13.6693 13.3159L13.8358 13.204L14.0023 13.3159L13.9436 13.1283L14.1052 13.01L13.9024 13.006L13.8358 12.8209L13.7692 13.006L13.5664 13.01L13.728 13.1283L13.6693 13.3159ZM14.0418 13.9502L13.8753 14.0622L13.9341 13.8746L13.7724 13.7562L13.9752 13.7522L14.0418 13.5672L14.1084 13.7522L14.3112 13.7562L14.1496 13.8746L14.2083 14.0622L14.0418 13.9502ZM14.2873 14.6592L14.4538 14.5473L14.6203 14.6592L14.5616 14.4716L14.7232 14.3533L14.5204 14.3493L14.4538 14.1642L14.3872 14.3493L14.1844 14.3533L14.3461 14.4716L14.2873 14.6592ZM15.0719 15.0448L14.9054 15.1567L14.9641 14.9691L14.8025 14.8508L15.0053 14.8468L15.0719 14.6617L15.1385 14.8468L15.3413 14.8508L15.1796 14.9691L15.2384 15.1567L15.0719 15.0448ZM15.7809 15.4054L15.9474 15.2935L16.1139 15.4054L16.0552 15.2179L16.2168 15.0995L16.014 15.0955L15.9474 14.9104L15.8808 15.0955L15.678 15.0995L15.8396 15.2179L15.7809 15.4054ZM18.1105 13.204L18.277 13.3159L18.2182 13.1283L18.3799 13.01L18.1771 13.006L18.1105 12.8209L18.0439 13.006L17.8411 13.01L18.0027 13.1283L17.944 13.3159L18.1105 13.204ZM18.071 14.0622L17.9045 13.9502L17.738 14.0622L17.7967 13.8746L17.6351 13.7562L17.8379 13.7522L17.9045 13.5672L17.9711 13.7522L18.1739 13.7562L18.0122 13.8746L18.071 14.0622ZM17.4925 14.5473L17.659 14.6592L17.6002 14.4716L17.7619 14.3533L17.5591 14.3493L17.4925 14.1642L17.4259 14.3493L17.2231 14.3533L17.3847 14.4716L17.326 14.6592L17.4925 14.5473ZM17.0409 15.1567L16.8744 15.0448L16.7079 15.1567L16.7667 14.9691L16.605 14.8508L16.8078 14.8468L16.8744 14.6617L16.941 14.8468L17.1438 14.8508L16.9822 14.9691L17.0409 15.1567Z" fill="#FFC036"/>
<path d="M14.683 7.00699L14.8817 7.15161C14.3723 7.6087 14.2766 8.11841 14.3741 8.55631C14.4757 9.01252 14.9275 9.49916 15.7487 9.99889L15.4468 10.462C14.509 9.89131 13.9689 9.36329 13.8288 8.73447C13.6847 8.08734 14.0385 7.5852 14.683 7.00699Z" fill="#036A2D"/>
<path d="M17.3873 7.00699L17.1886 7.15161C17.698 7.6087 17.7938 8.11841 17.6962 8.55631C17.5946 9.01252 17.1428 9.49916 16.3216 9.99889L16.6235 10.462C17.5613 9.89131 18.1014 9.36329 18.2415 8.73447C18.3856 8.08734 18.0318 7.5852 17.3873 7.00699Z" fill="#036A2D"/>
<path fill-rule="evenodd" clip-rule="evenodd" d="M12.7756 8.8615C12.7756 8.8615 13.645 8.26038 14.0575 8.26038C14.4701 8.26038 15.0207 8.12268 15.107 8.43895C15.1933 8.75521 15.3565 8.66362 15.676 8.66362C15.9955 8.66362 16.6234 8.66362 16.6234 8.66362C16.6234 8.66362 16.4359 8.26038 16.7834 8.26038C17.131 8.26038 18.5824 8.46573 19.0205 8.66362C19.4586 8.8615 19.4806 8.97848 19.4806 8.97848C19.4806 8.97848 19.0752 8.74452 18.6266 8.8615C18.1781 8.97848 17.3646 9.49354 16.994 9.49354C16.6234 9.49354 16.3268 9.89168 16.3268 9.89168C16.3268 9.89168 16.3513 9.6876 16.0137 9.78964C15.676 9.89168 15.6839 10.3724 15.3955 10.2841C15.107 10.1959 15.4786 9.49354 15.3955 9.49354C15.3123 9.49354 14.7234 9.26271 14.7234 9.26271C14.7234 9.26271 14.1519 8.74452 13.3033 8.8615C12.4546 8.97848 12.7756 8.8615 12.7756 8.8615Z" fill="#452C24"/>
<path fill-rule="evenodd" clip-rule="evenodd" d="M15.8715 9.28855C16.0422 9.28855 16.1805 9.16604 16.1805 9.01492C16.1805 8.8638 16.0422 8.74129 15.8715 8.74129C15.7008 8.74129 15.5625 8.8638 15.5625 9.01492C15.5625 9.16604 15.7008 9.28855 15.8715 9.28855Z" fill="#E7E7E7"/>
<path fill-rule="evenodd" clip-rule="evenodd" d="M15.2051 9.00716C15.2051 9.00716 15.305 8.81821 15.503 8.81821C15.7011 8.81821 16.0724 8.81821 16.0724 8.91268C16.0724 9.00716 16.1023 9.13058 15.8026 9.13058C15.503 9.13058 15.695 9.00716 15.503 9.00716C15.3111 9.00716 15.2051 9.00716 15.2051 9.00716Z" fill="#E8A30C"/>
<path fill-rule="evenodd" clip-rule="evenodd" d="M18.7372 10.2834C18.8523 10.1628 18.9166 9.87043 18.9166 9.87043C18.9166 9.87043 18.4025 9.95273 18.2828 9.87043C18.163 9.78813 18.101 9.54694 18.101 9.54694C18.101 9.54694 17.6377 9.75861 17.8144 9.75861C17.9911 9.75861 18.101 9.91516 18.101 9.91516L18.4605 10.0476C18.4605 10.0476 18.2218 10.2834 18.3411 10.2834C18.4605 10.2834 18.622 10.404 18.7372 10.2834Z" fill="#E1E5E8"/>
<path d="M17.8304 10.3838L17.7656 10.3065L18.2173 9.95293L18.282 10.0303L17.8304 10.3838Z" fill="#925229"/>
</g>
</g>
<rect width="32" height="24" fill="url(#paint0_linear_230_28065)" style="mix-blend-mode:overlay"/>
</g>
<rect x="0.5" y="0.5" width="31" height="23" rx="1.5" stroke="black" stroke-opacity="0.1"/>
<defs>
<linearGradient id="paint0_linear_230_28065" x1="16" y1="0" x2="16" y2="24" gradientUnits="userSpaceOnUse">
<stop stop-color="white" stop-opacity="0.7"/>
<stop offset="1" stop-opacity="0.3"/>
</linearGradient>
<clipPath id="clip0_230_28065">
<rect width="32" height="24" rx="2" fill="white"/>
</clipPath>
</defs>
</svg>
