<svg width="32" height="24" viewBox="0 0 32 24" fill="none" xmlns="http://www.w3.org/2000/svg">
<g clip-path="url(#clip0_230_28657)">
<mask id="mask0_230_28657" style="mask-type:luminance" maskUnits="userSpaceOnUse" x="0" y="0" width="32" height="24">
<rect width="32" height="24" fill="white"/>
</mask>
<g mask="url(#mask0_230_28657)">
<path fill-rule="evenodd" clip-rule="evenodd" d="M8 0H24V24H8V0Z" fill="#FFD018"/>
<path fill-rule="evenodd" clip-rule="evenodd" d="M0 0H8V24H0V0Z" fill="#2E42A5"/>
<path fill-rule="evenodd" clip-rule="evenodd" d="M24 0H32V24H24V0Z" fill="#E31D1C"/>
<path fill-rule="evenodd" clip-rule="evenodd" d="M16.2995 19.4236C16.5205 19.3615 16.7106 18.9771 16.7106 18.9771C16.7106 18.9771 16.8549 19.09 17.0837 19.2047C17.3125 19.3195 17.5505 18.9771 17.5505 18.9771C17.5505 18.9771 17.8755 18.9771 18.018 18.5937C18.1605 18.2103 17.7336 18.0459 17.7336 18.0459C17.7336 18.0459 18.2326 17.5216 19.0753 17.5216C19.9179 17.5216 20.5737 17.5216 21.1236 17.2883C21.6734 17.0549 22.2077 16.6536 22.4076 15.8203C22.6075 14.9869 21.9748 14.4621 21.9748 14.4621C21.9748 14.4621 22.1149 14.5064 22.4076 14.267C22.7003 14.0276 22.2284 13.2572 21.9748 13.2572C21.7212 13.2572 21.6909 13.3998 21.6909 13.3998C21.6909 13.3998 21.5342 13.2638 21.3195 12.8014C21.1048 12.3389 21.5342 11.933 21.5342 11.933C21.5342 11.933 21.7696 12.0678 21.9748 11.8454C22.1801 11.6229 21.8682 11.2821 21.8682 11.2821C21.8682 11.2821 22.8562 10.9458 22.7134 9.68175C22.5706 8.41772 21.2677 8.48961 21.2677 8.48961C21.2677 8.48961 21.3072 8.27944 21.1236 8.15966C20.94 8.03989 20.804 8.27944 20.804 8.27944C20.66 7.94604 21.0823 7.48995 21.4204 7.12495C21.5251 7.01184 21.6218 6.90749 21.6909 6.81824C21.9834 6.44096 21.7998 5.97488 20.7313 5.46615C19.6629 4.95742 19.0796 5.64114 18.994 5.88341C18.9083 6.12569 19.2398 6.27561 19.2398 6.27561C18.9694 6.5129 18.4465 6.6035 18.0901 6.43956C17.7336 6.27561 17.8916 5.77703 17.9653 5.64114C17.9733 5.62627 17.9841 5.60825 17.9964 5.58744C18.0972 5.41808 18.3079 5.06399 18.0901 4.71965C17.8455 4.33299 17.422 4.33299 17.0837 4.55256C16.7942 4.74048 16.3826 4.84013 16.27 4.86495C16.1574 4.84013 15.7458 4.74048 15.4563 4.55256C15.118 4.33299 14.6946 4.33299 14.45 4.71965C14.2321 5.06399 14.4428 5.41808 14.5436 5.58744C14.556 5.60825 14.5667 5.62627 14.5747 5.64114C14.6484 5.77703 14.8064 6.27561 14.45 6.43956C14.0935 6.6035 13.5706 6.5129 13.3002 6.27561C13.3002 6.27561 13.6317 6.12569 13.5461 5.88341C13.4604 5.64114 12.8771 4.95742 11.8087 5.46615C10.7403 5.97488 10.5566 6.44096 10.8491 6.81824C10.9183 6.90749 11.0149 7.01184 11.1197 7.12495C11.4577 7.48995 11.8801 7.94604 11.736 8.27944C11.736 8.27944 11.6 8.03989 11.4164 8.15966C11.2329 8.27944 11.2724 8.48961 11.2724 8.48961C11.2724 8.48961 9.96947 8.41772 9.82662 9.68175C9.68377 10.9458 10.6718 11.2821 10.6718 11.2821C10.6718 11.2821 10.3599 11.6229 10.5652 11.8454C10.7705 12.0678 11.0058 11.933 11.0058 11.933C11.0058 11.933 11.4352 12.3389 11.2205 12.8014C11.0058 13.2638 10.8491 13.3998 10.8491 13.3998C10.8491 13.3998 10.8188 13.2572 10.5652 13.2572C10.3116 13.2572 9.83975 14.0276 10.1324 14.267C10.4251 14.5064 10.5652 14.4621 10.5652 14.4621C10.5652 14.4621 9.93254 14.9869 10.1324 15.8203C10.3323 16.6536 10.8666 17.0549 11.4164 17.2883C11.9663 17.5216 12.6221 17.5216 13.4647 17.5216C14.3074 17.5216 14.8064 18.0459 14.8064 18.0459C14.8064 18.0459 14.3795 18.2103 14.522 18.5937C14.6645 18.9771 14.9895 18.9771 14.9895 18.9771C14.9895 18.9771 15.2275 19.3195 15.4563 19.2047C15.6851 19.09 15.8295 18.9771 15.8295 18.9771C15.8295 18.9771 16.0195 19.3615 16.2406 19.4236V19.4321C16.2504 19.4321 16.2602 19.4313 16.27 19.4299C16.2798 19.4313 16.2896 19.4321 16.2995 19.4321V19.4236Z" fill="#BF9937"/>
<path d="M12.1113 15.9978L12.2164 15.7437C13.4241 16.2614 14.7985 16.5206 16.3403 16.5206C17.8814 16.5206 19.2188 16.2616 20.3533 15.7449L20.4639 15.9966C19.2925 16.5301 17.9177 16.7963 16.3403 16.7963C14.7637 16.7963 13.3538 16.5304 12.1113 15.9978Z" fill="#805440"/>
<path fill-rule="evenodd" clip-rule="evenodd" d="M12.4785 7.23268H16.2016H16.2958H20.0189V14.2625C20.0189 14.2625 20.0176 14.883 19.3616 15.1542C18.7056 15.4255 17.934 15.3284 17.934 15.3284C17.934 15.3284 17.1958 15.1697 16.806 15.3284C16.5671 15.4257 16.394 15.4739 16.2958 15.4965V15.515C16.2958 15.515 16.2798 15.513 16.2487 15.5067C16.2176 15.513 16.2016 15.515 16.2016 15.515V15.4965C16.1034 15.4739 15.9303 15.4257 15.6914 15.3284C15.3016 15.1697 14.5634 15.3284 14.5634 15.3284C14.5634 15.3284 13.7918 15.4255 13.1358 15.1542C12.4798 14.883 12.4785 14.2625 12.4785 14.2625V7.23268Z" fill="#BF9937"/>
<mask id="mask1_230_28657" style="mask-type:luminance" maskUnits="userSpaceOnUse" x="12" y="7" width="9" height="9">
<path fill-rule="evenodd" clip-rule="evenodd" d="M12.4785 7.23268H16.2016H16.2958H20.0189V14.2625C20.0189 14.2625 20.0176 14.883 19.3616 15.1542C18.7056 15.4255 17.934 15.3284 17.934 15.3284C17.934 15.3284 17.1958 15.1697 16.806 15.3284C16.5671 15.4257 16.394 15.4739 16.2958 15.4965V15.515C16.2958 15.515 16.2798 15.513 16.2487 15.5067C16.2176 15.513 16.2016 15.515 16.2016 15.515V15.4965C16.1034 15.4739 15.9303 15.4257 15.6914 15.3284C15.3016 15.1697 14.5634 15.3284 14.5634 15.3284C14.5634 15.3284 13.7918 15.4255 13.1358 15.1542C12.4798 14.883 12.4785 14.2625 12.4785 14.2625V7.23268Z" fill="white"/>
</mask>
<g mask="url(#mask1_230_28657)">
<rect x="12.373" y="7.14445" width="3.65625" height="3.9" fill="#D00F3A"/>
<path fill-rule="evenodd" clip-rule="evenodd" d="M16.4355 7.14445H20.2272V11.0444H16.4355V7.14445Z" fill="#FEDF00"/>
<path fill-rule="evenodd" clip-rule="evenodd" d="M16.4355 11.4778H20.0918V15.5222H16.4355V11.4778Z" fill="#FEDF00"/>
<rect x="12.373" y="11.4778" width="3.65625" height="4.04444" fill="#FEDF00"/>
<path fill-rule="evenodd" clip-rule="evenodd" d="M19.1432 13.2985C19.1432 13.2985 19.3131 13.1262 19.3131 12.7192C19.3131 12.3122 19.4563 12.0429 19.1432 12.0429C18.8301 12.0429 18.4049 12.0429 18.1055 12.0429C17.8062 12.0429 17.9599 12.2238 17.6589 12.0429C17.3578 11.862 17.1152 11.9196 17.1152 12.0429C17.1152 12.1663 17.419 12.112 17.419 12.3626C17.419 12.6132 17.534 12.3953 17.534 12.8469C17.534 13.2985 17.5975 13.2227 17.6282 13.2227C17.6589 13.2227 17.6589 13.1411 17.6589 13.0224C17.6589 12.9037 17.6436 12.4248 17.7271 12.572C17.8106 12.7192 17.8519 12.6496 17.8931 12.8169C17.9344 12.9842 18.0452 13.1469 17.9692 13.2227C17.8931 13.2985 17.7396 13.3637 17.8544 13.3637C17.9692 13.3637 18.136 13.1711 18.0526 12.8469C17.9692 12.5227 18.1562 12.8169 18.1562 12.8169C18.1562 12.8169 18.5984 12.915 18.6268 12.7804C18.6552 12.6457 18.6958 12.9092 18.8156 12.9092C18.9354 12.9092 18.7 13.1802 18.601 13.2227C18.5021 13.2652 18.601 13.2985 18.601 13.2985C18.601 13.2985 18.6933 13.3744 18.7544 13.2985C18.8156 13.2227 19.0344 12.9747 19.0344 12.8469C19.0344 12.7192 19.1746 12.7959 19.1746 12.9092C19.1746 13.0224 19.0445 13.4288 19.0938 13.3637C19.1432 13.2985 19.1432 13.2985 19.1432 13.2985Z" fill="#D00F3A"/>
<path fill-rule="evenodd" clip-rule="evenodd" d="M19.1432 14.8874C19.1432 14.8874 19.3131 14.715 19.3131 14.308C19.3131 13.901 19.4563 13.6318 19.1432 13.6318C18.8301 13.6318 18.4049 13.6318 18.1055 13.6318C17.8062 13.6318 17.9599 13.8127 17.6589 13.6318C17.3578 13.4509 17.1152 13.5084 17.1152 13.6318C17.1152 13.7552 17.419 13.7009 17.419 13.9515C17.419 14.2021 17.534 13.9842 17.534 14.4358C17.534 14.8874 17.5975 14.8116 17.6282 14.8116C17.6589 14.8116 17.6589 14.73 17.6589 14.6113C17.6589 14.4926 17.6436 14.0137 17.7271 14.1608C17.8106 14.308 17.8519 14.2385 17.8931 14.4058C17.9344 14.5731 18.0452 14.7358 17.9692 14.8116C17.8931 14.8874 17.7396 14.9526 17.8544 14.9526C17.9692 14.9526 18.136 14.76 18.0526 14.4358C17.9692 14.1116 18.1562 14.4058 18.1562 14.4058C18.1562 14.4058 18.5984 14.5039 18.6268 14.3693C18.6552 14.2346 18.6958 14.4981 18.8156 14.4981C18.9354 14.4981 18.7 14.7691 18.601 14.8116C18.5021 14.8541 18.601 14.8874 18.601 14.8874C18.601 14.8874 18.6933 14.9633 18.7544 14.8874C18.8156 14.8116 19.0344 14.5635 19.0344 14.4358C19.0344 14.308 19.1746 14.3848 19.1746 14.4981C19.1746 14.6113 19.0445 15.0177 19.0938 14.9526C19.1432 14.8874 19.1432 14.8874 19.1432 14.8874Z" fill="#D00F3A"/>
<path fill-rule="evenodd" clip-rule="evenodd" d="M14.2101 10.2976C14.2101 10.4627 14.1261 10.5888 13.9348 10.7819L13.9095 10.8072L13.8583 10.8586C13.8305 10.8868 13.8093 10.9092 13.7907 10.9302C13.6272 11.1148 13.3412 10.9557 13.268 10.7764C13.2563 10.7478 13.1989 10.6447 13.1056 10.4834L13.1005 10.4745L13.0454 10.3797L12.9954 10.2936C12.9587 10.2305 12.9395 10.1971 12.9299 10.1794C12.9233 10.1673 12.8854 10.1814 12.819 10.2661C12.7937 10.2984 12.8456 10.4088 13.0108 10.5855L12.9171 10.6898C12.6873 10.4657 12.5762 10.3205 12.5762 10.2198C12.5762 10.0518 12.7112 9.96164 12.9628 9.96164C13.1211 9.96164 13.2056 10.0731 13.3323 10.3536L13.3646 10.4255C13.4271 10.564 13.4671 10.6395 13.5158 10.701C13.5736 10.774 13.6083 10.7706 13.668 10.6953C13.7267 10.6212 13.7811 10.5057 13.8627 10.2976C13.8713 10.2757 13.8788 10.2571 13.8851 10.2416C13.9026 10.1984 13.9106 10.1788 13.9056 10.1746C13.9014 10.171 13.8882 10.1783 13.864 10.1916C13.8553 10.1964 13.8452 10.2019 13.8335 10.208L13.7703 10.2412L13.1963 8.86198L14.2824 7.54324V10.2897L14.2129 10.2268C14.2111 10.2456 14.2101 10.2694 14.2101 10.2976ZM14.2876 10.2944L14.2824 10.2991V10.2897L14.2876 10.2944ZM14.2928 10.2897V10.2991L14.2876 10.2944L14.2928 10.2897ZM14.2928 7.54324L15.379 8.86198L14.8049 10.2412L14.7417 10.208C14.6977 10.1849 14.6753 10.1698 14.6696 10.1746C14.6628 10.1803 14.68 10.2145 14.7126 10.2976C14.7942 10.5057 14.8486 10.6212 14.9073 10.6953C14.967 10.7706 15.0017 10.774 15.0595 10.701C15.1081 10.6395 15.1482 10.564 15.2107 10.4255L15.243 10.3536C15.3697 10.0731 15.4542 9.96164 15.6124 9.96164C15.8641 9.96164 15.9991 10.0518 15.9991 10.2198C15.9991 10.3205 15.888 10.4657 15.6581 10.6898L15.5645 10.5855C15.7297 10.4088 15.7815 10.2984 15.7562 10.2661C15.6898 10.1814 15.652 10.1673 15.6454 10.1794C15.6358 10.1971 15.6166 10.2305 15.5799 10.2936L15.5299 10.3797L15.4748 10.4745L15.4697 10.4834C15.3764 10.6447 15.319 10.7478 15.3073 10.7764C15.234 10.9557 14.9481 11.1148 14.7846 10.9302C14.766 10.9092 14.7448 10.8868 14.717 10.8586C14.7081 10.8496 14.6846 10.8261 14.6657 10.8071C14.6541 10.7955 14.6442 10.7856 14.6405 10.7819C14.4492 10.5888 14.3652 10.4627 14.3652 10.2976C14.3652 10.2694 14.3641 10.2456 14.3624 10.2268L14.2928 10.2897V7.54324ZM14.2928 7.54324L14.2876 7.53691L14.2928 7.53059V7.54324ZM14.2876 7.53691L14.2824 7.54324V7.53059L14.2876 7.53691ZM14.2206 10.1836L14.2226 10.1802L14.222 10.1815L14.2206 10.1836Z" fill="white"/>
<path fill-rule="evenodd" clip-rule="evenodd" d="M14.2789 10.0497V7.8229L15.2203 8.88787L14.7367 10.0497C14.5585 9.98763 14.4961 10.1191 14.5879 10.3533C14.6427 10.4929 14.6859 10.5934 14.728 10.671C14.5677 10.5085 14.5009 10.4068 14.5009 10.2976C14.5009 10.2093 14.4927 10.1485 14.4712 10.1085C14.4612 10.0897 14.3766 10.0716 14.3223 10.06C14.3012 10.0555 14.2847 10.0519 14.2789 10.0497ZM13.839 10.0497L13.3555 8.88787L14.274 7.83109V10.0579C14.268 10.0602 14.2524 10.0632 14.2329 10.067C14.1853 10.0762 14.1145 10.09 14.1045 10.1085C14.0831 10.1485 14.0749 10.2093 14.0749 10.2976C14.0749 10.4068 14.0081 10.5085 13.8478 10.671C13.8899 10.5934 13.9331 10.4929 13.9878 10.3533C14.0797 10.1191 14.0173 9.98763 13.839 10.0497Z" fill="#FEDF00"/>
<path fill-rule="evenodd" clip-rule="evenodd" d="M13.1855 11.4778H12.7793V15.5222H13.1855V11.4778ZM13.998 11.4778H13.5918V15.5222H13.998V11.4778ZM14.4043 11.4778H14.8105V15.5222H14.4043V11.4778ZM15.623 11.4778H15.2168V15.5222H15.623V11.4778Z" fill="#D00F3A"/>
<path fill-rule="evenodd" clip-rule="evenodd" d="M17.3828 7.14445H16.9766V11.1889H17.3828V7.14445ZM18.1953 7.14445H17.7891V11.1889H18.1953V7.14445ZM18.6016 7.14445H19.0078V11.1889H18.6016V7.14445ZM19.8203 7.14445H19.4141V11.1889H19.8203V7.14445Z" fill="#D00F3A"/>
</g>
</g>
<rect width="32" height="24" fill="url(#paint0_linear_230_28657)" style="mix-blend-mode:overlay"/>
</g>
<rect x="0.5" y="0.5" width="31" height="23" rx="1.5" stroke="black" stroke-opacity="0.1"/>
<defs>
<linearGradient id="paint0_linear_230_28657" x1="16" y1="0" x2="16" y2="24" gradientUnits="userSpaceOnUse">
<stop stop-color="white" stop-opacity="0.7"/>
<stop offset="1" stop-opacity="0.3"/>
</linearGradient>
<clipPath id="clip0_230_28657">
<rect width="32" height="24" rx="2" fill="white"/>
</clipPath>
</defs>
</svg>
