<svg width="32" height="24" viewBox="0 0 32 24" fill="none" xmlns="http://www.w3.org/2000/svg">
<g clip-path="url(#clip0_230_26889)">
<mask id="mask0_230_26889" style="mask-type:luminance" maskUnits="userSpaceOnUse" x="0" y="0" width="32" height="24">
<rect width="32" height="24" fill="white"/>
</mask>
<g mask="url(#mask0_230_26889)">
<path fill-rule="evenodd" clip-rule="evenodd" d="M0 0V24H32V0H0Z" fill="#2E42A5"/>
<mask id="mask1_230_26889" style="mask-type:luminance" maskUnits="userSpaceOnUse" x="0" y="0" width="32" height="24">
<path fill-rule="evenodd" clip-rule="evenodd" d="M0 0V24H32V0H0Z" fill="white"/>
</mask>
<g mask="url(#mask1_230_26889)">
<path d="M25.9511 19.714C24.9223 19.714 24.2064 19.4711 23.6968 19.0478C23.185 18.6225 22.8494 17.9888 22.6348 17.1443C22.4199 16.2984 22.3319 15.2634 22.2991 14.0611C22.276 13.2161 22.2803 12.2991 22.2849 11.3158C22.2864 10.9791 22.288 10.6347 22.2886 10.2827H29.7045C29.8369 12.6901 29.8844 15.0362 29.4131 16.7958C29.1709 17.7 28.7974 18.426 28.2487 18.9257C27.7052 19.4206 26.9671 19.714 25.9511 19.714Z" fill="#6DC2FF" stroke="#F7FCFF" stroke-width="0.5"/>
<mask id="mask2_230_26889" style="mask-type:luminance" maskUnits="userSpaceOnUse" x="22" y="10" width="9" height="10">
<path d="M25.9511 19.714C24.9223 19.714 24.2064 19.4711 23.6968 19.0478C23.185 18.6225 22.8494 17.9888 22.6348 17.1443C22.4199 16.2984 22.3319 15.2634 22.2991 14.0611C22.276 13.2161 22.2803 12.2991 22.2849 11.3158C22.2864 10.9791 22.288 10.6347 22.2886 10.2827H29.7045C29.8369 12.6901 29.8844 15.0362 29.4131 16.7958C29.1709 17.7 28.7974 18.426 28.2487 18.9257C27.7052 19.4206 26.9671 19.714 25.9511 19.714Z" fill="white" stroke="white" stroke-width="0.5"/>
</mask>
<g mask="url(#mask2_230_26889)">
<path fill-rule="evenodd" clip-rule="evenodd" d="M24.5234 13.587C24.5234 13.587 24.1287 13.2951 23.9595 12.8222C23.7902 12.3493 23.4554 11.0903 23.4554 10.981C23.4554 10.8717 23.0098 10.981 23.0098 10.981C23.0098 10.981 23.016 10.4486 23.1841 10.4486C23.3523 10.4486 23.3586 9.955 23.7666 10.0793C24.1746 10.2036 24.4954 10.6595 24.9112 10.6595C25.3269 10.6595 27.0649 10.7921 27.3443 10.7921C27.6236 10.7921 28.3601 11.3817 28.3601 11.8231C28.3601 12.2645 28.1593 12.9221 28.0013 12.9221C27.8433 12.9221 27.6446 13.3047 27.3443 13.1784C27.044 13.0521 26.3271 12.7921 25.6849 12.9221C25.0428 13.0521 24.9112 12.9704 24.9112 13.1784C24.9112 13.3864 24.5234 13.587 24.5234 13.587Z" fill="#E1E5E8"/>
<path fill-rule="evenodd" clip-rule="evenodd" d="M23.6016 13.2787H28.7571L27.8692 14.4262H24.2264L23.6016 13.2787Z" fill="#49801E"/>
<path d="M23.5332 18.2956C23.5332 18.2956 24.4242 18.6143 24.7966 18.5756C25.209 18.5327 25.5741 18.0626 25.8497 18.0626C26.1248 18.0626 26.6545 18.5329 27.0659 18.5756C27.4389 18.6143 28.1662 18.2956 28.1662 18.2956" stroke="white" stroke-width="1.06667"/>
<path d="M22.5547 16.9362C22.8628 16.6754 23.5332 16.6563 23.5332 16.6563C23.5332 16.6563 24.4242 16.975 24.7966 16.9362C25.209 16.8934 25.5741 16.4232 25.8497 16.4232C26.1249 16.4232 26.6546 16.8935 27.066 16.9362C27.4389 16.975 28.1663 16.6563 28.1663 16.6563C28.1663 16.6563 28.5728 16.1992 29.0832 16.6818" stroke="white" stroke-width="1.06667"/>
<path d="M22.4615 15.5298L21.7871 14.7033C22.0515 14.4875 22.4955 14.2749 23.1436 14.0399L23.4582 14.0247C24.1301 14.1974 24.5793 14.2722 24.7438 14.2558C24.7981 14.2503 24.8888 14.2062 25.0545 14.0963C25.5251 13.7842 25.5708 13.7588 25.8501 13.7588C26.1055 13.7588 26.1581 13.7832 26.6919 14.0715C26.791 14.1246 26.8282 14.1439 26.8818 14.1696C26.9945 14.2237 27.0752 14.2513 27.1195 14.2557C27.2477 14.2686 27.5057 14.2087 27.8668 14.0634C28.3363 13.6367 28.9311 13.6809 29.4428 14.147C29.7841 14.458 30.0581 14.7092 30.2649 14.9009L29.5399 15.6833C29.3356 15.494 29.0637 15.2446 28.7244 14.9355C28.5895 14.8126 28.6185 14.8134 28.5586 14.8784L28.3741 15.008C27.8139 15.2445 27.3715 15.353 27.0132 15.3171C26.8209 15.2979 26.6349 15.2343 26.4202 15.1313C26.3483 15.0967 26.2969 15.0701 26.185 15.01C25.9274 14.8709 25.8296 14.8254 25.8501 14.8254C25.895 14.8254 25.8328 14.8601 25.6441 14.9852C25.3407 15.1865 25.1296 15.2891 24.8502 15.3171C24.5414 15.3481 24.0597 15.2736 23.3553 15.0989C22.8977 15.2719 22.5937 15.4218 22.4615 15.5298Z" fill="white"/>
</g>
<path d="M22.964 18.3937C22.964 18.3937 23.9479 19.3362 23.3538 19.9747C22.7596 20.6133 22.2148 20.2424 22.2148 20.2424" stroke="#B85F3C"/>
<path d="M29.0497 18.3937C29.0497 18.3937 28.0658 19.3362 28.6599 19.9747C29.254 20.6133 29.7988 20.2424 29.7988 20.2424" stroke="#B85F3C"/>
<path d="M22.3223 19.1531C22.3223 19.1531 24.0175 20.7731 26.1014 20.7731C28.1854 20.7731 29.8623 19.5355 29.8623 19.5355" stroke="#CB8B73"/>
<rect width="18" height="14" fill="#2B409A"/>
<mask id="mask3_230_26889" style="mask-type:luminance" maskUnits="userSpaceOnUse" x="0" y="0" width="18" height="14">
<rect width="18" height="14" fill="white"/>
</mask>
<g mask="url(#mask3_230_26889)">
<path d="M-2.00586 12.9998L1.95509 14.737L18.0883 1.88875L20.1776 -0.69278L15.9419 -1.2734L9.36159 4.26329L4.06508 7.99372L-2.00586 12.9998Z" fill="#F7FCFF"/>
<path d="M-1.46289 14.2169L0.555031 15.2251L19.428 -0.932648H16.5947L-1.46289 14.2169Z" fill="#F50100"/>
<path d="M20.0039 12.9998L16.043 14.737L-0.0902405 1.88875L-2.17955 -0.69278L2.05612 -1.2734L8.63646 4.26329L13.933 7.99372L20.0039 12.9998Z" fill="#F7FCFF"/>
<path d="M19.8691 13.8733L17.8512 14.8815L9.81489 7.96351L7.43229 7.19059L-2.3802 -0.683947H0.453194L10.2602 7.00368L12.8651 7.9305L19.8691 13.8733Z" fill="#F50100"/>
<mask id="path-22-outside-1_230_26889" maskUnits="userSpaceOnUse" x="-2" y="-2" width="22" height="18" fill="black">
<rect fill="white" x="-2" y="-2" width="22" height="18"/>
<path fill-rule="evenodd" clip-rule="evenodd" d="M9.98451 0H7.98451V6H0V8H7.98451V14H9.98451V8H18V6H9.98451V0Z"/>
</mask>
<path fill-rule="evenodd" clip-rule="evenodd" d="M9.98451 0H7.98451V6H0V8H7.98451V14H9.98451V8H18V6H9.98451V0Z" fill="#F50100"/>
<path d="M7.98451 0V-1.5H6.48451V0H7.98451ZM9.98451 0H11.4845V-1.5H9.98451V0ZM7.98451 6V7.5H9.48451V6H7.98451ZM0 6V4.5H-1.5V6H0ZM0 8H-1.5V9.5H0V8ZM7.98451 8H9.48451V6.5H7.98451V8ZM7.98451 14H6.48451V15.5H7.98451V14ZM9.98451 14V15.5H11.4845V14H9.98451ZM9.98451 8V6.5H8.48451V8H9.98451ZM18 8V9.5H19.5V8H18ZM18 6H19.5V4.5H18V6ZM9.98451 6H8.48451V7.5H9.98451V6ZM7.98451 1.5H9.98451V-1.5H7.98451V1.5ZM9.48451 6V0H6.48451V6H9.48451ZM0 7.5H7.98451V4.5H0V7.5ZM1.5 8V6H-1.5V8H1.5ZM7.98451 6.5H0V9.5H7.98451V6.5ZM9.48451 14V8H6.48451V14H9.48451ZM9.98451 12.5H7.98451V15.5H9.98451V12.5ZM8.48451 8V14H11.4845V8H8.48451ZM18 6.5H9.98451V9.5H18V6.5ZM16.5 6V8H19.5V6H16.5ZM9.98451 7.5H18V4.5H9.98451V7.5ZM8.48451 0V6H11.4845V0H8.48451Z" fill="#F7FCFF" mask="url(#path-22-outside-1_230_26889)"/>
</g>
</g>
</g>
<rect width="32" height="24" fill="url(#paint0_linear_230_26889)" style="mix-blend-mode:overlay"/>
</g>
<rect x="0.5" y="0.5" width="31" height="23" rx="1.5" stroke="black" stroke-opacity="0.1"/>
<defs>
<linearGradient id="paint0_linear_230_26889" x1="16" y1="0" x2="16" y2="24" gradientUnits="userSpaceOnUse">
<stop stop-color="white" stop-opacity="0.7"/>
<stop offset="1" stop-opacity="0.3"/>
</linearGradient>
<clipPath id="clip0_230_26889">
<rect width="32" height="24" rx="2" fill="white"/>
</clipPath>
</defs>
</svg>
