<svg width="32" height="24" viewBox="0 0 32 24" fill="none" xmlns="http://www.w3.org/2000/svg">
<g clip-path="url(#clip0_230_25330)">
<mask id="mask0_230_25330" style="mask-type:luminance" maskUnits="userSpaceOnUse" x="0" y="0" width="32" height="24">
<rect width="32" height="24" fill="white"/>
</mask>
<g mask="url(#mask0_230_25330)">
<path fill-rule="evenodd" clip-rule="evenodd" d="M0 0V24H32V0H0Z" fill="#4EC7EE"/>
<mask id="mask1_230_25330" style="mask-type:luminance" maskUnits="userSpaceOnUse" x="0" y="0" width="32" height="24">
<path fill-rule="evenodd" clip-rule="evenodd" d="M0 0V24H32V0H0Z" fill="white"/>
</mask>
<g mask="url(#mask1_230_25330)">
<path d="M4.08959 23.2369C4.02613 23.7069 4.32718 24.0417 4.83221 24.2572C5.51113 24.5468 6.19616 24.2756 6.8263 23.5774L6.00969 22.8404C5.72978 23.1505 5.52751 23.27 5.37136 23.268C5.67709 23.0496 6.0688 22.7799 6.54594 22.4595L6.77495 22.1278C6.95888 21.3388 6.38695 20.9113 5.5147 20.9113C5.00095 20.9113 4.59021 21.0129 4.32961 21.2314C3.90147 21.5904 3.97477 22.1635 4.42531 22.4616C4.46105 22.4852 4.49733 22.5065 4.53409 22.5255C4.28134 22.7389 4.12708 22.9593 4.08959 23.2369Z" fill="#FFE402"/>
<path d="M4.56445 22.4954C4.56445 22.4954 4.68924 22.2189 4.62684 22.075" stroke="#FFE402" stroke-width="1.1"/>
<path d="M8.56861 23.2369C8.63207 23.7069 8.33102 24.0417 7.82599 24.2572C7.14708 24.5468 6.46204 24.2756 5.8319 23.5774L6.64851 22.8404C6.92842 23.1505 7.1307 23.27 7.28684 23.268C6.98111 23.0496 6.5894 22.7799 6.11227 22.4595L5.88326 22.1278C5.69932 21.3388 6.27126 20.9113 7.1435 20.9113C7.65726 20.9113 8.068 21.0129 8.3286 21.2314C8.75673 21.5904 8.68343 22.1635 8.23289 22.4616C8.19715 22.4852 8.16088 22.5065 8.12412 22.5255C8.37686 22.7389 8.53112 22.9593 8.56861 23.2369Z" fill="#FFE402"/>
<path d="M8.5957 22.2692L7.59304 22.7216C7.4523 22.4097 7.41025 22.1263 7.52737 21.8562L8.53659 22.2937C8.57052 22.2155 8.57007 22.2124 8.5957 22.2692Z" fill="#FFE402"/>
<path d="M4.08959 0.762999C4.02613 0.293 4.32718 -0.0417682 4.83221 -0.257225C5.51113 -0.546867 6.19616 -0.275644 6.8263 0.422567L6.00969 1.15956C5.72978 0.849401 5.52751 0.729906 5.37136 0.731937C5.67709 0.950357 6.0688 1.22 6.54594 1.54042L6.77495 1.87214C6.95888 2.66114 6.38695 3.08866 5.5147 3.08866C5.00095 3.08866 4.59021 2.98701 4.32961 2.7685C3.90147 2.40953 3.97477 1.83648 4.42531 1.53834C4.46105 1.51469 4.49733 1.49341 4.53409 1.47445C4.28134 1.26101 4.12708 1.04065 4.08959 0.762999Z" fill="#FFE402"/>
<path d="M8.56861 0.762999C8.63207 0.293 8.33102 -0.0417682 7.82599 -0.257225C7.14708 -0.546867 6.46204 -0.275644 5.8319 0.422567L6.64851 1.15956C6.92842 0.849401 7.1307 0.729906 7.28684 0.731937C6.98111 0.950357 6.5894 1.22 6.11227 1.54042L5.88326 1.87214C5.69932 2.66114 6.27126 3.08866 7.1435 3.08866C7.65726 3.08866 8.068 2.98701 8.3286 2.7685C8.75673 2.40953 8.68343 1.83648 8.23289 1.53834C8.19715 1.51469 8.16088 1.49341 8.12412 1.47445C8.37686 1.26101 8.53112 1.04065 8.56861 0.762999Z" fill="#FFE402"/>
<path fill-rule="evenodd" clip-rule="evenodd" d="M5.09384 20.063C4.46282 20.0812 4.0702 20.2113 4.0702 20.8196C4.0702 21.4903 4.72185 21.7002 5.41513 21.7002C6.04316 21.7002 6.75067 21.3104 6.75067 20.6124C6.75067 20.1877 6.21071 19.3307 4.85108 17.473C4.80395 17.4291 4.778 17.4068 4.75722 17.4066C4.83967 17.3607 4.98488 17.307 5.17648 17.307C5.243 17.307 5.32945 17.3406 5.41513 17.3837V18.1123H6.85461V17.5623C6.85461 16.9409 5.93605 16.207 5.17648 16.207C4.51313 16.207 3.98058 16.5225 3.71084 16.9765C3.44426 17.4251 3.6481 17.8558 4.03094 18.1983C4.60063 18.984 5.04295 19.6344 5.32035 20.0617C5.21843 20.0609 5.16247 20.061 5.09384 20.063ZM5.16145 20.5702C5.14149 20.5657 5.12229 20.5609 5.10435 20.5557C5.11771 20.5697 5.1702 20.6323 5.1702 20.8196C5.1702 20.9216 5.16529 20.9933 5.1587 21.0438C4.97312 20.8801 4.92124 20.5947 5.05704 20.375L5.06041 20.3695L5.0397 20.3283C5.04244 20.327 5.04519 20.3255 5.0479 20.3242C5.07988 20.3077 5.10615 20.2942 5.06041 20.3695L5.16145 20.5702ZM5.10435 20.5557L5.08527 20.5498C5.08733 20.5505 5.09002 20.5518 5.09317 20.5538L5.10435 20.5557ZM5.65067 20.6124C5.65067 20.5936 5.64429 20.5824 5.63325 20.5764L5.63965 20.5834C5.64696 20.5985 5.65067 20.6082 5.65067 20.6124Z" fill="#FFE402"/>
<path fill-rule="evenodd" clip-rule="evenodd" d="M7.56632 20.063C8.19734 20.0812 8.58995 20.2113 8.58995 20.8196C8.58995 21.4903 7.93831 21.7002 7.24502 21.7002C6.617 21.7002 5.90949 21.3104 5.90949 20.6124C5.90949 20.1877 6.44945 19.3307 7.80908 17.473C7.8562 17.4291 7.88216 17.4068 7.90294 17.4066C7.82048 17.3607 7.67528 17.307 7.48367 17.307C7.41716 17.307 7.33071 17.3406 7.24502 17.3837V18.1123H5.80555V17.5623C5.80555 16.9409 6.72411 16.207 7.48367 16.207C8.14703 16.207 8.67958 16.5225 8.94932 16.9765C9.2159 17.4251 9.01205 17.8558 8.62922 18.1983C8.05953 18.984 7.61721 19.6344 7.3398 20.0617C7.44172 20.0609 7.49769 20.061 7.56632 20.063ZM7.49871 20.5702C7.51867 20.5657 7.53787 20.5609 7.55581 20.5557C7.54245 20.5697 7.48995 20.6323 7.48995 20.8196C7.48995 20.9216 7.49487 20.9933 7.50145 21.0438C7.68704 20.8801 7.73892 20.5947 7.60311 20.375L7.59975 20.3695L7.62046 20.3283C7.61771 20.327 7.61496 20.3255 7.61226 20.3242C7.58028 20.3077 7.554 20.2942 7.59975 20.3695L7.49871 20.5702ZM7.55581 20.5557L7.57488 20.5498C7.57283 20.5505 7.57014 20.5518 7.56699 20.5538L7.55581 20.5557ZM7.00949 20.6124C7.00949 20.5936 7.01587 20.5824 7.02691 20.5764L7.0205 20.5834C7.01319 20.5985 7.00949 20.6082 7.00949 20.6124Z" fill="#FFE402"/>
<path fill-rule="evenodd" clip-rule="evenodd" d="M5.09384 13.3547C4.46282 13.3366 4.0702 13.2064 4.0702 12.5981C4.0702 11.9274 4.72185 11.7175 5.41513 11.7175C6.04316 11.7175 6.75067 12.1073 6.75067 12.8054C6.75067 13.23 6.21071 14.087 4.85108 15.9447C4.80395 15.9886 4.778 16.011 4.75722 16.0111C4.83967 16.057 4.98488 16.1108 5.17648 16.1108C5.243 16.1108 5.32945 16.0771 5.41513 16.034V15.3055H6.85461V15.8555C6.85461 16.4769 5.93605 17.2108 5.17648 17.2108C4.51313 17.2108 3.98058 16.8952 3.71084 16.4412C3.44426 15.9926 3.6481 15.5619 4.03094 15.2194C4.60063 14.4337 5.04295 13.7833 5.32035 13.356C5.21843 13.3568 5.16247 13.3567 5.09384 13.3547ZM5.16145 12.8475C5.14149 12.852 5.12229 12.8568 5.10435 12.862C5.11771 12.848 5.1702 12.7855 5.1702 12.5981C5.1702 12.4961 5.16529 12.4244 5.1587 12.3739C4.97312 12.5377 4.92124 12.8231 5.05704 13.0428L5.06041 13.0482L5.0397 13.0894C5.04244 13.0908 5.04519 13.0922 5.0479 13.0936C5.07988 13.11 5.10615 13.1236 5.06041 13.0482L5.16145 12.8475ZM5.10435 12.862L5.08527 12.8679C5.08733 12.8672 5.09002 12.8659 5.09317 12.8639L5.10435 12.862ZM5.65067 12.8054C5.65067 12.8242 5.64429 12.8353 5.63325 12.8413L5.63965 12.8343C5.64696 12.8192 5.65067 12.8095 5.65067 12.8054Z" fill="#FFE402"/>
<path fill-rule="evenodd" clip-rule="evenodd" d="M7.56632 13.3547C8.19734 13.3366 8.58995 13.2064 8.58995 12.5981C8.58995 11.9274 7.93831 11.7175 7.24502 11.7175C6.617 11.7175 5.90949 12.1073 5.90949 12.8054C5.90949 13.23 6.44945 14.087 7.80908 15.9447C7.8562 15.9886 7.88216 16.011 7.90294 16.0111C7.82048 16.057 7.67528 16.1108 7.48367 16.1108C7.41716 16.1108 7.33071 16.0771 7.24502 16.034V15.3055H5.80555V15.8555C5.80555 16.4769 6.72411 17.2108 7.48367 17.2108C8.14703 17.2108 8.67958 16.8952 8.94932 16.4412C9.2159 15.9926 9.01205 15.5619 8.62922 15.2194C8.05953 14.4337 7.61721 13.7833 7.3398 13.356C7.44172 13.3568 7.49769 13.3567 7.56632 13.3547ZM7.49871 12.8475C7.51867 12.852 7.53787 12.8568 7.55581 12.862C7.54245 12.848 7.48995 12.7855 7.48995 12.5981C7.48995 12.4961 7.49487 12.4244 7.50145 12.3739C7.68704 12.5377 7.73892 12.8231 7.60311 13.0428L7.59975 13.0482L7.62046 13.0894C7.61771 13.0908 7.61496 13.0922 7.61226 13.0936C7.58028 13.11 7.554 13.1236 7.59975 13.0482L7.49871 12.8475ZM7.55581 12.862L7.57488 12.8679C7.57283 12.8672 7.57014 12.8659 7.56699 12.8639L7.55581 12.862ZM7.00949 12.8054C7.00949 12.8242 7.01587 12.8353 7.02691 12.8413L7.0205 12.8343C7.01319 12.8192 7.00949 12.8095 7.00949 12.8054Z" fill="#FFE402"/>
<path fill-rule="evenodd" clip-rule="evenodd" d="M5.09384 10.6453C4.46282 10.6634 4.0702 10.7936 4.0702 11.4019C4.0702 12.0726 4.72185 12.2825 5.41513 12.2825C6.04316 12.2825 6.75067 11.8927 6.75067 11.1946C6.75067 10.77 6.21071 9.913 4.85108 8.0553C4.80395 8.01141 4.778 7.98905 4.75722 7.9889C4.83967 7.94299 4.98488 7.88923 5.17648 7.88923C5.243 7.88923 5.32945 7.92287 5.41513 7.96597V8.69454H6.85461V8.14454C6.85461 7.52315 5.93605 6.78923 5.17648 6.78923C4.51313 6.78923 3.98058 7.10478 3.71084 7.55875C3.44426 8.0074 3.6481 8.43806 4.03094 8.78062C4.60063 9.56632 5.04295 10.2167 5.32035 10.644C5.21843 10.6432 5.16247 10.6433 5.09384 10.6453ZM5.16145 11.1525C5.14149 11.148 5.12229 11.1432 5.10435 11.138C5.11771 11.152 5.1702 11.2145 5.1702 11.4019C5.1702 11.5039 5.16529 11.5756 5.1587 11.6261C4.97312 11.4623 4.92124 11.1769 5.05704 10.9572L5.06041 10.9518L5.0397 10.9106C5.04244 10.9092 5.04519 10.9078 5.0479 10.9064C5.07988 10.89 5.10615 10.8764 5.06041 10.9518L5.16145 11.1525ZM5.10435 11.138L5.08527 11.1321C5.08733 11.1328 5.09002 11.1341 5.09317 11.1361L5.10435 11.138ZM5.65067 11.1946C5.65067 11.1758 5.64429 11.1647 5.63325 11.1587L5.63965 11.1657C5.64696 11.1808 5.65067 11.1905 5.65067 11.1946Z" fill="#FFE402"/>
<path fill-rule="evenodd" clip-rule="evenodd" d="M7.56632 10.6453C8.19734 10.6634 8.58995 10.7936 8.58995 11.4019C8.58995 12.0726 7.93831 12.2825 7.24502 12.2825C6.617 12.2825 5.90949 11.8927 5.90949 11.1946C5.90949 10.77 6.44945 9.913 7.80908 8.0553C7.8562 8.01141 7.88216 7.98905 7.90294 7.9889C7.82048 7.94299 7.67528 7.88923 7.48367 7.88923C7.41716 7.88923 7.33071 7.92287 7.24502 7.96597V8.69454H5.80555V8.14454C5.80555 7.52315 6.72411 6.78923 7.48367 6.78923C8.14703 6.78923 8.67958 7.10478 8.94932 7.55875C9.2159 8.0074 9.01205 8.43806 8.62922 8.78062C8.05953 9.56632 7.61721 10.2167 7.3398 10.644C7.44172 10.6432 7.49769 10.6433 7.56632 10.6453ZM7.49871 11.1525C7.51867 11.148 7.53787 11.1432 7.55581 11.138C7.54245 11.152 7.48995 11.2145 7.48995 11.4019C7.48995 11.5039 7.49487 11.5756 7.50145 11.6261C7.68704 11.4623 7.73892 11.1769 7.60311 10.9572L7.59975 10.9518L7.62046 10.9106C7.61771 10.9092 7.61496 10.9078 7.61226 10.9064C7.58028 10.89 7.554 10.8764 7.59975 10.9518L7.49871 11.1525ZM7.55581 11.138L7.57488 11.1321C7.57283 11.1328 7.57014 11.1341 7.56699 11.1361L7.55581 11.138ZM7.00949 11.1946C7.00949 11.1758 7.01587 11.1647 7.02691 11.1587L7.0205 11.1657C7.01319 11.1808 7.00949 11.1905 7.00949 11.1946Z" fill="#FFE402"/>
<path fill-rule="evenodd" clip-rule="evenodd" d="M5.09384 3.93701C4.46282 3.91885 4.0702 3.78868 4.0702 3.1804C4.0702 2.50965 4.72185 2.2998 5.41513 2.2998C6.04316 2.2998 6.75067 2.68959 6.75067 3.38765C6.75067 3.81232 6.21071 4.66928 4.85108 6.52697C4.80395 6.57086 4.778 6.59323 4.75722 6.59337C4.83967 6.63928 4.98488 6.69305 5.17648 6.69305C5.243 6.69305 5.32945 6.6594 5.41513 6.6163V5.88774H6.85461V6.43774C6.85461 7.05913 5.93605 7.79305 5.17648 7.79305C4.51313 7.79305 3.98058 7.47749 3.71084 7.02352C3.44426 6.57488 3.6481 6.14421 4.03094 5.80166C4.60063 5.01595 5.04295 4.36559 5.32035 3.93827C5.21843 3.93912 5.16247 3.93898 5.09384 3.93701ZM5.16145 3.42982C5.14149 3.43426 5.12229 3.43911 5.10435 3.44432C5.11771 3.43031 5.1702 3.36773 5.1702 3.1804C5.1702 3.07841 5.16529 3.00666 5.1587 2.95621C4.97312 3.11993 4.92124 3.40534 5.05704 3.62503L5.06041 3.63052L5.0397 3.67165C5.04244 3.67304 5.04519 3.67445 5.0479 3.67585C5.07988 3.69231 5.10615 3.70584 5.06041 3.63052L5.16145 3.42982ZM5.10435 3.44432L5.08527 3.45015C5.08733 3.44949 5.09002 3.44822 5.09317 3.44618L5.10435 3.44432ZM5.65067 3.38765C5.65067 3.40643 5.64429 3.41759 5.63325 3.42357L5.63965 3.41656C5.64696 3.40152 5.65067 3.39181 5.65067 3.38765Z" fill="#FFE402"/>
<path fill-rule="evenodd" clip-rule="evenodd" d="M7.56632 3.93701C8.19734 3.91885 8.58995 3.78868 8.58995 3.1804C8.58995 2.50965 7.93831 2.2998 7.24502 2.2998C6.617 2.2998 5.90949 2.68959 5.90949 3.38765C5.90949 3.81232 6.44945 4.66928 7.80908 6.52697C7.8562 6.57086 7.88216 6.59323 7.90294 6.59337C7.82048 6.63928 7.67528 6.69305 7.48367 6.69305C7.41716 6.69305 7.33071 6.6594 7.24502 6.6163V5.88774H5.80555V6.43774C5.80555 7.05913 6.72411 7.79305 7.48367 7.79305C8.14703 7.79305 8.67958 7.47749 8.94932 7.02352C9.2159 6.57488 9.01205 6.14421 8.62922 5.80166C8.05953 5.01595 7.61721 4.36559 7.3398 3.93827C7.44172 3.93912 7.49769 3.93898 7.56632 3.93701ZM7.49871 3.42982C7.51867 3.43426 7.53787 3.43911 7.55581 3.44432C7.54245 3.43031 7.48995 3.36773 7.48995 3.1804C7.48995 3.07841 7.49487 3.00666 7.50145 2.95621C7.68704 3.11993 7.73892 3.40534 7.60311 3.62503L7.59975 3.63052L7.62046 3.67165C7.61771 3.67304 7.61496 3.67445 7.61226 3.67585C7.58028 3.69231 7.554 3.70584 7.59975 3.63052L7.49871 3.42982ZM7.55581 3.44432L7.57488 3.45015C7.57283 3.44949 7.57014 3.44822 7.56699 3.44618L7.55581 3.44432ZM7.00949 3.38765C7.00949 3.40643 7.01587 3.41759 7.02691 3.42357L7.0205 3.41656C7.01319 3.40152 7.00949 3.39181 7.00949 3.38765Z" fill="#FFE402"/>
<path fill-rule="evenodd" clip-rule="evenodd" d="M18.9863 2.78479L19.3958 4.3125C19.3958 4.3125 19.4006 4.65959 19.0085 4.65959C18.6164 4.65959 18.5966 4.3125 18.5966 4.3125L18.9863 2.78479ZM22.45 8.61997C22.45 10.6082 20.9322 12.22 19.06 12.22C17.1877 12.22 15.67 10.6082 15.67 8.61997C15.67 6.63174 17.1877 5.01997 19.06 5.01997C20.9322 5.01997 22.45 6.63174 22.45 8.61997ZM20.5809 4.62057L20.636 3.0399L19.8166 4.38691C19.8166 4.38691 19.734 4.72462 20.109 4.83926C20.484 4.9539 20.5809 4.62057 20.5809 4.62057ZM22.1403 3.78841L21.6254 5.2839C21.6254 5.2839 21.4353 5.57434 21.1103 5.35508C20.7852 5.13581 20.9629 4.83701 20.9629 4.83701L22.1403 3.78841ZM22.4364 6.2436L23.366 4.96398L21.9335 5.62252C21.9335 5.62252 21.6762 5.85632 21.9229 6.16104C22.1697 6.46577 22.4364 6.2436 22.4364 6.2436ZM24.2106 6.47758L22.9311 7.40731C22.9311 7.40731 22.6088 7.53619 22.4683 7.17013C22.3278 6.80406 22.6447 6.66122 22.6447 6.66122L24.2106 6.47758ZM23.0875 8.68225L24.5829 8.16723L23.0317 7.88502C23.0317 7.88502 22.6869 7.92896 22.7142 8.32011C22.7416 8.71127 23.0875 8.68225 23.0875 8.68225ZM24.4601 9.89591L22.8795 9.9512C22.8795 9.9512 22.5402 9.87782 22.6284 9.49576C22.7166 9.1137 23.0593 9.17251 23.0593 9.17251L24.4601 9.89591ZM22.3255 11.1011L23.8532 11.5104L22.7251 10.409C22.7251 10.409 22.4146 10.2526 22.2185 10.5922C22.0225 10.9318 22.3255 11.1011 22.3255 11.1011ZM22.816 12.8676L21.4746 12.0296C21.4746 12.0296 21.2344 11.779 21.5212 11.5116C21.8079 11.2442 22.0591 11.4846 22.0591 11.4846L22.816 12.8676ZM20.4025 12.6537L21.4402 13.8473L21.1208 12.3034C21.1208 12.3034 20.9509 12.0001 20.5985 12.172C20.246 12.3439 20.4025 12.6537 20.4025 12.6537ZM19.848 14.3627L19.2046 12.9179C19.2046 12.9179 19.1455 12.5758 19.5328 12.5145C19.9201 12.4531 19.9939 12.7928 19.9939 12.7928L19.848 14.3627ZM17.9986 12.7928L18.164 14.3658L18.788 12.9179C18.788 12.9179 18.8227 12.572 18.4354 12.5106C18.0482 12.4493 17.9986 12.7928 17.9986 12.7928ZM16.57 13.856L16.8717 12.3034C16.8717 12.3034 17.0195 11.9894 17.372 12.1613C17.7244 12.3331 17.59 12.6538 17.59 12.6538L16.57 13.856ZM15.9334 11.4846L15.191 12.8811L16.5179 12.0296C16.5179 12.0296 16.7402 11.7623 16.4534 11.4949C16.1666 11.2275 15.9334 11.4846 15.9334 11.4846ZM14.1491 11.5275L15.2674 10.4091C15.2674 10.4091 15.5656 10.2314 15.7617 10.5709C15.9577 10.9105 15.667 11.1012 15.667 11.1012L14.1491 11.5275ZM14.9332 9.17256L13.5368 9.91518L15.113 9.95126C15.113 9.95126 15.4468 9.85392 15.3585 9.47186C15.2703 9.0898 14.9332 9.17256 14.9332 9.17256ZM13.4082 8.18697L14.9608 7.88508C14.9608 7.88508 15.3073 7.90449 15.28 8.29564C15.2526 8.6868 14.905 8.68231 14.905 8.68231L13.4082 8.18697ZM15.3477 6.66127L13.7748 6.49604L15.0614 7.40737C15.0614 7.40737 15.3925 7.51329 15.533 7.14723C15.6735 6.78116 15.3477 6.66127 15.3477 6.66127ZM14.6141 4.97935L16.059 5.62257C16.059 5.62257 16.3318 5.83725 16.085 6.14198C15.8382 6.4467 15.5561 6.24364 15.5561 6.24364L14.6141 4.97935ZM17.0295 4.83704L15.8358 3.79947L16.367 5.28393C16.367 5.28393 16.5775 5.56062 16.9026 5.34136C17.2276 5.12209 17.0295 4.83704 17.0295 4.83704ZM17.3376 3.04569L18.1758 4.38693C18.1758 4.38693 18.2819 4.71744 17.9069 4.83209C17.5319 4.94673 17.4116 4.62059 17.4116 4.62059L17.3376 3.04569Z" fill="#FFE402"/>
<path fill-rule="evenodd" clip-rule="evenodd" d="M12.2215 10.6719C12.2078 10.6194 12.1953 10.5681 12.184 10.5181L12.2539 10.659L12.2215 10.6719ZM12.3175 11.002C12.2808 10.8868 12.2488 10.7768 12.2215 10.6719L11.793 10.843L11.8564 11.002H11.8102L11.7923 11.0109C11.7667 10.8803 11.7537 10.7565 11.7537 10.6391V9.65198L12.184 10.5181C12.1294 10.2775 12.1021 10.0658 12.1021 9.88129V8.6507L12.5999 9.89761L12.1272 10.0456L12.3129 10.6391H12.3037L12.2539 10.659L12.4302 11.0138L12.6002 11.557C12.4412 11.265 12.3602 11.0712 12.3602 11.002H12.3175ZM12.8646 12.3886C12.6269 11.861 12.4443 11.4005 12.3175 11.002H11.8564L12.3249 12.1753L12.1514 11.9902C11.9698 11.6264 11.8495 11.3017 11.7923 11.0109L11.411 11.2003L11.3351 11.1193V11.238L11.3176 11.2467L11.3351 11.2817V11.416C11.285 11.2599 11.2602 11.123 11.2602 11.002V8.65844L11.7537 9.65198V7.77832L12.1021 8.6507V6.28259L13.4928 10.7263L13.3951 10.7581C13.2661 10.3727 13.2021 10.0778 13.2021 9.88129H12.6521L12.5999 9.89761L12.9955 10.8883L12.9 10.9194C12.8691 10.8096 12.8537 10.7158 12.8537 10.6391H12.3129L12.4302 11.0138L13.0444 12.2503L13.019 12.26C12.8456 11.9876 12.7057 11.7507 12.6002 11.557L12.8414 12.3275L13.019 12.26L13.0437 12.2988L12.8646 12.3886ZM13.0552 12.3168L12.8648 12.3892L12.8646 12.3886L12.6335 12.5045L12.3249 12.1753L12.4719 12.5435C12.4541 12.5288 12.4434 12.5186 12.4384 12.5137C12.3301 12.3307 12.2344 12.1564 12.1514 11.9902L11.411 11.2003L11.3351 11.238V11.2817L11.9453 12.5103H11.8851L11.881 12.5141C11.6096 12.0659 11.4284 11.7074 11.3351 11.416V12.2194L9.15039 10.6631L11.9327 13.9743C12.8218 15.0324 13.9173 15.8455 15.2134 16.4105L12.694 16.357L15.2546 17.0797L13.9299 18.0546L16.218 17.3516L16.8419 17.5277C17.6815 17.7647 18.1491 18.0024 18.1796 18.0746L18.2975 18.3532L18.5959 18.4028C19.2497 18.5116 20.4559 18.3421 22.0099 17.9977C22.5379 17.8806 23.0678 17.7503 23.4779 17.6396C23.6498 17.5932 23.7842 17.5546 23.86 17.5297C23.8913 17.5193 23.8913 17.5193 23.931 17.5041L23.931 17.504C23.9567 17.4937 23.9567 17.4937 24.0156 17.4618L24.0156 17.4617L24.0156 17.4617C24.0658 17.4548 24.1026 17.4498 24.1273 17.4297C24.1957 17.3742 24.1707 17.2035 24.0761 16.5598L24.0761 16.5598C23.6428 16.4439 23.5824 16.4277 23.5662 16.4476C23.5635 16.4508 23.5621 16.455 23.5604 16.4598C23.4117 16.4906 23.18 16.4871 22.8711 16.4474C25.4569 15.1758 27.1555 13.9018 27.9693 12.591L29.4577 10.1933L28.556 10.8511L28.8809 9.8066L27.5957 10.6325C27.7611 10.4131 27.8891 10.1946 27.9794 9.97631L28.9475 7.6366L27.4199 9.06169L28.2486 6.33047L26.2824 8.96445L18.2328 14.8881L18.1072 14.859C16.1257 14.3996 14.7341 12.9998 13.906 10.5917L13.4928 10.7263L13.4982 10.7434L13.4008 10.7752L13.3951 10.7581L12.9955 10.8883L13.0022 10.905L12.905 10.9367L12.9 10.9194L12.8602 10.9324C12.994 11.367 13.14 11.7743 13.2982 12.1539L13.0444 12.2503L13.0635 12.2888L13.0437 12.2988L13.0552 12.3168ZM13.0739 12.3097L13.0552 12.3168L13.0946 12.3777L12.7001 12.5756L12.6335 12.5045L12.5045 12.5692C12.4917 12.5595 12.4809 12.5509 12.4719 12.5435L12.4859 12.5785L12.5045 12.5692C12.527 12.5863 12.5556 12.6068 12.5913 12.6302L12.5278 12.662C12.4971 12.612 12.4673 12.5625 12.4384 12.5137L12.4351 12.5103H11.9453L12.0559 12.733L11.9841 12.6818C11.9484 12.6245 11.914 12.5687 11.881 12.5141L11.8239 12.5677L11.3351 12.2194V12.5103C11.3351 13.0309 11.7014 13.4244 12.3306 13.7478L12.0346 14.0684L15.3256 16.4129L15.2134 16.4105C15.3212 16.4575 15.4303 16.5028 15.5409 16.5463L15.8265 16.6589L15.2546 17.0797L16.218 17.3516L16.986 17.1157L19.7194 18.1925L18.8378 17.5644C18.9453 17.5635 19.0499 17.5622 19.1514 17.5604C19.1084 17.4815 19.0537 17.4068 18.987 17.3356C18.9061 17.3335 18.8355 17.3276 18.7764 17.3177L18.7462 17.4992L17.8252 16.8431C18.1777 16.7215 18.52 16.594 18.8521 16.4607C20.2163 16.446 21.0339 16.3729 21.1552 16.2829L21.3657 16.1268L21.6196 16.192C21.8641 16.2547 22.0893 16.3069 22.2943 16.3489L22.4687 16.6419C22.6051 16.5771 22.7393 16.5122 22.8711 16.4474C22.8384 16.4432 22.8049 16.4386 22.7704 16.4335L27.8261 12.7452L27.403 12.3526C27.9382 12.077 28.2871 11.7154 28.432 11.2498L28.556 10.8511L28.0111 11.2487L27.9068 11.0864L27.3816 10.923C27.3331 11.079 27.1749 11.2351 26.8946 11.3785C27.1757 11.1278 27.4095 10.8795 27.5957 10.6325L26.8017 11.1428L27.8464 10.1682L27.1945 9.71629C27.2513 9.58799 27.2986 9.46141 27.3365 9.33645L27.4199 9.06169L27.0518 9.40511L26.5043 9.12847L26.7575 8.61484L26.2824 8.96445L25.1571 10.4719L24.7741 10.1511C23.7464 12.2365 21.8967 13.8923 19.2064 15.1139L18.2328 14.8881L17.9546 15.0928L17.983 14.8448C16.1488 14.8448 14.7967 13.4847 13.9116 10.6088L13.4982 10.7434L13.8912 11.999L13.4985 12.1482L13.4741 12.087L13.8677 11.9374C13.666 11.4895 13.5105 11.1005 13.4008 10.7752L13.0022 10.905L13.4741 12.087L13.4404 12.0998L13.4656 12.0872C13.1731 11.6099 12.9881 11.2211 12.905 10.9367L12.8658 10.9494C13.0102 11.3693 13.1716 11.7643 13.3499 12.1342L13.2982 12.1539L13.3042 12.1681L13.0635 12.2888L13.0739 12.3097ZM13.3237 12.2147L13.0739 12.3097L13.1051 12.3725L13.0946 12.3777L13.1323 12.4358L12.7657 12.6456L12.7001 12.5756L12.5913 12.6302C12.6191 12.6484 12.6512 12.6685 12.6881 12.69L12.304 12.9097L12.0559 12.733L12.1792 12.9812L12.304 12.9097L12.362 12.951L12.2113 13.0372C12.1303 12.9132 12.0546 12.7948 11.9841 12.6818L11.8239 12.5677L11.4838 12.8864L12.1894 13.6392L12.5907 13.2631L12.6465 13.1537L14.4391 14.4308L15.102 15.1379C14.1996 14.6636 13.425 14.0404 12.7748 13.2666L12.3306 13.7478L12.3406 13.7529L15.1462 15.1851L15.102 15.1379C15.3713 15.2795 15.6519 15.4078 15.9441 15.5229L15.4596 16.4157L15.3256 16.4129L15.4233 16.4825L15.4596 16.4157L16.1374 16.4301L15.8265 16.6589L16.986 17.1157L17.0267 17.1032C17.2984 17.0197 17.5646 16.933 17.8252 16.8431L17.6255 16.7008L17.9499 16.462C18.2725 16.4643 18.5737 16.4637 18.8521 16.4607C19.2586 16.2975 19.6497 16.1256 20.0256 15.9448H22.0537L22.2943 16.3489C22.3404 16.3583 22.3855 16.3673 22.4296 16.3757L22.5568 16.5894L22.7704 16.4335C22.6648 16.4181 22.5511 16.3989 22.4296 16.3757L22.1731 15.9448H22.7903L22.0743 15.7788L21.9966 15.6483C24.1243 14.6375 25.6287 13.6448 26.5086 12.6912C26.8481 12.5967 27.1469 12.4845 27.403 12.3526L27.2192 12.182L28.2041 11.5491L28.0111 11.2487L26.3509 12.4599L26.1433 11.9752C26.423 11.7744 26.6735 11.5757 26.8946 11.3785C26.7376 11.4588 26.5422 11.535 26.3062 11.605L26.8017 11.1428L25.2967 12.1099C26.2348 11.2441 26.8692 10.4519 27.1945 9.71629L27.1282 9.67028L27.251 9.50577L27.0518 9.40511L25.7861 10.5858L26.5043 9.12847L26.2839 9.01708C26.1494 9.46053 25.8152 9.98269 25.2784 10.5734L25.1571 10.4719L24.4789 11.3805L24.648 11.5329L19.644 15.2153L19.2064 15.1139C18.7882 15.3038 18.3496 15.4832 17.8906 15.6522L17.9546 15.0928L17.1128 15.7123C15.4986 15.1351 14.256 13.9647 13.3952 12.227L13.5075 12.1706L13.4985 12.1482L13.3788 12.1937L13.3542 12.143L13.4404 12.0998L13.3499 12.1342L13.3542 12.143L13.3042 12.1681L13.3237 12.2147ZM13.3406 12.2543L13.1051 12.3725L13.1644 12.4918L12.8111 12.694L12.7657 12.6456L12.6881 12.69C12.7084 12.7019 12.7302 12.7142 12.7534 12.727L12.362 12.951L12.6465 13.1537L12.8408 12.7732C12.8095 12.7573 12.7805 12.7419 12.7534 12.727L12.8111 12.694L14.4391 14.4308L16.6825 16.029L16.1374 16.4301L16.9023 16.4464L17.1912 17.0204L17.6255 16.7008L17.2788 16.4538C17.5117 16.4579 17.7356 16.4606 17.9499 16.462L18.6528 15.9448H20.0256C20.3208 15.8028 20.6065 15.6554 20.8828 15.5025L21.9358 15.7467L22.0537 15.9448H22.1731L22.0743 15.7788L21.9358 15.7467L21.9085 15.7008L25.7888 12.8699L26.2774 12.7513C26.3564 12.7321 26.4335 12.7121 26.5086 12.6912C26.5468 12.6498 26.5838 12.6086 26.6196 12.5673L27.2192 12.182L27.0347 12.0108C26.9206 12.1947 26.7822 12.3802 26.6196 12.5673L26.445 12.6796L26.3509 12.4599L25.7888 12.8699L23.7966 13.3535C24.0196 13.1316 24.2306 12.9029 24.4295 12.6672L25.0671 12.2574L25.2846 12.5431C25.5963 12.3516 25.8825 12.1625 26.1433 11.9752L26.0765 11.8193L26.3062 11.605C26.2161 11.6318 26.12 11.6576 26.0179 11.6824L26.0765 11.8193L25.3719 12.4766L25.1597 12.1979L25.2917 12.1131L25.2925 12.1138L25.2967 12.1099L25.2917 12.1131L25.0319 11.879C25.0513 11.8509 25.0705 11.8227 25.0896 11.7944L25.3604 12.0385L27.1282 9.67028L26.963 9.55575C26.7842 9.98791 26.3123 10.4929 25.5451 11.0501C25.6202 10.9143 25.6921 10.7767 25.7608 10.6374L25.7861 10.5858L25.553 10.8034L25.2784 10.5734C25.0662 10.8068 24.8224 11.051 24.5468 11.3052L24.7314 11.4716L24.648 11.5329L24.7105 11.5893L24.6216 11.6723L24.9103 12.0515C24.7588 12.2617 24.5985 12.467 24.4295 12.6672L23.0976 13.5231L23.7966 13.3535C22.9847 14.1611 22.0129 14.8773 20.8828 15.5025L19.644 15.2153L18.6528 15.9448H17.983C17.723 15.9448 17.4712 15.9246 17.2273 15.8843C17.2949 15.8618 17.362 15.8391 17.4288 15.8162C17.5695 15.8586 17.7128 15.8967 17.8588 15.9306L17.8906 15.6522C17.7389 15.708 17.585 15.7627 17.4288 15.8162C17.3219 15.784 17.2166 15.7494 17.1128 15.7123L16.9532 15.8297C15.4041 15.4681 14.1981 14.258 13.3406 12.2543ZM13.3406 12.2543L13.3952 12.227L13.3788 12.1937L13.3237 12.2147L13.3406 12.2543ZM16.7111 16.0494L16.6825 16.029L16.9532 15.8297C17.0434 15.8508 17.1348 15.869 17.2273 15.8843C17.0578 15.9406 16.8857 15.9957 16.7111 16.0494ZM24.977 11.9579C24.9954 11.9317 25.0138 11.9054 25.0319 11.879L24.7208 11.5985C24.751 11.5799 24.7809 11.5614 24.8105 11.5429L25.0896 11.7944C25.2526 11.5527 25.4045 11.3045 25.5451 11.0501C25.3247 11.2102 25.0798 11.3746 24.8105 11.5429L24.785 11.5198L25.2301 11.1045L25.5934 10.8372L25.553 10.8034L25.2301 11.1045L24.7314 11.4716L24.785 11.5198L24.7105 11.5893L24.7208 11.5985L24.7088 11.6058L24.977 11.9579ZM24.977 11.9579L25.1597 12.1979L25.0671 12.2574L24.9103 12.0515C24.9327 12.0204 24.9549 11.9892 24.977 11.9579ZM16.7111 16.0494L17.2788 16.4538C17.1882 16.4522 17.0963 16.4505 17.003 16.4485L16.9023 16.4464L16.7036 16.0517L16.7111 16.0494ZM18.7462 17.4992L18.7352 17.5652L18.8378 17.5644L18.7462 17.4992ZM21.8105 17.1664L21.6503 16.9504C21.5699 16.968 21.4903 16.985 21.4118 17.0014L21.3461 17.2574C21.4104 17.2739 21.4735 17.2898 21.5356 17.305C21.6496 17.2642 21.7408 17.2182 21.8105 17.1664Z" fill="#FFE402"/>
</g>
</g>
<rect width="32" height="24" fill="url(#paint0_linear_230_25330)" style="mix-blend-mode:overlay"/>
</g>
<rect x="0.5" y="0.5" width="31" height="23" rx="1.5" stroke="black" stroke-opacity="0.1"/>
<defs>
<linearGradient id="paint0_linear_230_25330" x1="16" y1="0" x2="16" y2="24" gradientUnits="userSpaceOnUse">
<stop stop-color="white" stop-opacity="0.7"/>
<stop offset="1" stop-opacity="0.3"/>
</linearGradient>
<clipPath id="clip0_230_25330">
<rect width="32" height="24" rx="2" fill="white"/>
</clipPath>
</defs>
</svg>
