<svg width="32" height="24" viewBox="0 0 32 24" fill="none" xmlns="http://www.w3.org/2000/svg">
<g clip-path="url(#clip0_230_24884)">
<mask id="mask0_230_24884" style="mask-type:luminance" maskUnits="userSpaceOnUse" x="0" y="0" width="32" height="24">
<rect width="32" height="24" fill="white"/>
</mask>
<g mask="url(#mask0_230_24884)">
<path fill-rule="evenodd" clip-rule="evenodd" d="M0 0V24H32V0H0Z" fill="#1C7B4D"/>
<mask id="mask1_230_24884" style="mask-type:luminance" maskUnits="userSpaceOnUse" x="0" y="0" width="32" height="24">
<path fill-rule="evenodd" clip-rule="evenodd" d="M0 0V24H32V0H0Z" fill="white"/>
</mask>
<g mask="url(#mask1_230_24884)">
<path fill-rule="evenodd" clip-rule="evenodd" d="M0 0V6H32V0H0Z" fill="#E31D1C"/>
<path fill-rule="evenodd" clip-rule="evenodd" d="M0 18V24H32V18H0Z" fill="#E31D1C"/>
<path fill-rule="evenodd" clip-rule="evenodd" d="M16.2413 14.3786C21.4266 14.4073 22.887 10.0651 22.887 10.0651C22.5933 13.7799 20.5386 16.2991 16.2413 16.2991C11.9441 16.2991 10.3661 13.036 9.5957 9.78078C9.5957 9.78078 11.0561 14.3498 16.2413 14.3786Z" fill="#FECA00"/>
<path fill-rule="evenodd" clip-rule="evenodd" d="M17.6371 9.81371L17.9739 11.7772L16.2105 10.8502L14.4472 11.7772L14.784 9.81371L13.3574 8.2799L15.3289 8.2799L16.2105 6.35019L17.0922 8.2799L19.0637 8.2799L17.6371 9.81371Z" fill="#FECA00"/>
</g>
</g>
<rect width="32" height="24" fill="url(#paint0_linear_230_24884)" style="mix-blend-mode:overlay"/>
</g>
<rect x="0.5" y="0.5" width="31" height="23" rx="1.5" stroke="black" stroke-opacity="0.1"/>
<defs>
<linearGradient id="paint0_linear_230_24884" x1="16" y1="0" x2="16" y2="24" gradientUnits="userSpaceOnUse">
<stop stop-color="white" stop-opacity="0.7"/>
<stop offset="1" stop-opacity="0.3"/>
</linearGradient>
<clipPath id="clip0_230_24884">
<rect width="32" height="24" rx="2" fill="white"/>
</clipPath>
</defs>
</svg>
